<?xml version="1.0" standalone="no"?>
 <!DOCTYPE svg PUBLIC "-//W3C//DTD SVG 1.1//EN" 
 "http://www.w3.org/Graphics/SVG/1.1/DTD/svg11.dtd"> 
<svg xmlns="http://www.w3.org/2000/svg" version="1.1" 
    width="29.7002cm" height="21.0007cm" viewBox="0 0 116930 82680 ">
<title>SVG Picture created as uCODEC-1.0-drl_map.svg date 2019/04/02 19:53:53 </title>
  <desc>Picture generated by PCBNEW </desc>
<g style="fill:#000000; fill-opacity:1;stroke:#000000; stroke-opacity:1;
stroke-linecap:round; stroke-linejoin:round; "
 transform="translate(0 0) scale(1 1)">
</g>
<g style="fill:#000000; fill-opacity:0.0; 
stroke:#000000; stroke-width:-0.000393701; stroke-opacity:1; 
stroke-linecap:round; stroke-linejoin:round;">
</g>
<g style="fill:#000000; fill-opacity:0.0; 
stroke:#000000; stroke-width:39.3701; stroke-opacity:1; 
stroke-linecap:round; stroke-linejoin:round;">
<path d="M51968 27952
L51968 47637
" />
<path d="M71653 27952
L51968 27952
" />
<path d="M71653 47637
L71653 27952
" />
<path d="M51968 47637
L71653 47637
" />
</g>
<g style="fill:#000000; fill-opacity:0.0; 
stroke:#000000; stroke-width:78.7402; stroke-opacity:1; 
stroke-linecap:round; stroke-linejoin:round;">
<path d="M52251 30236
L52370 30354
" />
<path d="M52370 30236
L52251 30354
" />
<path d="M52251 32736
L52370 32854
" />
<path d="M52370 32736
L52251 32854
" />
<path d="M52263 39507
L52381 39625
" />
<path d="M52381 39507
L52263 39625
" />
<path d="M52333 44810
L52451 44928
" />
<path d="M52451 44810
L52333 44928
" />
<path d="M52342 44271
L52460 44389
" />
<path d="M52460 44271
L52342 44389
" />
<path d="M52381 41594
L52500 41712
" />
<path d="M52500 41594
L52381 41712
" />
<path d="M52381 41988
L52500 42106
" />
<path d="M52500 41988
L52381 42106
" />
<path d="M52381 42421
L52500 42539
" />
<path d="M52500 42421
L52381 42539
" />
<path d="M52500 38129
L52618 38248
" />
<path d="M52618 38129
L52500 38248
" />
<path d="M52657 38759
L52775 38877
" />
<path d="M52775 38759
L52657 38877
" />
<path d="M52814 40255
L52933 40374
" />
<path d="M52933 40255
L52814 40374
" />
<path d="M52893 36870
L53011 36988
" />
<path d="M53011 36870
L52893 36988
" />
<path d="M53011 38759
L53129 38877
" />
<path d="M53129 38759
L53011 38877
" />
<path d="M53283 44810
L53401 44928
" />
<path d="M53401 44810
L53283 44928
" />
<path d="M53405 36870
L53523 36988
" />
<path d="M53523 36870
L53405 36988
" />
<path d="M53877 36870
L53996 36988
" />
<path d="M53996 36870
L53877 36988
" />
<path d="M53996 44822
L54114 44940
" />
<path d="M54114 44822
L53996 44940
" />
<path d="M54251 28236
L54370 28354
" />
<path d="M54370 28236
L54251 28354
" />
<path d="M54251 47236
L54370 47354
" />
<path d="M54370 47236
L54251 47354
" />
<path d="M54468 43051
L54586 43169
" />
<path d="M54586 43051
L54468 43169
" />
<path d="M54468 45019
L54586 45137
" />
<path d="M54586 45019
L54468 45137
" />
<path d="M54862 43051
L54980 43169
" />
<path d="M54980 43051
L54862 43169
" />
<path d="M55255 41240
L55374 41358
" />
<path d="M55374 41240
L55255 41358
" />
<path d="M55255 43051
L55374 43169
" />
<path d="M55374 43051
L55255 43169
" />
<path d="M55295 37618
L55413 37736
" />
<path d="M55413 37618
L55295 37736
" />
<path d="M55295 38602
L55413 38720
" />
<path d="M55413 38602
L55295 38720
" />
<path d="M55295 39625
L55413 39744
" />
<path d="M55413 39625
L55295 39744
" />
<path d="M55413 42618
L55531 42736
" />
<path d="M55531 42618
L55413 42736
" />
<path d="M55452 43248
L55570 43366
" />
<path d="M55570 43248
L55452 43366
" />
<path d="M55649 43051
L55767 43169
" />
<path d="M55767 43051
L55649 43169
" />
<path d="M55846 40885
L55964 41003
" />
<path d="M55964 40885
L55846 41003
" />
<path d="M56008 44985
L56126 45103
" />
<path d="M56126 44985
L56008 45103
" />
<path d="M56240 37539
L56358 37657
" />
<path d="M56358 37539
L56240 37657
" />
<path d="M56240 39704
L56358 39822
" />
<path d="M56358 39704
L56240 39822
" />
<path d="M56601 46486
L56720 46604
" />
<path d="M56720 46486
L56601 46604
" />
<path d="M56633 38129
L56751 38248
" />
<path d="M56751 38129
L56633 38248
" />
<path d="M56633 39311
L56751 39429
" />
<path d="M56751 39311
L56633 39429
" />
<path d="M57027 40807
L57145 40925
" />
<path d="M57145 40807
L57027 40925
" />
<path d="M57500 43326
L57618 43444
" />
<path d="M57618 43326
L57500 43444
" />
<path d="M57814 43011
L57933 43129
" />
<path d="M57933 43011
L57814 43129
" />
<path d="M57814 44232
L57933 44350
" />
<path d="M57933 44232
L57814 44350
" />
<path d="M57854 46476
L57972 46594
" />
<path d="M57972 46476
L57854 46594
" />
<path d="M58011 44035
L58129 44153
" />
<path d="M58129 44035
L58011 44153
" />
<path d="M58011 44429
L58129 44547
" />
<path d="M58129 44429
L58011 44547
" />
<path d="M58681 40295
L58799 40413
" />
<path d="M58799 40295
L58681 40413
" />
<path d="M58720 38090
L58838 38208
" />
<path d="M58838 38090
L58720 38208
" />
<path d="M58778 33174
L58896 33293
" />
<path d="M58896 33174
L58778 33293
" />
<path d="M58799 40846
L58917 40964
" />
<path d="M58917 40846
L58799 40964
" />
<path d="M58842 32866
L58960 32984
" />
<path d="M58960 32866
L58842 32984
" />
<path d="M58955 32572
L59073 32690
" />
<path d="M59073 32572
L58955 32690
" />
<path d="M58956 32257
L59074 32375
" />
<path d="M59074 32257
L58956 32375
" />
<path d="M58996 30846
L59114 30964
" />
<path d="M59114 30846
L58996 30964
" />
<path d="M58996 31594
L59114 31712
" />
<path d="M59114 31594
L58996 31712
" />
<path d="M58996 45708
L59114 45826
" />
<path d="M59114 45708
L58996 45826
" />
<path d="M58996 46791
L59114 46909
" />
<path d="M59114 46791
L58996 46909
" />
<path d="M59192 38996
L59311 39114
" />
<path d="M59311 38996
L59192 39114
" />
<path d="M59232 36240
L59350 36358
" />
<path d="M59350 36240
L59232 36358
" />
<path d="M59586 37421
L59704 37539
" />
<path d="M59704 37421
L59586 37539
" />
<path d="M59625 30846
L59744 30964
" />
<path d="M59744 30846
L59625 30964
" />
<path d="M59901 35767
L60019 35885
" />
<path d="M60019 35767
L59901 35885
" />
<path d="M59940 30137
L60059 30255
" />
<path d="M60059 30137
L59940 30255
" />
<path d="M59950 33491
L60068 33609
" />
<path d="M60068 33491
L59950 33609
" />
<path d="M59980 30688
L60098 30807
" />
<path d="M60098 30688
L59980 30807
" />
<path d="M59980 44429
L60098 44547
" />
<path d="M60098 44429
L59980 44547
" />
<path d="M59980 44822
L60098 44940
" />
<path d="M60098 44822
L59980 44940
" />
<path d="M59980 45177
L60098 45295
" />
<path d="M60098 45177
L59980 45295
" />
<path d="M59999 34232
L60118 34350
" />
<path d="M60118 34232
L59999 34350
" />
<path d="M60066 29834
L60184 29953
" />
<path d="M60184 29834
L60066 29953
" />
<path d="M60374 33996
L60492 34114
" />
<path d="M60492 33996
L60374 34114
" />
<path d="M60374 44429
L60492 44547
" />
<path d="M60492 44429
L60374 44547
" />
<path d="M60629 34665
L60748 34783
" />
<path d="M60748 34665
L60629 34783
" />
<path d="M60688 39901
L60807 40019
" />
<path d="M60807 39901
L60688 40019
" />
<path d="M60728 40885
L60846 41003
" />
<path d="M60846 40885
L60728 41003
" />
<path d="M60767 47224
L60885 47342
" />
<path d="M60885 47224
L60767 47342
" />
<path d="M60857 30098
L60975 30216
" />
<path d="M60975 30098
L60857 30216
" />
<path d="M61003 35846
L61122 35964
" />
<path d="M61122 35846
L61003 35964
" />
<path d="M61043 41870
L61161 41988
" />
<path d="M61161 41870
L61043 41988
" />
<path d="M61043 42933
L61161 43051
" />
<path d="M61161 42933
L61043 43051
" />
<path d="M61122 31555
L61240 31673
" />
<path d="M61240 31555
L61122 31673
" />
<path d="M61122 32362
L61240 32480
" />
<path d="M61240 32362
L61122 32480
" />
<path d="M61122 34074
L61240 34192
" />
<path d="M61240 34074
L61122 34192
" />
<path d="M61122 44350
L61240 44468
" />
<path d="M61240 44350
L61122 44468
" />
<path d="M61161 36122
L61279 36240
" />
<path d="M61279 36122
L61161 36240
" />
<path d="M61358 28366
L61476 28484
" />
<path d="M61476 28366
L61358 28484
" />
<path d="M61515 36122
L61633 36240
" />
<path d="M61633 36122
L61515 36240
" />
<path d="M61555 31909
L61673 32027
" />
<path d="M61673 31909
L61555 32027
" />
<path d="M61594 44350
L61712 44468
" />
<path d="M61712 44350
L61594 44468
" />
<path d="M61594 45807
L61712 45925
" />
<path d="M61712 45807
L61594 45925
" />
<path d="M61633 43877
L61751 43996
" />
<path d="M61751 43877
L61633 43996
" />
<path d="M61830 29980
L61948 30098
" />
<path d="M61948 29980
L61830 30098
" />
<path d="M61870 36122
L61988 36240
" />
<path d="M61988 36122
L61870 36240
" />
<path d="M61909 44625
L62027 44744
" />
<path d="M62027 44625
L61909 44744
" />
<path d="M62185 29901
L62303 30019
" />
<path d="M62303 29901
L62185 30019
" />
<path d="M62224 36122
L62342 36240
" />
<path d="M62342 36122
L62224 36240
" />
<path d="M62381 34074
L62500 34192
" />
<path d="M62500 34074
L62381 34192
" />
<path d="M62578 36122
L62696 36240
" />
<path d="M62696 36122
L62578 36240
" />
<path d="M62618 32283
L62736 32401
" />
<path d="M62736 32283
L62618 32401
" />
<path d="M62618 38484
L62736 38602
" />
<path d="M62736 38484
L62618 38602
" />
<path d="M62657 39862
L62775 39980
" />
<path d="M62775 39862
L62657 39980
" />
<path d="M62657 40255
L62775 40374
" />
<path d="M62775 40255
L62657 40374
" />
<path d="M62657 41240
L62775 41358
" />
<path d="M62775 41240
L62657 41358
" />
<path d="M62751 47236
L62870 47354
" />
<path d="M62870 47236
L62751 47354
" />
<path d="M62814 34665
L62933 34783
" />
<path d="M62933 34665
L62814 34783
" />
<path d="M62971 30001
L63089 30119
" />
<path d="M63089 30001
L62971 30119
" />
<path d="M63129 44232
L63248 44350
" />
<path d="M63248 44232
L63129 44350
" />
<path d="M63248 32421
L63366 32539
" />
<path d="M63366 32421
L63248 32539
" />
<path d="M63516 33711
L63634 33829
" />
<path d="M63634 33711
L63516 33829
" />
<path d="M63523 30688
L63641 30807
" />
<path d="M63641 30688
L63523 30807
" />
<path d="M63563 33399
L63681 33517
" />
<path d="M63681 33399
L63563 33517
" />
<path d="M63576 31736
L63694 31854
" />
<path d="M63694 31736
L63576 31854
" />
<path d="M63582 32716
L63700 32834
" />
<path d="M63700 32716
L63582 32834
" />
<path d="M63877 34783
L63996 34901
" />
<path d="M63996 34783
L63877 34901
" />
<path d="M63948 30976
L64066 31094
" />
<path d="M64066 30976
L63948 31094
" />
<path d="M64074 37263
L64192 37381
" />
<path d="M64192 37263
L64074 37381
" />
<path d="M64192 41673
L64311 41791
" />
<path d="M64311 41673
L64192 41791
" />
<path d="M64547 32342
L64665 32460
" />
<path d="M64665 32342
L64547 32460
" />
<path d="M64586 30878
L64704 30996
" />
<path d="M64704 30878
L64586 30996
" />
<path d="M64586 30492
L64704 30610
" />
<path d="M64704 30492
L64586 30610
" />
<path d="M65059 42106
L65177 42224
" />
<path d="M65177 42106
L65059 42224
" />
<path d="M65531 40255
L65649 40374
" />
<path d="M65649 40255
L65531 40374
" />
<path d="M66476 45590
L66594 45708
" />
<path d="M66594 45590
L66476 45708
" />
<path d="M66555 40255
L66673 40374
" />
<path d="M66673 40255
L66555 40374
" />
<path d="M66594 38484
L66712 38602
" />
<path d="M66712 38484
L66594 38602
" />
<path d="M66594 39094
L66712 39212
" />
<path d="M66712 39094
L66594 39212
" />
<path d="M66751 47236
L66870 47354
" />
<path d="M66870 47236
L66751 47354
" />
<path d="M67893 44232
L68011 44350
" />
<path d="M68011 44232
L67893 44350
" />
<path d="M68602 38248
L68720 38366
" />
<path d="M68720 38248
L68602 38366
" />
<path d="M68602 38956
L68720 39074
" />
<path d="M68720 38956
L68602 39074
" />
<path d="M68602 40059
L68720 40177
" />
<path d="M68720 40059
L68602 40177
" />
<path d="M69251 47236
L69370 47354
" />
<path d="M69370 47236
L69251 47354
" />
<path d="M69744 40295
L69862 40413
" />
<path d="M69862 40295
L69744 40413
" />
<path d="M69783 39114
L69901 39232
" />
<path d="M69901 39114
L69783 39232
" />
<path d="M70708 39862
L70826 39980
" />
<path d="M70826 39862
L70708 39980
" />
<path d="M70728 37047
L70846 37165
" />
<path d="M70846 37047
L70728 37165
" />
<path d="M71251 30736
L71370 30854
" />
<path d="M71370 30736
L71251 30854
" />
<path d="M71251 32736
L71370 32854
" />
<path d="M71370 32736
L71251 32854
" />
<path d="M71251 34736
L71370 34854
" />
<path d="M71370 34736
L71251 34854
" />
<path d="M71251 45236
L71370 45354
" />
<path d="M71370 45236
L71251 45354
" />
<path d="M71279 37185
L71397 37303
" />
<path d="M71397 37185
L71279 37303
" />
<path d="M71279 39243
L71397 39361
" />
<path d="M71397 39243
L71279 39361
" />
<circle cx="69311" cy="31795.3" r="157.48" /> 
<circle cx="69311" cy="32795.3" r="157.48" /> 
<circle cx="69311" cy="33795.3" r="157.48" /> 
<circle cx="69311" cy="34795.3" r="157.48" /> 
<circle cx="70311" cy="31795.3" r="157.48" /> 
<circle cx="70311" cy="32795.3" r="157.48" /> 
<circle cx="70311" cy="33795.3" r="157.48" /> 
<circle cx="70311" cy="34795.3" r="157.48" /> 
<circle cx="53311" cy="31795.3" r="157.48" /> 
<circle cx="53311" cy="32795.3" r="157.48" /> 
<circle cx="53311" cy="33795.3" r="157.48" /> 
<circle cx="53311" cy="34795.3" r="157.48" /> 
<circle cx="54311" cy="31795.3" r="157.48" /> 
<circle cx="54311" cy="32795.3" r="157.48" /> 
<circle cx="54311" cy="33795.3" r="157.48" /> 
<circle cx="54311" cy="34795.3" r="157.48" /> 
<circle cx="69311" cy="40795.3" r="157.48" /> 
<circle cx="69311" cy="41795.3" r="157.48" /> 
<circle cx="69311" cy="42795.3" r="157.48" /> 
<circle cx="69311" cy="43795.3" r="157.48" /> 
<circle cx="70311" cy="40795.3" r="157.48" /> 
<circle cx="70311" cy="41795.3" r="157.48" /> 
<circle cx="70311" cy="42795.3" r="157.48" /> 
<circle cx="70311" cy="43795.3" r="157.48" /> 
<path d="M62311 46598
L62311 46992
" />
<path d="M62114 46795
L62507 46795
" />
<path d="M63311 46598
L63311 46992
" />
<path d="M63114 46795
L63507 46795
" />
<path d="M64311 46598
L64311 46992
" />
<path d="M64114 46795
L64507 46795
" />
<path d="M65311 46598
L65311 46992
" />
<path d="M65114 46795
L65507 46795
" />
<path d="M56061 45598
L56061 45992
" />
<path d="M55864 45795
L56257 45795
" />
<path d="M56364 45637
L55757 45637
" />
<path d="M56364 45952
L55757 45952
" />
<path d="M55757.9 45637.8 A157.48 157.48 0.0 0 0 55757.9 45952.8 " />
<path d="M56364.2 45952.8 A157.48 157.48 0.0 0 0 56364.2 45637.8 " />
<path d="M57311 45598
L57311 45992
" />
<path d="M57114 45795
L57507 45795
" />
<path d="M64311 28598
L64311 28992
" />
<path d="M64114 28795
L64507 28795
" />
<path d="M65311 28598
L65311 28992
" />
<path d="M65114 28795
L65507 28795
" />
<path d="M66311 28598
L66311 28992
" />
<path d="M66114 28795
L66507 28795
" />
<path d="M67311 28598
L67311 28992
" />
<path d="M67114 28795
L67507 28795
" />
<path d="M68311 28598
L68311 28992
" />
<path d="M68114 28795
L68507 28795
" />
<path d="M64311 29598
L64311 29992
" />
<path d="M64114 29795
L64507 29795
" />
<path d="M65311 29598
L65311 29992
" />
<path d="M65114 29795
L65507 29795
" />
<path d="M66311 29598
L66311 29992
" />
<path d="M66114 29795
L66507 29795
" />
<path d="M67311 29598
L67311 29992
" />
<path d="M67114 29795
L67507 29795
" />
<path d="M68311 29598
L68311 29992
" />
<path d="M68114 29795
L68507 29795
" />
<path d="M64311 44598
L64311 44992
" />
<path d="M64114 44795
L64507 44795
" />
<path d="M65311 44598
L65311 44992
" />
<path d="M65114 44795
L65507 44795
" />
<path d="M66311 44598
L66311 44992
" />
<path d="M66114 44795
L66507 44795
" />
<path d="M67311 44598
L67311 44992
" />
<path d="M67114 44795
L67507 44795
" />
<path d="M62311 45598
L62311 45992
" />
<path d="M62114 45795
L62507 45795
" />
<path d="M63311 45598
L63311 45992
" />
<path d="M63114 45795
L63507 45795
" />
<path d="M64311 45598
L64311 45992
" />
<path d="M64114 45795
L64507 45795
" />
<path d="M65311 45598
L65311 45992
" />
<path d="M65114 45795
L65507 45795
" />
<path d="M55311 29598
L55311 29992
" />
<path d="M55114 29795
L55507 29795
" />
<path d="M56311 29598
L56311 29992
" />
<path d="M56114 29795
L56507 29795
" />
<path d="M57311 29598
L57311 29992
" />
<path d="M57114 29795
L57507 29795
" />
<path d="M58311 29598
L58311 29992
" />
<path d="M58114 29795
L58507 29795
" />
<path d="M59311 29598
L59311 29992
" />
<path d="M59114 29795
L59507 29795
" />
<path d="M55311 28598
L55311 28992
" />
<path d="M55114 28795
L55507 28795
" />
<path d="M56311 28598
L56311 28992
" />
<path d="M56114 28795
L56507 28795
" />
<path d="M57311 28598
L57311 28992
" />
<path d="M57114 28795
L57507 28795
" />
<path d="M58311 28598
L58311 28992
" />
<path d="M58114 28795
L58507 28795
" />
<path d="M59311 28598
L59311 28992
" />
<path d="M59114 28795
L59507 28795
" />
<path d="M54527 36614
L54527 37007
" />
<path d="M54330 36811
L54724 36811
" />
<path style="fill:#000000; fill-opacity:0.0; 
stroke:#000000; stroke-width:78.7402; stroke-opacity:1; 
stroke-linecap:round; stroke-linejoin:round;fill:none"
d="M 70721,46705
70721,45814
69830,45814
69830,46705
70721,46705
Z" /> 
<path style="fill:#000000; fill-opacity:0.0; 
stroke:#000000; stroke-width:78.7402; stroke-opacity:1; 
stroke-linecap:round; stroke-linejoin:round;fill:none"
d="M 70721,29776
70721,28885
69830,28885
69830,29776
70721,29776
Z" /> 
<path style="fill:#000000; fill-opacity:0.0; 
stroke:#000000; stroke-width:78.7402; stroke-opacity:1; 
stroke-linecap:round; stroke-linejoin:round;fill:none"
d="M 53791,46705
53791,45814
52901,45814
52901,46705
53791,46705
Z" /> 
<path style="fill:#000000; fill-opacity:0.0; 
stroke:#000000; stroke-width:78.7402; stroke-opacity:1; 
stroke-linecap:round; stroke-linejoin:round;fill:none"
d="M 53791,29776
53791,28885
52901,28885
52901,29776
53791,29776
Z" /> 
</g>
<g style="fill:#000000; fill-opacity:0.0; 
stroke:#000000; stroke-width:118.11; stroke-opacity:1; 
stroke-linecap:round; stroke-linejoin:round;">
<path d="M53076 49491
L53076 48309
L53357 48309
L53526 48366
L53638 48478
L53695 48591
L53751 48816
L53751 48984
L53695 49209
L53638 49322
L53526 49434
L53357 49491
L53076 49491
" />
<path d="M54257 49491
L54257 48703
" />
<path d="M54257 48928
L54313 48816
L54370 48759
L54482 48703
L54595 48703
" />
<path d="M54988 49491
L54988 48703
" />
<path d="M54988 48309
L54932 48366
L54988 48422
L55044 48366
L54988 48309
L54988 48422
" />
<path d="M55719 49491
L55607 49434
L55551 49322
L55551 48309
" />
<path d="M56338 49491
L56226 49434
L56169 49322
L56169 48309
" />
<path d="M57688 49491
L57688 48309
L58082 49153
L58475 48309
L58475 49491
" />
<path d="M59544 49491
L59544 48872
L59488 48759
L59375 48703
L59150 48703
L59038 48759
" />
<path d="M59544 49434
L59431 49491
L59150 49491
L59038 49434
L58982 49322
L58982 49209
L59038 49097
L59150 49041
L59431 49041
L59544 48984
" />
<path d="M60106 48703
L60106 49884
" />
<path d="M60106 48759
L60219 48703
L60444 48703
L60556 48759
L60613 48816
L60669 48928
L60669 49266
L60613 49378
L60556 49434
L60444 49491
L60219 49491
L60106 49434
" />
<path d="M61175 49378
L61231 49434
L61175 49491
L61119 49434
L61175 49378
L61175 49491
" />
<path d="M61175 48759
L61231 48816
L61175 48872
L61119 48816
L61175 48759
L61175 48872
" />
<path d="M51830 51377
L51948 51496
" />
<path d="M51948 51377
L51830 51496
" />
<path d="M53301 50790
L53413 50790
L53526 50846
L53582 50902
L53638 51015
L53695 51240
L53695 51521
L53638 51746
L53582 51858
L53526 51915
L53413 51971
L53301 51971
L53188 51915
L53132 51858
L53076 51746
L53020 51521
L53020 51240
L53076 51015
L53132 50902
L53188 50846
L53301 50790
" />
<path d="M54201 51858
L54257 51915
L54201 51971
L54145 51915
L54201 51858
L54201 51971
" />
<path d="M54651 50790
L55382 50790
L54988 51240
L55157 51240
L55269 51296
L55326 51352
L55382 51465
L55382 51746
L55326 51858
L55269 51915
L55157 51971
L54820 51971
L54707 51915
L54651 51858
" />
<path d="M56113 50790
L56226 50790
L56338 50846
L56394 50902
L56451 51015
L56507 51240
L56507 51521
L56451 51746
L56394 51858
L56338 51915
L56226 51971
L56113 51971
L56001 51915
L55944 51858
L55888 51746
L55832 51521
L55832 51240
L55888 51015
L55944 50902
L56001 50846
L56113 50790
" />
<path d="M57013 51971
L57013 51183
" />
<path d="M57013 51296
L57069 51240
L57182 51183
L57350 51183
L57463 51240
L57519 51352
L57519 51971
" />
<path d="M57519 51352
L57575 51240
L57688 51183
L57857 51183
L57969 51240
L58025 51352
L58025 51971
" />
<path d="M58588 51971
L58588 51183
" />
<path d="M58588 51296
L58644 51240
L58757 51183
L58925 51183
L59038 51240
L59094 51352
L59094 51971
" />
<path d="M59094 51352
L59150 51240
L59263 51183
L59431 51183
L59544 51240
L59600 51352
L59600 51971
" />
<path d="M61906 50733
L60894 52252
" />
<path d="M63425 50790
L63537 50790
L63650 50846
L63706 50902
L63762 51015
L63818 51240
L63818 51521
L63762 51746
L63706 51858
L63650 51915
L63537 51971
L63425 51971
L63312 51915
L63256 51858
L63200 51746
L63143 51521
L63143 51240
L63200 51015
L63256 50902
L63312 50846
L63425 50790
" />
<path d="M64325 51858
L64381 51915
L64325 51971
L64268 51915
L64325 51858
L64325 51971
" />
<path d="M65112 50790
L65224 50790
L65337 50846
L65393 50902
L65449 51015
L65506 51240
L65506 51521
L65449 51746
L65393 51858
L65337 51915
L65224 51971
L65112 51971
L64999 51915
L64943 51858
L64887 51746
L64831 51521
L64831 51240
L64887 51015
L64943 50902
L64999 50846
L65112 50790
" />
<path d="M66631 51971
L65956 51971
" />
<path d="M66293 51971
L66293 50790
L66181 50958
L66068 51071
L65956 51127
" />
<path d="M67080 50902
L67137 50846
L67249 50790
L67530 50790
L67643 50846
L67699 50902
L67755 51015
L67755 51127
L67699 51296
L67024 51971
L67755 51971
" />
<path d="M68205 50790
L68205 51015
" />
<path d="M68655 50790
L68655 51015
" />
<path d="M70399 52421
L70343 52365
L70230 52196
L70174 52083
L70118 51915
L70061 51633
L70061 51408
L70118 51127
L70174 50958
L70230 50846
L70343 50677
L70399 50621
" />
<path d="M71467 51971
L70793 51971
" />
<path d="M71130 51971
L71130 50790
L71017 50958
L70905 51071
L70793 51127
" />
<path d="M72480 51183
L72480 51971
" />
<path d="M72199 50733
L71917 51577
L72649 51577
" />
<path d="M73323 50790
L73436 50790
L73548 50846
L73605 50902
L73661 51015
L73717 51240
L73717 51521
L73661 51746
L73605 51858
L73548 51915
L73436 51971
L73323 51971
L73211 51915
L73155 51858
L73098 51746
L73042 51521
L73042 51240
L73098 51015
L73155 50902
L73211 50846
L73323 50790
" />
<path d="M75123 51971
L75123 50790
" />
<path d="M75629 51971
L75629 51352
L75573 51240
L75461 51183
L75292 51183
L75179 51240
L75123 51296
" />
<path d="M76361 51971
L76248 51915
L76192 51858
L76136 51746
L76136 51408
L76192 51296
L76248 51240
L76361 51183
L76529 51183
L76642 51240
L76698 51296
L76754 51408
L76754 51746
L76698 51858
L76642 51915
L76529 51971
L76361 51971
" />
<path d="M77429 51971
L77317 51915
L77260 51802
L77260 50790
" />
<path d="M78329 51915
L78217 51971
L77992 51971
L77879 51915
L77823 51802
L77823 51352
L77879 51240
L77992 51183
L78217 51183
L78329 51240
L78385 51352
L78385 51465
L77823 51577
" />
<path d="M78835 51915
L78948 51971
L79173 51971
L79285 51915
L79341 51802
L79341 51746
L79285 51633
L79173 51577
L79004 51577
L78892 51521
L78835 51408
L78835 51352
L78892 51240
L79004 51183
L79173 51183
L79285 51240
" />
<path d="M79735 52421
L79791 52365
L79904 52196
L79960 52083
L80016 51915
L80073 51633
L80073 51408
L80016 51127
L79960 50958
L79904 50846
L79791 50677
L79735 50621
" />
<circle cx="51791.3" cy="52996.1" r="157.48" /> 
<path d="M53301 52349
L53413 52349
L53526 52405
L53582 52461
L53638 52574
L53695 52799
L53695 53080
L53638 53305
L53582 53417
L53526 53474
L53413 53530
L53301 53530
L53188 53474
L53132 53417
L53076 53305
L53020 53080
L53020 52799
L53076 52574
L53132 52461
L53188 52405
L53301 52349
" />
<path d="M54201 53417
L54257 53474
L54201 53530
L54145 53474
L54201 53417
L54201 53530
" />
<path d="M54932 52855
L54820 52799
L54763 52742
L54707 52630
L54707 52574
L54763 52461
L54820 52405
L54932 52349
L55157 52349
L55269 52405
L55326 52461
L55382 52574
L55382 52630
L55326 52742
L55269 52799
L55157 52855
L54932 52855
L54820 52911
L54763 52967
L54707 53080
L54707 53305
L54763 53417
L54820 53474
L54932 53530
L55157 53530
L55269 53474
L55326 53417
L55382 53305
L55382 53080
L55326 52967
L55269 52911
L55157 52855
" />
<path d="M56113 52349
L56226 52349
L56338 52405
L56394 52461
L56451 52574
L56507 52799
L56507 53080
L56451 53305
L56394 53417
L56338 53474
L56226 53530
L56113 53530
L56001 53474
L55944 53417
L55888 53305
L55832 53080
L55832 52799
L55888 52574
L55944 52461
L56001 52405
L56113 52349
" />
<path d="M57013 53530
L57013 52742
" />
<path d="M57013 52855
L57069 52799
L57182 52742
L57350 52742
L57463 52799
L57519 52911
L57519 53530
" />
<path d="M57519 52911
L57575 52799
L57688 52742
L57857 52742
L57969 52799
L58025 52911
L58025 53530
" />
<path d="M58588 53530
L58588 52742
" />
<path d="M58588 52855
L58644 52799
L58757 52742
L58925 52742
L59038 52799
L59094 52911
L59094 53530
" />
<path d="M59094 52911
L59150 52799
L59263 52742
L59431 52742
L59544 52799
L59600 52911
L59600 53530
" />
<path d="M61906 52293
L60894 53811
" />
<path d="M63425 52349
L63537 52349
L63650 52405
L63706 52461
L63762 52574
L63818 52799
L63818 53080
L63762 53305
L63706 53417
L63650 53474
L63537 53530
L63425 53530
L63312 53474
L63256 53417
L63200 53305
L63143 53080
L63143 52799
L63200 52574
L63256 52461
L63312 52405
L63425 52349
" />
<path d="M64325 53417
L64381 53474
L64325 53530
L64268 53474
L64325 53417
L64325 53530
" />
<path d="M65112 52349
L65224 52349
L65337 52405
L65393 52461
L65449 52574
L65506 52799
L65506 53080
L65449 53305
L65393 53417
L65337 53474
L65224 53530
L65112 53530
L64999 53474
L64943 53417
L64887 53305
L64831 53080
L64831 52799
L64887 52574
L64943 52461
L64999 52405
L65112 52349
" />
<path d="M65899 52349
L66631 52349
L66237 52799
L66406 52799
L66518 52855
L66574 52911
L66631 53024
L66631 53305
L66574 53417
L66518 53474
L66406 53530
L66068 53530
L65956 53474
L65899 53417
" />
<path d="M67755 53530
L67080 53530
" />
<path d="M67418 53530
L67418 52349
L67305 52517
L67193 52630
L67080 52686
" />
<path d="M68205 52349
L68205 52574
" />
<path d="M68655 52349
L68655 52574
" />
<path d="M70399 53980
L70343 53924
L70230 53755
L70174 53642
L70118 53474
L70061 53192
L70061 52967
L70118 52686
L70174 52517
L70230 52405
L70343 52236
L70399 52180
" />
<path d="M70793 52461
L70849 52405
L70961 52349
L71242 52349
L71355 52405
L71411 52461
L71467 52574
L71467 52686
L71411 52855
L70736 53530
L71467 53530
" />
<path d="M72480 52742
L72480 53530
" />
<path d="M72199 52293
L71917 53136
L72649 53136
" />
<path d="M73998 53530
L73998 52349
" />
<path d="M74505 53530
L74505 52911
L74448 52799
L74336 52742
L74167 52742
L74055 52799
L73998 52855
" />
<path d="M75236 53530
L75123 53474
L75067 53417
L75011 53305
L75011 52967
L75067 52855
L75123 52799
L75236 52742
L75404 52742
L75517 52799
L75573 52855
L75629 52967
L75629 53305
L75573 53417
L75517 53474
L75404 53530
L75236 53530
" />
<path d="M76304 53530
L76192 53474
L76136 53361
L76136 52349
" />
<path d="M77204 53474
L77092 53530
L76867 53530
L76754 53474
L76698 53361
L76698 52911
L76754 52799
L76867 52742
L77092 52742
L77204 52799
L77260 52911
L77260 53024
L76698 53136
" />
<path d="M77710 53474
L77823 53530
L78048 53530
L78160 53474
L78217 53361
L78217 53305
L78160 53192
L78048 53136
L77879 53136
L77767 53080
L77710 52967
L77710 52911
L77767 52799
L77879 52742
L78048 52742
L78160 52799
" />
<path d="M78610 53980
L78667 53924
L78779 53755
L78835 53642
L78892 53474
L78948 53192
L78948 52967
L78892 52686
L78835 52517
L78779 52405
L78667 52236
L78610 52180
" />
<path d="M51751 54358
L51751 54751
" />
<path d="M51555 54555
L51948 54555
" />
<path d="M53695 55089
L53020 55089
" />
<path d="M53357 55089
L53357 53908
L53245 54077
L53132 54189
L53020 54245
" />
<path d="M54201 54976
L54257 55033
L54201 55089
L54145 55033
L54201 54976
L54201 55089
" />
<path d="M54988 53908
L55101 53908
L55213 53964
L55269 54020
L55326 54133
L55382 54358
L55382 54639
L55326 54864
L55269 54976
L55213 55033
L55101 55089
L54988 55089
L54876 55033
L54820 54976
L54763 54864
L54707 54639
L54707 54358
L54763 54133
L54820 54020
L54876 53964
L54988 53908
" />
<path d="M56113 53908
L56226 53908
L56338 53964
L56394 54020
L56451 54133
L56507 54358
L56507 54639
L56451 54864
L56394 54976
L56338 55033
L56226 55089
L56113 55089
L56001 55033
L55944 54976
L55888 54864
L55832 54639
L55832 54358
L55888 54133
L55944 54020
L56001 53964
L56113 53908
" />
<path d="M57013 55089
L57013 54302
" />
<path d="M57013 54414
L57069 54358
L57182 54302
L57350 54302
L57463 54358
L57519 54470
L57519 55089
" />
<path d="M57519 54470
L57575 54358
L57688 54302
L57857 54302
L57969 54358
L58025 54470
L58025 55089
" />
<path d="M58588 55089
L58588 54302
" />
<path d="M58588 54414
L58644 54358
L58757 54302
L58925 54302
L59038 54358
L59094 54470
L59094 55089
" />
<path d="M59094 54470
L59150 54358
L59263 54302
L59431 54302
L59544 54358
L59600 54470
L59600 55089
" />
<path d="M61906 53852
L60894 55370
" />
<path d="M63425 53908
L63537 53908
L63650 53964
L63706 54020
L63762 54133
L63818 54358
L63818 54639
L63762 54864
L63706 54976
L63650 55033
L63537 55089
L63425 55089
L63312 55033
L63256 54976
L63200 54864
L63143 54639
L63143 54358
L63200 54133
L63256 54020
L63312 53964
L63425 53908
" />
<path d="M64325 54976
L64381 55033
L64325 55089
L64268 55033
L64325 54976
L64325 55089
" />
<path d="M65112 53908
L65224 53908
L65337 53964
L65393 54020
L65449 54133
L65506 54358
L65506 54639
L65449 54864
L65393 54976
L65337 55033
L65224 55089
L65112 55089
L64999 55033
L64943 54976
L64887 54864
L64831 54639
L64831 54358
L64887 54133
L64943 54020
L64999 53964
L65112 53908
" />
<path d="M65899 53908
L66631 53908
L66237 54358
L66406 54358
L66518 54414
L66574 54470
L66631 54583
L66631 54864
L66574 54976
L66518 55033
L66406 55089
L66068 55089
L65956 55033
L65899 54976
" />
<path d="M67193 55089
L67418 55089
L67530 55033
L67587 54976
L67699 54808
L67755 54583
L67755 54133
L67699 54020
L67643 53964
L67530 53908
L67305 53908
L67193 53964
L67137 54020
L67080 54133
L67080 54414
L67137 54526
L67193 54583
L67305 54639
L67530 54639
L67643 54583
L67699 54526
L67755 54414
" />
<path d="M68205 53908
L68205 54133
" />
<path d="M68655 53908
L68655 54133
" />
<path d="M70399 55539
L70343 55483
L70230 55314
L70174 55201
L70118 55033
L70061 54751
L70061 54526
L70118 54245
L70174 54077
L70230 53964
L70343 53795
L70399 53739
" />
<path d="M70736 53908
L71467 53908
L71074 54358
L71242 54358
L71355 54414
L71411 54470
L71467 54583
L71467 54864
L71411 54976
L71355 55033
L71242 55089
L70905 55089
L70793 55033
L70736 54976
" />
<path d="M72480 54302
L72480 55089
" />
<path d="M72199 53852
L71917 54695
L72649 54695
" />
<path d="M73998 55089
L73998 53908
" />
<path d="M74505 55089
L74505 54470
L74448 54358
L74336 54302
L74167 54302
L74055 54358
L73998 54414
" />
<path d="M75236 55089
L75123 55033
L75067 54976
L75011 54864
L75011 54526
L75067 54414
L75123 54358
L75236 54302
L75404 54302
L75517 54358
L75573 54414
L75629 54526
L75629 54864
L75573 54976
L75517 55033
L75404 55089
L75236 55089
" />
<path d="M76304 55089
L76192 55033
L76136 54920
L76136 53908
" />
<path d="M77204 55033
L77092 55089
L76867 55089
L76754 55033
L76698 54920
L76698 54470
L76754 54358
L76867 54302
L77092 54302
L77204 54358
L77260 54470
L77260 54583
L76698 54695
" />
<path d="M77710 55033
L77823 55089
L78048 55089
L78160 55033
L78217 54920
L78217 54864
L78160 54751
L78048 54695
L77879 54695
L77767 54639
L77710 54526
L77710 54470
L77767 54358
L77879 54302
L78048 54302
L78160 54358
" />
<path d="M79623 54639
L80523 54639
" />
<path d="M80073 55089
L80073 54189
" />
<path d="M82604 55089
L81929 55089
" />
<path d="M82266 55089
L82266 53908
L82154 54077
L82041 54189
L81929 54245
" />
<path d="M83953 55033
L84066 55089
L84291 55089
L84403 55033
L84460 54920
L84460 54864
L84403 54751
L84291 54695
L84122 54695
L84010 54639
L83953 54526
L83953 54470
L84010 54358
L84122 54302
L84291 54302
L84403 54358
" />
<path d="M85134 55089
L85022 55033
L84966 54920
L84966 53908
" />
<path d="M85753 55089
L85641 55033
L85584 54976
L85528 54864
L85528 54526
L85584 54414
L85641 54358
L85753 54302
L85922 54302
L86034 54358
L86091 54414
L86147 54526
L86147 54864
L86091 54976
L86034 55033
L85922 55089
L85753 55089
" />
<path d="M86484 54302
L86934 54302
" />
<path d="M86653 53908
L86653 54920
L86709 55033
L86822 55089
L86934 55089
" />
<path d="M87215 55539
L87272 55483
L87384 55314
L87440 55201
L87497 55033
L87553 54751
L87553 54526
L87497 54245
L87440 54077
L87384 53964
L87272 53795
L87215 53739
" />
<path style="fill:#000000; fill-opacity:0.0; 
stroke:#000000; stroke-width:118.11; stroke-opacity:1; 
stroke-linecap:round; stroke-linejoin:round;fill:none"
d="M 51764,56559
51764,55668
50873,55668
50873,56559
51764,56559
Z" /> 
<path d="M52964 55467
L53695 55467
L53301 55917
L53470 55917
L53582 55973
L53638 56029
L53695 56142
L53695 56423
L53638 56535
L53582 56592
L53470 56648
L53132 56648
L53020 56592
L52964 56535
" />
<path d="M54201 56535
L54257 56592
L54201 56648
L54145 56592
L54201 56535
L54201 56648
" />
<path d="M54707 55579
L54763 55523
L54876 55467
L55157 55467
L55269 55523
L55326 55579
L55382 55692
L55382 55804
L55326 55973
L54651 56648
L55382 56648
" />
<path d="M56113 55467
L56226 55467
L56338 55523
L56394 55579
L56451 55692
L56507 55917
L56507 56198
L56451 56423
L56394 56535
L56338 56592
L56226 56648
L56113 56648
L56001 56592
L55944 56535
L55888 56423
L55832 56198
L55832 55917
L55888 55692
L55944 55579
L56001 55523
L56113 55467
" />
<path d="M57013 56648
L57013 55861
" />
<path d="M57013 55973
L57069 55917
L57182 55861
L57350 55861
L57463 55917
L57519 56029
L57519 56648
" />
<path d="M57519 56029
L57575 55917
L57688 55861
L57857 55861
L57969 55917
L58025 56029
L58025 56648
" />
<path d="M58588 56648
L58588 55861
" />
<path d="M58588 55973
L58644 55917
L58757 55861
L58925 55861
L59038 55917
L59094 56029
L59094 56648
" />
<path d="M59094 56029
L59150 55917
L59263 55861
L59431 55861
L59544 55917
L59600 56029
L59600 56648
" />
<path d="M61906 55411
L60894 56929
" />
<path d="M63425 55467
L63537 55467
L63650 55523
L63706 55579
L63762 55692
L63818 55917
L63818 56198
L63762 56423
L63706 56535
L63650 56592
L63537 56648
L63425 56648
L63312 56592
L63256 56535
L63200 56423
L63143 56198
L63143 55917
L63200 55692
L63256 55579
L63312 55523
L63425 55467
" />
<path d="M64325 56535
L64381 56592
L64325 56648
L64268 56592
L64325 56535
L64325 56648
" />
<path d="M65506 56648
L64831 56648
" />
<path d="M65168 56648
L65168 55467
L65056 55636
L64943 55748
L64831 55804
" />
<path d="M65956 55579
L66012 55523
L66124 55467
L66406 55467
L66518 55523
L66574 55579
L66631 55692
L66631 55804
L66574 55973
L65899 56648
L66631 56648
" />
<path d="M67643 55467
L67418 55467
L67305 55523
L67249 55579
L67137 55748
L67080 55973
L67080 56423
L67137 56535
L67193 56592
L67305 56648
L67530 56648
L67643 56592
L67699 56535
L67755 56423
L67755 56142
L67699 56029
L67643 55973
L67530 55917
L67305 55917
L67193 55973
L67137 56029
L67080 56142
" />
<path d="M68205 55467
L68205 55692
" />
<path d="M68655 55467
L68655 55692
" />
<path d="M70399 57098
L70343 57042
L70230 56873
L70174 56760
L70118 56592
L70061 56311
L70061 56086
L70118 55804
L70174 55636
L70230 55523
L70343 55354
L70399 55298
" />
<path d="M71355 55861
L71355 56648
" />
<path d="M71074 55411
L70793 56254
L71524 56254
" />
<path d="M72874 56648
L72874 55467
" />
<path d="M73380 56648
L73380 56029
L73323 55917
L73211 55861
L73042 55861
L72930 55917
L72874 55973
" />
<path d="M74111 56648
L73998 56592
L73942 56535
L73886 56423
L73886 56086
L73942 55973
L73998 55917
L74111 55861
L74280 55861
L74392 55917
L74448 55973
L74505 56086
L74505 56423
L74448 56535
L74392 56592
L74280 56648
L74111 56648
" />
<path d="M75179 56648
L75067 56592
L75011 56479
L75011 55467
" />
<path d="M76079 56592
L75967 56648
L75742 56648
L75629 56592
L75573 56479
L75573 56029
L75629 55917
L75742 55861
L75967 55861
L76079 55917
L76136 56029
L76136 56142
L75573 56254
" />
<path d="M76586 56592
L76698 56648
L76923 56648
L77035 56592
L77092 56479
L77092 56423
L77035 56311
L76923 56254
L76754 56254
L76642 56198
L76586 56086
L76586 56029
L76642 55917
L76754 55861
L76923 55861
L77035 55917
" />
<path d="M77485 57098
L77542 57042
L77654 56873
L77710 56760
L77767 56592
L77823 56311
L77823 56086
L77767 55804
L77710 55636
L77654 55523
L77542 55354
L77485 55298
" />
<path d="M79623 57098
L79566 57042
L79454 56873
L79398 56760
L79341 56592
L79285 56311
L79285 56086
L79341 55804
L79398 55636
L79454 55523
L79566 55354
L79623 55298
" />
<path d="M80073 55861
L80073 56648
" />
<path d="M80073 55973
L80129 55917
L80241 55861
L80410 55861
L80523 55917
L80579 56029
L80579 56648
" />
<path d="M81310 56648
L81197 56592
L81141 56535
L81085 56423
L81085 56086
L81141 55973
L81197 55917
L81310 55861
L81479 55861
L81591 55917
L81647 55973
L81704 56086
L81704 56423
L81647 56535
L81591 56592
L81479 56648
L81310 56648
" />
<path d="M82041 55861
L82491 55861
" />
<path d="M82210 55467
L82210 56479
L82266 56592
L82379 56648
L82491 56648
" />
<path d="M83785 55861
L83785 57042
" />
<path d="M83785 55917
L83897 55861
L84122 55861
L84235 55917
L84291 55973
L84347 56086
L84347 56423
L84291 56535
L84235 56592
L84122 56648
L83897 56648
L83785 56592
" />
<path d="M85022 56648
L84910 56592
L84853 56479
L84853 55467
" />
<path d="M85978 56648
L85978 56029
L85922 55917
L85809 55861
L85584 55861
L85472 55917
" />
<path d="M85978 56592
L85866 56648
L85584 56648
L85472 56592
L85416 56479
L85416 56367
L85472 56254
L85584 56198
L85866 56198
L85978 56142
" />
<path d="M86372 55861
L86822 55861
" />
<path d="M86541 55467
L86541 56479
L86597 56592
L86709 56648
L86822 56648
" />
<path d="M87665 56592
L87553 56648
L87328 56648
L87215 56592
L87159 56479
L87159 56029
L87215 55917
L87328 55861
L87553 55861
L87665 55917
L87722 56029
L87722 56142
L87159 56254
" />
<path d="M88734 56648
L88734 55467
" />
<path d="M88734 56592
L88622 56648
L88397 56648
L88284 56592
L88228 56535
L88172 56423
L88172 56086
L88228 55973
L88284 55917
L88397 55861
L88622 55861
L88734 55917
" />
<path d="M89184 57098
L89240 57042
L89353 56873
L89409 56760
L89465 56592
L89521 56311
L89521 56086
L89465 55804
L89409 55636
L89353 55523
L89240 55354
L89184 55298
" />
</g> 
</svg>
