G04 #@! TF.GenerationSoftware,KiCad,Pcbnew,(5.1.0)-1*
G04 #@! TF.CreationDate,2019-04-02T21:11:50+01:00*
G04 #@! TF.ProjectId,uCODEC-1.0,75434f44-4543-42d3-912e-302e6b696361,1.0*
G04 #@! TF.SameCoordinates,PX7de2900PY7365040*
G04 #@! TF.FileFunction,Soldermask,Bot*
G04 #@! TF.FilePolarity,Negative*
%FSLAX46Y46*%
G04 Gerber Fmt 4.6, Leading zero omitted, Abs format (unit mm)*
G04 Created by KiCad (PCBNEW (5.1.0)-1) date 2019-04-02 21:11:50*
%MOMM*%
%LPD*%
G04 APERTURE LIST*
%ADD10C,0.100000*%
%ADD11C,0.150000*%
G04 APERTURE END LIST*
D10*
X0Y50000000D02*
X0Y0D01*
X50000000Y50000000D02*
X0Y50000000D01*
X50000000Y0D02*
X50000000Y50000000D01*
X0Y0D02*
X50000000Y0D01*
D11*
G36*
X47404237Y6480869D02*
G01*
X47968401Y6247185D01*
X48476135Y5907928D01*
X48907928Y5476135D01*
X49247185Y4968401D01*
X49480869Y4404237D01*
X49600000Y3805323D01*
X49600000Y3194677D01*
X49480869Y2595763D01*
X49247185Y2031599D01*
X48907928Y1523865D01*
X48476135Y1092072D01*
X47968401Y752815D01*
X47404237Y519131D01*
X46805323Y400000D01*
X46194677Y400000D01*
X45595763Y519131D01*
X45031599Y752815D01*
X44523865Y1092072D01*
X44092072Y1523865D01*
X43752815Y2031599D01*
X43519131Y2595763D01*
X43400000Y3194677D01*
X43400000Y3805323D01*
X43519131Y4404237D01*
X43752815Y4968401D01*
X44092072Y5476135D01*
X44523865Y5907928D01*
X45031599Y6247185D01*
X45595763Y6480869D01*
X46194677Y6600000D01*
X46805323Y6600000D01*
X47404237Y6480869D01*
X47404237Y6480869D01*
G37*
G36*
X4404237Y6480869D02*
G01*
X4968401Y6247185D01*
X5476135Y5907928D01*
X5907928Y5476135D01*
X6247185Y4968401D01*
X6480869Y4404237D01*
X6600000Y3805323D01*
X6600000Y3194677D01*
X6480869Y2595763D01*
X6247185Y2031599D01*
X5907928Y1523865D01*
X5476135Y1092072D01*
X4968401Y752815D01*
X4404237Y519131D01*
X3805323Y400000D01*
X3194677Y400000D01*
X2595763Y519131D01*
X2031599Y752815D01*
X1523865Y1092072D01*
X1092072Y1523865D01*
X752815Y2031599D01*
X519131Y2595763D01*
X400000Y3194677D01*
X400000Y3805323D01*
X519131Y4404237D01*
X752815Y4968401D01*
X1092072Y5476135D01*
X1523865Y5907928D01*
X2031599Y6247185D01*
X2595763Y6480869D01*
X3194677Y6600000D01*
X3805323Y6600000D01*
X4404237Y6480869D01*
X4404237Y6480869D01*
G37*
G36*
X42195090Y2980785D02*
G01*
X42291689Y2961571D01*
X42473678Y2886189D01*
X42637463Y2776751D01*
X42776751Y2637463D01*
X42886189Y2473678D01*
X42961571Y2291689D01*
X43000000Y2098491D01*
X43000000Y1901509D01*
X42961571Y1708311D01*
X42886189Y1526322D01*
X42776751Y1362537D01*
X42637463Y1223249D01*
X42473678Y1113811D01*
X42291689Y1038429D01*
X42195090Y1019215D01*
X42098493Y1000000D01*
X41901507Y1000000D01*
X41804910Y1019215D01*
X41708311Y1038429D01*
X41526322Y1113811D01*
X41362537Y1223249D01*
X41223249Y1362537D01*
X41113811Y1526322D01*
X41038429Y1708311D01*
X41000000Y1901509D01*
X41000000Y2098491D01*
X41038429Y2291689D01*
X41113811Y2473678D01*
X41223249Y2637463D01*
X41362537Y2776751D01*
X41526322Y2886189D01*
X41708311Y2961571D01*
X41804910Y2980785D01*
X41901507Y3000000D01*
X42098493Y3000000D01*
X42195090Y2980785D01*
X42195090Y2980785D01*
G37*
G36*
X8195090Y2980785D02*
G01*
X8291689Y2961571D01*
X8473678Y2886189D01*
X8637463Y2776751D01*
X8776751Y2637463D01*
X8886189Y2473678D01*
X8961571Y2291689D01*
X9000000Y2098491D01*
X9000000Y1901509D01*
X8961571Y1708311D01*
X8886189Y1526322D01*
X8776751Y1362537D01*
X8637463Y1223249D01*
X8473678Y1113811D01*
X8291689Y1038429D01*
X8195090Y1019215D01*
X8098493Y1000000D01*
X7901507Y1000000D01*
X7804910Y1019215D01*
X7708311Y1038429D01*
X7526322Y1113811D01*
X7362537Y1223249D01*
X7223249Y1362537D01*
X7113811Y1526322D01*
X7038429Y1708311D01*
X7000000Y1901509D01*
X7000000Y2098491D01*
X7038429Y2291689D01*
X7113811Y2473678D01*
X7223249Y2637463D01*
X7362537Y2776751D01*
X7526322Y2886189D01*
X7708311Y2961571D01*
X7804910Y2980785D01*
X7901507Y3000000D01*
X8098493Y3000000D01*
X8195090Y2980785D01*
X8195090Y2980785D01*
G37*
G36*
X27070000Y1340000D02*
G01*
X25470000Y1340000D01*
X25470000Y2940000D01*
X27070000Y2940000D01*
X27070000Y1340000D01*
X27070000Y1340000D01*
G37*
G36*
X31583351Y2909257D02*
G01*
X31583353Y2909256D01*
X31583354Y2909256D01*
X31639042Y2886189D01*
X31728942Y2848951D01*
X31859970Y2761401D01*
X31971401Y2649970D01*
X32058951Y2518942D01*
X32119257Y2373351D01*
X32150000Y2218793D01*
X32150000Y2061207D01*
X32119257Y1906649D01*
X32058951Y1761058D01*
X32023707Y1708311D01*
X31971400Y1630029D01*
X31859971Y1518600D01*
X31728942Y1431049D01*
X31583354Y1370744D01*
X31583353Y1370744D01*
X31583351Y1370743D01*
X31428793Y1340000D01*
X31271207Y1340000D01*
X31116649Y1370743D01*
X31116647Y1370744D01*
X31116646Y1370744D01*
X30971058Y1431049D01*
X30840029Y1518600D01*
X30728600Y1630029D01*
X30676294Y1708311D01*
X30641049Y1761058D01*
X30580743Y1906649D01*
X30550000Y2061207D01*
X30550000Y2218793D01*
X30580743Y2373351D01*
X30641049Y2518942D01*
X30728599Y2649970D01*
X30840030Y2761401D01*
X30971058Y2848951D01*
X31060958Y2886189D01*
X31116646Y2909256D01*
X31116647Y2909256D01*
X31116649Y2909257D01*
X31271207Y2940000D01*
X31428793Y2940000D01*
X31583351Y2909257D01*
X31583351Y2909257D01*
G37*
G36*
X34123351Y2909257D02*
G01*
X34123353Y2909256D01*
X34123354Y2909256D01*
X34179042Y2886189D01*
X34268942Y2848951D01*
X34399970Y2761401D01*
X34511401Y2649970D01*
X34598951Y2518942D01*
X34659257Y2373351D01*
X34690000Y2218793D01*
X34690000Y2061207D01*
X34659257Y1906649D01*
X34598951Y1761058D01*
X34563707Y1708311D01*
X34511400Y1630029D01*
X34399971Y1518600D01*
X34268942Y1431049D01*
X34123354Y1370744D01*
X34123353Y1370744D01*
X34123351Y1370743D01*
X33968793Y1340000D01*
X33811207Y1340000D01*
X33656649Y1370743D01*
X33656647Y1370744D01*
X33656646Y1370744D01*
X33511058Y1431049D01*
X33380029Y1518600D01*
X33268600Y1630029D01*
X33216294Y1708311D01*
X33181049Y1761058D01*
X33120743Y1906649D01*
X33090000Y2061207D01*
X33090000Y2218793D01*
X33120743Y2373351D01*
X33181049Y2518942D01*
X33268599Y2649970D01*
X33380030Y2761401D01*
X33511058Y2848951D01*
X33600958Y2886189D01*
X33656646Y2909256D01*
X33656647Y2909256D01*
X33656649Y2909257D01*
X33811207Y2940000D01*
X33968793Y2940000D01*
X34123351Y2909257D01*
X34123351Y2909257D01*
G37*
G36*
X29043351Y2909257D02*
G01*
X29043353Y2909256D01*
X29043354Y2909256D01*
X29099042Y2886189D01*
X29188942Y2848951D01*
X29319970Y2761401D01*
X29431401Y2649970D01*
X29518951Y2518942D01*
X29579257Y2373351D01*
X29610000Y2218793D01*
X29610000Y2061207D01*
X29579257Y1906649D01*
X29518951Y1761058D01*
X29483707Y1708311D01*
X29431400Y1630029D01*
X29319971Y1518600D01*
X29188942Y1431049D01*
X29043354Y1370744D01*
X29043353Y1370744D01*
X29043351Y1370743D01*
X28888793Y1340000D01*
X28731207Y1340000D01*
X28576649Y1370743D01*
X28576647Y1370744D01*
X28576646Y1370744D01*
X28431058Y1431049D01*
X28300029Y1518600D01*
X28188600Y1630029D01*
X28136294Y1708311D01*
X28101049Y1761058D01*
X28040743Y1906649D01*
X28010000Y2061207D01*
X28010000Y2218793D01*
X28040743Y2373351D01*
X28101049Y2518942D01*
X28188599Y2649970D01*
X28300030Y2761401D01*
X28431058Y2848951D01*
X28520958Y2886189D01*
X28576646Y2909256D01*
X28576647Y2909256D01*
X28576649Y2909257D01*
X28731207Y2940000D01*
X28888793Y2940000D01*
X29043351Y2909257D01*
X29043351Y2909257D01*
G37*
G36*
X23900000Y1550000D02*
G01*
X23000000Y1550000D01*
X23000000Y2450000D01*
X23900000Y2450000D01*
X23900000Y1550000D01*
X23900000Y1550000D01*
G37*
G36*
X22000000Y1550000D02*
G01*
X21100000Y1550000D01*
X21100000Y2450000D01*
X22000000Y2450000D01*
X22000000Y1550000D01*
X22000000Y1550000D01*
G37*
G36*
X19500000Y2300000D02*
G01*
X18500000Y2300000D01*
X18500000Y3300000D01*
X19500000Y3300000D01*
X19500000Y2300000D01*
X19500000Y2300000D01*
G37*
G36*
X17000000Y2300000D02*
G01*
X16000000Y2300000D01*
X16000000Y3300000D01*
X17000000Y3300000D01*
X17000000Y2300000D01*
X17000000Y2300000D01*
G37*
G36*
X39900000Y3550000D02*
G01*
X39000000Y3550000D01*
X39000000Y4450000D01*
X39900000Y4450000D01*
X39900000Y3550000D01*
X39900000Y3550000D01*
G37*
G36*
X38000000Y3550000D02*
G01*
X37100000Y3550000D01*
X37100000Y4450000D01*
X38000000Y4450000D01*
X38000000Y3550000D01*
X38000000Y3550000D01*
G37*
G36*
X31583351Y5449257D02*
G01*
X31583353Y5449256D01*
X31583354Y5449256D01*
X31728942Y5388951D01*
X31859971Y5301400D01*
X31971400Y5189971D01*
X32058951Y5058942D01*
X32104077Y4950000D01*
X32119257Y4913351D01*
X32150000Y4758793D01*
X32150000Y4601207D01*
X32119257Y4446649D01*
X32058951Y4301058D01*
X31971401Y4170030D01*
X31859970Y4058599D01*
X31789641Y4011607D01*
X31728942Y3971049D01*
X31583354Y3910744D01*
X31583353Y3910744D01*
X31583351Y3910743D01*
X31428793Y3880000D01*
X31271207Y3880000D01*
X31116649Y3910743D01*
X31116647Y3910744D01*
X31116646Y3910744D01*
X30971058Y3971049D01*
X30910359Y4011607D01*
X30840030Y4058599D01*
X30728599Y4170030D01*
X30641049Y4301058D01*
X30580743Y4446649D01*
X30550000Y4601207D01*
X30550000Y4758793D01*
X30580743Y4913351D01*
X30595924Y4950000D01*
X30641049Y5058942D01*
X30728600Y5189971D01*
X30840029Y5301400D01*
X30971058Y5388951D01*
X31116646Y5449256D01*
X31116647Y5449256D01*
X31116649Y5449257D01*
X31271207Y5480000D01*
X31428793Y5480000D01*
X31583351Y5449257D01*
X31583351Y5449257D01*
G37*
G36*
X34123351Y5449257D02*
G01*
X34123353Y5449256D01*
X34123354Y5449256D01*
X34268942Y5388951D01*
X34399971Y5301400D01*
X34511400Y5189971D01*
X34598951Y5058942D01*
X34644077Y4950000D01*
X34659257Y4913351D01*
X34690000Y4758793D01*
X34690000Y4601207D01*
X34659257Y4446649D01*
X34598951Y4301058D01*
X34511401Y4170030D01*
X34399970Y4058599D01*
X34329641Y4011607D01*
X34268942Y3971049D01*
X34123354Y3910744D01*
X34123353Y3910744D01*
X34123351Y3910743D01*
X33968793Y3880000D01*
X33811207Y3880000D01*
X33656649Y3910743D01*
X33656647Y3910744D01*
X33656646Y3910744D01*
X33511058Y3971049D01*
X33450359Y4011607D01*
X33380030Y4058599D01*
X33268599Y4170030D01*
X33181049Y4301058D01*
X33120743Y4446649D01*
X33090000Y4601207D01*
X33090000Y4758793D01*
X33120743Y4913351D01*
X33135924Y4950000D01*
X33181049Y5058942D01*
X33268600Y5189971D01*
X33380029Y5301400D01*
X33511058Y5388951D01*
X33656646Y5449256D01*
X33656647Y5449256D01*
X33656649Y5449257D01*
X33811207Y5480000D01*
X33968793Y5480000D01*
X34123351Y5449257D01*
X34123351Y5449257D01*
G37*
G36*
X13803351Y5449257D02*
G01*
X13803353Y5449256D01*
X13803354Y5449256D01*
X13948942Y5388951D01*
X14079971Y5301400D01*
X14191400Y5189971D01*
X14278951Y5058942D01*
X14324077Y4950000D01*
X14339257Y4913351D01*
X14370000Y4758793D01*
X14370000Y4601207D01*
X14339257Y4446649D01*
X14278951Y4301058D01*
X14191401Y4170030D01*
X14079970Y4058599D01*
X14009641Y4011607D01*
X13948942Y3971049D01*
X13803354Y3910744D01*
X13803353Y3910744D01*
X13803351Y3910743D01*
X13648793Y3880000D01*
X13491207Y3880000D01*
X13336649Y3910743D01*
X13336647Y3910744D01*
X13336646Y3910744D01*
X13191058Y3971049D01*
X13130359Y4011607D01*
X13060030Y4058599D01*
X12948599Y4170030D01*
X12861049Y4301058D01*
X12800743Y4446649D01*
X12770000Y4601207D01*
X12770000Y4758793D01*
X12800743Y4913351D01*
X12815924Y4950000D01*
X12861049Y5058942D01*
X12948600Y5189971D01*
X13060029Y5301400D01*
X13191058Y5388951D01*
X13336646Y5449256D01*
X13336647Y5449256D01*
X13336649Y5449257D01*
X13491207Y5480000D01*
X13648793Y5480000D01*
X13803351Y5449257D01*
X13803351Y5449257D01*
G37*
G36*
X27070000Y3880000D02*
G01*
X25470000Y3880000D01*
X25470000Y5480000D01*
X27070000Y5480000D01*
X27070000Y3880000D01*
X27070000Y3880000D01*
G37*
G36*
X29043351Y5449257D02*
G01*
X29043353Y5449256D01*
X29043354Y5449256D01*
X29188942Y5388951D01*
X29319971Y5301400D01*
X29431400Y5189971D01*
X29518951Y5058942D01*
X29564077Y4950000D01*
X29579257Y4913351D01*
X29610000Y4758793D01*
X29610000Y4601207D01*
X29579257Y4446649D01*
X29518951Y4301058D01*
X29431401Y4170030D01*
X29319970Y4058599D01*
X29249641Y4011607D01*
X29188942Y3971049D01*
X29043354Y3910744D01*
X29043353Y3910744D01*
X29043351Y3910743D01*
X28888793Y3880000D01*
X28731207Y3880000D01*
X28576649Y3910743D01*
X28576647Y3910744D01*
X28576646Y3910744D01*
X28431058Y3971049D01*
X28370359Y4011607D01*
X28300030Y4058599D01*
X28188599Y4170030D01*
X28101049Y4301058D01*
X28040743Y4446649D01*
X28010000Y4601207D01*
X28010000Y4758793D01*
X28040743Y4913351D01*
X28055924Y4950000D01*
X28101049Y5058942D01*
X28188600Y5189971D01*
X28300029Y5301400D01*
X28431058Y5388951D01*
X28576646Y5449256D01*
X28576647Y5449256D01*
X28576649Y5449257D01*
X28731207Y5480000D01*
X28888793Y5480000D01*
X29043351Y5449257D01*
X29043351Y5449257D01*
G37*
G36*
X11351826Y5468425D02*
G01*
X11502629Y5422679D01*
X11641606Y5348395D01*
X11763422Y5248422D01*
X11863395Y5126606D01*
X11937679Y4987629D01*
X11983424Y4836826D01*
X11998871Y4680000D01*
X11983424Y4523174D01*
X11937679Y4372371D01*
X11863395Y4233394D01*
X11763422Y4111578D01*
X11641606Y4011605D01*
X11502629Y3937321D01*
X11351826Y3891575D01*
X11234299Y3880000D01*
X9555701Y3880000D01*
X9438174Y3891575D01*
X9287371Y3937321D01*
X9148394Y4011605D01*
X9026578Y4111578D01*
X8926605Y4233394D01*
X8852321Y4372371D01*
X8806576Y4523174D01*
X8791129Y4680000D01*
X8806576Y4836826D01*
X8852321Y4987629D01*
X8926605Y5126606D01*
X9026578Y5248422D01*
X9148394Y5348395D01*
X9287371Y5422679D01*
X9438174Y5468425D01*
X9555701Y5480000D01*
X11234299Y5480000D01*
X11351826Y5468425D01*
X11351826Y5468425D01*
G37*
G36*
X23900000Y4050000D02*
G01*
X23000000Y4050000D01*
X23000000Y4950000D01*
X23900000Y4950000D01*
X23900000Y4050000D01*
X23900000Y4050000D01*
G37*
G36*
X22000000Y4050000D02*
G01*
X21100000Y4050000D01*
X21100000Y4950000D01*
X22000000Y4950000D01*
X22000000Y4050000D01*
X22000000Y4050000D01*
G37*
G36*
X19500000Y5700000D02*
G01*
X18500000Y5700000D01*
X18500000Y6700000D01*
X19500000Y6700000D01*
X19500000Y5700000D01*
X19500000Y5700000D01*
G37*
G36*
X17000000Y5700000D02*
G01*
X16000000Y5700000D01*
X16000000Y6700000D01*
X17000000Y6700000D01*
X17000000Y5700000D01*
X17000000Y5700000D01*
G37*
G36*
X34123351Y7989257D02*
G01*
X34123353Y7989256D01*
X34123354Y7989256D01*
X34268942Y7928951D01*
X34399970Y7841401D01*
X34511401Y7729970D01*
X34598951Y7598942D01*
X34659257Y7453351D01*
X34690000Y7298793D01*
X34690000Y7141209D01*
X34659256Y6986646D01*
X34598951Y6841058D01*
X34511400Y6710029D01*
X34399971Y6598600D01*
X34268942Y6511049D01*
X34123354Y6450744D01*
X34123353Y6450744D01*
X34123351Y6450743D01*
X33968793Y6420000D01*
X33811207Y6420000D01*
X33656649Y6450743D01*
X33656647Y6450744D01*
X33656646Y6450744D01*
X33511058Y6511049D01*
X33380029Y6598600D01*
X33268600Y6710029D01*
X33181049Y6841058D01*
X33120744Y6986646D01*
X33090000Y7141209D01*
X33090000Y7298793D01*
X33120743Y7453351D01*
X33181049Y7598942D01*
X33268599Y7729970D01*
X33380030Y7841401D01*
X33511058Y7928951D01*
X33656646Y7989256D01*
X33656647Y7989256D01*
X33656649Y7989257D01*
X33811207Y8020000D01*
X33968793Y8020000D01*
X34123351Y7989257D01*
X34123351Y7989257D01*
G37*
G36*
X31583351Y7989257D02*
G01*
X31583353Y7989256D01*
X31583354Y7989256D01*
X31728942Y7928951D01*
X31859970Y7841401D01*
X31971401Y7729970D01*
X32058951Y7598942D01*
X32119257Y7453351D01*
X32150000Y7298793D01*
X32150000Y7141209D01*
X32119256Y6986646D01*
X32058951Y6841058D01*
X31971400Y6710029D01*
X31859971Y6598600D01*
X31728942Y6511049D01*
X31583354Y6450744D01*
X31583353Y6450744D01*
X31583351Y6450743D01*
X31428793Y6420000D01*
X31271207Y6420000D01*
X31116649Y6450743D01*
X31116647Y6450744D01*
X31116646Y6450744D01*
X30971058Y6511049D01*
X30840029Y6598600D01*
X30728600Y6710029D01*
X30641049Y6841058D01*
X30580744Y6986646D01*
X30550000Y7141209D01*
X30550000Y7298793D01*
X30580743Y7453351D01*
X30641049Y7598942D01*
X30728599Y7729970D01*
X30840030Y7841401D01*
X30971058Y7928951D01*
X31116646Y7989256D01*
X31116647Y7989256D01*
X31116649Y7989257D01*
X31271207Y8020000D01*
X31428793Y8020000D01*
X31583351Y7989257D01*
X31583351Y7989257D01*
G37*
G36*
X36663351Y7989257D02*
G01*
X36663353Y7989256D01*
X36663354Y7989256D01*
X36808942Y7928951D01*
X36939970Y7841401D01*
X37051401Y7729970D01*
X37138951Y7598942D01*
X37199257Y7453351D01*
X37230000Y7298793D01*
X37230000Y7141209D01*
X37199256Y6986646D01*
X37138951Y6841058D01*
X37051400Y6710029D01*
X36939971Y6598600D01*
X36808942Y6511049D01*
X36663354Y6450744D01*
X36663353Y6450744D01*
X36663351Y6450743D01*
X36508793Y6420000D01*
X36351207Y6420000D01*
X36196649Y6450743D01*
X36196647Y6450744D01*
X36196646Y6450744D01*
X36051058Y6511049D01*
X35920029Y6598600D01*
X35808600Y6710029D01*
X35721049Y6841058D01*
X35660744Y6986646D01*
X35630000Y7141209D01*
X35630000Y7298793D01*
X35660743Y7453351D01*
X35721049Y7598942D01*
X35808599Y7729970D01*
X35920030Y7841401D01*
X36051058Y7928951D01*
X36196646Y7989256D01*
X36196647Y7989256D01*
X36196649Y7989257D01*
X36351207Y8020000D01*
X36508793Y8020000D01*
X36663351Y7989257D01*
X36663351Y7989257D01*
G37*
G36*
X39770000Y6420000D02*
G01*
X38170000Y6420000D01*
X38170000Y8020000D01*
X39770000Y8020000D01*
X39770000Y6420000D01*
X39770000Y6420000D01*
G37*
G36*
X23900000Y6550000D02*
G01*
X23000000Y6550000D01*
X23000000Y7450000D01*
X23900000Y7450000D01*
X23900000Y6550000D01*
X23900000Y6550000D01*
G37*
G36*
X22000000Y6550000D02*
G01*
X21100000Y6550000D01*
X21100000Y7450000D01*
X22000000Y7450000D01*
X22000000Y6550000D01*
X22000000Y6550000D01*
G37*
G36*
X27000000Y7050000D02*
G01*
X26100000Y7050000D01*
X26100000Y7950000D01*
X27000000Y7950000D01*
X27000000Y7050000D01*
X27000000Y7050000D01*
G37*
G36*
X28900000Y7050000D02*
G01*
X28000000Y7050000D01*
X28000000Y7950000D01*
X28900000Y7950000D01*
X28900000Y7050000D01*
X28900000Y7050000D01*
G37*
G36*
X9010000Y7640000D02*
G01*
X6510000Y7640000D01*
X6510000Y9340000D01*
X9010000Y9340000D01*
X9010000Y7640000D01*
X9010000Y7640000D01*
G37*
G36*
X13010000Y7640000D02*
G01*
X10510000Y7640000D01*
X10510000Y9340000D01*
X13010000Y9340000D01*
X13010000Y7640000D01*
X13010000Y7640000D01*
G37*
G36*
X3425000Y8210000D02*
G01*
X2125000Y8210000D01*
X2125000Y9110000D01*
X3425000Y9110000D01*
X3425000Y8210000D01*
X3425000Y8210000D01*
G37*
G36*
X17350000Y8350000D02*
G01*
X16450000Y8350000D01*
X16450000Y9650000D01*
X17350000Y9650000D01*
X17350000Y8350000D01*
X17350000Y8350000D01*
G37*
G36*
X19550000Y8350000D02*
G01*
X18650000Y8350000D01*
X18650000Y9650000D01*
X19550000Y9650000D01*
X19550000Y8350000D01*
X19550000Y8350000D01*
G37*
G36*
X44283351Y10529257D02*
G01*
X44283353Y10529256D01*
X44283354Y10529256D01*
X44428942Y10468951D01*
X44559970Y10381401D01*
X44671401Y10269970D01*
X44758951Y10138942D01*
X44819257Y9993351D01*
X44850000Y9838793D01*
X44850000Y9681207D01*
X44819257Y9526649D01*
X44758951Y9381058D01*
X44671401Y9250030D01*
X44559970Y9138599D01*
X44428942Y9051049D01*
X44283354Y8990744D01*
X44283353Y8990744D01*
X44283351Y8990743D01*
X44128793Y8960000D01*
X43971207Y8960000D01*
X43816649Y8990743D01*
X43816647Y8990744D01*
X43816646Y8990744D01*
X43671058Y9051049D01*
X43540030Y9138599D01*
X43428599Y9250030D01*
X43341049Y9381058D01*
X43280743Y9526649D01*
X43250000Y9681207D01*
X43250000Y9838793D01*
X43280743Y9993351D01*
X43341049Y10138942D01*
X43428599Y10269970D01*
X43540030Y10381401D01*
X43671058Y10468951D01*
X43816646Y10529256D01*
X43816647Y10529256D01*
X43816649Y10529257D01*
X43971207Y10560000D01*
X44128793Y10560000D01*
X44283351Y10529257D01*
X44283351Y10529257D01*
G37*
G36*
X47390000Y8960000D02*
G01*
X45790000Y8960000D01*
X45790000Y10560000D01*
X47390000Y10560000D01*
X47390000Y8960000D01*
X47390000Y8960000D01*
G37*
G36*
X22000000Y9050000D02*
G01*
X21100000Y9050000D01*
X21100000Y9950000D01*
X22000000Y9950000D01*
X22000000Y9050000D01*
X22000000Y9050000D01*
G37*
G36*
X23900000Y9050000D02*
G01*
X23000000Y9050000D01*
X23000000Y9950000D01*
X23900000Y9950000D01*
X23900000Y9050000D01*
X23900000Y9050000D01*
G37*
G36*
X3425000Y10410000D02*
G01*
X2125000Y10410000D01*
X2125000Y11310000D01*
X3425000Y11310000D01*
X3425000Y10410000D01*
X3425000Y10410000D01*
G37*
G36*
X46823351Y13069257D02*
G01*
X46823353Y13069256D01*
X46823354Y13069256D01*
X46968942Y13008951D01*
X47099971Y12921400D01*
X47211400Y12809971D01*
X47298951Y12678942D01*
X47359256Y12533354D01*
X47390000Y12378791D01*
X47390000Y12221209D01*
X47359256Y12066646D01*
X47298951Y11921058D01*
X47211400Y11790029D01*
X47099971Y11678600D01*
X46968942Y11591049D01*
X46823354Y11530744D01*
X46823353Y11530744D01*
X46823351Y11530743D01*
X46668793Y11500000D01*
X46511207Y11500000D01*
X46356649Y11530743D01*
X46356647Y11530744D01*
X46356646Y11530744D01*
X46211058Y11591049D01*
X46080029Y11678600D01*
X45968600Y11790029D01*
X45881049Y11921058D01*
X45820744Y12066646D01*
X45790000Y12221209D01*
X45790000Y12378791D01*
X45820744Y12533354D01*
X45881049Y12678942D01*
X45968600Y12809971D01*
X46080029Y12921400D01*
X46211058Y13008951D01*
X46356646Y13069256D01*
X46356647Y13069256D01*
X46356649Y13069257D01*
X46511207Y13100000D01*
X46668793Y13100000D01*
X46823351Y13069257D01*
X46823351Y13069257D01*
G37*
G36*
X44283351Y13069257D02*
G01*
X44283353Y13069256D01*
X44283354Y13069256D01*
X44428942Y13008951D01*
X44559971Y12921400D01*
X44671400Y12809971D01*
X44758951Y12678942D01*
X44819256Y12533354D01*
X44850000Y12378791D01*
X44850000Y12221209D01*
X44819256Y12066646D01*
X44758951Y11921058D01*
X44671400Y11790029D01*
X44559971Y11678600D01*
X44428942Y11591049D01*
X44283354Y11530744D01*
X44283353Y11530744D01*
X44283351Y11530743D01*
X44128793Y11500000D01*
X43971207Y11500000D01*
X43816649Y11530743D01*
X43816647Y11530744D01*
X43816646Y11530744D01*
X43671058Y11591049D01*
X43540029Y11678600D01*
X43428600Y11790029D01*
X43341049Y11921058D01*
X43280744Y12066646D01*
X43250000Y12221209D01*
X43250000Y12378791D01*
X43280744Y12533354D01*
X43341049Y12678942D01*
X43428600Y12809971D01*
X43540029Y12921400D01*
X43671058Y13008951D01*
X43816646Y13069256D01*
X43816647Y13069256D01*
X43816649Y13069257D01*
X43971207Y13100000D01*
X44128793Y13100000D01*
X44283351Y13069257D01*
X44283351Y13069257D01*
G37*
G36*
X30750000Y12300000D02*
G01*
X28250000Y12300000D01*
X28250000Y13400000D01*
X30750000Y13400000D01*
X30750000Y12300000D01*
X30750000Y12300000D01*
G37*
G36*
X26250000Y12300000D02*
G01*
X23750000Y12300000D01*
X23750000Y13400000D01*
X26250000Y13400000D01*
X26250000Y12300000D01*
X26250000Y12300000D01*
G37*
G36*
X16250000Y12300000D02*
G01*
X13750000Y12300000D01*
X13750000Y13400000D01*
X16250000Y13400000D01*
X16250000Y12300000D01*
X16250000Y12300000D01*
G37*
G36*
X20750000Y12300000D02*
G01*
X18250000Y12300000D01*
X18250000Y13400000D01*
X20750000Y13400000D01*
X20750000Y12300000D01*
X20750000Y12300000D01*
G37*
G36*
X36250000Y12300000D02*
G01*
X33750000Y12300000D01*
X33750000Y13400000D01*
X36250000Y13400000D01*
X36250000Y12300000D01*
X36250000Y12300000D01*
G37*
G36*
X40750000Y12300000D02*
G01*
X38250000Y12300000D01*
X38250000Y13400000D01*
X40750000Y13400000D01*
X40750000Y12300000D01*
X40750000Y12300000D01*
G37*
G36*
X7500000Y13050000D02*
G01*
X6600000Y13050000D01*
X6600000Y13950000D01*
X7500000Y13950000D01*
X7500000Y13050000D01*
X7500000Y13050000D01*
G37*
G36*
X3500000Y13050000D02*
G01*
X2600000Y13050000D01*
X2600000Y13950000D01*
X3500000Y13950000D01*
X3500000Y13050000D01*
X3500000Y13050000D01*
G37*
G36*
X9400000Y13050000D02*
G01*
X8500000Y13050000D01*
X8500000Y13950000D01*
X9400000Y13950000D01*
X9400000Y13050000D01*
X9400000Y13050000D01*
G37*
G36*
X5400000Y13050000D02*
G01*
X4500000Y13050000D01*
X4500000Y13950000D01*
X5400000Y13950000D01*
X5400000Y13050000D01*
X5400000Y13050000D01*
G37*
G36*
X44283351Y15609257D02*
G01*
X44283353Y15609256D01*
X44283354Y15609256D01*
X44428942Y15548951D01*
X44559971Y15461400D01*
X44671400Y15349971D01*
X44758951Y15218942D01*
X44819256Y15073354D01*
X44850000Y14918791D01*
X44850000Y14761209D01*
X44819256Y14606646D01*
X44758951Y14461058D01*
X44671400Y14330029D01*
X44559971Y14218600D01*
X44428942Y14131049D01*
X44283354Y14070744D01*
X44283353Y14070744D01*
X44283351Y14070743D01*
X44128793Y14040000D01*
X43971207Y14040000D01*
X43816649Y14070743D01*
X43816647Y14070744D01*
X43816646Y14070744D01*
X43671058Y14131049D01*
X43540029Y14218600D01*
X43428600Y14330029D01*
X43341049Y14461058D01*
X43280744Y14606646D01*
X43250000Y14761209D01*
X43250000Y14918791D01*
X43280744Y15073354D01*
X43341049Y15218942D01*
X43428600Y15349971D01*
X43540029Y15461400D01*
X43671058Y15548951D01*
X43816646Y15609256D01*
X43816647Y15609256D01*
X43816649Y15609257D01*
X43971207Y15640000D01*
X44128793Y15640000D01*
X44283351Y15609257D01*
X44283351Y15609257D01*
G37*
G36*
X46823351Y15609257D02*
G01*
X46823353Y15609256D01*
X46823354Y15609256D01*
X46968942Y15548951D01*
X47099971Y15461400D01*
X47211400Y15349971D01*
X47298951Y15218942D01*
X47359256Y15073354D01*
X47390000Y14918791D01*
X47390000Y14761209D01*
X47359256Y14606646D01*
X47298951Y14461058D01*
X47211400Y14330029D01*
X47099971Y14218600D01*
X46968942Y14131049D01*
X46823354Y14070744D01*
X46823353Y14070744D01*
X46823351Y14070743D01*
X46668793Y14040000D01*
X46511207Y14040000D01*
X46356649Y14070743D01*
X46356647Y14070744D01*
X46356646Y14070744D01*
X46211058Y14131049D01*
X46080029Y14218600D01*
X45968600Y14330029D01*
X45881049Y14461058D01*
X45820744Y14606646D01*
X45790000Y14761209D01*
X45790000Y14918791D01*
X45820744Y15073354D01*
X45881049Y15218942D01*
X45968600Y15349971D01*
X46080029Y15461400D01*
X46211058Y15548951D01*
X46356646Y15609256D01*
X46356647Y15609256D01*
X46356649Y15609257D01*
X46511207Y15640000D01*
X46668793Y15640000D01*
X46823351Y15609257D01*
X46823351Y15609257D01*
G37*
G36*
X26250000Y15600000D02*
G01*
X23750000Y15600000D01*
X23750000Y16700000D01*
X26250000Y16700000D01*
X26250000Y15600000D01*
X26250000Y15600000D01*
G37*
G36*
X30750000Y15600000D02*
G01*
X28250000Y15600000D01*
X28250000Y16700000D01*
X30750000Y16700000D01*
X30750000Y15600000D01*
X30750000Y15600000D01*
G37*
G36*
X20750000Y15600000D02*
G01*
X18250000Y15600000D01*
X18250000Y16700000D01*
X20750000Y16700000D01*
X20750000Y15600000D01*
X20750000Y15600000D01*
G37*
G36*
X16250000Y15600000D02*
G01*
X13750000Y15600000D01*
X13750000Y16700000D01*
X16250000Y16700000D01*
X16250000Y15600000D01*
X16250000Y15600000D01*
G37*
G36*
X40750000Y15600000D02*
G01*
X38250000Y15600000D01*
X38250000Y16700000D01*
X40750000Y16700000D01*
X40750000Y15600000D01*
X40750000Y15600000D01*
G37*
G36*
X36250000Y15600000D02*
G01*
X33750000Y15600000D01*
X33750000Y16700000D01*
X36250000Y16700000D01*
X36250000Y15600000D01*
X36250000Y15600000D01*
G37*
G36*
X6200000Y16500000D02*
G01*
X5200000Y16500000D01*
X5200000Y17500000D01*
X6200000Y17500000D01*
X6200000Y16500000D01*
X6200000Y16500000D01*
G37*
G36*
X2800000Y16500000D02*
G01*
X1800000Y16500000D01*
X1800000Y17500000D01*
X2800000Y17500000D01*
X2800000Y16500000D01*
X2800000Y16500000D01*
G37*
G36*
X44283351Y18149257D02*
G01*
X44283353Y18149256D01*
X44283354Y18149256D01*
X44428942Y18088951D01*
X44559970Y18001401D01*
X44671401Y17889970D01*
X44758951Y17758942D01*
X44819257Y17613351D01*
X44850000Y17458793D01*
X44850000Y17301209D01*
X44819256Y17146646D01*
X44758951Y17001058D01*
X44671400Y16870029D01*
X44559971Y16758600D01*
X44428942Y16671049D01*
X44283354Y16610744D01*
X44283353Y16610744D01*
X44283351Y16610743D01*
X44128793Y16580000D01*
X43971207Y16580000D01*
X43816649Y16610743D01*
X43816647Y16610744D01*
X43816646Y16610744D01*
X43671058Y16671049D01*
X43540029Y16758600D01*
X43428600Y16870029D01*
X43341049Y17001058D01*
X43280744Y17146646D01*
X43250000Y17301209D01*
X43250000Y17458793D01*
X43280743Y17613351D01*
X43341049Y17758942D01*
X43428599Y17889970D01*
X43540030Y18001401D01*
X43671058Y18088951D01*
X43816646Y18149256D01*
X43816647Y18149256D01*
X43816649Y18149257D01*
X43971207Y18180000D01*
X44128793Y18180000D01*
X44283351Y18149257D01*
X44283351Y18149257D01*
G37*
G36*
X46823351Y18149257D02*
G01*
X46823353Y18149256D01*
X46823354Y18149256D01*
X46968942Y18088951D01*
X47099970Y18001401D01*
X47211401Y17889970D01*
X47298951Y17758942D01*
X47359257Y17613351D01*
X47390000Y17458793D01*
X47390000Y17301209D01*
X47359256Y17146646D01*
X47298951Y17001058D01*
X47211400Y16870029D01*
X47099971Y16758600D01*
X46968942Y16671049D01*
X46823354Y16610744D01*
X46823353Y16610744D01*
X46823351Y16610743D01*
X46668793Y16580000D01*
X46511207Y16580000D01*
X46356649Y16610743D01*
X46356647Y16610744D01*
X46356646Y16610744D01*
X46211058Y16671049D01*
X46080029Y16758600D01*
X45968600Y16870029D01*
X45881049Y17001058D01*
X45820744Y17146646D01*
X45790000Y17301209D01*
X45790000Y17458793D01*
X45820743Y17613351D01*
X45881049Y17758942D01*
X45968599Y17889970D01*
X46080030Y18001401D01*
X46211058Y18088951D01*
X46356646Y18149256D01*
X46356647Y18149256D01*
X46356649Y18149257D01*
X46511207Y18180000D01*
X46668793Y18180000D01*
X46823351Y18149257D01*
X46823351Y18149257D01*
G37*
G36*
X8950000Y16600000D02*
G01*
X8050000Y16600000D01*
X8050000Y17500000D01*
X8950000Y17500000D01*
X8950000Y16600000D01*
X8950000Y16600000D01*
G37*
G36*
X23950000Y18100000D02*
G01*
X23050000Y18100000D01*
X23050000Y19000000D01*
X23950000Y19000000D01*
X23950000Y18100000D01*
X23950000Y18100000D01*
G37*
G36*
X41450000Y18100000D02*
G01*
X40550000Y18100000D01*
X40550000Y19000000D01*
X41450000Y19000000D01*
X41450000Y18100000D01*
X41450000Y18100000D01*
G37*
G36*
X38950000Y18100000D02*
G01*
X38050000Y18100000D01*
X38050000Y19000000D01*
X38950000Y19000000D01*
X38950000Y18100000D01*
X38950000Y18100000D01*
G37*
G36*
X36450000Y18100000D02*
G01*
X35550000Y18100000D01*
X35550000Y19000000D01*
X36450000Y19000000D01*
X36450000Y18100000D01*
X36450000Y18100000D01*
G37*
G36*
X33950000Y18100000D02*
G01*
X33050000Y18100000D01*
X33050000Y19000000D01*
X33950000Y19000000D01*
X33950000Y18100000D01*
X33950000Y18100000D01*
G37*
G36*
X31450000Y18100000D02*
G01*
X30550000Y18100000D01*
X30550000Y19000000D01*
X31450000Y19000000D01*
X31450000Y18100000D01*
X31450000Y18100000D01*
G37*
G36*
X13950000Y18100000D02*
G01*
X13050000Y18100000D01*
X13050000Y19000000D01*
X13950000Y19000000D01*
X13950000Y18100000D01*
X13950000Y18100000D01*
G37*
G36*
X28950000Y18100000D02*
G01*
X28050000Y18100000D01*
X28050000Y19000000D01*
X28950000Y19000000D01*
X28950000Y18100000D01*
X28950000Y18100000D01*
G37*
G36*
X26450000Y18100000D02*
G01*
X25550000Y18100000D01*
X25550000Y19000000D01*
X26450000Y19000000D01*
X26450000Y18100000D01*
X26450000Y18100000D01*
G37*
G36*
X21450000Y18100000D02*
G01*
X20550000Y18100000D01*
X20550000Y19000000D01*
X21450000Y19000000D01*
X21450000Y18100000D01*
X21450000Y18100000D01*
G37*
G36*
X16450000Y18100000D02*
G01*
X15550000Y18100000D01*
X15550000Y19000000D01*
X16450000Y19000000D01*
X16450000Y18100000D01*
X16450000Y18100000D01*
G37*
G36*
X18950000Y18100000D02*
G01*
X18050000Y18100000D01*
X18050000Y19000000D01*
X18950000Y19000000D01*
X18950000Y18100000D01*
X18950000Y18100000D01*
G37*
G36*
X8950000Y18500000D02*
G01*
X8050000Y18500000D01*
X8050000Y19400000D01*
X8950000Y19400000D01*
X8950000Y18500000D01*
X8950000Y18500000D01*
G37*
G36*
X44450000Y19100000D02*
G01*
X43550000Y19100000D01*
X43550000Y20000000D01*
X44450000Y20000000D01*
X44450000Y19100000D01*
X44450000Y19100000D01*
G37*
G36*
X46950000Y19100000D02*
G01*
X46050000Y19100000D01*
X46050000Y20000000D01*
X46950000Y20000000D01*
X46950000Y19100000D01*
X46950000Y19100000D01*
G37*
G36*
X41450000Y20000000D02*
G01*
X40550000Y20000000D01*
X40550000Y20900000D01*
X41450000Y20900000D01*
X41450000Y20000000D01*
X41450000Y20000000D01*
G37*
G36*
X36450000Y20000000D02*
G01*
X35550000Y20000000D01*
X35550000Y20900000D01*
X36450000Y20900000D01*
X36450000Y20000000D01*
X36450000Y20000000D01*
G37*
G36*
X28950000Y20000000D02*
G01*
X28050000Y20000000D01*
X28050000Y20900000D01*
X28950000Y20900000D01*
X28950000Y20000000D01*
X28950000Y20000000D01*
G37*
G36*
X26450000Y20000000D02*
G01*
X25550000Y20000000D01*
X25550000Y20900000D01*
X26450000Y20900000D01*
X26450000Y20000000D01*
X26450000Y20000000D01*
G37*
G36*
X33950000Y20000000D02*
G01*
X33050000Y20000000D01*
X33050000Y20900000D01*
X33950000Y20900000D01*
X33950000Y20000000D01*
X33950000Y20000000D01*
G37*
G36*
X2800000Y20000000D02*
G01*
X1800000Y20000000D01*
X1800000Y21000000D01*
X2800000Y21000000D01*
X2800000Y20000000D01*
X2800000Y20000000D01*
G37*
G36*
X6200000Y20000000D02*
G01*
X5200000Y20000000D01*
X5200000Y21000000D01*
X6200000Y21000000D01*
X6200000Y20000000D01*
X6200000Y20000000D01*
G37*
G36*
X31450000Y20000000D02*
G01*
X30550000Y20000000D01*
X30550000Y20900000D01*
X31450000Y20900000D01*
X31450000Y20000000D01*
X31450000Y20000000D01*
G37*
G36*
X13950000Y20000000D02*
G01*
X13050000Y20000000D01*
X13050000Y20900000D01*
X13950000Y20900000D01*
X13950000Y20000000D01*
X13950000Y20000000D01*
G37*
G36*
X38950000Y20000000D02*
G01*
X38050000Y20000000D01*
X38050000Y20900000D01*
X38950000Y20900000D01*
X38950000Y20000000D01*
X38950000Y20000000D01*
G37*
G36*
X16450000Y20000000D02*
G01*
X15550000Y20000000D01*
X15550000Y20900000D01*
X16450000Y20900000D01*
X16450000Y20000000D01*
X16450000Y20000000D01*
G37*
G36*
X18950000Y20000000D02*
G01*
X18050000Y20000000D01*
X18050000Y20900000D01*
X18950000Y20900000D01*
X18950000Y20000000D01*
X18950000Y20000000D01*
G37*
G36*
X21450000Y20000000D02*
G01*
X20550000Y20000000D01*
X20550000Y20900000D01*
X21450000Y20900000D01*
X21450000Y20000000D01*
X21450000Y20000000D01*
G37*
G36*
X23950000Y20000000D02*
G01*
X23050000Y20000000D01*
X23050000Y20900000D01*
X23950000Y20900000D01*
X23950000Y20000000D01*
X23950000Y20000000D01*
G37*
G36*
X44450000Y21000000D02*
G01*
X43550000Y21000000D01*
X43550000Y21900000D01*
X44450000Y21900000D01*
X44450000Y21000000D01*
X44450000Y21000000D01*
G37*
G36*
X46950000Y21000000D02*
G01*
X46050000Y21000000D01*
X46050000Y21900000D01*
X46950000Y21900000D01*
X46950000Y21000000D01*
X46950000Y21000000D01*
G37*
G36*
X9000000Y21050000D02*
G01*
X8100000Y21050000D01*
X8100000Y21950000D01*
X9000000Y21950000D01*
X9000000Y21050000D01*
X9000000Y21050000D01*
G37*
G36*
X10900000Y21050000D02*
G01*
X10000000Y21050000D01*
X10000000Y21950000D01*
X10900000Y21950000D01*
X10900000Y21050000D01*
X10900000Y21050000D01*
G37*
G36*
X41450000Y22600000D02*
G01*
X40550000Y22600000D01*
X40550000Y23500000D01*
X41450000Y23500000D01*
X41450000Y22600000D01*
X41450000Y22600000D01*
G37*
G36*
X38950000Y22600000D02*
G01*
X38050000Y22600000D01*
X38050000Y23500000D01*
X38950000Y23500000D01*
X38950000Y22600000D01*
X38950000Y22600000D01*
G37*
G36*
X33950000Y22600000D02*
G01*
X33050000Y22600000D01*
X33050000Y23500000D01*
X33950000Y23500000D01*
X33950000Y22600000D01*
X33950000Y22600000D01*
G37*
G36*
X21450000Y22600000D02*
G01*
X20550000Y22600000D01*
X20550000Y23500000D01*
X21450000Y23500000D01*
X21450000Y22600000D01*
X21450000Y22600000D01*
G37*
G36*
X18950000Y22600000D02*
G01*
X18050000Y22600000D01*
X18050000Y23500000D01*
X18950000Y23500000D01*
X18950000Y22600000D01*
X18950000Y22600000D01*
G37*
G36*
X13950000Y22600000D02*
G01*
X13050000Y22600000D01*
X13050000Y23500000D01*
X13950000Y23500000D01*
X13950000Y22600000D01*
X13950000Y22600000D01*
G37*
G36*
X36450000Y22600000D02*
G01*
X35550000Y22600000D01*
X35550000Y23500000D01*
X36450000Y23500000D01*
X36450000Y22600000D01*
X36450000Y22600000D01*
G37*
G36*
X23950000Y22600000D02*
G01*
X23050000Y22600000D01*
X23050000Y23500000D01*
X23950000Y23500000D01*
X23950000Y22600000D01*
X23950000Y22600000D01*
G37*
G36*
X26450000Y22600000D02*
G01*
X25550000Y22600000D01*
X25550000Y23500000D01*
X26450000Y23500000D01*
X26450000Y22600000D01*
X26450000Y22600000D01*
G37*
G36*
X28950000Y22600000D02*
G01*
X28050000Y22600000D01*
X28050000Y23500000D01*
X28950000Y23500000D01*
X28950000Y22600000D01*
X28950000Y22600000D01*
G37*
G36*
X31450000Y22600000D02*
G01*
X30550000Y22600000D01*
X30550000Y23500000D01*
X31450000Y23500000D01*
X31450000Y22600000D01*
X31450000Y22600000D01*
G37*
G36*
X16450000Y22600000D02*
G01*
X15550000Y22600000D01*
X15550000Y23500000D01*
X16450000Y23500000D01*
X16450000Y22600000D01*
X16450000Y22600000D01*
G37*
G36*
X47950000Y23100000D02*
G01*
X47050000Y23100000D01*
X47050000Y24000000D01*
X47950000Y24000000D01*
X47950000Y23100000D01*
X47950000Y23100000D01*
G37*
G36*
X45850000Y23150000D02*
G01*
X44950000Y23150000D01*
X44950000Y23950000D01*
X45850000Y23950000D01*
X45850000Y23150000D01*
X45850000Y23150000D01*
G37*
G36*
X44050000Y23150000D02*
G01*
X43150000Y23150000D01*
X43150000Y24350000D01*
X44050000Y24350000D01*
X44050000Y23150000D01*
X44050000Y23150000D01*
G37*
G36*
X5050000Y23350000D02*
G01*
X4150000Y23350000D01*
X4150000Y24650000D01*
X5050000Y24650000D01*
X5050000Y23350000D01*
X5050000Y23350000D01*
G37*
G36*
X2850000Y23350000D02*
G01*
X1950000Y23350000D01*
X1950000Y24650000D01*
X2850000Y24650000D01*
X2850000Y23350000D01*
X2850000Y23350000D01*
G37*
G36*
X10900000Y23550000D02*
G01*
X10000000Y23550000D01*
X10000000Y24450000D01*
X10900000Y24450000D01*
X10900000Y23550000D01*
X10900000Y23550000D01*
G37*
G36*
X9000000Y23550000D02*
G01*
X8100000Y23550000D01*
X8100000Y24450000D01*
X9000000Y24450000D01*
X9000000Y23550000D01*
X9000000Y23550000D01*
G37*
G36*
X36450000Y24500000D02*
G01*
X35550000Y24500000D01*
X35550000Y25400000D01*
X36450000Y25400000D01*
X36450000Y24500000D01*
X36450000Y24500000D01*
G37*
G36*
X28950000Y24500000D02*
G01*
X28050000Y24500000D01*
X28050000Y25400000D01*
X28950000Y25400000D01*
X28950000Y24500000D01*
X28950000Y24500000D01*
G37*
G36*
X13950000Y24500000D02*
G01*
X13050000Y24500000D01*
X13050000Y25400000D01*
X13950000Y25400000D01*
X13950000Y24500000D01*
X13950000Y24500000D01*
G37*
G36*
X38950000Y24500000D02*
G01*
X38050000Y24500000D01*
X38050000Y25400000D01*
X38950000Y25400000D01*
X38950000Y24500000D01*
X38950000Y24500000D01*
G37*
G36*
X31450000Y24500000D02*
G01*
X30550000Y24500000D01*
X30550000Y25400000D01*
X31450000Y25400000D01*
X31450000Y24500000D01*
X31450000Y24500000D01*
G37*
G36*
X21450000Y24500000D02*
G01*
X20550000Y24500000D01*
X20550000Y25400000D01*
X21450000Y25400000D01*
X21450000Y24500000D01*
X21450000Y24500000D01*
G37*
G36*
X33950000Y24500000D02*
G01*
X33050000Y24500000D01*
X33050000Y25400000D01*
X33950000Y25400000D01*
X33950000Y24500000D01*
X33950000Y24500000D01*
G37*
G36*
X41450000Y24500000D02*
G01*
X40550000Y24500000D01*
X40550000Y25400000D01*
X41450000Y25400000D01*
X41450000Y24500000D01*
X41450000Y24500000D01*
G37*
G36*
X18950000Y24500000D02*
G01*
X18050000Y24500000D01*
X18050000Y25400000D01*
X18950000Y25400000D01*
X18950000Y24500000D01*
X18950000Y24500000D01*
G37*
G36*
X16450000Y24500000D02*
G01*
X15550000Y24500000D01*
X15550000Y25400000D01*
X16450000Y25400000D01*
X16450000Y24500000D01*
X16450000Y24500000D01*
G37*
G36*
X26450000Y24500000D02*
G01*
X25550000Y24500000D01*
X25550000Y25400000D01*
X26450000Y25400000D01*
X26450000Y24500000D01*
X26450000Y24500000D01*
G37*
G36*
X23950000Y24500000D02*
G01*
X23050000Y24500000D01*
X23050000Y25400000D01*
X23950000Y25400000D01*
X23950000Y24500000D01*
X23950000Y24500000D01*
G37*
G36*
X47950000Y25000000D02*
G01*
X47050000Y25000000D01*
X47050000Y25900000D01*
X47950000Y25900000D01*
X47950000Y25000000D01*
X47950000Y25000000D01*
G37*
G36*
X45850000Y25050000D02*
G01*
X44950000Y25050000D01*
X44950000Y25850000D01*
X45850000Y25850000D01*
X45850000Y25050000D01*
X45850000Y25050000D01*
G37*
G36*
X44050000Y25050000D02*
G01*
X43150000Y25050000D01*
X43150000Y25850000D01*
X44050000Y25850000D01*
X44050000Y25050000D01*
X44050000Y25050000D01*
G37*
G36*
X26500000Y26550000D02*
G01*
X25600000Y26550000D01*
X25600000Y27450000D01*
X26500000Y27450000D01*
X26500000Y26550000D01*
X26500000Y26550000D01*
G37*
G36*
X38400000Y26550000D02*
G01*
X37500000Y26550000D01*
X37500000Y27450000D01*
X38400000Y27450000D01*
X38400000Y26550000D01*
X38400000Y26550000D01*
G37*
G36*
X18900000Y26550000D02*
G01*
X18000000Y26550000D01*
X18000000Y27450000D01*
X18900000Y27450000D01*
X18900000Y26550000D01*
X18900000Y26550000D01*
G37*
G36*
X36500000Y26550000D02*
G01*
X35600000Y26550000D01*
X35600000Y27450000D01*
X36500000Y27450000D01*
X36500000Y26550000D01*
X36500000Y26550000D01*
G37*
G36*
X28400000Y26550000D02*
G01*
X27500000Y26550000D01*
X27500000Y27450000D01*
X28400000Y27450000D01*
X28400000Y26550000D01*
X28400000Y26550000D01*
G37*
G36*
X17000000Y26550000D02*
G01*
X16100000Y26550000D01*
X16100000Y27450000D01*
X17000000Y27450000D01*
X17000000Y26550000D01*
X17000000Y26550000D01*
G37*
G36*
X6718767Y28221178D02*
G01*
X6718769Y28221177D01*
X6718770Y28221177D01*
X6855258Y28164642D01*
X6978098Y28082563D01*
X7082563Y27978098D01*
X7164642Y27855258D01*
X7221177Y27718770D01*
X7250000Y27573867D01*
X7250000Y27426133D01*
X7221177Y27281230D01*
X7164642Y27144742D01*
X7082563Y27021902D01*
X6978098Y26917437D01*
X6855258Y26835358D01*
X6718770Y26778823D01*
X6718769Y26778823D01*
X6718767Y26778822D01*
X6573869Y26750000D01*
X6426131Y26750000D01*
X6281233Y26778822D01*
X6281231Y26778823D01*
X6281230Y26778823D01*
X6144742Y26835358D01*
X6021902Y26917437D01*
X5917437Y27021902D01*
X5835358Y27144742D01*
X5778823Y27281230D01*
X5750000Y27426133D01*
X5750000Y27573867D01*
X5778823Y27718770D01*
X5835358Y27855258D01*
X5917437Y27978098D01*
X6021902Y28082563D01*
X6144742Y28164642D01*
X6281230Y28221177D01*
X6281231Y28221177D01*
X6281233Y28221178D01*
X6426131Y28250000D01*
X6573869Y28250000D01*
X6718767Y28221178D01*
X6718767Y28221178D01*
G37*
G36*
X12700000Y26750000D02*
G01*
X11600000Y26750000D01*
X11600000Y29250000D01*
X12700000Y29250000D01*
X12700000Y26750000D01*
X12700000Y26750000D01*
G37*
G36*
X9400000Y26750000D02*
G01*
X8300000Y26750000D01*
X8300000Y29250000D01*
X9400000Y29250000D01*
X9400000Y26750000D01*
X9400000Y26750000D01*
G37*
G36*
X44450000Y27600000D02*
G01*
X43550000Y27600000D01*
X43550000Y28500000D01*
X44450000Y28500000D01*
X44450000Y27600000D01*
X44450000Y27600000D01*
G37*
G36*
X47450000Y27600000D02*
G01*
X46550000Y27600000D01*
X46550000Y28500000D01*
X47450000Y28500000D01*
X47450000Y27600000D01*
X47450000Y27600000D01*
G37*
G36*
X41700000Y28750000D02*
G01*
X40600000Y28750000D01*
X40600000Y31250000D01*
X41700000Y31250000D01*
X41700000Y28750000D01*
X41700000Y28750000D01*
G37*
G36*
X38400000Y28750000D02*
G01*
X37300000Y28750000D01*
X37300000Y31250000D01*
X38400000Y31250000D01*
X38400000Y28750000D01*
X38400000Y28750000D01*
G37*
G36*
X15000000Y29050000D02*
G01*
X14100000Y29050000D01*
X14100000Y29950000D01*
X15000000Y29950000D01*
X15000000Y29050000D01*
X15000000Y29050000D01*
G37*
G36*
X16900000Y29050000D02*
G01*
X16000000Y29050000D01*
X16000000Y29950000D01*
X16900000Y29950000D01*
X16900000Y29050000D01*
X16900000Y29050000D01*
G37*
G36*
X44450000Y29500000D02*
G01*
X43550000Y29500000D01*
X43550000Y30400000D01*
X44450000Y30400000D01*
X44450000Y29500000D01*
X44450000Y29500000D01*
G37*
G36*
X47450000Y29500000D02*
G01*
X46550000Y29500000D01*
X46550000Y30400000D01*
X47450000Y30400000D01*
X47450000Y29500000D01*
X47450000Y29500000D01*
G37*
G36*
X34000000Y29550000D02*
G01*
X33100000Y29550000D01*
X33100000Y30450000D01*
X34000000Y30450000D01*
X34000000Y29550000D01*
X34000000Y29550000D01*
G37*
G36*
X35900000Y29550000D02*
G01*
X35000000Y29550000D01*
X35000000Y30450000D01*
X35900000Y30450000D01*
X35900000Y29550000D01*
X35900000Y29550000D01*
G37*
G36*
X3000000Y29550000D02*
G01*
X2100000Y29550000D01*
X2100000Y30450000D01*
X3000000Y30450000D01*
X3000000Y29550000D01*
X3000000Y29550000D01*
G37*
G36*
X4900000Y29550000D02*
G01*
X4000000Y29550000D01*
X4000000Y30450000D01*
X4900000Y30450000D01*
X4900000Y29550000D01*
X4900000Y29550000D01*
G37*
G36*
X21950000Y29600000D02*
G01*
X21050000Y29600000D01*
X21050000Y30500000D01*
X21950000Y30500000D01*
X21950000Y29600000D01*
X21950000Y29600000D01*
G37*
G36*
X19450000Y29600000D02*
G01*
X18550000Y29600000D01*
X18550000Y30500000D01*
X19450000Y30500000D01*
X19450000Y29600000D01*
X19450000Y29600000D01*
G37*
G36*
X24450000Y30600000D02*
G01*
X23550000Y30600000D01*
X23550000Y31500000D01*
X24450000Y31500000D01*
X24450000Y30600000D01*
X24450000Y30600000D01*
G37*
G36*
X26450000Y30600000D02*
G01*
X25550000Y30600000D01*
X25550000Y31500000D01*
X26450000Y31500000D01*
X26450000Y30600000D01*
X26450000Y30600000D01*
G37*
G36*
X9400000Y30750000D02*
G01*
X8300000Y30750000D01*
X8300000Y33250000D01*
X9400000Y33250000D01*
X9400000Y30750000D01*
X9400000Y30750000D01*
G37*
G36*
X12700000Y30750000D02*
G01*
X11600000Y30750000D01*
X11600000Y33250000D01*
X12700000Y33250000D01*
X12700000Y30750000D01*
X12700000Y30750000D01*
G37*
G36*
X30850000Y31050000D02*
G01*
X29950000Y31050000D01*
X29950000Y31950000D01*
X30850000Y31950000D01*
X30850000Y31050000D01*
X30850000Y31050000D01*
G37*
G36*
X28950000Y31050000D02*
G01*
X28050000Y31050000D01*
X28050000Y31950000D01*
X28950000Y31950000D01*
X28950000Y31050000D01*
X28950000Y31050000D01*
G37*
G36*
X19450000Y31500000D02*
G01*
X18550000Y31500000D01*
X18550000Y32400000D01*
X19450000Y32400000D01*
X19450000Y31500000D01*
X19450000Y31500000D01*
G37*
G36*
X21950000Y31500000D02*
G01*
X21050000Y31500000D01*
X21050000Y32400000D01*
X21950000Y32400000D01*
X21950000Y31500000D01*
X21950000Y31500000D01*
G37*
G36*
X16900000Y31550000D02*
G01*
X16000000Y31550000D01*
X16000000Y32450000D01*
X16900000Y32450000D01*
X16900000Y31550000D01*
X16900000Y31550000D01*
G37*
G36*
X15000000Y31550000D02*
G01*
X14100000Y31550000D01*
X14100000Y32450000D01*
X15000000Y32450000D01*
X15000000Y31550000D01*
X15000000Y31550000D01*
G37*
G36*
X35900000Y31550000D02*
G01*
X35000000Y31550000D01*
X35000000Y32450000D01*
X35900000Y32450000D01*
X35900000Y31550000D01*
X35900000Y31550000D01*
G37*
G36*
X34000000Y31550000D02*
G01*
X33100000Y31550000D01*
X33100000Y32450000D01*
X34000000Y32450000D01*
X34000000Y31550000D01*
X34000000Y31550000D01*
G37*
G36*
X6183351Y33389257D02*
G01*
X6183353Y33389256D01*
X6183354Y33389256D01*
X6328942Y33328951D01*
X6459970Y33241401D01*
X6571401Y33129970D01*
X6658951Y32998942D01*
X6719257Y32853351D01*
X6750000Y32698793D01*
X6750000Y32541207D01*
X6721913Y32400000D01*
X6719256Y32386646D01*
X6658951Y32241058D01*
X6571400Y32110029D01*
X6459971Y31998600D01*
X6328942Y31911049D01*
X6183354Y31850744D01*
X6183353Y31850744D01*
X6183351Y31850743D01*
X6028793Y31820000D01*
X5871207Y31820000D01*
X5716649Y31850743D01*
X5716647Y31850744D01*
X5716646Y31850744D01*
X5571058Y31911049D01*
X5440029Y31998600D01*
X5328600Y32110029D01*
X5241049Y32241058D01*
X5180744Y32386646D01*
X5178088Y32400000D01*
X5150000Y32541207D01*
X5150000Y32698793D01*
X5180743Y32853351D01*
X5241049Y32998942D01*
X5328599Y33129970D01*
X5440030Y33241401D01*
X5571058Y33328951D01*
X5716646Y33389256D01*
X5716647Y33389256D01*
X5716649Y33389257D01*
X5871207Y33420000D01*
X6028793Y33420000D01*
X6183351Y33389257D01*
X6183351Y33389257D01*
G37*
G36*
X47390000Y31820000D02*
G01*
X45790000Y31820000D01*
X45790000Y33420000D01*
X47390000Y33420000D01*
X47390000Y31820000D01*
X47390000Y31820000D01*
G37*
G36*
X3643351Y33389257D02*
G01*
X3643353Y33389256D01*
X3643354Y33389256D01*
X3788942Y33328951D01*
X3919970Y33241401D01*
X4031401Y33129970D01*
X4118951Y32998942D01*
X4179257Y32853351D01*
X4210000Y32698793D01*
X4210000Y32541207D01*
X4181913Y32400000D01*
X4179256Y32386646D01*
X4118951Y32241058D01*
X4031400Y32110029D01*
X3919971Y31998600D01*
X3788942Y31911049D01*
X3643354Y31850744D01*
X3643353Y31850744D01*
X3643351Y31850743D01*
X3488793Y31820000D01*
X3331207Y31820000D01*
X3176649Y31850743D01*
X3176647Y31850744D01*
X3176646Y31850744D01*
X3031058Y31911049D01*
X2900029Y31998600D01*
X2788600Y32110029D01*
X2701049Y32241058D01*
X2640744Y32386646D01*
X2638088Y32400000D01*
X2610000Y32541207D01*
X2610000Y32698793D01*
X2640743Y32853351D01*
X2701049Y32998942D01*
X2788599Y33129970D01*
X2900030Y33241401D01*
X3031058Y33328951D01*
X3176646Y33389256D01*
X3176647Y33389256D01*
X3176649Y33389257D01*
X3331207Y33420000D01*
X3488793Y33420000D01*
X3643351Y33389257D01*
X3643351Y33389257D01*
G37*
G36*
X44283351Y33389257D02*
G01*
X44283353Y33389256D01*
X44283354Y33389256D01*
X44428942Y33328951D01*
X44559970Y33241401D01*
X44671401Y33129970D01*
X44758951Y32998942D01*
X44819257Y32853351D01*
X44850000Y32698793D01*
X44850000Y32541207D01*
X44821913Y32400000D01*
X44819256Y32386646D01*
X44758951Y32241058D01*
X44671400Y32110029D01*
X44559971Y31998600D01*
X44428942Y31911049D01*
X44283354Y31850744D01*
X44283353Y31850744D01*
X44283351Y31850743D01*
X44128793Y31820000D01*
X43971207Y31820000D01*
X43816649Y31850743D01*
X43816647Y31850744D01*
X43816646Y31850744D01*
X43671058Y31911049D01*
X43540029Y31998600D01*
X43428600Y32110029D01*
X43341049Y32241058D01*
X43280744Y32386646D01*
X43278088Y32400000D01*
X43250000Y32541207D01*
X43250000Y32698793D01*
X43280743Y32853351D01*
X43341049Y32998942D01*
X43428599Y33129970D01*
X43540030Y33241401D01*
X43671058Y33328951D01*
X43816646Y33389256D01*
X43816647Y33389256D01*
X43816649Y33389257D01*
X43971207Y33420000D01*
X44128793Y33420000D01*
X44283351Y33389257D01*
X44283351Y33389257D01*
G37*
G36*
X26450000Y32500000D02*
G01*
X25550000Y32500000D01*
X25550000Y33400000D01*
X26450000Y33400000D01*
X26450000Y32500000D01*
X26450000Y32500000D01*
G37*
G36*
X24450000Y32500000D02*
G01*
X23550000Y32500000D01*
X23550000Y33400000D01*
X24450000Y33400000D01*
X24450000Y32500000D01*
X24450000Y32500000D01*
G37*
G36*
X41700000Y32750000D02*
G01*
X40600000Y32750000D01*
X40600000Y35250000D01*
X41700000Y35250000D01*
X41700000Y32750000D01*
X41700000Y32750000D01*
G37*
G36*
X38400000Y32750000D02*
G01*
X37300000Y32750000D01*
X37300000Y35250000D01*
X38400000Y35250000D01*
X38400000Y32750000D01*
X38400000Y32750000D01*
G37*
G36*
X28950000Y33050000D02*
G01*
X28050000Y33050000D01*
X28050000Y33950000D01*
X28950000Y33950000D01*
X28950000Y33050000D01*
X28950000Y33050000D01*
G37*
G36*
X30850000Y33050000D02*
G01*
X29950000Y33050000D01*
X29950000Y33950000D01*
X30850000Y33950000D01*
X30850000Y33050000D01*
X30850000Y33050000D01*
G37*
G36*
X35900000Y33550000D02*
G01*
X35000000Y33550000D01*
X35000000Y34450000D01*
X35900000Y34450000D01*
X35900000Y33550000D01*
X35900000Y33550000D01*
G37*
G36*
X34000000Y33550000D02*
G01*
X33100000Y33550000D01*
X33100000Y34450000D01*
X34000000Y34450000D01*
X34000000Y33550000D01*
X34000000Y33550000D01*
G37*
G36*
X16900000Y34050000D02*
G01*
X16000000Y34050000D01*
X16000000Y34950000D01*
X16900000Y34950000D01*
X16900000Y34050000D01*
X16900000Y34050000D01*
G37*
G36*
X15000000Y34050000D02*
G01*
X14100000Y34050000D01*
X14100000Y34950000D01*
X15000000Y34950000D01*
X15000000Y34050000D01*
X15000000Y34050000D01*
G37*
G36*
X6183351Y35929257D02*
G01*
X6183353Y35929256D01*
X6183354Y35929256D01*
X6328942Y35868951D01*
X6459970Y35781401D01*
X6571401Y35669970D01*
X6658951Y35538942D01*
X6719257Y35393351D01*
X6750000Y35238793D01*
X6750000Y35081207D01*
X6723902Y34950000D01*
X6719256Y34926646D01*
X6658951Y34781058D01*
X6571400Y34650029D01*
X6459971Y34538600D01*
X6328942Y34451049D01*
X6183354Y34390744D01*
X6183353Y34390744D01*
X6183351Y34390743D01*
X6028793Y34360000D01*
X5871207Y34360000D01*
X5716649Y34390743D01*
X5716647Y34390744D01*
X5716646Y34390744D01*
X5571058Y34451049D01*
X5440029Y34538600D01*
X5328600Y34650029D01*
X5241049Y34781058D01*
X5180744Y34926646D01*
X5176099Y34950000D01*
X5150000Y35081207D01*
X5150000Y35238793D01*
X5180743Y35393351D01*
X5241049Y35538942D01*
X5328599Y35669970D01*
X5440030Y35781401D01*
X5571058Y35868951D01*
X5716646Y35929256D01*
X5716647Y35929256D01*
X5716649Y35929257D01*
X5871207Y35960000D01*
X6028793Y35960000D01*
X6183351Y35929257D01*
X6183351Y35929257D01*
G37*
G36*
X3643351Y35929257D02*
G01*
X3643353Y35929256D01*
X3643354Y35929256D01*
X3788942Y35868951D01*
X3919970Y35781401D01*
X4031401Y35669970D01*
X4118951Y35538942D01*
X4179257Y35393351D01*
X4210000Y35238793D01*
X4210000Y35081207D01*
X4183902Y34950000D01*
X4179256Y34926646D01*
X4118951Y34781058D01*
X4031400Y34650029D01*
X3919971Y34538600D01*
X3788942Y34451049D01*
X3643354Y34390744D01*
X3643353Y34390744D01*
X3643351Y34390743D01*
X3488793Y34360000D01*
X3331207Y34360000D01*
X3176649Y34390743D01*
X3176647Y34390744D01*
X3176646Y34390744D01*
X3031058Y34451049D01*
X2900029Y34538600D01*
X2788600Y34650029D01*
X2701049Y34781058D01*
X2640744Y34926646D01*
X2636099Y34950000D01*
X2610000Y35081207D01*
X2610000Y35238793D01*
X2640743Y35393351D01*
X2701049Y35538942D01*
X2788599Y35669970D01*
X2900030Y35781401D01*
X3031058Y35868951D01*
X3176646Y35929256D01*
X3176647Y35929256D01*
X3176649Y35929257D01*
X3331207Y35960000D01*
X3488793Y35960000D01*
X3643351Y35929257D01*
X3643351Y35929257D01*
G37*
G36*
X46823351Y35929257D02*
G01*
X46823353Y35929256D01*
X46823354Y35929256D01*
X46968942Y35868951D01*
X47099970Y35781401D01*
X47211401Y35669970D01*
X47298951Y35538942D01*
X47359257Y35393351D01*
X47390000Y35238793D01*
X47390000Y35081207D01*
X47363902Y34950000D01*
X47359256Y34926646D01*
X47298951Y34781058D01*
X47211400Y34650029D01*
X47099971Y34538600D01*
X46968942Y34451049D01*
X46823354Y34390744D01*
X46823353Y34390744D01*
X46823351Y34390743D01*
X46668793Y34360000D01*
X46511207Y34360000D01*
X46356649Y34390743D01*
X46356647Y34390744D01*
X46356646Y34390744D01*
X46211058Y34451049D01*
X46080029Y34538600D01*
X45968600Y34650029D01*
X45881049Y34781058D01*
X45820744Y34926646D01*
X45816099Y34950000D01*
X45790000Y35081207D01*
X45790000Y35238793D01*
X45820743Y35393351D01*
X45881049Y35538942D01*
X45968599Y35669970D01*
X46080030Y35781401D01*
X46211058Y35868951D01*
X46356646Y35929256D01*
X46356647Y35929256D01*
X46356649Y35929257D01*
X46511207Y35960000D01*
X46668793Y35960000D01*
X46823351Y35929257D01*
X46823351Y35929257D01*
G37*
G36*
X44283351Y35929257D02*
G01*
X44283353Y35929256D01*
X44283354Y35929256D01*
X44428942Y35868951D01*
X44559970Y35781401D01*
X44671401Y35669970D01*
X44758951Y35538942D01*
X44819257Y35393351D01*
X44850000Y35238793D01*
X44850000Y35081207D01*
X44823902Y34950000D01*
X44819256Y34926646D01*
X44758951Y34781058D01*
X44671400Y34650029D01*
X44559971Y34538600D01*
X44428942Y34451049D01*
X44283354Y34390744D01*
X44283353Y34390744D01*
X44283351Y34390743D01*
X44128793Y34360000D01*
X43971207Y34360000D01*
X43816649Y34390743D01*
X43816647Y34390744D01*
X43816646Y34390744D01*
X43671058Y34451049D01*
X43540029Y34538600D01*
X43428600Y34650029D01*
X43341049Y34781058D01*
X43280744Y34926646D01*
X43276099Y34950000D01*
X43250000Y35081207D01*
X43250000Y35238793D01*
X43280743Y35393351D01*
X43341049Y35538942D01*
X43428599Y35669970D01*
X43540030Y35781401D01*
X43671058Y35868951D01*
X43816646Y35929256D01*
X43816647Y35929256D01*
X43816649Y35929257D01*
X43971207Y35960000D01*
X44128793Y35960000D01*
X44283351Y35929257D01*
X44283351Y35929257D01*
G37*
G36*
X12700000Y34750000D02*
G01*
X11600000Y34750000D01*
X11600000Y37250000D01*
X12700000Y37250000D01*
X12700000Y34750000D01*
X12700000Y34750000D01*
G37*
G36*
X9400000Y34750000D02*
G01*
X8300000Y34750000D01*
X8300000Y37250000D01*
X9400000Y37250000D01*
X9400000Y34750000D01*
X9400000Y34750000D01*
G37*
G36*
X23850000Y35050000D02*
G01*
X22950000Y35050000D01*
X22950000Y35950000D01*
X23850000Y35950000D01*
X23850000Y35050000D01*
X23850000Y35050000D01*
G37*
G36*
X21950000Y35050000D02*
G01*
X21050000Y35050000D01*
X21050000Y35950000D01*
X21950000Y35950000D01*
X21950000Y35050000D01*
X21950000Y35050000D01*
G37*
G36*
X28950000Y35050000D02*
G01*
X28050000Y35050000D01*
X28050000Y35950000D01*
X28950000Y35950000D01*
X28950000Y35050000D01*
X28950000Y35050000D01*
G37*
G36*
X27050000Y35050000D02*
G01*
X26150000Y35050000D01*
X26150000Y35950000D01*
X27050000Y35950000D01*
X27050000Y35050000D01*
X27050000Y35050000D01*
G37*
G36*
X34000000Y36050000D02*
G01*
X33100000Y36050000D01*
X33100000Y36950000D01*
X34000000Y36950000D01*
X34000000Y36050000D01*
X34000000Y36050000D01*
G37*
G36*
X35900000Y36050000D02*
G01*
X35000000Y36050000D01*
X35000000Y36950000D01*
X35900000Y36950000D01*
X35900000Y36050000D01*
X35900000Y36050000D01*
G37*
G36*
X41700000Y36750000D02*
G01*
X40600000Y36750000D01*
X40600000Y39250000D01*
X41700000Y39250000D01*
X41700000Y36750000D01*
X41700000Y36750000D01*
G37*
G36*
X38400000Y36750000D02*
G01*
X37300000Y36750000D01*
X37300000Y39250000D01*
X38400000Y39250000D01*
X38400000Y36750000D01*
X38400000Y36750000D01*
G37*
G36*
X44283351Y38469257D02*
G01*
X44283353Y38469256D01*
X44283354Y38469256D01*
X44428942Y38408951D01*
X44559970Y38321401D01*
X44671401Y38209970D01*
X44758951Y38078942D01*
X44819257Y37933351D01*
X44850000Y37778793D01*
X44850000Y37621207D01*
X44819257Y37466649D01*
X44758951Y37321058D01*
X44671401Y37190030D01*
X44559970Y37078599D01*
X44428942Y36991049D01*
X44283354Y36930744D01*
X44283353Y36930744D01*
X44283351Y36930743D01*
X44128793Y36900000D01*
X43971207Y36900000D01*
X43816649Y36930743D01*
X43816647Y36930744D01*
X43816646Y36930744D01*
X43671058Y36991049D01*
X43540030Y37078599D01*
X43428599Y37190030D01*
X43341049Y37321058D01*
X43280743Y37466649D01*
X43250000Y37621207D01*
X43250000Y37778793D01*
X43280743Y37933351D01*
X43341049Y38078942D01*
X43428599Y38209970D01*
X43540030Y38321401D01*
X43671058Y38408951D01*
X43816646Y38469256D01*
X43816647Y38469256D01*
X43816649Y38469257D01*
X43971207Y38500000D01*
X44128793Y38500000D01*
X44283351Y38469257D01*
X44283351Y38469257D01*
G37*
G36*
X46823351Y38469257D02*
G01*
X46823353Y38469256D01*
X46823354Y38469256D01*
X46968942Y38408951D01*
X47099970Y38321401D01*
X47211401Y38209970D01*
X47298951Y38078942D01*
X47359257Y37933351D01*
X47390000Y37778793D01*
X47390000Y37621207D01*
X47359257Y37466649D01*
X47298951Y37321058D01*
X47211401Y37190030D01*
X47099970Y37078599D01*
X46968942Y36991049D01*
X46823354Y36930744D01*
X46823353Y36930744D01*
X46823351Y36930743D01*
X46668793Y36900000D01*
X46511207Y36900000D01*
X46356649Y36930743D01*
X46356647Y36930744D01*
X46356646Y36930744D01*
X46211058Y36991049D01*
X46080030Y37078599D01*
X45968599Y37190030D01*
X45881049Y37321058D01*
X45820743Y37466649D01*
X45790000Y37621207D01*
X45790000Y37778793D01*
X45820743Y37933351D01*
X45881049Y38078942D01*
X45968599Y38209970D01*
X46080030Y38321401D01*
X46211058Y38408951D01*
X46356646Y38469256D01*
X46356647Y38469256D01*
X46356649Y38469257D01*
X46511207Y38500000D01*
X46668793Y38500000D01*
X46823351Y38469257D01*
X46823351Y38469257D01*
G37*
G36*
X6183351Y38469257D02*
G01*
X6183353Y38469256D01*
X6183354Y38469256D01*
X6328942Y38408951D01*
X6459970Y38321401D01*
X6571401Y38209970D01*
X6658951Y38078942D01*
X6719257Y37933351D01*
X6750000Y37778793D01*
X6750000Y37621207D01*
X6719257Y37466649D01*
X6658951Y37321058D01*
X6571401Y37190030D01*
X6459970Y37078599D01*
X6328942Y36991049D01*
X6183354Y36930744D01*
X6183353Y36930744D01*
X6183351Y36930743D01*
X6028793Y36900000D01*
X5871207Y36900000D01*
X5716649Y36930743D01*
X5716647Y36930744D01*
X5716646Y36930744D01*
X5571058Y36991049D01*
X5440030Y37078599D01*
X5328599Y37190030D01*
X5241049Y37321058D01*
X5180743Y37466649D01*
X5150000Y37621207D01*
X5150000Y37778793D01*
X5180743Y37933351D01*
X5241049Y38078942D01*
X5328599Y38209970D01*
X5440030Y38321401D01*
X5571058Y38408951D01*
X5716646Y38469256D01*
X5716647Y38469256D01*
X5716649Y38469257D01*
X5871207Y38500000D01*
X6028793Y38500000D01*
X6183351Y38469257D01*
X6183351Y38469257D01*
G37*
G36*
X3643351Y38469257D02*
G01*
X3643353Y38469256D01*
X3643354Y38469256D01*
X3788942Y38408951D01*
X3919970Y38321401D01*
X4031401Y38209970D01*
X4118951Y38078942D01*
X4179257Y37933351D01*
X4210000Y37778793D01*
X4210000Y37621207D01*
X4179257Y37466649D01*
X4118951Y37321058D01*
X4031401Y37190030D01*
X3919970Y37078599D01*
X3788942Y36991049D01*
X3643354Y36930744D01*
X3643353Y36930744D01*
X3643351Y36930743D01*
X3488793Y36900000D01*
X3331207Y36900000D01*
X3176649Y36930743D01*
X3176647Y36930744D01*
X3176646Y36930744D01*
X3031058Y36991049D01*
X2900030Y37078599D01*
X2788599Y37190030D01*
X2701049Y37321058D01*
X2640743Y37466649D01*
X2610000Y37621207D01*
X2610000Y37778793D01*
X2640743Y37933351D01*
X2701049Y38078942D01*
X2788599Y38209970D01*
X2900030Y38321401D01*
X3031058Y38408951D01*
X3176646Y38469256D01*
X3176647Y38469256D01*
X3176649Y38469257D01*
X3331207Y38500000D01*
X3488793Y38500000D01*
X3643351Y38469257D01*
X3643351Y38469257D01*
G37*
G36*
X21950000Y37050000D02*
G01*
X21050000Y37050000D01*
X21050000Y37950000D01*
X21950000Y37950000D01*
X21950000Y37050000D01*
X21950000Y37050000D01*
G37*
G36*
X28950000Y37050000D02*
G01*
X28050000Y37050000D01*
X28050000Y37950000D01*
X28950000Y37950000D01*
X28950000Y37050000D01*
X28950000Y37050000D01*
G37*
G36*
X23850000Y37050000D02*
G01*
X22950000Y37050000D01*
X22950000Y37950000D01*
X23850000Y37950000D01*
X23850000Y37050000D01*
X23850000Y37050000D01*
G37*
G36*
X27050000Y37050000D02*
G01*
X26150000Y37050000D01*
X26150000Y37950000D01*
X27050000Y37950000D01*
X27050000Y37050000D01*
X27050000Y37050000D01*
G37*
G36*
X15000000Y37250000D02*
G01*
X14100000Y37250000D01*
X14100000Y38150000D01*
X15000000Y38150000D01*
X15000000Y37250000D01*
X15000000Y37250000D01*
G37*
G36*
X16900000Y37250000D02*
G01*
X16000000Y37250000D01*
X16000000Y38150000D01*
X16900000Y38150000D01*
X16900000Y37250000D01*
X16900000Y37250000D01*
G37*
G36*
X35900000Y38050000D02*
G01*
X35000000Y38050000D01*
X35000000Y38950000D01*
X35900000Y38950000D01*
X35900000Y38050000D01*
X35900000Y38050000D01*
G37*
G36*
X34000000Y38050000D02*
G01*
X33100000Y38050000D01*
X33100000Y38950000D01*
X34000000Y38950000D01*
X34000000Y38050000D01*
X34000000Y38050000D01*
G37*
G36*
X9400000Y38750000D02*
G01*
X8300000Y38750000D01*
X8300000Y41250000D01*
X9400000Y41250000D01*
X9400000Y38750000D01*
X9400000Y38750000D01*
G37*
G36*
X12700000Y38750000D02*
G01*
X11600000Y38750000D01*
X11600000Y41250000D01*
X12700000Y41250000D01*
X12700000Y38750000D01*
X12700000Y38750000D01*
G37*
G36*
X20050000Y39050000D02*
G01*
X19150000Y39050000D01*
X19150000Y39950000D01*
X20050000Y39950000D01*
X20050000Y39050000D01*
X20050000Y39050000D01*
G37*
G36*
X21950000Y39050000D02*
G01*
X21050000Y39050000D01*
X21050000Y39950000D01*
X21950000Y39950000D01*
X21950000Y39050000D01*
X21950000Y39050000D01*
G37*
G36*
X46823351Y41009257D02*
G01*
X46823353Y41009256D01*
X46823354Y41009256D01*
X46968942Y40948951D01*
X47099970Y40861401D01*
X47211401Y40749970D01*
X47298951Y40618942D01*
X47359257Y40473351D01*
X47390000Y40318793D01*
X47390000Y40161207D01*
X47359257Y40006649D01*
X47298951Y39861058D01*
X47211401Y39730030D01*
X47099970Y39618599D01*
X46968942Y39531049D01*
X46823354Y39470744D01*
X46823353Y39470744D01*
X46823351Y39470743D01*
X46668793Y39440000D01*
X46511207Y39440000D01*
X46356649Y39470743D01*
X46356647Y39470744D01*
X46356646Y39470744D01*
X46211058Y39531049D01*
X46080030Y39618599D01*
X45968599Y39730030D01*
X45881049Y39861058D01*
X45820743Y40006649D01*
X45790000Y40161207D01*
X45790000Y40318793D01*
X45820743Y40473351D01*
X45881049Y40618942D01*
X45968599Y40749970D01*
X46080030Y40861401D01*
X46211058Y40948951D01*
X46356646Y41009256D01*
X46356647Y41009256D01*
X46356649Y41009257D01*
X46511207Y41040000D01*
X46668793Y41040000D01*
X46823351Y41009257D01*
X46823351Y41009257D01*
G37*
G36*
X4210000Y39440000D02*
G01*
X2610000Y39440000D01*
X2610000Y41040000D01*
X4210000Y41040000D01*
X4210000Y39440000D01*
X4210000Y39440000D01*
G37*
G36*
X44283351Y41009257D02*
G01*
X44283353Y41009256D01*
X44283354Y41009256D01*
X44428942Y40948951D01*
X44559970Y40861401D01*
X44671401Y40749970D01*
X44758951Y40618942D01*
X44819257Y40473351D01*
X44850000Y40318793D01*
X44850000Y40161207D01*
X44819257Y40006649D01*
X44758951Y39861058D01*
X44671401Y39730030D01*
X44559970Y39618599D01*
X44428942Y39531049D01*
X44283354Y39470744D01*
X44283353Y39470744D01*
X44283351Y39470743D01*
X44128793Y39440000D01*
X43971207Y39440000D01*
X43816649Y39470743D01*
X43816647Y39470744D01*
X43816646Y39470744D01*
X43671058Y39531049D01*
X43540030Y39618599D01*
X43428599Y39730030D01*
X43341049Y39861058D01*
X43280743Y40006649D01*
X43250000Y40161207D01*
X43250000Y40318793D01*
X43280743Y40473351D01*
X43341049Y40618942D01*
X43428599Y40749970D01*
X43540030Y40861401D01*
X43671058Y40948951D01*
X43816646Y41009256D01*
X43816647Y41009256D01*
X43816649Y41009257D01*
X43971207Y41040000D01*
X44128793Y41040000D01*
X44283351Y41009257D01*
X44283351Y41009257D01*
G37*
G36*
X6183351Y41009257D02*
G01*
X6183353Y41009256D01*
X6183354Y41009256D01*
X6328942Y40948951D01*
X6459970Y40861401D01*
X6571401Y40749970D01*
X6658951Y40618942D01*
X6719257Y40473351D01*
X6750000Y40318793D01*
X6750000Y40161207D01*
X6719257Y40006649D01*
X6658951Y39861058D01*
X6571401Y39730030D01*
X6459970Y39618599D01*
X6328942Y39531049D01*
X6183354Y39470744D01*
X6183353Y39470744D01*
X6183351Y39470743D01*
X6028793Y39440000D01*
X5871207Y39440000D01*
X5716649Y39470743D01*
X5716647Y39470744D01*
X5716646Y39470744D01*
X5571058Y39531049D01*
X5440030Y39618599D01*
X5328599Y39730030D01*
X5241049Y39861058D01*
X5180743Y40006649D01*
X5150000Y40161207D01*
X5150000Y40318793D01*
X5180743Y40473351D01*
X5241049Y40618942D01*
X5328599Y40749970D01*
X5440030Y40861401D01*
X5571058Y40948951D01*
X5716646Y41009256D01*
X5716647Y41009256D01*
X5716649Y41009257D01*
X5871207Y41040000D01*
X6028793Y41040000D01*
X6183351Y41009257D01*
X6183351Y41009257D01*
G37*
G36*
X28950000Y39600000D02*
G01*
X28050000Y39600000D01*
X28050000Y40500000D01*
X28950000Y40500000D01*
X28950000Y39600000D01*
X28950000Y39600000D01*
G37*
G36*
X16900000Y39750000D02*
G01*
X16000000Y39750000D01*
X16000000Y40650000D01*
X16900000Y40650000D01*
X16900000Y39750000D01*
X16900000Y39750000D01*
G37*
G36*
X15000000Y39750000D02*
G01*
X14100000Y39750000D01*
X14100000Y40650000D01*
X15000000Y40650000D01*
X15000000Y39750000D01*
X15000000Y39750000D01*
G37*
G36*
X34000000Y40050000D02*
G01*
X33100000Y40050000D01*
X33100000Y40950000D01*
X34000000Y40950000D01*
X34000000Y40050000D01*
X34000000Y40050000D01*
G37*
G36*
X35900000Y40050000D02*
G01*
X35000000Y40050000D01*
X35000000Y40950000D01*
X35900000Y40950000D01*
X35900000Y40050000D01*
X35900000Y40050000D01*
G37*
G36*
X26950000Y40600000D02*
G01*
X26050000Y40600000D01*
X26050000Y41500000D01*
X26950000Y41500000D01*
X26950000Y40600000D01*
X26950000Y40600000D01*
G37*
G36*
X24950000Y40600000D02*
G01*
X24050000Y40600000D01*
X24050000Y41500000D01*
X24950000Y41500000D01*
X24950000Y40600000D01*
X24950000Y40600000D01*
G37*
G36*
X41700000Y40750000D02*
G01*
X40600000Y40750000D01*
X40600000Y43250000D01*
X41700000Y43250000D01*
X41700000Y40750000D01*
X41700000Y40750000D01*
G37*
G36*
X38400000Y40750000D02*
G01*
X37300000Y40750000D01*
X37300000Y43250000D01*
X38400000Y43250000D01*
X38400000Y40750000D01*
X38400000Y40750000D01*
G37*
G36*
X21950000Y41050000D02*
G01*
X21050000Y41050000D01*
X21050000Y41950000D01*
X21950000Y41950000D01*
X21950000Y41050000D01*
X21950000Y41050000D01*
G37*
G36*
X20050000Y41050000D02*
G01*
X19150000Y41050000D01*
X19150000Y41950000D01*
X20050000Y41950000D01*
X20050000Y41050000D01*
X20050000Y41050000D01*
G37*
G36*
X28950000Y41500000D02*
G01*
X28050000Y41500000D01*
X28050000Y42400000D01*
X28950000Y42400000D01*
X28950000Y41500000D01*
X28950000Y41500000D01*
G37*
G36*
X4404237Y49480869D02*
G01*
X4968401Y49247185D01*
X5476135Y48907928D01*
X5907928Y48476135D01*
X6247185Y47968401D01*
X6480869Y47404237D01*
X6600000Y46805323D01*
X6600000Y46194677D01*
X6480869Y45595763D01*
X6247185Y45031599D01*
X5907928Y44523865D01*
X5604761Y44220698D01*
X5592334Y44205555D01*
X5583093Y44188267D01*
X5577402Y44169508D01*
X5575481Y44149999D01*
X5577402Y44130490D01*
X5583093Y44111731D01*
X5592334Y44094443D01*
X5604770Y44079289D01*
X5619924Y44066853D01*
X5637212Y44057612D01*
X5655971Y44051921D01*
X5675480Y44050000D01*
X5950000Y44050000D01*
X5950000Y41510000D01*
X1505000Y41510000D01*
X1505000Y44050000D01*
X1505483Y44050000D01*
X1506268Y44057966D01*
X1506268Y44077570D01*
X1502444Y44096796D01*
X1494942Y44114907D01*
X1484051Y44131207D01*
X1477480Y44138457D01*
X1092072Y44523865D01*
X752815Y45031599D01*
X519131Y45595763D01*
X400000Y46194677D01*
X400000Y46805323D01*
X519131Y47404237D01*
X752815Y47968401D01*
X1092072Y48476135D01*
X1523865Y48907928D01*
X2031599Y49247185D01*
X2595763Y49480869D01*
X3194677Y49600000D01*
X3805323Y49600000D01*
X4404237Y49480869D01*
X4404237Y49480869D01*
G37*
G36*
X11195090Y43980785D02*
G01*
X11291689Y43961571D01*
X11473678Y43886189D01*
X11637463Y43776751D01*
X11776751Y43637463D01*
X11886189Y43473678D01*
X11961571Y43291689D01*
X11961571Y43291687D01*
X11989755Y43150000D01*
X12000000Y43098491D01*
X12000000Y42901509D01*
X11961571Y42708311D01*
X11886189Y42526322D01*
X11776751Y42362537D01*
X11637463Y42223249D01*
X11473678Y42113811D01*
X11291689Y42038429D01*
X11195090Y42019215D01*
X11098493Y42000000D01*
X10901507Y42000000D01*
X10804910Y42019214D01*
X10708311Y42038429D01*
X10526322Y42113811D01*
X10362537Y42223249D01*
X10223249Y42362537D01*
X10113811Y42526322D01*
X10038429Y42708311D01*
X10000000Y42901509D01*
X10000000Y43098491D01*
X10010246Y43150000D01*
X10038429Y43291687D01*
X10038429Y43291689D01*
X10113811Y43473678D01*
X10223249Y43637463D01*
X10362537Y43776751D01*
X10526322Y43886189D01*
X10708311Y43961571D01*
X10804910Y43980785D01*
X10901507Y44000000D01*
X11098493Y44000000D01*
X11195090Y43980785D01*
X11195090Y43980785D01*
G37*
G36*
X35900000Y42050000D02*
G01*
X35000000Y42050000D01*
X35000000Y42950000D01*
X35900000Y42950000D01*
X35900000Y42050000D01*
X35900000Y42050000D01*
G37*
G36*
X34000000Y42050000D02*
G01*
X33100000Y42050000D01*
X33100000Y42950000D01*
X34000000Y42950000D01*
X34000000Y42050000D01*
X34000000Y42050000D01*
G37*
G36*
X16900000Y42250000D02*
G01*
X16000000Y42250000D01*
X16000000Y43150000D01*
X16900000Y43150000D01*
X16900000Y42250000D01*
X16900000Y42250000D01*
G37*
G36*
X15000000Y42250000D02*
G01*
X14100000Y42250000D01*
X14100000Y43150000D01*
X15000000Y43150000D01*
X15000000Y42250000D01*
X15000000Y42250000D01*
G37*
G36*
X24950000Y42500000D02*
G01*
X24050000Y42500000D01*
X24050000Y43400000D01*
X24950000Y43400000D01*
X24950000Y42500000D01*
X24950000Y42500000D01*
G37*
G36*
X26950000Y42500000D02*
G01*
X26050000Y42500000D01*
X26050000Y43400000D01*
X26950000Y43400000D01*
X26950000Y42500000D01*
X26950000Y42500000D01*
G37*
G36*
X9400000Y42550000D02*
G01*
X8500000Y42550000D01*
X8500000Y43450000D01*
X9400000Y43450000D01*
X9400000Y42550000D01*
X9400000Y42550000D01*
G37*
G36*
X7500000Y42550000D02*
G01*
X6600000Y42550000D01*
X6600000Y43450000D01*
X7500000Y43450000D01*
X7500000Y42550000D01*
X7500000Y42550000D01*
G37*
G36*
X47404237Y49480869D02*
G01*
X47968401Y49247185D01*
X48476135Y48907928D01*
X48907928Y48476135D01*
X49247185Y47968401D01*
X49480869Y47404237D01*
X49600000Y46805323D01*
X49600000Y46194677D01*
X49480869Y45595763D01*
X49247185Y45031599D01*
X48907928Y44523865D01*
X48476135Y44092072D01*
X47968401Y43752815D01*
X47404237Y43519131D01*
X46805323Y43400000D01*
X46194677Y43400000D01*
X45595763Y43519131D01*
X45031599Y43752815D01*
X44523865Y44092072D01*
X44092072Y44523865D01*
X43752815Y45031599D01*
X43519131Y45595763D01*
X43400000Y46194677D01*
X43400000Y46805323D01*
X43519131Y47404237D01*
X43752815Y47968401D01*
X44092072Y48476135D01*
X44523865Y48907928D01*
X45031599Y49247185D01*
X45595763Y49480869D01*
X46194677Y49600000D01*
X46805323Y49600000D01*
X47404237Y49480869D01*
X47404237Y49480869D01*
G37*
G36*
X42310000Y44520000D02*
G01*
X40710000Y44520000D01*
X40710000Y46120000D01*
X42310000Y46120000D01*
X42310000Y44520000D01*
X42310000Y44520000D01*
G37*
G36*
X39203351Y46089257D02*
G01*
X39203353Y46089256D01*
X39203354Y46089256D01*
X39348942Y46028951D01*
X39479971Y45941400D01*
X39591400Y45829971D01*
X39678951Y45698942D01*
X39739256Y45553354D01*
X39770000Y45398791D01*
X39770000Y45241209D01*
X39739256Y45086646D01*
X39678951Y44941058D01*
X39591400Y44810029D01*
X39479971Y44698600D01*
X39348942Y44611049D01*
X39203354Y44550744D01*
X39203353Y44550744D01*
X39203351Y44550743D01*
X39048793Y44520000D01*
X38891207Y44520000D01*
X38736649Y44550743D01*
X38736647Y44550744D01*
X38736646Y44550744D01*
X38591058Y44611049D01*
X38460029Y44698600D01*
X38348600Y44810029D01*
X38261049Y44941058D01*
X38200744Y45086646D01*
X38170000Y45241209D01*
X38170000Y45398791D01*
X38200744Y45553354D01*
X38261049Y45698942D01*
X38348600Y45829971D01*
X38460029Y45941400D01*
X38591058Y46028951D01*
X38736646Y46089256D01*
X38736647Y46089256D01*
X38736649Y46089257D01*
X38891207Y46120000D01*
X39048793Y46120000D01*
X39203351Y46089257D01*
X39203351Y46089257D01*
G37*
G36*
X36663351Y46089257D02*
G01*
X36663353Y46089256D01*
X36663354Y46089256D01*
X36808942Y46028951D01*
X36939971Y45941400D01*
X37051400Y45829971D01*
X37138951Y45698942D01*
X37199256Y45553354D01*
X37230000Y45398791D01*
X37230000Y45241209D01*
X37199256Y45086646D01*
X37138951Y44941058D01*
X37051400Y44810029D01*
X36939971Y44698600D01*
X36808942Y44611049D01*
X36663354Y44550744D01*
X36663353Y44550744D01*
X36663351Y44550743D01*
X36508793Y44520000D01*
X36351207Y44520000D01*
X36196649Y44550743D01*
X36196647Y44550744D01*
X36196646Y44550744D01*
X36051058Y44611049D01*
X35920029Y44698600D01*
X35808600Y44810029D01*
X35721049Y44941058D01*
X35660744Y45086646D01*
X35630000Y45241209D01*
X35630000Y45398791D01*
X35660744Y45553354D01*
X35721049Y45698942D01*
X35808600Y45829971D01*
X35920029Y45941400D01*
X36051058Y46028951D01*
X36196646Y46089256D01*
X36196647Y46089256D01*
X36196649Y46089257D01*
X36351207Y46120000D01*
X36508793Y46120000D01*
X36663351Y46089257D01*
X36663351Y46089257D01*
G37*
G36*
X34123351Y46089257D02*
G01*
X34123353Y46089256D01*
X34123354Y46089256D01*
X34268942Y46028951D01*
X34399971Y45941400D01*
X34511400Y45829971D01*
X34598951Y45698942D01*
X34659256Y45553354D01*
X34690000Y45398791D01*
X34690000Y45241209D01*
X34659256Y45086646D01*
X34598951Y44941058D01*
X34511400Y44810029D01*
X34399971Y44698600D01*
X34268942Y44611049D01*
X34123354Y44550744D01*
X34123353Y44550744D01*
X34123351Y44550743D01*
X33968793Y44520000D01*
X33811207Y44520000D01*
X33656649Y44550743D01*
X33656647Y44550744D01*
X33656646Y44550744D01*
X33511058Y44611049D01*
X33380029Y44698600D01*
X33268600Y44810029D01*
X33181049Y44941058D01*
X33120744Y45086646D01*
X33090000Y45241209D01*
X33090000Y45398791D01*
X33120744Y45553354D01*
X33181049Y45698942D01*
X33268600Y45829971D01*
X33380029Y45941400D01*
X33511058Y46028951D01*
X33656646Y46089256D01*
X33656647Y46089256D01*
X33656649Y46089257D01*
X33811207Y46120000D01*
X33968793Y46120000D01*
X34123351Y46089257D01*
X34123351Y46089257D01*
G37*
G36*
X31583351Y46089257D02*
G01*
X31583353Y46089256D01*
X31583354Y46089256D01*
X31728942Y46028951D01*
X31859971Y45941400D01*
X31971400Y45829971D01*
X32058951Y45698942D01*
X32119256Y45553354D01*
X32150000Y45398791D01*
X32150000Y45241209D01*
X32119256Y45086646D01*
X32058951Y44941058D01*
X31971400Y44810029D01*
X31859971Y44698600D01*
X31728942Y44611049D01*
X31583354Y44550744D01*
X31583353Y44550744D01*
X31583351Y44550743D01*
X31428793Y44520000D01*
X31271207Y44520000D01*
X31116649Y44550743D01*
X31116647Y44550744D01*
X31116646Y44550744D01*
X30971058Y44611049D01*
X30840029Y44698600D01*
X30728600Y44810029D01*
X30641049Y44941058D01*
X30580744Y45086646D01*
X30550000Y45241209D01*
X30550000Y45398791D01*
X30580744Y45553354D01*
X30641049Y45698942D01*
X30728600Y45829971D01*
X30840029Y45941400D01*
X30971058Y46028951D01*
X31116646Y46089256D01*
X31116647Y46089256D01*
X31116649Y46089257D01*
X31271207Y46120000D01*
X31428793Y46120000D01*
X31583351Y46089257D01*
X31583351Y46089257D01*
G37*
G36*
X16343351Y46089257D02*
G01*
X16343353Y46089256D01*
X16343354Y46089256D01*
X16488942Y46028951D01*
X16619971Y45941400D01*
X16731400Y45829971D01*
X16818951Y45698942D01*
X16879256Y45553354D01*
X16910000Y45398791D01*
X16910000Y45241209D01*
X16879256Y45086646D01*
X16818951Y44941058D01*
X16731400Y44810029D01*
X16619971Y44698600D01*
X16488942Y44611049D01*
X16343354Y44550744D01*
X16343353Y44550744D01*
X16343351Y44550743D01*
X16188793Y44520000D01*
X16031207Y44520000D01*
X15876649Y44550743D01*
X15876647Y44550744D01*
X15876646Y44550744D01*
X15731058Y44611049D01*
X15600029Y44698600D01*
X15488600Y44810029D01*
X15401049Y44941058D01*
X15340744Y45086646D01*
X15310000Y45241209D01*
X15310000Y45398791D01*
X15340744Y45553354D01*
X15401049Y45698942D01*
X15488600Y45829971D01*
X15600029Y45941400D01*
X15731058Y46028951D01*
X15876646Y46089256D01*
X15876647Y46089256D01*
X15876649Y46089257D01*
X16031207Y46120000D01*
X16188793Y46120000D01*
X16343351Y46089257D01*
X16343351Y46089257D01*
G37*
G36*
X8723351Y46089257D02*
G01*
X8723353Y46089256D01*
X8723354Y46089256D01*
X8868942Y46028951D01*
X8999971Y45941400D01*
X9111400Y45829971D01*
X9198951Y45698942D01*
X9259256Y45553354D01*
X9290000Y45398791D01*
X9290000Y45241209D01*
X9259256Y45086646D01*
X9198951Y44941058D01*
X9111400Y44810029D01*
X8999971Y44698600D01*
X8868942Y44611049D01*
X8723354Y44550744D01*
X8723353Y44550744D01*
X8723351Y44550743D01*
X8568793Y44520000D01*
X8411207Y44520000D01*
X8256649Y44550743D01*
X8256647Y44550744D01*
X8256646Y44550744D01*
X8111058Y44611049D01*
X7980029Y44698600D01*
X7868600Y44810029D01*
X7781049Y44941058D01*
X7720744Y45086646D01*
X7690000Y45241209D01*
X7690000Y45398791D01*
X7720744Y45553354D01*
X7781049Y45698942D01*
X7868600Y45829971D01*
X7980029Y45941400D01*
X8111058Y46028951D01*
X8256646Y46089256D01*
X8256647Y46089256D01*
X8256649Y46089257D01*
X8411207Y46120000D01*
X8568793Y46120000D01*
X8723351Y46089257D01*
X8723351Y46089257D01*
G37*
G36*
X11263351Y46089257D02*
G01*
X11263353Y46089256D01*
X11263354Y46089256D01*
X11408942Y46028951D01*
X11539971Y45941400D01*
X11651400Y45829971D01*
X11738951Y45698942D01*
X11799256Y45553354D01*
X11830000Y45398791D01*
X11830000Y45241209D01*
X11799256Y45086646D01*
X11738951Y44941058D01*
X11651400Y44810029D01*
X11539971Y44698600D01*
X11408942Y44611049D01*
X11263354Y44550744D01*
X11263353Y44550744D01*
X11263351Y44550743D01*
X11108793Y44520000D01*
X10951207Y44520000D01*
X10796649Y44550743D01*
X10796647Y44550744D01*
X10796646Y44550744D01*
X10651058Y44611049D01*
X10520029Y44698600D01*
X10408600Y44810029D01*
X10321049Y44941058D01*
X10260744Y45086646D01*
X10230000Y45241209D01*
X10230000Y45398791D01*
X10260744Y45553354D01*
X10321049Y45698942D01*
X10408600Y45829971D01*
X10520029Y45941400D01*
X10651058Y46028951D01*
X10796646Y46089256D01*
X10796647Y46089256D01*
X10796649Y46089257D01*
X10951207Y46120000D01*
X11108793Y46120000D01*
X11263351Y46089257D01*
X11263351Y46089257D01*
G37*
G36*
X13803351Y46089257D02*
G01*
X13803353Y46089256D01*
X13803354Y46089256D01*
X13948942Y46028951D01*
X14079971Y45941400D01*
X14191400Y45829971D01*
X14278951Y45698942D01*
X14339256Y45553354D01*
X14370000Y45398791D01*
X14370000Y45241209D01*
X14339256Y45086646D01*
X14278951Y44941058D01*
X14191400Y44810029D01*
X14079971Y44698600D01*
X13948942Y44611049D01*
X13803354Y44550744D01*
X13803353Y44550744D01*
X13803351Y44550743D01*
X13648793Y44520000D01*
X13491207Y44520000D01*
X13336649Y44550743D01*
X13336647Y44550744D01*
X13336646Y44550744D01*
X13191058Y44611049D01*
X13060029Y44698600D01*
X12948600Y44810029D01*
X12861049Y44941058D01*
X12800744Y45086646D01*
X12770000Y45241209D01*
X12770000Y45398791D01*
X12800744Y45553354D01*
X12861049Y45698942D01*
X12948600Y45829971D01*
X13060029Y45941400D01*
X13191058Y46028951D01*
X13336646Y46089256D01*
X13336647Y46089256D01*
X13336649Y46089257D01*
X13491207Y46120000D01*
X13648793Y46120000D01*
X13803351Y46089257D01*
X13803351Y46089257D01*
G37*
G36*
X19450000Y44520000D02*
G01*
X17850000Y44520000D01*
X17850000Y46120000D01*
X19450000Y46120000D01*
X19450000Y44520000D01*
X19450000Y44520000D01*
G37*
G36*
X25450000Y45600000D02*
G01*
X24550000Y45600000D01*
X24550000Y46500000D01*
X25450000Y46500000D01*
X25450000Y45600000D01*
X25450000Y45600000D01*
G37*
G36*
X21450000Y45600000D02*
G01*
X20550000Y45600000D01*
X20550000Y46500000D01*
X21450000Y46500000D01*
X21450000Y45600000D01*
X21450000Y45600000D01*
G37*
G36*
X29450000Y45600000D02*
G01*
X28550000Y45600000D01*
X28550000Y46500000D01*
X29450000Y46500000D01*
X29450000Y45600000D01*
X29450000Y45600000D01*
G37*
G36*
X27450000Y45600000D02*
G01*
X26550000Y45600000D01*
X26550000Y46500000D01*
X27450000Y46500000D01*
X27450000Y45600000D01*
X27450000Y45600000D01*
G37*
G36*
X23450000Y45600000D02*
G01*
X22550000Y45600000D01*
X22550000Y46500000D01*
X23450000Y46500000D01*
X23450000Y45600000D01*
X23450000Y45600000D01*
G37*
G36*
X39203351Y48629257D02*
G01*
X39203353Y48629256D01*
X39203354Y48629256D01*
X39348942Y48568951D01*
X39479970Y48481401D01*
X39591401Y48369970D01*
X39678951Y48238942D01*
X39739257Y48093351D01*
X39770000Y47938793D01*
X39770000Y47781209D01*
X39739256Y47626646D01*
X39678951Y47481058D01*
X39591400Y47350029D01*
X39479971Y47238600D01*
X39348942Y47151049D01*
X39203354Y47090744D01*
X39203353Y47090744D01*
X39203351Y47090743D01*
X39048793Y47060000D01*
X38891207Y47060000D01*
X38736649Y47090743D01*
X38736647Y47090744D01*
X38736646Y47090744D01*
X38591058Y47151049D01*
X38460029Y47238600D01*
X38348600Y47350029D01*
X38261049Y47481058D01*
X38200744Y47626646D01*
X38170000Y47781209D01*
X38170000Y47938793D01*
X38200743Y48093351D01*
X38261049Y48238942D01*
X38348599Y48369970D01*
X38460030Y48481401D01*
X38591058Y48568951D01*
X38736646Y48629256D01*
X38736647Y48629256D01*
X38736649Y48629257D01*
X38891207Y48660000D01*
X39048793Y48660000D01*
X39203351Y48629257D01*
X39203351Y48629257D01*
G37*
G36*
X36663351Y48629257D02*
G01*
X36663353Y48629256D01*
X36663354Y48629256D01*
X36808942Y48568951D01*
X36939970Y48481401D01*
X37051401Y48369970D01*
X37138951Y48238942D01*
X37199257Y48093351D01*
X37230000Y47938793D01*
X37230000Y47781209D01*
X37199256Y47626646D01*
X37138951Y47481058D01*
X37051400Y47350029D01*
X36939971Y47238600D01*
X36808942Y47151049D01*
X36663354Y47090744D01*
X36663353Y47090744D01*
X36663351Y47090743D01*
X36508793Y47060000D01*
X36351207Y47060000D01*
X36196649Y47090743D01*
X36196647Y47090744D01*
X36196646Y47090744D01*
X36051058Y47151049D01*
X35920029Y47238600D01*
X35808600Y47350029D01*
X35721049Y47481058D01*
X35660744Y47626646D01*
X35630000Y47781209D01*
X35630000Y47938793D01*
X35660743Y48093351D01*
X35721049Y48238942D01*
X35808599Y48369970D01*
X35920030Y48481401D01*
X36051058Y48568951D01*
X36196646Y48629256D01*
X36196647Y48629256D01*
X36196649Y48629257D01*
X36351207Y48660000D01*
X36508793Y48660000D01*
X36663351Y48629257D01*
X36663351Y48629257D01*
G37*
G36*
X34123351Y48629257D02*
G01*
X34123353Y48629256D01*
X34123354Y48629256D01*
X34268942Y48568951D01*
X34399970Y48481401D01*
X34511401Y48369970D01*
X34598951Y48238942D01*
X34659257Y48093351D01*
X34690000Y47938793D01*
X34690000Y47781209D01*
X34659256Y47626646D01*
X34598951Y47481058D01*
X34511400Y47350029D01*
X34399971Y47238600D01*
X34268942Y47151049D01*
X34123354Y47090744D01*
X34123353Y47090744D01*
X34123351Y47090743D01*
X33968793Y47060000D01*
X33811207Y47060000D01*
X33656649Y47090743D01*
X33656647Y47090744D01*
X33656646Y47090744D01*
X33511058Y47151049D01*
X33380029Y47238600D01*
X33268600Y47350029D01*
X33181049Y47481058D01*
X33120744Y47626646D01*
X33090000Y47781209D01*
X33090000Y47938793D01*
X33120743Y48093351D01*
X33181049Y48238942D01*
X33268599Y48369970D01*
X33380030Y48481401D01*
X33511058Y48568951D01*
X33656646Y48629256D01*
X33656647Y48629256D01*
X33656649Y48629257D01*
X33811207Y48660000D01*
X33968793Y48660000D01*
X34123351Y48629257D01*
X34123351Y48629257D01*
G37*
G36*
X31583351Y48629257D02*
G01*
X31583353Y48629256D01*
X31583354Y48629256D01*
X31728942Y48568951D01*
X31859970Y48481401D01*
X31971401Y48369970D01*
X32058951Y48238942D01*
X32119257Y48093351D01*
X32150000Y47938793D01*
X32150000Y47781209D01*
X32119256Y47626646D01*
X32058951Y47481058D01*
X31971400Y47350029D01*
X31859971Y47238600D01*
X31728942Y47151049D01*
X31583354Y47090744D01*
X31583353Y47090744D01*
X31583351Y47090743D01*
X31428793Y47060000D01*
X31271207Y47060000D01*
X31116649Y47090743D01*
X31116647Y47090744D01*
X31116646Y47090744D01*
X30971058Y47151049D01*
X30840029Y47238600D01*
X30728600Y47350029D01*
X30641049Y47481058D01*
X30580744Y47626646D01*
X30550000Y47781209D01*
X30550000Y47938793D01*
X30580743Y48093351D01*
X30641049Y48238942D01*
X30728599Y48369970D01*
X30840030Y48481401D01*
X30971058Y48568951D01*
X31116646Y48629256D01*
X31116647Y48629256D01*
X31116649Y48629257D01*
X31271207Y48660000D01*
X31428793Y48660000D01*
X31583351Y48629257D01*
X31583351Y48629257D01*
G37*
G36*
X11263351Y48629257D02*
G01*
X11263353Y48629256D01*
X11263354Y48629256D01*
X11408942Y48568951D01*
X11539970Y48481401D01*
X11651401Y48369970D01*
X11738951Y48238942D01*
X11799257Y48093351D01*
X11830000Y47938793D01*
X11830000Y47781209D01*
X11799256Y47626646D01*
X11738951Y47481058D01*
X11651400Y47350029D01*
X11539971Y47238600D01*
X11408942Y47151049D01*
X11263354Y47090744D01*
X11263353Y47090744D01*
X11263351Y47090743D01*
X11108793Y47060000D01*
X10951207Y47060000D01*
X10796649Y47090743D01*
X10796647Y47090744D01*
X10796646Y47090744D01*
X10651058Y47151049D01*
X10520029Y47238600D01*
X10408600Y47350029D01*
X10321049Y47481058D01*
X10260744Y47626646D01*
X10230000Y47781209D01*
X10230000Y47938793D01*
X10260743Y48093351D01*
X10321049Y48238942D01*
X10408599Y48369970D01*
X10520030Y48481401D01*
X10651058Y48568951D01*
X10796646Y48629256D01*
X10796647Y48629256D01*
X10796649Y48629257D01*
X10951207Y48660000D01*
X11108793Y48660000D01*
X11263351Y48629257D01*
X11263351Y48629257D01*
G37*
G36*
X13803351Y48629257D02*
G01*
X13803353Y48629256D01*
X13803354Y48629256D01*
X13948942Y48568951D01*
X14079970Y48481401D01*
X14191401Y48369970D01*
X14278951Y48238942D01*
X14339257Y48093351D01*
X14370000Y47938793D01*
X14370000Y47781209D01*
X14339256Y47626646D01*
X14278951Y47481058D01*
X14191400Y47350029D01*
X14079971Y47238600D01*
X13948942Y47151049D01*
X13803354Y47090744D01*
X13803353Y47090744D01*
X13803351Y47090743D01*
X13648793Y47060000D01*
X13491207Y47060000D01*
X13336649Y47090743D01*
X13336647Y47090744D01*
X13336646Y47090744D01*
X13191058Y47151049D01*
X13060029Y47238600D01*
X12948600Y47350029D01*
X12861049Y47481058D01*
X12800744Y47626646D01*
X12770000Y47781209D01*
X12770000Y47938793D01*
X12800743Y48093351D01*
X12861049Y48238942D01*
X12948599Y48369970D01*
X13060030Y48481401D01*
X13191058Y48568951D01*
X13336646Y48629256D01*
X13336647Y48629256D01*
X13336649Y48629257D01*
X13491207Y48660000D01*
X13648793Y48660000D01*
X13803351Y48629257D01*
X13803351Y48629257D01*
G37*
G36*
X19450000Y47060000D02*
G01*
X17850000Y47060000D01*
X17850000Y48660000D01*
X19450000Y48660000D01*
X19450000Y47060000D01*
X19450000Y47060000D01*
G37*
G36*
X16343351Y48629257D02*
G01*
X16343353Y48629256D01*
X16343354Y48629256D01*
X16488942Y48568951D01*
X16619970Y48481401D01*
X16731401Y48369970D01*
X16818951Y48238942D01*
X16879257Y48093351D01*
X16910000Y47938793D01*
X16910000Y47781209D01*
X16879256Y47626646D01*
X16818951Y47481058D01*
X16731400Y47350029D01*
X16619971Y47238600D01*
X16488942Y47151049D01*
X16343354Y47090744D01*
X16343353Y47090744D01*
X16343351Y47090743D01*
X16188793Y47060000D01*
X16031207Y47060000D01*
X15876649Y47090743D01*
X15876647Y47090744D01*
X15876646Y47090744D01*
X15731058Y47151049D01*
X15600029Y47238600D01*
X15488600Y47350029D01*
X15401049Y47481058D01*
X15340744Y47626646D01*
X15310000Y47781209D01*
X15310000Y47938793D01*
X15340743Y48093351D01*
X15401049Y48238942D01*
X15488599Y48369970D01*
X15600030Y48481401D01*
X15731058Y48568951D01*
X15876646Y48629256D01*
X15876647Y48629256D01*
X15876649Y48629257D01*
X16031207Y48660000D01*
X16188793Y48660000D01*
X16343351Y48629257D01*
X16343351Y48629257D01*
G37*
G36*
X42310000Y47060000D02*
G01*
X40710000Y47060000D01*
X40710000Y48660000D01*
X42310000Y48660000D01*
X42310000Y47060000D01*
X42310000Y47060000D01*
G37*
G36*
X8723351Y48629257D02*
G01*
X8723353Y48629256D01*
X8723354Y48629256D01*
X8868942Y48568951D01*
X8999970Y48481401D01*
X9111401Y48369970D01*
X9198951Y48238942D01*
X9259257Y48093351D01*
X9290000Y47938793D01*
X9290000Y47781209D01*
X9259256Y47626646D01*
X9198951Y47481058D01*
X9111400Y47350029D01*
X8999971Y47238600D01*
X8868942Y47151049D01*
X8723354Y47090744D01*
X8723353Y47090744D01*
X8723351Y47090743D01*
X8568793Y47060000D01*
X8411207Y47060000D01*
X8256649Y47090743D01*
X8256647Y47090744D01*
X8256646Y47090744D01*
X8111058Y47151049D01*
X7980029Y47238600D01*
X7868600Y47350029D01*
X7781049Y47481058D01*
X7720744Y47626646D01*
X7690000Y47781209D01*
X7690000Y47938793D01*
X7720743Y48093351D01*
X7781049Y48238942D01*
X7868599Y48369970D01*
X7980030Y48481401D01*
X8111058Y48568951D01*
X8256646Y48629256D01*
X8256647Y48629256D01*
X8256649Y48629257D01*
X8411207Y48660000D01*
X8568793Y48660000D01*
X8723351Y48629257D01*
X8723351Y48629257D01*
G37*
G36*
X21450000Y47500000D02*
G01*
X20550000Y47500000D01*
X20550000Y48400000D01*
X21450000Y48400000D01*
X21450000Y47500000D01*
X21450000Y47500000D01*
G37*
G36*
X23450000Y47500000D02*
G01*
X22550000Y47500000D01*
X22550000Y48400000D01*
X23450000Y48400000D01*
X23450000Y47500000D01*
X23450000Y47500000D01*
G37*
G36*
X25450000Y47500000D02*
G01*
X24550000Y47500000D01*
X24550000Y48400000D01*
X25450000Y48400000D01*
X25450000Y47500000D01*
X25450000Y47500000D01*
G37*
G36*
X27450000Y47500000D02*
G01*
X26550000Y47500000D01*
X26550000Y48400000D01*
X27450000Y48400000D01*
X27450000Y47500000D01*
X27450000Y47500000D01*
G37*
G36*
X29450000Y47500000D02*
G01*
X28550000Y47500000D01*
X28550000Y48400000D01*
X29450000Y48400000D01*
X29450000Y47500000D01*
X29450000Y47500000D01*
G37*
M02*
