G04 #@! TF.GenerationSoftware,KiCad,Pcbnew,(5.1.0)-1*
G04 #@! TF.CreationDate,2019-04-02T21:11:50+01:00*
G04 #@! TF.ProjectId,uCODEC-1.0,75434f44-4543-42d3-912e-302e6b696361,1.0*
G04 #@! TF.SameCoordinates,PX7de2900PY7365040*
G04 #@! TF.FileFunction,Paste,Top*
G04 #@! TF.FilePolarity,Positive*
%FSLAX46Y46*%
G04 Gerber Fmt 4.6, Leading zero omitted, Abs format (unit mm)*
G04 Created by KiCad (PCBNEW (5.1.0)-1) date 2019-04-02 21:11:50*
%MOMM*%
%LPD*%
G04 APERTURE LIST*
%ADD10C,0.100000*%
%ADD11C,1.000000*%
%ADD12R,2.150000X0.550000*%
%ADD13R,2.200000X3.600000*%
%ADD14R,1.500000X4.000000*%
%ADD15R,1.200000X1.400000*%
%ADD16R,0.900000X0.900000*%
%ADD17R,1.100000X2.500000*%
%ADD18R,3.000000X1.200000*%
%ADD19R,1.200000X0.300000*%
%ADD20R,0.300000X1.200000*%
%ADD21R,1.300000X0.900000*%
%ADD22C,1.500000*%
%ADD23R,1.200000X2.000000*%
%ADD24R,3.600000X2.000000*%
G04 APERTURE END LIST*
D10*
X0Y50000000D02*
X0Y0D01*
X50000000Y50000000D02*
X0Y50000000D01*
X50000000Y0D02*
X50000000Y50000000D01*
X0Y0D02*
X50000000Y0D01*
D11*
X11000000Y43000000D03*
X8000000Y2000000D03*
X42000000Y2000000D03*
D12*
X19888500Y11230000D03*
X19888500Y13770000D03*
X19888500Y15040000D03*
X19888500Y9960000D03*
X19888500Y12500000D03*
D13*
X26149600Y12500000D03*
D14*
X24000000Y25300000D03*
X24000000Y19700000D03*
D15*
X40950000Y21400000D03*
X40950000Y23600000D03*
X39250000Y23600000D03*
X39250000Y21400000D03*
D16*
X46450000Y20000000D03*
X44550000Y20000000D03*
X30000000Y16950000D03*
X30000000Y15050000D03*
X35000000Y20050000D03*
X35000000Y21950000D03*
D17*
X40650000Y11500000D03*
X37350000Y11500000D03*
X37350000Y16500000D03*
X40650000Y16500000D03*
D11*
X30700000Y43200000D03*
X29300000Y44700000D03*
D16*
X23500000Y2050000D03*
X23500000Y3950000D03*
D17*
X37850000Y37500000D03*
X41150000Y37500000D03*
X12150000Y40000000D03*
X8850000Y40000000D03*
D18*
X12100000Y22500000D03*
X16100000Y22500000D03*
D16*
X27000000Y47950000D03*
X27000000Y46050000D03*
X30000000Y21950000D03*
X30000000Y20050000D03*
X35450000Y35000000D03*
X33550000Y35000000D03*
X14550000Y40000000D03*
X16450000Y40000000D03*
X35450000Y37500000D03*
X33550000Y37500000D03*
X44550000Y30000000D03*
X46450000Y30000000D03*
X33550000Y40000000D03*
X35450000Y40000000D03*
X35450000Y32500000D03*
X33550000Y32500000D03*
X14550000Y31500000D03*
X16450000Y31500000D03*
X33550000Y42500000D03*
X35450000Y42500000D03*
X35450000Y30000000D03*
X33550000Y30000000D03*
X16450000Y42500000D03*
X14550000Y42500000D03*
X16450000Y37500000D03*
X14550000Y37500000D03*
X16450000Y34000000D03*
X14550000Y34000000D03*
X16450000Y29000000D03*
X14550000Y29000000D03*
X8950000Y43000000D03*
X7050000Y43000000D03*
X5450000Y30000000D03*
X3550000Y30000000D03*
D17*
X12150000Y32000000D03*
X8850000Y32000000D03*
X8850000Y28000000D03*
X12150000Y28000000D03*
X37850000Y29500000D03*
X41150000Y29500000D03*
X41150000Y33500000D03*
X37850000Y33500000D03*
X41150000Y41500000D03*
X37850000Y41500000D03*
X8850000Y36000000D03*
X12150000Y36000000D03*
D16*
X18000000Y7950000D03*
X18000000Y6050000D03*
X2500000Y24050000D03*
X2500000Y25950000D03*
D19*
X30750000Y33750001D03*
X30750000Y34250000D03*
X30750000Y34750000D03*
X30750000Y35250000D03*
X30750000Y35750000D03*
X30750000Y36250001D03*
X30750000Y36750000D03*
X30750000Y37250000D03*
X30750000Y37750000D03*
X30750000Y38250000D03*
X30750000Y38749999D03*
X30750000Y39250000D03*
X30750000Y39750000D03*
X30750000Y40250000D03*
X30750000Y40750000D03*
X30750000Y41249999D03*
D20*
X28749999Y43250000D03*
X28250000Y43250000D03*
X27750000Y43250000D03*
X27250000Y43250000D03*
X26750000Y43250000D03*
X26249999Y43250000D03*
X25750000Y43250000D03*
X25250000Y43250000D03*
X24750000Y43250000D03*
X24250000Y43250000D03*
X23750001Y43250000D03*
X23250000Y43250000D03*
X22750000Y43250000D03*
X22250000Y43250000D03*
X21750000Y43250000D03*
X21250001Y43250000D03*
D19*
X19250000Y41249999D03*
X19250000Y40750000D03*
X19250000Y40250000D03*
X19250000Y39750000D03*
X19250000Y39250000D03*
X19250000Y38749999D03*
X19250000Y38250000D03*
X19250000Y37750000D03*
X19250000Y37250000D03*
X19250000Y36750000D03*
X19250000Y36250001D03*
X19250000Y35750000D03*
X19250000Y35250000D03*
X19250000Y34750000D03*
X19250000Y34250000D03*
X19250000Y33750001D03*
D20*
X21250001Y31750000D03*
X21750000Y31750000D03*
X22250000Y31750000D03*
X22750000Y31750000D03*
X23250000Y31750000D03*
X23750001Y31750000D03*
X24250000Y31750000D03*
X24750000Y31750000D03*
X25250000Y31750000D03*
X25750000Y31750000D03*
X26249999Y31750000D03*
X26750000Y31750000D03*
X27250000Y31750000D03*
X27750000Y31750000D03*
X28250000Y31750000D03*
X28749999Y31750000D03*
D16*
X21950000Y29000000D03*
X20050000Y29000000D03*
X16500000Y10550000D03*
X16500000Y12450000D03*
X20950000Y17000000D03*
X19050000Y17000000D03*
X30000000Y10550000D03*
X30000000Y12450000D03*
X33000000Y21950000D03*
X33000000Y20050000D03*
D21*
X16500000Y14900000D03*
X16500000Y17100000D03*
D16*
X8950000Y24000000D03*
X7050000Y24000000D03*
X10550000Y18500000D03*
X12450000Y18500000D03*
D21*
X13000000Y16100000D03*
X13000000Y13900000D03*
D16*
X10000000Y15950000D03*
X10000000Y14050000D03*
X5000000Y24050000D03*
X5000000Y25950000D03*
D18*
X6500000Y10000000D03*
X2500000Y10000000D03*
D16*
X44550001Y25000000D03*
X46449999Y25000000D03*
X25000000Y46050000D03*
X25000000Y47950000D03*
X37000000Y2050000D03*
X37000000Y3950000D03*
X44550000Y27500000D03*
X46450000Y27500000D03*
X23000000Y46050000D03*
X23000000Y47950000D03*
X21000000Y46050000D03*
X21000000Y47950000D03*
X29000000Y47950000D03*
X29000000Y46050000D03*
X34450000Y12500000D03*
X32550000Y12500000D03*
X34450000Y17500000D03*
X32550000Y17500000D03*
X34450000Y10000000D03*
X32550000Y10000000D03*
X34450000Y15000000D03*
X32550000Y15000000D03*
X39500000Y3950000D03*
X39500000Y2050000D03*
X46450000Y22500000D03*
X44550000Y22500000D03*
X40950000Y26000000D03*
X39050000Y26000000D03*
D22*
X6500000Y27500000D03*
D16*
X34000000Y26450000D03*
X34000000Y24550000D03*
X31450000Y27000000D03*
X29550000Y27000000D03*
X31450000Y24500000D03*
X29550000Y24500000D03*
X19450000Y27000000D03*
X17550000Y27000000D03*
D23*
X2714000Y14198000D03*
X7286000Y14198000D03*
X5000000Y14198000D03*
D24*
X5000000Y20802000D03*
M02*
