G04 #@! TF.GenerationSoftware,KiCad,Pcbnew,(5.1.0)-1*
G04 #@! TF.CreationDate,2019-04-02T21:11:50+01:00*
G04 #@! TF.ProjectId,uCODEC-1.0,75434f44-4543-42d3-912e-302e6b696361,1.0*
G04 #@! TF.SameCoordinates,PX7de2900PY7365040*
G04 #@! TF.FileFunction,Copper,L3,Inr*
G04 #@! TF.FilePolarity,Positive*
%FSLAX46Y46*%
G04 Gerber Fmt 4.6, Leading zero omitted, Abs format (unit mm)*
G04 Created by KiCad (PCBNEW (5.1.0)-1) date 2019-04-02 21:11:50*
%MOMM*%
%LPD*%
G04 APERTURE LIST*
%ADD10C,0.100000*%
%ADD11C,0.200000*%
%ADD12R,1.600000X1.600000*%
%ADD13C,1.600000*%
%ADD14C,1.500000*%
%ADD15O,3.200000X1.600000*%
%ADD16C,0.600000*%
%ADD17C,0.500000*%
%ADD18C,1.000000*%
G04 APERTURE END LIST*
D10*
X0Y50000000D02*
X0Y0D01*
X50000000Y50000000D02*
X0Y50000000D01*
X50000000Y0D02*
X50000000Y50000000D01*
X0Y0D02*
X50000000Y0D01*
D11*
X4533333Y42997620D02*
X3914285Y42997620D01*
X4247619Y42616667D01*
X4104761Y42616667D01*
X4009523Y42569048D01*
X3961904Y42521429D01*
X3914285Y42426191D01*
X3914285Y42188096D01*
X3961904Y42092858D01*
X4009523Y42045239D01*
X4104761Y41997620D01*
X4390476Y41997620D01*
X4485714Y42045239D01*
X4533333Y42092858D01*
D12*
X3410000Y40240000D03*
D13*
X5950000Y40240000D03*
X3410000Y37700000D03*
X5950000Y37700000D03*
X3410000Y35160000D03*
X5950000Y35160000D03*
X3410000Y32620000D03*
X5950000Y32620000D03*
X44050000Y40240000D03*
X46590000Y40240000D03*
X44050000Y37700000D03*
X46590000Y37700000D03*
X44050000Y35160000D03*
X46590000Y35160000D03*
X44050000Y32620000D03*
D12*
X46590000Y32620000D03*
X46590000Y9760000D03*
D13*
X44050000Y9760000D03*
X46590000Y12300000D03*
X44050000Y12300000D03*
X46590000Y14840000D03*
X44050000Y14840000D03*
X46590000Y17380000D03*
X44050000Y17380000D03*
X16110000Y45320000D03*
D12*
X18650000Y45320000D03*
D13*
X13570000Y45320000D03*
X11030000Y45320000D03*
X8490000Y45320000D03*
X31350000Y45320000D03*
X33890000Y45320000D03*
X36430000Y45320000D03*
D12*
X41510000Y45320000D03*
D13*
X38970000Y45320000D03*
X33890000Y4680000D03*
X31350000Y4680000D03*
D12*
X26270000Y4680000D03*
D13*
X28810000Y4680000D03*
X38970000Y47860000D03*
D12*
X41510000Y47860000D03*
D13*
X36430000Y47860000D03*
X33890000Y47860000D03*
X31350000Y47860000D03*
X28810000Y2140000D03*
D12*
X26270000Y2140000D03*
D13*
X31350000Y2140000D03*
X33890000Y2140000D03*
X16110000Y47860000D03*
D12*
X18650000Y47860000D03*
D13*
X13570000Y47860000D03*
X11030000Y47860000D03*
X8490000Y47860000D03*
X36430000Y7220000D03*
D12*
X38970000Y7220000D03*
D13*
X33890000Y7220000D03*
X31350000Y7220000D03*
D14*
X6500000Y27500000D03*
D15*
X10395000Y4680000D03*
D13*
X13570000Y4680000D03*
D16*
X3490000Y7031500D03*
X1077000Y7031500D03*
X10411500Y6587000D03*
X11919000Y2775000D03*
X49130000Y42780000D03*
X49130000Y32620000D03*
X49130000Y5950000D03*
X5950000Y870000D03*
X37700000Y870000D03*
X44050000Y870000D03*
X870000Y44050000D03*
X5950000Y49130000D03*
X870000Y37700000D03*
X27540000Y870000D03*
X29481930Y35223853D03*
X20424558Y35782523D03*
X20549964Y33900000D03*
X32100000Y38700000D03*
X18000000Y42500000D03*
X30400000Y32500000D03*
X25200000Y44700000D03*
X49200010Y21172181D03*
X49200000Y26400000D03*
X22500000Y900000D03*
X24500000Y39800000D03*
X26600000Y34300000D03*
X23400000Y34300000D03*
X49130000Y37700000D03*
X10000000Y17000000D03*
X12000000Y24000000D03*
X12000000Y21000000D03*
X11000000Y20000000D03*
X11000000Y25500000D03*
X1200000Y14200000D03*
X1200000Y15200000D03*
X1200000Y13100000D03*
X1100000Y8400000D03*
X5300000Y7000000D03*
X15100000Y2800000D03*
X15000000Y11600000D03*
X14200000Y10800000D03*
X23200000Y11800000D03*
X23200000Y14500000D03*
X27300000Y16100000D03*
X24700000Y9400000D03*
X23400000Y8200000D03*
X24600000Y4500000D03*
X25400000Y7500000D03*
X900000Y20500000D03*
X5000000Y27200000D03*
X2500000Y27200000D03*
X3800000Y27200000D03*
X13000000Y17200000D03*
X17200000Y18500000D03*
X17500000Y17100000D03*
X22300000Y19500000D03*
X27300000Y19600000D03*
X27300000Y18600000D03*
X37200000Y18600000D03*
X37300000Y23100000D03*
X27200000Y23100000D03*
X17300000Y24100000D03*
X8500000Y16100000D03*
X8900000Y12600000D03*
X22400000Y17000000D03*
X45300000Y18500000D03*
X42400000Y21900000D03*
X42400000Y23700000D03*
X42400000Y19100000D03*
X34600000Y18600000D03*
X31200000Y15000000D03*
X18000000Y4750000D03*
X20300000Y30000000D03*
X18600000Y28800000D03*
X18500000Y21800000D03*
X47750000Y19600000D03*
X19500000Y25800000D03*
X19600000Y42500000D03*
X33400000Y13900000D03*
X30580000Y42170000D03*
X23400000Y38650000D03*
X27200000Y38850000D03*
X37300000Y21550000D03*
X47800000Y26750000D03*
X28500000Y8500000D03*
X2800000Y22400000D03*
X1900000Y22400000D03*
X1500000Y24000000D03*
X2300000Y18600000D03*
X40600000Y8500000D03*
X45400000Y21500000D03*
X23400000Y40700000D03*
X20719780Y45069231D03*
X18000000Y40600000D03*
X24600000Y8200000D03*
X20400000Y44300000D03*
X37000000Y5050000D03*
X24000000Y48800000D03*
X22727838Y44400000D03*
X26100000Y44900000D03*
X28097340Y44645884D03*
X15500000Y9000000D03*
X15500000Y8000000D03*
X15000000Y8500000D03*
X29633268Y40240399D03*
X17900188Y38916322D03*
X26200000Y29100000D03*
X27100000Y29100000D03*
X24400000Y29100000D03*
X25300000Y29100000D03*
X23100000Y29800000D03*
X23500000Y29100000D03*
X29649988Y37749978D03*
X28800000Y38500000D03*
X32199989Y42418192D03*
X32200000Y43400000D03*
X17610563Y37368888D03*
X17447189Y36585735D03*
X17895805Y38116322D03*
X7500000Y11500000D03*
X8500000Y11500000D03*
X9500000Y11500000D03*
X9000000Y11000000D03*
X18000000Y2000000D03*
X6500000Y6500000D03*
X6500000Y11500000D03*
X27700000Y32800000D03*
X29602246Y36014766D03*
X22149990Y32800000D03*
X21500000Y34500000D03*
X21500000Y8000000D03*
X20500000Y8000000D03*
X30900000Y26200000D03*
X20500000Y7000000D03*
X20500000Y6100000D03*
X20500000Y42899986D03*
X29500000Y42899992D03*
X8600000Y22800000D03*
X8600000Y20200000D03*
X8600000Y25300000D03*
D17*
X40600000Y8500000D02*
X40600000Y18700000D01*
X40600000Y18700000D02*
X43400000Y21500000D01*
X43400000Y21500000D02*
X45400000Y21500000D01*
D18*
X26350000Y6350000D02*
X28500000Y8500000D01*
X17960000Y6500000D02*
X19510000Y4950000D01*
X13500000Y6500000D02*
X17960000Y6500000D01*
X24040000Y6350000D02*
X26350000Y6350000D01*
X2800000Y20200000D02*
X4000000Y19000000D01*
X19510000Y4950000D02*
X22640000Y4950000D01*
X4000000Y19000000D02*
X4000000Y12000000D01*
X4000000Y12000000D02*
X7000000Y9000000D01*
X7000000Y9000000D02*
X11000000Y9000000D01*
X22640000Y4950000D02*
X24040000Y6350000D01*
X11000000Y9000000D02*
X13500000Y6500000D01*
X2800000Y22400000D02*
X1900000Y22400000D01*
X2800000Y21500000D02*
X2800000Y21350000D01*
X1900000Y22400000D02*
X2800000Y21500000D01*
X2800000Y22400000D02*
X2800000Y21350000D01*
X2800000Y21350000D02*
X2800000Y20200000D01*
D11*
X31350000Y4680000D02*
X30249999Y5780001D01*
X28313259Y40700000D02*
X23824264Y40700000D01*
X23824264Y40700000D02*
X23400000Y40700000D01*
X32389988Y36623271D02*
X28313259Y40700000D01*
X32389988Y9887990D02*
X32389988Y36623271D01*
X30249999Y7748001D02*
X32389988Y9887990D01*
X30249999Y5780001D02*
X30249999Y7748001D01*
X20719780Y45493495D02*
X21326285Y46100000D01*
X20719780Y45069231D02*
X20719780Y45493495D01*
X21326285Y46100000D02*
X28800000Y46100000D01*
X28800000Y46100000D02*
X30800000Y44100000D01*
X33890000Y4680000D02*
X35200000Y5990000D01*
X35200000Y41450000D02*
X32550000Y44100000D01*
X35200000Y5990000D02*
X35200000Y41450000D01*
X30800000Y44100000D02*
X32550000Y44100000D01*
X18500000Y40100000D02*
X18000000Y40600000D01*
X20300000Y40100000D02*
X18500000Y40100000D01*
X23400000Y37000000D02*
X20300000Y40100000D01*
X28150000Y11750000D02*
X30450000Y11750000D01*
X24600000Y8200000D02*
X28150000Y11750000D01*
X30450000Y11750000D02*
X31800000Y13100000D01*
X31800000Y13100000D02*
X31800000Y35000000D01*
X31800000Y35000000D02*
X29800000Y37000000D01*
X29800000Y37000000D02*
X23400000Y37000000D01*
X20824264Y44300000D02*
X22124264Y45600000D01*
X22124264Y45600000D02*
X28634300Y45600000D01*
X20400000Y44300000D02*
X20824264Y44300000D01*
X28634300Y45600000D02*
X31200000Y43034300D01*
X31200000Y43034300D02*
X31200000Y41700000D01*
X31200000Y41700000D02*
X31200000Y38550000D01*
X31200000Y38550000D02*
X32789999Y36960001D01*
X32789999Y36960001D02*
X32789999Y3760001D01*
X32789999Y3760001D02*
X33150000Y3400000D01*
X33150000Y3400000D02*
X35350000Y3400000D01*
X35350000Y3400000D02*
X37000000Y5050000D01*
D17*
X6500000Y5500000D02*
X6500000Y6500000D01*
X10500000Y1500000D02*
X6500000Y5500000D01*
X18000000Y2000000D02*
X17500000Y1500000D01*
X17500000Y1500000D02*
X10500000Y1500000D01*
D11*
G36*
X23824986Y49376942D02*
G01*
X23715793Y49331713D01*
X23617522Y49266050D01*
X23533950Y49182478D01*
X23468287Y49084207D01*
X23423058Y48975014D01*
X23400000Y48859095D01*
X23400000Y48740905D01*
X23423058Y48624986D01*
X23468287Y48515793D01*
X23533950Y48417522D01*
X23617522Y48333950D01*
X23715793Y48268287D01*
X23824986Y48223058D01*
X23940905Y48200000D01*
X24059095Y48200000D01*
X24175014Y48223058D01*
X24284207Y48268287D01*
X24382478Y48333950D01*
X24466050Y48417522D01*
X24531713Y48515793D01*
X24576942Y48624986D01*
X24600000Y48740905D01*
X24600000Y48855174D01*
X30572615Y48855174D01*
X31350000Y48077789D01*
X32127385Y48855174D01*
X32052076Y49088327D01*
X31798952Y49201693D01*
X31528574Y49263498D01*
X31251334Y49271369D01*
X30977886Y49225001D01*
X30718737Y49126177D01*
X30647924Y49088327D01*
X30572615Y48855174D01*
X24600000Y48855174D01*
X24600000Y48859095D01*
X24576942Y48975014D01*
X24531713Y49084207D01*
X24466050Y49182478D01*
X24382478Y49266050D01*
X24284207Y49331713D01*
X24175014Y49376942D01*
X24059095Y49400000D01*
X44900314Y49400000D01*
X44396373Y49063277D01*
X43936723Y48603627D01*
X43575578Y48063136D01*
X43326817Y47462574D01*
X43200000Y46825022D01*
X43200000Y46174978D01*
X43326817Y45537426D01*
X43575578Y44936864D01*
X43936723Y44396373D01*
X44396373Y43936723D01*
X44936864Y43575578D01*
X45537426Y43326817D01*
X46174978Y43200000D01*
X46825022Y43200000D01*
X47462574Y43326817D01*
X48063136Y43575578D01*
X48603627Y43936723D01*
X49063277Y44396373D01*
X49400000Y44900314D01*
X49400000Y5099686D01*
X49063277Y5603627D01*
X48603627Y6063277D01*
X48063136Y6424422D01*
X47462574Y6673183D01*
X46825022Y6800000D01*
X46174978Y6800000D01*
X45537426Y6673183D01*
X44936864Y6424422D01*
X44396373Y6063277D01*
X43936723Y5603627D01*
X43575578Y5063136D01*
X43326817Y4462574D01*
X43200000Y3825022D01*
X43200000Y3174978D01*
X43326817Y2537426D01*
X43575578Y1936864D01*
X43936723Y1396373D01*
X44396373Y936723D01*
X44900314Y600000D01*
X5099686Y600000D01*
X5603627Y936723D01*
X6063277Y1396373D01*
X6424422Y1936864D01*
X6673183Y2537426D01*
X6800000Y3174978D01*
X6800000Y3825022D01*
X6673183Y4462574D01*
X6612071Y4610112D01*
X10091992Y1130190D01*
X10109210Y1109210D01*
X10130190Y1091992D01*
X10130195Y1091987D01*
X10142032Y1082273D01*
X10192958Y1040479D01*
X10288506Y989408D01*
X10392181Y957958D01*
X10472982Y950000D01*
X10472991Y950000D01*
X10499999Y947340D01*
X10527007Y950000D01*
X17472992Y950000D01*
X17500000Y947340D01*
X17527008Y950000D01*
X17527018Y950000D01*
X17607819Y957958D01*
X17711494Y989408D01*
X17807042Y1040479D01*
X17890790Y1109210D01*
X17908013Y1130196D01*
X18219161Y1441344D01*
X18284207Y1468287D01*
X18382478Y1533950D01*
X18466050Y1617522D01*
X18531713Y1715793D01*
X18576942Y1824986D01*
X18600000Y1940905D01*
X18600000Y2059095D01*
X18576942Y2175014D01*
X18531713Y2284207D01*
X18466050Y2382478D01*
X18382478Y2466050D01*
X18284207Y2531713D01*
X18175014Y2576942D01*
X18059095Y2600000D01*
X17940905Y2600000D01*
X17824986Y2576942D01*
X17715793Y2531713D01*
X17617522Y2466050D01*
X17533950Y2382478D01*
X17468287Y2284207D01*
X17441344Y2219161D01*
X17272183Y2050000D01*
X10727818Y2050000D01*
X9837818Y2940000D01*
X25168549Y2940000D01*
X25168549Y1340000D01*
X25174341Y1281190D01*
X25191496Y1224640D01*
X25219353Y1172523D01*
X25256842Y1126842D01*
X25302523Y1089353D01*
X25354640Y1061496D01*
X25411190Y1044341D01*
X25470000Y1038549D01*
X27070000Y1038549D01*
X27128810Y1044341D01*
X27185360Y1061496D01*
X27237477Y1089353D01*
X27283158Y1126842D01*
X27320647Y1172523D01*
X27348504Y1224640D01*
X27365659Y1281190D01*
X27371451Y1340000D01*
X27371451Y2248341D01*
X27710000Y2248341D01*
X27710000Y2031659D01*
X27752273Y1819142D01*
X27835193Y1618955D01*
X27955575Y1438791D01*
X28108791Y1285575D01*
X28288955Y1165193D01*
X28489142Y1082273D01*
X28701659Y1040000D01*
X28918341Y1040000D01*
X29130858Y1082273D01*
X29331045Y1165193D01*
X29511209Y1285575D01*
X29664425Y1438791D01*
X29784807Y1618955D01*
X29867727Y1819142D01*
X29910000Y2031659D01*
X29910000Y2248341D01*
X30250000Y2248341D01*
X30250000Y2031659D01*
X30292273Y1819142D01*
X30375193Y1618955D01*
X30495575Y1438791D01*
X30648791Y1285575D01*
X30828955Y1165193D01*
X31029142Y1082273D01*
X31241659Y1040000D01*
X31458341Y1040000D01*
X31670858Y1082273D01*
X31821874Y1144826D01*
X33112615Y1144826D01*
X33187924Y911673D01*
X33441048Y798307D01*
X33711426Y736502D01*
X33988666Y728631D01*
X34262114Y774999D01*
X34521263Y873823D01*
X34592076Y911673D01*
X34667385Y1144826D01*
X33890000Y1922211D01*
X33112615Y1144826D01*
X31821874Y1144826D01*
X31871045Y1165193D01*
X32051209Y1285575D01*
X32204425Y1438791D01*
X32324807Y1618955D01*
X32407727Y1819142D01*
X32450000Y2031659D01*
X32450000Y2248341D01*
X32407727Y2460858D01*
X32324807Y2661045D01*
X32204425Y2841209D01*
X32051209Y2994425D01*
X31871045Y3114807D01*
X31670858Y3197727D01*
X31458341Y3240000D01*
X31241659Y3240000D01*
X31029142Y3197727D01*
X30828955Y3114807D01*
X30648791Y2994425D01*
X30495575Y2841209D01*
X30375193Y2661045D01*
X30292273Y2460858D01*
X30250000Y2248341D01*
X29910000Y2248341D01*
X29867727Y2460858D01*
X29784807Y2661045D01*
X29664425Y2841209D01*
X29511209Y2994425D01*
X29331045Y3114807D01*
X29130858Y3197727D01*
X28918341Y3240000D01*
X28701659Y3240000D01*
X28489142Y3197727D01*
X28288955Y3114807D01*
X28108791Y2994425D01*
X27955575Y2841209D01*
X27835193Y2661045D01*
X27752273Y2460858D01*
X27710000Y2248341D01*
X27371451Y2248341D01*
X27371451Y2940000D01*
X27365659Y2998810D01*
X27348504Y3055360D01*
X27320647Y3107477D01*
X27283158Y3153158D01*
X27237477Y3190647D01*
X27185360Y3218504D01*
X27128810Y3235659D01*
X27070000Y3241451D01*
X25470000Y3241451D01*
X25411190Y3235659D01*
X25354640Y3218504D01*
X25302523Y3190647D01*
X25256842Y3153158D01*
X25219353Y3107477D01*
X25191496Y3055360D01*
X25174341Y2998810D01*
X25168549Y2940000D01*
X9837818Y2940000D01*
X9505818Y3272000D01*
X10241000Y3272000D01*
X10241000Y4526000D01*
X8348477Y4526000D01*
X8315632Y4462185D01*
X7726775Y5051042D01*
X8236769Y5051042D01*
X8348477Y4834000D01*
X10241000Y4834000D01*
X10241000Y6088000D01*
X9441000Y6088000D01*
X9169272Y6030902D01*
X8913904Y5921889D01*
X8684711Y5765151D01*
X8490499Y5566712D01*
X8338733Y5334197D01*
X8236769Y5051042D01*
X7726775Y5051042D01*
X7050000Y5727817D01*
X7050000Y6259942D01*
X7076942Y6324986D01*
X7100000Y6440905D01*
X7100000Y6559095D01*
X7076942Y6675014D01*
X7031713Y6784207D01*
X6966050Y6882478D01*
X6882478Y6966050D01*
X6784207Y7031713D01*
X6675014Y7076942D01*
X6559095Y7100000D01*
X6440905Y7100000D01*
X6324986Y7076942D01*
X6215793Y7031713D01*
X6117522Y6966050D01*
X6033950Y6882478D01*
X5968287Y6784207D01*
X5923058Y6675014D01*
X5900000Y6559095D01*
X5900000Y6440905D01*
X5923058Y6324986D01*
X5950001Y6259940D01*
X5950000Y5716904D01*
X5603627Y6063277D01*
X5063136Y6424422D01*
X4462574Y6673183D01*
X3825022Y6800000D01*
X3174978Y6800000D01*
X2537426Y6673183D01*
X1936864Y6424422D01*
X1396373Y6063277D01*
X936723Y5603627D01*
X600000Y5099686D01*
X600000Y18659095D01*
X1700000Y18659095D01*
X1700000Y18540905D01*
X1723058Y18424986D01*
X1768287Y18315793D01*
X1833950Y18217522D01*
X1917522Y18133950D01*
X2015793Y18068287D01*
X2124986Y18023058D01*
X2240905Y18000000D01*
X2359095Y18000000D01*
X2475014Y18023058D01*
X2584207Y18068287D01*
X2682478Y18133950D01*
X2766050Y18217522D01*
X2831713Y18315793D01*
X2876942Y18424986D01*
X2900000Y18540905D01*
X2900000Y18659095D01*
X2876942Y18775014D01*
X2831713Y18884207D01*
X2766050Y18982478D01*
X2682478Y19066050D01*
X2584207Y19131713D01*
X2475014Y19176942D01*
X2359095Y19200000D01*
X2240905Y19200000D01*
X2124986Y19176942D01*
X2015793Y19131713D01*
X1917522Y19066050D01*
X1833950Y18982478D01*
X1768287Y18884207D01*
X1723058Y18775014D01*
X1700000Y18659095D01*
X600000Y18659095D01*
X600000Y22400000D01*
X1096130Y22400000D01*
X1111576Y22243173D01*
X1157321Y22092372D01*
X1231607Y21953394D01*
X1331578Y21831578D01*
X1362103Y21806527D01*
X2000000Y21168629D01*
X2000001Y20239300D01*
X1996130Y20200000D01*
X2011577Y20043173D01*
X2057321Y19892373D01*
X2131607Y19753394D01*
X2201366Y19668393D01*
X2231579Y19631578D01*
X2262098Y19606532D01*
X3200000Y18668629D01*
X3200001Y12039301D01*
X3196130Y12000000D01*
X3211577Y11843173D01*
X3257321Y11692373D01*
X3331607Y11553394D01*
X3403502Y11465790D01*
X3431579Y11431578D01*
X3462099Y11406531D01*
X6406527Y8462103D01*
X6431578Y8431578D01*
X6479583Y8392182D01*
X6553393Y8331607D01*
X6642072Y8284207D01*
X6692372Y8257321D01*
X6843173Y8211576D01*
X6960707Y8200000D01*
X6960709Y8200000D01*
X7000000Y8196130D01*
X7039291Y8200000D01*
X10668630Y8200000D01*
X12906530Y5962099D01*
X12931578Y5931578D01*
X12962098Y5906531D01*
X13053393Y5831607D01*
X13147228Y5781451D01*
X13192372Y5757321D01*
X13253867Y5738667D01*
X13249142Y5737727D01*
X13048955Y5654807D01*
X12868791Y5534425D01*
X12715575Y5381209D01*
X12595193Y5201045D01*
X12543850Y5077092D01*
X12451267Y5334197D01*
X12299501Y5566712D01*
X12105289Y5765151D01*
X11876096Y5921889D01*
X11620728Y6030902D01*
X11349000Y6088000D01*
X10549000Y6088000D01*
X10549000Y4834000D01*
X10569000Y4834000D01*
X10569000Y4526000D01*
X10549000Y4526000D01*
X10549000Y3272000D01*
X11349000Y3272000D01*
X11620728Y3329098D01*
X11876096Y3438111D01*
X12105289Y3594849D01*
X12299501Y3793288D01*
X12451267Y4025803D01*
X12543850Y4282908D01*
X12595193Y4158955D01*
X12715575Y3978791D01*
X12868791Y3825575D01*
X13048955Y3705193D01*
X13249142Y3622273D01*
X13461659Y3580000D01*
X13678341Y3580000D01*
X13890858Y3622273D01*
X14091045Y3705193D01*
X14271209Y3825575D01*
X14424425Y3978791D01*
X14544807Y4158955D01*
X14627727Y4359142D01*
X14670000Y4571659D01*
X14670000Y4788341D01*
X14627727Y5000858D01*
X14544807Y5201045D01*
X14424425Y5381209D01*
X14271209Y5534425D01*
X14091045Y5654807D01*
X13981939Y5700000D01*
X17628630Y5700000D01*
X18916531Y4412098D01*
X18941578Y4381578D01*
X18972098Y4356531D01*
X19063393Y4281607D01*
X19202372Y4207321D01*
X19353173Y4161576D01*
X19470707Y4150000D01*
X19470708Y4150000D01*
X19509999Y4146130D01*
X19549290Y4150000D01*
X22600709Y4150000D01*
X22640000Y4146130D01*
X22679291Y4150000D01*
X22679293Y4150000D01*
X22796827Y4161576D01*
X22947628Y4207321D01*
X23086606Y4281607D01*
X23208422Y4381578D01*
X23233473Y4412103D01*
X24371371Y5550000D01*
X25177736Y5550000D01*
X25174341Y5538810D01*
X25168549Y5480000D01*
X25168549Y3880000D01*
X25174341Y3821190D01*
X25191496Y3764640D01*
X25219353Y3712523D01*
X25256842Y3666842D01*
X25302523Y3629353D01*
X25354640Y3601496D01*
X25411190Y3584341D01*
X25470000Y3578549D01*
X27070000Y3578549D01*
X27128810Y3584341D01*
X27185360Y3601496D01*
X27237477Y3629353D01*
X27283158Y3666842D01*
X27320647Y3712523D01*
X27348504Y3764640D01*
X27365659Y3821190D01*
X27371451Y3880000D01*
X27371451Y4788341D01*
X27710000Y4788341D01*
X27710000Y4571659D01*
X27752273Y4359142D01*
X27835193Y4158955D01*
X27955575Y3978791D01*
X28108791Y3825575D01*
X28288955Y3705193D01*
X28489142Y3622273D01*
X28701659Y3580000D01*
X28918341Y3580000D01*
X29130858Y3622273D01*
X29331045Y3705193D01*
X29511209Y3825575D01*
X29664425Y3978791D01*
X29784807Y4158955D01*
X29867727Y4359142D01*
X29910000Y4571659D01*
X29910000Y4788341D01*
X29867727Y5000858D01*
X29784807Y5201045D01*
X29664425Y5381209D01*
X29511209Y5534425D01*
X29331045Y5654807D01*
X29130858Y5737727D01*
X28918341Y5780000D01*
X28701659Y5780000D01*
X28489142Y5737727D01*
X28288955Y5654807D01*
X28108791Y5534425D01*
X27955575Y5381209D01*
X27835193Y5201045D01*
X27752273Y5000858D01*
X27710000Y4788341D01*
X27371451Y4788341D01*
X27371451Y5480000D01*
X27365659Y5538810D01*
X27348504Y5595360D01*
X27320647Y5647477D01*
X27283158Y5693158D01*
X27237477Y5730647D01*
X27185360Y5758504D01*
X27128810Y5775659D01*
X27070000Y5781451D01*
X26918267Y5781451D01*
X26918422Y5781578D01*
X26943473Y5812103D01*
X29093469Y7962098D01*
X29168393Y8053393D01*
X29242679Y8192372D01*
X29288423Y8343172D01*
X29303869Y8499999D01*
X29288423Y8656826D01*
X29242679Y8807627D01*
X29168393Y8946606D01*
X29068421Y9068421D01*
X28946606Y9168393D01*
X28807627Y9242679D01*
X28656826Y9288423D01*
X28499999Y9303869D01*
X28343172Y9288423D01*
X28192372Y9242679D01*
X28053393Y9168393D01*
X27962098Y9093469D01*
X26018630Y7150000D01*
X24079291Y7150000D01*
X24040000Y7153870D01*
X24000709Y7150000D01*
X24000707Y7150000D01*
X23883173Y7138424D01*
X23756506Y7100000D01*
X23732372Y7092679D01*
X23593393Y7018393D01*
X23502098Y6943469D01*
X23471578Y6918422D01*
X23446531Y6887902D01*
X23300000Y6741371D01*
X23300000Y20875736D01*
X26124264Y23700000D01*
X30700000Y23700000D01*
X30758527Y23705764D01*
X30814805Y23722836D01*
X30866671Y23750559D01*
X30912132Y23787868D01*
X31400001Y24275737D01*
X31400000Y13265686D01*
X30284315Y12150000D01*
X28169635Y12150000D01*
X28149999Y12151934D01*
X28130363Y12150000D01*
X28130353Y12150000D01*
X28071586Y12144212D01*
X27996186Y12121340D01*
X27926697Y12084197D01*
X27926695Y12084196D01*
X27926696Y12084196D01*
X27881049Y12046735D01*
X27881047Y12046733D01*
X27865789Y12034211D01*
X27853267Y12018953D01*
X24634315Y8800000D01*
X24540905Y8800000D01*
X24424986Y8776942D01*
X24315793Y8731713D01*
X24217522Y8666050D01*
X24133950Y8582478D01*
X24068287Y8484207D01*
X24023058Y8375014D01*
X24000000Y8259095D01*
X24000000Y8140905D01*
X24023058Y8024986D01*
X24068287Y7915793D01*
X24133950Y7817522D01*
X24217522Y7733950D01*
X24315793Y7668287D01*
X24424986Y7623058D01*
X24540905Y7600000D01*
X24659095Y7600000D01*
X24775014Y7623058D01*
X24884207Y7668287D01*
X24982478Y7733950D01*
X25066050Y7817522D01*
X25131713Y7915793D01*
X25176942Y8024986D01*
X25200000Y8140905D01*
X25200000Y8234315D01*
X28315686Y11350000D01*
X30430354Y11350000D01*
X30450000Y11348065D01*
X30469646Y11350000D01*
X30469647Y11350000D01*
X30528414Y11355788D01*
X30603814Y11378660D01*
X30673303Y11415803D01*
X30734211Y11465789D01*
X30746737Y11481052D01*
X31989988Y12724302D01*
X31989988Y10053675D01*
X29981047Y8044734D01*
X29965789Y8032212D01*
X29953267Y8016954D01*
X29953264Y8016951D01*
X29915802Y7971303D01*
X29878660Y7901815D01*
X29855787Y7826414D01*
X29848064Y7748001D01*
X29850000Y7728345D01*
X29849999Y5799648D01*
X29848064Y5780001D01*
X29849999Y5760355D01*
X29855787Y5701588D01*
X29878659Y5626188D01*
X29915802Y5556699D01*
X29965788Y5495790D01*
X29981051Y5483264D01*
X30342411Y5121903D01*
X30292273Y5000858D01*
X30250000Y4788341D01*
X30250000Y4571659D01*
X30292273Y4359142D01*
X30375193Y4158955D01*
X30495575Y3978791D01*
X30648791Y3825575D01*
X30828955Y3705193D01*
X31029142Y3622273D01*
X31241659Y3580000D01*
X31458341Y3580000D01*
X31670858Y3622273D01*
X31871045Y3705193D01*
X32051209Y3825575D01*
X32204425Y3978791D01*
X32324807Y4158955D01*
X32390000Y4316345D01*
X32390000Y3779658D01*
X32388064Y3760001D01*
X32395787Y3681588D01*
X32418660Y3606187D01*
X32455802Y3536699D01*
X32493264Y3491051D01*
X32493267Y3491048D01*
X32505789Y3475790D01*
X32521046Y3463269D01*
X32853267Y3131047D01*
X32865716Y3115879D01*
X32781023Y3031186D01*
X32894824Y2917385D01*
X32661673Y2842076D01*
X32548307Y2588952D01*
X32486502Y2318574D01*
X32478631Y2041334D01*
X32524999Y1767886D01*
X32623823Y1508737D01*
X32661673Y1437924D01*
X32894826Y1362615D01*
X33672211Y2140000D01*
X33658069Y2154142D01*
X33875858Y2371931D01*
X33890000Y2357789D01*
X33904142Y2371931D01*
X34121931Y2154142D01*
X34107789Y2140000D01*
X34885174Y1362615D01*
X35118327Y1437924D01*
X35231693Y1691048D01*
X35293498Y1961426D01*
X35301369Y2238666D01*
X35255001Y2512114D01*
X35156177Y2771263D01*
X35118327Y2842076D01*
X34885176Y2917385D01*
X34967791Y3000000D01*
X35330354Y3000000D01*
X35350000Y2998065D01*
X35369646Y3000000D01*
X35369647Y3000000D01*
X35428414Y3005788D01*
X35503814Y3028660D01*
X35573303Y3065803D01*
X35634211Y3115789D01*
X35646737Y3131052D01*
X36965685Y4450000D01*
X37059095Y4450000D01*
X37175014Y4473058D01*
X37284207Y4518287D01*
X37382478Y4583950D01*
X37466050Y4667522D01*
X37531713Y4765793D01*
X37576942Y4874986D01*
X37600000Y4990905D01*
X37600000Y5109095D01*
X37576942Y5225014D01*
X37531713Y5334207D01*
X37466050Y5432478D01*
X37382478Y5516050D01*
X37284207Y5581713D01*
X37175014Y5626942D01*
X37059095Y5650000D01*
X36940905Y5650000D01*
X36824986Y5626942D01*
X36715793Y5581713D01*
X36617522Y5516050D01*
X36533950Y5432478D01*
X36468287Y5334207D01*
X36423058Y5225014D01*
X36400000Y5109095D01*
X36400000Y5015685D01*
X35184315Y3800000D01*
X34552933Y3800000D01*
X34591209Y3825575D01*
X34744425Y3978791D01*
X34864807Y4158955D01*
X34947727Y4359142D01*
X34990000Y4571659D01*
X34990000Y4788341D01*
X34947727Y5000858D01*
X34897589Y5121903D01*
X35468954Y5693268D01*
X35484211Y5705789D01*
X35504612Y5730647D01*
X35534197Y5766697D01*
X35571340Y5836186D01*
X35594212Y5911586D01*
X35599374Y5964000D01*
X35600000Y5970353D01*
X35600000Y5970354D01*
X35601935Y5990000D01*
X35600000Y6009647D01*
X35600000Y6494366D01*
X35728791Y6365575D01*
X35908955Y6245193D01*
X36109142Y6162273D01*
X36321659Y6120000D01*
X36538341Y6120000D01*
X36750858Y6162273D01*
X36951045Y6245193D01*
X37131209Y6365575D01*
X37185634Y6420000D01*
X37559058Y6420000D01*
X37570797Y6300811D01*
X37605563Y6186203D01*
X37662020Y6080579D01*
X37737999Y5987999D01*
X37830579Y5912020D01*
X37936203Y5855563D01*
X38050811Y5820797D01*
X38170000Y5809058D01*
X38664000Y5812000D01*
X38816000Y5964000D01*
X38816000Y7066000D01*
X39124000Y7066000D01*
X39124000Y5964000D01*
X39276000Y5812000D01*
X39770000Y5809058D01*
X39889189Y5820797D01*
X40003797Y5855563D01*
X40109421Y5912020D01*
X40202001Y5987999D01*
X40277980Y6080579D01*
X40334437Y6186203D01*
X40369203Y6300811D01*
X40380942Y6420000D01*
X40378000Y6914000D01*
X40226000Y7066000D01*
X39124000Y7066000D01*
X38816000Y7066000D01*
X37714000Y7066000D01*
X37562000Y6914000D01*
X37559058Y6420000D01*
X37185634Y6420000D01*
X37284425Y6518791D01*
X37404807Y6698955D01*
X37487727Y6899142D01*
X37530000Y7111659D01*
X37530000Y7328341D01*
X37487727Y7540858D01*
X37404807Y7741045D01*
X37284425Y7921209D01*
X37185634Y8020000D01*
X37559058Y8020000D01*
X37562000Y7526000D01*
X37714000Y7374000D01*
X38816000Y7374000D01*
X38816000Y8476000D01*
X39124000Y8476000D01*
X39124000Y7374000D01*
X40226000Y7374000D01*
X40378000Y7526000D01*
X40380474Y7941495D01*
X40424986Y7923058D01*
X40540905Y7900000D01*
X40659095Y7900000D01*
X40775014Y7923058D01*
X40884207Y7968287D01*
X40982478Y8033950D01*
X41066050Y8117522D01*
X41131713Y8215793D01*
X41176942Y8324986D01*
X41200000Y8440905D01*
X41200000Y8559095D01*
X41176942Y8675014D01*
X41150000Y8740058D01*
X41150000Y9868341D01*
X42950000Y9868341D01*
X42950000Y9651659D01*
X42992273Y9439142D01*
X43075193Y9238955D01*
X43195575Y9058791D01*
X43348791Y8905575D01*
X43528955Y8785193D01*
X43729142Y8702273D01*
X43941659Y8660000D01*
X44158341Y8660000D01*
X44370858Y8702273D01*
X44571045Y8785193D01*
X44751209Y8905575D01*
X44904425Y9058791D01*
X45024807Y9238955D01*
X45107727Y9439142D01*
X45150000Y9651659D01*
X45150000Y9868341D01*
X45107727Y10080858D01*
X45024807Y10281045D01*
X44904425Y10461209D01*
X44805634Y10560000D01*
X45488549Y10560000D01*
X45488549Y8960000D01*
X45494341Y8901190D01*
X45511496Y8844640D01*
X45539353Y8792523D01*
X45576842Y8746842D01*
X45622523Y8709353D01*
X45674640Y8681496D01*
X45731190Y8664341D01*
X45790000Y8658549D01*
X47390000Y8658549D01*
X47448810Y8664341D01*
X47505360Y8681496D01*
X47557477Y8709353D01*
X47603158Y8746842D01*
X47640647Y8792523D01*
X47668504Y8844640D01*
X47685659Y8901190D01*
X47691451Y8960000D01*
X47691451Y10560000D01*
X47685659Y10618810D01*
X47668504Y10675360D01*
X47640647Y10727477D01*
X47603158Y10773158D01*
X47557477Y10810647D01*
X47505360Y10838504D01*
X47448810Y10855659D01*
X47390000Y10861451D01*
X45790000Y10861451D01*
X45731190Y10855659D01*
X45674640Y10838504D01*
X45622523Y10810647D01*
X45576842Y10773158D01*
X45539353Y10727477D01*
X45511496Y10675360D01*
X45494341Y10618810D01*
X45488549Y10560000D01*
X44805634Y10560000D01*
X44751209Y10614425D01*
X44571045Y10734807D01*
X44370858Y10817727D01*
X44158341Y10860000D01*
X43941659Y10860000D01*
X43729142Y10817727D01*
X43528955Y10734807D01*
X43348791Y10614425D01*
X43195575Y10461209D01*
X43075193Y10281045D01*
X42992273Y10080858D01*
X42950000Y9868341D01*
X41150000Y9868341D01*
X41150000Y12408341D01*
X42950000Y12408341D01*
X42950000Y12191659D01*
X42992273Y11979142D01*
X43075193Y11778955D01*
X43195575Y11598791D01*
X43348791Y11445575D01*
X43528955Y11325193D01*
X43729142Y11242273D01*
X43941659Y11200000D01*
X44158341Y11200000D01*
X44370858Y11242273D01*
X44571045Y11325193D01*
X44751209Y11445575D01*
X44904425Y11598791D01*
X45024807Y11778955D01*
X45107727Y11979142D01*
X45150000Y12191659D01*
X45150000Y12408341D01*
X45490000Y12408341D01*
X45490000Y12191659D01*
X45532273Y11979142D01*
X45615193Y11778955D01*
X45735575Y11598791D01*
X45888791Y11445575D01*
X46068955Y11325193D01*
X46269142Y11242273D01*
X46481659Y11200000D01*
X46698341Y11200000D01*
X46910858Y11242273D01*
X47111045Y11325193D01*
X47291209Y11445575D01*
X47444425Y11598791D01*
X47564807Y11778955D01*
X47647727Y11979142D01*
X47690000Y12191659D01*
X47690000Y12408341D01*
X47647727Y12620858D01*
X47564807Y12821045D01*
X47444425Y13001209D01*
X47291209Y13154425D01*
X47111045Y13274807D01*
X46910858Y13357727D01*
X46698341Y13400000D01*
X46481659Y13400000D01*
X46269142Y13357727D01*
X46068955Y13274807D01*
X45888791Y13154425D01*
X45735575Y13001209D01*
X45615193Y12821045D01*
X45532273Y12620858D01*
X45490000Y12408341D01*
X45150000Y12408341D01*
X45107727Y12620858D01*
X45024807Y12821045D01*
X44904425Y13001209D01*
X44751209Y13154425D01*
X44571045Y13274807D01*
X44370858Y13357727D01*
X44158341Y13400000D01*
X43941659Y13400000D01*
X43729142Y13357727D01*
X43528955Y13274807D01*
X43348791Y13154425D01*
X43195575Y13001209D01*
X43075193Y12821045D01*
X42992273Y12620858D01*
X42950000Y12408341D01*
X41150000Y12408341D01*
X41150000Y14948341D01*
X42950000Y14948341D01*
X42950000Y14731659D01*
X42992273Y14519142D01*
X43075193Y14318955D01*
X43195575Y14138791D01*
X43348791Y13985575D01*
X43528955Y13865193D01*
X43729142Y13782273D01*
X43941659Y13740000D01*
X44158341Y13740000D01*
X44370858Y13782273D01*
X44571045Y13865193D01*
X44751209Y13985575D01*
X44904425Y14138791D01*
X45024807Y14318955D01*
X45107727Y14519142D01*
X45150000Y14731659D01*
X45150000Y14948341D01*
X45490000Y14948341D01*
X45490000Y14731659D01*
X45532273Y14519142D01*
X45615193Y14318955D01*
X45735575Y14138791D01*
X45888791Y13985575D01*
X46068955Y13865193D01*
X46269142Y13782273D01*
X46481659Y13740000D01*
X46698341Y13740000D01*
X46910858Y13782273D01*
X47111045Y13865193D01*
X47291209Y13985575D01*
X47444425Y14138791D01*
X47564807Y14318955D01*
X47647727Y14519142D01*
X47690000Y14731659D01*
X47690000Y14948341D01*
X47647727Y15160858D01*
X47564807Y15361045D01*
X47444425Y15541209D01*
X47291209Y15694425D01*
X47111045Y15814807D01*
X46910858Y15897727D01*
X46698341Y15940000D01*
X46481659Y15940000D01*
X46269142Y15897727D01*
X46068955Y15814807D01*
X45888791Y15694425D01*
X45735575Y15541209D01*
X45615193Y15361045D01*
X45532273Y15160858D01*
X45490000Y14948341D01*
X45150000Y14948341D01*
X45107727Y15160858D01*
X45024807Y15361045D01*
X44904425Y15541209D01*
X44751209Y15694425D01*
X44571045Y15814807D01*
X44370858Y15897727D01*
X44158341Y15940000D01*
X43941659Y15940000D01*
X43729142Y15897727D01*
X43528955Y15814807D01*
X43348791Y15694425D01*
X43195575Y15541209D01*
X43075193Y15361045D01*
X42992273Y15160858D01*
X42950000Y14948341D01*
X41150000Y14948341D01*
X41150000Y17488341D01*
X42950000Y17488341D01*
X42950000Y17271659D01*
X42992273Y17059142D01*
X43075193Y16858955D01*
X43195575Y16678791D01*
X43348791Y16525575D01*
X43528955Y16405193D01*
X43729142Y16322273D01*
X43941659Y16280000D01*
X44158341Y16280000D01*
X44370858Y16322273D01*
X44571045Y16405193D01*
X44751209Y16525575D01*
X44904425Y16678791D01*
X45024807Y16858955D01*
X45107727Y17059142D01*
X45150000Y17271659D01*
X45150000Y17488341D01*
X45490000Y17488341D01*
X45490000Y17271659D01*
X45532273Y17059142D01*
X45615193Y16858955D01*
X45735575Y16678791D01*
X45888791Y16525575D01*
X46068955Y16405193D01*
X46269142Y16322273D01*
X46481659Y16280000D01*
X46698341Y16280000D01*
X46910858Y16322273D01*
X47111045Y16405193D01*
X47291209Y16525575D01*
X47444425Y16678791D01*
X47564807Y16858955D01*
X47647727Y17059142D01*
X47690000Y17271659D01*
X47690000Y17488341D01*
X47647727Y17700858D01*
X47564807Y17901045D01*
X47444425Y18081209D01*
X47291209Y18234425D01*
X47111045Y18354807D01*
X46910858Y18437727D01*
X46698341Y18480000D01*
X46481659Y18480000D01*
X46269142Y18437727D01*
X46068955Y18354807D01*
X45888791Y18234425D01*
X45735575Y18081209D01*
X45615193Y17901045D01*
X45532273Y17700858D01*
X45490000Y17488341D01*
X45150000Y17488341D01*
X45107727Y17700858D01*
X45024807Y17901045D01*
X44904425Y18081209D01*
X44751209Y18234425D01*
X44571045Y18354807D01*
X44370858Y18437727D01*
X44158341Y18480000D01*
X43941659Y18480000D01*
X43729142Y18437727D01*
X43528955Y18354807D01*
X43348791Y18234425D01*
X43195575Y18081209D01*
X43075193Y17901045D01*
X42992273Y17700858D01*
X42950000Y17488341D01*
X41150000Y17488341D01*
X41150000Y18472183D01*
X43627818Y20950000D01*
X45159942Y20950000D01*
X45224986Y20923058D01*
X45340905Y20900000D01*
X45459095Y20900000D01*
X45575014Y20923058D01*
X45684207Y20968287D01*
X45782478Y21033950D01*
X45866050Y21117522D01*
X45931713Y21215793D01*
X45976942Y21324986D01*
X46000000Y21440905D01*
X46000000Y21559095D01*
X45976942Y21675014D01*
X45931713Y21784207D01*
X45866050Y21882478D01*
X45782478Y21966050D01*
X45684207Y22031713D01*
X45575014Y22076942D01*
X45459095Y22100000D01*
X45340905Y22100000D01*
X45224986Y22076942D01*
X45159942Y22050000D01*
X43427008Y22050000D01*
X43400000Y22052660D01*
X43372992Y22050000D01*
X43372982Y22050000D01*
X43292181Y22042042D01*
X43188506Y22010592D01*
X43168690Y22000000D01*
X43092957Y21959521D01*
X43030195Y21908013D01*
X43030190Y21908008D01*
X43009210Y21890790D01*
X42991992Y21869810D01*
X40230191Y19108008D01*
X40209211Y19090790D01*
X40191993Y19069810D01*
X40191987Y19069804D01*
X40140479Y19007042D01*
X40127350Y18982478D01*
X40089409Y18911494D01*
X40081132Y18884207D01*
X40057959Y18807818D01*
X40047340Y18700000D01*
X40050001Y18672982D01*
X40050000Y8740058D01*
X40023058Y8675014D01*
X40004921Y8583836D01*
X40003797Y8584437D01*
X39889189Y8619203D01*
X39770000Y8630942D01*
X39276000Y8628000D01*
X39124000Y8476000D01*
X38816000Y8476000D01*
X38664000Y8628000D01*
X38170000Y8630942D01*
X38050811Y8619203D01*
X37936203Y8584437D01*
X37830579Y8527980D01*
X37737999Y8452001D01*
X37662020Y8359421D01*
X37605563Y8253797D01*
X37570797Y8139189D01*
X37559058Y8020000D01*
X37185634Y8020000D01*
X37131209Y8074425D01*
X36951045Y8194807D01*
X36750858Y8277727D01*
X36538341Y8320000D01*
X36321659Y8320000D01*
X36109142Y8277727D01*
X35908955Y8194807D01*
X35728791Y8074425D01*
X35600000Y7945634D01*
X35600000Y32728341D01*
X42950000Y32728341D01*
X42950000Y32511659D01*
X42992273Y32299142D01*
X43075193Y32098955D01*
X43195575Y31918791D01*
X43348791Y31765575D01*
X43528955Y31645193D01*
X43729142Y31562273D01*
X43941659Y31520000D01*
X44158341Y31520000D01*
X44370858Y31562273D01*
X44571045Y31645193D01*
X44751209Y31765575D01*
X44904425Y31918791D01*
X45024807Y32098955D01*
X45107727Y32299142D01*
X45150000Y32511659D01*
X45150000Y32728341D01*
X45107727Y32940858D01*
X45024807Y33141045D01*
X44904425Y33321209D01*
X44805634Y33420000D01*
X45488549Y33420000D01*
X45488549Y31820000D01*
X45494341Y31761190D01*
X45511496Y31704640D01*
X45539353Y31652523D01*
X45576842Y31606842D01*
X45622523Y31569353D01*
X45674640Y31541496D01*
X45731190Y31524341D01*
X45790000Y31518549D01*
X47390000Y31518549D01*
X47448810Y31524341D01*
X47505360Y31541496D01*
X47557477Y31569353D01*
X47603158Y31606842D01*
X47640647Y31652523D01*
X47668504Y31704640D01*
X47685659Y31761190D01*
X47691451Y31820000D01*
X47691451Y33420000D01*
X47685659Y33478810D01*
X47668504Y33535360D01*
X47640647Y33587477D01*
X47603158Y33633158D01*
X47557477Y33670647D01*
X47505360Y33698504D01*
X47448810Y33715659D01*
X47390000Y33721451D01*
X45790000Y33721451D01*
X45731190Y33715659D01*
X45674640Y33698504D01*
X45622523Y33670647D01*
X45576842Y33633158D01*
X45539353Y33587477D01*
X45511496Y33535360D01*
X45494341Y33478810D01*
X45488549Y33420000D01*
X44805634Y33420000D01*
X44751209Y33474425D01*
X44571045Y33594807D01*
X44370858Y33677727D01*
X44158341Y33720000D01*
X43941659Y33720000D01*
X43729142Y33677727D01*
X43528955Y33594807D01*
X43348791Y33474425D01*
X43195575Y33321209D01*
X43075193Y33141045D01*
X42992273Y32940858D01*
X42950000Y32728341D01*
X35600000Y32728341D01*
X35600000Y35268341D01*
X42950000Y35268341D01*
X42950000Y35051659D01*
X42992273Y34839142D01*
X43075193Y34638955D01*
X43195575Y34458791D01*
X43348791Y34305575D01*
X43528955Y34185193D01*
X43729142Y34102273D01*
X43941659Y34060000D01*
X44158341Y34060000D01*
X44370858Y34102273D01*
X44571045Y34185193D01*
X44751209Y34305575D01*
X44904425Y34458791D01*
X45024807Y34638955D01*
X45107727Y34839142D01*
X45150000Y35051659D01*
X45150000Y35268341D01*
X45490000Y35268341D01*
X45490000Y35051659D01*
X45532273Y34839142D01*
X45615193Y34638955D01*
X45735575Y34458791D01*
X45888791Y34305575D01*
X46068955Y34185193D01*
X46269142Y34102273D01*
X46481659Y34060000D01*
X46698341Y34060000D01*
X46910858Y34102273D01*
X47111045Y34185193D01*
X47291209Y34305575D01*
X47444425Y34458791D01*
X47564807Y34638955D01*
X47647727Y34839142D01*
X47690000Y35051659D01*
X47690000Y35268341D01*
X47647727Y35480858D01*
X47564807Y35681045D01*
X47444425Y35861209D01*
X47291209Y36014425D01*
X47111045Y36134807D01*
X46910858Y36217727D01*
X46698341Y36260000D01*
X46481659Y36260000D01*
X46269142Y36217727D01*
X46068955Y36134807D01*
X45888791Y36014425D01*
X45735575Y35861209D01*
X45615193Y35681045D01*
X45532273Y35480858D01*
X45490000Y35268341D01*
X45150000Y35268341D01*
X45107727Y35480858D01*
X45024807Y35681045D01*
X44904425Y35861209D01*
X44751209Y36014425D01*
X44571045Y36134807D01*
X44370858Y36217727D01*
X44158341Y36260000D01*
X43941659Y36260000D01*
X43729142Y36217727D01*
X43528955Y36134807D01*
X43348791Y36014425D01*
X43195575Y35861209D01*
X43075193Y35681045D01*
X42992273Y35480858D01*
X42950000Y35268341D01*
X35600000Y35268341D01*
X35600000Y37808341D01*
X42950000Y37808341D01*
X42950000Y37591659D01*
X42992273Y37379142D01*
X43075193Y37178955D01*
X43195575Y36998791D01*
X43348791Y36845575D01*
X43528955Y36725193D01*
X43729142Y36642273D01*
X43941659Y36600000D01*
X44158341Y36600000D01*
X44370858Y36642273D01*
X44571045Y36725193D01*
X44751209Y36845575D01*
X44904425Y36998791D01*
X45024807Y37178955D01*
X45107727Y37379142D01*
X45150000Y37591659D01*
X45150000Y37808341D01*
X45490000Y37808341D01*
X45490000Y37591659D01*
X45532273Y37379142D01*
X45615193Y37178955D01*
X45735575Y36998791D01*
X45888791Y36845575D01*
X46068955Y36725193D01*
X46269142Y36642273D01*
X46481659Y36600000D01*
X46698341Y36600000D01*
X46910858Y36642273D01*
X47111045Y36725193D01*
X47291209Y36845575D01*
X47444425Y36998791D01*
X47564807Y37178955D01*
X47647727Y37379142D01*
X47690000Y37591659D01*
X47690000Y37808341D01*
X47647727Y38020858D01*
X47564807Y38221045D01*
X47444425Y38401209D01*
X47291209Y38554425D01*
X47111045Y38674807D01*
X46910858Y38757727D01*
X46698341Y38800000D01*
X46481659Y38800000D01*
X46269142Y38757727D01*
X46068955Y38674807D01*
X45888791Y38554425D01*
X45735575Y38401209D01*
X45615193Y38221045D01*
X45532273Y38020858D01*
X45490000Y37808341D01*
X45150000Y37808341D01*
X45107727Y38020858D01*
X45024807Y38221045D01*
X44904425Y38401209D01*
X44751209Y38554425D01*
X44571045Y38674807D01*
X44370858Y38757727D01*
X44158341Y38800000D01*
X43941659Y38800000D01*
X43729142Y38757727D01*
X43528955Y38674807D01*
X43348791Y38554425D01*
X43195575Y38401209D01*
X43075193Y38221045D01*
X42992273Y38020858D01*
X42950000Y37808341D01*
X35600000Y37808341D01*
X35600000Y40348341D01*
X42950000Y40348341D01*
X42950000Y40131659D01*
X42992273Y39919142D01*
X43075193Y39718955D01*
X43195575Y39538791D01*
X43348791Y39385575D01*
X43528955Y39265193D01*
X43729142Y39182273D01*
X43941659Y39140000D01*
X44158341Y39140000D01*
X44370858Y39182273D01*
X44571045Y39265193D01*
X44751209Y39385575D01*
X44904425Y39538791D01*
X45024807Y39718955D01*
X45107727Y39919142D01*
X45150000Y40131659D01*
X45150000Y40348341D01*
X45490000Y40348341D01*
X45490000Y40131659D01*
X45532273Y39919142D01*
X45615193Y39718955D01*
X45735575Y39538791D01*
X45888791Y39385575D01*
X46068955Y39265193D01*
X46269142Y39182273D01*
X46481659Y39140000D01*
X46698341Y39140000D01*
X46910858Y39182273D01*
X47111045Y39265193D01*
X47291209Y39385575D01*
X47444425Y39538791D01*
X47564807Y39718955D01*
X47647727Y39919142D01*
X47690000Y40131659D01*
X47690000Y40348341D01*
X47647727Y40560858D01*
X47564807Y40761045D01*
X47444425Y40941209D01*
X47291209Y41094425D01*
X47111045Y41214807D01*
X46910858Y41297727D01*
X46698341Y41340000D01*
X46481659Y41340000D01*
X46269142Y41297727D01*
X46068955Y41214807D01*
X45888791Y41094425D01*
X45735575Y40941209D01*
X45615193Y40761045D01*
X45532273Y40560858D01*
X45490000Y40348341D01*
X45150000Y40348341D01*
X45107727Y40560858D01*
X45024807Y40761045D01*
X44904425Y40941209D01*
X44751209Y41094425D01*
X44571045Y41214807D01*
X44370858Y41297727D01*
X44158341Y41340000D01*
X43941659Y41340000D01*
X43729142Y41297727D01*
X43528955Y41214807D01*
X43348791Y41094425D01*
X43195575Y40941209D01*
X43075193Y40761045D01*
X42992273Y40560858D01*
X42950000Y40348341D01*
X35600000Y40348341D01*
X35600000Y41430354D01*
X35601935Y41450000D01*
X35594212Y41528414D01*
X35588821Y41546186D01*
X35571340Y41603814D01*
X35534197Y41673303D01*
X35484211Y41734211D01*
X35468953Y41746733D01*
X32846737Y44368948D01*
X32834211Y44384211D01*
X32773303Y44434197D01*
X32703814Y44471340D01*
X32628414Y44494212D01*
X32569647Y44500000D01*
X32569646Y44500000D01*
X32550000Y44501935D01*
X32530354Y44500000D01*
X32387791Y44500000D01*
X32345176Y44542615D01*
X32578327Y44617924D01*
X32691693Y44871048D01*
X32753498Y45141426D01*
X32761369Y45418666D01*
X32759729Y45428341D01*
X32790000Y45428341D01*
X32790000Y45211659D01*
X32832273Y44999142D01*
X32915193Y44798955D01*
X33035575Y44618791D01*
X33188791Y44465575D01*
X33368955Y44345193D01*
X33569142Y44262273D01*
X33781659Y44220000D01*
X33998341Y44220000D01*
X34210858Y44262273D01*
X34411045Y44345193D01*
X34591209Y44465575D01*
X34744425Y44618791D01*
X34864807Y44798955D01*
X34947727Y44999142D01*
X34990000Y45211659D01*
X34990000Y45428341D01*
X35330000Y45428341D01*
X35330000Y45211659D01*
X35372273Y44999142D01*
X35455193Y44798955D01*
X35575575Y44618791D01*
X35728791Y44465575D01*
X35908955Y44345193D01*
X36109142Y44262273D01*
X36321659Y44220000D01*
X36538341Y44220000D01*
X36750858Y44262273D01*
X36951045Y44345193D01*
X37131209Y44465575D01*
X37284425Y44618791D01*
X37404807Y44798955D01*
X37487727Y44999142D01*
X37530000Y45211659D01*
X37530000Y45428341D01*
X37870000Y45428341D01*
X37870000Y45211659D01*
X37912273Y44999142D01*
X37995193Y44798955D01*
X38115575Y44618791D01*
X38268791Y44465575D01*
X38448955Y44345193D01*
X38649142Y44262273D01*
X38861659Y44220000D01*
X39078341Y44220000D01*
X39290858Y44262273D01*
X39491045Y44345193D01*
X39671209Y44465575D01*
X39824425Y44618791D01*
X39944807Y44798955D01*
X40027727Y44999142D01*
X40070000Y45211659D01*
X40070000Y45428341D01*
X40027727Y45640858D01*
X39944807Y45841045D01*
X39824425Y46021209D01*
X39725634Y46120000D01*
X40408549Y46120000D01*
X40408549Y44520000D01*
X40414341Y44461190D01*
X40431496Y44404640D01*
X40459353Y44352523D01*
X40496842Y44306842D01*
X40542523Y44269353D01*
X40594640Y44241496D01*
X40651190Y44224341D01*
X40710000Y44218549D01*
X42310000Y44218549D01*
X42368810Y44224341D01*
X42425360Y44241496D01*
X42477477Y44269353D01*
X42523158Y44306842D01*
X42560647Y44352523D01*
X42588504Y44404640D01*
X42605659Y44461190D01*
X42611451Y44520000D01*
X42611451Y46120000D01*
X42605659Y46178810D01*
X42588504Y46235360D01*
X42560647Y46287477D01*
X42523158Y46333158D01*
X42477477Y46370647D01*
X42425360Y46398504D01*
X42368810Y46415659D01*
X42310000Y46421451D01*
X40710000Y46421451D01*
X40651190Y46415659D01*
X40594640Y46398504D01*
X40542523Y46370647D01*
X40496842Y46333158D01*
X40459353Y46287477D01*
X40431496Y46235360D01*
X40414341Y46178810D01*
X40408549Y46120000D01*
X39725634Y46120000D01*
X39671209Y46174425D01*
X39491045Y46294807D01*
X39290858Y46377727D01*
X39078341Y46420000D01*
X38861659Y46420000D01*
X38649142Y46377727D01*
X38448955Y46294807D01*
X38268791Y46174425D01*
X38115575Y46021209D01*
X37995193Y45841045D01*
X37912273Y45640858D01*
X37870000Y45428341D01*
X37530000Y45428341D01*
X37487727Y45640858D01*
X37404807Y45841045D01*
X37284425Y46021209D01*
X37131209Y46174425D01*
X36951045Y46294807D01*
X36750858Y46377727D01*
X36538341Y46420000D01*
X36321659Y46420000D01*
X36109142Y46377727D01*
X35908955Y46294807D01*
X35728791Y46174425D01*
X35575575Y46021209D01*
X35455193Y45841045D01*
X35372273Y45640858D01*
X35330000Y45428341D01*
X34990000Y45428341D01*
X34947727Y45640858D01*
X34864807Y45841045D01*
X34744425Y46021209D01*
X34591209Y46174425D01*
X34411045Y46294807D01*
X34210858Y46377727D01*
X33998341Y46420000D01*
X33781659Y46420000D01*
X33569142Y46377727D01*
X33368955Y46294807D01*
X33188791Y46174425D01*
X33035575Y46021209D01*
X32915193Y45841045D01*
X32832273Y45640858D01*
X32790000Y45428341D01*
X32759729Y45428341D01*
X32715001Y45692114D01*
X32616177Y45951263D01*
X32578327Y46022076D01*
X32345174Y46097385D01*
X31567789Y45320000D01*
X31581931Y45305858D01*
X31364142Y45088069D01*
X31350000Y45102211D01*
X31335858Y45088069D01*
X31118069Y45305858D01*
X31132211Y45320000D01*
X30354826Y46097385D01*
X30121673Y46022076D01*
X30008307Y45768952D01*
X29950337Y45515349D01*
X29096737Y46368948D01*
X29084211Y46384211D01*
X29023303Y46434197D01*
X28953814Y46471340D01*
X28878414Y46494212D01*
X28819647Y46500000D01*
X28819646Y46500000D01*
X28800000Y46501935D01*
X28780354Y46500000D01*
X21345932Y46500000D01*
X21326285Y46501935D01*
X21306638Y46500000D01*
X21247871Y46494212D01*
X21172471Y46471340D01*
X21102982Y46434197D01*
X21042074Y46384211D01*
X21029548Y46368948D01*
X20450828Y45790228D01*
X20435570Y45777706D01*
X20423048Y45762448D01*
X20423045Y45762445D01*
X20385583Y45716797D01*
X20348441Y45647309D01*
X20325568Y45571908D01*
X20320284Y45518263D01*
X20253730Y45451709D01*
X20188067Y45353438D01*
X20142838Y45244245D01*
X20119780Y45128326D01*
X20119780Y45010136D01*
X20142838Y44894217D01*
X20160976Y44850428D01*
X20115793Y44831713D01*
X20017522Y44766050D01*
X19933950Y44682478D01*
X19868287Y44584207D01*
X19823058Y44475014D01*
X19800000Y44359095D01*
X19800000Y44300000D01*
X19654821Y44300000D01*
X19663158Y44306842D01*
X19700647Y44352523D01*
X19728504Y44404640D01*
X19745659Y44461190D01*
X19751451Y44520000D01*
X19751451Y46120000D01*
X19745659Y46178810D01*
X19728504Y46235360D01*
X19700647Y46287477D01*
X19663158Y46333158D01*
X19617477Y46370647D01*
X19565360Y46398504D01*
X19508810Y46415659D01*
X19450000Y46421451D01*
X17850000Y46421451D01*
X17791190Y46415659D01*
X17734640Y46398504D01*
X17682523Y46370647D01*
X17636842Y46333158D01*
X17599353Y46287477D01*
X17571496Y46235360D01*
X17554341Y46178810D01*
X17548549Y46120000D01*
X17548549Y44520000D01*
X17554341Y44461190D01*
X17571496Y44404640D01*
X17599353Y44352523D01*
X17636842Y44306842D01*
X17645179Y44300000D01*
X16521939Y44300000D01*
X16631045Y44345193D01*
X16811209Y44465575D01*
X16964425Y44618791D01*
X17084807Y44798955D01*
X17167727Y44999142D01*
X17210000Y45211659D01*
X17210000Y45428341D01*
X17167727Y45640858D01*
X17084807Y45841045D01*
X16964425Y46021209D01*
X16811209Y46174425D01*
X16631045Y46294807D01*
X16430858Y46377727D01*
X16218341Y46420000D01*
X16001659Y46420000D01*
X15789142Y46377727D01*
X15588955Y46294807D01*
X15408791Y46174425D01*
X15255575Y46021209D01*
X15135193Y45841045D01*
X15052273Y45640858D01*
X15010000Y45428341D01*
X15010000Y45211659D01*
X15052273Y44999142D01*
X15135193Y44798955D01*
X15255575Y44618791D01*
X15408791Y44465575D01*
X15588955Y44345193D01*
X15698061Y44300000D01*
X14000000Y44300000D01*
X13976306Y44297666D01*
X14091045Y44345193D01*
X14271209Y44465575D01*
X14424425Y44618791D01*
X14544807Y44798955D01*
X14627727Y44999142D01*
X14670000Y45211659D01*
X14670000Y45428341D01*
X14627727Y45640858D01*
X14544807Y45841045D01*
X14424425Y46021209D01*
X14271209Y46174425D01*
X14091045Y46294807D01*
X13890858Y46377727D01*
X13678341Y46420000D01*
X13461659Y46420000D01*
X13249142Y46377727D01*
X13048955Y46294807D01*
X12868791Y46174425D01*
X12715575Y46021209D01*
X12595193Y45841045D01*
X12512273Y45640858D01*
X12470000Y45428341D01*
X12470000Y45211659D01*
X12512273Y44999142D01*
X12595193Y44798955D01*
X12715575Y44618791D01*
X12868791Y44465575D01*
X13048955Y44345193D01*
X13249142Y44262273D01*
X13461659Y44220000D01*
X13678341Y44220000D01*
X13837467Y44251653D01*
X13833329Y44249441D01*
X13787868Y44212132D01*
X9787868Y40212132D01*
X9750559Y40166671D01*
X9722836Y40114805D01*
X9705764Y40058527D01*
X9700000Y40000000D01*
X9700000Y26624264D01*
X9375736Y26300000D01*
X8500000Y26300000D01*
X8441473Y26294236D01*
X8385195Y26277164D01*
X8333329Y26249441D01*
X8287868Y26212132D01*
X7787868Y25712132D01*
X7750559Y25666671D01*
X7722836Y25614805D01*
X7705764Y25558527D01*
X7700000Y25500000D01*
X7700000Y20000000D01*
X7705764Y19941473D01*
X7722836Y19885195D01*
X7750559Y19833329D01*
X7787868Y19787868D01*
X8287868Y19287868D01*
X8333329Y19250559D01*
X8385195Y19222836D01*
X8441473Y19205764D01*
X8500000Y19200000D01*
X11000000Y19200000D01*
X11058527Y19205764D01*
X11114805Y19222836D01*
X11166671Y19250559D01*
X11212132Y19287868D01*
X13712132Y21787868D01*
X13749441Y21833329D01*
X13777164Y21885195D01*
X13794236Y21941473D01*
X13800000Y22000000D01*
X13800000Y36644830D01*
X16847189Y36644830D01*
X16847189Y36526640D01*
X16870247Y36410721D01*
X16915476Y36301528D01*
X16981139Y36203257D01*
X17064711Y36119685D01*
X17162982Y36054022D01*
X17272175Y36008793D01*
X17388094Y35985735D01*
X17506284Y35985735D01*
X17622203Y36008793D01*
X17731396Y36054022D01*
X17829667Y36119685D01*
X17913239Y36203257D01*
X17978902Y36301528D01*
X18024131Y36410721D01*
X18047189Y36526640D01*
X18047189Y36644830D01*
X18024131Y36760749D01*
X17978902Y36869942D01*
X17968070Y36886153D01*
X17993041Y36902838D01*
X18076613Y36986410D01*
X18142276Y37084681D01*
X18187505Y37193874D01*
X18210563Y37309793D01*
X18210563Y37427983D01*
X18187505Y37543902D01*
X18172016Y37581297D01*
X18180012Y37584609D01*
X18278283Y37650272D01*
X18361855Y37733844D01*
X18427518Y37832115D01*
X18472747Y37941308D01*
X18495805Y38057227D01*
X18495805Y38175417D01*
X18472747Y38291336D01*
X18427518Y38400529D01*
X18361855Y38498800D01*
X18346525Y38514130D01*
X18366238Y38533844D01*
X18431901Y38632115D01*
X18477130Y38741308D01*
X18500188Y38857227D01*
X18500188Y38975417D01*
X18477130Y39091336D01*
X18431901Y39200529D01*
X18366238Y39298800D01*
X18282666Y39382372D01*
X18184395Y39448035D01*
X18075202Y39493264D01*
X17959283Y39516322D01*
X17841093Y39516322D01*
X17725174Y39493264D01*
X17615981Y39448035D01*
X17517710Y39382372D01*
X17434138Y39298800D01*
X17368475Y39200529D01*
X17323246Y39091336D01*
X17300188Y38975417D01*
X17300188Y38857227D01*
X17323246Y38741308D01*
X17368475Y38632115D01*
X17434138Y38533844D01*
X17449469Y38518513D01*
X17429755Y38498800D01*
X17364092Y38400529D01*
X17318863Y38291336D01*
X17295805Y38175417D01*
X17295805Y38057227D01*
X17318863Y37941308D01*
X17334352Y37903913D01*
X17326356Y37900601D01*
X17228085Y37834938D01*
X17144513Y37751366D01*
X17078850Y37653095D01*
X17033621Y37543902D01*
X17010563Y37427983D01*
X17010563Y37309793D01*
X17033621Y37193874D01*
X17078850Y37084681D01*
X17089682Y37068470D01*
X17064711Y37051785D01*
X16981139Y36968213D01*
X16915476Y36869942D01*
X16870247Y36760749D01*
X16847189Y36644830D01*
X13800000Y36644830D01*
X13800000Y36865280D01*
X17551513Y40199959D01*
X17617522Y40133950D01*
X17715793Y40068287D01*
X17824986Y40023058D01*
X17940905Y40000000D01*
X18034314Y40000000D01*
X18203267Y39831047D01*
X18215789Y39815789D01*
X18231047Y39803267D01*
X18231049Y39803265D01*
X18276697Y39765803D01*
X18346186Y39728660D01*
X18421586Y39705788D01*
X18500000Y39698065D01*
X18519647Y39700000D01*
X20134315Y39700000D01*
X22530672Y37303642D01*
X21997945Y37299993D01*
X21941473Y37294236D01*
X21885195Y37277164D01*
X21833329Y37249441D01*
X21787868Y37212132D01*
X17787868Y33212132D01*
X17750559Y33166671D01*
X17722836Y33114805D01*
X17705764Y33058527D01*
X17700000Y33000000D01*
X17700000Y7300000D01*
X13831371Y7300000D01*
X12572276Y8559095D01*
X14400000Y8559095D01*
X14400000Y8440905D01*
X14423058Y8324986D01*
X14468287Y8215793D01*
X14533950Y8117522D01*
X14617522Y8033950D01*
X14715793Y7968287D01*
X14824986Y7923058D01*
X14906787Y7906787D01*
X14923058Y7824986D01*
X14968287Y7715793D01*
X15033950Y7617522D01*
X15117522Y7533950D01*
X15215793Y7468287D01*
X15324986Y7423058D01*
X15440905Y7400000D01*
X15559095Y7400000D01*
X15675014Y7423058D01*
X15784207Y7468287D01*
X15882478Y7533950D01*
X15966050Y7617522D01*
X16031713Y7715793D01*
X16076942Y7824986D01*
X16100000Y7940905D01*
X16100000Y8059095D01*
X16076942Y8175014D01*
X16031713Y8284207D01*
X15966050Y8382478D01*
X15882478Y8466050D01*
X15831669Y8500000D01*
X15882478Y8533950D01*
X15966050Y8617522D01*
X16031713Y8715793D01*
X16076942Y8824986D01*
X16100000Y8940905D01*
X16100000Y9059095D01*
X16076942Y9175014D01*
X16031713Y9284207D01*
X15966050Y9382478D01*
X15882478Y9466050D01*
X15784207Y9531713D01*
X15675014Y9576942D01*
X15559095Y9600000D01*
X15440905Y9600000D01*
X15324986Y9576942D01*
X15215793Y9531713D01*
X15117522Y9466050D01*
X15033950Y9382478D01*
X14968287Y9284207D01*
X14923058Y9175014D01*
X14906787Y9093213D01*
X14824986Y9076942D01*
X14715793Y9031713D01*
X14617522Y8966050D01*
X14533950Y8882478D01*
X14468287Y8784207D01*
X14423058Y8675014D01*
X14400000Y8559095D01*
X12572276Y8559095D01*
X11593473Y9537897D01*
X11568422Y9568422D01*
X11446606Y9668393D01*
X11307628Y9742679D01*
X11156827Y9788424D01*
X11039293Y9800000D01*
X11039291Y9800000D01*
X11000000Y9803870D01*
X10960709Y9800000D01*
X7331370Y9800000D01*
X5572275Y11559095D01*
X5900000Y11559095D01*
X5900000Y11440905D01*
X5923058Y11324986D01*
X5968287Y11215793D01*
X6033950Y11117522D01*
X6117522Y11033950D01*
X6215793Y10968287D01*
X6324986Y10923058D01*
X6440905Y10900000D01*
X6559095Y10900000D01*
X6675014Y10923058D01*
X6784207Y10968287D01*
X6882478Y11033950D01*
X6966050Y11117522D01*
X7000000Y11168331D01*
X7033950Y11117522D01*
X7117522Y11033950D01*
X7215793Y10968287D01*
X7324986Y10923058D01*
X7440905Y10900000D01*
X7559095Y10900000D01*
X7675014Y10923058D01*
X7784207Y10968287D01*
X7882478Y11033950D01*
X7966050Y11117522D01*
X8000000Y11168331D01*
X8033950Y11117522D01*
X8117522Y11033950D01*
X8215793Y10968287D01*
X8324986Y10923058D01*
X8406787Y10906787D01*
X8423058Y10824986D01*
X8468287Y10715793D01*
X8533950Y10617522D01*
X8617522Y10533950D01*
X8715793Y10468287D01*
X8824986Y10423058D01*
X8940905Y10400000D01*
X9059095Y10400000D01*
X9175014Y10423058D01*
X9284207Y10468287D01*
X9382478Y10533950D01*
X9466050Y10617522D01*
X9531713Y10715793D01*
X9576942Y10824986D01*
X9593213Y10906787D01*
X9675014Y10923058D01*
X9784207Y10968287D01*
X9882478Y11033950D01*
X9966050Y11117522D01*
X10031713Y11215793D01*
X10076942Y11324986D01*
X10100000Y11440905D01*
X10100000Y11559095D01*
X10076942Y11675014D01*
X10031713Y11784207D01*
X9966050Y11882478D01*
X9882478Y11966050D01*
X9784207Y12031713D01*
X9675014Y12076942D01*
X9559095Y12100000D01*
X9440905Y12100000D01*
X9324986Y12076942D01*
X9215793Y12031713D01*
X9117522Y11966050D01*
X9033950Y11882478D01*
X9000000Y11831669D01*
X8966050Y11882478D01*
X8882478Y11966050D01*
X8784207Y12031713D01*
X8675014Y12076942D01*
X8559095Y12100000D01*
X8440905Y12100000D01*
X8324986Y12076942D01*
X8215793Y12031713D01*
X8117522Y11966050D01*
X8033950Y11882478D01*
X8000000Y11831669D01*
X7966050Y11882478D01*
X7882478Y11966050D01*
X7784207Y12031713D01*
X7675014Y12076942D01*
X7559095Y12100000D01*
X7440905Y12100000D01*
X7324986Y12076942D01*
X7215793Y12031713D01*
X7117522Y11966050D01*
X7033950Y11882478D01*
X7000000Y11831669D01*
X6966050Y11882478D01*
X6882478Y11966050D01*
X6784207Y12031713D01*
X6675014Y12076942D01*
X6559095Y12100000D01*
X6440905Y12100000D01*
X6324986Y12076942D01*
X6215793Y12031713D01*
X6117522Y11966050D01*
X6033950Y11882478D01*
X5968287Y11784207D01*
X5923058Y11675014D01*
X5900000Y11559095D01*
X5572275Y11559095D01*
X4800000Y12331370D01*
X4800000Y18960718D01*
X4803869Y19000001D01*
X4800000Y19039284D01*
X4800000Y19039293D01*
X4788424Y19156827D01*
X4742679Y19307628D01*
X4668393Y19446607D01*
X4593469Y19537902D01*
X4568422Y19568422D01*
X4537903Y19593468D01*
X3600000Y20531370D01*
X3600000Y21460718D01*
X3603869Y21500001D01*
X3600000Y21539284D01*
X3600000Y22360707D01*
X3603870Y22400000D01*
X3588424Y22556827D01*
X3542679Y22707628D01*
X3468393Y22846606D01*
X3368422Y22968422D01*
X3246606Y23068393D01*
X3107628Y23142679D01*
X2956827Y23188424D01*
X2839293Y23200000D01*
X2800000Y23203870D01*
X2760707Y23200000D01*
X1939291Y23200000D01*
X1900000Y23203870D01*
X1860709Y23200000D01*
X1860707Y23200000D01*
X1743173Y23188424D01*
X1592372Y23142679D01*
X1453394Y23068393D01*
X1331578Y22968422D01*
X1231607Y22846606D01*
X1157321Y22707628D01*
X1111576Y22556827D01*
X1096130Y22400000D01*
X600000Y22400000D01*
X600000Y24059095D01*
X900000Y24059095D01*
X900000Y23940905D01*
X923058Y23824986D01*
X968287Y23715793D01*
X1033950Y23617522D01*
X1117522Y23533950D01*
X1215793Y23468287D01*
X1324986Y23423058D01*
X1440905Y23400000D01*
X1559095Y23400000D01*
X1675014Y23423058D01*
X1784207Y23468287D01*
X1882478Y23533950D01*
X1966050Y23617522D01*
X2031713Y23715793D01*
X2076942Y23824986D01*
X2100000Y23940905D01*
X2100000Y24059095D01*
X2076942Y24175014D01*
X2031713Y24284207D01*
X1966050Y24382478D01*
X1882478Y24466050D01*
X1784207Y24531713D01*
X1675014Y24576942D01*
X1559095Y24600000D01*
X1440905Y24600000D01*
X1324986Y24576942D01*
X1215793Y24531713D01*
X1117522Y24466050D01*
X1033950Y24382478D01*
X968287Y24284207D01*
X923058Y24175014D01*
X900000Y24059095D01*
X600000Y24059095D01*
X600000Y26540631D01*
X5758420Y26540631D01*
X5827638Y26312573D01*
X6072213Y26204218D01*
X6333227Y26145659D01*
X6600650Y26139147D01*
X6864205Y26184931D01*
X7113764Y26281253D01*
X7172362Y26312573D01*
X7241580Y26540631D01*
X6500000Y27282211D01*
X5758420Y26540631D01*
X600000Y26540631D01*
X600000Y27399350D01*
X5139147Y27399350D01*
X5184931Y27135795D01*
X5281253Y26886236D01*
X5312573Y26827638D01*
X5540631Y26758420D01*
X6282211Y27500000D01*
X6717789Y27500000D01*
X7459369Y26758420D01*
X7687427Y26827638D01*
X7795782Y27072213D01*
X7854341Y27333227D01*
X7860853Y27600650D01*
X7815069Y27864205D01*
X7718747Y28113764D01*
X7687427Y28172362D01*
X7459369Y28241580D01*
X6717789Y27500000D01*
X6282211Y27500000D01*
X5540631Y28241580D01*
X5312573Y28172362D01*
X5204218Y27927787D01*
X5145659Y27666773D01*
X5139147Y27399350D01*
X600000Y27399350D01*
X600000Y28459369D01*
X5758420Y28459369D01*
X6500000Y27717789D01*
X7241580Y28459369D01*
X7172362Y28687427D01*
X6927787Y28795782D01*
X6666773Y28854341D01*
X6399350Y28860853D01*
X6135795Y28815069D01*
X5886236Y28718747D01*
X5827638Y28687427D01*
X5758420Y28459369D01*
X600000Y28459369D01*
X600000Y32728341D01*
X2310000Y32728341D01*
X2310000Y32511659D01*
X2352273Y32299142D01*
X2435193Y32098955D01*
X2555575Y31918791D01*
X2708791Y31765575D01*
X2888955Y31645193D01*
X3089142Y31562273D01*
X3301659Y31520000D01*
X3518341Y31520000D01*
X3730858Y31562273D01*
X3931045Y31645193D01*
X4111209Y31765575D01*
X4264425Y31918791D01*
X4384807Y32098955D01*
X4467727Y32299142D01*
X4510000Y32511659D01*
X4510000Y32728341D01*
X4850000Y32728341D01*
X4850000Y32511659D01*
X4892273Y32299142D01*
X4975193Y32098955D01*
X5095575Y31918791D01*
X5248791Y31765575D01*
X5428955Y31645193D01*
X5629142Y31562273D01*
X5841659Y31520000D01*
X6058341Y31520000D01*
X6270858Y31562273D01*
X6471045Y31645193D01*
X6651209Y31765575D01*
X6804425Y31918791D01*
X6924807Y32098955D01*
X7007727Y32299142D01*
X7050000Y32511659D01*
X7050000Y32728341D01*
X7007727Y32940858D01*
X6924807Y33141045D01*
X6804425Y33321209D01*
X6651209Y33474425D01*
X6471045Y33594807D01*
X6270858Y33677727D01*
X6058341Y33720000D01*
X5841659Y33720000D01*
X5629142Y33677727D01*
X5428955Y33594807D01*
X5248791Y33474425D01*
X5095575Y33321209D01*
X4975193Y33141045D01*
X4892273Y32940858D01*
X4850000Y32728341D01*
X4510000Y32728341D01*
X4467727Y32940858D01*
X4384807Y33141045D01*
X4264425Y33321209D01*
X4111209Y33474425D01*
X3931045Y33594807D01*
X3730858Y33677727D01*
X3518341Y33720000D01*
X3301659Y33720000D01*
X3089142Y33677727D01*
X2888955Y33594807D01*
X2708791Y33474425D01*
X2555575Y33321209D01*
X2435193Y33141045D01*
X2352273Y32940858D01*
X2310000Y32728341D01*
X600000Y32728341D01*
X600000Y35268341D01*
X2310000Y35268341D01*
X2310000Y35051659D01*
X2352273Y34839142D01*
X2435193Y34638955D01*
X2555575Y34458791D01*
X2708791Y34305575D01*
X2888955Y34185193D01*
X3089142Y34102273D01*
X3301659Y34060000D01*
X3518341Y34060000D01*
X3730858Y34102273D01*
X3931045Y34185193D01*
X4111209Y34305575D01*
X4264425Y34458791D01*
X4384807Y34638955D01*
X4467727Y34839142D01*
X4510000Y35051659D01*
X4510000Y35268341D01*
X4850000Y35268341D01*
X4850000Y35051659D01*
X4892273Y34839142D01*
X4975193Y34638955D01*
X5095575Y34458791D01*
X5248791Y34305575D01*
X5428955Y34185193D01*
X5629142Y34102273D01*
X5841659Y34060000D01*
X6058341Y34060000D01*
X6270858Y34102273D01*
X6471045Y34185193D01*
X6651209Y34305575D01*
X6804425Y34458791D01*
X6924807Y34638955D01*
X7007727Y34839142D01*
X7050000Y35051659D01*
X7050000Y35268341D01*
X7007727Y35480858D01*
X6924807Y35681045D01*
X6804425Y35861209D01*
X6651209Y36014425D01*
X6471045Y36134807D01*
X6270858Y36217727D01*
X6058341Y36260000D01*
X5841659Y36260000D01*
X5629142Y36217727D01*
X5428955Y36134807D01*
X5248791Y36014425D01*
X5095575Y35861209D01*
X4975193Y35681045D01*
X4892273Y35480858D01*
X4850000Y35268341D01*
X4510000Y35268341D01*
X4467727Y35480858D01*
X4384807Y35681045D01*
X4264425Y35861209D01*
X4111209Y36014425D01*
X3931045Y36134807D01*
X3730858Y36217727D01*
X3518341Y36260000D01*
X3301659Y36260000D01*
X3089142Y36217727D01*
X2888955Y36134807D01*
X2708791Y36014425D01*
X2555575Y35861209D01*
X2435193Y35681045D01*
X2352273Y35480858D01*
X2310000Y35268341D01*
X600000Y35268341D01*
X600000Y37808341D01*
X2310000Y37808341D01*
X2310000Y37591659D01*
X2352273Y37379142D01*
X2435193Y37178955D01*
X2555575Y36998791D01*
X2708791Y36845575D01*
X2888955Y36725193D01*
X3089142Y36642273D01*
X3301659Y36600000D01*
X3518341Y36600000D01*
X3730858Y36642273D01*
X3931045Y36725193D01*
X4111209Y36845575D01*
X4264425Y36998791D01*
X4384807Y37178955D01*
X4467727Y37379142D01*
X4510000Y37591659D01*
X4510000Y37808341D01*
X4850000Y37808341D01*
X4850000Y37591659D01*
X4892273Y37379142D01*
X4975193Y37178955D01*
X5095575Y36998791D01*
X5248791Y36845575D01*
X5428955Y36725193D01*
X5629142Y36642273D01*
X5841659Y36600000D01*
X6058341Y36600000D01*
X6270858Y36642273D01*
X6471045Y36725193D01*
X6651209Y36845575D01*
X6804425Y36998791D01*
X6924807Y37178955D01*
X7007727Y37379142D01*
X7050000Y37591659D01*
X7050000Y37808341D01*
X7007727Y38020858D01*
X6924807Y38221045D01*
X6804425Y38401209D01*
X6651209Y38554425D01*
X6471045Y38674807D01*
X6270858Y38757727D01*
X6058341Y38800000D01*
X5841659Y38800000D01*
X5629142Y38757727D01*
X5428955Y38674807D01*
X5248791Y38554425D01*
X5095575Y38401209D01*
X4975193Y38221045D01*
X4892273Y38020858D01*
X4850000Y37808341D01*
X4510000Y37808341D01*
X4467727Y38020858D01*
X4384807Y38221045D01*
X4264425Y38401209D01*
X4111209Y38554425D01*
X3931045Y38674807D01*
X3730858Y38757727D01*
X3518341Y38800000D01*
X3301659Y38800000D01*
X3089142Y38757727D01*
X2888955Y38674807D01*
X2708791Y38554425D01*
X2555575Y38401209D01*
X2435193Y38221045D01*
X2352273Y38020858D01*
X2310000Y37808341D01*
X600000Y37808341D01*
X600000Y44900314D01*
X936723Y44396373D01*
X1396373Y43936723D01*
X1405000Y43930959D01*
X1405000Y41510000D01*
X1406921Y41490491D01*
X1412612Y41471732D01*
X1421853Y41454443D01*
X1434289Y41439289D01*
X1449443Y41426853D01*
X1466732Y41417612D01*
X1485491Y41411921D01*
X1505000Y41410000D01*
X3323810Y41410000D01*
X3323810Y41341451D01*
X2610000Y41341451D01*
X2551190Y41335659D01*
X2494640Y41318504D01*
X2442523Y41290647D01*
X2396842Y41253158D01*
X2359353Y41207477D01*
X2331496Y41155360D01*
X2314341Y41098810D01*
X2308549Y41040000D01*
X2308549Y39440000D01*
X2314341Y39381190D01*
X2331496Y39324640D01*
X2359353Y39272523D01*
X2396842Y39226842D01*
X2442523Y39189353D01*
X2494640Y39161496D01*
X2551190Y39144341D01*
X2610000Y39138549D01*
X4210000Y39138549D01*
X4268810Y39144341D01*
X4325360Y39161496D01*
X4377477Y39189353D01*
X4423158Y39226842D01*
X4460647Y39272523D01*
X4488504Y39324640D01*
X4505659Y39381190D01*
X4511451Y39440000D01*
X4511451Y40348341D01*
X4850000Y40348341D01*
X4850000Y40131659D01*
X4892273Y39919142D01*
X4975193Y39718955D01*
X5095575Y39538791D01*
X5248791Y39385575D01*
X5428955Y39265193D01*
X5629142Y39182273D01*
X5841659Y39140000D01*
X6058341Y39140000D01*
X6270858Y39182273D01*
X6471045Y39265193D01*
X6651209Y39385575D01*
X6804425Y39538791D01*
X6924807Y39718955D01*
X7007727Y39919142D01*
X7050000Y40131659D01*
X7050000Y40348341D01*
X7007727Y40560858D01*
X6924807Y40761045D01*
X6804425Y40941209D01*
X6651209Y41094425D01*
X6471045Y41214807D01*
X6270858Y41297727D01*
X6058341Y41340000D01*
X5841659Y41340000D01*
X5629142Y41297727D01*
X5428955Y41214807D01*
X5248791Y41094425D01*
X5095575Y40941209D01*
X4975193Y40761045D01*
X4892273Y40560858D01*
X4850000Y40348341D01*
X4511451Y40348341D01*
X4511451Y41040000D01*
X4505659Y41098810D01*
X4488504Y41155360D01*
X4460647Y41207477D01*
X4450370Y41220000D01*
X5076191Y41220000D01*
X5076191Y41410000D01*
X5950000Y41410000D01*
X5969509Y41411921D01*
X5988268Y41417612D01*
X6005557Y41426853D01*
X6020711Y41439289D01*
X6033147Y41454443D01*
X6042388Y41471732D01*
X6048079Y41490491D01*
X6050000Y41510000D01*
X6050000Y44050000D01*
X6048079Y44069509D01*
X6042388Y44088268D01*
X6033147Y44105557D01*
X6020711Y44120711D01*
X6005557Y44133147D01*
X5988268Y44142388D01*
X5969509Y44148079D01*
X5950000Y44150000D01*
X5816904Y44150000D01*
X5991730Y44324826D01*
X7712615Y44324826D01*
X7787924Y44091673D01*
X8041048Y43978307D01*
X8311426Y43916502D01*
X8588666Y43908631D01*
X8862114Y43954999D01*
X9121263Y44053823D01*
X9192076Y44091673D01*
X9267385Y44324826D01*
X8490000Y45102211D01*
X7712615Y44324826D01*
X5991730Y44324826D01*
X6063277Y44396373D01*
X6424422Y44936864D01*
X6542253Y45221334D01*
X7078631Y45221334D01*
X7124999Y44947886D01*
X7223823Y44688737D01*
X7261673Y44617924D01*
X7494826Y44542615D01*
X8272211Y45320000D01*
X8707789Y45320000D01*
X9485174Y44542615D01*
X9718327Y44617924D01*
X9831693Y44871048D01*
X9893498Y45141426D01*
X9901369Y45418666D01*
X9899729Y45428341D01*
X9930000Y45428341D01*
X9930000Y45211659D01*
X9972273Y44999142D01*
X10055193Y44798955D01*
X10175575Y44618791D01*
X10328791Y44465575D01*
X10508955Y44345193D01*
X10709142Y44262273D01*
X10921659Y44220000D01*
X11138341Y44220000D01*
X11350858Y44262273D01*
X11551045Y44345193D01*
X11731209Y44465575D01*
X11884425Y44618791D01*
X12004807Y44798955D01*
X12087727Y44999142D01*
X12130000Y45211659D01*
X12130000Y45428341D01*
X12087727Y45640858D01*
X12004807Y45841045D01*
X11884425Y46021209D01*
X11731209Y46174425D01*
X11551045Y46294807D01*
X11350858Y46377727D01*
X11138341Y46420000D01*
X10921659Y46420000D01*
X10709142Y46377727D01*
X10508955Y46294807D01*
X10328791Y46174425D01*
X10175575Y46021209D01*
X10055193Y45841045D01*
X9972273Y45640858D01*
X9930000Y45428341D01*
X9899729Y45428341D01*
X9855001Y45692114D01*
X9756177Y45951263D01*
X9718327Y46022076D01*
X9485174Y46097385D01*
X8707789Y45320000D01*
X8272211Y45320000D01*
X7494826Y46097385D01*
X7261673Y46022076D01*
X7148307Y45768952D01*
X7086502Y45498574D01*
X7078631Y45221334D01*
X6542253Y45221334D01*
X6673183Y45537426D01*
X6800000Y46174978D01*
X6800000Y46825022D01*
X6792083Y46864826D01*
X7712615Y46864826D01*
X7787924Y46631673D01*
X7875357Y46592515D01*
X7858737Y46586177D01*
X7787924Y46548327D01*
X7712615Y46315174D01*
X8490000Y45537789D01*
X9267385Y46315174D01*
X9192076Y46548327D01*
X9104643Y46587485D01*
X9121263Y46593823D01*
X9192076Y46631673D01*
X9267385Y46864826D01*
X8490000Y47642211D01*
X7712615Y46864826D01*
X6792083Y46864826D01*
X6673183Y47462574D01*
X6549433Y47761334D01*
X7078631Y47761334D01*
X7124999Y47487886D01*
X7223823Y47228737D01*
X7261673Y47157924D01*
X7494826Y47082615D01*
X8272211Y47860000D01*
X8707789Y47860000D01*
X9485174Y47082615D01*
X9718327Y47157924D01*
X9831693Y47411048D01*
X9893498Y47681426D01*
X9901369Y47958666D01*
X9899729Y47968341D01*
X9930000Y47968341D01*
X9930000Y47751659D01*
X9972273Y47539142D01*
X10055193Y47338955D01*
X10175575Y47158791D01*
X10328791Y47005575D01*
X10508955Y46885193D01*
X10709142Y46802273D01*
X10921659Y46760000D01*
X11138341Y46760000D01*
X11350858Y46802273D01*
X11551045Y46885193D01*
X11731209Y47005575D01*
X11884425Y47158791D01*
X12004807Y47338955D01*
X12087727Y47539142D01*
X12130000Y47751659D01*
X12130000Y47968341D01*
X12470000Y47968341D01*
X12470000Y47751659D01*
X12512273Y47539142D01*
X12595193Y47338955D01*
X12715575Y47158791D01*
X12868791Y47005575D01*
X13048955Y46885193D01*
X13249142Y46802273D01*
X13461659Y46760000D01*
X13678341Y46760000D01*
X13890858Y46802273D01*
X14091045Y46885193D01*
X14271209Y47005575D01*
X14424425Y47158791D01*
X14544807Y47338955D01*
X14627727Y47539142D01*
X14670000Y47751659D01*
X14670000Y47968341D01*
X15010000Y47968341D01*
X15010000Y47751659D01*
X15052273Y47539142D01*
X15135193Y47338955D01*
X15255575Y47158791D01*
X15408791Y47005575D01*
X15588955Y46885193D01*
X15789142Y46802273D01*
X16001659Y46760000D01*
X16218341Y46760000D01*
X16430858Y46802273D01*
X16631045Y46885193D01*
X16811209Y47005575D01*
X16964425Y47158791D01*
X17084807Y47338955D01*
X17167727Y47539142D01*
X17210000Y47751659D01*
X17210000Y47968341D01*
X17167727Y48180858D01*
X17084807Y48381045D01*
X16964425Y48561209D01*
X16865634Y48660000D01*
X17548549Y48660000D01*
X17548549Y47060000D01*
X17554341Y47001190D01*
X17571496Y46944640D01*
X17599353Y46892523D01*
X17636842Y46846842D01*
X17682523Y46809353D01*
X17734640Y46781496D01*
X17791190Y46764341D01*
X17850000Y46758549D01*
X19450000Y46758549D01*
X19508810Y46764341D01*
X19565360Y46781496D01*
X19617477Y46809353D01*
X19663158Y46846842D01*
X19677916Y46864826D01*
X30572615Y46864826D01*
X30647924Y46631673D01*
X30735357Y46592515D01*
X30718737Y46586177D01*
X30647924Y46548327D01*
X30572615Y46315174D01*
X31350000Y45537789D01*
X32127385Y46315174D01*
X32052076Y46548327D01*
X31964643Y46587485D01*
X31981263Y46593823D01*
X32052076Y46631673D01*
X32127385Y46864826D01*
X31350000Y47642211D01*
X30572615Y46864826D01*
X19677916Y46864826D01*
X19700647Y46892523D01*
X19728504Y46944640D01*
X19745659Y47001190D01*
X19751451Y47060000D01*
X19751451Y47761334D01*
X29938631Y47761334D01*
X29984999Y47487886D01*
X30083823Y47228737D01*
X30121673Y47157924D01*
X30354826Y47082615D01*
X31132211Y47860000D01*
X31567789Y47860000D01*
X32345174Y47082615D01*
X32578327Y47157924D01*
X32691693Y47411048D01*
X32753498Y47681426D01*
X32761369Y47958666D01*
X32759729Y47968341D01*
X32790000Y47968341D01*
X32790000Y47751659D01*
X32832273Y47539142D01*
X32915193Y47338955D01*
X33035575Y47158791D01*
X33188791Y47005575D01*
X33368955Y46885193D01*
X33569142Y46802273D01*
X33781659Y46760000D01*
X33998341Y46760000D01*
X34210858Y46802273D01*
X34411045Y46885193D01*
X34591209Y47005575D01*
X34744425Y47158791D01*
X34864807Y47338955D01*
X34947727Y47539142D01*
X34990000Y47751659D01*
X34990000Y47968341D01*
X35330000Y47968341D01*
X35330000Y47751659D01*
X35372273Y47539142D01*
X35455193Y47338955D01*
X35575575Y47158791D01*
X35728791Y47005575D01*
X35908955Y46885193D01*
X36109142Y46802273D01*
X36321659Y46760000D01*
X36538341Y46760000D01*
X36750858Y46802273D01*
X36951045Y46885193D01*
X37131209Y47005575D01*
X37284425Y47158791D01*
X37404807Y47338955D01*
X37487727Y47539142D01*
X37530000Y47751659D01*
X37530000Y47968341D01*
X37870000Y47968341D01*
X37870000Y47751659D01*
X37912273Y47539142D01*
X37995193Y47338955D01*
X38115575Y47158791D01*
X38268791Y47005575D01*
X38448955Y46885193D01*
X38649142Y46802273D01*
X38861659Y46760000D01*
X39078341Y46760000D01*
X39290858Y46802273D01*
X39491045Y46885193D01*
X39671209Y47005575D01*
X39824425Y47158791D01*
X39944807Y47338955D01*
X40027727Y47539142D01*
X40070000Y47751659D01*
X40070000Y47968341D01*
X40027727Y48180858D01*
X39944807Y48381045D01*
X39824425Y48561209D01*
X39725634Y48660000D01*
X40408549Y48660000D01*
X40408549Y47060000D01*
X40414341Y47001190D01*
X40431496Y46944640D01*
X40459353Y46892523D01*
X40496842Y46846842D01*
X40542523Y46809353D01*
X40594640Y46781496D01*
X40651190Y46764341D01*
X40710000Y46758549D01*
X42310000Y46758549D01*
X42368810Y46764341D01*
X42425360Y46781496D01*
X42477477Y46809353D01*
X42523158Y46846842D01*
X42560647Y46892523D01*
X42588504Y46944640D01*
X42605659Y47001190D01*
X42611451Y47060000D01*
X42611451Y48660000D01*
X42605659Y48718810D01*
X42588504Y48775360D01*
X42560647Y48827477D01*
X42523158Y48873158D01*
X42477477Y48910647D01*
X42425360Y48938504D01*
X42368810Y48955659D01*
X42310000Y48961451D01*
X40710000Y48961451D01*
X40651190Y48955659D01*
X40594640Y48938504D01*
X40542523Y48910647D01*
X40496842Y48873158D01*
X40459353Y48827477D01*
X40431496Y48775360D01*
X40414341Y48718810D01*
X40408549Y48660000D01*
X39725634Y48660000D01*
X39671209Y48714425D01*
X39491045Y48834807D01*
X39290858Y48917727D01*
X39078341Y48960000D01*
X38861659Y48960000D01*
X38649142Y48917727D01*
X38448955Y48834807D01*
X38268791Y48714425D01*
X38115575Y48561209D01*
X37995193Y48381045D01*
X37912273Y48180858D01*
X37870000Y47968341D01*
X37530000Y47968341D01*
X37487727Y48180858D01*
X37404807Y48381045D01*
X37284425Y48561209D01*
X37131209Y48714425D01*
X36951045Y48834807D01*
X36750858Y48917727D01*
X36538341Y48960000D01*
X36321659Y48960000D01*
X36109142Y48917727D01*
X35908955Y48834807D01*
X35728791Y48714425D01*
X35575575Y48561209D01*
X35455193Y48381045D01*
X35372273Y48180858D01*
X35330000Y47968341D01*
X34990000Y47968341D01*
X34947727Y48180858D01*
X34864807Y48381045D01*
X34744425Y48561209D01*
X34591209Y48714425D01*
X34411045Y48834807D01*
X34210858Y48917727D01*
X33998341Y48960000D01*
X33781659Y48960000D01*
X33569142Y48917727D01*
X33368955Y48834807D01*
X33188791Y48714425D01*
X33035575Y48561209D01*
X32915193Y48381045D01*
X32832273Y48180858D01*
X32790000Y47968341D01*
X32759729Y47968341D01*
X32715001Y48232114D01*
X32616177Y48491263D01*
X32578327Y48562076D01*
X32345174Y48637385D01*
X31567789Y47860000D01*
X31132211Y47860000D01*
X30354826Y48637385D01*
X30121673Y48562076D01*
X30008307Y48308952D01*
X29946502Y48038574D01*
X29938631Y47761334D01*
X19751451Y47761334D01*
X19751451Y48660000D01*
X19745659Y48718810D01*
X19728504Y48775360D01*
X19700647Y48827477D01*
X19663158Y48873158D01*
X19617477Y48910647D01*
X19565360Y48938504D01*
X19508810Y48955659D01*
X19450000Y48961451D01*
X17850000Y48961451D01*
X17791190Y48955659D01*
X17734640Y48938504D01*
X17682523Y48910647D01*
X17636842Y48873158D01*
X17599353Y48827477D01*
X17571496Y48775360D01*
X17554341Y48718810D01*
X17548549Y48660000D01*
X16865634Y48660000D01*
X16811209Y48714425D01*
X16631045Y48834807D01*
X16430858Y48917727D01*
X16218341Y48960000D01*
X16001659Y48960000D01*
X15789142Y48917727D01*
X15588955Y48834807D01*
X15408791Y48714425D01*
X15255575Y48561209D01*
X15135193Y48381045D01*
X15052273Y48180858D01*
X15010000Y47968341D01*
X14670000Y47968341D01*
X14627727Y48180858D01*
X14544807Y48381045D01*
X14424425Y48561209D01*
X14271209Y48714425D01*
X14091045Y48834807D01*
X13890858Y48917727D01*
X13678341Y48960000D01*
X13461659Y48960000D01*
X13249142Y48917727D01*
X13048955Y48834807D01*
X12868791Y48714425D01*
X12715575Y48561209D01*
X12595193Y48381045D01*
X12512273Y48180858D01*
X12470000Y47968341D01*
X12130000Y47968341D01*
X12087727Y48180858D01*
X12004807Y48381045D01*
X11884425Y48561209D01*
X11731209Y48714425D01*
X11551045Y48834807D01*
X11350858Y48917727D01*
X11138341Y48960000D01*
X10921659Y48960000D01*
X10709142Y48917727D01*
X10508955Y48834807D01*
X10328791Y48714425D01*
X10175575Y48561209D01*
X10055193Y48381045D01*
X9972273Y48180858D01*
X9930000Y47968341D01*
X9899729Y47968341D01*
X9855001Y48232114D01*
X9756177Y48491263D01*
X9718327Y48562076D01*
X9485174Y48637385D01*
X8707789Y47860000D01*
X8272211Y47860000D01*
X7494826Y48637385D01*
X7261673Y48562076D01*
X7148307Y48308952D01*
X7086502Y48038574D01*
X7078631Y47761334D01*
X6549433Y47761334D01*
X6424422Y48063136D01*
X6063277Y48603627D01*
X5811730Y48855174D01*
X7712615Y48855174D01*
X8490000Y48077789D01*
X9267385Y48855174D01*
X9192076Y49088327D01*
X8938952Y49201693D01*
X8668574Y49263498D01*
X8391334Y49271369D01*
X8117886Y49225001D01*
X7858737Y49126177D01*
X7787924Y49088327D01*
X7712615Y48855174D01*
X5811730Y48855174D01*
X5603627Y49063277D01*
X5099686Y49400000D01*
X23940905Y49400000D01*
X23824986Y49376942D01*
X23824986Y49376942D01*
G37*
X23824986Y49376942D02*
X23715793Y49331713D01*
X23617522Y49266050D01*
X23533950Y49182478D01*
X23468287Y49084207D01*
X23423058Y48975014D01*
X23400000Y48859095D01*
X23400000Y48740905D01*
X23423058Y48624986D01*
X23468287Y48515793D01*
X23533950Y48417522D01*
X23617522Y48333950D01*
X23715793Y48268287D01*
X23824986Y48223058D01*
X23940905Y48200000D01*
X24059095Y48200000D01*
X24175014Y48223058D01*
X24284207Y48268287D01*
X24382478Y48333950D01*
X24466050Y48417522D01*
X24531713Y48515793D01*
X24576942Y48624986D01*
X24600000Y48740905D01*
X24600000Y48855174D01*
X30572615Y48855174D01*
X31350000Y48077789D01*
X32127385Y48855174D01*
X32052076Y49088327D01*
X31798952Y49201693D01*
X31528574Y49263498D01*
X31251334Y49271369D01*
X30977886Y49225001D01*
X30718737Y49126177D01*
X30647924Y49088327D01*
X30572615Y48855174D01*
X24600000Y48855174D01*
X24600000Y48859095D01*
X24576942Y48975014D01*
X24531713Y49084207D01*
X24466050Y49182478D01*
X24382478Y49266050D01*
X24284207Y49331713D01*
X24175014Y49376942D01*
X24059095Y49400000D01*
X44900314Y49400000D01*
X44396373Y49063277D01*
X43936723Y48603627D01*
X43575578Y48063136D01*
X43326817Y47462574D01*
X43200000Y46825022D01*
X43200000Y46174978D01*
X43326817Y45537426D01*
X43575578Y44936864D01*
X43936723Y44396373D01*
X44396373Y43936723D01*
X44936864Y43575578D01*
X45537426Y43326817D01*
X46174978Y43200000D01*
X46825022Y43200000D01*
X47462574Y43326817D01*
X48063136Y43575578D01*
X48603627Y43936723D01*
X49063277Y44396373D01*
X49400000Y44900314D01*
X49400000Y5099686D01*
X49063277Y5603627D01*
X48603627Y6063277D01*
X48063136Y6424422D01*
X47462574Y6673183D01*
X46825022Y6800000D01*
X46174978Y6800000D01*
X45537426Y6673183D01*
X44936864Y6424422D01*
X44396373Y6063277D01*
X43936723Y5603627D01*
X43575578Y5063136D01*
X43326817Y4462574D01*
X43200000Y3825022D01*
X43200000Y3174978D01*
X43326817Y2537426D01*
X43575578Y1936864D01*
X43936723Y1396373D01*
X44396373Y936723D01*
X44900314Y600000D01*
X5099686Y600000D01*
X5603627Y936723D01*
X6063277Y1396373D01*
X6424422Y1936864D01*
X6673183Y2537426D01*
X6800000Y3174978D01*
X6800000Y3825022D01*
X6673183Y4462574D01*
X6612071Y4610112D01*
X10091992Y1130190D01*
X10109210Y1109210D01*
X10130190Y1091992D01*
X10130195Y1091987D01*
X10142032Y1082273D01*
X10192958Y1040479D01*
X10288506Y989408D01*
X10392181Y957958D01*
X10472982Y950000D01*
X10472991Y950000D01*
X10499999Y947340D01*
X10527007Y950000D01*
X17472992Y950000D01*
X17500000Y947340D01*
X17527008Y950000D01*
X17527018Y950000D01*
X17607819Y957958D01*
X17711494Y989408D01*
X17807042Y1040479D01*
X17890790Y1109210D01*
X17908013Y1130196D01*
X18219161Y1441344D01*
X18284207Y1468287D01*
X18382478Y1533950D01*
X18466050Y1617522D01*
X18531713Y1715793D01*
X18576942Y1824986D01*
X18600000Y1940905D01*
X18600000Y2059095D01*
X18576942Y2175014D01*
X18531713Y2284207D01*
X18466050Y2382478D01*
X18382478Y2466050D01*
X18284207Y2531713D01*
X18175014Y2576942D01*
X18059095Y2600000D01*
X17940905Y2600000D01*
X17824986Y2576942D01*
X17715793Y2531713D01*
X17617522Y2466050D01*
X17533950Y2382478D01*
X17468287Y2284207D01*
X17441344Y2219161D01*
X17272183Y2050000D01*
X10727818Y2050000D01*
X9837818Y2940000D01*
X25168549Y2940000D01*
X25168549Y1340000D01*
X25174341Y1281190D01*
X25191496Y1224640D01*
X25219353Y1172523D01*
X25256842Y1126842D01*
X25302523Y1089353D01*
X25354640Y1061496D01*
X25411190Y1044341D01*
X25470000Y1038549D01*
X27070000Y1038549D01*
X27128810Y1044341D01*
X27185360Y1061496D01*
X27237477Y1089353D01*
X27283158Y1126842D01*
X27320647Y1172523D01*
X27348504Y1224640D01*
X27365659Y1281190D01*
X27371451Y1340000D01*
X27371451Y2248341D01*
X27710000Y2248341D01*
X27710000Y2031659D01*
X27752273Y1819142D01*
X27835193Y1618955D01*
X27955575Y1438791D01*
X28108791Y1285575D01*
X28288955Y1165193D01*
X28489142Y1082273D01*
X28701659Y1040000D01*
X28918341Y1040000D01*
X29130858Y1082273D01*
X29331045Y1165193D01*
X29511209Y1285575D01*
X29664425Y1438791D01*
X29784807Y1618955D01*
X29867727Y1819142D01*
X29910000Y2031659D01*
X29910000Y2248341D01*
X30250000Y2248341D01*
X30250000Y2031659D01*
X30292273Y1819142D01*
X30375193Y1618955D01*
X30495575Y1438791D01*
X30648791Y1285575D01*
X30828955Y1165193D01*
X31029142Y1082273D01*
X31241659Y1040000D01*
X31458341Y1040000D01*
X31670858Y1082273D01*
X31821874Y1144826D01*
X33112615Y1144826D01*
X33187924Y911673D01*
X33441048Y798307D01*
X33711426Y736502D01*
X33988666Y728631D01*
X34262114Y774999D01*
X34521263Y873823D01*
X34592076Y911673D01*
X34667385Y1144826D01*
X33890000Y1922211D01*
X33112615Y1144826D01*
X31821874Y1144826D01*
X31871045Y1165193D01*
X32051209Y1285575D01*
X32204425Y1438791D01*
X32324807Y1618955D01*
X32407727Y1819142D01*
X32450000Y2031659D01*
X32450000Y2248341D01*
X32407727Y2460858D01*
X32324807Y2661045D01*
X32204425Y2841209D01*
X32051209Y2994425D01*
X31871045Y3114807D01*
X31670858Y3197727D01*
X31458341Y3240000D01*
X31241659Y3240000D01*
X31029142Y3197727D01*
X30828955Y3114807D01*
X30648791Y2994425D01*
X30495575Y2841209D01*
X30375193Y2661045D01*
X30292273Y2460858D01*
X30250000Y2248341D01*
X29910000Y2248341D01*
X29867727Y2460858D01*
X29784807Y2661045D01*
X29664425Y2841209D01*
X29511209Y2994425D01*
X29331045Y3114807D01*
X29130858Y3197727D01*
X28918341Y3240000D01*
X28701659Y3240000D01*
X28489142Y3197727D01*
X28288955Y3114807D01*
X28108791Y2994425D01*
X27955575Y2841209D01*
X27835193Y2661045D01*
X27752273Y2460858D01*
X27710000Y2248341D01*
X27371451Y2248341D01*
X27371451Y2940000D01*
X27365659Y2998810D01*
X27348504Y3055360D01*
X27320647Y3107477D01*
X27283158Y3153158D01*
X27237477Y3190647D01*
X27185360Y3218504D01*
X27128810Y3235659D01*
X27070000Y3241451D01*
X25470000Y3241451D01*
X25411190Y3235659D01*
X25354640Y3218504D01*
X25302523Y3190647D01*
X25256842Y3153158D01*
X25219353Y3107477D01*
X25191496Y3055360D01*
X25174341Y2998810D01*
X25168549Y2940000D01*
X9837818Y2940000D01*
X9505818Y3272000D01*
X10241000Y3272000D01*
X10241000Y4526000D01*
X8348477Y4526000D01*
X8315632Y4462185D01*
X7726775Y5051042D01*
X8236769Y5051042D01*
X8348477Y4834000D01*
X10241000Y4834000D01*
X10241000Y6088000D01*
X9441000Y6088000D01*
X9169272Y6030902D01*
X8913904Y5921889D01*
X8684711Y5765151D01*
X8490499Y5566712D01*
X8338733Y5334197D01*
X8236769Y5051042D01*
X7726775Y5051042D01*
X7050000Y5727817D01*
X7050000Y6259942D01*
X7076942Y6324986D01*
X7100000Y6440905D01*
X7100000Y6559095D01*
X7076942Y6675014D01*
X7031713Y6784207D01*
X6966050Y6882478D01*
X6882478Y6966050D01*
X6784207Y7031713D01*
X6675014Y7076942D01*
X6559095Y7100000D01*
X6440905Y7100000D01*
X6324986Y7076942D01*
X6215793Y7031713D01*
X6117522Y6966050D01*
X6033950Y6882478D01*
X5968287Y6784207D01*
X5923058Y6675014D01*
X5900000Y6559095D01*
X5900000Y6440905D01*
X5923058Y6324986D01*
X5950001Y6259940D01*
X5950000Y5716904D01*
X5603627Y6063277D01*
X5063136Y6424422D01*
X4462574Y6673183D01*
X3825022Y6800000D01*
X3174978Y6800000D01*
X2537426Y6673183D01*
X1936864Y6424422D01*
X1396373Y6063277D01*
X936723Y5603627D01*
X600000Y5099686D01*
X600000Y18659095D01*
X1700000Y18659095D01*
X1700000Y18540905D01*
X1723058Y18424986D01*
X1768287Y18315793D01*
X1833950Y18217522D01*
X1917522Y18133950D01*
X2015793Y18068287D01*
X2124986Y18023058D01*
X2240905Y18000000D01*
X2359095Y18000000D01*
X2475014Y18023058D01*
X2584207Y18068287D01*
X2682478Y18133950D01*
X2766050Y18217522D01*
X2831713Y18315793D01*
X2876942Y18424986D01*
X2900000Y18540905D01*
X2900000Y18659095D01*
X2876942Y18775014D01*
X2831713Y18884207D01*
X2766050Y18982478D01*
X2682478Y19066050D01*
X2584207Y19131713D01*
X2475014Y19176942D01*
X2359095Y19200000D01*
X2240905Y19200000D01*
X2124986Y19176942D01*
X2015793Y19131713D01*
X1917522Y19066050D01*
X1833950Y18982478D01*
X1768287Y18884207D01*
X1723058Y18775014D01*
X1700000Y18659095D01*
X600000Y18659095D01*
X600000Y22400000D01*
X1096130Y22400000D01*
X1111576Y22243173D01*
X1157321Y22092372D01*
X1231607Y21953394D01*
X1331578Y21831578D01*
X1362103Y21806527D01*
X2000000Y21168629D01*
X2000001Y20239300D01*
X1996130Y20200000D01*
X2011577Y20043173D01*
X2057321Y19892373D01*
X2131607Y19753394D01*
X2201366Y19668393D01*
X2231579Y19631578D01*
X2262098Y19606532D01*
X3200000Y18668629D01*
X3200001Y12039301D01*
X3196130Y12000000D01*
X3211577Y11843173D01*
X3257321Y11692373D01*
X3331607Y11553394D01*
X3403502Y11465790D01*
X3431579Y11431578D01*
X3462099Y11406531D01*
X6406527Y8462103D01*
X6431578Y8431578D01*
X6479583Y8392182D01*
X6553393Y8331607D01*
X6642072Y8284207D01*
X6692372Y8257321D01*
X6843173Y8211576D01*
X6960707Y8200000D01*
X6960709Y8200000D01*
X7000000Y8196130D01*
X7039291Y8200000D01*
X10668630Y8200000D01*
X12906530Y5962099D01*
X12931578Y5931578D01*
X12962098Y5906531D01*
X13053393Y5831607D01*
X13147228Y5781451D01*
X13192372Y5757321D01*
X13253867Y5738667D01*
X13249142Y5737727D01*
X13048955Y5654807D01*
X12868791Y5534425D01*
X12715575Y5381209D01*
X12595193Y5201045D01*
X12543850Y5077092D01*
X12451267Y5334197D01*
X12299501Y5566712D01*
X12105289Y5765151D01*
X11876096Y5921889D01*
X11620728Y6030902D01*
X11349000Y6088000D01*
X10549000Y6088000D01*
X10549000Y4834000D01*
X10569000Y4834000D01*
X10569000Y4526000D01*
X10549000Y4526000D01*
X10549000Y3272000D01*
X11349000Y3272000D01*
X11620728Y3329098D01*
X11876096Y3438111D01*
X12105289Y3594849D01*
X12299501Y3793288D01*
X12451267Y4025803D01*
X12543850Y4282908D01*
X12595193Y4158955D01*
X12715575Y3978791D01*
X12868791Y3825575D01*
X13048955Y3705193D01*
X13249142Y3622273D01*
X13461659Y3580000D01*
X13678341Y3580000D01*
X13890858Y3622273D01*
X14091045Y3705193D01*
X14271209Y3825575D01*
X14424425Y3978791D01*
X14544807Y4158955D01*
X14627727Y4359142D01*
X14670000Y4571659D01*
X14670000Y4788341D01*
X14627727Y5000858D01*
X14544807Y5201045D01*
X14424425Y5381209D01*
X14271209Y5534425D01*
X14091045Y5654807D01*
X13981939Y5700000D01*
X17628630Y5700000D01*
X18916531Y4412098D01*
X18941578Y4381578D01*
X18972098Y4356531D01*
X19063393Y4281607D01*
X19202372Y4207321D01*
X19353173Y4161576D01*
X19470707Y4150000D01*
X19470708Y4150000D01*
X19509999Y4146130D01*
X19549290Y4150000D01*
X22600709Y4150000D01*
X22640000Y4146130D01*
X22679291Y4150000D01*
X22679293Y4150000D01*
X22796827Y4161576D01*
X22947628Y4207321D01*
X23086606Y4281607D01*
X23208422Y4381578D01*
X23233473Y4412103D01*
X24371371Y5550000D01*
X25177736Y5550000D01*
X25174341Y5538810D01*
X25168549Y5480000D01*
X25168549Y3880000D01*
X25174341Y3821190D01*
X25191496Y3764640D01*
X25219353Y3712523D01*
X25256842Y3666842D01*
X25302523Y3629353D01*
X25354640Y3601496D01*
X25411190Y3584341D01*
X25470000Y3578549D01*
X27070000Y3578549D01*
X27128810Y3584341D01*
X27185360Y3601496D01*
X27237477Y3629353D01*
X27283158Y3666842D01*
X27320647Y3712523D01*
X27348504Y3764640D01*
X27365659Y3821190D01*
X27371451Y3880000D01*
X27371451Y4788341D01*
X27710000Y4788341D01*
X27710000Y4571659D01*
X27752273Y4359142D01*
X27835193Y4158955D01*
X27955575Y3978791D01*
X28108791Y3825575D01*
X28288955Y3705193D01*
X28489142Y3622273D01*
X28701659Y3580000D01*
X28918341Y3580000D01*
X29130858Y3622273D01*
X29331045Y3705193D01*
X29511209Y3825575D01*
X29664425Y3978791D01*
X29784807Y4158955D01*
X29867727Y4359142D01*
X29910000Y4571659D01*
X29910000Y4788341D01*
X29867727Y5000858D01*
X29784807Y5201045D01*
X29664425Y5381209D01*
X29511209Y5534425D01*
X29331045Y5654807D01*
X29130858Y5737727D01*
X28918341Y5780000D01*
X28701659Y5780000D01*
X28489142Y5737727D01*
X28288955Y5654807D01*
X28108791Y5534425D01*
X27955575Y5381209D01*
X27835193Y5201045D01*
X27752273Y5000858D01*
X27710000Y4788341D01*
X27371451Y4788341D01*
X27371451Y5480000D01*
X27365659Y5538810D01*
X27348504Y5595360D01*
X27320647Y5647477D01*
X27283158Y5693158D01*
X27237477Y5730647D01*
X27185360Y5758504D01*
X27128810Y5775659D01*
X27070000Y5781451D01*
X26918267Y5781451D01*
X26918422Y5781578D01*
X26943473Y5812103D01*
X29093469Y7962098D01*
X29168393Y8053393D01*
X29242679Y8192372D01*
X29288423Y8343172D01*
X29303869Y8499999D01*
X29288423Y8656826D01*
X29242679Y8807627D01*
X29168393Y8946606D01*
X29068421Y9068421D01*
X28946606Y9168393D01*
X28807627Y9242679D01*
X28656826Y9288423D01*
X28499999Y9303869D01*
X28343172Y9288423D01*
X28192372Y9242679D01*
X28053393Y9168393D01*
X27962098Y9093469D01*
X26018630Y7150000D01*
X24079291Y7150000D01*
X24040000Y7153870D01*
X24000709Y7150000D01*
X24000707Y7150000D01*
X23883173Y7138424D01*
X23756506Y7100000D01*
X23732372Y7092679D01*
X23593393Y7018393D01*
X23502098Y6943469D01*
X23471578Y6918422D01*
X23446531Y6887902D01*
X23300000Y6741371D01*
X23300000Y20875736D01*
X26124264Y23700000D01*
X30700000Y23700000D01*
X30758527Y23705764D01*
X30814805Y23722836D01*
X30866671Y23750559D01*
X30912132Y23787868D01*
X31400001Y24275737D01*
X31400000Y13265686D01*
X30284315Y12150000D01*
X28169635Y12150000D01*
X28149999Y12151934D01*
X28130363Y12150000D01*
X28130353Y12150000D01*
X28071586Y12144212D01*
X27996186Y12121340D01*
X27926697Y12084197D01*
X27926695Y12084196D01*
X27926696Y12084196D01*
X27881049Y12046735D01*
X27881047Y12046733D01*
X27865789Y12034211D01*
X27853267Y12018953D01*
X24634315Y8800000D01*
X24540905Y8800000D01*
X24424986Y8776942D01*
X24315793Y8731713D01*
X24217522Y8666050D01*
X24133950Y8582478D01*
X24068287Y8484207D01*
X24023058Y8375014D01*
X24000000Y8259095D01*
X24000000Y8140905D01*
X24023058Y8024986D01*
X24068287Y7915793D01*
X24133950Y7817522D01*
X24217522Y7733950D01*
X24315793Y7668287D01*
X24424986Y7623058D01*
X24540905Y7600000D01*
X24659095Y7600000D01*
X24775014Y7623058D01*
X24884207Y7668287D01*
X24982478Y7733950D01*
X25066050Y7817522D01*
X25131713Y7915793D01*
X25176942Y8024986D01*
X25200000Y8140905D01*
X25200000Y8234315D01*
X28315686Y11350000D01*
X30430354Y11350000D01*
X30450000Y11348065D01*
X30469646Y11350000D01*
X30469647Y11350000D01*
X30528414Y11355788D01*
X30603814Y11378660D01*
X30673303Y11415803D01*
X30734211Y11465789D01*
X30746737Y11481052D01*
X31989988Y12724302D01*
X31989988Y10053675D01*
X29981047Y8044734D01*
X29965789Y8032212D01*
X29953267Y8016954D01*
X29953264Y8016951D01*
X29915802Y7971303D01*
X29878660Y7901815D01*
X29855787Y7826414D01*
X29848064Y7748001D01*
X29850000Y7728345D01*
X29849999Y5799648D01*
X29848064Y5780001D01*
X29849999Y5760355D01*
X29855787Y5701588D01*
X29878659Y5626188D01*
X29915802Y5556699D01*
X29965788Y5495790D01*
X29981051Y5483264D01*
X30342411Y5121903D01*
X30292273Y5000858D01*
X30250000Y4788341D01*
X30250000Y4571659D01*
X30292273Y4359142D01*
X30375193Y4158955D01*
X30495575Y3978791D01*
X30648791Y3825575D01*
X30828955Y3705193D01*
X31029142Y3622273D01*
X31241659Y3580000D01*
X31458341Y3580000D01*
X31670858Y3622273D01*
X31871045Y3705193D01*
X32051209Y3825575D01*
X32204425Y3978791D01*
X32324807Y4158955D01*
X32390000Y4316345D01*
X32390000Y3779658D01*
X32388064Y3760001D01*
X32395787Y3681588D01*
X32418660Y3606187D01*
X32455802Y3536699D01*
X32493264Y3491051D01*
X32493267Y3491048D01*
X32505789Y3475790D01*
X32521046Y3463269D01*
X32853267Y3131047D01*
X32865716Y3115879D01*
X32781023Y3031186D01*
X32894824Y2917385D01*
X32661673Y2842076D01*
X32548307Y2588952D01*
X32486502Y2318574D01*
X32478631Y2041334D01*
X32524999Y1767886D01*
X32623823Y1508737D01*
X32661673Y1437924D01*
X32894826Y1362615D01*
X33672211Y2140000D01*
X33658069Y2154142D01*
X33875858Y2371931D01*
X33890000Y2357789D01*
X33904142Y2371931D01*
X34121931Y2154142D01*
X34107789Y2140000D01*
X34885174Y1362615D01*
X35118327Y1437924D01*
X35231693Y1691048D01*
X35293498Y1961426D01*
X35301369Y2238666D01*
X35255001Y2512114D01*
X35156177Y2771263D01*
X35118327Y2842076D01*
X34885176Y2917385D01*
X34967791Y3000000D01*
X35330354Y3000000D01*
X35350000Y2998065D01*
X35369646Y3000000D01*
X35369647Y3000000D01*
X35428414Y3005788D01*
X35503814Y3028660D01*
X35573303Y3065803D01*
X35634211Y3115789D01*
X35646737Y3131052D01*
X36965685Y4450000D01*
X37059095Y4450000D01*
X37175014Y4473058D01*
X37284207Y4518287D01*
X37382478Y4583950D01*
X37466050Y4667522D01*
X37531713Y4765793D01*
X37576942Y4874986D01*
X37600000Y4990905D01*
X37600000Y5109095D01*
X37576942Y5225014D01*
X37531713Y5334207D01*
X37466050Y5432478D01*
X37382478Y5516050D01*
X37284207Y5581713D01*
X37175014Y5626942D01*
X37059095Y5650000D01*
X36940905Y5650000D01*
X36824986Y5626942D01*
X36715793Y5581713D01*
X36617522Y5516050D01*
X36533950Y5432478D01*
X36468287Y5334207D01*
X36423058Y5225014D01*
X36400000Y5109095D01*
X36400000Y5015685D01*
X35184315Y3800000D01*
X34552933Y3800000D01*
X34591209Y3825575D01*
X34744425Y3978791D01*
X34864807Y4158955D01*
X34947727Y4359142D01*
X34990000Y4571659D01*
X34990000Y4788341D01*
X34947727Y5000858D01*
X34897589Y5121903D01*
X35468954Y5693268D01*
X35484211Y5705789D01*
X35504612Y5730647D01*
X35534197Y5766697D01*
X35571340Y5836186D01*
X35594212Y5911586D01*
X35599374Y5964000D01*
X35600000Y5970353D01*
X35600000Y5970354D01*
X35601935Y5990000D01*
X35600000Y6009647D01*
X35600000Y6494366D01*
X35728791Y6365575D01*
X35908955Y6245193D01*
X36109142Y6162273D01*
X36321659Y6120000D01*
X36538341Y6120000D01*
X36750858Y6162273D01*
X36951045Y6245193D01*
X37131209Y6365575D01*
X37185634Y6420000D01*
X37559058Y6420000D01*
X37570797Y6300811D01*
X37605563Y6186203D01*
X37662020Y6080579D01*
X37737999Y5987999D01*
X37830579Y5912020D01*
X37936203Y5855563D01*
X38050811Y5820797D01*
X38170000Y5809058D01*
X38664000Y5812000D01*
X38816000Y5964000D01*
X38816000Y7066000D01*
X39124000Y7066000D01*
X39124000Y5964000D01*
X39276000Y5812000D01*
X39770000Y5809058D01*
X39889189Y5820797D01*
X40003797Y5855563D01*
X40109421Y5912020D01*
X40202001Y5987999D01*
X40277980Y6080579D01*
X40334437Y6186203D01*
X40369203Y6300811D01*
X40380942Y6420000D01*
X40378000Y6914000D01*
X40226000Y7066000D01*
X39124000Y7066000D01*
X38816000Y7066000D01*
X37714000Y7066000D01*
X37562000Y6914000D01*
X37559058Y6420000D01*
X37185634Y6420000D01*
X37284425Y6518791D01*
X37404807Y6698955D01*
X37487727Y6899142D01*
X37530000Y7111659D01*
X37530000Y7328341D01*
X37487727Y7540858D01*
X37404807Y7741045D01*
X37284425Y7921209D01*
X37185634Y8020000D01*
X37559058Y8020000D01*
X37562000Y7526000D01*
X37714000Y7374000D01*
X38816000Y7374000D01*
X38816000Y8476000D01*
X39124000Y8476000D01*
X39124000Y7374000D01*
X40226000Y7374000D01*
X40378000Y7526000D01*
X40380474Y7941495D01*
X40424986Y7923058D01*
X40540905Y7900000D01*
X40659095Y7900000D01*
X40775014Y7923058D01*
X40884207Y7968287D01*
X40982478Y8033950D01*
X41066050Y8117522D01*
X41131713Y8215793D01*
X41176942Y8324986D01*
X41200000Y8440905D01*
X41200000Y8559095D01*
X41176942Y8675014D01*
X41150000Y8740058D01*
X41150000Y9868341D01*
X42950000Y9868341D01*
X42950000Y9651659D01*
X42992273Y9439142D01*
X43075193Y9238955D01*
X43195575Y9058791D01*
X43348791Y8905575D01*
X43528955Y8785193D01*
X43729142Y8702273D01*
X43941659Y8660000D01*
X44158341Y8660000D01*
X44370858Y8702273D01*
X44571045Y8785193D01*
X44751209Y8905575D01*
X44904425Y9058791D01*
X45024807Y9238955D01*
X45107727Y9439142D01*
X45150000Y9651659D01*
X45150000Y9868341D01*
X45107727Y10080858D01*
X45024807Y10281045D01*
X44904425Y10461209D01*
X44805634Y10560000D01*
X45488549Y10560000D01*
X45488549Y8960000D01*
X45494341Y8901190D01*
X45511496Y8844640D01*
X45539353Y8792523D01*
X45576842Y8746842D01*
X45622523Y8709353D01*
X45674640Y8681496D01*
X45731190Y8664341D01*
X45790000Y8658549D01*
X47390000Y8658549D01*
X47448810Y8664341D01*
X47505360Y8681496D01*
X47557477Y8709353D01*
X47603158Y8746842D01*
X47640647Y8792523D01*
X47668504Y8844640D01*
X47685659Y8901190D01*
X47691451Y8960000D01*
X47691451Y10560000D01*
X47685659Y10618810D01*
X47668504Y10675360D01*
X47640647Y10727477D01*
X47603158Y10773158D01*
X47557477Y10810647D01*
X47505360Y10838504D01*
X47448810Y10855659D01*
X47390000Y10861451D01*
X45790000Y10861451D01*
X45731190Y10855659D01*
X45674640Y10838504D01*
X45622523Y10810647D01*
X45576842Y10773158D01*
X45539353Y10727477D01*
X45511496Y10675360D01*
X45494341Y10618810D01*
X45488549Y10560000D01*
X44805634Y10560000D01*
X44751209Y10614425D01*
X44571045Y10734807D01*
X44370858Y10817727D01*
X44158341Y10860000D01*
X43941659Y10860000D01*
X43729142Y10817727D01*
X43528955Y10734807D01*
X43348791Y10614425D01*
X43195575Y10461209D01*
X43075193Y10281045D01*
X42992273Y10080858D01*
X42950000Y9868341D01*
X41150000Y9868341D01*
X41150000Y12408341D01*
X42950000Y12408341D01*
X42950000Y12191659D01*
X42992273Y11979142D01*
X43075193Y11778955D01*
X43195575Y11598791D01*
X43348791Y11445575D01*
X43528955Y11325193D01*
X43729142Y11242273D01*
X43941659Y11200000D01*
X44158341Y11200000D01*
X44370858Y11242273D01*
X44571045Y11325193D01*
X44751209Y11445575D01*
X44904425Y11598791D01*
X45024807Y11778955D01*
X45107727Y11979142D01*
X45150000Y12191659D01*
X45150000Y12408341D01*
X45490000Y12408341D01*
X45490000Y12191659D01*
X45532273Y11979142D01*
X45615193Y11778955D01*
X45735575Y11598791D01*
X45888791Y11445575D01*
X46068955Y11325193D01*
X46269142Y11242273D01*
X46481659Y11200000D01*
X46698341Y11200000D01*
X46910858Y11242273D01*
X47111045Y11325193D01*
X47291209Y11445575D01*
X47444425Y11598791D01*
X47564807Y11778955D01*
X47647727Y11979142D01*
X47690000Y12191659D01*
X47690000Y12408341D01*
X47647727Y12620858D01*
X47564807Y12821045D01*
X47444425Y13001209D01*
X47291209Y13154425D01*
X47111045Y13274807D01*
X46910858Y13357727D01*
X46698341Y13400000D01*
X46481659Y13400000D01*
X46269142Y13357727D01*
X46068955Y13274807D01*
X45888791Y13154425D01*
X45735575Y13001209D01*
X45615193Y12821045D01*
X45532273Y12620858D01*
X45490000Y12408341D01*
X45150000Y12408341D01*
X45107727Y12620858D01*
X45024807Y12821045D01*
X44904425Y13001209D01*
X44751209Y13154425D01*
X44571045Y13274807D01*
X44370858Y13357727D01*
X44158341Y13400000D01*
X43941659Y13400000D01*
X43729142Y13357727D01*
X43528955Y13274807D01*
X43348791Y13154425D01*
X43195575Y13001209D01*
X43075193Y12821045D01*
X42992273Y12620858D01*
X42950000Y12408341D01*
X41150000Y12408341D01*
X41150000Y14948341D01*
X42950000Y14948341D01*
X42950000Y14731659D01*
X42992273Y14519142D01*
X43075193Y14318955D01*
X43195575Y14138791D01*
X43348791Y13985575D01*
X43528955Y13865193D01*
X43729142Y13782273D01*
X43941659Y13740000D01*
X44158341Y13740000D01*
X44370858Y13782273D01*
X44571045Y13865193D01*
X44751209Y13985575D01*
X44904425Y14138791D01*
X45024807Y14318955D01*
X45107727Y14519142D01*
X45150000Y14731659D01*
X45150000Y14948341D01*
X45490000Y14948341D01*
X45490000Y14731659D01*
X45532273Y14519142D01*
X45615193Y14318955D01*
X45735575Y14138791D01*
X45888791Y13985575D01*
X46068955Y13865193D01*
X46269142Y13782273D01*
X46481659Y13740000D01*
X46698341Y13740000D01*
X46910858Y13782273D01*
X47111045Y13865193D01*
X47291209Y13985575D01*
X47444425Y14138791D01*
X47564807Y14318955D01*
X47647727Y14519142D01*
X47690000Y14731659D01*
X47690000Y14948341D01*
X47647727Y15160858D01*
X47564807Y15361045D01*
X47444425Y15541209D01*
X47291209Y15694425D01*
X47111045Y15814807D01*
X46910858Y15897727D01*
X46698341Y15940000D01*
X46481659Y15940000D01*
X46269142Y15897727D01*
X46068955Y15814807D01*
X45888791Y15694425D01*
X45735575Y15541209D01*
X45615193Y15361045D01*
X45532273Y15160858D01*
X45490000Y14948341D01*
X45150000Y14948341D01*
X45107727Y15160858D01*
X45024807Y15361045D01*
X44904425Y15541209D01*
X44751209Y15694425D01*
X44571045Y15814807D01*
X44370858Y15897727D01*
X44158341Y15940000D01*
X43941659Y15940000D01*
X43729142Y15897727D01*
X43528955Y15814807D01*
X43348791Y15694425D01*
X43195575Y15541209D01*
X43075193Y15361045D01*
X42992273Y15160858D01*
X42950000Y14948341D01*
X41150000Y14948341D01*
X41150000Y17488341D01*
X42950000Y17488341D01*
X42950000Y17271659D01*
X42992273Y17059142D01*
X43075193Y16858955D01*
X43195575Y16678791D01*
X43348791Y16525575D01*
X43528955Y16405193D01*
X43729142Y16322273D01*
X43941659Y16280000D01*
X44158341Y16280000D01*
X44370858Y16322273D01*
X44571045Y16405193D01*
X44751209Y16525575D01*
X44904425Y16678791D01*
X45024807Y16858955D01*
X45107727Y17059142D01*
X45150000Y17271659D01*
X45150000Y17488341D01*
X45490000Y17488341D01*
X45490000Y17271659D01*
X45532273Y17059142D01*
X45615193Y16858955D01*
X45735575Y16678791D01*
X45888791Y16525575D01*
X46068955Y16405193D01*
X46269142Y16322273D01*
X46481659Y16280000D01*
X46698341Y16280000D01*
X46910858Y16322273D01*
X47111045Y16405193D01*
X47291209Y16525575D01*
X47444425Y16678791D01*
X47564807Y16858955D01*
X47647727Y17059142D01*
X47690000Y17271659D01*
X47690000Y17488341D01*
X47647727Y17700858D01*
X47564807Y17901045D01*
X47444425Y18081209D01*
X47291209Y18234425D01*
X47111045Y18354807D01*
X46910858Y18437727D01*
X46698341Y18480000D01*
X46481659Y18480000D01*
X46269142Y18437727D01*
X46068955Y18354807D01*
X45888791Y18234425D01*
X45735575Y18081209D01*
X45615193Y17901045D01*
X45532273Y17700858D01*
X45490000Y17488341D01*
X45150000Y17488341D01*
X45107727Y17700858D01*
X45024807Y17901045D01*
X44904425Y18081209D01*
X44751209Y18234425D01*
X44571045Y18354807D01*
X44370858Y18437727D01*
X44158341Y18480000D01*
X43941659Y18480000D01*
X43729142Y18437727D01*
X43528955Y18354807D01*
X43348791Y18234425D01*
X43195575Y18081209D01*
X43075193Y17901045D01*
X42992273Y17700858D01*
X42950000Y17488341D01*
X41150000Y17488341D01*
X41150000Y18472183D01*
X43627818Y20950000D01*
X45159942Y20950000D01*
X45224986Y20923058D01*
X45340905Y20900000D01*
X45459095Y20900000D01*
X45575014Y20923058D01*
X45684207Y20968287D01*
X45782478Y21033950D01*
X45866050Y21117522D01*
X45931713Y21215793D01*
X45976942Y21324986D01*
X46000000Y21440905D01*
X46000000Y21559095D01*
X45976942Y21675014D01*
X45931713Y21784207D01*
X45866050Y21882478D01*
X45782478Y21966050D01*
X45684207Y22031713D01*
X45575014Y22076942D01*
X45459095Y22100000D01*
X45340905Y22100000D01*
X45224986Y22076942D01*
X45159942Y22050000D01*
X43427008Y22050000D01*
X43400000Y22052660D01*
X43372992Y22050000D01*
X43372982Y22050000D01*
X43292181Y22042042D01*
X43188506Y22010592D01*
X43168690Y22000000D01*
X43092957Y21959521D01*
X43030195Y21908013D01*
X43030190Y21908008D01*
X43009210Y21890790D01*
X42991992Y21869810D01*
X40230191Y19108008D01*
X40209211Y19090790D01*
X40191993Y19069810D01*
X40191987Y19069804D01*
X40140479Y19007042D01*
X40127350Y18982478D01*
X40089409Y18911494D01*
X40081132Y18884207D01*
X40057959Y18807818D01*
X40047340Y18700000D01*
X40050001Y18672982D01*
X40050000Y8740058D01*
X40023058Y8675014D01*
X40004921Y8583836D01*
X40003797Y8584437D01*
X39889189Y8619203D01*
X39770000Y8630942D01*
X39276000Y8628000D01*
X39124000Y8476000D01*
X38816000Y8476000D01*
X38664000Y8628000D01*
X38170000Y8630942D01*
X38050811Y8619203D01*
X37936203Y8584437D01*
X37830579Y8527980D01*
X37737999Y8452001D01*
X37662020Y8359421D01*
X37605563Y8253797D01*
X37570797Y8139189D01*
X37559058Y8020000D01*
X37185634Y8020000D01*
X37131209Y8074425D01*
X36951045Y8194807D01*
X36750858Y8277727D01*
X36538341Y8320000D01*
X36321659Y8320000D01*
X36109142Y8277727D01*
X35908955Y8194807D01*
X35728791Y8074425D01*
X35600000Y7945634D01*
X35600000Y32728341D01*
X42950000Y32728341D01*
X42950000Y32511659D01*
X42992273Y32299142D01*
X43075193Y32098955D01*
X43195575Y31918791D01*
X43348791Y31765575D01*
X43528955Y31645193D01*
X43729142Y31562273D01*
X43941659Y31520000D01*
X44158341Y31520000D01*
X44370858Y31562273D01*
X44571045Y31645193D01*
X44751209Y31765575D01*
X44904425Y31918791D01*
X45024807Y32098955D01*
X45107727Y32299142D01*
X45150000Y32511659D01*
X45150000Y32728341D01*
X45107727Y32940858D01*
X45024807Y33141045D01*
X44904425Y33321209D01*
X44805634Y33420000D01*
X45488549Y33420000D01*
X45488549Y31820000D01*
X45494341Y31761190D01*
X45511496Y31704640D01*
X45539353Y31652523D01*
X45576842Y31606842D01*
X45622523Y31569353D01*
X45674640Y31541496D01*
X45731190Y31524341D01*
X45790000Y31518549D01*
X47390000Y31518549D01*
X47448810Y31524341D01*
X47505360Y31541496D01*
X47557477Y31569353D01*
X47603158Y31606842D01*
X47640647Y31652523D01*
X47668504Y31704640D01*
X47685659Y31761190D01*
X47691451Y31820000D01*
X47691451Y33420000D01*
X47685659Y33478810D01*
X47668504Y33535360D01*
X47640647Y33587477D01*
X47603158Y33633158D01*
X47557477Y33670647D01*
X47505360Y33698504D01*
X47448810Y33715659D01*
X47390000Y33721451D01*
X45790000Y33721451D01*
X45731190Y33715659D01*
X45674640Y33698504D01*
X45622523Y33670647D01*
X45576842Y33633158D01*
X45539353Y33587477D01*
X45511496Y33535360D01*
X45494341Y33478810D01*
X45488549Y33420000D01*
X44805634Y33420000D01*
X44751209Y33474425D01*
X44571045Y33594807D01*
X44370858Y33677727D01*
X44158341Y33720000D01*
X43941659Y33720000D01*
X43729142Y33677727D01*
X43528955Y33594807D01*
X43348791Y33474425D01*
X43195575Y33321209D01*
X43075193Y33141045D01*
X42992273Y32940858D01*
X42950000Y32728341D01*
X35600000Y32728341D01*
X35600000Y35268341D01*
X42950000Y35268341D01*
X42950000Y35051659D01*
X42992273Y34839142D01*
X43075193Y34638955D01*
X43195575Y34458791D01*
X43348791Y34305575D01*
X43528955Y34185193D01*
X43729142Y34102273D01*
X43941659Y34060000D01*
X44158341Y34060000D01*
X44370858Y34102273D01*
X44571045Y34185193D01*
X44751209Y34305575D01*
X44904425Y34458791D01*
X45024807Y34638955D01*
X45107727Y34839142D01*
X45150000Y35051659D01*
X45150000Y35268341D01*
X45490000Y35268341D01*
X45490000Y35051659D01*
X45532273Y34839142D01*
X45615193Y34638955D01*
X45735575Y34458791D01*
X45888791Y34305575D01*
X46068955Y34185193D01*
X46269142Y34102273D01*
X46481659Y34060000D01*
X46698341Y34060000D01*
X46910858Y34102273D01*
X47111045Y34185193D01*
X47291209Y34305575D01*
X47444425Y34458791D01*
X47564807Y34638955D01*
X47647727Y34839142D01*
X47690000Y35051659D01*
X47690000Y35268341D01*
X47647727Y35480858D01*
X47564807Y35681045D01*
X47444425Y35861209D01*
X47291209Y36014425D01*
X47111045Y36134807D01*
X46910858Y36217727D01*
X46698341Y36260000D01*
X46481659Y36260000D01*
X46269142Y36217727D01*
X46068955Y36134807D01*
X45888791Y36014425D01*
X45735575Y35861209D01*
X45615193Y35681045D01*
X45532273Y35480858D01*
X45490000Y35268341D01*
X45150000Y35268341D01*
X45107727Y35480858D01*
X45024807Y35681045D01*
X44904425Y35861209D01*
X44751209Y36014425D01*
X44571045Y36134807D01*
X44370858Y36217727D01*
X44158341Y36260000D01*
X43941659Y36260000D01*
X43729142Y36217727D01*
X43528955Y36134807D01*
X43348791Y36014425D01*
X43195575Y35861209D01*
X43075193Y35681045D01*
X42992273Y35480858D01*
X42950000Y35268341D01*
X35600000Y35268341D01*
X35600000Y37808341D01*
X42950000Y37808341D01*
X42950000Y37591659D01*
X42992273Y37379142D01*
X43075193Y37178955D01*
X43195575Y36998791D01*
X43348791Y36845575D01*
X43528955Y36725193D01*
X43729142Y36642273D01*
X43941659Y36600000D01*
X44158341Y36600000D01*
X44370858Y36642273D01*
X44571045Y36725193D01*
X44751209Y36845575D01*
X44904425Y36998791D01*
X45024807Y37178955D01*
X45107727Y37379142D01*
X45150000Y37591659D01*
X45150000Y37808341D01*
X45490000Y37808341D01*
X45490000Y37591659D01*
X45532273Y37379142D01*
X45615193Y37178955D01*
X45735575Y36998791D01*
X45888791Y36845575D01*
X46068955Y36725193D01*
X46269142Y36642273D01*
X46481659Y36600000D01*
X46698341Y36600000D01*
X46910858Y36642273D01*
X47111045Y36725193D01*
X47291209Y36845575D01*
X47444425Y36998791D01*
X47564807Y37178955D01*
X47647727Y37379142D01*
X47690000Y37591659D01*
X47690000Y37808341D01*
X47647727Y38020858D01*
X47564807Y38221045D01*
X47444425Y38401209D01*
X47291209Y38554425D01*
X47111045Y38674807D01*
X46910858Y38757727D01*
X46698341Y38800000D01*
X46481659Y38800000D01*
X46269142Y38757727D01*
X46068955Y38674807D01*
X45888791Y38554425D01*
X45735575Y38401209D01*
X45615193Y38221045D01*
X45532273Y38020858D01*
X45490000Y37808341D01*
X45150000Y37808341D01*
X45107727Y38020858D01*
X45024807Y38221045D01*
X44904425Y38401209D01*
X44751209Y38554425D01*
X44571045Y38674807D01*
X44370858Y38757727D01*
X44158341Y38800000D01*
X43941659Y38800000D01*
X43729142Y38757727D01*
X43528955Y38674807D01*
X43348791Y38554425D01*
X43195575Y38401209D01*
X43075193Y38221045D01*
X42992273Y38020858D01*
X42950000Y37808341D01*
X35600000Y37808341D01*
X35600000Y40348341D01*
X42950000Y40348341D01*
X42950000Y40131659D01*
X42992273Y39919142D01*
X43075193Y39718955D01*
X43195575Y39538791D01*
X43348791Y39385575D01*
X43528955Y39265193D01*
X43729142Y39182273D01*
X43941659Y39140000D01*
X44158341Y39140000D01*
X44370858Y39182273D01*
X44571045Y39265193D01*
X44751209Y39385575D01*
X44904425Y39538791D01*
X45024807Y39718955D01*
X45107727Y39919142D01*
X45150000Y40131659D01*
X45150000Y40348341D01*
X45490000Y40348341D01*
X45490000Y40131659D01*
X45532273Y39919142D01*
X45615193Y39718955D01*
X45735575Y39538791D01*
X45888791Y39385575D01*
X46068955Y39265193D01*
X46269142Y39182273D01*
X46481659Y39140000D01*
X46698341Y39140000D01*
X46910858Y39182273D01*
X47111045Y39265193D01*
X47291209Y39385575D01*
X47444425Y39538791D01*
X47564807Y39718955D01*
X47647727Y39919142D01*
X47690000Y40131659D01*
X47690000Y40348341D01*
X47647727Y40560858D01*
X47564807Y40761045D01*
X47444425Y40941209D01*
X47291209Y41094425D01*
X47111045Y41214807D01*
X46910858Y41297727D01*
X46698341Y41340000D01*
X46481659Y41340000D01*
X46269142Y41297727D01*
X46068955Y41214807D01*
X45888791Y41094425D01*
X45735575Y40941209D01*
X45615193Y40761045D01*
X45532273Y40560858D01*
X45490000Y40348341D01*
X45150000Y40348341D01*
X45107727Y40560858D01*
X45024807Y40761045D01*
X44904425Y40941209D01*
X44751209Y41094425D01*
X44571045Y41214807D01*
X44370858Y41297727D01*
X44158341Y41340000D01*
X43941659Y41340000D01*
X43729142Y41297727D01*
X43528955Y41214807D01*
X43348791Y41094425D01*
X43195575Y40941209D01*
X43075193Y40761045D01*
X42992273Y40560858D01*
X42950000Y40348341D01*
X35600000Y40348341D01*
X35600000Y41430354D01*
X35601935Y41450000D01*
X35594212Y41528414D01*
X35588821Y41546186D01*
X35571340Y41603814D01*
X35534197Y41673303D01*
X35484211Y41734211D01*
X35468953Y41746733D01*
X32846737Y44368948D01*
X32834211Y44384211D01*
X32773303Y44434197D01*
X32703814Y44471340D01*
X32628414Y44494212D01*
X32569647Y44500000D01*
X32569646Y44500000D01*
X32550000Y44501935D01*
X32530354Y44500000D01*
X32387791Y44500000D01*
X32345176Y44542615D01*
X32578327Y44617924D01*
X32691693Y44871048D01*
X32753498Y45141426D01*
X32761369Y45418666D01*
X32759729Y45428341D01*
X32790000Y45428341D01*
X32790000Y45211659D01*
X32832273Y44999142D01*
X32915193Y44798955D01*
X33035575Y44618791D01*
X33188791Y44465575D01*
X33368955Y44345193D01*
X33569142Y44262273D01*
X33781659Y44220000D01*
X33998341Y44220000D01*
X34210858Y44262273D01*
X34411045Y44345193D01*
X34591209Y44465575D01*
X34744425Y44618791D01*
X34864807Y44798955D01*
X34947727Y44999142D01*
X34990000Y45211659D01*
X34990000Y45428341D01*
X35330000Y45428341D01*
X35330000Y45211659D01*
X35372273Y44999142D01*
X35455193Y44798955D01*
X35575575Y44618791D01*
X35728791Y44465575D01*
X35908955Y44345193D01*
X36109142Y44262273D01*
X36321659Y44220000D01*
X36538341Y44220000D01*
X36750858Y44262273D01*
X36951045Y44345193D01*
X37131209Y44465575D01*
X37284425Y44618791D01*
X37404807Y44798955D01*
X37487727Y44999142D01*
X37530000Y45211659D01*
X37530000Y45428341D01*
X37870000Y45428341D01*
X37870000Y45211659D01*
X37912273Y44999142D01*
X37995193Y44798955D01*
X38115575Y44618791D01*
X38268791Y44465575D01*
X38448955Y44345193D01*
X38649142Y44262273D01*
X38861659Y44220000D01*
X39078341Y44220000D01*
X39290858Y44262273D01*
X39491045Y44345193D01*
X39671209Y44465575D01*
X39824425Y44618791D01*
X39944807Y44798955D01*
X40027727Y44999142D01*
X40070000Y45211659D01*
X40070000Y45428341D01*
X40027727Y45640858D01*
X39944807Y45841045D01*
X39824425Y46021209D01*
X39725634Y46120000D01*
X40408549Y46120000D01*
X40408549Y44520000D01*
X40414341Y44461190D01*
X40431496Y44404640D01*
X40459353Y44352523D01*
X40496842Y44306842D01*
X40542523Y44269353D01*
X40594640Y44241496D01*
X40651190Y44224341D01*
X40710000Y44218549D01*
X42310000Y44218549D01*
X42368810Y44224341D01*
X42425360Y44241496D01*
X42477477Y44269353D01*
X42523158Y44306842D01*
X42560647Y44352523D01*
X42588504Y44404640D01*
X42605659Y44461190D01*
X42611451Y44520000D01*
X42611451Y46120000D01*
X42605659Y46178810D01*
X42588504Y46235360D01*
X42560647Y46287477D01*
X42523158Y46333158D01*
X42477477Y46370647D01*
X42425360Y46398504D01*
X42368810Y46415659D01*
X42310000Y46421451D01*
X40710000Y46421451D01*
X40651190Y46415659D01*
X40594640Y46398504D01*
X40542523Y46370647D01*
X40496842Y46333158D01*
X40459353Y46287477D01*
X40431496Y46235360D01*
X40414341Y46178810D01*
X40408549Y46120000D01*
X39725634Y46120000D01*
X39671209Y46174425D01*
X39491045Y46294807D01*
X39290858Y46377727D01*
X39078341Y46420000D01*
X38861659Y46420000D01*
X38649142Y46377727D01*
X38448955Y46294807D01*
X38268791Y46174425D01*
X38115575Y46021209D01*
X37995193Y45841045D01*
X37912273Y45640858D01*
X37870000Y45428341D01*
X37530000Y45428341D01*
X37487727Y45640858D01*
X37404807Y45841045D01*
X37284425Y46021209D01*
X37131209Y46174425D01*
X36951045Y46294807D01*
X36750858Y46377727D01*
X36538341Y46420000D01*
X36321659Y46420000D01*
X36109142Y46377727D01*
X35908955Y46294807D01*
X35728791Y46174425D01*
X35575575Y46021209D01*
X35455193Y45841045D01*
X35372273Y45640858D01*
X35330000Y45428341D01*
X34990000Y45428341D01*
X34947727Y45640858D01*
X34864807Y45841045D01*
X34744425Y46021209D01*
X34591209Y46174425D01*
X34411045Y46294807D01*
X34210858Y46377727D01*
X33998341Y46420000D01*
X33781659Y46420000D01*
X33569142Y46377727D01*
X33368955Y46294807D01*
X33188791Y46174425D01*
X33035575Y46021209D01*
X32915193Y45841045D01*
X32832273Y45640858D01*
X32790000Y45428341D01*
X32759729Y45428341D01*
X32715001Y45692114D01*
X32616177Y45951263D01*
X32578327Y46022076D01*
X32345174Y46097385D01*
X31567789Y45320000D01*
X31581931Y45305858D01*
X31364142Y45088069D01*
X31350000Y45102211D01*
X31335858Y45088069D01*
X31118069Y45305858D01*
X31132211Y45320000D01*
X30354826Y46097385D01*
X30121673Y46022076D01*
X30008307Y45768952D01*
X29950337Y45515349D01*
X29096737Y46368948D01*
X29084211Y46384211D01*
X29023303Y46434197D01*
X28953814Y46471340D01*
X28878414Y46494212D01*
X28819647Y46500000D01*
X28819646Y46500000D01*
X28800000Y46501935D01*
X28780354Y46500000D01*
X21345932Y46500000D01*
X21326285Y46501935D01*
X21306638Y46500000D01*
X21247871Y46494212D01*
X21172471Y46471340D01*
X21102982Y46434197D01*
X21042074Y46384211D01*
X21029548Y46368948D01*
X20450828Y45790228D01*
X20435570Y45777706D01*
X20423048Y45762448D01*
X20423045Y45762445D01*
X20385583Y45716797D01*
X20348441Y45647309D01*
X20325568Y45571908D01*
X20320284Y45518263D01*
X20253730Y45451709D01*
X20188067Y45353438D01*
X20142838Y45244245D01*
X20119780Y45128326D01*
X20119780Y45010136D01*
X20142838Y44894217D01*
X20160976Y44850428D01*
X20115793Y44831713D01*
X20017522Y44766050D01*
X19933950Y44682478D01*
X19868287Y44584207D01*
X19823058Y44475014D01*
X19800000Y44359095D01*
X19800000Y44300000D01*
X19654821Y44300000D01*
X19663158Y44306842D01*
X19700647Y44352523D01*
X19728504Y44404640D01*
X19745659Y44461190D01*
X19751451Y44520000D01*
X19751451Y46120000D01*
X19745659Y46178810D01*
X19728504Y46235360D01*
X19700647Y46287477D01*
X19663158Y46333158D01*
X19617477Y46370647D01*
X19565360Y46398504D01*
X19508810Y46415659D01*
X19450000Y46421451D01*
X17850000Y46421451D01*
X17791190Y46415659D01*
X17734640Y46398504D01*
X17682523Y46370647D01*
X17636842Y46333158D01*
X17599353Y46287477D01*
X17571496Y46235360D01*
X17554341Y46178810D01*
X17548549Y46120000D01*
X17548549Y44520000D01*
X17554341Y44461190D01*
X17571496Y44404640D01*
X17599353Y44352523D01*
X17636842Y44306842D01*
X17645179Y44300000D01*
X16521939Y44300000D01*
X16631045Y44345193D01*
X16811209Y44465575D01*
X16964425Y44618791D01*
X17084807Y44798955D01*
X17167727Y44999142D01*
X17210000Y45211659D01*
X17210000Y45428341D01*
X17167727Y45640858D01*
X17084807Y45841045D01*
X16964425Y46021209D01*
X16811209Y46174425D01*
X16631045Y46294807D01*
X16430858Y46377727D01*
X16218341Y46420000D01*
X16001659Y46420000D01*
X15789142Y46377727D01*
X15588955Y46294807D01*
X15408791Y46174425D01*
X15255575Y46021209D01*
X15135193Y45841045D01*
X15052273Y45640858D01*
X15010000Y45428341D01*
X15010000Y45211659D01*
X15052273Y44999142D01*
X15135193Y44798955D01*
X15255575Y44618791D01*
X15408791Y44465575D01*
X15588955Y44345193D01*
X15698061Y44300000D01*
X14000000Y44300000D01*
X13976306Y44297666D01*
X14091045Y44345193D01*
X14271209Y44465575D01*
X14424425Y44618791D01*
X14544807Y44798955D01*
X14627727Y44999142D01*
X14670000Y45211659D01*
X14670000Y45428341D01*
X14627727Y45640858D01*
X14544807Y45841045D01*
X14424425Y46021209D01*
X14271209Y46174425D01*
X14091045Y46294807D01*
X13890858Y46377727D01*
X13678341Y46420000D01*
X13461659Y46420000D01*
X13249142Y46377727D01*
X13048955Y46294807D01*
X12868791Y46174425D01*
X12715575Y46021209D01*
X12595193Y45841045D01*
X12512273Y45640858D01*
X12470000Y45428341D01*
X12470000Y45211659D01*
X12512273Y44999142D01*
X12595193Y44798955D01*
X12715575Y44618791D01*
X12868791Y44465575D01*
X13048955Y44345193D01*
X13249142Y44262273D01*
X13461659Y44220000D01*
X13678341Y44220000D01*
X13837467Y44251653D01*
X13833329Y44249441D01*
X13787868Y44212132D01*
X9787868Y40212132D01*
X9750559Y40166671D01*
X9722836Y40114805D01*
X9705764Y40058527D01*
X9700000Y40000000D01*
X9700000Y26624264D01*
X9375736Y26300000D01*
X8500000Y26300000D01*
X8441473Y26294236D01*
X8385195Y26277164D01*
X8333329Y26249441D01*
X8287868Y26212132D01*
X7787868Y25712132D01*
X7750559Y25666671D01*
X7722836Y25614805D01*
X7705764Y25558527D01*
X7700000Y25500000D01*
X7700000Y20000000D01*
X7705764Y19941473D01*
X7722836Y19885195D01*
X7750559Y19833329D01*
X7787868Y19787868D01*
X8287868Y19287868D01*
X8333329Y19250559D01*
X8385195Y19222836D01*
X8441473Y19205764D01*
X8500000Y19200000D01*
X11000000Y19200000D01*
X11058527Y19205764D01*
X11114805Y19222836D01*
X11166671Y19250559D01*
X11212132Y19287868D01*
X13712132Y21787868D01*
X13749441Y21833329D01*
X13777164Y21885195D01*
X13794236Y21941473D01*
X13800000Y22000000D01*
X13800000Y36644830D01*
X16847189Y36644830D01*
X16847189Y36526640D01*
X16870247Y36410721D01*
X16915476Y36301528D01*
X16981139Y36203257D01*
X17064711Y36119685D01*
X17162982Y36054022D01*
X17272175Y36008793D01*
X17388094Y35985735D01*
X17506284Y35985735D01*
X17622203Y36008793D01*
X17731396Y36054022D01*
X17829667Y36119685D01*
X17913239Y36203257D01*
X17978902Y36301528D01*
X18024131Y36410721D01*
X18047189Y36526640D01*
X18047189Y36644830D01*
X18024131Y36760749D01*
X17978902Y36869942D01*
X17968070Y36886153D01*
X17993041Y36902838D01*
X18076613Y36986410D01*
X18142276Y37084681D01*
X18187505Y37193874D01*
X18210563Y37309793D01*
X18210563Y37427983D01*
X18187505Y37543902D01*
X18172016Y37581297D01*
X18180012Y37584609D01*
X18278283Y37650272D01*
X18361855Y37733844D01*
X18427518Y37832115D01*
X18472747Y37941308D01*
X18495805Y38057227D01*
X18495805Y38175417D01*
X18472747Y38291336D01*
X18427518Y38400529D01*
X18361855Y38498800D01*
X18346525Y38514130D01*
X18366238Y38533844D01*
X18431901Y38632115D01*
X18477130Y38741308D01*
X18500188Y38857227D01*
X18500188Y38975417D01*
X18477130Y39091336D01*
X18431901Y39200529D01*
X18366238Y39298800D01*
X18282666Y39382372D01*
X18184395Y39448035D01*
X18075202Y39493264D01*
X17959283Y39516322D01*
X17841093Y39516322D01*
X17725174Y39493264D01*
X17615981Y39448035D01*
X17517710Y39382372D01*
X17434138Y39298800D01*
X17368475Y39200529D01*
X17323246Y39091336D01*
X17300188Y38975417D01*
X17300188Y38857227D01*
X17323246Y38741308D01*
X17368475Y38632115D01*
X17434138Y38533844D01*
X17449469Y38518513D01*
X17429755Y38498800D01*
X17364092Y38400529D01*
X17318863Y38291336D01*
X17295805Y38175417D01*
X17295805Y38057227D01*
X17318863Y37941308D01*
X17334352Y37903913D01*
X17326356Y37900601D01*
X17228085Y37834938D01*
X17144513Y37751366D01*
X17078850Y37653095D01*
X17033621Y37543902D01*
X17010563Y37427983D01*
X17010563Y37309793D01*
X17033621Y37193874D01*
X17078850Y37084681D01*
X17089682Y37068470D01*
X17064711Y37051785D01*
X16981139Y36968213D01*
X16915476Y36869942D01*
X16870247Y36760749D01*
X16847189Y36644830D01*
X13800000Y36644830D01*
X13800000Y36865280D01*
X17551513Y40199959D01*
X17617522Y40133950D01*
X17715793Y40068287D01*
X17824986Y40023058D01*
X17940905Y40000000D01*
X18034314Y40000000D01*
X18203267Y39831047D01*
X18215789Y39815789D01*
X18231047Y39803267D01*
X18231049Y39803265D01*
X18276697Y39765803D01*
X18346186Y39728660D01*
X18421586Y39705788D01*
X18500000Y39698065D01*
X18519647Y39700000D01*
X20134315Y39700000D01*
X22530672Y37303642D01*
X21997945Y37299993D01*
X21941473Y37294236D01*
X21885195Y37277164D01*
X21833329Y37249441D01*
X21787868Y37212132D01*
X17787868Y33212132D01*
X17750559Y33166671D01*
X17722836Y33114805D01*
X17705764Y33058527D01*
X17700000Y33000000D01*
X17700000Y7300000D01*
X13831371Y7300000D01*
X12572276Y8559095D01*
X14400000Y8559095D01*
X14400000Y8440905D01*
X14423058Y8324986D01*
X14468287Y8215793D01*
X14533950Y8117522D01*
X14617522Y8033950D01*
X14715793Y7968287D01*
X14824986Y7923058D01*
X14906787Y7906787D01*
X14923058Y7824986D01*
X14968287Y7715793D01*
X15033950Y7617522D01*
X15117522Y7533950D01*
X15215793Y7468287D01*
X15324986Y7423058D01*
X15440905Y7400000D01*
X15559095Y7400000D01*
X15675014Y7423058D01*
X15784207Y7468287D01*
X15882478Y7533950D01*
X15966050Y7617522D01*
X16031713Y7715793D01*
X16076942Y7824986D01*
X16100000Y7940905D01*
X16100000Y8059095D01*
X16076942Y8175014D01*
X16031713Y8284207D01*
X15966050Y8382478D01*
X15882478Y8466050D01*
X15831669Y8500000D01*
X15882478Y8533950D01*
X15966050Y8617522D01*
X16031713Y8715793D01*
X16076942Y8824986D01*
X16100000Y8940905D01*
X16100000Y9059095D01*
X16076942Y9175014D01*
X16031713Y9284207D01*
X15966050Y9382478D01*
X15882478Y9466050D01*
X15784207Y9531713D01*
X15675014Y9576942D01*
X15559095Y9600000D01*
X15440905Y9600000D01*
X15324986Y9576942D01*
X15215793Y9531713D01*
X15117522Y9466050D01*
X15033950Y9382478D01*
X14968287Y9284207D01*
X14923058Y9175014D01*
X14906787Y9093213D01*
X14824986Y9076942D01*
X14715793Y9031713D01*
X14617522Y8966050D01*
X14533950Y8882478D01*
X14468287Y8784207D01*
X14423058Y8675014D01*
X14400000Y8559095D01*
X12572276Y8559095D01*
X11593473Y9537897D01*
X11568422Y9568422D01*
X11446606Y9668393D01*
X11307628Y9742679D01*
X11156827Y9788424D01*
X11039293Y9800000D01*
X11039291Y9800000D01*
X11000000Y9803870D01*
X10960709Y9800000D01*
X7331370Y9800000D01*
X5572275Y11559095D01*
X5900000Y11559095D01*
X5900000Y11440905D01*
X5923058Y11324986D01*
X5968287Y11215793D01*
X6033950Y11117522D01*
X6117522Y11033950D01*
X6215793Y10968287D01*
X6324986Y10923058D01*
X6440905Y10900000D01*
X6559095Y10900000D01*
X6675014Y10923058D01*
X6784207Y10968287D01*
X6882478Y11033950D01*
X6966050Y11117522D01*
X7000000Y11168331D01*
X7033950Y11117522D01*
X7117522Y11033950D01*
X7215793Y10968287D01*
X7324986Y10923058D01*
X7440905Y10900000D01*
X7559095Y10900000D01*
X7675014Y10923058D01*
X7784207Y10968287D01*
X7882478Y11033950D01*
X7966050Y11117522D01*
X8000000Y11168331D01*
X8033950Y11117522D01*
X8117522Y11033950D01*
X8215793Y10968287D01*
X8324986Y10923058D01*
X8406787Y10906787D01*
X8423058Y10824986D01*
X8468287Y10715793D01*
X8533950Y10617522D01*
X8617522Y10533950D01*
X8715793Y10468287D01*
X8824986Y10423058D01*
X8940905Y10400000D01*
X9059095Y10400000D01*
X9175014Y10423058D01*
X9284207Y10468287D01*
X9382478Y10533950D01*
X9466050Y10617522D01*
X9531713Y10715793D01*
X9576942Y10824986D01*
X9593213Y10906787D01*
X9675014Y10923058D01*
X9784207Y10968287D01*
X9882478Y11033950D01*
X9966050Y11117522D01*
X10031713Y11215793D01*
X10076942Y11324986D01*
X10100000Y11440905D01*
X10100000Y11559095D01*
X10076942Y11675014D01*
X10031713Y11784207D01*
X9966050Y11882478D01*
X9882478Y11966050D01*
X9784207Y12031713D01*
X9675014Y12076942D01*
X9559095Y12100000D01*
X9440905Y12100000D01*
X9324986Y12076942D01*
X9215793Y12031713D01*
X9117522Y11966050D01*
X9033950Y11882478D01*
X9000000Y11831669D01*
X8966050Y11882478D01*
X8882478Y11966050D01*
X8784207Y12031713D01*
X8675014Y12076942D01*
X8559095Y12100000D01*
X8440905Y12100000D01*
X8324986Y12076942D01*
X8215793Y12031713D01*
X8117522Y11966050D01*
X8033950Y11882478D01*
X8000000Y11831669D01*
X7966050Y11882478D01*
X7882478Y11966050D01*
X7784207Y12031713D01*
X7675014Y12076942D01*
X7559095Y12100000D01*
X7440905Y12100000D01*
X7324986Y12076942D01*
X7215793Y12031713D01*
X7117522Y11966050D01*
X7033950Y11882478D01*
X7000000Y11831669D01*
X6966050Y11882478D01*
X6882478Y11966050D01*
X6784207Y12031713D01*
X6675014Y12076942D01*
X6559095Y12100000D01*
X6440905Y12100000D01*
X6324986Y12076942D01*
X6215793Y12031713D01*
X6117522Y11966050D01*
X6033950Y11882478D01*
X5968287Y11784207D01*
X5923058Y11675014D01*
X5900000Y11559095D01*
X5572275Y11559095D01*
X4800000Y12331370D01*
X4800000Y18960718D01*
X4803869Y19000001D01*
X4800000Y19039284D01*
X4800000Y19039293D01*
X4788424Y19156827D01*
X4742679Y19307628D01*
X4668393Y19446607D01*
X4593469Y19537902D01*
X4568422Y19568422D01*
X4537903Y19593468D01*
X3600000Y20531370D01*
X3600000Y21460718D01*
X3603869Y21500001D01*
X3600000Y21539284D01*
X3600000Y22360707D01*
X3603870Y22400000D01*
X3588424Y22556827D01*
X3542679Y22707628D01*
X3468393Y22846606D01*
X3368422Y22968422D01*
X3246606Y23068393D01*
X3107628Y23142679D01*
X2956827Y23188424D01*
X2839293Y23200000D01*
X2800000Y23203870D01*
X2760707Y23200000D01*
X1939291Y23200000D01*
X1900000Y23203870D01*
X1860709Y23200000D01*
X1860707Y23200000D01*
X1743173Y23188424D01*
X1592372Y23142679D01*
X1453394Y23068393D01*
X1331578Y22968422D01*
X1231607Y22846606D01*
X1157321Y22707628D01*
X1111576Y22556827D01*
X1096130Y22400000D01*
X600000Y22400000D01*
X600000Y24059095D01*
X900000Y24059095D01*
X900000Y23940905D01*
X923058Y23824986D01*
X968287Y23715793D01*
X1033950Y23617522D01*
X1117522Y23533950D01*
X1215793Y23468287D01*
X1324986Y23423058D01*
X1440905Y23400000D01*
X1559095Y23400000D01*
X1675014Y23423058D01*
X1784207Y23468287D01*
X1882478Y23533950D01*
X1966050Y23617522D01*
X2031713Y23715793D01*
X2076942Y23824986D01*
X2100000Y23940905D01*
X2100000Y24059095D01*
X2076942Y24175014D01*
X2031713Y24284207D01*
X1966050Y24382478D01*
X1882478Y24466050D01*
X1784207Y24531713D01*
X1675014Y24576942D01*
X1559095Y24600000D01*
X1440905Y24600000D01*
X1324986Y24576942D01*
X1215793Y24531713D01*
X1117522Y24466050D01*
X1033950Y24382478D01*
X968287Y24284207D01*
X923058Y24175014D01*
X900000Y24059095D01*
X600000Y24059095D01*
X600000Y26540631D01*
X5758420Y26540631D01*
X5827638Y26312573D01*
X6072213Y26204218D01*
X6333227Y26145659D01*
X6600650Y26139147D01*
X6864205Y26184931D01*
X7113764Y26281253D01*
X7172362Y26312573D01*
X7241580Y26540631D01*
X6500000Y27282211D01*
X5758420Y26540631D01*
X600000Y26540631D01*
X600000Y27399350D01*
X5139147Y27399350D01*
X5184931Y27135795D01*
X5281253Y26886236D01*
X5312573Y26827638D01*
X5540631Y26758420D01*
X6282211Y27500000D01*
X6717789Y27500000D01*
X7459369Y26758420D01*
X7687427Y26827638D01*
X7795782Y27072213D01*
X7854341Y27333227D01*
X7860853Y27600650D01*
X7815069Y27864205D01*
X7718747Y28113764D01*
X7687427Y28172362D01*
X7459369Y28241580D01*
X6717789Y27500000D01*
X6282211Y27500000D01*
X5540631Y28241580D01*
X5312573Y28172362D01*
X5204218Y27927787D01*
X5145659Y27666773D01*
X5139147Y27399350D01*
X600000Y27399350D01*
X600000Y28459369D01*
X5758420Y28459369D01*
X6500000Y27717789D01*
X7241580Y28459369D01*
X7172362Y28687427D01*
X6927787Y28795782D01*
X6666773Y28854341D01*
X6399350Y28860853D01*
X6135795Y28815069D01*
X5886236Y28718747D01*
X5827638Y28687427D01*
X5758420Y28459369D01*
X600000Y28459369D01*
X600000Y32728341D01*
X2310000Y32728341D01*
X2310000Y32511659D01*
X2352273Y32299142D01*
X2435193Y32098955D01*
X2555575Y31918791D01*
X2708791Y31765575D01*
X2888955Y31645193D01*
X3089142Y31562273D01*
X3301659Y31520000D01*
X3518341Y31520000D01*
X3730858Y31562273D01*
X3931045Y31645193D01*
X4111209Y31765575D01*
X4264425Y31918791D01*
X4384807Y32098955D01*
X4467727Y32299142D01*
X4510000Y32511659D01*
X4510000Y32728341D01*
X4850000Y32728341D01*
X4850000Y32511659D01*
X4892273Y32299142D01*
X4975193Y32098955D01*
X5095575Y31918791D01*
X5248791Y31765575D01*
X5428955Y31645193D01*
X5629142Y31562273D01*
X5841659Y31520000D01*
X6058341Y31520000D01*
X6270858Y31562273D01*
X6471045Y31645193D01*
X6651209Y31765575D01*
X6804425Y31918791D01*
X6924807Y32098955D01*
X7007727Y32299142D01*
X7050000Y32511659D01*
X7050000Y32728341D01*
X7007727Y32940858D01*
X6924807Y33141045D01*
X6804425Y33321209D01*
X6651209Y33474425D01*
X6471045Y33594807D01*
X6270858Y33677727D01*
X6058341Y33720000D01*
X5841659Y33720000D01*
X5629142Y33677727D01*
X5428955Y33594807D01*
X5248791Y33474425D01*
X5095575Y33321209D01*
X4975193Y33141045D01*
X4892273Y32940858D01*
X4850000Y32728341D01*
X4510000Y32728341D01*
X4467727Y32940858D01*
X4384807Y33141045D01*
X4264425Y33321209D01*
X4111209Y33474425D01*
X3931045Y33594807D01*
X3730858Y33677727D01*
X3518341Y33720000D01*
X3301659Y33720000D01*
X3089142Y33677727D01*
X2888955Y33594807D01*
X2708791Y33474425D01*
X2555575Y33321209D01*
X2435193Y33141045D01*
X2352273Y32940858D01*
X2310000Y32728341D01*
X600000Y32728341D01*
X600000Y35268341D01*
X2310000Y35268341D01*
X2310000Y35051659D01*
X2352273Y34839142D01*
X2435193Y34638955D01*
X2555575Y34458791D01*
X2708791Y34305575D01*
X2888955Y34185193D01*
X3089142Y34102273D01*
X3301659Y34060000D01*
X3518341Y34060000D01*
X3730858Y34102273D01*
X3931045Y34185193D01*
X4111209Y34305575D01*
X4264425Y34458791D01*
X4384807Y34638955D01*
X4467727Y34839142D01*
X4510000Y35051659D01*
X4510000Y35268341D01*
X4850000Y35268341D01*
X4850000Y35051659D01*
X4892273Y34839142D01*
X4975193Y34638955D01*
X5095575Y34458791D01*
X5248791Y34305575D01*
X5428955Y34185193D01*
X5629142Y34102273D01*
X5841659Y34060000D01*
X6058341Y34060000D01*
X6270858Y34102273D01*
X6471045Y34185193D01*
X6651209Y34305575D01*
X6804425Y34458791D01*
X6924807Y34638955D01*
X7007727Y34839142D01*
X7050000Y35051659D01*
X7050000Y35268341D01*
X7007727Y35480858D01*
X6924807Y35681045D01*
X6804425Y35861209D01*
X6651209Y36014425D01*
X6471045Y36134807D01*
X6270858Y36217727D01*
X6058341Y36260000D01*
X5841659Y36260000D01*
X5629142Y36217727D01*
X5428955Y36134807D01*
X5248791Y36014425D01*
X5095575Y35861209D01*
X4975193Y35681045D01*
X4892273Y35480858D01*
X4850000Y35268341D01*
X4510000Y35268341D01*
X4467727Y35480858D01*
X4384807Y35681045D01*
X4264425Y35861209D01*
X4111209Y36014425D01*
X3931045Y36134807D01*
X3730858Y36217727D01*
X3518341Y36260000D01*
X3301659Y36260000D01*
X3089142Y36217727D01*
X2888955Y36134807D01*
X2708791Y36014425D01*
X2555575Y35861209D01*
X2435193Y35681045D01*
X2352273Y35480858D01*
X2310000Y35268341D01*
X600000Y35268341D01*
X600000Y37808341D01*
X2310000Y37808341D01*
X2310000Y37591659D01*
X2352273Y37379142D01*
X2435193Y37178955D01*
X2555575Y36998791D01*
X2708791Y36845575D01*
X2888955Y36725193D01*
X3089142Y36642273D01*
X3301659Y36600000D01*
X3518341Y36600000D01*
X3730858Y36642273D01*
X3931045Y36725193D01*
X4111209Y36845575D01*
X4264425Y36998791D01*
X4384807Y37178955D01*
X4467727Y37379142D01*
X4510000Y37591659D01*
X4510000Y37808341D01*
X4850000Y37808341D01*
X4850000Y37591659D01*
X4892273Y37379142D01*
X4975193Y37178955D01*
X5095575Y36998791D01*
X5248791Y36845575D01*
X5428955Y36725193D01*
X5629142Y36642273D01*
X5841659Y36600000D01*
X6058341Y36600000D01*
X6270858Y36642273D01*
X6471045Y36725193D01*
X6651209Y36845575D01*
X6804425Y36998791D01*
X6924807Y37178955D01*
X7007727Y37379142D01*
X7050000Y37591659D01*
X7050000Y37808341D01*
X7007727Y38020858D01*
X6924807Y38221045D01*
X6804425Y38401209D01*
X6651209Y38554425D01*
X6471045Y38674807D01*
X6270858Y38757727D01*
X6058341Y38800000D01*
X5841659Y38800000D01*
X5629142Y38757727D01*
X5428955Y38674807D01*
X5248791Y38554425D01*
X5095575Y38401209D01*
X4975193Y38221045D01*
X4892273Y38020858D01*
X4850000Y37808341D01*
X4510000Y37808341D01*
X4467727Y38020858D01*
X4384807Y38221045D01*
X4264425Y38401209D01*
X4111209Y38554425D01*
X3931045Y38674807D01*
X3730858Y38757727D01*
X3518341Y38800000D01*
X3301659Y38800000D01*
X3089142Y38757727D01*
X2888955Y38674807D01*
X2708791Y38554425D01*
X2555575Y38401209D01*
X2435193Y38221045D01*
X2352273Y38020858D01*
X2310000Y37808341D01*
X600000Y37808341D01*
X600000Y44900314D01*
X936723Y44396373D01*
X1396373Y43936723D01*
X1405000Y43930959D01*
X1405000Y41510000D01*
X1406921Y41490491D01*
X1412612Y41471732D01*
X1421853Y41454443D01*
X1434289Y41439289D01*
X1449443Y41426853D01*
X1466732Y41417612D01*
X1485491Y41411921D01*
X1505000Y41410000D01*
X3323810Y41410000D01*
X3323810Y41341451D01*
X2610000Y41341451D01*
X2551190Y41335659D01*
X2494640Y41318504D01*
X2442523Y41290647D01*
X2396842Y41253158D01*
X2359353Y41207477D01*
X2331496Y41155360D01*
X2314341Y41098810D01*
X2308549Y41040000D01*
X2308549Y39440000D01*
X2314341Y39381190D01*
X2331496Y39324640D01*
X2359353Y39272523D01*
X2396842Y39226842D01*
X2442523Y39189353D01*
X2494640Y39161496D01*
X2551190Y39144341D01*
X2610000Y39138549D01*
X4210000Y39138549D01*
X4268810Y39144341D01*
X4325360Y39161496D01*
X4377477Y39189353D01*
X4423158Y39226842D01*
X4460647Y39272523D01*
X4488504Y39324640D01*
X4505659Y39381190D01*
X4511451Y39440000D01*
X4511451Y40348341D01*
X4850000Y40348341D01*
X4850000Y40131659D01*
X4892273Y39919142D01*
X4975193Y39718955D01*
X5095575Y39538791D01*
X5248791Y39385575D01*
X5428955Y39265193D01*
X5629142Y39182273D01*
X5841659Y39140000D01*
X6058341Y39140000D01*
X6270858Y39182273D01*
X6471045Y39265193D01*
X6651209Y39385575D01*
X6804425Y39538791D01*
X6924807Y39718955D01*
X7007727Y39919142D01*
X7050000Y40131659D01*
X7050000Y40348341D01*
X7007727Y40560858D01*
X6924807Y40761045D01*
X6804425Y40941209D01*
X6651209Y41094425D01*
X6471045Y41214807D01*
X6270858Y41297727D01*
X6058341Y41340000D01*
X5841659Y41340000D01*
X5629142Y41297727D01*
X5428955Y41214807D01*
X5248791Y41094425D01*
X5095575Y40941209D01*
X4975193Y40761045D01*
X4892273Y40560858D01*
X4850000Y40348341D01*
X4511451Y40348341D01*
X4511451Y41040000D01*
X4505659Y41098810D01*
X4488504Y41155360D01*
X4460647Y41207477D01*
X4450370Y41220000D01*
X5076191Y41220000D01*
X5076191Y41410000D01*
X5950000Y41410000D01*
X5969509Y41411921D01*
X5988268Y41417612D01*
X6005557Y41426853D01*
X6020711Y41439289D01*
X6033147Y41454443D01*
X6042388Y41471732D01*
X6048079Y41490491D01*
X6050000Y41510000D01*
X6050000Y44050000D01*
X6048079Y44069509D01*
X6042388Y44088268D01*
X6033147Y44105557D01*
X6020711Y44120711D01*
X6005557Y44133147D01*
X5988268Y44142388D01*
X5969509Y44148079D01*
X5950000Y44150000D01*
X5816904Y44150000D01*
X5991730Y44324826D01*
X7712615Y44324826D01*
X7787924Y44091673D01*
X8041048Y43978307D01*
X8311426Y43916502D01*
X8588666Y43908631D01*
X8862114Y43954999D01*
X9121263Y44053823D01*
X9192076Y44091673D01*
X9267385Y44324826D01*
X8490000Y45102211D01*
X7712615Y44324826D01*
X5991730Y44324826D01*
X6063277Y44396373D01*
X6424422Y44936864D01*
X6542253Y45221334D01*
X7078631Y45221334D01*
X7124999Y44947886D01*
X7223823Y44688737D01*
X7261673Y44617924D01*
X7494826Y44542615D01*
X8272211Y45320000D01*
X8707789Y45320000D01*
X9485174Y44542615D01*
X9718327Y44617924D01*
X9831693Y44871048D01*
X9893498Y45141426D01*
X9901369Y45418666D01*
X9899729Y45428341D01*
X9930000Y45428341D01*
X9930000Y45211659D01*
X9972273Y44999142D01*
X10055193Y44798955D01*
X10175575Y44618791D01*
X10328791Y44465575D01*
X10508955Y44345193D01*
X10709142Y44262273D01*
X10921659Y44220000D01*
X11138341Y44220000D01*
X11350858Y44262273D01*
X11551045Y44345193D01*
X11731209Y44465575D01*
X11884425Y44618791D01*
X12004807Y44798955D01*
X12087727Y44999142D01*
X12130000Y45211659D01*
X12130000Y45428341D01*
X12087727Y45640858D01*
X12004807Y45841045D01*
X11884425Y46021209D01*
X11731209Y46174425D01*
X11551045Y46294807D01*
X11350858Y46377727D01*
X11138341Y46420000D01*
X10921659Y46420000D01*
X10709142Y46377727D01*
X10508955Y46294807D01*
X10328791Y46174425D01*
X10175575Y46021209D01*
X10055193Y45841045D01*
X9972273Y45640858D01*
X9930000Y45428341D01*
X9899729Y45428341D01*
X9855001Y45692114D01*
X9756177Y45951263D01*
X9718327Y46022076D01*
X9485174Y46097385D01*
X8707789Y45320000D01*
X8272211Y45320000D01*
X7494826Y46097385D01*
X7261673Y46022076D01*
X7148307Y45768952D01*
X7086502Y45498574D01*
X7078631Y45221334D01*
X6542253Y45221334D01*
X6673183Y45537426D01*
X6800000Y46174978D01*
X6800000Y46825022D01*
X6792083Y46864826D01*
X7712615Y46864826D01*
X7787924Y46631673D01*
X7875357Y46592515D01*
X7858737Y46586177D01*
X7787924Y46548327D01*
X7712615Y46315174D01*
X8490000Y45537789D01*
X9267385Y46315174D01*
X9192076Y46548327D01*
X9104643Y46587485D01*
X9121263Y46593823D01*
X9192076Y46631673D01*
X9267385Y46864826D01*
X8490000Y47642211D01*
X7712615Y46864826D01*
X6792083Y46864826D01*
X6673183Y47462574D01*
X6549433Y47761334D01*
X7078631Y47761334D01*
X7124999Y47487886D01*
X7223823Y47228737D01*
X7261673Y47157924D01*
X7494826Y47082615D01*
X8272211Y47860000D01*
X8707789Y47860000D01*
X9485174Y47082615D01*
X9718327Y47157924D01*
X9831693Y47411048D01*
X9893498Y47681426D01*
X9901369Y47958666D01*
X9899729Y47968341D01*
X9930000Y47968341D01*
X9930000Y47751659D01*
X9972273Y47539142D01*
X10055193Y47338955D01*
X10175575Y47158791D01*
X10328791Y47005575D01*
X10508955Y46885193D01*
X10709142Y46802273D01*
X10921659Y46760000D01*
X11138341Y46760000D01*
X11350858Y46802273D01*
X11551045Y46885193D01*
X11731209Y47005575D01*
X11884425Y47158791D01*
X12004807Y47338955D01*
X12087727Y47539142D01*
X12130000Y47751659D01*
X12130000Y47968341D01*
X12470000Y47968341D01*
X12470000Y47751659D01*
X12512273Y47539142D01*
X12595193Y47338955D01*
X12715575Y47158791D01*
X12868791Y47005575D01*
X13048955Y46885193D01*
X13249142Y46802273D01*
X13461659Y46760000D01*
X13678341Y46760000D01*
X13890858Y46802273D01*
X14091045Y46885193D01*
X14271209Y47005575D01*
X14424425Y47158791D01*
X14544807Y47338955D01*
X14627727Y47539142D01*
X14670000Y47751659D01*
X14670000Y47968341D01*
X15010000Y47968341D01*
X15010000Y47751659D01*
X15052273Y47539142D01*
X15135193Y47338955D01*
X15255575Y47158791D01*
X15408791Y47005575D01*
X15588955Y46885193D01*
X15789142Y46802273D01*
X16001659Y46760000D01*
X16218341Y46760000D01*
X16430858Y46802273D01*
X16631045Y46885193D01*
X16811209Y47005575D01*
X16964425Y47158791D01*
X17084807Y47338955D01*
X17167727Y47539142D01*
X17210000Y47751659D01*
X17210000Y47968341D01*
X17167727Y48180858D01*
X17084807Y48381045D01*
X16964425Y48561209D01*
X16865634Y48660000D01*
X17548549Y48660000D01*
X17548549Y47060000D01*
X17554341Y47001190D01*
X17571496Y46944640D01*
X17599353Y46892523D01*
X17636842Y46846842D01*
X17682523Y46809353D01*
X17734640Y46781496D01*
X17791190Y46764341D01*
X17850000Y46758549D01*
X19450000Y46758549D01*
X19508810Y46764341D01*
X19565360Y46781496D01*
X19617477Y46809353D01*
X19663158Y46846842D01*
X19677916Y46864826D01*
X30572615Y46864826D01*
X30647924Y46631673D01*
X30735357Y46592515D01*
X30718737Y46586177D01*
X30647924Y46548327D01*
X30572615Y46315174D01*
X31350000Y45537789D01*
X32127385Y46315174D01*
X32052076Y46548327D01*
X31964643Y46587485D01*
X31981263Y46593823D01*
X32052076Y46631673D01*
X32127385Y46864826D01*
X31350000Y47642211D01*
X30572615Y46864826D01*
X19677916Y46864826D01*
X19700647Y46892523D01*
X19728504Y46944640D01*
X19745659Y47001190D01*
X19751451Y47060000D01*
X19751451Y47761334D01*
X29938631Y47761334D01*
X29984999Y47487886D01*
X30083823Y47228737D01*
X30121673Y47157924D01*
X30354826Y47082615D01*
X31132211Y47860000D01*
X31567789Y47860000D01*
X32345174Y47082615D01*
X32578327Y47157924D01*
X32691693Y47411048D01*
X32753498Y47681426D01*
X32761369Y47958666D01*
X32759729Y47968341D01*
X32790000Y47968341D01*
X32790000Y47751659D01*
X32832273Y47539142D01*
X32915193Y47338955D01*
X33035575Y47158791D01*
X33188791Y47005575D01*
X33368955Y46885193D01*
X33569142Y46802273D01*
X33781659Y46760000D01*
X33998341Y46760000D01*
X34210858Y46802273D01*
X34411045Y46885193D01*
X34591209Y47005575D01*
X34744425Y47158791D01*
X34864807Y47338955D01*
X34947727Y47539142D01*
X34990000Y47751659D01*
X34990000Y47968341D01*
X35330000Y47968341D01*
X35330000Y47751659D01*
X35372273Y47539142D01*
X35455193Y47338955D01*
X35575575Y47158791D01*
X35728791Y47005575D01*
X35908955Y46885193D01*
X36109142Y46802273D01*
X36321659Y46760000D01*
X36538341Y46760000D01*
X36750858Y46802273D01*
X36951045Y46885193D01*
X37131209Y47005575D01*
X37284425Y47158791D01*
X37404807Y47338955D01*
X37487727Y47539142D01*
X37530000Y47751659D01*
X37530000Y47968341D01*
X37870000Y47968341D01*
X37870000Y47751659D01*
X37912273Y47539142D01*
X37995193Y47338955D01*
X38115575Y47158791D01*
X38268791Y47005575D01*
X38448955Y46885193D01*
X38649142Y46802273D01*
X38861659Y46760000D01*
X39078341Y46760000D01*
X39290858Y46802273D01*
X39491045Y46885193D01*
X39671209Y47005575D01*
X39824425Y47158791D01*
X39944807Y47338955D01*
X40027727Y47539142D01*
X40070000Y47751659D01*
X40070000Y47968341D01*
X40027727Y48180858D01*
X39944807Y48381045D01*
X39824425Y48561209D01*
X39725634Y48660000D01*
X40408549Y48660000D01*
X40408549Y47060000D01*
X40414341Y47001190D01*
X40431496Y46944640D01*
X40459353Y46892523D01*
X40496842Y46846842D01*
X40542523Y46809353D01*
X40594640Y46781496D01*
X40651190Y46764341D01*
X40710000Y46758549D01*
X42310000Y46758549D01*
X42368810Y46764341D01*
X42425360Y46781496D01*
X42477477Y46809353D01*
X42523158Y46846842D01*
X42560647Y46892523D01*
X42588504Y46944640D01*
X42605659Y47001190D01*
X42611451Y47060000D01*
X42611451Y48660000D01*
X42605659Y48718810D01*
X42588504Y48775360D01*
X42560647Y48827477D01*
X42523158Y48873158D01*
X42477477Y48910647D01*
X42425360Y48938504D01*
X42368810Y48955659D01*
X42310000Y48961451D01*
X40710000Y48961451D01*
X40651190Y48955659D01*
X40594640Y48938504D01*
X40542523Y48910647D01*
X40496842Y48873158D01*
X40459353Y48827477D01*
X40431496Y48775360D01*
X40414341Y48718810D01*
X40408549Y48660000D01*
X39725634Y48660000D01*
X39671209Y48714425D01*
X39491045Y48834807D01*
X39290858Y48917727D01*
X39078341Y48960000D01*
X38861659Y48960000D01*
X38649142Y48917727D01*
X38448955Y48834807D01*
X38268791Y48714425D01*
X38115575Y48561209D01*
X37995193Y48381045D01*
X37912273Y48180858D01*
X37870000Y47968341D01*
X37530000Y47968341D01*
X37487727Y48180858D01*
X37404807Y48381045D01*
X37284425Y48561209D01*
X37131209Y48714425D01*
X36951045Y48834807D01*
X36750858Y48917727D01*
X36538341Y48960000D01*
X36321659Y48960000D01*
X36109142Y48917727D01*
X35908955Y48834807D01*
X35728791Y48714425D01*
X35575575Y48561209D01*
X35455193Y48381045D01*
X35372273Y48180858D01*
X35330000Y47968341D01*
X34990000Y47968341D01*
X34947727Y48180858D01*
X34864807Y48381045D01*
X34744425Y48561209D01*
X34591209Y48714425D01*
X34411045Y48834807D01*
X34210858Y48917727D01*
X33998341Y48960000D01*
X33781659Y48960000D01*
X33569142Y48917727D01*
X33368955Y48834807D01*
X33188791Y48714425D01*
X33035575Y48561209D01*
X32915193Y48381045D01*
X32832273Y48180858D01*
X32790000Y47968341D01*
X32759729Y47968341D01*
X32715001Y48232114D01*
X32616177Y48491263D01*
X32578327Y48562076D01*
X32345174Y48637385D01*
X31567789Y47860000D01*
X31132211Y47860000D01*
X30354826Y48637385D01*
X30121673Y48562076D01*
X30008307Y48308952D01*
X29946502Y48038574D01*
X29938631Y47761334D01*
X19751451Y47761334D01*
X19751451Y48660000D01*
X19745659Y48718810D01*
X19728504Y48775360D01*
X19700647Y48827477D01*
X19663158Y48873158D01*
X19617477Y48910647D01*
X19565360Y48938504D01*
X19508810Y48955659D01*
X19450000Y48961451D01*
X17850000Y48961451D01*
X17791190Y48955659D01*
X17734640Y48938504D01*
X17682523Y48910647D01*
X17636842Y48873158D01*
X17599353Y48827477D01*
X17571496Y48775360D01*
X17554341Y48718810D01*
X17548549Y48660000D01*
X16865634Y48660000D01*
X16811209Y48714425D01*
X16631045Y48834807D01*
X16430858Y48917727D01*
X16218341Y48960000D01*
X16001659Y48960000D01*
X15789142Y48917727D01*
X15588955Y48834807D01*
X15408791Y48714425D01*
X15255575Y48561209D01*
X15135193Y48381045D01*
X15052273Y48180858D01*
X15010000Y47968341D01*
X14670000Y47968341D01*
X14627727Y48180858D01*
X14544807Y48381045D01*
X14424425Y48561209D01*
X14271209Y48714425D01*
X14091045Y48834807D01*
X13890858Y48917727D01*
X13678341Y48960000D01*
X13461659Y48960000D01*
X13249142Y48917727D01*
X13048955Y48834807D01*
X12868791Y48714425D01*
X12715575Y48561209D01*
X12595193Y48381045D01*
X12512273Y48180858D01*
X12470000Y47968341D01*
X12130000Y47968341D01*
X12087727Y48180858D01*
X12004807Y48381045D01*
X11884425Y48561209D01*
X11731209Y48714425D01*
X11551045Y48834807D01*
X11350858Y48917727D01*
X11138341Y48960000D01*
X10921659Y48960000D01*
X10709142Y48917727D01*
X10508955Y48834807D01*
X10328791Y48714425D01*
X10175575Y48561209D01*
X10055193Y48381045D01*
X9972273Y48180858D01*
X9930000Y47968341D01*
X9899729Y47968341D01*
X9855001Y48232114D01*
X9756177Y48491263D01*
X9718327Y48562076D01*
X9485174Y48637385D01*
X8707789Y47860000D01*
X8272211Y47860000D01*
X7494826Y48637385D01*
X7261673Y48562076D01*
X7148307Y48308952D01*
X7086502Y48038574D01*
X7078631Y47761334D01*
X6549433Y47761334D01*
X6424422Y48063136D01*
X6063277Y48603627D01*
X5811730Y48855174D01*
X7712615Y48855174D01*
X8490000Y48077789D01*
X9267385Y48855174D01*
X9192076Y49088327D01*
X8938952Y49201693D01*
X8668574Y49263498D01*
X8391334Y49271369D01*
X8117886Y49225001D01*
X7858737Y49126177D01*
X7787924Y49088327D01*
X7712615Y48855174D01*
X5811730Y48855174D01*
X5603627Y49063277D01*
X5099686Y49400000D01*
X23940905Y49400000D01*
X23824986Y49376942D01*
G36*
X34121931Y7234142D02*
G01*
X34107789Y7220000D01*
X34121931Y7205858D01*
X33904142Y6988069D01*
X33890000Y7002211D01*
X33875858Y6988069D01*
X33658069Y7205858D01*
X33672211Y7220000D01*
X33658069Y7234142D01*
X33875858Y7451931D01*
X33890000Y7437789D01*
X33904142Y7451931D01*
X34121931Y7234142D01*
X34121931Y7234142D01*
G37*
X34121931Y7234142D02*
X34107789Y7220000D01*
X34121931Y7205858D01*
X33904142Y6988069D01*
X33890000Y7002211D01*
X33875858Y6988069D01*
X33658069Y7205858D01*
X33672211Y7220000D01*
X33658069Y7234142D01*
X33875858Y7451931D01*
X33890000Y7437789D01*
X33904142Y7451931D01*
X34121931Y7234142D01*
G36*
X34800001Y41284313D02*
G01*
X34800000Y8310163D01*
X34781186Y8328977D01*
X34667385Y8215176D01*
X34592076Y8448327D01*
X34338952Y8561693D01*
X34068574Y8623498D01*
X33791334Y8631369D01*
X33517886Y8585001D01*
X33258737Y8486177D01*
X33189999Y8449436D01*
X33189999Y36940366D01*
X33191933Y36960002D01*
X33189999Y36979638D01*
X33189999Y36979648D01*
X33184211Y37038415D01*
X33161339Y37113815D01*
X33124196Y37183304D01*
X33112940Y37197019D01*
X33086734Y37228952D01*
X33086732Y37228954D01*
X33074210Y37244212D01*
X33058953Y37256733D01*
X31600000Y38715685D01*
X31600000Y42359042D01*
X31623047Y42243178D01*
X31668276Y42133985D01*
X31733939Y42035714D01*
X31817511Y41952142D01*
X31915782Y41886479D01*
X32024975Y41841250D01*
X32140894Y41818192D01*
X32259084Y41818192D01*
X32375003Y41841250D01*
X32484196Y41886479D01*
X32582467Y41952142D01*
X32666039Y42035714D01*
X32731702Y42133985D01*
X32776931Y42243178D01*
X32799989Y42359097D01*
X32799989Y42477287D01*
X32776931Y42593206D01*
X32731702Y42702399D01*
X32666039Y42800670D01*
X32582467Y42884242D01*
X32545276Y42909092D01*
X32582478Y42933950D01*
X32666050Y43017522D01*
X32731713Y43115793D01*
X32776942Y43224986D01*
X32790611Y43293704D01*
X34800001Y41284313D01*
X34800001Y41284313D01*
G37*
X34800001Y41284313D02*
X34800000Y8310163D01*
X34781186Y8328977D01*
X34667385Y8215176D01*
X34592076Y8448327D01*
X34338952Y8561693D01*
X34068574Y8623498D01*
X33791334Y8631369D01*
X33517886Y8585001D01*
X33258737Y8486177D01*
X33189999Y8449436D01*
X33189999Y36940366D01*
X33191933Y36960002D01*
X33189999Y36979638D01*
X33189999Y36979648D01*
X33184211Y37038415D01*
X33161339Y37113815D01*
X33124196Y37183304D01*
X33112940Y37197019D01*
X33086734Y37228952D01*
X33086732Y37228954D01*
X33074210Y37244212D01*
X33058953Y37256733D01*
X31600000Y38715685D01*
X31600000Y42359042D01*
X31623047Y42243178D01*
X31668276Y42133985D01*
X31733939Y42035714D01*
X31817511Y41952142D01*
X31915782Y41886479D01*
X32024975Y41841250D01*
X32140894Y41818192D01*
X32259084Y41818192D01*
X32375003Y41841250D01*
X32484196Y41886479D01*
X32582467Y41952142D01*
X32666039Y42035714D01*
X32731702Y42133985D01*
X32776931Y42243178D01*
X32799989Y42359097D01*
X32799989Y42477287D01*
X32776931Y42593206D01*
X32731702Y42702399D01*
X32666039Y42800670D01*
X32582467Y42884242D01*
X32545276Y42909092D01*
X32582478Y42933950D01*
X32666050Y43017522D01*
X32731713Y43115793D01*
X32776942Y43224986D01*
X32790611Y43293704D01*
X34800001Y41284313D01*
G36*
X22800000Y40640905D02*
G01*
X22823058Y40524986D01*
X22868287Y40415793D01*
X22933950Y40317522D01*
X23017522Y40233950D01*
X23115793Y40168287D01*
X23224986Y40123058D01*
X23340905Y40100000D01*
X23459095Y40100000D01*
X23575014Y40123058D01*
X23684207Y40168287D01*
X23782478Y40233950D01*
X23848528Y40300000D01*
X28147574Y40300000D01*
X31989989Y36457585D01*
X31989989Y35375697D01*
X30096737Y37268948D01*
X30084211Y37284211D01*
X30055946Y37307408D01*
X30116038Y37367500D01*
X30181701Y37465771D01*
X30226930Y37574964D01*
X30249988Y37690883D01*
X30249988Y37809073D01*
X30226930Y37924992D01*
X30181701Y38034185D01*
X30116038Y38132456D01*
X30032466Y38216028D01*
X29934195Y38281691D01*
X29825002Y38326920D01*
X29709083Y38349978D01*
X29590893Y38349978D01*
X29474974Y38326920D01*
X29365781Y38281691D01*
X29356417Y38275434D01*
X29376942Y38324986D01*
X29400000Y38440905D01*
X29400000Y38559095D01*
X29376942Y38675014D01*
X29331713Y38784207D01*
X29266050Y38882478D01*
X29182478Y38966050D01*
X29084207Y39031713D01*
X28975014Y39076942D01*
X28859095Y39100000D01*
X28740905Y39100000D01*
X28624986Y39076942D01*
X28515793Y39031713D01*
X28417522Y38966050D01*
X28333950Y38882478D01*
X28268287Y38784207D01*
X28223058Y38675014D01*
X28200000Y38559095D01*
X28200000Y38440905D01*
X28223058Y38324986D01*
X28268287Y38215793D01*
X28333950Y38117522D01*
X28417522Y38033950D01*
X28515793Y37968287D01*
X28624986Y37923058D01*
X28740905Y37900000D01*
X28859095Y37900000D01*
X28975014Y37923058D01*
X29084207Y37968287D01*
X29093571Y37974544D01*
X29073046Y37924992D01*
X29049988Y37809073D01*
X29049988Y37690883D01*
X29073046Y37574964D01*
X29118275Y37465771D01*
X29162222Y37400000D01*
X23565686Y37400000D01*
X20596737Y40368948D01*
X20584211Y40384211D01*
X20523303Y40434197D01*
X20453814Y40471340D01*
X20378414Y40494212D01*
X20319647Y40500000D01*
X20319646Y40500000D01*
X20300000Y40501935D01*
X20280354Y40500000D01*
X18665686Y40500000D01*
X18600000Y40565686D01*
X18600000Y40659095D01*
X18591863Y40700000D01*
X22800000Y40700000D01*
X22800000Y40640905D01*
X22800000Y40640905D01*
G37*
X22800000Y40640905D02*
X22823058Y40524986D01*
X22868287Y40415793D01*
X22933950Y40317522D01*
X23017522Y40233950D01*
X23115793Y40168287D01*
X23224986Y40123058D01*
X23340905Y40100000D01*
X23459095Y40100000D01*
X23575014Y40123058D01*
X23684207Y40168287D01*
X23782478Y40233950D01*
X23848528Y40300000D01*
X28147574Y40300000D01*
X31989989Y36457585D01*
X31989989Y35375697D01*
X30096737Y37268948D01*
X30084211Y37284211D01*
X30055946Y37307408D01*
X30116038Y37367500D01*
X30181701Y37465771D01*
X30226930Y37574964D01*
X30249988Y37690883D01*
X30249988Y37809073D01*
X30226930Y37924992D01*
X30181701Y38034185D01*
X30116038Y38132456D01*
X30032466Y38216028D01*
X29934195Y38281691D01*
X29825002Y38326920D01*
X29709083Y38349978D01*
X29590893Y38349978D01*
X29474974Y38326920D01*
X29365781Y38281691D01*
X29356417Y38275434D01*
X29376942Y38324986D01*
X29400000Y38440905D01*
X29400000Y38559095D01*
X29376942Y38675014D01*
X29331713Y38784207D01*
X29266050Y38882478D01*
X29182478Y38966050D01*
X29084207Y39031713D01*
X28975014Y39076942D01*
X28859095Y39100000D01*
X28740905Y39100000D01*
X28624986Y39076942D01*
X28515793Y39031713D01*
X28417522Y38966050D01*
X28333950Y38882478D01*
X28268287Y38784207D01*
X28223058Y38675014D01*
X28200000Y38559095D01*
X28200000Y38440905D01*
X28223058Y38324986D01*
X28268287Y38215793D01*
X28333950Y38117522D01*
X28417522Y38033950D01*
X28515793Y37968287D01*
X28624986Y37923058D01*
X28740905Y37900000D01*
X28859095Y37900000D01*
X28975014Y37923058D01*
X29084207Y37968287D01*
X29093571Y37974544D01*
X29073046Y37924992D01*
X29049988Y37809073D01*
X29049988Y37690883D01*
X29073046Y37574964D01*
X29118275Y37465771D01*
X29162222Y37400000D01*
X23565686Y37400000D01*
X20596737Y40368948D01*
X20584211Y40384211D01*
X20523303Y40434197D01*
X20453814Y40471340D01*
X20378414Y40494212D01*
X20319647Y40500000D01*
X20319646Y40500000D01*
X20300000Y40501935D01*
X20280354Y40500000D01*
X18665686Y40500000D01*
X18600000Y40565686D01*
X18600000Y40659095D01*
X18591863Y40700000D01*
X22800000Y40700000D01*
X22800000Y40640905D01*
G36*
X30800000Y42868615D02*
G01*
X30800001Y41719656D01*
X30800000Y41719646D01*
X30800001Y38778943D01*
X29884087Y39694857D01*
X29917475Y39708686D01*
X30015746Y39774349D01*
X30099318Y39857921D01*
X30164981Y39956192D01*
X30210210Y40065385D01*
X30233268Y40181304D01*
X30233268Y40299494D01*
X30210210Y40415413D01*
X30164981Y40524606D01*
X30099318Y40622877D01*
X30015746Y40706449D01*
X29917475Y40772112D01*
X29808282Y40817341D01*
X29692363Y40840399D01*
X29574173Y40840399D01*
X29458254Y40817341D01*
X29349061Y40772112D01*
X29250790Y40706449D01*
X29167218Y40622877D01*
X29101555Y40524606D01*
X29087726Y40491218D01*
X28878944Y40700000D01*
X29000000Y40700000D01*
X29058527Y40705764D01*
X29114805Y40722836D01*
X29166671Y40750559D01*
X29212132Y40787868D01*
X30212132Y41787868D01*
X30249441Y41833329D01*
X30277164Y41885195D01*
X30294236Y41941473D01*
X30300000Y42000000D01*
X30300000Y43000000D01*
X30294236Y43058527D01*
X30277164Y43114805D01*
X30249441Y43166671D01*
X30212132Y43212132D01*
X29212132Y44212132D01*
X29166671Y44249441D01*
X29114805Y44277164D01*
X29058527Y44294236D01*
X29000000Y44300000D01*
X28587841Y44300000D01*
X28629053Y44361677D01*
X28674282Y44470870D01*
X28697340Y44586789D01*
X28697340Y44704979D01*
X28674282Y44820898D01*
X28629053Y44930091D01*
X28563390Y45028362D01*
X28479818Y45111934D01*
X28381547Y45177597D01*
X28327461Y45200000D01*
X28468615Y45200000D01*
X30800000Y42868615D01*
X30800000Y42868615D01*
G37*
X30800000Y42868615D02*
X30800001Y41719656D01*
X30800000Y41719646D01*
X30800001Y38778943D01*
X29884087Y39694857D01*
X29917475Y39708686D01*
X30015746Y39774349D01*
X30099318Y39857921D01*
X30164981Y39956192D01*
X30210210Y40065385D01*
X30233268Y40181304D01*
X30233268Y40299494D01*
X30210210Y40415413D01*
X30164981Y40524606D01*
X30099318Y40622877D01*
X30015746Y40706449D01*
X29917475Y40772112D01*
X29808282Y40817341D01*
X29692363Y40840399D01*
X29574173Y40840399D01*
X29458254Y40817341D01*
X29349061Y40772112D01*
X29250790Y40706449D01*
X29167218Y40622877D01*
X29101555Y40524606D01*
X29087726Y40491218D01*
X28878944Y40700000D01*
X29000000Y40700000D01*
X29058527Y40705764D01*
X29114805Y40722836D01*
X29166671Y40750559D01*
X29212132Y40787868D01*
X30212132Y41787868D01*
X30249441Y41833329D01*
X30277164Y41885195D01*
X30294236Y41941473D01*
X30300000Y42000000D01*
X30300000Y43000000D01*
X30294236Y43058527D01*
X30277164Y43114805D01*
X30249441Y43166671D01*
X30212132Y43212132D01*
X29212132Y44212132D01*
X29166671Y44249441D01*
X29114805Y44277164D01*
X29058527Y44294236D01*
X29000000Y44300000D01*
X28587841Y44300000D01*
X28629053Y44361677D01*
X28674282Y44470870D01*
X28697340Y44586789D01*
X28697340Y44704979D01*
X28674282Y44820898D01*
X28629053Y44930091D01*
X28563390Y45028362D01*
X28479818Y45111934D01*
X28381547Y45177597D01*
X28327461Y45200000D01*
X28468615Y45200000D01*
X30800000Y42868615D01*
G36*
X25568287Y45184207D02*
G01*
X25523058Y45075014D01*
X25500000Y44959095D01*
X25500000Y44840905D01*
X25523058Y44724986D01*
X25568287Y44615793D01*
X25633950Y44517522D01*
X25717522Y44433950D01*
X25815793Y44368287D01*
X25924986Y44323058D01*
X26040905Y44300000D01*
X23319701Y44300000D01*
X23327838Y44340905D01*
X23327838Y44459095D01*
X23304780Y44575014D01*
X23259551Y44684207D01*
X23193888Y44782478D01*
X23110316Y44866050D01*
X23012045Y44931713D01*
X22902852Y44976942D01*
X22786933Y45000000D01*
X22668743Y45000000D01*
X22552824Y44976942D01*
X22443631Y44931713D01*
X22345360Y44866050D01*
X22261788Y44782478D01*
X22196125Y44684207D01*
X22150896Y44575014D01*
X22127838Y44459095D01*
X22127838Y44340905D01*
X22135975Y44300000D01*
X21389949Y44300000D01*
X22289949Y45200000D01*
X25578840Y45200000D01*
X25568287Y45184207D01*
X25568287Y45184207D01*
G37*
X25568287Y45184207D02*
X25523058Y45075014D01*
X25500000Y44959095D01*
X25500000Y44840905D01*
X25523058Y44724986D01*
X25568287Y44615793D01*
X25633950Y44517522D01*
X25717522Y44433950D01*
X25815793Y44368287D01*
X25924986Y44323058D01*
X26040905Y44300000D01*
X23319701Y44300000D01*
X23327838Y44340905D01*
X23327838Y44459095D01*
X23304780Y44575014D01*
X23259551Y44684207D01*
X23193888Y44782478D01*
X23110316Y44866050D01*
X23012045Y44931713D01*
X22902852Y44976942D01*
X22786933Y45000000D01*
X22668743Y45000000D01*
X22552824Y44976942D01*
X22443631Y44931713D01*
X22345360Y44866050D01*
X22261788Y44782478D01*
X22196125Y44684207D01*
X22150896Y44575014D01*
X22127838Y44459095D01*
X22127838Y44340905D01*
X22135975Y44300000D01*
X21389949Y44300000D01*
X22289949Y45200000D01*
X25578840Y45200000D01*
X25568287Y45184207D01*
G36*
X23103267Y36731047D02*
G01*
X23115789Y36715789D01*
X23131047Y36703267D01*
X23131049Y36703265D01*
X23176697Y36665803D01*
X23246186Y36628660D01*
X23321586Y36605788D01*
X23380353Y36600000D01*
X23380355Y36600000D01*
X23399999Y36598065D01*
X23419643Y36600000D01*
X29608578Y36600000D01*
X30128528Y36080050D01*
X31200000Y34959875D01*
X31200000Y33800000D01*
X31200014Y33798334D01*
X31299974Y27800727D01*
X31201286Y24642708D01*
X30658578Y24100000D01*
X26000000Y24100000D01*
X25980491Y24098079D01*
X25961732Y24092388D01*
X25944443Y24083147D01*
X25929289Y24070711D01*
X22929289Y21070711D01*
X22916853Y21055557D01*
X22907612Y21038268D01*
X22901921Y21019509D01*
X22900000Y21000000D01*
X22900000Y19559095D01*
X22876942Y19675014D01*
X22831713Y19784207D01*
X22766050Y19882478D01*
X22682478Y19966050D01*
X22584207Y20031713D01*
X22475014Y20076942D01*
X22359095Y20100000D01*
X22240905Y20100000D01*
X22124986Y20076942D01*
X22015793Y20031713D01*
X21917522Y19966050D01*
X21833950Y19882478D01*
X21768287Y19784207D01*
X21723058Y19675014D01*
X21700000Y19559095D01*
X21700000Y19440905D01*
X21723058Y19324986D01*
X21768287Y19215793D01*
X21833950Y19117522D01*
X21917522Y19033950D01*
X22015793Y18968287D01*
X22124986Y18923058D01*
X22240905Y18900000D01*
X22359095Y18900000D01*
X22475014Y18923058D01*
X22584207Y18968287D01*
X22682478Y19033950D01*
X22766050Y19117522D01*
X22831713Y19215793D01*
X22876942Y19324986D01*
X22900000Y19440905D01*
X22900000Y17331669D01*
X22866050Y17382478D01*
X22782478Y17466050D01*
X22684207Y17531713D01*
X22575014Y17576942D01*
X22459095Y17600000D01*
X22340905Y17600000D01*
X22224986Y17576942D01*
X22115793Y17531713D01*
X22017522Y17466050D01*
X21933950Y17382478D01*
X21868287Y17284207D01*
X21823058Y17175014D01*
X21800000Y17059095D01*
X21800000Y16940905D01*
X21823058Y16824986D01*
X21868287Y16715793D01*
X21933950Y16617522D01*
X22017522Y16533950D01*
X22115793Y16468287D01*
X22224986Y16423058D01*
X22340905Y16400000D01*
X22459095Y16400000D01*
X22575014Y16423058D01*
X22684207Y16468287D01*
X22782478Y16533950D01*
X22866050Y16617522D01*
X22900000Y16668331D01*
X22900000Y15021160D01*
X22817522Y14966050D01*
X22733950Y14882478D01*
X22668287Y14784207D01*
X22623058Y14675014D01*
X22600000Y14559095D01*
X22600000Y14440905D01*
X22623058Y14324986D01*
X22668287Y14215793D01*
X22733950Y14117522D01*
X22817522Y14033950D01*
X22900000Y13978840D01*
X22900000Y12321160D01*
X22817522Y12266050D01*
X22733950Y12182478D01*
X22668287Y12084207D01*
X22623058Y11975014D01*
X22600000Y11859095D01*
X22600000Y11740905D01*
X22623058Y11624986D01*
X22668287Y11515793D01*
X22733950Y11417522D01*
X22817522Y11333950D01*
X22900000Y11278840D01*
X22900000Y8531669D01*
X22868287Y8484207D01*
X22823058Y8375014D01*
X22800000Y8259095D01*
X22800000Y8140905D01*
X22823058Y8024986D01*
X22868287Y7915793D01*
X22900000Y7868331D01*
X22900000Y6541422D01*
X22108578Y5750000D01*
X19841371Y5750000D01*
X18553473Y7037897D01*
X18528422Y7068422D01*
X18406606Y7168393D01*
X18267628Y7242679D01*
X18116827Y7288424D01*
X18100000Y7290081D01*
X18100000Y21351472D01*
X18117522Y21333950D01*
X18215793Y21268287D01*
X18324986Y21223058D01*
X18440905Y21200000D01*
X18559095Y21200000D01*
X18675014Y21223058D01*
X18784207Y21268287D01*
X18882478Y21333950D01*
X18966050Y21417522D01*
X19031713Y21515793D01*
X19076942Y21624986D01*
X19100000Y21740905D01*
X19100000Y21859095D01*
X19076942Y21975014D01*
X19031713Y22084207D01*
X18966050Y22182478D01*
X18882478Y22266050D01*
X18784207Y22331713D01*
X18675014Y22376942D01*
X18559095Y22400000D01*
X18440905Y22400000D01*
X18324986Y22376942D01*
X18215793Y22331713D01*
X18117522Y22266050D01*
X18100000Y22248528D01*
X18100000Y25859095D01*
X18900000Y25859095D01*
X18900000Y25740905D01*
X18923058Y25624986D01*
X18968287Y25515793D01*
X19033950Y25417522D01*
X19117522Y25333950D01*
X19215793Y25268287D01*
X19324986Y25223058D01*
X19440905Y25200000D01*
X19559095Y25200000D01*
X19675014Y25223058D01*
X19784207Y25268287D01*
X19882478Y25333950D01*
X19966050Y25417522D01*
X20031713Y25515793D01*
X20076942Y25624986D01*
X20100000Y25740905D01*
X20100000Y25859095D01*
X20076942Y25975014D01*
X20031713Y26084207D01*
X19966050Y26182478D01*
X19882478Y26266050D01*
X19784207Y26331713D01*
X19675014Y26376942D01*
X19559095Y26400000D01*
X19440905Y26400000D01*
X19324986Y26376942D01*
X19215793Y26331713D01*
X19117522Y26266050D01*
X19033950Y26182478D01*
X18968287Y26084207D01*
X18923058Y25975014D01*
X18900000Y25859095D01*
X18100000Y25859095D01*
X18100000Y28468331D01*
X18133950Y28417522D01*
X18217522Y28333950D01*
X18315793Y28268287D01*
X18424986Y28223058D01*
X18540905Y28200000D01*
X18659095Y28200000D01*
X18775014Y28223058D01*
X18884207Y28268287D01*
X18982478Y28333950D01*
X19066050Y28417522D01*
X19131713Y28515793D01*
X19176942Y28624986D01*
X19200000Y28740905D01*
X19200000Y28859095D01*
X19176942Y28975014D01*
X19131713Y29084207D01*
X19066050Y29182478D01*
X18982478Y29266050D01*
X18884207Y29331713D01*
X18775014Y29376942D01*
X18659095Y29400000D01*
X18540905Y29400000D01*
X18424986Y29376942D01*
X18315793Y29331713D01*
X18217522Y29266050D01*
X18133950Y29182478D01*
X18100000Y29131669D01*
X18100000Y30059095D01*
X19700000Y30059095D01*
X19700000Y29940905D01*
X19723058Y29824986D01*
X19768287Y29715793D01*
X19833950Y29617522D01*
X19917522Y29533950D01*
X20015793Y29468287D01*
X20124986Y29423058D01*
X20240905Y29400000D01*
X20359095Y29400000D01*
X20475014Y29423058D01*
X20584207Y29468287D01*
X20682478Y29533950D01*
X20766050Y29617522D01*
X20831713Y29715793D01*
X20876942Y29824986D01*
X20883726Y29859095D01*
X22500000Y29859095D01*
X22500000Y29740905D01*
X22523058Y29624986D01*
X22568287Y29515793D01*
X22633950Y29417522D01*
X22717522Y29333950D01*
X22815793Y29268287D01*
X22913657Y29227751D01*
X22900000Y29159095D01*
X22900000Y29040905D01*
X22923058Y28924986D01*
X22968287Y28815793D01*
X23033950Y28717522D01*
X23117522Y28633950D01*
X23215793Y28568287D01*
X23324986Y28523058D01*
X23440905Y28500000D01*
X23559095Y28500000D01*
X23675014Y28523058D01*
X23784207Y28568287D01*
X23882478Y28633950D01*
X23950000Y28701472D01*
X24017522Y28633950D01*
X24115793Y28568287D01*
X24224986Y28523058D01*
X24340905Y28500000D01*
X24459095Y28500000D01*
X24575014Y28523058D01*
X24684207Y28568287D01*
X24782478Y28633950D01*
X24850000Y28701472D01*
X24917522Y28633950D01*
X25015793Y28568287D01*
X25124986Y28523058D01*
X25240905Y28500000D01*
X25359095Y28500000D01*
X25475014Y28523058D01*
X25584207Y28568287D01*
X25682478Y28633950D01*
X25750000Y28701472D01*
X25817522Y28633950D01*
X25915793Y28568287D01*
X26024986Y28523058D01*
X26140905Y28500000D01*
X26259095Y28500000D01*
X26375014Y28523058D01*
X26484207Y28568287D01*
X26582478Y28633950D01*
X26650000Y28701472D01*
X26717522Y28633950D01*
X26815793Y28568287D01*
X26924986Y28523058D01*
X27040905Y28500000D01*
X27159095Y28500000D01*
X27275014Y28523058D01*
X27384207Y28568287D01*
X27482478Y28633950D01*
X27566050Y28717522D01*
X27631713Y28815793D01*
X27676942Y28924986D01*
X27700000Y29040905D01*
X27700000Y29159095D01*
X27676942Y29275014D01*
X27631713Y29384207D01*
X27566050Y29482478D01*
X27482478Y29566050D01*
X27384207Y29631713D01*
X27275014Y29676942D01*
X27159095Y29700000D01*
X27040905Y29700000D01*
X26924986Y29676942D01*
X26815793Y29631713D01*
X26717522Y29566050D01*
X26650000Y29498528D01*
X26582478Y29566050D01*
X26484207Y29631713D01*
X26375014Y29676942D01*
X26259095Y29700000D01*
X26140905Y29700000D01*
X26024986Y29676942D01*
X25915793Y29631713D01*
X25817522Y29566050D01*
X25750000Y29498528D01*
X25682478Y29566050D01*
X25584207Y29631713D01*
X25475014Y29676942D01*
X25359095Y29700000D01*
X25240905Y29700000D01*
X25124986Y29676942D01*
X25015793Y29631713D01*
X24917522Y29566050D01*
X24850000Y29498528D01*
X24782478Y29566050D01*
X24684207Y29631713D01*
X24575014Y29676942D01*
X24459095Y29700000D01*
X24340905Y29700000D01*
X24224986Y29676942D01*
X24115793Y29631713D01*
X24017522Y29566050D01*
X23950000Y29498528D01*
X23882478Y29566050D01*
X23784207Y29631713D01*
X23686343Y29672249D01*
X23700000Y29740905D01*
X23700000Y29859095D01*
X23676942Y29975014D01*
X23631713Y30084207D01*
X23566050Y30182478D01*
X23482478Y30266050D01*
X23384207Y30331713D01*
X23275014Y30376942D01*
X23159095Y30400000D01*
X23040905Y30400000D01*
X22924986Y30376942D01*
X22815793Y30331713D01*
X22717522Y30266050D01*
X22633950Y30182478D01*
X22568287Y30084207D01*
X22523058Y29975014D01*
X22500000Y29859095D01*
X20883726Y29859095D01*
X20900000Y29940905D01*
X20900000Y30059095D01*
X20876942Y30175014D01*
X20831713Y30284207D01*
X20766050Y30382478D01*
X20682478Y30466050D01*
X20584207Y30531713D01*
X20475014Y30576942D01*
X20359095Y30600000D01*
X20240905Y30600000D01*
X20124986Y30576942D01*
X20015793Y30531713D01*
X19917522Y30466050D01*
X19833950Y30382478D01*
X19768287Y30284207D01*
X19723058Y30175014D01*
X19700000Y30059095D01*
X18100000Y30059095D01*
X18100000Y32559095D01*
X29800000Y32559095D01*
X29800000Y32440905D01*
X29823058Y32324986D01*
X29868287Y32215793D01*
X29933950Y32117522D01*
X30017522Y32033950D01*
X30115793Y31968287D01*
X30224986Y31923058D01*
X30340905Y31900000D01*
X30459095Y31900000D01*
X30575014Y31923058D01*
X30684207Y31968287D01*
X30782478Y32033950D01*
X30866050Y32117522D01*
X30931713Y32215793D01*
X30976942Y32324986D01*
X31000000Y32440905D01*
X31000000Y32559095D01*
X30976942Y32675014D01*
X30931713Y32784207D01*
X30866050Y32882478D01*
X30782478Y32966050D01*
X30684207Y33031713D01*
X30575014Y33076942D01*
X30459095Y33100000D01*
X30340905Y33100000D01*
X30224986Y33076942D01*
X30115793Y33031713D01*
X30017522Y32966050D01*
X29933950Y32882478D01*
X29868287Y32784207D01*
X29823058Y32675014D01*
X29800000Y32559095D01*
X18100000Y32559095D01*
X18100000Y32958578D01*
X19100517Y33959095D01*
X19949964Y33959095D01*
X19949964Y33840905D01*
X19973022Y33724986D01*
X20018251Y33615793D01*
X20083914Y33517522D01*
X20167486Y33433950D01*
X20265757Y33368287D01*
X20374950Y33323058D01*
X20490869Y33300000D01*
X20609059Y33300000D01*
X20724978Y33323058D01*
X20834171Y33368287D01*
X20932442Y33433950D01*
X21016014Y33517522D01*
X21081677Y33615793D01*
X21126906Y33724986D01*
X21149964Y33840905D01*
X21149964Y33959095D01*
X21126906Y34075014D01*
X21081677Y34184207D01*
X21016014Y34282478D01*
X20939397Y34359095D01*
X22800000Y34359095D01*
X22800000Y34240905D01*
X22823058Y34124986D01*
X22868287Y34015793D01*
X22933950Y33917522D01*
X23017522Y33833950D01*
X23115793Y33768287D01*
X23224986Y33723058D01*
X23340905Y33700000D01*
X23459095Y33700000D01*
X23575014Y33723058D01*
X23684207Y33768287D01*
X23782478Y33833950D01*
X23866050Y33917522D01*
X23931713Y34015793D01*
X23976942Y34124986D01*
X24000000Y34240905D01*
X24000000Y34359095D01*
X26000000Y34359095D01*
X26000000Y34240905D01*
X26023058Y34124986D01*
X26068287Y34015793D01*
X26133950Y33917522D01*
X26217522Y33833950D01*
X26315793Y33768287D01*
X26424986Y33723058D01*
X26540905Y33700000D01*
X26659095Y33700000D01*
X26775014Y33723058D01*
X26884207Y33768287D01*
X26982478Y33833950D01*
X27066050Y33917522D01*
X27131713Y34015793D01*
X27176942Y34124986D01*
X27200000Y34240905D01*
X27200000Y34359095D01*
X27176942Y34475014D01*
X27131713Y34584207D01*
X27066050Y34682478D01*
X26982478Y34766050D01*
X26884207Y34831713D01*
X26775014Y34876942D01*
X26659095Y34900000D01*
X26540905Y34900000D01*
X26424986Y34876942D01*
X26315793Y34831713D01*
X26217522Y34766050D01*
X26133950Y34682478D01*
X26068287Y34584207D01*
X26023058Y34475014D01*
X26000000Y34359095D01*
X24000000Y34359095D01*
X23976942Y34475014D01*
X23931713Y34584207D01*
X23866050Y34682478D01*
X23782478Y34766050D01*
X23684207Y34831713D01*
X23575014Y34876942D01*
X23459095Y34900000D01*
X23340905Y34900000D01*
X23224986Y34876942D01*
X23115793Y34831713D01*
X23017522Y34766050D01*
X22933950Y34682478D01*
X22868287Y34584207D01*
X22823058Y34475014D01*
X22800000Y34359095D01*
X20939397Y34359095D01*
X20932442Y34366050D01*
X20834171Y34431713D01*
X20724978Y34476942D01*
X20609059Y34500000D01*
X20490869Y34500000D01*
X20374950Y34476942D01*
X20265757Y34431713D01*
X20167486Y34366050D01*
X20083914Y34282478D01*
X20018251Y34184207D01*
X19973022Y34075014D01*
X19949964Y33959095D01*
X19100517Y33959095D01*
X20330833Y35189411D01*
X20365463Y35182523D01*
X20483653Y35182523D01*
X20599572Y35205581D01*
X20708765Y35250810D01*
X20756862Y35282948D01*
X28881930Y35282948D01*
X28881930Y35164758D01*
X28904988Y35048839D01*
X28950217Y34939646D01*
X29015880Y34841375D01*
X29099452Y34757803D01*
X29197723Y34692140D01*
X29306916Y34646911D01*
X29422835Y34623853D01*
X29541025Y34623853D01*
X29656944Y34646911D01*
X29766137Y34692140D01*
X29864408Y34757803D01*
X29947980Y34841375D01*
X30013643Y34939646D01*
X30058872Y35048839D01*
X30081930Y35164758D01*
X30081930Y35282948D01*
X30058872Y35398867D01*
X30013643Y35508060D01*
X29947980Y35606331D01*
X29864408Y35689903D01*
X29766137Y35755566D01*
X29656944Y35800795D01*
X29541025Y35823853D01*
X29422835Y35823853D01*
X29306916Y35800795D01*
X29197723Y35755566D01*
X29099452Y35689903D01*
X29015880Y35606331D01*
X28950217Y35508060D01*
X28904988Y35398867D01*
X28881930Y35282948D01*
X20756862Y35282948D01*
X20807036Y35316473D01*
X20890608Y35400045D01*
X20956271Y35498316D01*
X21001500Y35607509D01*
X21024558Y35723428D01*
X21024558Y35841618D01*
X21017670Y35876248D01*
X22041705Y36900283D01*
X22927961Y36906353D01*
X23103267Y36731047D01*
X23103267Y36731047D01*
G37*
X23103267Y36731047D02*
X23115789Y36715789D01*
X23131047Y36703267D01*
X23131049Y36703265D01*
X23176697Y36665803D01*
X23246186Y36628660D01*
X23321586Y36605788D01*
X23380353Y36600000D01*
X23380355Y36600000D01*
X23399999Y36598065D01*
X23419643Y36600000D01*
X29608578Y36600000D01*
X30128528Y36080050D01*
X31200000Y34959875D01*
X31200000Y33800000D01*
X31200014Y33798334D01*
X31299974Y27800727D01*
X31201286Y24642708D01*
X30658578Y24100000D01*
X26000000Y24100000D01*
X25980491Y24098079D01*
X25961732Y24092388D01*
X25944443Y24083147D01*
X25929289Y24070711D01*
X22929289Y21070711D01*
X22916853Y21055557D01*
X22907612Y21038268D01*
X22901921Y21019509D01*
X22900000Y21000000D01*
X22900000Y19559095D01*
X22876942Y19675014D01*
X22831713Y19784207D01*
X22766050Y19882478D01*
X22682478Y19966050D01*
X22584207Y20031713D01*
X22475014Y20076942D01*
X22359095Y20100000D01*
X22240905Y20100000D01*
X22124986Y20076942D01*
X22015793Y20031713D01*
X21917522Y19966050D01*
X21833950Y19882478D01*
X21768287Y19784207D01*
X21723058Y19675014D01*
X21700000Y19559095D01*
X21700000Y19440905D01*
X21723058Y19324986D01*
X21768287Y19215793D01*
X21833950Y19117522D01*
X21917522Y19033950D01*
X22015793Y18968287D01*
X22124986Y18923058D01*
X22240905Y18900000D01*
X22359095Y18900000D01*
X22475014Y18923058D01*
X22584207Y18968287D01*
X22682478Y19033950D01*
X22766050Y19117522D01*
X22831713Y19215793D01*
X22876942Y19324986D01*
X22900000Y19440905D01*
X22900000Y17331669D01*
X22866050Y17382478D01*
X22782478Y17466050D01*
X22684207Y17531713D01*
X22575014Y17576942D01*
X22459095Y17600000D01*
X22340905Y17600000D01*
X22224986Y17576942D01*
X22115793Y17531713D01*
X22017522Y17466050D01*
X21933950Y17382478D01*
X21868287Y17284207D01*
X21823058Y17175014D01*
X21800000Y17059095D01*
X21800000Y16940905D01*
X21823058Y16824986D01*
X21868287Y16715793D01*
X21933950Y16617522D01*
X22017522Y16533950D01*
X22115793Y16468287D01*
X22224986Y16423058D01*
X22340905Y16400000D01*
X22459095Y16400000D01*
X22575014Y16423058D01*
X22684207Y16468287D01*
X22782478Y16533950D01*
X22866050Y16617522D01*
X22900000Y16668331D01*
X22900000Y15021160D01*
X22817522Y14966050D01*
X22733950Y14882478D01*
X22668287Y14784207D01*
X22623058Y14675014D01*
X22600000Y14559095D01*
X22600000Y14440905D01*
X22623058Y14324986D01*
X22668287Y14215793D01*
X22733950Y14117522D01*
X22817522Y14033950D01*
X22900000Y13978840D01*
X22900000Y12321160D01*
X22817522Y12266050D01*
X22733950Y12182478D01*
X22668287Y12084207D01*
X22623058Y11975014D01*
X22600000Y11859095D01*
X22600000Y11740905D01*
X22623058Y11624986D01*
X22668287Y11515793D01*
X22733950Y11417522D01*
X22817522Y11333950D01*
X22900000Y11278840D01*
X22900000Y8531669D01*
X22868287Y8484207D01*
X22823058Y8375014D01*
X22800000Y8259095D01*
X22800000Y8140905D01*
X22823058Y8024986D01*
X22868287Y7915793D01*
X22900000Y7868331D01*
X22900000Y6541422D01*
X22108578Y5750000D01*
X19841371Y5750000D01*
X18553473Y7037897D01*
X18528422Y7068422D01*
X18406606Y7168393D01*
X18267628Y7242679D01*
X18116827Y7288424D01*
X18100000Y7290081D01*
X18100000Y21351472D01*
X18117522Y21333950D01*
X18215793Y21268287D01*
X18324986Y21223058D01*
X18440905Y21200000D01*
X18559095Y21200000D01*
X18675014Y21223058D01*
X18784207Y21268287D01*
X18882478Y21333950D01*
X18966050Y21417522D01*
X19031713Y21515793D01*
X19076942Y21624986D01*
X19100000Y21740905D01*
X19100000Y21859095D01*
X19076942Y21975014D01*
X19031713Y22084207D01*
X18966050Y22182478D01*
X18882478Y22266050D01*
X18784207Y22331713D01*
X18675014Y22376942D01*
X18559095Y22400000D01*
X18440905Y22400000D01*
X18324986Y22376942D01*
X18215793Y22331713D01*
X18117522Y22266050D01*
X18100000Y22248528D01*
X18100000Y25859095D01*
X18900000Y25859095D01*
X18900000Y25740905D01*
X18923058Y25624986D01*
X18968287Y25515793D01*
X19033950Y25417522D01*
X19117522Y25333950D01*
X19215793Y25268287D01*
X19324986Y25223058D01*
X19440905Y25200000D01*
X19559095Y25200000D01*
X19675014Y25223058D01*
X19784207Y25268287D01*
X19882478Y25333950D01*
X19966050Y25417522D01*
X20031713Y25515793D01*
X20076942Y25624986D01*
X20100000Y25740905D01*
X20100000Y25859095D01*
X20076942Y25975014D01*
X20031713Y26084207D01*
X19966050Y26182478D01*
X19882478Y26266050D01*
X19784207Y26331713D01*
X19675014Y26376942D01*
X19559095Y26400000D01*
X19440905Y26400000D01*
X19324986Y26376942D01*
X19215793Y26331713D01*
X19117522Y26266050D01*
X19033950Y26182478D01*
X18968287Y26084207D01*
X18923058Y25975014D01*
X18900000Y25859095D01*
X18100000Y25859095D01*
X18100000Y28468331D01*
X18133950Y28417522D01*
X18217522Y28333950D01*
X18315793Y28268287D01*
X18424986Y28223058D01*
X18540905Y28200000D01*
X18659095Y28200000D01*
X18775014Y28223058D01*
X18884207Y28268287D01*
X18982478Y28333950D01*
X19066050Y28417522D01*
X19131713Y28515793D01*
X19176942Y28624986D01*
X19200000Y28740905D01*
X19200000Y28859095D01*
X19176942Y28975014D01*
X19131713Y29084207D01*
X19066050Y29182478D01*
X18982478Y29266050D01*
X18884207Y29331713D01*
X18775014Y29376942D01*
X18659095Y29400000D01*
X18540905Y29400000D01*
X18424986Y29376942D01*
X18315793Y29331713D01*
X18217522Y29266050D01*
X18133950Y29182478D01*
X18100000Y29131669D01*
X18100000Y30059095D01*
X19700000Y30059095D01*
X19700000Y29940905D01*
X19723058Y29824986D01*
X19768287Y29715793D01*
X19833950Y29617522D01*
X19917522Y29533950D01*
X20015793Y29468287D01*
X20124986Y29423058D01*
X20240905Y29400000D01*
X20359095Y29400000D01*
X20475014Y29423058D01*
X20584207Y29468287D01*
X20682478Y29533950D01*
X20766050Y29617522D01*
X20831713Y29715793D01*
X20876942Y29824986D01*
X20883726Y29859095D01*
X22500000Y29859095D01*
X22500000Y29740905D01*
X22523058Y29624986D01*
X22568287Y29515793D01*
X22633950Y29417522D01*
X22717522Y29333950D01*
X22815793Y29268287D01*
X22913657Y29227751D01*
X22900000Y29159095D01*
X22900000Y29040905D01*
X22923058Y28924986D01*
X22968287Y28815793D01*
X23033950Y28717522D01*
X23117522Y28633950D01*
X23215793Y28568287D01*
X23324986Y28523058D01*
X23440905Y28500000D01*
X23559095Y28500000D01*
X23675014Y28523058D01*
X23784207Y28568287D01*
X23882478Y28633950D01*
X23950000Y28701472D01*
X24017522Y28633950D01*
X24115793Y28568287D01*
X24224986Y28523058D01*
X24340905Y28500000D01*
X24459095Y28500000D01*
X24575014Y28523058D01*
X24684207Y28568287D01*
X24782478Y28633950D01*
X24850000Y28701472D01*
X24917522Y28633950D01*
X25015793Y28568287D01*
X25124986Y28523058D01*
X25240905Y28500000D01*
X25359095Y28500000D01*
X25475014Y28523058D01*
X25584207Y28568287D01*
X25682478Y28633950D01*
X25750000Y28701472D01*
X25817522Y28633950D01*
X25915793Y28568287D01*
X26024986Y28523058D01*
X26140905Y28500000D01*
X26259095Y28500000D01*
X26375014Y28523058D01*
X26484207Y28568287D01*
X26582478Y28633950D01*
X26650000Y28701472D01*
X26717522Y28633950D01*
X26815793Y28568287D01*
X26924986Y28523058D01*
X27040905Y28500000D01*
X27159095Y28500000D01*
X27275014Y28523058D01*
X27384207Y28568287D01*
X27482478Y28633950D01*
X27566050Y28717522D01*
X27631713Y28815793D01*
X27676942Y28924986D01*
X27700000Y29040905D01*
X27700000Y29159095D01*
X27676942Y29275014D01*
X27631713Y29384207D01*
X27566050Y29482478D01*
X27482478Y29566050D01*
X27384207Y29631713D01*
X27275014Y29676942D01*
X27159095Y29700000D01*
X27040905Y29700000D01*
X26924986Y29676942D01*
X26815793Y29631713D01*
X26717522Y29566050D01*
X26650000Y29498528D01*
X26582478Y29566050D01*
X26484207Y29631713D01*
X26375014Y29676942D01*
X26259095Y29700000D01*
X26140905Y29700000D01*
X26024986Y29676942D01*
X25915793Y29631713D01*
X25817522Y29566050D01*
X25750000Y29498528D01*
X25682478Y29566050D01*
X25584207Y29631713D01*
X25475014Y29676942D01*
X25359095Y29700000D01*
X25240905Y29700000D01*
X25124986Y29676942D01*
X25015793Y29631713D01*
X24917522Y29566050D01*
X24850000Y29498528D01*
X24782478Y29566050D01*
X24684207Y29631713D01*
X24575014Y29676942D01*
X24459095Y29700000D01*
X24340905Y29700000D01*
X24224986Y29676942D01*
X24115793Y29631713D01*
X24017522Y29566050D01*
X23950000Y29498528D01*
X23882478Y29566050D01*
X23784207Y29631713D01*
X23686343Y29672249D01*
X23700000Y29740905D01*
X23700000Y29859095D01*
X23676942Y29975014D01*
X23631713Y30084207D01*
X23566050Y30182478D01*
X23482478Y30266050D01*
X23384207Y30331713D01*
X23275014Y30376942D01*
X23159095Y30400000D01*
X23040905Y30400000D01*
X22924986Y30376942D01*
X22815793Y30331713D01*
X22717522Y30266050D01*
X22633950Y30182478D01*
X22568287Y30084207D01*
X22523058Y29975014D01*
X22500000Y29859095D01*
X20883726Y29859095D01*
X20900000Y29940905D01*
X20900000Y30059095D01*
X20876942Y30175014D01*
X20831713Y30284207D01*
X20766050Y30382478D01*
X20682478Y30466050D01*
X20584207Y30531713D01*
X20475014Y30576942D01*
X20359095Y30600000D01*
X20240905Y30600000D01*
X20124986Y30576942D01*
X20015793Y30531713D01*
X19917522Y30466050D01*
X19833950Y30382478D01*
X19768287Y30284207D01*
X19723058Y30175014D01*
X19700000Y30059095D01*
X18100000Y30059095D01*
X18100000Y32559095D01*
X29800000Y32559095D01*
X29800000Y32440905D01*
X29823058Y32324986D01*
X29868287Y32215793D01*
X29933950Y32117522D01*
X30017522Y32033950D01*
X30115793Y31968287D01*
X30224986Y31923058D01*
X30340905Y31900000D01*
X30459095Y31900000D01*
X30575014Y31923058D01*
X30684207Y31968287D01*
X30782478Y32033950D01*
X30866050Y32117522D01*
X30931713Y32215793D01*
X30976942Y32324986D01*
X31000000Y32440905D01*
X31000000Y32559095D01*
X30976942Y32675014D01*
X30931713Y32784207D01*
X30866050Y32882478D01*
X30782478Y32966050D01*
X30684207Y33031713D01*
X30575014Y33076942D01*
X30459095Y33100000D01*
X30340905Y33100000D01*
X30224986Y33076942D01*
X30115793Y33031713D01*
X30017522Y32966050D01*
X29933950Y32882478D01*
X29868287Y32784207D01*
X29823058Y32675014D01*
X29800000Y32559095D01*
X18100000Y32559095D01*
X18100000Y32958578D01*
X19100517Y33959095D01*
X19949964Y33959095D01*
X19949964Y33840905D01*
X19973022Y33724986D01*
X20018251Y33615793D01*
X20083914Y33517522D01*
X20167486Y33433950D01*
X20265757Y33368287D01*
X20374950Y33323058D01*
X20490869Y33300000D01*
X20609059Y33300000D01*
X20724978Y33323058D01*
X20834171Y33368287D01*
X20932442Y33433950D01*
X21016014Y33517522D01*
X21081677Y33615793D01*
X21126906Y33724986D01*
X21149964Y33840905D01*
X21149964Y33959095D01*
X21126906Y34075014D01*
X21081677Y34184207D01*
X21016014Y34282478D01*
X20939397Y34359095D01*
X22800000Y34359095D01*
X22800000Y34240905D01*
X22823058Y34124986D01*
X22868287Y34015793D01*
X22933950Y33917522D01*
X23017522Y33833950D01*
X23115793Y33768287D01*
X23224986Y33723058D01*
X23340905Y33700000D01*
X23459095Y33700000D01*
X23575014Y33723058D01*
X23684207Y33768287D01*
X23782478Y33833950D01*
X23866050Y33917522D01*
X23931713Y34015793D01*
X23976942Y34124986D01*
X24000000Y34240905D01*
X24000000Y34359095D01*
X26000000Y34359095D01*
X26000000Y34240905D01*
X26023058Y34124986D01*
X26068287Y34015793D01*
X26133950Y33917522D01*
X26217522Y33833950D01*
X26315793Y33768287D01*
X26424986Y33723058D01*
X26540905Y33700000D01*
X26659095Y33700000D01*
X26775014Y33723058D01*
X26884207Y33768287D01*
X26982478Y33833950D01*
X27066050Y33917522D01*
X27131713Y34015793D01*
X27176942Y34124986D01*
X27200000Y34240905D01*
X27200000Y34359095D01*
X27176942Y34475014D01*
X27131713Y34584207D01*
X27066050Y34682478D01*
X26982478Y34766050D01*
X26884207Y34831713D01*
X26775014Y34876942D01*
X26659095Y34900000D01*
X26540905Y34900000D01*
X26424986Y34876942D01*
X26315793Y34831713D01*
X26217522Y34766050D01*
X26133950Y34682478D01*
X26068287Y34584207D01*
X26023058Y34475014D01*
X26000000Y34359095D01*
X24000000Y34359095D01*
X23976942Y34475014D01*
X23931713Y34584207D01*
X23866050Y34682478D01*
X23782478Y34766050D01*
X23684207Y34831713D01*
X23575014Y34876942D01*
X23459095Y34900000D01*
X23340905Y34900000D01*
X23224986Y34876942D01*
X23115793Y34831713D01*
X23017522Y34766050D01*
X22933950Y34682478D01*
X22868287Y34584207D01*
X22823058Y34475014D01*
X22800000Y34359095D01*
X20939397Y34359095D01*
X20932442Y34366050D01*
X20834171Y34431713D01*
X20724978Y34476942D01*
X20609059Y34500000D01*
X20490869Y34500000D01*
X20374950Y34476942D01*
X20265757Y34431713D01*
X20167486Y34366050D01*
X20083914Y34282478D01*
X20018251Y34184207D01*
X19973022Y34075014D01*
X19949964Y33959095D01*
X19100517Y33959095D01*
X20330833Y35189411D01*
X20365463Y35182523D01*
X20483653Y35182523D01*
X20599572Y35205581D01*
X20708765Y35250810D01*
X20756862Y35282948D01*
X28881930Y35282948D01*
X28881930Y35164758D01*
X28904988Y35048839D01*
X28950217Y34939646D01*
X29015880Y34841375D01*
X29099452Y34757803D01*
X29197723Y34692140D01*
X29306916Y34646911D01*
X29422835Y34623853D01*
X29541025Y34623853D01*
X29656944Y34646911D01*
X29766137Y34692140D01*
X29864408Y34757803D01*
X29947980Y34841375D01*
X30013643Y34939646D01*
X30058872Y35048839D01*
X30081930Y35164758D01*
X30081930Y35282948D01*
X30058872Y35398867D01*
X30013643Y35508060D01*
X29947980Y35606331D01*
X29864408Y35689903D01*
X29766137Y35755566D01*
X29656944Y35800795D01*
X29541025Y35823853D01*
X29422835Y35823853D01*
X29306916Y35800795D01*
X29197723Y35755566D01*
X29099452Y35689903D01*
X29015880Y35606331D01*
X28950217Y35508060D01*
X28904988Y35398867D01*
X28881930Y35282948D01*
X20756862Y35282948D01*
X20807036Y35316473D01*
X20890608Y35400045D01*
X20956271Y35498316D01*
X21001500Y35607509D01*
X21024558Y35723428D01*
X21024558Y35841618D01*
X21017670Y35876248D01*
X22041705Y36900283D01*
X22927961Y36906353D01*
X23103267Y36731047D01*
G36*
X20017522Y43833950D02*
G01*
X20115793Y43768287D01*
X20224986Y43723058D01*
X20340905Y43700000D01*
X20459095Y43700000D01*
X20575014Y43723058D01*
X20684207Y43768287D01*
X20782478Y43833950D01*
X20848528Y43900000D01*
X22396169Y43900000D01*
X22443631Y43868287D01*
X22552824Y43823058D01*
X22668743Y43800000D01*
X22786933Y43800000D01*
X22902852Y43823058D01*
X23012045Y43868287D01*
X23059507Y43900000D01*
X28958578Y43900000D01*
X29900000Y42958578D01*
X29900000Y42041422D01*
X28958578Y41100000D01*
X28332905Y41100000D01*
X28313259Y41101935D01*
X28293613Y41100000D01*
X23848528Y41100000D01*
X23782478Y41166050D01*
X23684207Y41231713D01*
X23575014Y41276942D01*
X23459095Y41300000D01*
X23340905Y41300000D01*
X23224986Y41276942D01*
X23115793Y41231713D01*
X23017522Y41166050D01*
X22951472Y41100000D01*
X18331669Y41100000D01*
X18284207Y41131713D01*
X18175014Y41176942D01*
X18059095Y41200000D01*
X17940905Y41200000D01*
X17824986Y41176942D01*
X17715793Y41131713D01*
X17617522Y41066050D01*
X17533950Y40982478D01*
X17468287Y40884207D01*
X17423058Y40775014D01*
X17400000Y40659095D01*
X17400000Y40600462D01*
X13433564Y37074741D01*
X13420259Y37060344D01*
X13410019Y37043628D01*
X13403236Y37025235D01*
X13400000Y37000000D01*
X13400000Y22041422D01*
X12564245Y21205667D01*
X12531713Y21284207D01*
X12466050Y21382478D01*
X12382478Y21466050D01*
X12284207Y21531713D01*
X12175014Y21576942D01*
X12059095Y21600000D01*
X11940905Y21600000D01*
X11824986Y21576942D01*
X11715793Y21531713D01*
X11617522Y21466050D01*
X11533950Y21382478D01*
X11468287Y21284207D01*
X11423058Y21175014D01*
X11400000Y21059095D01*
X11400000Y20940905D01*
X11423058Y20824986D01*
X11468287Y20715793D01*
X11533950Y20617522D01*
X11617522Y20533950D01*
X11715793Y20468287D01*
X11794333Y20435755D01*
X11564245Y20205667D01*
X11531713Y20284207D01*
X11466050Y20382478D01*
X11382478Y20466050D01*
X11284207Y20531713D01*
X11175014Y20576942D01*
X11059095Y20600000D01*
X10940905Y20600000D01*
X10824986Y20576942D01*
X10715793Y20531713D01*
X10617522Y20466050D01*
X10533950Y20382478D01*
X10468287Y20284207D01*
X10423058Y20175014D01*
X10400000Y20059095D01*
X10400000Y19940905D01*
X10423058Y19824986D01*
X10468287Y19715793D01*
X10533950Y19617522D01*
X10551472Y19600000D01*
X8541422Y19600000D01*
X8100000Y20041422D01*
X8100000Y24059095D01*
X11400000Y24059095D01*
X11400000Y23940905D01*
X11423058Y23824986D01*
X11468287Y23715793D01*
X11533950Y23617522D01*
X11617522Y23533950D01*
X11715793Y23468287D01*
X11824986Y23423058D01*
X11940905Y23400000D01*
X12059095Y23400000D01*
X12175014Y23423058D01*
X12284207Y23468287D01*
X12382478Y23533950D01*
X12466050Y23617522D01*
X12531713Y23715793D01*
X12576942Y23824986D01*
X12600000Y23940905D01*
X12600000Y24059095D01*
X12576942Y24175014D01*
X12531713Y24284207D01*
X12466050Y24382478D01*
X12382478Y24466050D01*
X12284207Y24531713D01*
X12175014Y24576942D01*
X12059095Y24600000D01*
X11940905Y24600000D01*
X11824986Y24576942D01*
X11715793Y24531713D01*
X11617522Y24466050D01*
X11533950Y24382478D01*
X11468287Y24284207D01*
X11423058Y24175014D01*
X11400000Y24059095D01*
X8100000Y24059095D01*
X8100000Y25458578D01*
X8200517Y25559095D01*
X10400000Y25559095D01*
X10400000Y25440905D01*
X10423058Y25324986D01*
X10468287Y25215793D01*
X10533950Y25117522D01*
X10617522Y25033950D01*
X10715793Y24968287D01*
X10824986Y24923058D01*
X10940905Y24900000D01*
X11059095Y24900000D01*
X11175014Y24923058D01*
X11284207Y24968287D01*
X11382478Y25033950D01*
X11466050Y25117522D01*
X11531713Y25215793D01*
X11576942Y25324986D01*
X11600000Y25440905D01*
X11600000Y25559095D01*
X11576942Y25675014D01*
X11531713Y25784207D01*
X11466050Y25882478D01*
X11382478Y25966050D01*
X11284207Y26031713D01*
X11175014Y26076942D01*
X11059095Y26100000D01*
X10940905Y26100000D01*
X10824986Y26076942D01*
X10715793Y26031713D01*
X10617522Y25966050D01*
X10533950Y25882478D01*
X10468287Y25784207D01*
X10423058Y25675014D01*
X10400000Y25559095D01*
X8200517Y25559095D01*
X8541422Y25900000D01*
X9500000Y25900000D01*
X9519509Y25901921D01*
X9538268Y25907612D01*
X9555557Y25916853D01*
X9570711Y25929289D01*
X10070711Y26429289D01*
X10083147Y26444443D01*
X10092388Y26461732D01*
X10098079Y26480491D01*
X10100000Y26500000D01*
X10100000Y39958578D01*
X12700517Y42559095D01*
X17400000Y42559095D01*
X17400000Y42440905D01*
X17423058Y42324986D01*
X17468287Y42215793D01*
X17533950Y42117522D01*
X17617522Y42033950D01*
X17715793Y41968287D01*
X17824986Y41923058D01*
X17940905Y41900000D01*
X18059095Y41900000D01*
X18175014Y41923058D01*
X18284207Y41968287D01*
X18382478Y42033950D01*
X18466050Y42117522D01*
X18531713Y42215793D01*
X18576942Y42324986D01*
X18600000Y42440905D01*
X18600000Y42559095D01*
X19000000Y42559095D01*
X19000000Y42440905D01*
X19023058Y42324986D01*
X19068287Y42215793D01*
X19133950Y42117522D01*
X19217522Y42033950D01*
X19315793Y41968287D01*
X19424986Y41923058D01*
X19540905Y41900000D01*
X19659095Y41900000D01*
X19775014Y41923058D01*
X19884207Y41968287D01*
X19982478Y42033950D01*
X20066050Y42117522D01*
X20131713Y42215793D01*
X20176942Y42324986D01*
X20200000Y42440905D01*
X20200000Y42559095D01*
X20176942Y42675014D01*
X20131713Y42784207D01*
X20066050Y42882478D01*
X19982478Y42966050D01*
X19884207Y43031713D01*
X19775014Y43076942D01*
X19659095Y43100000D01*
X19540905Y43100000D01*
X19424986Y43076942D01*
X19315793Y43031713D01*
X19217522Y42966050D01*
X19133950Y42882478D01*
X19068287Y42784207D01*
X19023058Y42675014D01*
X19000000Y42559095D01*
X18600000Y42559095D01*
X18576942Y42675014D01*
X18531713Y42784207D01*
X18466050Y42882478D01*
X18382478Y42966050D01*
X18284207Y43031713D01*
X18175014Y43076942D01*
X18059095Y43100000D01*
X17940905Y43100000D01*
X17824986Y43076942D01*
X17715793Y43031713D01*
X17617522Y42966050D01*
X17533950Y42882478D01*
X17468287Y42784207D01*
X17423058Y42675014D01*
X17400000Y42559095D01*
X12700517Y42559095D01*
X14041422Y43900000D01*
X19951472Y43900000D01*
X20017522Y43833950D01*
X20017522Y43833950D01*
G37*
X20017522Y43833950D02*
X20115793Y43768287D01*
X20224986Y43723058D01*
X20340905Y43700000D01*
X20459095Y43700000D01*
X20575014Y43723058D01*
X20684207Y43768287D01*
X20782478Y43833950D01*
X20848528Y43900000D01*
X22396169Y43900000D01*
X22443631Y43868287D01*
X22552824Y43823058D01*
X22668743Y43800000D01*
X22786933Y43800000D01*
X22902852Y43823058D01*
X23012045Y43868287D01*
X23059507Y43900000D01*
X28958578Y43900000D01*
X29900000Y42958578D01*
X29900000Y42041422D01*
X28958578Y41100000D01*
X28332905Y41100000D01*
X28313259Y41101935D01*
X28293613Y41100000D01*
X23848528Y41100000D01*
X23782478Y41166050D01*
X23684207Y41231713D01*
X23575014Y41276942D01*
X23459095Y41300000D01*
X23340905Y41300000D01*
X23224986Y41276942D01*
X23115793Y41231713D01*
X23017522Y41166050D01*
X22951472Y41100000D01*
X18331669Y41100000D01*
X18284207Y41131713D01*
X18175014Y41176942D01*
X18059095Y41200000D01*
X17940905Y41200000D01*
X17824986Y41176942D01*
X17715793Y41131713D01*
X17617522Y41066050D01*
X17533950Y40982478D01*
X17468287Y40884207D01*
X17423058Y40775014D01*
X17400000Y40659095D01*
X17400000Y40600462D01*
X13433564Y37074741D01*
X13420259Y37060344D01*
X13410019Y37043628D01*
X13403236Y37025235D01*
X13400000Y37000000D01*
X13400000Y22041422D01*
X12564245Y21205667D01*
X12531713Y21284207D01*
X12466050Y21382478D01*
X12382478Y21466050D01*
X12284207Y21531713D01*
X12175014Y21576942D01*
X12059095Y21600000D01*
X11940905Y21600000D01*
X11824986Y21576942D01*
X11715793Y21531713D01*
X11617522Y21466050D01*
X11533950Y21382478D01*
X11468287Y21284207D01*
X11423058Y21175014D01*
X11400000Y21059095D01*
X11400000Y20940905D01*
X11423058Y20824986D01*
X11468287Y20715793D01*
X11533950Y20617522D01*
X11617522Y20533950D01*
X11715793Y20468287D01*
X11794333Y20435755D01*
X11564245Y20205667D01*
X11531713Y20284207D01*
X11466050Y20382478D01*
X11382478Y20466050D01*
X11284207Y20531713D01*
X11175014Y20576942D01*
X11059095Y20600000D01*
X10940905Y20600000D01*
X10824986Y20576942D01*
X10715793Y20531713D01*
X10617522Y20466050D01*
X10533950Y20382478D01*
X10468287Y20284207D01*
X10423058Y20175014D01*
X10400000Y20059095D01*
X10400000Y19940905D01*
X10423058Y19824986D01*
X10468287Y19715793D01*
X10533950Y19617522D01*
X10551472Y19600000D01*
X8541422Y19600000D01*
X8100000Y20041422D01*
X8100000Y24059095D01*
X11400000Y24059095D01*
X11400000Y23940905D01*
X11423058Y23824986D01*
X11468287Y23715793D01*
X11533950Y23617522D01*
X11617522Y23533950D01*
X11715793Y23468287D01*
X11824986Y23423058D01*
X11940905Y23400000D01*
X12059095Y23400000D01*
X12175014Y23423058D01*
X12284207Y23468287D01*
X12382478Y23533950D01*
X12466050Y23617522D01*
X12531713Y23715793D01*
X12576942Y23824986D01*
X12600000Y23940905D01*
X12600000Y24059095D01*
X12576942Y24175014D01*
X12531713Y24284207D01*
X12466050Y24382478D01*
X12382478Y24466050D01*
X12284207Y24531713D01*
X12175014Y24576942D01*
X12059095Y24600000D01*
X11940905Y24600000D01*
X11824986Y24576942D01*
X11715793Y24531713D01*
X11617522Y24466050D01*
X11533950Y24382478D01*
X11468287Y24284207D01*
X11423058Y24175014D01*
X11400000Y24059095D01*
X8100000Y24059095D01*
X8100000Y25458578D01*
X8200517Y25559095D01*
X10400000Y25559095D01*
X10400000Y25440905D01*
X10423058Y25324986D01*
X10468287Y25215793D01*
X10533950Y25117522D01*
X10617522Y25033950D01*
X10715793Y24968287D01*
X10824986Y24923058D01*
X10940905Y24900000D01*
X11059095Y24900000D01*
X11175014Y24923058D01*
X11284207Y24968287D01*
X11382478Y25033950D01*
X11466050Y25117522D01*
X11531713Y25215793D01*
X11576942Y25324986D01*
X11600000Y25440905D01*
X11600000Y25559095D01*
X11576942Y25675014D01*
X11531713Y25784207D01*
X11466050Y25882478D01*
X11382478Y25966050D01*
X11284207Y26031713D01*
X11175014Y26076942D01*
X11059095Y26100000D01*
X10940905Y26100000D01*
X10824986Y26076942D01*
X10715793Y26031713D01*
X10617522Y25966050D01*
X10533950Y25882478D01*
X10468287Y25784207D01*
X10423058Y25675014D01*
X10400000Y25559095D01*
X8200517Y25559095D01*
X8541422Y25900000D01*
X9500000Y25900000D01*
X9519509Y25901921D01*
X9538268Y25907612D01*
X9555557Y25916853D01*
X9570711Y25929289D01*
X10070711Y26429289D01*
X10083147Y26444443D01*
X10092388Y26461732D01*
X10098079Y26480491D01*
X10100000Y26500000D01*
X10100000Y39958578D01*
X12700517Y42559095D01*
X17400000Y42559095D01*
X17400000Y42440905D01*
X17423058Y42324986D01*
X17468287Y42215793D01*
X17533950Y42117522D01*
X17617522Y42033950D01*
X17715793Y41968287D01*
X17824986Y41923058D01*
X17940905Y41900000D01*
X18059095Y41900000D01*
X18175014Y41923058D01*
X18284207Y41968287D01*
X18382478Y42033950D01*
X18466050Y42117522D01*
X18531713Y42215793D01*
X18576942Y42324986D01*
X18600000Y42440905D01*
X18600000Y42559095D01*
X19000000Y42559095D01*
X19000000Y42440905D01*
X19023058Y42324986D01*
X19068287Y42215793D01*
X19133950Y42117522D01*
X19217522Y42033950D01*
X19315793Y41968287D01*
X19424986Y41923058D01*
X19540905Y41900000D01*
X19659095Y41900000D01*
X19775014Y41923058D01*
X19884207Y41968287D01*
X19982478Y42033950D01*
X20066050Y42117522D01*
X20131713Y42215793D01*
X20176942Y42324986D01*
X20200000Y42440905D01*
X20200000Y42559095D01*
X20176942Y42675014D01*
X20131713Y42784207D01*
X20066050Y42882478D01*
X19982478Y42966050D01*
X19884207Y43031713D01*
X19775014Y43076942D01*
X19659095Y43100000D01*
X19540905Y43100000D01*
X19424986Y43076942D01*
X19315793Y43031713D01*
X19217522Y42966050D01*
X19133950Y42882478D01*
X19068287Y42784207D01*
X19023058Y42675014D01*
X19000000Y42559095D01*
X18600000Y42559095D01*
X18576942Y42675014D01*
X18531713Y42784207D01*
X18466050Y42882478D01*
X18382478Y42966050D01*
X18284207Y43031713D01*
X18175014Y43076942D01*
X18059095Y43100000D01*
X17940905Y43100000D01*
X17824986Y43076942D01*
X17715793Y43031713D01*
X17617522Y42966050D01*
X17533950Y42882478D01*
X17468287Y42784207D01*
X17423058Y42675014D01*
X17400000Y42559095D01*
X12700517Y42559095D01*
X14041422Y43900000D01*
X19951472Y43900000D01*
X20017522Y43833950D01*
M02*
