G04 #@! TF.GenerationSoftware,KiCad,Pcbnew,(5.1.0)-1*
G04 #@! TF.CreationDate,2019-04-02T21:11:50+01:00*
G04 #@! TF.ProjectId,uCODEC-1.0,75434f44-4543-42d3-912e-302e6b696361,1.0*
G04 #@! TF.SameCoordinates,PX7de2900PY7365040*
G04 #@! TF.FileFunction,Legend,Bot*
G04 #@! TF.FilePolarity,Positive*
%FSLAX46Y46*%
G04 Gerber Fmt 4.6, Leading zero omitted, Abs format (unit mm)*
G04 Created by KiCad (PCBNEW (5.1.0)-1) date 2019-04-02 21:11:50*
%MOMM*%
%LPD*%
G04 APERTURE LIST*
%ADD10C,0.100000*%
%ADD11C,0.150000*%
%ADD12C,0.200000*%
%ADD13C,0.300000*%
G04 APERTURE END LIST*
D10*
X37400000Y49850000D02*
X37400000Y48700000D01*
X34950000Y49850000D02*
X34950000Y48700000D01*
X40400000Y49850000D02*
X40400000Y48700000D01*
X32500000Y49850000D02*
X32500000Y48700000D01*
X17600000Y49900000D02*
X17600000Y48750000D01*
X14600000Y49900000D02*
X14600000Y48750000D01*
X12150000Y49900000D02*
X12150000Y48750000D01*
X9700000Y49900000D02*
X9700000Y48750000D01*
D11*
X45071428Y16938096D02*
X45528571Y16938096D01*
X45300000Y16938096D02*
X45300000Y17738096D01*
X45376190Y17623810D01*
X45452380Y17547620D01*
X45528571Y17509524D01*
X45147619Y9871429D02*
X45147619Y9338096D01*
X45338095Y10176191D02*
X45528571Y9604762D01*
X45033333Y9604762D01*
X45566666Y12738096D02*
X45071428Y12738096D01*
X45338095Y12433334D01*
X45223809Y12433334D01*
X45147619Y12395239D01*
X45109523Y12357143D01*
X45071428Y12280953D01*
X45071428Y12090477D01*
X45109523Y12014286D01*
X45147619Y11976191D01*
X45223809Y11938096D01*
X45452380Y11938096D01*
X45528571Y11976191D01*
X45566666Y12014286D01*
X45528571Y15161905D02*
X45490476Y15200000D01*
X45414285Y15238096D01*
X45223809Y15238096D01*
X45147619Y15200000D01*
X45109523Y15161905D01*
X45071428Y15085715D01*
X45071428Y15009524D01*
X45109523Y14895239D01*
X45566666Y14438096D01*
X45071428Y14438096D01*
X4471428Y39838096D02*
X4928571Y39838096D01*
X4700000Y39838096D02*
X4700000Y40638096D01*
X4776190Y40523810D01*
X4852380Y40447620D01*
X4928571Y40409524D01*
X4928571Y38061905D02*
X4890476Y38100000D01*
X4814285Y38138096D01*
X4623809Y38138096D01*
X4547619Y38100000D01*
X4509523Y38061905D01*
X4471428Y37985715D01*
X4471428Y37909524D01*
X4509523Y37795239D01*
X4966666Y37338096D01*
X4471428Y37338096D01*
X4547619Y32771429D02*
X4547619Y32238096D01*
X4738095Y33076191D02*
X4928571Y32504762D01*
X4433333Y32504762D01*
X4966666Y35638096D02*
X4471428Y35638096D01*
X4738095Y35333334D01*
X4623809Y35333334D01*
X4547619Y35295239D01*
X4509523Y35257143D01*
X4471428Y35180953D01*
X4471428Y34990477D01*
X4509523Y34914286D01*
X4547619Y34876191D01*
X4623809Y34838096D01*
X4852380Y34838096D01*
X4928571Y34876191D01*
X4966666Y34914286D01*
X45376190Y40195239D02*
X45452380Y40233334D01*
X45490476Y40271429D01*
X45528571Y40347620D01*
X45528571Y40385715D01*
X45490476Y40461905D01*
X45452380Y40500000D01*
X45376190Y40538096D01*
X45223809Y40538096D01*
X45147619Y40500000D01*
X45109523Y40461905D01*
X45071428Y40385715D01*
X45071428Y40347620D01*
X45109523Y40271429D01*
X45147619Y40233334D01*
X45223809Y40195239D01*
X45376190Y40195239D01*
X45452380Y40157143D01*
X45490476Y40119048D01*
X45528571Y40042858D01*
X45528571Y39890477D01*
X45490476Y39814286D01*
X45452380Y39776191D01*
X45376190Y39738096D01*
X45223809Y39738096D01*
X45147619Y39776191D01*
X45109523Y39814286D01*
X45071428Y39890477D01*
X45071428Y40042858D01*
X45109523Y40119048D01*
X45147619Y40157143D01*
X45223809Y40195239D01*
X45566666Y38038096D02*
X45033333Y38038096D01*
X45376190Y37238096D01*
X45147619Y35538096D02*
X45300000Y35538096D01*
X45376190Y35500000D01*
X45414285Y35461905D01*
X45490476Y35347620D01*
X45528571Y35195239D01*
X45528571Y34890477D01*
X45490476Y34814286D01*
X45452380Y34776191D01*
X45376190Y34738096D01*
X45223809Y34738096D01*
X45147619Y34776191D01*
X45109523Y34814286D01*
X45071428Y34890477D01*
X45071428Y35080953D01*
X45109523Y35157143D01*
X45147619Y35195239D01*
X45223809Y35233334D01*
X45376190Y35233334D01*
X45452380Y35195239D01*
X45490476Y35157143D01*
X45528571Y35080953D01*
X45109523Y32938096D02*
X45490476Y32938096D01*
X45528571Y32557143D01*
X45490476Y32595239D01*
X45414285Y32633334D01*
X45223809Y32633334D01*
X45147619Y32595239D01*
X45109523Y32557143D01*
X45071428Y32480953D01*
X45071428Y32290477D01*
X45109523Y32214286D01*
X45147619Y32176191D01*
X45223809Y32138096D01*
X45414285Y32138096D01*
X45490476Y32176191D01*
X45528571Y32214286D01*
X42900000Y8600000D02*
X43500000Y8600000D01*
X47700000Y8600000D02*
X47300000Y8600000D01*
X47700000Y11500000D02*
X47700000Y15200000D01*
X47700000Y8600000D02*
X47700000Y9700000D01*
X42900000Y8600000D02*
X43000000Y8600000D01*
X42900000Y15500000D02*
X42900000Y8600000D01*
X47400000Y18700000D02*
X43600000Y18700000D01*
X43100000Y31600000D02*
X43100000Y41500000D01*
X47800000Y31400000D02*
X43200000Y31400000D01*
X47800000Y32000000D02*
X47800000Y31400000D01*
X47800000Y41500000D02*
X47800000Y34900000D01*
X47100000Y41500000D02*
X47800000Y41500000D01*
X2200000Y41400000D02*
X2200000Y41100000D01*
X2300000Y31400000D02*
X2300000Y37400000D01*
X2800000Y31400000D02*
X2300000Y31400000D01*
X7100000Y41400000D02*
X7100000Y32000000D01*
X2200000Y41400000D02*
X7100000Y41400000D01*
X46980952Y8028572D02*
X46219047Y8028572D01*
X46600000Y7647620D02*
X46600000Y8409524D01*
X44480952Y8028572D02*
X43719047Y8028572D01*
X48952380Y11223810D02*
X47952380Y11223810D01*
X48952380Y10747620D02*
X47952380Y10747620D01*
X48952380Y10176191D01*
X47952380Y10176191D01*
X6652380Y31400000D02*
X6652380Y31209524D01*
X6700000Y31114286D01*
X6795238Y31019048D01*
X6985714Y30971429D01*
X7319047Y30971429D01*
X7509523Y31019048D01*
X7604761Y31114286D01*
X7652380Y31209524D01*
X7652380Y31400000D01*
X7604761Y31495239D01*
X7509523Y31590477D01*
X7319047Y31638096D01*
X6985714Y31638096D01*
X6795238Y31590477D01*
X6700000Y31495239D01*
X6652380Y31400000D01*
X6652380Y30542858D02*
X7461904Y30542858D01*
X7557142Y30495239D01*
X7604761Y30447620D01*
X7652380Y30352381D01*
X7652380Y30161905D01*
X7604761Y30066667D01*
X7557142Y30019048D01*
X7461904Y29971429D01*
X6652380Y29971429D01*
X6652380Y29638096D02*
X6652380Y29066667D01*
X7652380Y29352381D02*
X6652380Y29352381D01*
X3019047Y31071429D02*
X3780952Y31071429D01*
X3400000Y31452381D02*
X3400000Y30690477D01*
X5519047Y31071429D02*
X6280952Y31071429D01*
X45700000Y43147620D02*
X45509523Y43147620D01*
X45414285Y43100000D01*
X45319047Y43004762D01*
X45271428Y42814286D01*
X45271428Y42480953D01*
X45319047Y42290477D01*
X45414285Y42195239D01*
X45509523Y42147620D01*
X45700000Y42147620D01*
X45795238Y42195239D01*
X45890476Y42290477D01*
X45938095Y42480953D01*
X45938095Y42814286D01*
X45890476Y43004762D01*
X45795238Y43100000D01*
X45700000Y43147620D01*
X44842857Y43147620D02*
X44842857Y42338096D01*
X44795238Y42242858D01*
X44747619Y42195239D01*
X44652380Y42147620D01*
X44461904Y42147620D01*
X44366666Y42195239D01*
X44319047Y42242858D01*
X44271428Y42338096D01*
X44271428Y43147620D01*
X43938095Y43147620D02*
X43366666Y43147620D01*
X43652380Y42147620D02*
X43652380Y43147620D01*
X44480952Y41828572D02*
X43719047Y41828572D01*
X46980952Y41828572D02*
X46219047Y41828572D01*
X46600000Y41447620D02*
X46600000Y42209524D01*
D12*
X34809523Y43176191D02*
X34695238Y43138096D01*
X34504761Y43138096D01*
X34428571Y43176191D01*
X34390476Y43214286D01*
X34352380Y43290477D01*
X34352380Y43366667D01*
X34390476Y43442858D01*
X34428571Y43480953D01*
X34504761Y43519048D01*
X34657142Y43557143D01*
X34733333Y43595239D01*
X34771428Y43633334D01*
X34809523Y43709524D01*
X34809523Y43785715D01*
X34771428Y43861905D01*
X34733333Y43900000D01*
X34657142Y43938096D01*
X34466666Y43938096D01*
X34352380Y43900000D01*
X34009523Y43138096D02*
X34009523Y43938096D01*
X33819047Y43938096D01*
X33704761Y43900000D01*
X33628571Y43823810D01*
X33590476Y43747620D01*
X33552380Y43595239D01*
X33552380Y43480953D01*
X33590476Y43328572D01*
X33628571Y43252381D01*
X33704761Y43176191D01*
X33819047Y43138096D01*
X34009523Y43138096D01*
X32790476Y43138096D02*
X33247619Y43138096D01*
X33019047Y43138096D02*
X33019047Y43938096D01*
X33095238Y43823810D01*
X33171428Y43747620D01*
X33247619Y43709524D01*
X39852380Y48838096D02*
X40233333Y48838096D01*
X40233333Y49638096D01*
X39128571Y48838096D02*
X39395238Y49219048D01*
X39585714Y48838096D02*
X39585714Y49638096D01*
X39280952Y49638096D01*
X39204761Y49600000D01*
X39166666Y49561905D01*
X39128571Y49485715D01*
X39128571Y49371429D01*
X39166666Y49295239D01*
X39204761Y49257143D01*
X39280952Y49219048D01*
X39585714Y49219048D01*
X38328571Y48914286D02*
X38366666Y48876191D01*
X38480952Y48838096D01*
X38557142Y48838096D01*
X38671428Y48876191D01*
X38747619Y48952381D01*
X38785714Y49028572D01*
X38823809Y49180953D01*
X38823809Y49295239D01*
X38785714Y49447620D01*
X38747619Y49523810D01*
X38671428Y49600000D01*
X38557142Y49638096D01*
X38480952Y49638096D01*
X38366666Y49600000D01*
X38328571Y49561905D01*
X37985714Y48838096D02*
X37985714Y49638096D01*
X37528571Y48838096D02*
X37871428Y49295239D01*
X37528571Y49638096D02*
X37985714Y49180953D01*
X31809523Y49600000D02*
X31885714Y49638096D01*
X32000000Y49638096D01*
X32114285Y49600000D01*
X32190476Y49523810D01*
X32228571Y49447620D01*
X32266666Y49295239D01*
X32266666Y49180953D01*
X32228571Y49028572D01*
X32190476Y48952381D01*
X32114285Y48876191D01*
X32000000Y48838096D01*
X31923809Y48838096D01*
X31809523Y48876191D01*
X31771428Y48914286D01*
X31771428Y49180953D01*
X31923809Y49180953D01*
X31428571Y48838096D02*
X31428571Y49638096D01*
X30971428Y48838096D01*
X30971428Y49638096D01*
X30590476Y48838096D02*
X30590476Y49638096D01*
X30400000Y49638096D01*
X30285714Y49600000D01*
X30209523Y49523810D01*
X30171428Y49447620D01*
X30133333Y49295239D01*
X30133333Y49180953D01*
X30171428Y49028572D01*
X30209523Y48952381D01*
X30285714Y48876191D01*
X30400000Y48838096D01*
X30590476Y48838096D01*
X43390476Y48838096D02*
X43390476Y49638096D01*
X43123809Y49066667D01*
X42857142Y49638096D01*
X42857142Y48838096D01*
X42019047Y48914286D02*
X42057142Y48876191D01*
X42171428Y48838096D01*
X42247619Y48838096D01*
X42361904Y48876191D01*
X42438095Y48952381D01*
X42476190Y49028572D01*
X42514285Y49180953D01*
X42514285Y49295239D01*
X42476190Y49447620D01*
X42438095Y49523810D01*
X42361904Y49600000D01*
X42247619Y49638096D01*
X42171428Y49638096D01*
X42057142Y49600000D01*
X42019047Y49561905D01*
X41295238Y48838096D02*
X41676190Y48838096D01*
X41676190Y49638096D01*
X41028571Y48838096D02*
X41028571Y49638096D01*
X40571428Y48838096D02*
X40914285Y49295239D01*
X40571428Y49638096D02*
X41028571Y49180953D01*
X34709523Y48876191D02*
X34595238Y48838096D01*
X34404761Y48838096D01*
X34328571Y48876191D01*
X34290476Y48914286D01*
X34252380Y48990477D01*
X34252380Y49066667D01*
X34290476Y49142858D01*
X34328571Y49180953D01*
X34404761Y49219048D01*
X34557142Y49257143D01*
X34633333Y49295239D01*
X34671428Y49333334D01*
X34709523Y49409524D01*
X34709523Y49485715D01*
X34671428Y49561905D01*
X34633333Y49600000D01*
X34557142Y49638096D01*
X34366666Y49638096D01*
X34252380Y49600000D01*
X33909523Y48838096D02*
X33909523Y49638096D01*
X33719047Y49638096D01*
X33604761Y49600000D01*
X33528571Y49523810D01*
X33490476Y49447620D01*
X33452380Y49295239D01*
X33452380Y49180953D01*
X33490476Y49028572D01*
X33528571Y48952381D01*
X33604761Y48876191D01*
X33719047Y48838096D01*
X33909523Y48838096D01*
X32957142Y49638096D02*
X32880952Y49638096D01*
X32804761Y49600000D01*
X32766666Y49561905D01*
X32728571Y49485715D01*
X32690476Y49333334D01*
X32690476Y49142858D01*
X32728571Y48990477D01*
X32766666Y48914286D01*
X32804761Y48876191D01*
X32880952Y48838096D01*
X32957142Y48838096D01*
X33033333Y48876191D01*
X33071428Y48914286D01*
X33109523Y48990477D01*
X33147619Y49142858D01*
X33147619Y49333334D01*
X33109523Y49485715D01*
X33071428Y49561905D01*
X33033333Y49600000D01*
X32957142Y49638096D01*
X36942857Y49257143D02*
X36828571Y49219048D01*
X36790476Y49180953D01*
X36752380Y49104762D01*
X36752380Y48990477D01*
X36790476Y48914286D01*
X36828571Y48876191D01*
X36904761Y48838096D01*
X37209523Y48838096D01*
X37209523Y49638096D01*
X36942857Y49638096D01*
X36866666Y49600000D01*
X36828571Y49561905D01*
X36790476Y49485715D01*
X36790476Y49409524D01*
X36828571Y49333334D01*
X36866666Y49295239D01*
X36942857Y49257143D01*
X37209523Y49257143D01*
X35952380Y48914286D02*
X35990476Y48876191D01*
X36104761Y48838096D01*
X36180952Y48838096D01*
X36295238Y48876191D01*
X36371428Y48952381D01*
X36409523Y49028572D01*
X36447619Y49180953D01*
X36447619Y49295239D01*
X36409523Y49447620D01*
X36371428Y49523810D01*
X36295238Y49600000D01*
X36180952Y49638096D01*
X36104761Y49638096D01*
X35990476Y49600000D01*
X35952380Y49561905D01*
X35609523Y48838096D02*
X35609523Y49638096D01*
X35152380Y48838096D02*
X35495238Y49295239D01*
X35152380Y49638096D02*
X35609523Y49180953D01*
X42613000Y46490000D02*
X42613000Y48600000D01*
X42613000Y44077000D02*
X30167000Y44077000D01*
X42613000Y46490000D02*
X42613000Y44077000D01*
X30167000Y46490000D02*
X42613000Y46490000D01*
X30167000Y44077000D02*
X30167000Y48600000D01*
D11*
X12700000Y43900000D02*
X12200000Y44700000D01*
D12*
X12576190Y41790477D02*
X12538095Y41904762D01*
X12538095Y42095239D01*
X12576190Y42171429D01*
X12614285Y42209524D01*
X12690476Y42247620D01*
X12766666Y42247620D01*
X12842857Y42209524D01*
X12880952Y42171429D01*
X12919047Y42095239D01*
X12957142Y41942858D01*
X12995238Y41866667D01*
X13033333Y41828572D01*
X13109523Y41790477D01*
X13185714Y41790477D01*
X13261904Y41828572D01*
X13300000Y41866667D01*
X13338095Y41942858D01*
X13338095Y42133334D01*
X13300000Y42247620D01*
X12538095Y42590477D02*
X13338095Y42590477D01*
X13338095Y42780953D01*
X13300000Y42895239D01*
X13223809Y42971429D01*
X13147619Y43009524D01*
X12995238Y43047620D01*
X12880952Y43047620D01*
X12728571Y43009524D01*
X12652380Y42971429D01*
X12576190Y42895239D01*
X12538095Y42780953D01*
X12538095Y42590477D01*
X12538095Y43809524D02*
X12538095Y43352381D01*
X12538095Y43580953D02*
X13338095Y43580953D01*
X13223809Y43504762D01*
X13147619Y43428572D01*
X13109523Y43352381D01*
D11*
X47700000Y18800000D02*
X47300000Y19000000D01*
X30400000Y36900000D02*
X29200000Y37200000D01*
X30600000Y41100000D02*
X29200000Y41600000D01*
X26200000Y39800000D02*
X26500000Y40300000D01*
X43000000Y18600000D02*
X43300000Y18900000D01*
D12*
X24970000Y947000D02*
X27002000Y947000D01*
X38812714Y8751143D02*
X38546047Y8751143D01*
X38431761Y8332096D02*
X38812714Y8332096D01*
X38812714Y9132096D01*
X38431761Y9132096D01*
X38165095Y9132096D02*
X37631761Y8332096D01*
X37631761Y9132096D02*
X38165095Y8332096D01*
X37441285Y9132096D02*
X36984142Y9132096D01*
X37212714Y8332096D02*
X37212714Y9132096D01*
X35650809Y8408286D02*
X35688904Y8370191D01*
X35803190Y8332096D01*
X35879380Y8332096D01*
X35993666Y8370191D01*
X36069857Y8446381D01*
X36107952Y8522572D01*
X36146047Y8674953D01*
X36146047Y8789239D01*
X36107952Y8941620D01*
X36069857Y9017810D01*
X35993666Y9094000D01*
X35879380Y9132096D01*
X35803190Y9132096D01*
X35688904Y9094000D01*
X35650809Y9055905D01*
X34927000Y8332096D02*
X35307952Y8332096D01*
X35307952Y9132096D01*
X34660333Y8332096D02*
X34660333Y9132096D01*
X34203190Y8332096D02*
X34546047Y8789239D01*
X34203190Y9132096D02*
X34660333Y8674953D01*
X34780333Y204096D02*
X34780333Y1004096D01*
X34513666Y432667D01*
X34247000Y1004096D01*
X34247000Y204096D01*
X33904142Y432667D02*
X33523190Y432667D01*
X33980333Y204096D02*
X33713666Y1004096D01*
X33447000Y204096D01*
X33218428Y242191D02*
X33104142Y204096D01*
X32913666Y204096D01*
X32837476Y242191D01*
X32799380Y280286D01*
X32761285Y356477D01*
X32761285Y432667D01*
X32799380Y508858D01*
X32837476Y546953D01*
X32913666Y585048D01*
X33066047Y623143D01*
X33142238Y661239D01*
X33180333Y699334D01*
X33218428Y775524D01*
X33218428Y851715D01*
X33180333Y927905D01*
X33142238Y966000D01*
X33066047Y1004096D01*
X32875571Y1004096D01*
X32761285Y966000D01*
X32532714Y1004096D02*
X32075571Y1004096D01*
X32304142Y204096D02*
X32304142Y1004096D01*
X31808904Y623143D02*
X31542238Y623143D01*
X31427952Y204096D02*
X31808904Y204096D01*
X31808904Y1004096D01*
X31427952Y1004096D01*
X30627952Y204096D02*
X30894619Y585048D01*
X31085095Y204096D02*
X31085095Y1004096D01*
X30780333Y1004096D01*
X30704142Y966000D01*
X30666047Y927905D01*
X30627952Y851715D01*
X30627952Y737429D01*
X30666047Y661239D01*
X30704142Y623143D01*
X30780333Y585048D01*
X31085095Y585048D01*
X29713666Y242191D02*
X29599380Y204096D01*
X29408904Y204096D01*
X29332714Y242191D01*
X29294619Y280286D01*
X29256523Y356477D01*
X29256523Y432667D01*
X29294619Y508858D01*
X29332714Y546953D01*
X29408904Y585048D01*
X29561285Y623143D01*
X29637476Y661239D01*
X29675571Y699334D01*
X29713666Y775524D01*
X29713666Y851715D01*
X29675571Y927905D01*
X29637476Y966000D01*
X29561285Y1004096D01*
X29370809Y1004096D01*
X29256523Y966000D01*
X28913666Y204096D02*
X28913666Y1004096D01*
X28608904Y1004096D01*
X28532714Y966000D01*
X28494619Y927905D01*
X28456523Y851715D01*
X28456523Y737429D01*
X28494619Y661239D01*
X28532714Y623143D01*
X28608904Y585048D01*
X28913666Y585048D01*
X28113666Y204096D02*
X28113666Y1004096D01*
X35130000Y947000D02*
X35130000Y5900000D01*
X24970000Y5900000D02*
X24970000Y947000D01*
X30050000Y8313000D02*
X30050000Y5900000D01*
X40083000Y8313000D02*
X40083000Y5900000D01*
X30050000Y8313000D02*
X33733000Y8313000D01*
X24970000Y5900000D02*
X40100000Y5900000D01*
X19813000Y44177000D02*
X7367000Y44177000D01*
X19813000Y46590000D02*
X19813000Y44177000D01*
X19800000Y46500000D02*
X19800000Y48600000D01*
X7367000Y46590000D02*
X19813000Y46590000D01*
X7367000Y44177000D02*
X7367000Y48700000D01*
X22844285Y48938096D02*
X22844285Y49738096D01*
X22501428Y49661905D02*
X22463333Y49700000D01*
X22387142Y49738096D01*
X22196666Y49738096D01*
X22120476Y49700000D01*
X22082380Y49661905D01*
X22044285Y49585715D01*
X22044285Y49509524D01*
X22082380Y49395239D01*
X22539523Y48938096D01*
X22044285Y48938096D01*
X21739523Y48976191D02*
X21625238Y48938096D01*
X21434761Y48938096D01*
X21358571Y48976191D01*
X21320476Y49014286D01*
X21282380Y49090477D01*
X21282380Y49166667D01*
X21320476Y49242858D01*
X21358571Y49280953D01*
X21434761Y49319048D01*
X21587142Y49357143D01*
X21663333Y49395239D01*
X21701428Y49433334D01*
X21739523Y49509524D01*
X21739523Y49585715D01*
X21701428Y49661905D01*
X21663333Y49700000D01*
X21587142Y49738096D01*
X21396666Y49738096D01*
X21282380Y49700000D01*
X19849047Y43138096D02*
X19849047Y43671429D01*
X19849047Y43938096D02*
X19887142Y43900000D01*
X19849047Y43861905D01*
X19810952Y43900000D01*
X19849047Y43938096D01*
X19849047Y43861905D01*
X19468095Y43671429D02*
X19468095Y43138096D01*
X19468095Y43595239D02*
X19430000Y43633334D01*
X19353809Y43671429D01*
X19239523Y43671429D01*
X19163333Y43633334D01*
X19125238Y43557143D01*
X19125238Y43138096D01*
X18744285Y43671429D02*
X18744285Y42871429D01*
X18744285Y43633334D02*
X18668095Y43671429D01*
X18515714Y43671429D01*
X18439523Y43633334D01*
X18401428Y43595239D01*
X18363333Y43519048D01*
X18363333Y43290477D01*
X18401428Y43214286D01*
X18439523Y43176191D01*
X18515714Y43138096D01*
X18668095Y43138096D01*
X18744285Y43176191D01*
X17677619Y43671429D02*
X17677619Y43138096D01*
X18020476Y43671429D02*
X18020476Y43252381D01*
X17982380Y43176191D01*
X17906190Y43138096D01*
X17791904Y43138096D01*
X17715714Y43176191D01*
X17677619Y43214286D01*
X17410952Y43671429D02*
X17106190Y43671429D01*
X17296666Y43938096D02*
X17296666Y43252381D01*
X17258571Y43176191D01*
X17182380Y43138096D01*
X17106190Y43138096D01*
X852380Y37047620D02*
X852380Y36476191D01*
X1852380Y36761905D02*
X852380Y36761905D01*
X1566666Y36190477D02*
X1566666Y35714286D01*
X1852380Y36285715D02*
X852380Y35952381D01*
X1852380Y35619048D01*
X1852380Y35285715D02*
X852380Y35285715D01*
X852380Y34904762D01*
X900000Y34809524D01*
X947619Y34761905D01*
X1042857Y34714286D01*
X1185714Y34714286D01*
X1280952Y34761905D01*
X1328571Y34809524D01*
X1376190Y34904762D01*
X1376190Y35285715D01*
X1852380Y33714286D02*
X1376190Y34047620D01*
X1852380Y34285715D02*
X852380Y34285715D01*
X852380Y33904762D01*
X900000Y33809524D01*
X947619Y33761905D01*
X1042857Y33714286D01*
X1185714Y33714286D01*
X1280952Y33761905D01*
X1328571Y33809524D01*
X1376190Y33904762D01*
X1376190Y34285715D01*
X852380Y32333334D02*
X852380Y32142858D01*
X900000Y32047620D01*
X995238Y31952381D01*
X1185714Y31904762D01*
X1519047Y31904762D01*
X1709523Y31952381D01*
X1804761Y32047620D01*
X1852380Y32142858D01*
X1852380Y32333334D01*
X1804761Y32428572D01*
X1709523Y32523810D01*
X1519047Y32571429D01*
X1185714Y32571429D01*
X995238Y32523810D01*
X900000Y32428572D01*
X852380Y32333334D01*
X1852380Y31476191D02*
X852380Y31476191D01*
X1328571Y31476191D02*
X1328571Y30904762D01*
X1852380Y30904762D02*
X852380Y30904762D01*
X1852380Y29952381D02*
X1852380Y30428572D01*
X852380Y30428572D01*
X1728571Y40442858D02*
X2261904Y40442858D01*
X1728571Y40785715D02*
X2147619Y40785715D01*
X2223809Y40747620D01*
X2261904Y40671429D01*
X2261904Y40557143D01*
X2223809Y40480953D01*
X2185714Y40442858D01*
X1728571Y40061905D02*
X2261904Y40061905D01*
X1804761Y40061905D02*
X1766666Y40023810D01*
X1728571Y39947620D01*
X1728571Y39833334D01*
X1766666Y39757143D01*
X1842857Y39719048D01*
X2261904Y39719048D01*
X2261904Y38995239D02*
X1461904Y38995239D01*
X2223809Y38995239D02*
X2261904Y39071429D01*
X2261904Y39223810D01*
X2223809Y39300000D01*
X2185714Y39338096D01*
X2109523Y39376191D01*
X1880952Y39376191D01*
X1804761Y39338096D01*
X1766666Y39300000D01*
X1728571Y39223810D01*
X1728571Y39071429D01*
X1766666Y38995239D01*
X2223809Y38309524D02*
X2261904Y38385715D01*
X2261904Y38538096D01*
X2223809Y38614286D01*
X2147619Y38652381D01*
X1842857Y38652381D01*
X1766666Y38614286D01*
X1728571Y38538096D01*
X1728571Y38385715D01*
X1766666Y38309524D01*
X1842857Y38271429D01*
X1919047Y38271429D01*
X1995238Y38652381D01*
X2261904Y37928572D02*
X1728571Y37928572D01*
X1880952Y37928572D02*
X1804761Y37890477D01*
X1766666Y37852381D01*
X1728571Y37776191D01*
X1728571Y37700000D01*
X48128571Y42576191D02*
X48661904Y42423810D01*
X48280952Y42271429D01*
X48661904Y42119048D01*
X48128571Y41966667D01*
X48128571Y41738096D02*
X48661904Y41585715D01*
X48280952Y41433334D01*
X48661904Y41280953D01*
X48128571Y41128572D01*
X48128571Y40900000D02*
X48661904Y40747620D01*
X48280952Y40595239D01*
X48661904Y40442858D01*
X48128571Y40290477D01*
X48585714Y39985715D02*
X48623809Y39947620D01*
X48661904Y39985715D01*
X48623809Y40023810D01*
X48585714Y39985715D01*
X48661904Y39985715D01*
X48128571Y39719048D02*
X48128571Y39414286D01*
X47861904Y39604762D02*
X48547619Y39604762D01*
X48623809Y39566667D01*
X48661904Y39490477D01*
X48661904Y39414286D01*
X48661904Y38804762D02*
X48242857Y38804762D01*
X48166666Y38842858D01*
X48128571Y38919048D01*
X48128571Y39071429D01*
X48166666Y39147620D01*
X48623809Y38804762D02*
X48661904Y38880953D01*
X48661904Y39071429D01*
X48623809Y39147620D01*
X48547619Y39185715D01*
X48471428Y39185715D01*
X48395238Y39147620D01*
X48357142Y39071429D01*
X48357142Y38880953D01*
X48319047Y38804762D01*
X48128571Y38423810D02*
X48928571Y38423810D01*
X48166666Y38423810D02*
X48128571Y38347620D01*
X48128571Y38195239D01*
X48166666Y38119048D01*
X48204761Y38080953D01*
X48280952Y38042858D01*
X48509523Y38042858D01*
X48585714Y38080953D01*
X48623809Y38119048D01*
X48661904Y38195239D01*
X48661904Y38347620D01*
X48623809Y38423810D01*
X48661904Y37700000D02*
X48128571Y37700000D01*
X48280952Y37700000D02*
X48204761Y37661905D01*
X48166666Y37623810D01*
X48128571Y37547620D01*
X48128571Y37471429D01*
X48585714Y37204762D02*
X48623809Y37166667D01*
X48661904Y37204762D01*
X48623809Y37242858D01*
X48585714Y37204762D01*
X48661904Y37204762D01*
X48661904Y36709524D02*
X48623809Y36785715D01*
X48585714Y36823810D01*
X48509523Y36861905D01*
X48280952Y36861905D01*
X48204761Y36823810D01*
X48166666Y36785715D01*
X48128571Y36709524D01*
X48128571Y36595239D01*
X48166666Y36519048D01*
X48204761Y36480953D01*
X48280952Y36442858D01*
X48509523Y36442858D01*
X48585714Y36480953D01*
X48623809Y36519048D01*
X48661904Y36595239D01*
X48661904Y36709524D01*
X48661904Y36100000D02*
X48128571Y36100000D01*
X48280952Y36100000D02*
X48204761Y36061905D01*
X48166666Y36023810D01*
X48128571Y35947620D01*
X48128571Y35871429D01*
X48128571Y35261905D02*
X48776190Y35261905D01*
X48852380Y35300000D01*
X48890476Y35338096D01*
X48928571Y35414286D01*
X48928571Y35528572D01*
X48890476Y35604762D01*
X48623809Y35261905D02*
X48661904Y35338096D01*
X48661904Y35490477D01*
X48623809Y35566667D01*
X48585714Y35604762D01*
X48509523Y35642858D01*
X48280952Y35642858D01*
X48204761Y35604762D01*
X48166666Y35566667D01*
X48128571Y35490477D01*
X48128571Y35338096D01*
X48166666Y35261905D01*
X47823809Y34309524D02*
X48852380Y34995239D01*
X47861904Y33890477D02*
X47861904Y33738096D01*
X47900000Y33661905D01*
X47976190Y33585715D01*
X48128571Y33547620D01*
X48395238Y33547620D01*
X48547619Y33585715D01*
X48623809Y33661905D01*
X48661904Y33738096D01*
X48661904Y33890477D01*
X48623809Y33966667D01*
X48547619Y34042858D01*
X48395238Y34080953D01*
X48128571Y34080953D01*
X47976190Y34042858D01*
X47900000Y33966667D01*
X47861904Y33890477D01*
X48661904Y33204762D02*
X47861904Y33204762D01*
X48242857Y33204762D02*
X48242857Y32747620D01*
X48661904Y32747620D02*
X47861904Y32747620D01*
X48661904Y31985715D02*
X48661904Y32366667D01*
X47861904Y32366667D01*
X14142857Y49357143D02*
X14028571Y49319048D01*
X13990476Y49280953D01*
X13952380Y49204762D01*
X13952380Y49090477D01*
X13990476Y49014286D01*
X14028571Y48976191D01*
X14104761Y48938096D01*
X14409523Y48938096D01*
X14409523Y49738096D01*
X14142857Y49738096D01*
X14066666Y49700000D01*
X14028571Y49661905D01*
X13990476Y49585715D01*
X13990476Y49509524D01*
X14028571Y49433334D01*
X14066666Y49395239D01*
X14142857Y49357143D01*
X14409523Y49357143D01*
X13152380Y49014286D02*
X13190476Y48976191D01*
X13304761Y48938096D01*
X13380952Y48938096D01*
X13495238Y48976191D01*
X13571428Y49052381D01*
X13609523Y49128572D01*
X13647619Y49280953D01*
X13647619Y49395239D01*
X13609523Y49547620D01*
X13571428Y49623810D01*
X13495238Y49700000D01*
X13380952Y49738096D01*
X13304761Y49738096D01*
X13190476Y49700000D01*
X13152380Y49661905D01*
X12809523Y48938096D02*
X12809523Y49738096D01*
X12352380Y48938096D02*
X12695238Y49395239D01*
X12352380Y49738096D02*
X12809523Y49280953D01*
X20590476Y48938096D02*
X20590476Y49738096D01*
X20323809Y49166667D01*
X20057142Y49738096D01*
X20057142Y48938096D01*
X19219047Y49014286D02*
X19257142Y48976191D01*
X19371428Y48938096D01*
X19447619Y48938096D01*
X19561904Y48976191D01*
X19638095Y49052381D01*
X19676190Y49128572D01*
X19714285Y49280953D01*
X19714285Y49395239D01*
X19676190Y49547620D01*
X19638095Y49623810D01*
X19561904Y49700000D01*
X19447619Y49738096D01*
X19371428Y49738096D01*
X19257142Y49700000D01*
X19219047Y49661905D01*
X18495238Y48938096D02*
X18876190Y48938096D01*
X18876190Y49738096D01*
X18228571Y48938096D02*
X18228571Y49738096D01*
X17771428Y48938096D02*
X18114285Y49395239D01*
X17771428Y49738096D02*
X18228571Y49280953D01*
X9009523Y49700000D02*
X9085714Y49738096D01*
X9200000Y49738096D01*
X9314285Y49700000D01*
X9390476Y49623810D01*
X9428571Y49547620D01*
X9466666Y49395239D01*
X9466666Y49280953D01*
X9428571Y49128572D01*
X9390476Y49052381D01*
X9314285Y48976191D01*
X9200000Y48938096D01*
X9123809Y48938096D01*
X9009523Y48976191D01*
X8971428Y49014286D01*
X8971428Y49280953D01*
X9123809Y49280953D01*
X8628571Y48938096D02*
X8628571Y49738096D01*
X8171428Y48938096D01*
X8171428Y49738096D01*
X7790476Y48938096D02*
X7790476Y49738096D01*
X7600000Y49738096D01*
X7485714Y49700000D01*
X7409523Y49623810D01*
X7371428Y49547620D01*
X7333333Y49395239D01*
X7333333Y49280953D01*
X7371428Y49128572D01*
X7409523Y49052381D01*
X7485714Y48976191D01*
X7600000Y48938096D01*
X7790476Y48938096D01*
X17052380Y48938096D02*
X17433333Y48938096D01*
X17433333Y49738096D01*
X16328571Y48938096D02*
X16595238Y49319048D01*
X16785714Y48938096D02*
X16785714Y49738096D01*
X16480952Y49738096D01*
X16404761Y49700000D01*
X16366666Y49661905D01*
X16328571Y49585715D01*
X16328571Y49471429D01*
X16366666Y49395239D01*
X16404761Y49357143D01*
X16480952Y49319048D01*
X16785714Y49319048D01*
X15528571Y49014286D02*
X15566666Y48976191D01*
X15680952Y48938096D01*
X15757142Y48938096D01*
X15871428Y48976191D01*
X15947619Y49052381D01*
X15985714Y49128572D01*
X16023809Y49280953D01*
X16023809Y49395239D01*
X15985714Y49547620D01*
X15947619Y49623810D01*
X15871428Y49700000D01*
X15757142Y49738096D01*
X15680952Y49738096D01*
X15566666Y49700000D01*
X15528571Y49661905D01*
X15185714Y48938096D02*
X15185714Y49738096D01*
X14728571Y48938096D02*
X15071428Y49395239D01*
X14728571Y49738096D02*
X15185714Y49280953D01*
X11909523Y48976191D02*
X11795238Y48938096D01*
X11604761Y48938096D01*
X11528571Y48976191D01*
X11490476Y49014286D01*
X11452380Y49090477D01*
X11452380Y49166667D01*
X11490476Y49242858D01*
X11528571Y49280953D01*
X11604761Y49319048D01*
X11757142Y49357143D01*
X11833333Y49395239D01*
X11871428Y49433334D01*
X11909523Y49509524D01*
X11909523Y49585715D01*
X11871428Y49661905D01*
X11833333Y49700000D01*
X11757142Y49738096D01*
X11566666Y49738096D01*
X11452380Y49700000D01*
X11109523Y48938096D02*
X11109523Y49738096D01*
X10919047Y49738096D01*
X10804761Y49700000D01*
X10728571Y49623810D01*
X10690476Y49547620D01*
X10652380Y49395239D01*
X10652380Y49280953D01*
X10690476Y49128572D01*
X10728571Y49052381D01*
X10804761Y48976191D01*
X10919047Y48938096D01*
X11109523Y48938096D01*
X10157142Y49738096D02*
X10080952Y49738096D01*
X10004761Y49700000D01*
X9966666Y49661905D01*
X9928571Y49585715D01*
X9890476Y49433334D01*
X9890476Y49242858D01*
X9928571Y49090477D01*
X9966666Y49014286D01*
X10004761Y48976191D01*
X10080952Y48938096D01*
X10157142Y48938096D01*
X10233333Y48976191D01*
X10271428Y49014286D01*
X10309523Y49090477D01*
X10347619Y49242858D01*
X10347619Y49433334D01*
X10309523Y49585715D01*
X10271428Y49661905D01*
X10233333Y49700000D01*
X10157142Y49738096D01*
D13*
X12301714Y1922429D02*
X13016000Y1922429D01*
X13087428Y1208143D01*
X13016000Y1279572D01*
X12873142Y1351000D01*
X12516000Y1351000D01*
X12373142Y1279572D01*
X12301714Y1208143D01*
X12230285Y1065286D01*
X12230285Y708143D01*
X12301714Y565286D01*
X12373142Y493858D01*
X12516000Y422429D01*
X12873142Y422429D01*
X13016000Y493858D01*
X13087428Y565286D01*
X11801714Y1922429D02*
X11301714Y422429D01*
X10801714Y1922429D01*
X9944571Y2732143D02*
X11087428Y2732143D01*
X12944571Y2732143D02*
X14087428Y2732143D01*
X13516000Y3303572D02*
X13516000Y2160715D01*
D10*
X0Y50000000D02*
X0Y0D01*
X50000000Y50000000D02*
X0Y50000000D01*
X50000000Y0D02*
X50000000Y50000000D01*
X0Y0D02*
X50000000Y0D01*
D12*
X40261904Y11114286D02*
X40300000Y11076191D01*
X40414285Y11038096D01*
X40490476Y11038096D01*
X40604761Y11076191D01*
X40680952Y11152381D01*
X40719047Y11228572D01*
X40757142Y11380953D01*
X40757142Y11495239D01*
X40719047Y11647620D01*
X40680952Y11723810D01*
X40604761Y11800000D01*
X40490476Y11838096D01*
X40414285Y11838096D01*
X40300000Y11800000D01*
X40261904Y11761905D01*
X39804761Y11038096D02*
X39880952Y11076191D01*
X39919047Y11114286D01*
X39957142Y11190477D01*
X39957142Y11419048D01*
X39919047Y11495239D01*
X39880952Y11533334D01*
X39804761Y11571429D01*
X39690476Y11571429D01*
X39614285Y11533334D01*
X39576190Y11495239D01*
X39538095Y11419048D01*
X39538095Y11190477D01*
X39576190Y11114286D01*
X39614285Y11076191D01*
X39690476Y11038096D01*
X39804761Y11038096D01*
X39195238Y11571429D02*
X39195238Y10771429D01*
X39195238Y11533334D02*
X39119047Y11571429D01*
X38966666Y11571429D01*
X38890476Y11533334D01*
X38852380Y11495239D01*
X38814285Y11419048D01*
X38814285Y11190477D01*
X38852380Y11114286D01*
X38890476Y11076191D01*
X38966666Y11038096D01*
X39119047Y11038096D01*
X39195238Y11076191D01*
X38547619Y11571429D02*
X38357142Y11038096D01*
X38166666Y11571429D02*
X38357142Y11038096D01*
X38433333Y10847620D01*
X38471428Y10809524D01*
X38547619Y10771429D01*
X37861904Y11038096D02*
X37861904Y11571429D01*
X37861904Y11419048D02*
X37823809Y11495239D01*
X37785714Y11533334D01*
X37709523Y11571429D01*
X37633333Y11571429D01*
X37366666Y11038096D02*
X37366666Y11571429D01*
X37366666Y11838096D02*
X37404761Y11800000D01*
X37366666Y11761905D01*
X37328571Y11800000D01*
X37366666Y11838096D01*
X37366666Y11761905D01*
X36642857Y11571429D02*
X36642857Y10923810D01*
X36680952Y10847620D01*
X36719047Y10809524D01*
X36795238Y10771429D01*
X36909523Y10771429D01*
X36985714Y10809524D01*
X36642857Y11076191D02*
X36719047Y11038096D01*
X36871428Y11038096D01*
X36947619Y11076191D01*
X36985714Y11114286D01*
X37023809Y11190477D01*
X37023809Y11419048D01*
X36985714Y11495239D01*
X36947619Y11533334D01*
X36871428Y11571429D01*
X36719047Y11571429D01*
X36642857Y11533334D01*
X36261904Y11038096D02*
X36261904Y11838096D01*
X35919047Y11038096D02*
X35919047Y11457143D01*
X35957142Y11533334D01*
X36033333Y11571429D01*
X36147619Y11571429D01*
X36223809Y11533334D01*
X36261904Y11495239D01*
X35652380Y11571429D02*
X35347619Y11571429D01*
X35538095Y11838096D02*
X35538095Y11152381D01*
X35500000Y11076191D01*
X35423809Y11038096D01*
X35347619Y11038096D01*
X33823809Y11647620D02*
X33900000Y11685715D01*
X34052380Y11685715D01*
X34128571Y11647620D01*
X34204761Y11571429D01*
X34242857Y11495239D01*
X34242857Y11342858D01*
X34204761Y11266667D01*
X34128571Y11190477D01*
X34052380Y11152381D01*
X33900000Y11152381D01*
X33823809Y11190477D01*
X33976190Y11952381D02*
X34166666Y11914286D01*
X34357142Y11800000D01*
X34471428Y11609524D01*
X34509523Y11419048D01*
X34471428Y11228572D01*
X34357142Y11038096D01*
X34166666Y10923810D01*
X33976190Y10885715D01*
X33785714Y10923810D01*
X33595238Y11038096D01*
X33480952Y11228572D01*
X33442857Y11419048D01*
X33480952Y11609524D01*
X33595238Y11800000D01*
X33785714Y11914286D01*
X33976190Y11952381D01*
X42452380Y9638096D02*
X42452380Y10438096D01*
X42147619Y10438096D01*
X42071428Y10400000D01*
X42033333Y10361905D01*
X41995238Y10285715D01*
X41995238Y10171429D01*
X42033333Y10095239D01*
X42071428Y10057143D01*
X42147619Y10019048D01*
X42452380Y10019048D01*
X41309523Y9638096D02*
X41309523Y10057143D01*
X41347619Y10133334D01*
X41423809Y10171429D01*
X41576190Y10171429D01*
X41652380Y10133334D01*
X41309523Y9676191D02*
X41385714Y9638096D01*
X41576190Y9638096D01*
X41652380Y9676191D01*
X41690476Y9752381D01*
X41690476Y9828572D01*
X41652380Y9904762D01*
X41576190Y9942858D01*
X41385714Y9942858D01*
X41309523Y9980953D01*
X40585714Y10171429D02*
X40585714Y9638096D01*
X40928571Y10171429D02*
X40928571Y9752381D01*
X40890476Y9676191D01*
X40814285Y9638096D01*
X40700000Y9638096D01*
X40623809Y9676191D01*
X40585714Y9714286D01*
X40090476Y9638096D02*
X40166666Y9676191D01*
X40204761Y9752381D01*
X40204761Y10438096D01*
X38947619Y10438096D02*
X38947619Y9866667D01*
X38985714Y9752381D01*
X39061904Y9676191D01*
X39176190Y9638096D01*
X39252380Y9638096D01*
X38223809Y9638096D02*
X38223809Y10057143D01*
X38261904Y10133334D01*
X38338095Y10171429D01*
X38490476Y10171429D01*
X38566666Y10133334D01*
X38223809Y9676191D02*
X38300000Y9638096D01*
X38490476Y9638096D01*
X38566666Y9676191D01*
X38604761Y9752381D01*
X38604761Y9828572D01*
X38566666Y9904762D01*
X38490476Y9942858D01*
X38300000Y9942858D01*
X38223809Y9980953D01*
X37842857Y10171429D02*
X37842857Y9638096D01*
X37842857Y10095239D02*
X37804761Y10133334D01*
X37728571Y10171429D01*
X37614285Y10171429D01*
X37538095Y10133334D01*
X37500000Y10057143D01*
X37500000Y9638096D01*
X37119047Y9638096D02*
X37119047Y10171429D01*
X37119047Y10438096D02*
X37157142Y10400000D01*
X37119047Y10361905D01*
X37080952Y10400000D01*
X37119047Y10438096D01*
X37119047Y10361905D01*
X36395238Y9676191D02*
X36471428Y9638096D01*
X36623809Y9638096D01*
X36700000Y9676191D01*
X36738095Y9714286D01*
X36776190Y9790477D01*
X36776190Y10019048D01*
X36738095Y10095239D01*
X36700000Y10133334D01*
X36623809Y10171429D01*
X36471428Y10171429D01*
X36395238Y10133334D01*
X36052380Y9638096D02*
X36052380Y10438096D01*
X35976190Y9942858D02*
X35747619Y9638096D01*
X35747619Y10171429D02*
X36052380Y9866667D01*
X35404761Y9638096D02*
X35404761Y10171429D01*
X35404761Y10438096D02*
X35442857Y10400000D01*
X35404761Y10361905D01*
X35366666Y10400000D01*
X35404761Y10438096D01*
X35404761Y10361905D01*
X34452380Y10361905D02*
X34414285Y10400000D01*
X34338095Y10438096D01*
X34147619Y10438096D01*
X34071428Y10400000D01*
X34033333Y10361905D01*
X33995238Y10285715D01*
X33995238Y10209524D01*
X34033333Y10095239D01*
X34490476Y9638096D01*
X33995238Y9638096D01*
X33500000Y10438096D02*
X33423809Y10438096D01*
X33347619Y10400000D01*
X33309523Y10361905D01*
X33271428Y10285715D01*
X33233333Y10133334D01*
X33233333Y9942858D01*
X33271428Y9790477D01*
X33309523Y9714286D01*
X33347619Y9676191D01*
X33423809Y9638096D01*
X33500000Y9638096D01*
X33576190Y9676191D01*
X33614285Y9714286D01*
X33652380Y9790477D01*
X33690476Y9942858D01*
X33690476Y10133334D01*
X33652380Y10285715D01*
X33614285Y10361905D01*
X33576190Y10400000D01*
X33500000Y10438096D01*
X32471428Y9638096D02*
X32928571Y9638096D01*
X32700000Y9638096D02*
X32700000Y10438096D01*
X32776190Y10323810D01*
X32852380Y10247620D01*
X32928571Y10209524D01*
X32090476Y9638096D02*
X31938095Y9638096D01*
X31861904Y9676191D01*
X31823809Y9714286D01*
X31747619Y9828572D01*
X31709523Y9980953D01*
X31709523Y10285715D01*
X31747619Y10361905D01*
X31785714Y10400000D01*
X31861904Y10438096D01*
X32014285Y10438096D01*
X32090476Y10400000D01*
X32128571Y10361905D01*
X32166666Y10285715D01*
X32166666Y10095239D01*
X32128571Y10019048D01*
X32090476Y9980953D01*
X32014285Y9942858D01*
X31861904Y9942858D01*
X31785714Y9980953D01*
X31747619Y10019048D01*
X31709523Y10095239D01*
X1161904Y42919048D02*
X1161904Y43300000D01*
X361904Y43300000D01*
X1161904Y42652381D02*
X628571Y42652381D01*
X361904Y42652381D02*
X400000Y42690477D01*
X438095Y42652381D01*
X400000Y42614286D01*
X361904Y42652381D01*
X438095Y42652381D01*
X1123809Y41928572D02*
X1161904Y42004762D01*
X1161904Y42157143D01*
X1123809Y42233334D01*
X1085714Y42271429D01*
X1009523Y42309524D01*
X780952Y42309524D01*
X704761Y42271429D01*
X666666Y42233334D01*
X628571Y42157143D01*
X628571Y42004762D01*
X666666Y41928572D01*
X1123809Y41280953D02*
X1161904Y41357143D01*
X1161904Y41509524D01*
X1123809Y41585715D01*
X1047619Y41623810D01*
X742857Y41623810D01*
X666666Y41585715D01*
X628571Y41509524D01*
X628571Y41357143D01*
X666666Y41280953D01*
X742857Y41242858D01*
X819047Y41242858D01*
X895238Y41623810D01*
X628571Y40900000D02*
X1161904Y40900000D01*
X704761Y40900000D02*
X666666Y40861905D01*
X628571Y40785715D01*
X628571Y40671429D01*
X666666Y40595239D01*
X742857Y40557143D01*
X1161904Y40557143D01*
X1123809Y40214286D02*
X1161904Y40138096D01*
X1161904Y39985715D01*
X1123809Y39909524D01*
X1047619Y39871429D01*
X1009523Y39871429D01*
X933333Y39909524D01*
X895238Y39985715D01*
X895238Y40100000D01*
X857142Y40176191D01*
X780952Y40214286D01*
X742857Y40214286D01*
X666666Y40176191D01*
X628571Y40100000D01*
X628571Y39985715D01*
X666666Y39909524D01*
X1123809Y39223810D02*
X1161904Y39300000D01*
X1161904Y39452381D01*
X1123809Y39528572D01*
X1047619Y39566667D01*
X742857Y39566667D01*
X666666Y39528572D01*
X628571Y39452381D01*
X628571Y39300000D01*
X666666Y39223810D01*
X742857Y39185715D01*
X819047Y39185715D01*
X895238Y39566667D01*
X1161904Y38500000D02*
X361904Y38500000D01*
X1123809Y38500000D02*
X1161904Y38576191D01*
X1161904Y38728572D01*
X1123809Y38804762D01*
X1085714Y38842858D01*
X1009523Y38880953D01*
X780952Y38880953D01*
X704761Y38842858D01*
X666666Y38804762D01*
X628571Y38728572D01*
X628571Y38576191D01*
X666666Y38500000D01*
D11*
X43568200Y20500000D02*
X43568200Y20881000D01*
X43568200Y20500000D02*
X43568200Y20119000D01*
X44431800Y20500000D02*
X44431800Y20881000D01*
X44431800Y20500000D02*
X44431800Y20119000D01*
X45150000Y26000000D02*
X45150000Y24500000D01*
X43850000Y26000000D02*
X45150000Y26000000D01*
X43850000Y23000000D02*
X43850000Y26000000D01*
X45150000Y23000000D02*
X43850000Y23000000D01*
X45150000Y24500000D02*
X45150000Y23000000D01*
X43870711Y22700000D02*
G75*
G03X43870711Y22700000I-70711J0D01*
G01*
X38500000Y4431800D02*
X38881000Y4431800D01*
X38500000Y4431800D02*
X38119000Y4431800D01*
X38500000Y3568200D02*
X38881000Y3568200D01*
X38500000Y3568200D02*
X38119000Y3568200D01*
X24431800Y32000000D02*
X24431800Y31619000D01*
X24431800Y32000000D02*
X24431800Y32381000D01*
X23568200Y32000000D02*
X23568200Y31619000D01*
X23568200Y32000000D02*
X23568200Y32381000D01*
X47931800Y24500000D02*
X47931800Y24119000D01*
X47931800Y24500000D02*
X47931800Y24881000D01*
X47068200Y24500000D02*
X47068200Y24119000D01*
X47068200Y24500000D02*
X47068200Y24881000D01*
X46068200Y20500000D02*
X46068200Y20881000D01*
X46068200Y20500000D02*
X46068200Y20119000D01*
X46931800Y20500000D02*
X46931800Y20881000D01*
X46931800Y20500000D02*
X46931800Y20119000D01*
X37000000Y26568200D02*
X36619000Y26568200D01*
X37000000Y26568200D02*
X37381000Y26568200D01*
X37000000Y27431800D02*
X36619000Y27431800D01*
X37000000Y27431800D02*
X37381000Y27431800D01*
X18931800Y19500000D02*
X18931800Y19119000D01*
X18931800Y19500000D02*
X18931800Y19881000D01*
X18068200Y19500000D02*
X18068200Y19119000D01*
X18068200Y19500000D02*
X18068200Y19881000D01*
X35568200Y24000000D02*
X35568200Y24381000D01*
X35568200Y24000000D02*
X35568200Y23619000D01*
X36431800Y24000000D02*
X36431800Y24381000D01*
X36431800Y24000000D02*
X36431800Y23619000D01*
X38068200Y24000000D02*
X38068200Y24381000D01*
X38068200Y24000000D02*
X38068200Y23619000D01*
X38931800Y24000000D02*
X38931800Y24381000D01*
X38931800Y24000000D02*
X38931800Y23619000D01*
X15568200Y24000000D02*
X15568200Y24381000D01*
X15568200Y24000000D02*
X15568200Y23619000D01*
X16431800Y24000000D02*
X16431800Y24381000D01*
X16431800Y24000000D02*
X16431800Y23619000D01*
X18068200Y24000000D02*
X18068200Y24381000D01*
X18068200Y24000000D02*
X18068200Y23619000D01*
X18931800Y24000000D02*
X18931800Y24381000D01*
X18931800Y24000000D02*
X18931800Y23619000D01*
X17500000Y26568200D02*
X17119000Y26568200D01*
X17500000Y26568200D02*
X17881000Y26568200D01*
X17500000Y27431800D02*
X17119000Y27431800D01*
X17500000Y27431800D02*
X17881000Y27431800D01*
X15568200Y19500000D02*
X15568200Y19881000D01*
X15568200Y19500000D02*
X15568200Y19119000D01*
X16431800Y19500000D02*
X16431800Y19881000D01*
X16431800Y19500000D02*
X16431800Y19119000D01*
X36270000Y14500000D02*
X36270000Y13534800D01*
X36270000Y14500000D02*
X36270000Y15465200D01*
X33730000Y14500000D02*
X33730000Y13534800D01*
X33730000Y14500000D02*
X33730000Y15465200D01*
X38230000Y14500000D02*
X38230000Y15465200D01*
X38230000Y14500000D02*
X38230000Y13534800D01*
X40770000Y14500000D02*
X40770000Y15465200D01*
X40770000Y14500000D02*
X40770000Y13534800D01*
X16270000Y14500000D02*
X16270000Y13534800D01*
X16270000Y14500000D02*
X16270000Y15465200D01*
X13730000Y14500000D02*
X13730000Y13534800D01*
X13730000Y14500000D02*
X13730000Y15465200D01*
X18230000Y14500000D02*
X18230000Y15465200D01*
X18230000Y14500000D02*
X18230000Y13534800D01*
X20770000Y14500000D02*
X20770000Y15465200D01*
X20770000Y14500000D02*
X20770000Y13534800D01*
X22500000Y2431800D02*
X22881000Y2431800D01*
X22500000Y2431800D02*
X22119000Y2431800D01*
X22500000Y1568200D02*
X22881000Y1568200D01*
X22500000Y1568200D02*
X22119000Y1568200D01*
X18000000Y9635000D02*
X17466600Y9635000D01*
X18000000Y9635000D02*
X18533400Y9635000D01*
X18000000Y8365000D02*
X17466600Y8365000D01*
X18000000Y8365000D02*
X18533400Y8365000D01*
X44431800Y29000000D02*
X44431800Y28619000D01*
X44431800Y29000000D02*
X44431800Y29381000D01*
X43568200Y29000000D02*
X43568200Y28619000D01*
X43568200Y29000000D02*
X43568200Y29381000D01*
X22500000Y4068200D02*
X22119000Y4068200D01*
X22500000Y4068200D02*
X22881000Y4068200D01*
X22500000Y4931800D02*
X22119000Y4931800D01*
X22500000Y4931800D02*
X22881000Y4931800D01*
X9500000Y23568200D02*
X9119000Y23568200D01*
X9500000Y23568200D02*
X9881000Y23568200D01*
X9500000Y24431800D02*
X9119000Y24431800D01*
X9500000Y24431800D02*
X9881000Y24431800D01*
X30770000Y14500000D02*
X30770000Y13534800D01*
X30770000Y14500000D02*
X30770000Y15465200D01*
X28230000Y14500000D02*
X28230000Y13534800D01*
X28230000Y14500000D02*
X28230000Y15465200D01*
X23730000Y14500000D02*
X23730000Y15465200D01*
X23730000Y14500000D02*
X23730000Y13534800D01*
X26270000Y14500000D02*
X26270000Y15465200D01*
X26270000Y14500000D02*
X26270000Y13534800D01*
X34500000Y30431800D02*
X34881000Y30431800D01*
X34500000Y30431800D02*
X34119000Y30431800D01*
X34500000Y29568200D02*
X34881000Y29568200D01*
X34500000Y29568200D02*
X34119000Y29568200D01*
X34500000Y34431800D02*
X34881000Y34431800D01*
X34500000Y34431800D02*
X34119000Y34431800D01*
X34500000Y33568200D02*
X34881000Y33568200D01*
X34500000Y33568200D02*
X34119000Y33568200D01*
X34500000Y36931800D02*
X34881000Y36931800D01*
X34500000Y36931800D02*
X34119000Y36931800D01*
X34500000Y36068200D02*
X34881000Y36068200D01*
X34500000Y36068200D02*
X34119000Y36068200D01*
X34500000Y40931800D02*
X34881000Y40931800D01*
X34500000Y40931800D02*
X34119000Y40931800D01*
X34500000Y40068200D02*
X34881000Y40068200D01*
X34500000Y40068200D02*
X34119000Y40068200D01*
X15500000Y31568200D02*
X15119000Y31568200D01*
X15500000Y31568200D02*
X15881000Y31568200D01*
X15500000Y32431800D02*
X15119000Y32431800D01*
X15500000Y32431800D02*
X15881000Y32431800D01*
X34500000Y38068200D02*
X34119000Y38068200D01*
X34500000Y38068200D02*
X34881000Y38068200D01*
X34500000Y38931800D02*
X34119000Y38931800D01*
X34500000Y38931800D02*
X34881000Y38931800D01*
X34500000Y42068200D02*
X34119000Y42068200D01*
X34500000Y42068200D02*
X34881000Y42068200D01*
X34500000Y42931800D02*
X34119000Y42931800D01*
X34500000Y42931800D02*
X34881000Y42931800D01*
X15500000Y40631800D02*
X15881000Y40631800D01*
X15500000Y40631800D02*
X15119000Y40631800D01*
X15500000Y39768200D02*
X15881000Y39768200D01*
X15500000Y39768200D02*
X15119000Y39768200D01*
X34500000Y31568200D02*
X34119000Y31568200D01*
X34500000Y31568200D02*
X34881000Y31568200D01*
X34500000Y32431800D02*
X34119000Y32431800D01*
X34500000Y32431800D02*
X34881000Y32431800D01*
X46568200Y29000000D02*
X46568200Y29381000D01*
X46568200Y29000000D02*
X46568200Y28619000D01*
X47431800Y29000000D02*
X47431800Y29381000D01*
X47431800Y29000000D02*
X47431800Y28619000D01*
X15500000Y29068200D02*
X15119000Y29068200D01*
X15500000Y29068200D02*
X15881000Y29068200D01*
X15500000Y29931800D02*
X15119000Y29931800D01*
X15500000Y29931800D02*
X15881000Y29931800D01*
X15500000Y34068200D02*
X15119000Y34068200D01*
X15500000Y34068200D02*
X15881000Y34068200D01*
X15500000Y34931800D02*
X15119000Y34931800D01*
X15500000Y34931800D02*
X15881000Y34931800D01*
X3500000Y30431800D02*
X3881000Y30431800D01*
X3500000Y30431800D02*
X3119000Y30431800D01*
X3500000Y29568200D02*
X3881000Y29568200D01*
X3500000Y29568200D02*
X3119000Y29568200D01*
X15500000Y38131800D02*
X15881000Y38131800D01*
X15500000Y38131800D02*
X15119000Y38131800D01*
X15500000Y37268200D02*
X15881000Y37268200D01*
X15500000Y37268200D02*
X15119000Y37268200D01*
X8000000Y42568200D02*
X7619000Y42568200D01*
X8000000Y42568200D02*
X8381000Y42568200D01*
X8000000Y43431800D02*
X7619000Y43431800D01*
X8000000Y43431800D02*
X8381000Y43431800D01*
X15500000Y42268200D02*
X15119000Y42268200D01*
X15500000Y42268200D02*
X15881000Y42268200D01*
X15500000Y43131800D02*
X15119000Y43131800D01*
X15500000Y43131800D02*
X15881000Y43131800D01*
X10500000Y37270000D02*
X11465200Y37270000D01*
X10500000Y37270000D02*
X9534800Y37270000D01*
X10500000Y34730000D02*
X11465200Y34730000D01*
X10500000Y34730000D02*
X9534800Y34730000D01*
X10500000Y30730000D02*
X9534800Y30730000D01*
X10500000Y30730000D02*
X11465200Y30730000D01*
X10500000Y33270000D02*
X9534800Y33270000D01*
X10500000Y33270000D02*
X11465200Y33270000D01*
X39500000Y32730000D02*
X38534800Y32730000D01*
X39500000Y32730000D02*
X40465200Y32730000D01*
X39500000Y35270000D02*
X38534800Y35270000D01*
X39500000Y35270000D02*
X40465200Y35270000D01*
X39500000Y39270000D02*
X40465200Y39270000D01*
X39500000Y39270000D02*
X38534800Y39270000D01*
X39500000Y36730000D02*
X40465200Y36730000D01*
X39500000Y36730000D02*
X38534800Y36730000D01*
X39500000Y28730000D02*
X38534800Y28730000D01*
X39500000Y28730000D02*
X40465200Y28730000D01*
X39500000Y31270000D02*
X38534800Y31270000D01*
X39500000Y31270000D02*
X40465200Y31270000D01*
X10500000Y26730000D02*
X9534800Y26730000D01*
X10500000Y26730000D02*
X11465200Y26730000D01*
X10500000Y29270000D02*
X9534800Y29270000D01*
X10500000Y29270000D02*
X11465200Y29270000D01*
X10500000Y41270000D02*
X11465200Y41270000D01*
X10500000Y41270000D02*
X9534800Y41270000D01*
X10500000Y38730000D02*
X11465200Y38730000D01*
X10500000Y38730000D02*
X9534800Y38730000D01*
X39500000Y43270000D02*
X40465200Y43270000D01*
X39500000Y43270000D02*
X38534800Y43270000D01*
X39500000Y40730000D02*
X40465200Y40730000D01*
X39500000Y40730000D02*
X38534800Y40730000D01*
X15600000Y4500000D02*
X15600000Y5900000D01*
X15600000Y5900000D02*
X15700000Y5900000D01*
X15600000Y4500000D02*
X15600000Y3100000D01*
X15600000Y3100000D02*
X15700000Y3100000D01*
X17300000Y5900000D02*
X17400000Y5900000D01*
X17400000Y5900000D02*
X17400000Y2900000D01*
X17400000Y2900000D02*
X17300000Y2900000D01*
X16500000Y4600000D02*
X16100000Y4200000D01*
X16100000Y4200000D02*
X16900000Y4200000D01*
X16900000Y4200000D02*
X16500000Y4600000D01*
X16100000Y4700000D02*
X16900000Y4700000D01*
X16500000Y4200000D02*
X16500000Y3800000D01*
X16500000Y4700000D02*
X16500000Y5100000D01*
X15600000Y5400000D02*
X17400000Y5400000D01*
X19900000Y3600000D02*
X18100000Y3600000D01*
X19000000Y4300000D02*
X19000000Y3900000D01*
X19000000Y4800000D02*
X19000000Y5200000D01*
X19400000Y4300000D02*
X18600000Y4300000D01*
X18600000Y4800000D02*
X19000000Y4400000D01*
X19400000Y4800000D02*
X18600000Y4800000D01*
X19000000Y4400000D02*
X19400000Y4800000D01*
X18100000Y6100000D02*
X18200000Y6100000D01*
X18100000Y3100000D02*
X18100000Y6100000D01*
X18200000Y3100000D02*
X18100000Y3100000D01*
X19900000Y5900000D02*
X19800000Y5900000D01*
X19900000Y4500000D02*
X19900000Y5900000D01*
X19900000Y3100000D02*
X19800000Y3100000D01*
X19900000Y4500000D02*
X19900000Y3100000D01*
X33931800Y24000000D02*
X33931800Y23619000D01*
X33931800Y24000000D02*
X33931800Y24381000D01*
X33068200Y24000000D02*
X33068200Y23619000D01*
X33068200Y24000000D02*
X33068200Y24381000D01*
X40568200Y24000000D02*
X40568200Y24381000D01*
X40568200Y24000000D02*
X40568200Y23619000D01*
X41431800Y24000000D02*
X41431800Y24381000D01*
X41431800Y24000000D02*
X41431800Y23619000D01*
X26431800Y24000000D02*
X26431800Y23619000D01*
X26431800Y24000000D02*
X26431800Y24381000D01*
X25568200Y24000000D02*
X25568200Y23619000D01*
X25568200Y24000000D02*
X25568200Y24381000D01*
X35568200Y19500000D02*
X35568200Y19881000D01*
X35568200Y19500000D02*
X35568200Y19119000D01*
X36431800Y19500000D02*
X36431800Y19881000D01*
X36431800Y19500000D02*
X36431800Y19119000D01*
X28068200Y19500000D02*
X28068200Y19881000D01*
X28068200Y19500000D02*
X28068200Y19119000D01*
X28931800Y19500000D02*
X28931800Y19881000D01*
X28931800Y19500000D02*
X28931800Y19119000D01*
X26431800Y19500000D02*
X26431800Y19119000D01*
X26431800Y19500000D02*
X26431800Y19881000D01*
X25568200Y19500000D02*
X25568200Y19119000D01*
X25568200Y19500000D02*
X25568200Y19881000D01*
X26931800Y42000000D02*
X26931800Y41619000D01*
X26931800Y42000000D02*
X26931800Y42381000D01*
X26068200Y42000000D02*
X26068200Y41619000D01*
X26068200Y42000000D02*
X26068200Y42381000D01*
X20550000Y39931800D02*
X20931000Y39931800D01*
X20550000Y39931800D02*
X20169000Y39931800D01*
X20550000Y39068200D02*
X20931000Y39068200D01*
X20550000Y39068200D02*
X20169000Y39068200D01*
X20550000Y41068200D02*
X20169000Y41068200D01*
X20550000Y41068200D02*
X20931000Y41068200D01*
X20550000Y41931800D02*
X20169000Y41931800D01*
X20550000Y41931800D02*
X20931000Y41931800D01*
X9500000Y21931800D02*
X9881000Y21931800D01*
X9500000Y21931800D02*
X9119000Y21931800D01*
X9500000Y21068200D02*
X9881000Y21068200D01*
X9500000Y21068200D02*
X9119000Y21068200D01*
X38068200Y19500000D02*
X38068200Y19881000D01*
X38068200Y19500000D02*
X38068200Y19119000D01*
X38931800Y19500000D02*
X38931800Y19881000D01*
X38931800Y19500000D02*
X38931800Y19119000D01*
X13068200Y24000000D02*
X13068200Y24381000D01*
X13068200Y24000000D02*
X13068200Y23619000D01*
X13931800Y24000000D02*
X13931800Y24381000D01*
X13931800Y24000000D02*
X13931800Y23619000D01*
X21431800Y24000000D02*
X21431800Y23619000D01*
X21431800Y24000000D02*
X21431800Y24381000D01*
X20568200Y24000000D02*
X20568200Y23619000D01*
X20568200Y24000000D02*
X20568200Y24381000D01*
X33068200Y19500000D02*
X33068200Y19881000D01*
X33068200Y19500000D02*
X33068200Y19119000D01*
X33931800Y19500000D02*
X33931800Y19881000D01*
X33931800Y19500000D02*
X33931800Y19119000D01*
X41431800Y19500000D02*
X41431800Y19119000D01*
X41431800Y19500000D02*
X41431800Y19881000D01*
X40568200Y19500000D02*
X40568200Y19119000D01*
X40568200Y19500000D02*
X40568200Y19881000D01*
X22568200Y47000000D02*
X22568200Y47381000D01*
X22568200Y47000000D02*
X22568200Y46619000D01*
X23431800Y47000000D02*
X23431800Y47381000D01*
X23431800Y47000000D02*
X23431800Y46619000D01*
X3500000Y24635000D02*
X2966600Y24635000D01*
X3500000Y24635000D02*
X4033400Y24635000D01*
X3500000Y23365000D02*
X2966600Y23365000D01*
X3500000Y23365000D02*
X4033400Y23365000D01*
X22500000Y9931800D02*
X22881000Y9931800D01*
X22500000Y9931800D02*
X22119000Y9931800D01*
X22500000Y9068200D02*
X22881000Y9068200D01*
X22500000Y9068200D02*
X22119000Y9068200D01*
X23068200Y19500000D02*
X23068200Y19881000D01*
X23068200Y19500000D02*
X23068200Y19119000D01*
X23931800Y19500000D02*
X23931800Y19881000D01*
X23931800Y19500000D02*
X23931800Y19119000D01*
X23931800Y24000000D02*
X23931800Y23619000D01*
X23931800Y24000000D02*
X23931800Y24381000D01*
X23068200Y24000000D02*
X23068200Y23619000D01*
X23068200Y24000000D02*
X23068200Y24381000D01*
X8000000Y13068200D02*
X7619000Y13068200D01*
X8000000Y13068200D02*
X8381000Y13068200D01*
X8000000Y13931800D02*
X7619000Y13931800D01*
X8000000Y13931800D02*
X8381000Y13931800D01*
X4000000Y13931800D02*
X4381000Y13931800D01*
X4000000Y13931800D02*
X3619000Y13931800D01*
X4000000Y13068200D02*
X4381000Y13068200D01*
X4000000Y13068200D02*
X3619000Y13068200D01*
X22500000Y7431800D02*
X22881000Y7431800D01*
X22500000Y7431800D02*
X22119000Y7431800D01*
X22500000Y6568200D02*
X22881000Y6568200D01*
X22500000Y6568200D02*
X22119000Y6568200D01*
X25431800Y47000000D02*
X25431800Y46619000D01*
X25431800Y47000000D02*
X25431800Y47381000D01*
X24568200Y47000000D02*
X24568200Y46619000D01*
X24568200Y47000000D02*
X24568200Y47381000D01*
X27431800Y47000000D02*
X27431800Y46619000D01*
X27431800Y47000000D02*
X27431800Y47381000D01*
X26568200Y47000000D02*
X26568200Y46619000D01*
X26568200Y47000000D02*
X26568200Y47381000D01*
X29431800Y47000000D02*
X29431800Y46619000D01*
X29431800Y47000000D02*
X29431800Y47381000D01*
X28568200Y47000000D02*
X28568200Y46619000D01*
X28568200Y47000000D02*
X28568200Y47381000D01*
X21431800Y47000000D02*
X21431800Y46619000D01*
X21431800Y47000000D02*
X21431800Y47381000D01*
X20568200Y47000000D02*
X20568200Y46619000D01*
X20568200Y47000000D02*
X20568200Y47381000D01*
X25568200Y32000000D02*
X25568200Y32381000D01*
X25568200Y32000000D02*
X25568200Y31619000D01*
X26431800Y32000000D02*
X26431800Y32381000D01*
X26431800Y32000000D02*
X26431800Y31619000D01*
X20568200Y19500000D02*
X20568200Y19881000D01*
X20568200Y19500000D02*
X20568200Y19119000D01*
X21431800Y19500000D02*
X21431800Y19881000D01*
X21431800Y19500000D02*
X21431800Y19119000D01*
X13068200Y19500000D02*
X13068200Y19881000D01*
X13068200Y19500000D02*
X13068200Y19119000D01*
X13931800Y19500000D02*
X13931800Y19881000D01*
X13931800Y19500000D02*
X13931800Y19119000D01*
X30568200Y24000000D02*
X30568200Y24381000D01*
X30568200Y24000000D02*
X30568200Y23619000D01*
X31431800Y24000000D02*
X31431800Y24381000D01*
X31431800Y24000000D02*
X31431800Y23619000D01*
X30568200Y19500000D02*
X30568200Y19881000D01*
X30568200Y19500000D02*
X30568200Y19119000D01*
X31431800Y19500000D02*
X31431800Y19881000D01*
X31431800Y19500000D02*
X31431800Y19119000D01*
X27000000Y26568200D02*
X26619000Y26568200D01*
X27000000Y26568200D02*
X27381000Y26568200D01*
X27000000Y27431800D02*
X26619000Y27431800D01*
X27000000Y27431800D02*
X27381000Y27431800D01*
X28931800Y24000000D02*
X28931800Y23619000D01*
X28931800Y24000000D02*
X28931800Y24381000D01*
X28068200Y24000000D02*
X28068200Y23619000D01*
X28068200Y24000000D02*
X28068200Y24381000D01*
X27500000Y7931800D02*
X27881000Y7931800D01*
X27500000Y7931800D02*
X27119000Y7931800D01*
X27500000Y7068200D02*
X27881000Y7068200D01*
X27500000Y7068200D02*
X27119000Y7068200D01*
X24068200Y42000000D02*
X24068200Y42381000D01*
X24068200Y42000000D02*
X24068200Y41619000D01*
X24931800Y42000000D02*
X24931800Y42381000D01*
X24931800Y42000000D02*
X24931800Y41619000D01*
X8931800Y18000000D02*
X8931800Y17619000D01*
X8931800Y18000000D02*
X8931800Y18381000D01*
X8068200Y18000000D02*
X8068200Y17619000D01*
X8068200Y18000000D02*
X8068200Y18381000D01*
X28931800Y41000000D02*
X28931800Y40619000D01*
X28931800Y41000000D02*
X28931800Y41381000D01*
X28068200Y41000000D02*
X28068200Y40619000D01*
X28068200Y41000000D02*
X28068200Y41381000D01*
X27550000Y35931800D02*
X27931000Y35931800D01*
X27550000Y35931800D02*
X27169000Y35931800D01*
X27550000Y35068200D02*
X27931000Y35068200D01*
X27550000Y35068200D02*
X27169000Y35068200D01*
X27550000Y37931800D02*
X27931000Y37931800D01*
X27550000Y37931800D02*
X27169000Y37931800D01*
X27550000Y37068200D02*
X27931000Y37068200D01*
X27550000Y37068200D02*
X27169000Y37068200D01*
X21068200Y31000000D02*
X21068200Y31381000D01*
X21068200Y31000000D02*
X21068200Y30619000D01*
X21931800Y31000000D02*
X21931800Y31381000D01*
X21931800Y31000000D02*
X21931800Y30619000D01*
X18568200Y31000000D02*
X18568200Y31381000D01*
X18568200Y31000000D02*
X18568200Y30619000D01*
X19431800Y31000000D02*
X19431800Y31381000D01*
X19431800Y31000000D02*
X19431800Y30619000D01*
X29450000Y33068200D02*
X29069000Y33068200D01*
X29450000Y33068200D02*
X29831000Y33068200D01*
X29450000Y33931800D02*
X29069000Y33931800D01*
X29450000Y33931800D02*
X29831000Y33931800D01*
X29450000Y31068200D02*
X29069000Y31068200D01*
X29450000Y31068200D02*
X29831000Y31068200D01*
X29450000Y31931800D02*
X29069000Y31931800D01*
X29450000Y31931800D02*
X29831000Y31931800D01*
X22450000Y35068200D02*
X22069000Y35068200D01*
X22450000Y35068200D02*
X22831000Y35068200D01*
X22450000Y35931800D02*
X22069000Y35931800D01*
X22450000Y35931800D02*
X22831000Y35931800D01*
X22450000Y37068200D02*
X22069000Y37068200D01*
X22450000Y37068200D02*
X22831000Y37068200D01*
X22450000Y37931800D02*
X22069000Y37931800D01*
X22450000Y37931800D02*
X22831000Y37931800D01*
X3410000Y9760000D02*
X3410000Y10293400D01*
X3410000Y9760000D02*
X3410000Y9226600D01*
X2140000Y9760000D02*
X2140000Y10293400D01*
X2140000Y9760000D02*
X2140000Y9226600D01*
X4900000Y17900000D02*
X4900000Y16100000D01*
X4200000Y17000000D02*
X4600000Y17000000D01*
X3700000Y17000000D02*
X3300000Y17000000D01*
X4200000Y17400000D02*
X4200000Y16600000D01*
X3700000Y16600000D02*
X4100000Y17000000D01*
X3700000Y17400000D02*
X3700000Y16600000D01*
X4100000Y17000000D02*
X3700000Y17400000D01*
X2400000Y16100000D02*
X2400000Y16200000D01*
X5400000Y16100000D02*
X2400000Y16100000D01*
X5400000Y16200000D02*
X5400000Y16100000D01*
X2600000Y17900000D02*
X2600000Y17800000D01*
X4000000Y17900000D02*
X2600000Y17900000D01*
X5400000Y17900000D02*
X5400000Y17800000D01*
X4000000Y17900000D02*
X5400000Y17900000D01*
X4900000Y21400000D02*
X4900000Y19600000D01*
X4200000Y20500000D02*
X4600000Y20500000D01*
X3700000Y20500000D02*
X3300000Y20500000D01*
X4200000Y20900000D02*
X4200000Y20100000D01*
X3700000Y20100000D02*
X4100000Y20500000D01*
X3700000Y20900000D02*
X3700000Y20100000D01*
X4100000Y20500000D02*
X3700000Y20900000D01*
X2400000Y19600000D02*
X2400000Y19700000D01*
X5400000Y19600000D02*
X2400000Y19600000D01*
X5400000Y19700000D02*
X5400000Y19600000D01*
X2600000Y21400000D02*
X2600000Y21300000D01*
X4000000Y21400000D02*
X2600000Y21400000D01*
X5400000Y21400000D02*
X5400000Y21300000D01*
X4000000Y21400000D02*
X5400000Y21400000D01*
X9760000Y9890000D02*
X10560000Y9890000D01*
X9760000Y9890000D02*
X8960000Y9890000D01*
X9760000Y7090000D02*
X8960000Y7090000D01*
X9760000Y7090000D02*
X10560000Y7090000D01*
X10010000Y7990000D02*
X9510000Y8490000D01*
X10010000Y8990000D02*
X10010000Y7990000D01*
X10010000Y8990000D02*
X9510000Y8490000D01*
X9510000Y8990000D02*
X9510000Y7990000D01*
X6015902Y9690000D02*
G75*
G03X6015902Y9690000I-55902J0D01*
G01*
X9460000Y8490000D02*
X9360000Y8490000D01*
X10060000Y8490000D02*
X10160000Y8490000D01*
X42785714Y18095239D02*
X42823809Y18133334D01*
X42861904Y18247620D01*
X42861904Y18323810D01*
X42823809Y18438096D01*
X42747619Y18514286D01*
X42671428Y18552381D01*
X42519047Y18590477D01*
X42404761Y18590477D01*
X42252380Y18552381D01*
X42176190Y18514286D01*
X42100000Y18438096D01*
X42061904Y18323810D01*
X42061904Y18247620D01*
X42100000Y18133334D01*
X42138095Y18095239D01*
X42061904Y17828572D02*
X42061904Y17295239D01*
X42861904Y17638096D01*
X42138095Y17028572D02*
X42100000Y16990477D01*
X42061904Y16914286D01*
X42061904Y16723810D01*
X42100000Y16647620D01*
X42138095Y16609524D01*
X42214285Y16571429D01*
X42290476Y16571429D01*
X42404761Y16609524D01*
X42861904Y17066667D01*
X42861904Y16571429D01*
X42061904Y15847620D02*
X42061904Y16228572D01*
X42442857Y16266667D01*
X42404761Y16228572D01*
X42366666Y16152381D01*
X42366666Y15961905D01*
X42404761Y15885715D01*
X42442857Y15847620D01*
X42519047Y15809524D01*
X42709523Y15809524D01*
X42785714Y15847620D01*
X42823809Y15885715D01*
X42861904Y15961905D01*
X42861904Y16152381D01*
X42823809Y16228572D01*
X42785714Y16266667D01*
X45871428Y27038096D02*
X45871428Y26390477D01*
X45833333Y26314286D01*
X45795238Y26276191D01*
X45719047Y26238096D01*
X45566666Y26238096D01*
X45490476Y26276191D01*
X45452380Y26314286D01*
X45414285Y26390477D01*
X45414285Y27038096D01*
X45109523Y27038096D02*
X44576190Y27038096D01*
X44919047Y26238096D01*
X44119047Y27038096D02*
X44042857Y27038096D01*
X43966666Y27000000D01*
X43928571Y26961905D01*
X43890476Y26885715D01*
X43852380Y26733334D01*
X43852380Y26542858D01*
X43890476Y26390477D01*
X43928571Y26314286D01*
X43966666Y26276191D01*
X44042857Y26238096D01*
X44119047Y26238096D01*
X44195238Y26276191D01*
X44233333Y26314286D01*
X44271428Y26390477D01*
X44309523Y26542858D01*
X44309523Y26733334D01*
X44271428Y26885715D01*
X44233333Y26961905D01*
X44195238Y27000000D01*
X44119047Y27038096D01*
X43090476Y26238096D02*
X43547619Y26238096D01*
X43319047Y26238096D02*
X43319047Y27038096D01*
X43395238Y26923810D01*
X43471428Y26847620D01*
X43547619Y26809524D01*
X39519047Y2247620D02*
X39852380Y2723810D01*
X40090476Y2247620D02*
X40090476Y3247620D01*
X39709523Y3247620D01*
X39614285Y3200000D01*
X39566666Y3152381D01*
X39519047Y3057143D01*
X39519047Y2914286D01*
X39566666Y2819048D01*
X39614285Y2771429D01*
X39709523Y2723810D01*
X40090476Y2723810D01*
X39185714Y3247620D02*
X38519047Y3247620D01*
X38947619Y2247620D01*
X38185714Y3152381D02*
X38138095Y3200000D01*
X38042857Y3247620D01*
X37804761Y3247620D01*
X37709523Y3200000D01*
X37661904Y3152381D01*
X37614285Y3057143D01*
X37614285Y2961905D01*
X37661904Y2819048D01*
X38233333Y2247620D01*
X37614285Y2247620D01*
X37280952Y3247620D02*
X36614285Y3247620D01*
X37042857Y2247620D01*
X23361904Y32995239D02*
X22980952Y33261905D01*
X23361904Y33452381D02*
X22561904Y33452381D01*
X22561904Y33147620D01*
X22600000Y33071429D01*
X22638095Y33033334D01*
X22714285Y32995239D01*
X22828571Y32995239D01*
X22904761Y33033334D01*
X22942857Y33071429D01*
X22980952Y33147620D01*
X22980952Y33452381D01*
X22561904Y32728572D02*
X22561904Y32195239D01*
X23361904Y32538096D01*
X22638095Y31928572D02*
X22600000Y31890477D01*
X22561904Y31814286D01*
X22561904Y31623810D01*
X22600000Y31547620D01*
X22638095Y31509524D01*
X22714285Y31471429D01*
X22790476Y31471429D01*
X22904761Y31509524D01*
X23361904Y31966667D01*
X23361904Y31471429D01*
X22561904Y30747620D02*
X22561904Y31128572D01*
X22942857Y31166667D01*
X22904761Y31128572D01*
X22866666Y31052381D01*
X22866666Y30861905D01*
X22904761Y30785715D01*
X22942857Y30747620D01*
X23019047Y30709524D01*
X23209523Y30709524D01*
X23285714Y30747620D01*
X23323809Y30785715D01*
X23361904Y30861905D01*
X23361904Y31052381D01*
X23323809Y31128572D01*
X23285714Y31166667D01*
X49127142Y25319048D02*
X49174761Y25366667D01*
X49222380Y25509524D01*
X49222380Y25604762D01*
X49174761Y25747620D01*
X49079523Y25842858D01*
X48984285Y25890477D01*
X48793809Y25938096D01*
X48650952Y25938096D01*
X48460476Y25890477D01*
X48365238Y25842858D01*
X48270000Y25747620D01*
X48222380Y25604762D01*
X48222380Y25509524D01*
X48270000Y25366667D01*
X48317619Y25319048D01*
X48222380Y24985715D02*
X48222380Y24319048D01*
X49222380Y24747620D01*
X48317619Y23985715D02*
X48270000Y23938096D01*
X48222380Y23842858D01*
X48222380Y23604762D01*
X48270000Y23509524D01*
X48317619Y23461905D01*
X48412857Y23414286D01*
X48508095Y23414286D01*
X48650952Y23461905D01*
X49222380Y24033334D01*
X49222380Y23414286D01*
X48222380Y23080953D02*
X48222380Y22414286D01*
X49222380Y22842858D01*
X48757142Y18319048D02*
X48804761Y18366667D01*
X48852380Y18509524D01*
X48852380Y18604762D01*
X48804761Y18747620D01*
X48709523Y18842858D01*
X48614285Y18890477D01*
X48423809Y18938096D01*
X48280952Y18938096D01*
X48090476Y18890477D01*
X47995238Y18842858D01*
X47900000Y18747620D01*
X47852380Y18604762D01*
X47852380Y18509524D01*
X47900000Y18366667D01*
X47947619Y18319048D01*
X47852380Y17985715D02*
X47852380Y17319048D01*
X48852380Y17747620D01*
X47947619Y16985715D02*
X47900000Y16938096D01*
X47852380Y16842858D01*
X47852380Y16604762D01*
X47900000Y16509524D01*
X47947619Y16461905D01*
X48042857Y16414286D01*
X48138095Y16414286D01*
X48280952Y16461905D01*
X48852380Y17033334D01*
X48852380Y16414286D01*
X47852380Y15557143D02*
X47852380Y15747620D01*
X47900000Y15842858D01*
X47947619Y15890477D01*
X48090476Y15985715D01*
X48280952Y16033334D01*
X48661904Y16033334D01*
X48757142Y15985715D01*
X48804761Y15938096D01*
X48852380Y15842858D01*
X48852380Y15652381D01*
X48804761Y15557143D01*
X48757142Y15509524D01*
X48661904Y15461905D01*
X48423809Y15461905D01*
X48328571Y15509524D01*
X48280952Y15557143D01*
X48233333Y15652381D01*
X48233333Y15842858D01*
X48280952Y15938096D01*
X48328571Y15985715D01*
X48423809Y16033334D01*
X37795238Y27714286D02*
X37833333Y27676191D01*
X37947619Y27638096D01*
X38023809Y27638096D01*
X38138095Y27676191D01*
X38214285Y27752381D01*
X38252380Y27828572D01*
X38290476Y27980953D01*
X38290476Y28095239D01*
X38252380Y28247620D01*
X38214285Y28323810D01*
X38138095Y28400000D01*
X38023809Y28438096D01*
X37947619Y28438096D01*
X37833333Y28400000D01*
X37795238Y28361905D01*
X37109523Y28438096D02*
X37261904Y28438096D01*
X37338095Y28400000D01*
X37376190Y28361905D01*
X37452380Y28247620D01*
X37490476Y28095239D01*
X37490476Y27790477D01*
X37452380Y27714286D01*
X37414285Y27676191D01*
X37338095Y27638096D01*
X37185714Y27638096D01*
X37109523Y27676191D01*
X37071428Y27714286D01*
X37033333Y27790477D01*
X37033333Y27980953D01*
X37071428Y28057143D01*
X37109523Y28095239D01*
X37185714Y28133334D01*
X37338095Y28133334D01*
X37414285Y28095239D01*
X37452380Y28057143D01*
X37490476Y27980953D01*
X36728571Y28361905D02*
X36690476Y28400000D01*
X36614285Y28438096D01*
X36423809Y28438096D01*
X36347619Y28400000D01*
X36309523Y28361905D01*
X36271428Y28285715D01*
X36271428Y28209524D01*
X36309523Y28095239D01*
X36766666Y27638096D01*
X36271428Y27638096D01*
X36004761Y28438096D02*
X35471428Y28438096D01*
X35814285Y27638096D01*
X17757142Y21919048D02*
X17804761Y21966667D01*
X17852380Y22109524D01*
X17852380Y22204762D01*
X17804761Y22347620D01*
X17709523Y22442858D01*
X17614285Y22490477D01*
X17423809Y22538096D01*
X17280952Y22538096D01*
X17090476Y22490477D01*
X16995238Y22442858D01*
X16900000Y22347620D01*
X16852380Y22204762D01*
X16852380Y22109524D01*
X16900000Y21966667D01*
X16947619Y21919048D01*
X16852380Y21061905D02*
X16852380Y21252381D01*
X16900000Y21347620D01*
X16947619Y21395239D01*
X17090476Y21490477D01*
X17280952Y21538096D01*
X17661904Y21538096D01*
X17757142Y21490477D01*
X17804761Y21442858D01*
X17852380Y21347620D01*
X17852380Y21157143D01*
X17804761Y21061905D01*
X17757142Y21014286D01*
X17661904Y20966667D01*
X17423809Y20966667D01*
X17328571Y21014286D01*
X17280952Y21061905D01*
X17233333Y21157143D01*
X17233333Y21347620D01*
X17280952Y21442858D01*
X17328571Y21490477D01*
X17423809Y21538096D01*
X16947619Y20585715D02*
X16900000Y20538096D01*
X16852380Y20442858D01*
X16852380Y20204762D01*
X16900000Y20109524D01*
X16947619Y20061905D01*
X17042857Y20014286D01*
X17138095Y20014286D01*
X17280952Y20061905D01*
X17852380Y20633334D01*
X17852380Y20014286D01*
X16947619Y19633334D02*
X16900000Y19585715D01*
X16852380Y19490477D01*
X16852380Y19252381D01*
X16900000Y19157143D01*
X16947619Y19109524D01*
X17042857Y19061905D01*
X17138095Y19061905D01*
X17280952Y19109524D01*
X17852380Y19680953D01*
X17852380Y19061905D01*
X35185714Y24895239D02*
X35223809Y24933334D01*
X35261904Y25047620D01*
X35261904Y25123810D01*
X35223809Y25238096D01*
X35147619Y25314286D01*
X35071428Y25352381D01*
X34919047Y25390477D01*
X34804761Y25390477D01*
X34652380Y25352381D01*
X34576190Y25314286D01*
X34500000Y25238096D01*
X34461904Y25123810D01*
X34461904Y25047620D01*
X34500000Y24933334D01*
X34538095Y24895239D01*
X34461904Y24209524D02*
X34461904Y24361905D01*
X34500000Y24438096D01*
X34538095Y24476191D01*
X34652380Y24552381D01*
X34804761Y24590477D01*
X35109523Y24590477D01*
X35185714Y24552381D01*
X35223809Y24514286D01*
X35261904Y24438096D01*
X35261904Y24285715D01*
X35223809Y24209524D01*
X35185714Y24171429D01*
X35109523Y24133334D01*
X34919047Y24133334D01*
X34842857Y24171429D01*
X34804761Y24209524D01*
X34766666Y24285715D01*
X34766666Y24438096D01*
X34804761Y24514286D01*
X34842857Y24552381D01*
X34919047Y24590477D01*
X34538095Y23828572D02*
X34500000Y23790477D01*
X34461904Y23714286D01*
X34461904Y23523810D01*
X34500000Y23447620D01*
X34538095Y23409524D01*
X34614285Y23371429D01*
X34690476Y23371429D01*
X34804761Y23409524D01*
X35261904Y23866667D01*
X35261904Y23371429D01*
X34461904Y23104762D02*
X34461904Y22609524D01*
X34766666Y22876191D01*
X34766666Y22761905D01*
X34804761Y22685715D01*
X34842857Y22647620D01*
X34919047Y22609524D01*
X35109523Y22609524D01*
X35185714Y22647620D01*
X35223809Y22685715D01*
X35261904Y22761905D01*
X35261904Y22990477D01*
X35223809Y23066667D01*
X35185714Y23104762D01*
X39985714Y24895239D02*
X40023809Y24933334D01*
X40061904Y25047620D01*
X40061904Y25123810D01*
X40023809Y25238096D01*
X39947619Y25314286D01*
X39871428Y25352381D01*
X39719047Y25390477D01*
X39604761Y25390477D01*
X39452380Y25352381D01*
X39376190Y25314286D01*
X39300000Y25238096D01*
X39261904Y25123810D01*
X39261904Y25047620D01*
X39300000Y24933334D01*
X39338095Y24895239D01*
X39261904Y24209524D02*
X39261904Y24361905D01*
X39300000Y24438096D01*
X39338095Y24476191D01*
X39452380Y24552381D01*
X39604761Y24590477D01*
X39909523Y24590477D01*
X39985714Y24552381D01*
X40023809Y24514286D01*
X40061904Y24438096D01*
X40061904Y24285715D01*
X40023809Y24209524D01*
X39985714Y24171429D01*
X39909523Y24133334D01*
X39719047Y24133334D01*
X39642857Y24171429D01*
X39604761Y24209524D01*
X39566666Y24285715D01*
X39566666Y24438096D01*
X39604761Y24514286D01*
X39642857Y24552381D01*
X39719047Y24590477D01*
X39338095Y23828572D02*
X39300000Y23790477D01*
X39261904Y23714286D01*
X39261904Y23523810D01*
X39300000Y23447620D01*
X39338095Y23409524D01*
X39414285Y23371429D01*
X39490476Y23371429D01*
X39604761Y23409524D01*
X40061904Y23866667D01*
X40061904Y23371429D01*
X39528571Y22685715D02*
X40061904Y22685715D01*
X39223809Y22876191D02*
X39795238Y23066667D01*
X39795238Y22571429D01*
X15185714Y24895239D02*
X15223809Y24933334D01*
X15261904Y25047620D01*
X15261904Y25123810D01*
X15223809Y25238096D01*
X15147619Y25314286D01*
X15071428Y25352381D01*
X14919047Y25390477D01*
X14804761Y25390477D01*
X14652380Y25352381D01*
X14576190Y25314286D01*
X14500000Y25238096D01*
X14461904Y25123810D01*
X14461904Y25047620D01*
X14500000Y24933334D01*
X14538095Y24895239D01*
X14461904Y24209524D02*
X14461904Y24361905D01*
X14500000Y24438096D01*
X14538095Y24476191D01*
X14652380Y24552381D01*
X14804761Y24590477D01*
X15109523Y24590477D01*
X15185714Y24552381D01*
X15223809Y24514286D01*
X15261904Y24438096D01*
X15261904Y24285715D01*
X15223809Y24209524D01*
X15185714Y24171429D01*
X15109523Y24133334D01*
X14919047Y24133334D01*
X14842857Y24171429D01*
X14804761Y24209524D01*
X14766666Y24285715D01*
X14766666Y24438096D01*
X14804761Y24514286D01*
X14842857Y24552381D01*
X14919047Y24590477D01*
X14538095Y23828572D02*
X14500000Y23790477D01*
X14461904Y23714286D01*
X14461904Y23523810D01*
X14500000Y23447620D01*
X14538095Y23409524D01*
X14614285Y23371429D01*
X14690476Y23371429D01*
X14804761Y23409524D01*
X15261904Y23866667D01*
X15261904Y23371429D01*
X14461904Y22647620D02*
X14461904Y23028572D01*
X14842857Y23066667D01*
X14804761Y23028572D01*
X14766666Y22952381D01*
X14766666Y22761905D01*
X14804761Y22685715D01*
X14842857Y22647620D01*
X14919047Y22609524D01*
X15109523Y22609524D01*
X15185714Y22647620D01*
X15223809Y22685715D01*
X15261904Y22761905D01*
X15261904Y22952381D01*
X15223809Y23028572D01*
X15185714Y23066667D01*
X19885714Y24695239D02*
X19923809Y24733334D01*
X19961904Y24847620D01*
X19961904Y24923810D01*
X19923809Y25038096D01*
X19847619Y25114286D01*
X19771428Y25152381D01*
X19619047Y25190477D01*
X19504761Y25190477D01*
X19352380Y25152381D01*
X19276190Y25114286D01*
X19200000Y25038096D01*
X19161904Y24923810D01*
X19161904Y24847620D01*
X19200000Y24733334D01*
X19238095Y24695239D01*
X19161904Y24009524D02*
X19161904Y24161905D01*
X19200000Y24238096D01*
X19238095Y24276191D01*
X19352380Y24352381D01*
X19504761Y24390477D01*
X19809523Y24390477D01*
X19885714Y24352381D01*
X19923809Y24314286D01*
X19961904Y24238096D01*
X19961904Y24085715D01*
X19923809Y24009524D01*
X19885714Y23971429D01*
X19809523Y23933334D01*
X19619047Y23933334D01*
X19542857Y23971429D01*
X19504761Y24009524D01*
X19466666Y24085715D01*
X19466666Y24238096D01*
X19504761Y24314286D01*
X19542857Y24352381D01*
X19619047Y24390477D01*
X19238095Y23628572D02*
X19200000Y23590477D01*
X19161904Y23514286D01*
X19161904Y23323810D01*
X19200000Y23247620D01*
X19238095Y23209524D01*
X19314285Y23171429D01*
X19390476Y23171429D01*
X19504761Y23209524D01*
X19961904Y23666667D01*
X19961904Y23171429D01*
X19161904Y22485715D02*
X19161904Y22638096D01*
X19200000Y22714286D01*
X19238095Y22752381D01*
X19352380Y22828572D01*
X19504761Y22866667D01*
X19809523Y22866667D01*
X19885714Y22828572D01*
X19923809Y22790477D01*
X19961904Y22714286D01*
X19961904Y22561905D01*
X19923809Y22485715D01*
X19885714Y22447620D01*
X19809523Y22409524D01*
X19619047Y22409524D01*
X19542857Y22447620D01*
X19504761Y22485715D01*
X19466666Y22561905D01*
X19466666Y22714286D01*
X19504761Y22790477D01*
X19542857Y22828572D01*
X19619047Y22866667D01*
X21595238Y26714286D02*
X21633333Y26676191D01*
X21747619Y26638096D01*
X21823809Y26638096D01*
X21938095Y26676191D01*
X22014285Y26752381D01*
X22052380Y26828572D01*
X22090476Y26980953D01*
X22090476Y27095239D01*
X22052380Y27247620D01*
X22014285Y27323810D01*
X21938095Y27400000D01*
X21823809Y27438096D01*
X21747619Y27438096D01*
X21633333Y27400000D01*
X21595238Y27361905D01*
X20909523Y27438096D02*
X21061904Y27438096D01*
X21138095Y27400000D01*
X21176190Y27361905D01*
X21252380Y27247620D01*
X21290476Y27095239D01*
X21290476Y26790477D01*
X21252380Y26714286D01*
X21214285Y26676191D01*
X21138095Y26638096D01*
X20985714Y26638096D01*
X20909523Y26676191D01*
X20871428Y26714286D01*
X20833333Y26790477D01*
X20833333Y26980953D01*
X20871428Y27057143D01*
X20909523Y27095239D01*
X20985714Y27133334D01*
X21138095Y27133334D01*
X21214285Y27095239D01*
X21252380Y27057143D01*
X21290476Y26980953D01*
X20528571Y27361905D02*
X20490476Y27400000D01*
X20414285Y27438096D01*
X20223809Y27438096D01*
X20147619Y27400000D01*
X20109523Y27361905D01*
X20071428Y27285715D01*
X20071428Y27209524D01*
X20109523Y27095239D01*
X20566666Y26638096D01*
X20071428Y26638096D01*
X19614285Y27095239D02*
X19690476Y27133334D01*
X19728571Y27171429D01*
X19766666Y27247620D01*
X19766666Y27285715D01*
X19728571Y27361905D01*
X19690476Y27400000D01*
X19614285Y27438096D01*
X19461904Y27438096D01*
X19385714Y27400000D01*
X19347619Y27361905D01*
X19309523Y27285715D01*
X19309523Y27247620D01*
X19347619Y27171429D01*
X19385714Y27133334D01*
X19461904Y27095239D01*
X19614285Y27095239D01*
X19690476Y27057143D01*
X19728571Y27019048D01*
X19766666Y26942858D01*
X19766666Y26790477D01*
X19728571Y26714286D01*
X19690476Y26676191D01*
X19614285Y26638096D01*
X19461904Y26638096D01*
X19385714Y26676191D01*
X19347619Y26714286D01*
X19309523Y26790477D01*
X19309523Y26942858D01*
X19347619Y27019048D01*
X19385714Y27057143D01*
X19461904Y27095239D01*
X15087142Y20619048D02*
X15134761Y20666667D01*
X15182380Y20809524D01*
X15182380Y20904762D01*
X15134761Y21047620D01*
X15039523Y21142858D01*
X14944285Y21190477D01*
X14753809Y21238096D01*
X14610952Y21238096D01*
X14420476Y21190477D01*
X14325238Y21142858D01*
X14230000Y21047620D01*
X14182380Y20904762D01*
X14182380Y20809524D01*
X14230000Y20666667D01*
X14277619Y20619048D01*
X14182380Y19761905D02*
X14182380Y19952381D01*
X14230000Y20047620D01*
X14277619Y20095239D01*
X14420476Y20190477D01*
X14610952Y20238096D01*
X14991904Y20238096D01*
X15087142Y20190477D01*
X15134761Y20142858D01*
X15182380Y20047620D01*
X15182380Y19857143D01*
X15134761Y19761905D01*
X15087142Y19714286D01*
X14991904Y19666667D01*
X14753809Y19666667D01*
X14658571Y19714286D01*
X14610952Y19761905D01*
X14563333Y19857143D01*
X14563333Y20047620D01*
X14610952Y20142858D01*
X14658571Y20190477D01*
X14753809Y20238096D01*
X14277619Y19285715D02*
X14230000Y19238096D01*
X14182380Y19142858D01*
X14182380Y18904762D01*
X14230000Y18809524D01*
X14277619Y18761905D01*
X14372857Y18714286D01*
X14468095Y18714286D01*
X14610952Y18761905D01*
X15182380Y19333334D01*
X15182380Y18714286D01*
X15182380Y17761905D02*
X15182380Y18333334D01*
X15182380Y18047620D02*
X14182380Y18047620D01*
X14325238Y18142858D01*
X14420476Y18238096D01*
X14468095Y18333334D01*
X37457142Y17519048D02*
X37504761Y17566667D01*
X37552380Y17709524D01*
X37552380Y17804762D01*
X37504761Y17947620D01*
X37409523Y18042858D01*
X37314285Y18090477D01*
X37123809Y18138096D01*
X36980952Y18138096D01*
X36790476Y18090477D01*
X36695238Y18042858D01*
X36600000Y17947620D01*
X36552380Y17804762D01*
X36552380Y17709524D01*
X36600000Y17566667D01*
X36647619Y17519048D01*
X36552380Y16661905D02*
X36552380Y16852381D01*
X36600000Y16947620D01*
X36647619Y16995239D01*
X36790476Y17090477D01*
X36980952Y17138096D01*
X37361904Y17138096D01*
X37457142Y17090477D01*
X37504761Y17042858D01*
X37552380Y16947620D01*
X37552380Y16757143D01*
X37504761Y16661905D01*
X37457142Y16614286D01*
X37361904Y16566667D01*
X37123809Y16566667D01*
X37028571Y16614286D01*
X36980952Y16661905D01*
X36933333Y16757143D01*
X36933333Y16947620D01*
X36980952Y17042858D01*
X37028571Y17090477D01*
X37123809Y17138096D01*
X37552380Y15614286D02*
X37552380Y16185715D01*
X37552380Y15900000D02*
X36552380Y15900000D01*
X36695238Y15995239D01*
X36790476Y16090477D01*
X36838095Y16185715D01*
X36552380Y14709524D02*
X36552380Y15185715D01*
X37028571Y15233334D01*
X36980952Y15185715D01*
X36933333Y15090477D01*
X36933333Y14852381D01*
X36980952Y14757143D01*
X37028571Y14709524D01*
X37123809Y14661905D01*
X37361904Y14661905D01*
X37457142Y14709524D01*
X37504761Y14757143D01*
X37552380Y14852381D01*
X37552380Y15090477D01*
X37504761Y15185715D01*
X37457142Y15233334D01*
X41957142Y14919048D02*
X42004761Y14966667D01*
X42052380Y15109524D01*
X42052380Y15204762D01*
X42004761Y15347620D01*
X41909523Y15442858D01*
X41814285Y15490477D01*
X41623809Y15538096D01*
X41480952Y15538096D01*
X41290476Y15490477D01*
X41195238Y15442858D01*
X41100000Y15347620D01*
X41052380Y15204762D01*
X41052380Y15109524D01*
X41100000Y14966667D01*
X41147619Y14919048D01*
X41052380Y14061905D02*
X41052380Y14252381D01*
X41100000Y14347620D01*
X41147619Y14395239D01*
X41290476Y14490477D01*
X41480952Y14538096D01*
X41861904Y14538096D01*
X41957142Y14490477D01*
X42004761Y14442858D01*
X42052380Y14347620D01*
X42052380Y14157143D01*
X42004761Y14061905D01*
X41957142Y14014286D01*
X41861904Y13966667D01*
X41623809Y13966667D01*
X41528571Y14014286D01*
X41480952Y14061905D01*
X41433333Y14157143D01*
X41433333Y14347620D01*
X41480952Y14442858D01*
X41528571Y14490477D01*
X41623809Y14538096D01*
X42052380Y13014286D02*
X42052380Y13585715D01*
X42052380Y13300000D02*
X41052380Y13300000D01*
X41195238Y13395239D01*
X41290476Y13490477D01*
X41338095Y13585715D01*
X41052380Y12157143D02*
X41052380Y12347620D01*
X41100000Y12442858D01*
X41147619Y12490477D01*
X41290476Y12585715D01*
X41480952Y12633334D01*
X41861904Y12633334D01*
X41957142Y12585715D01*
X42004761Y12538096D01*
X42052380Y12442858D01*
X42052380Y12252381D01*
X42004761Y12157143D01*
X41957142Y12109524D01*
X41861904Y12061905D01*
X41623809Y12061905D01*
X41528571Y12109524D01*
X41480952Y12157143D01*
X41433333Y12252381D01*
X41433333Y12442858D01*
X41480952Y12538096D01*
X41528571Y12585715D01*
X41623809Y12633334D01*
X17457142Y15619048D02*
X17504761Y15666667D01*
X17552380Y15809524D01*
X17552380Y15904762D01*
X17504761Y16047620D01*
X17409523Y16142858D01*
X17314285Y16190477D01*
X17123809Y16238096D01*
X16980952Y16238096D01*
X16790476Y16190477D01*
X16695238Y16142858D01*
X16600000Y16047620D01*
X16552380Y15904762D01*
X16552380Y15809524D01*
X16600000Y15666667D01*
X16647619Y15619048D01*
X16552380Y14761905D02*
X16552380Y14952381D01*
X16600000Y15047620D01*
X16647619Y15095239D01*
X16790476Y15190477D01*
X16980952Y15238096D01*
X17361904Y15238096D01*
X17457142Y15190477D01*
X17504761Y15142858D01*
X17552380Y15047620D01*
X17552380Y14857143D01*
X17504761Y14761905D01*
X17457142Y14714286D01*
X17361904Y14666667D01*
X17123809Y14666667D01*
X17028571Y14714286D01*
X16980952Y14761905D01*
X16933333Y14857143D01*
X16933333Y15047620D01*
X16980952Y15142858D01*
X17028571Y15190477D01*
X17123809Y15238096D01*
X17552380Y13714286D02*
X17552380Y14285715D01*
X17552380Y14000000D02*
X16552380Y14000000D01*
X16695238Y14095239D01*
X16790476Y14190477D01*
X16838095Y14285715D01*
X16552380Y13380953D02*
X16552380Y12714286D01*
X17552380Y13142858D01*
X21957142Y15619048D02*
X22004761Y15666667D01*
X22052380Y15809524D01*
X22052380Y15904762D01*
X22004761Y16047620D01*
X21909523Y16142858D01*
X21814285Y16190477D01*
X21623809Y16238096D01*
X21480952Y16238096D01*
X21290476Y16190477D01*
X21195238Y16142858D01*
X21100000Y16047620D01*
X21052380Y15904762D01*
X21052380Y15809524D01*
X21100000Y15666667D01*
X21147619Y15619048D01*
X21052380Y14761905D02*
X21052380Y14952381D01*
X21100000Y15047620D01*
X21147619Y15095239D01*
X21290476Y15190477D01*
X21480952Y15238096D01*
X21861904Y15238096D01*
X21957142Y15190477D01*
X22004761Y15142858D01*
X22052380Y15047620D01*
X22052380Y14857143D01*
X22004761Y14761905D01*
X21957142Y14714286D01*
X21861904Y14666667D01*
X21623809Y14666667D01*
X21528571Y14714286D01*
X21480952Y14761905D01*
X21433333Y14857143D01*
X21433333Y15047620D01*
X21480952Y15142858D01*
X21528571Y15190477D01*
X21623809Y15238096D01*
X22052380Y13714286D02*
X22052380Y14285715D01*
X22052380Y14000000D02*
X21052380Y14000000D01*
X21195238Y14095239D01*
X21290476Y14190477D01*
X21338095Y14285715D01*
X21480952Y13142858D02*
X21433333Y13238096D01*
X21385714Y13285715D01*
X21290476Y13333334D01*
X21242857Y13333334D01*
X21147619Y13285715D01*
X21100000Y13238096D01*
X21052380Y13142858D01*
X21052380Y12952381D01*
X21100000Y12857143D01*
X21147619Y12809524D01*
X21242857Y12761905D01*
X21290476Y12761905D01*
X21385714Y12809524D01*
X21433333Y12857143D01*
X21480952Y12952381D01*
X21480952Y13142858D01*
X21528571Y13238096D01*
X21576190Y13285715D01*
X21671428Y13333334D01*
X21861904Y13333334D01*
X21957142Y13285715D01*
X22004761Y13238096D01*
X22052380Y13142858D01*
X22052380Y12952381D01*
X22004761Y12857143D01*
X21957142Y12809524D01*
X21861904Y12761905D01*
X21671428Y12761905D01*
X21576190Y12809524D01*
X21528571Y12857143D01*
X21480952Y12952381D01*
X21495238Y338096D02*
X21761904Y719048D01*
X21952380Y338096D02*
X21952380Y1138096D01*
X21647619Y1138096D01*
X21571428Y1100000D01*
X21533333Y1061905D01*
X21495238Y985715D01*
X21495238Y871429D01*
X21533333Y795239D01*
X21571428Y757143D01*
X21647619Y719048D01*
X21952380Y719048D01*
X20809523Y871429D02*
X20809523Y338096D01*
X21000000Y1176191D02*
X21190476Y604762D01*
X20695238Y604762D01*
X19971428Y338096D02*
X20428571Y338096D01*
X20200000Y338096D02*
X20200000Y1138096D01*
X20276190Y1023810D01*
X20352380Y947620D01*
X20428571Y909524D01*
X19247619Y1138096D02*
X19628571Y1138096D01*
X19666666Y757143D01*
X19628571Y795239D01*
X19552380Y833334D01*
X19361904Y833334D01*
X19285714Y795239D01*
X19247619Y757143D01*
X19209523Y680953D01*
X19209523Y490477D01*
X19247619Y414286D01*
X19285714Y376191D01*
X19361904Y338096D01*
X19552380Y338096D01*
X19628571Y376191D01*
X19666666Y414286D01*
X19119047Y9947620D02*
X19595238Y9947620D01*
X19595238Y10947620D01*
X18833333Y10852381D02*
X18785714Y10900000D01*
X18690476Y10947620D01*
X18452380Y10947620D01*
X18357142Y10900000D01*
X18309523Y10852381D01*
X18261904Y10757143D01*
X18261904Y10661905D01*
X18309523Y10519048D01*
X18880952Y9947620D01*
X18261904Y9947620D01*
X17642857Y10947620D02*
X17547619Y10947620D01*
X17452380Y10900000D01*
X17404761Y10852381D01*
X17357142Y10757143D01*
X17309523Y10566667D01*
X17309523Y10328572D01*
X17357142Y10138096D01*
X17404761Y10042858D01*
X17452380Y9995239D01*
X17547619Y9947620D01*
X17642857Y9947620D01*
X17738095Y9995239D01*
X17785714Y10042858D01*
X17833333Y10138096D01*
X17880952Y10328572D01*
X17880952Y10566667D01*
X17833333Y10757143D01*
X17785714Y10852381D01*
X17738095Y10900000D01*
X17642857Y10947620D01*
X16357142Y9947620D02*
X16928571Y9947620D01*
X16642857Y9947620D02*
X16642857Y10947620D01*
X16738095Y10804762D01*
X16833333Y10709524D01*
X16928571Y10661905D01*
X45752380Y30119048D02*
X45276190Y30452381D01*
X45752380Y30690477D02*
X44752380Y30690477D01*
X44752380Y30309524D01*
X44800000Y30214286D01*
X44847619Y30166667D01*
X44942857Y30119048D01*
X45085714Y30119048D01*
X45180952Y30166667D01*
X45228571Y30214286D01*
X45276190Y30309524D01*
X45276190Y30690477D01*
X44752380Y29785715D02*
X44752380Y29119048D01*
X45752380Y29547620D01*
X44847619Y28785715D02*
X44800000Y28738096D01*
X44752380Y28642858D01*
X44752380Y28404762D01*
X44800000Y28309524D01*
X44847619Y28261905D01*
X44942857Y28214286D01*
X45038095Y28214286D01*
X45180952Y28261905D01*
X45752380Y28833334D01*
X45752380Y28214286D01*
X44752380Y27880953D02*
X44752380Y27261905D01*
X45133333Y27595239D01*
X45133333Y27452381D01*
X45180952Y27357143D01*
X45228571Y27309524D01*
X45323809Y27261905D01*
X45561904Y27261905D01*
X45657142Y27309524D01*
X45704761Y27357143D01*
X45752380Y27452381D01*
X45752380Y27738096D01*
X45704761Y27833334D01*
X45657142Y27880953D01*
X23595238Y3114286D02*
X23633333Y3076191D01*
X23747619Y3038096D01*
X23823809Y3038096D01*
X23938095Y3076191D01*
X24014285Y3152381D01*
X24052380Y3228572D01*
X24090476Y3380953D01*
X24090476Y3495239D01*
X24052380Y3647620D01*
X24014285Y3723810D01*
X23938095Y3800000D01*
X23823809Y3838096D01*
X23747619Y3838096D01*
X23633333Y3800000D01*
X23595238Y3761905D01*
X23290476Y3761905D02*
X23252380Y3800000D01*
X23176190Y3838096D01*
X22985714Y3838096D01*
X22909523Y3800000D01*
X22871428Y3761905D01*
X22833333Y3685715D01*
X22833333Y3609524D01*
X22871428Y3495239D01*
X23328571Y3038096D01*
X22833333Y3038096D01*
X22338095Y3838096D02*
X22261904Y3838096D01*
X22185714Y3800000D01*
X22147619Y3761905D01*
X22109523Y3685715D01*
X22071428Y3533334D01*
X22071428Y3342858D01*
X22109523Y3190477D01*
X22147619Y3114286D01*
X22185714Y3076191D01*
X22261904Y3038096D01*
X22338095Y3038096D01*
X22414285Y3076191D01*
X22452380Y3114286D01*
X22490476Y3190477D01*
X22528571Y3342858D01*
X22528571Y3533334D01*
X22490476Y3685715D01*
X22452380Y3761905D01*
X22414285Y3800000D01*
X22338095Y3838096D01*
X21804761Y3838096D02*
X21309523Y3838096D01*
X21576190Y3533334D01*
X21461904Y3533334D01*
X21385714Y3495239D01*
X21347619Y3457143D01*
X21309523Y3380953D01*
X21309523Y3190477D01*
X21347619Y3114286D01*
X21385714Y3076191D01*
X21461904Y3038096D01*
X21690476Y3038096D01*
X21766666Y3076191D01*
X21804761Y3114286D01*
X7785714Y25695239D02*
X7823809Y25733334D01*
X7861904Y25847620D01*
X7861904Y25923810D01*
X7823809Y26038096D01*
X7747619Y26114286D01*
X7671428Y26152381D01*
X7519047Y26190477D01*
X7404761Y26190477D01*
X7252380Y26152381D01*
X7176190Y26114286D01*
X7100000Y26038096D01*
X7061904Y25923810D01*
X7061904Y25847620D01*
X7100000Y25733334D01*
X7138095Y25695239D01*
X7138095Y25390477D02*
X7100000Y25352381D01*
X7061904Y25276191D01*
X7061904Y25085715D01*
X7100000Y25009524D01*
X7138095Y24971429D01*
X7214285Y24933334D01*
X7290476Y24933334D01*
X7404761Y24971429D01*
X7861904Y25428572D01*
X7861904Y24933334D01*
X7138095Y24628572D02*
X7100000Y24590477D01*
X7061904Y24514286D01*
X7061904Y24323810D01*
X7100000Y24247620D01*
X7138095Y24209524D01*
X7214285Y24171429D01*
X7290476Y24171429D01*
X7404761Y24209524D01*
X7861904Y24666667D01*
X7861904Y24171429D01*
X7061904Y23904762D02*
X7061904Y23409524D01*
X7366666Y23676191D01*
X7366666Y23561905D01*
X7404761Y23485715D01*
X7442857Y23447620D01*
X7519047Y23409524D01*
X7709523Y23409524D01*
X7785714Y23447620D01*
X7823809Y23485715D01*
X7861904Y23561905D01*
X7861904Y23790477D01*
X7823809Y23866667D01*
X7785714Y23904762D01*
X31957142Y13919048D02*
X32004761Y13966667D01*
X32052380Y14109524D01*
X32052380Y14204762D01*
X32004761Y14347620D01*
X31909523Y14442858D01*
X31814285Y14490477D01*
X31623809Y14538096D01*
X31480952Y14538096D01*
X31290476Y14490477D01*
X31195238Y14442858D01*
X31100000Y14347620D01*
X31052380Y14204762D01*
X31052380Y14109524D01*
X31100000Y13966667D01*
X31147619Y13919048D01*
X31052380Y13061905D02*
X31052380Y13252381D01*
X31100000Y13347620D01*
X31147619Y13395239D01*
X31290476Y13490477D01*
X31480952Y13538096D01*
X31861904Y13538096D01*
X31957142Y13490477D01*
X32004761Y13442858D01*
X32052380Y13347620D01*
X32052380Y13157143D01*
X32004761Y13061905D01*
X31957142Y13014286D01*
X31861904Y12966667D01*
X31623809Y12966667D01*
X31528571Y13014286D01*
X31480952Y13061905D01*
X31433333Y13157143D01*
X31433333Y13347620D01*
X31480952Y13442858D01*
X31528571Y13490477D01*
X31623809Y13538096D01*
X31052380Y12347620D02*
X31052380Y12252381D01*
X31100000Y12157143D01*
X31147619Y12109524D01*
X31242857Y12061905D01*
X31433333Y12014286D01*
X31671428Y12014286D01*
X31861904Y12061905D01*
X31957142Y12109524D01*
X32004761Y12157143D01*
X32052380Y12252381D01*
X32052380Y12347620D01*
X32004761Y12442858D01*
X31957142Y12490477D01*
X31861904Y12538096D01*
X31671428Y12585715D01*
X31433333Y12585715D01*
X31242857Y12538096D01*
X31147619Y12490477D01*
X31100000Y12442858D01*
X31052380Y12347620D01*
X31147619Y11633334D02*
X31100000Y11585715D01*
X31052380Y11490477D01*
X31052380Y11252381D01*
X31100000Y11157143D01*
X31147619Y11109524D01*
X31242857Y11061905D01*
X31338095Y11061905D01*
X31480952Y11109524D01*
X32052380Y11680953D01*
X32052380Y11061905D01*
X27457142Y14719048D02*
X27504761Y14766667D01*
X27552380Y14909524D01*
X27552380Y15004762D01*
X27504761Y15147620D01*
X27409523Y15242858D01*
X27314285Y15290477D01*
X27123809Y15338096D01*
X26980952Y15338096D01*
X26790476Y15290477D01*
X26695238Y15242858D01*
X26600000Y15147620D01*
X26552380Y15004762D01*
X26552380Y14909524D01*
X26600000Y14766667D01*
X26647619Y14719048D01*
X26552380Y13861905D02*
X26552380Y14052381D01*
X26600000Y14147620D01*
X26647619Y14195239D01*
X26790476Y14290477D01*
X26980952Y14338096D01*
X27361904Y14338096D01*
X27457142Y14290477D01*
X27504761Y14242858D01*
X27552380Y14147620D01*
X27552380Y13957143D01*
X27504761Y13861905D01*
X27457142Y13814286D01*
X27361904Y13766667D01*
X27123809Y13766667D01*
X27028571Y13814286D01*
X26980952Y13861905D01*
X26933333Y13957143D01*
X26933333Y14147620D01*
X26980952Y14242858D01*
X27028571Y14290477D01*
X27123809Y14338096D01*
X26552380Y13147620D02*
X26552380Y13052381D01*
X26600000Y12957143D01*
X26647619Y12909524D01*
X26742857Y12861905D01*
X26933333Y12814286D01*
X27171428Y12814286D01*
X27361904Y12861905D01*
X27457142Y12909524D01*
X27504761Y12957143D01*
X27552380Y13052381D01*
X27552380Y13147620D01*
X27504761Y13242858D01*
X27457142Y13290477D01*
X27361904Y13338096D01*
X27171428Y13385715D01*
X26933333Y13385715D01*
X26742857Y13338096D01*
X26647619Y13290477D01*
X26600000Y13242858D01*
X26552380Y13147620D01*
X27552380Y11861905D02*
X27552380Y12433334D01*
X27552380Y12147620D02*
X26552380Y12147620D01*
X26695238Y12242858D01*
X26790476Y12338096D01*
X26838095Y12433334D01*
X34695238Y28538096D02*
X34961904Y28919048D01*
X35152380Y28538096D02*
X35152380Y29338096D01*
X34847619Y29338096D01*
X34771428Y29300000D01*
X34733333Y29261905D01*
X34695238Y29185715D01*
X34695238Y29071429D01*
X34733333Y28995239D01*
X34771428Y28957143D01*
X34847619Y28919048D01*
X35152380Y28919048D01*
X34428571Y29338096D02*
X33895238Y29338096D01*
X34238095Y28538096D01*
X33171428Y28538096D02*
X33628571Y28538096D01*
X33400000Y28538096D02*
X33400000Y29338096D01*
X33476190Y29223810D01*
X33552380Y29147620D01*
X33628571Y29109524D01*
X32904761Y29338096D02*
X32371428Y29338096D01*
X32714285Y28538096D01*
X36961904Y34895239D02*
X36580952Y35161905D01*
X36961904Y35352381D02*
X36161904Y35352381D01*
X36161904Y35047620D01*
X36200000Y34971429D01*
X36238095Y34933334D01*
X36314285Y34895239D01*
X36428571Y34895239D01*
X36504761Y34933334D01*
X36542857Y34971429D01*
X36580952Y35047620D01*
X36580952Y35352381D01*
X36161904Y34628572D02*
X36161904Y34095239D01*
X36961904Y34438096D01*
X36961904Y33371429D02*
X36961904Y33828572D01*
X36961904Y33600000D02*
X36161904Y33600000D01*
X36276190Y33676191D01*
X36352380Y33752381D01*
X36390476Y33828572D01*
X36504761Y32914286D02*
X36466666Y32990477D01*
X36428571Y33028572D01*
X36352380Y33066667D01*
X36314285Y33066667D01*
X36238095Y33028572D01*
X36200000Y32990477D01*
X36161904Y32914286D01*
X36161904Y32761905D01*
X36200000Y32685715D01*
X36238095Y32647620D01*
X36314285Y32609524D01*
X36352380Y32609524D01*
X36428571Y32647620D01*
X36466666Y32685715D01*
X36504761Y32761905D01*
X36504761Y32914286D01*
X36542857Y32990477D01*
X36580952Y33028572D01*
X36657142Y33066667D01*
X36809523Y33066667D01*
X36885714Y33028572D01*
X36923809Y32990477D01*
X36961904Y32914286D01*
X36961904Y32761905D01*
X36923809Y32685715D01*
X36885714Y32647620D01*
X36809523Y32609524D01*
X36657142Y32609524D01*
X36580952Y32647620D01*
X36542857Y32685715D01*
X36504761Y32761905D01*
X32861904Y37495239D02*
X32480952Y37761905D01*
X32861904Y37952381D02*
X32061904Y37952381D01*
X32061904Y37647620D01*
X32100000Y37571429D01*
X32138095Y37533334D01*
X32214285Y37495239D01*
X32328571Y37495239D01*
X32404761Y37533334D01*
X32442857Y37571429D01*
X32480952Y37647620D01*
X32480952Y37952381D01*
X32061904Y37228572D02*
X32061904Y36695239D01*
X32861904Y37038096D01*
X32861904Y35971429D02*
X32861904Y36428572D01*
X32861904Y36200000D02*
X32061904Y36200000D01*
X32176190Y36276191D01*
X32252380Y36352381D01*
X32290476Y36428572D01*
X32861904Y35590477D02*
X32861904Y35438096D01*
X32823809Y35361905D01*
X32785714Y35323810D01*
X32671428Y35247620D01*
X32519047Y35209524D01*
X32214285Y35209524D01*
X32138095Y35247620D01*
X32100000Y35285715D01*
X32061904Y35361905D01*
X32061904Y35514286D01*
X32100000Y35590477D01*
X32138095Y35628572D01*
X32214285Y35666667D01*
X32404761Y35666667D01*
X32480952Y35628572D01*
X32519047Y35590477D01*
X32557142Y35514286D01*
X32557142Y35361905D01*
X32519047Y35285715D01*
X32480952Y35247620D01*
X32404761Y35209524D01*
X32861904Y41495239D02*
X32480952Y41761905D01*
X32861904Y41952381D02*
X32061904Y41952381D01*
X32061904Y41647620D01*
X32100000Y41571429D01*
X32138095Y41533334D01*
X32214285Y41495239D01*
X32328571Y41495239D01*
X32404761Y41533334D01*
X32442857Y41571429D01*
X32480952Y41647620D01*
X32480952Y41952381D01*
X32061904Y41228572D02*
X32061904Y40695239D01*
X32861904Y41038096D01*
X32138095Y40428572D02*
X32100000Y40390477D01*
X32061904Y40314286D01*
X32061904Y40123810D01*
X32100000Y40047620D01*
X32138095Y40009524D01*
X32214285Y39971429D01*
X32290476Y39971429D01*
X32404761Y40009524D01*
X32861904Y40466667D01*
X32861904Y39971429D01*
X32061904Y39476191D02*
X32061904Y39400000D01*
X32100000Y39323810D01*
X32138095Y39285715D01*
X32214285Y39247620D01*
X32366666Y39209524D01*
X32557142Y39209524D01*
X32709523Y39247620D01*
X32785714Y39285715D01*
X32823809Y39323810D01*
X32861904Y39400000D01*
X32861904Y39476191D01*
X32823809Y39552381D01*
X32785714Y39590477D01*
X32709523Y39628572D01*
X32557142Y39666667D01*
X32366666Y39666667D01*
X32214285Y39628572D01*
X32138095Y39590477D01*
X32100000Y39552381D01*
X32061904Y39476191D01*
X16619047Y30442858D02*
X16666666Y30395239D01*
X16809523Y30347620D01*
X16904761Y30347620D01*
X17047619Y30395239D01*
X17142857Y30490477D01*
X17190476Y30585715D01*
X17238095Y30776191D01*
X17238095Y30919048D01*
X17190476Y31109524D01*
X17142857Y31204762D01*
X17047619Y31300000D01*
X16904761Y31347620D01*
X16809523Y31347620D01*
X16666666Y31300000D01*
X16619047Y31252381D01*
X16285714Y31347620D02*
X15619047Y31347620D01*
X16047619Y30347620D01*
X15047619Y31347620D02*
X14952380Y31347620D01*
X14857142Y31300000D01*
X14809523Y31252381D01*
X14761904Y31157143D01*
X14714285Y30966667D01*
X14714285Y30728572D01*
X14761904Y30538096D01*
X14809523Y30442858D01*
X14857142Y30395239D01*
X14952380Y30347620D01*
X15047619Y30347620D01*
X15142857Y30395239D01*
X15190476Y30442858D01*
X15238095Y30538096D01*
X15285714Y30728572D01*
X15285714Y30966667D01*
X15238095Y31157143D01*
X15190476Y31252381D01*
X15142857Y31300000D01*
X15047619Y31347620D01*
X14380952Y31347620D02*
X13761904Y31347620D01*
X14095238Y30966667D01*
X13952380Y30966667D01*
X13857142Y30919048D01*
X13809523Y30871429D01*
X13761904Y30776191D01*
X13761904Y30538096D01*
X13809523Y30442858D01*
X13857142Y30395239D01*
X13952380Y30347620D01*
X14238095Y30347620D01*
X14333333Y30395239D01*
X14380952Y30442858D01*
X36885714Y39395239D02*
X36923809Y39433334D01*
X36961904Y39547620D01*
X36961904Y39623810D01*
X36923809Y39738096D01*
X36847619Y39814286D01*
X36771428Y39852381D01*
X36619047Y39890477D01*
X36504761Y39890477D01*
X36352380Y39852381D01*
X36276190Y39814286D01*
X36200000Y39738096D01*
X36161904Y39623810D01*
X36161904Y39547620D01*
X36200000Y39433334D01*
X36238095Y39395239D01*
X36161904Y39128572D02*
X36161904Y38595239D01*
X36961904Y38938096D01*
X36961904Y37871429D02*
X36961904Y38328572D01*
X36961904Y38100000D02*
X36161904Y38100000D01*
X36276190Y38176191D01*
X36352380Y38252381D01*
X36390476Y38328572D01*
X36161904Y37185715D02*
X36161904Y37338096D01*
X36200000Y37414286D01*
X36238095Y37452381D01*
X36352380Y37528572D01*
X36504761Y37566667D01*
X36809523Y37566667D01*
X36885714Y37528572D01*
X36923809Y37490477D01*
X36961904Y37414286D01*
X36961904Y37261905D01*
X36923809Y37185715D01*
X36885714Y37147620D01*
X36809523Y37109524D01*
X36619047Y37109524D01*
X36542857Y37147620D01*
X36504761Y37185715D01*
X36466666Y37261905D01*
X36466666Y37414286D01*
X36504761Y37490477D01*
X36542857Y37528572D01*
X36619047Y37566667D01*
X36861904Y43095239D02*
X36480952Y43361905D01*
X36861904Y43552381D02*
X36061904Y43552381D01*
X36061904Y43247620D01*
X36100000Y43171429D01*
X36138095Y43133334D01*
X36214285Y43095239D01*
X36328571Y43095239D01*
X36404761Y43133334D01*
X36442857Y43171429D01*
X36480952Y43247620D01*
X36480952Y43552381D01*
X36061904Y42828572D02*
X36061904Y42295239D01*
X36861904Y42638096D01*
X36138095Y42028572D02*
X36100000Y41990477D01*
X36061904Y41914286D01*
X36061904Y41723810D01*
X36100000Y41647620D01*
X36138095Y41609524D01*
X36214285Y41571429D01*
X36290476Y41571429D01*
X36404761Y41609524D01*
X36861904Y42066667D01*
X36861904Y41571429D01*
X36328571Y40885715D02*
X36861904Y40885715D01*
X36023809Y41076191D02*
X36595238Y41266667D01*
X36595238Y40771429D01*
X16495238Y38814286D02*
X16533333Y38776191D01*
X16647619Y38738096D01*
X16723809Y38738096D01*
X16838095Y38776191D01*
X16914285Y38852381D01*
X16952380Y38928572D01*
X16990476Y39080953D01*
X16990476Y39195239D01*
X16952380Y39347620D01*
X16914285Y39423810D01*
X16838095Y39500000D01*
X16723809Y39538096D01*
X16647619Y39538096D01*
X16533333Y39500000D01*
X16495238Y39461905D01*
X16228571Y39538096D02*
X15695238Y39538096D01*
X16038095Y38738096D01*
X15238095Y39538096D02*
X15161904Y39538096D01*
X15085714Y39500000D01*
X15047619Y39461905D01*
X15009523Y39385715D01*
X14971428Y39233334D01*
X14971428Y39042858D01*
X15009523Y38890477D01*
X15047619Y38814286D01*
X15085714Y38776191D01*
X15161904Y38738096D01*
X15238095Y38738096D01*
X15314285Y38776191D01*
X15352380Y38814286D01*
X15390476Y38890477D01*
X15428571Y39042858D01*
X15428571Y39233334D01*
X15390476Y39385715D01*
X15352380Y39461905D01*
X15314285Y39500000D01*
X15238095Y39538096D01*
X14666666Y39461905D02*
X14628571Y39500000D01*
X14552380Y39538096D01*
X14361904Y39538096D01*
X14285714Y39500000D01*
X14247619Y39461905D01*
X14209523Y39385715D01*
X14209523Y39309524D01*
X14247619Y39195239D01*
X14704761Y38738096D01*
X14209523Y38738096D01*
X32785714Y32895239D02*
X32823809Y32933334D01*
X32861904Y33047620D01*
X32861904Y33123810D01*
X32823809Y33238096D01*
X32747619Y33314286D01*
X32671428Y33352381D01*
X32519047Y33390477D01*
X32404761Y33390477D01*
X32252380Y33352381D01*
X32176190Y33314286D01*
X32100000Y33238096D01*
X32061904Y33123810D01*
X32061904Y33047620D01*
X32100000Y32933334D01*
X32138095Y32895239D01*
X32061904Y32628572D02*
X32061904Y32095239D01*
X32861904Y32438096D01*
X32861904Y31371429D02*
X32861904Y31828572D01*
X32861904Y31600000D02*
X32061904Y31600000D01*
X32176190Y31676191D01*
X32252380Y31752381D01*
X32290476Y31828572D01*
X32061904Y30647620D02*
X32061904Y31028572D01*
X32442857Y31066667D01*
X32404761Y31028572D01*
X32366666Y30952381D01*
X32366666Y30761905D01*
X32404761Y30685715D01*
X32442857Y30647620D01*
X32519047Y30609524D01*
X32709523Y30609524D01*
X32785714Y30647620D01*
X32823809Y30685715D01*
X32861904Y30761905D01*
X32861904Y30952381D01*
X32823809Y31028572D01*
X32785714Y31066667D01*
X48752380Y30119048D02*
X48276190Y30452381D01*
X48752380Y30690477D02*
X47752380Y30690477D01*
X47752380Y30309524D01*
X47800000Y30214286D01*
X47847619Y30166667D01*
X47942857Y30119048D01*
X48085714Y30119048D01*
X48180952Y30166667D01*
X48228571Y30214286D01*
X48276190Y30309524D01*
X48276190Y30690477D01*
X47752380Y29785715D02*
X47752380Y29119048D01*
X48752380Y29547620D01*
X47847619Y28785715D02*
X47800000Y28738096D01*
X47752380Y28642858D01*
X47752380Y28404762D01*
X47800000Y28309524D01*
X47847619Y28261905D01*
X47942857Y28214286D01*
X48038095Y28214286D01*
X48180952Y28261905D01*
X48752380Y28833334D01*
X48752380Y28214286D01*
X47847619Y27833334D02*
X47800000Y27785715D01*
X47752380Y27690477D01*
X47752380Y27452381D01*
X47800000Y27357143D01*
X47847619Y27309524D01*
X47942857Y27261905D01*
X48038095Y27261905D01*
X48180952Y27309524D01*
X48752380Y27880953D01*
X48752380Y27261905D01*
X16619047Y27777620D02*
X16952380Y28253810D01*
X17190476Y27777620D02*
X17190476Y28777620D01*
X16809523Y28777620D01*
X16714285Y28730000D01*
X16666666Y28682381D01*
X16619047Y28587143D01*
X16619047Y28444286D01*
X16666666Y28349048D01*
X16714285Y28301429D01*
X16809523Y28253810D01*
X17190476Y28253810D01*
X16285714Y28777620D02*
X15619047Y28777620D01*
X16047619Y27777620D01*
X15047619Y28777620D02*
X14952380Y28777620D01*
X14857142Y28730000D01*
X14809523Y28682381D01*
X14761904Y28587143D01*
X14714285Y28396667D01*
X14714285Y28158572D01*
X14761904Y27968096D01*
X14809523Y27872858D01*
X14857142Y27825239D01*
X14952380Y27777620D01*
X15047619Y27777620D01*
X15142857Y27825239D01*
X15190476Y27872858D01*
X15238095Y27968096D01*
X15285714Y28158572D01*
X15285714Y28396667D01*
X15238095Y28587143D01*
X15190476Y28682381D01*
X15142857Y28730000D01*
X15047619Y28777620D01*
X13809523Y28777620D02*
X14285714Y28777620D01*
X14333333Y28301429D01*
X14285714Y28349048D01*
X14190476Y28396667D01*
X13952380Y28396667D01*
X13857142Y28349048D01*
X13809523Y28301429D01*
X13761904Y28206191D01*
X13761904Y27968096D01*
X13809523Y27872858D01*
X13857142Y27825239D01*
X13952380Y27777620D01*
X14190476Y27777620D01*
X14285714Y27825239D01*
X14333333Y27872858D01*
X16619047Y32847620D02*
X16952380Y33323810D01*
X17190476Y32847620D02*
X17190476Y33847620D01*
X16809523Y33847620D01*
X16714285Y33800000D01*
X16666666Y33752381D01*
X16619047Y33657143D01*
X16619047Y33514286D01*
X16666666Y33419048D01*
X16714285Y33371429D01*
X16809523Y33323810D01*
X17190476Y33323810D01*
X16285714Y33847620D02*
X15619047Y33847620D01*
X16047619Y32847620D01*
X15047619Y33847620D02*
X14952380Y33847620D01*
X14857142Y33800000D01*
X14809523Y33752381D01*
X14761904Y33657143D01*
X14714285Y33466667D01*
X14714285Y33228572D01*
X14761904Y33038096D01*
X14809523Y32942858D01*
X14857142Y32895239D01*
X14952380Y32847620D01*
X15047619Y32847620D01*
X15142857Y32895239D01*
X15190476Y32942858D01*
X15238095Y33038096D01*
X15285714Y33228572D01*
X15285714Y33466667D01*
X15238095Y33657143D01*
X15190476Y33752381D01*
X15142857Y33800000D01*
X15047619Y33847620D01*
X13857142Y33847620D02*
X14047619Y33847620D01*
X14142857Y33800000D01*
X14190476Y33752381D01*
X14285714Y33609524D01*
X14333333Y33419048D01*
X14333333Y33038096D01*
X14285714Y32942858D01*
X14238095Y32895239D01*
X14142857Y32847620D01*
X13952380Y32847620D01*
X13857142Y32895239D01*
X13809523Y32942858D01*
X13761904Y33038096D01*
X13761904Y33276191D01*
X13809523Y33371429D01*
X13857142Y33419048D01*
X13952380Y33466667D01*
X14142857Y33466667D01*
X14238095Y33419048D01*
X14285714Y33371429D01*
X14333333Y33276191D01*
X4795238Y28538096D02*
X5061904Y28919048D01*
X5252380Y28538096D02*
X5252380Y29338096D01*
X4947619Y29338096D01*
X4871428Y29300000D01*
X4833333Y29261905D01*
X4795238Y29185715D01*
X4795238Y29071429D01*
X4833333Y28995239D01*
X4871428Y28957143D01*
X4947619Y28919048D01*
X5252380Y28919048D01*
X4528571Y29338096D02*
X3995238Y29338096D01*
X4338095Y28538096D01*
X3271428Y28538096D02*
X3728571Y28538096D01*
X3500000Y28538096D02*
X3500000Y29338096D01*
X3576190Y29223810D01*
X3652380Y29147620D01*
X3728571Y29109524D01*
X2509523Y28538096D02*
X2966666Y28538096D01*
X2738095Y28538096D02*
X2738095Y29338096D01*
X2814285Y29223810D01*
X2890476Y29147620D01*
X2966666Y29109524D01*
X16395238Y36138096D02*
X16661904Y36519048D01*
X16852380Y36138096D02*
X16852380Y36938096D01*
X16547619Y36938096D01*
X16471428Y36900000D01*
X16433333Y36861905D01*
X16395238Y36785715D01*
X16395238Y36671429D01*
X16433333Y36595239D01*
X16471428Y36557143D01*
X16547619Y36519048D01*
X16852380Y36519048D01*
X16128571Y36938096D02*
X15595238Y36938096D01*
X15938095Y36138096D01*
X15138095Y36938096D02*
X15061904Y36938096D01*
X14985714Y36900000D01*
X14947619Y36861905D01*
X14909523Y36785715D01*
X14871428Y36633334D01*
X14871428Y36442858D01*
X14909523Y36290477D01*
X14947619Y36214286D01*
X14985714Y36176191D01*
X15061904Y36138096D01*
X15138095Y36138096D01*
X15214285Y36176191D01*
X15252380Y36214286D01*
X15290476Y36290477D01*
X15328571Y36442858D01*
X15328571Y36633334D01*
X15290476Y36785715D01*
X15252380Y36861905D01*
X15214285Y36900000D01*
X15138095Y36938096D01*
X14604761Y36938096D02*
X14109523Y36938096D01*
X14376190Y36633334D01*
X14261904Y36633334D01*
X14185714Y36595239D01*
X14147619Y36557143D01*
X14109523Y36480953D01*
X14109523Y36290477D01*
X14147619Y36214286D01*
X14185714Y36176191D01*
X14261904Y36138096D01*
X14490476Y36138096D01*
X14566666Y36176191D01*
X14604761Y36214286D01*
X8895238Y41538096D02*
X9161904Y41919048D01*
X9352380Y41538096D02*
X9352380Y42338096D01*
X9047619Y42338096D01*
X8971428Y42300000D01*
X8933333Y42261905D01*
X8895238Y42185715D01*
X8895238Y42071429D01*
X8933333Y41995239D01*
X8971428Y41957143D01*
X9047619Y41919048D01*
X9352380Y41919048D01*
X8628571Y42338096D02*
X8095238Y42338096D01*
X8438095Y41538096D01*
X7371428Y41538096D02*
X7828571Y41538096D01*
X7600000Y41538096D02*
X7600000Y42338096D01*
X7676190Y42223810D01*
X7752380Y42147620D01*
X7828571Y42109524D01*
X6876190Y42338096D02*
X6800000Y42338096D01*
X6723809Y42300000D01*
X6685714Y42261905D01*
X6647619Y42185715D01*
X6609523Y42033334D01*
X6609523Y41842858D01*
X6647619Y41690477D01*
X6685714Y41614286D01*
X6723809Y41576191D01*
X6800000Y41538096D01*
X6876190Y41538096D01*
X6952380Y41576191D01*
X6990476Y41614286D01*
X7028571Y41690477D01*
X7066666Y41842858D01*
X7066666Y42033334D01*
X7028571Y42185715D01*
X6990476Y42261905D01*
X6952380Y42300000D01*
X6876190Y42338096D01*
X16395238Y41238096D02*
X16661904Y41619048D01*
X16852380Y41238096D02*
X16852380Y42038096D01*
X16547619Y42038096D01*
X16471428Y42000000D01*
X16433333Y41961905D01*
X16395238Y41885715D01*
X16395238Y41771429D01*
X16433333Y41695239D01*
X16471428Y41657143D01*
X16547619Y41619048D01*
X16852380Y41619048D01*
X16128571Y42038096D02*
X15595238Y42038096D01*
X15938095Y41238096D01*
X15138095Y42038096D02*
X15061904Y42038096D01*
X14985714Y42000000D01*
X14947619Y41961905D01*
X14909523Y41885715D01*
X14871428Y41733334D01*
X14871428Y41542858D01*
X14909523Y41390477D01*
X14947619Y41314286D01*
X14985714Y41276191D01*
X15061904Y41238096D01*
X15138095Y41238096D01*
X15214285Y41276191D01*
X15252380Y41314286D01*
X15290476Y41390477D01*
X15328571Y41542858D01*
X15328571Y41733334D01*
X15290476Y41885715D01*
X15252380Y41961905D01*
X15214285Y42000000D01*
X15138095Y42038096D01*
X14185714Y41771429D02*
X14185714Y41238096D01*
X14376190Y42076191D02*
X14566666Y41504762D01*
X14071428Y41504762D01*
X13114285Y35104762D02*
X13076190Y35066667D01*
X13038095Y34952381D01*
X13038095Y34876191D01*
X13076190Y34761905D01*
X13152380Y34685715D01*
X13228571Y34647620D01*
X13380952Y34609524D01*
X13495238Y34609524D01*
X13647619Y34647620D01*
X13723809Y34685715D01*
X13800000Y34761905D01*
X13838095Y34876191D01*
X13838095Y34952381D01*
X13800000Y35066667D01*
X13761904Y35104762D01*
X13838095Y35371429D02*
X13838095Y35904762D01*
X13038095Y35561905D01*
X13838095Y36361905D02*
X13838095Y36438096D01*
X13800000Y36514286D01*
X13761904Y36552381D01*
X13685714Y36590477D01*
X13533333Y36628572D01*
X13342857Y36628572D01*
X13190476Y36590477D01*
X13114285Y36552381D01*
X13076190Y36514286D01*
X13038095Y36438096D01*
X13038095Y36361905D01*
X13076190Y36285715D01*
X13114285Y36247620D01*
X13190476Y36209524D01*
X13342857Y36171429D01*
X13533333Y36171429D01*
X13685714Y36209524D01*
X13761904Y36247620D01*
X13800000Y36285715D01*
X13838095Y36361905D01*
X13838095Y36895239D02*
X13838095Y37428572D01*
X13038095Y37085715D01*
X11395238Y33614286D02*
X11433333Y33576191D01*
X11547619Y33538096D01*
X11623809Y33538096D01*
X11738095Y33576191D01*
X11814285Y33652381D01*
X11852380Y33728572D01*
X11890476Y33880953D01*
X11890476Y33995239D01*
X11852380Y34147620D01*
X11814285Y34223810D01*
X11738095Y34300000D01*
X11623809Y34338096D01*
X11547619Y34338096D01*
X11433333Y34300000D01*
X11395238Y34261905D01*
X11128571Y34338096D02*
X10595238Y34338096D01*
X10938095Y33538096D01*
X9871428Y33538096D02*
X10328571Y33538096D01*
X10100000Y33538096D02*
X10100000Y34338096D01*
X10176190Y34223810D01*
X10252380Y34147620D01*
X10328571Y34109524D01*
X9376190Y34338096D02*
X9300000Y34338096D01*
X9223809Y34300000D01*
X9185714Y34261905D01*
X9147619Y34185715D01*
X9109523Y34033334D01*
X9109523Y33842858D01*
X9147619Y33690477D01*
X9185714Y33614286D01*
X9223809Y33576191D01*
X9300000Y33538096D01*
X9376190Y33538096D01*
X9452380Y33576191D01*
X9490476Y33614286D01*
X9528571Y33690477D01*
X9566666Y33842858D01*
X9566666Y34033334D01*
X9528571Y34185715D01*
X9490476Y34261905D01*
X9452380Y34300000D01*
X9376190Y34338096D01*
X42785714Y34795239D02*
X42823809Y34833334D01*
X42861904Y34947620D01*
X42861904Y35023810D01*
X42823809Y35138096D01*
X42747619Y35214286D01*
X42671428Y35252381D01*
X42519047Y35290477D01*
X42404761Y35290477D01*
X42252380Y35252381D01*
X42176190Y35214286D01*
X42100000Y35138096D01*
X42061904Y35023810D01*
X42061904Y34947620D01*
X42100000Y34833334D01*
X42138095Y34795239D01*
X42061904Y34528572D02*
X42061904Y33995239D01*
X42861904Y34338096D01*
X42138095Y33728572D02*
X42100000Y33690477D01*
X42061904Y33614286D01*
X42061904Y33423810D01*
X42100000Y33347620D01*
X42138095Y33309524D01*
X42214285Y33271429D01*
X42290476Y33271429D01*
X42404761Y33309524D01*
X42861904Y33766667D01*
X42861904Y33271429D01*
X42138095Y32966667D02*
X42100000Y32928572D01*
X42061904Y32852381D01*
X42061904Y32661905D01*
X42100000Y32585715D01*
X42138095Y32547620D01*
X42214285Y32509524D01*
X42290476Y32509524D01*
X42404761Y32547620D01*
X42861904Y33004762D01*
X42861904Y32509524D01*
X42785714Y38795239D02*
X42823809Y38833334D01*
X42861904Y38947620D01*
X42861904Y39023810D01*
X42823809Y39138096D01*
X42747619Y39214286D01*
X42671428Y39252381D01*
X42519047Y39290477D01*
X42404761Y39290477D01*
X42252380Y39252381D01*
X42176190Y39214286D01*
X42100000Y39138096D01*
X42061904Y39023810D01*
X42061904Y38947620D01*
X42100000Y38833334D01*
X42138095Y38795239D01*
X42061904Y38528572D02*
X42061904Y37995239D01*
X42861904Y38338096D01*
X42138095Y37728572D02*
X42100000Y37690477D01*
X42061904Y37614286D01*
X42061904Y37423810D01*
X42100000Y37347620D01*
X42138095Y37309524D01*
X42214285Y37271429D01*
X42290476Y37271429D01*
X42404761Y37309524D01*
X42861904Y37766667D01*
X42861904Y37271429D01*
X42061904Y37004762D02*
X42061904Y36509524D01*
X42366666Y36776191D01*
X42366666Y36661905D01*
X42404761Y36585715D01*
X42442857Y36547620D01*
X42519047Y36509524D01*
X42709523Y36509524D01*
X42785714Y36547620D01*
X42823809Y36585715D01*
X42861904Y36661905D01*
X42861904Y36890477D01*
X42823809Y36966667D01*
X42785714Y37004762D01*
X42957142Y30919048D02*
X43004761Y30966667D01*
X43052380Y31109524D01*
X43052380Y31204762D01*
X43004761Y31347620D01*
X42909523Y31442858D01*
X42814285Y31490477D01*
X42623809Y31538096D01*
X42480952Y31538096D01*
X42290476Y31490477D01*
X42195238Y31442858D01*
X42100000Y31347620D01*
X42052380Y31204762D01*
X42052380Y31109524D01*
X42100000Y30966667D01*
X42147619Y30919048D01*
X42052380Y30585715D02*
X42052380Y29919048D01*
X43052380Y30347620D01*
X42147619Y29585715D02*
X42100000Y29538096D01*
X42052380Y29442858D01*
X42052380Y29204762D01*
X42100000Y29109524D01*
X42147619Y29061905D01*
X42242857Y29014286D01*
X42338095Y29014286D01*
X42480952Y29061905D01*
X43052380Y29633334D01*
X43052380Y29014286D01*
X43052380Y28061905D02*
X43052380Y28633334D01*
X43052380Y28347620D02*
X42052380Y28347620D01*
X42195238Y28442858D01*
X42290476Y28538096D01*
X42338095Y28633334D01*
X11395238Y29614286D02*
X11433333Y29576191D01*
X11547619Y29538096D01*
X11623809Y29538096D01*
X11738095Y29576191D01*
X11814285Y29652381D01*
X11852380Y29728572D01*
X11890476Y29880953D01*
X11890476Y29995239D01*
X11852380Y30147620D01*
X11814285Y30223810D01*
X11738095Y30300000D01*
X11623809Y30338096D01*
X11547619Y30338096D01*
X11433333Y30300000D01*
X11395238Y30261905D01*
X11128571Y30338096D02*
X10595238Y30338096D01*
X10938095Y29538096D01*
X10138095Y30338096D02*
X10061904Y30338096D01*
X9985714Y30300000D01*
X9947619Y30261905D01*
X9909523Y30185715D01*
X9871428Y30033334D01*
X9871428Y29842858D01*
X9909523Y29690477D01*
X9947619Y29614286D01*
X9985714Y29576191D01*
X10061904Y29538096D01*
X10138095Y29538096D01*
X10214285Y29576191D01*
X10252380Y29614286D01*
X10290476Y29690477D01*
X10328571Y29842858D01*
X10328571Y30033334D01*
X10290476Y30185715D01*
X10252380Y30261905D01*
X10214285Y30300000D01*
X10138095Y30338096D01*
X9490476Y29538096D02*
X9338095Y29538096D01*
X9261904Y29576191D01*
X9223809Y29614286D01*
X9147619Y29728572D01*
X9109523Y29880953D01*
X9109523Y30185715D01*
X9147619Y30261905D01*
X9185714Y30300000D01*
X9261904Y30338096D01*
X9414285Y30338096D01*
X9490476Y30300000D01*
X9528571Y30261905D01*
X9566666Y30185715D01*
X9566666Y29995239D01*
X9528571Y29919048D01*
X9490476Y29880953D01*
X9414285Y29842858D01*
X9261904Y29842858D01*
X9185714Y29880953D01*
X9147619Y29919048D01*
X9109523Y29995239D01*
X13114285Y39104762D02*
X13076190Y39066667D01*
X13038095Y38952381D01*
X13038095Y38876191D01*
X13076190Y38761905D01*
X13152380Y38685715D01*
X13228571Y38647620D01*
X13380952Y38609524D01*
X13495238Y38609524D01*
X13647619Y38647620D01*
X13723809Y38685715D01*
X13800000Y38761905D01*
X13838095Y38876191D01*
X13838095Y38952381D01*
X13800000Y39066667D01*
X13761904Y39104762D01*
X13838095Y39371429D02*
X13838095Y39904762D01*
X13038095Y39561905D01*
X13838095Y40361905D02*
X13838095Y40438096D01*
X13800000Y40514286D01*
X13761904Y40552381D01*
X13685714Y40590477D01*
X13533333Y40628572D01*
X13342857Y40628572D01*
X13190476Y40590477D01*
X13114285Y40552381D01*
X13076190Y40514286D01*
X13038095Y40438096D01*
X13038095Y40361905D01*
X13076190Y40285715D01*
X13114285Y40247620D01*
X13190476Y40209524D01*
X13342857Y40171429D01*
X13533333Y40171429D01*
X13685714Y40209524D01*
X13761904Y40247620D01*
X13800000Y40285715D01*
X13838095Y40361905D01*
X13495238Y41085715D02*
X13533333Y41009524D01*
X13571428Y40971429D01*
X13647619Y40933334D01*
X13685714Y40933334D01*
X13761904Y40971429D01*
X13800000Y41009524D01*
X13838095Y41085715D01*
X13838095Y41238096D01*
X13800000Y41314286D01*
X13761904Y41352381D01*
X13685714Y41390477D01*
X13647619Y41390477D01*
X13571428Y41352381D01*
X13533333Y41314286D01*
X13495238Y41238096D01*
X13495238Y41085715D01*
X13457142Y41009524D01*
X13419047Y40971429D01*
X13342857Y40933334D01*
X13190476Y40933334D01*
X13114285Y40971429D01*
X13076190Y41009524D01*
X13038095Y41085715D01*
X13038095Y41238096D01*
X13076190Y41314286D01*
X13114285Y41352381D01*
X13190476Y41390477D01*
X13342857Y41390477D01*
X13419047Y41352381D01*
X13457142Y41314286D01*
X13495238Y41238096D01*
X42785714Y42795239D02*
X42823809Y42833334D01*
X42861904Y42947620D01*
X42861904Y43023810D01*
X42823809Y43138096D01*
X42747619Y43214286D01*
X42671428Y43252381D01*
X42519047Y43290477D01*
X42404761Y43290477D01*
X42252380Y43252381D01*
X42176190Y43214286D01*
X42100000Y43138096D01*
X42061904Y43023810D01*
X42061904Y42947620D01*
X42100000Y42833334D01*
X42138095Y42795239D01*
X42061904Y42528572D02*
X42061904Y41995239D01*
X42861904Y42338096D01*
X42138095Y41728572D02*
X42100000Y41690477D01*
X42061904Y41614286D01*
X42061904Y41423810D01*
X42100000Y41347620D01*
X42138095Y41309524D01*
X42214285Y41271429D01*
X42290476Y41271429D01*
X42404761Y41309524D01*
X42861904Y41766667D01*
X42861904Y41271429D01*
X42328571Y40585715D02*
X42861904Y40585715D01*
X42023809Y40776191D02*
X42595238Y40966667D01*
X42595238Y40471429D01*
X15361904Y6852381D02*
X14561904Y6852381D01*
X14561904Y6661905D01*
X14600000Y6547620D01*
X14676190Y6471429D01*
X14752380Y6433334D01*
X14904761Y6395239D01*
X15019047Y6395239D01*
X15171428Y6433334D01*
X15247619Y6471429D01*
X15323809Y6547620D01*
X15361904Y6661905D01*
X15361904Y6852381D01*
X14561904Y6128572D02*
X14561904Y5633334D01*
X14866666Y5900000D01*
X14866666Y5785715D01*
X14904761Y5709524D01*
X14942857Y5671429D01*
X15019047Y5633334D01*
X15209523Y5633334D01*
X15285714Y5671429D01*
X15323809Y5709524D01*
X15361904Y5785715D01*
X15361904Y6014286D01*
X15323809Y6090477D01*
X15285714Y6128572D01*
X14561904Y5138096D02*
X14561904Y5061905D01*
X14600000Y4985715D01*
X14638095Y4947620D01*
X14714285Y4909524D01*
X14866666Y4871429D01*
X15057142Y4871429D01*
X15209523Y4909524D01*
X15285714Y4947620D01*
X15323809Y4985715D01*
X15361904Y5061905D01*
X15361904Y5138096D01*
X15323809Y5214286D01*
X15285714Y5252381D01*
X15209523Y5290477D01*
X15057142Y5328572D01*
X14866666Y5328572D01*
X14714285Y5290477D01*
X14638095Y5252381D01*
X14600000Y5214286D01*
X14561904Y5138096D01*
X14561904Y4185715D02*
X14561904Y4338096D01*
X14600000Y4414286D01*
X14638095Y4452381D01*
X14752380Y4528572D01*
X14904761Y4566667D01*
X15209523Y4566667D01*
X15285714Y4528572D01*
X15323809Y4490477D01*
X15361904Y4414286D01*
X15361904Y4261905D01*
X15323809Y4185715D01*
X15285714Y4147620D01*
X15209523Y4109524D01*
X15019047Y4109524D01*
X14942857Y4147620D01*
X14904761Y4185715D01*
X14866666Y4261905D01*
X14866666Y4414286D01*
X14904761Y4490477D01*
X14942857Y4528572D01*
X15019047Y4566667D01*
X16666666Y1738096D02*
X16666666Y1261905D01*
X16952380Y1833334D02*
X15952380Y1500000D01*
X16952380Y1166667D01*
X16952380Y7761905D02*
X15952380Y7761905D01*
X16952380Y7190477D02*
X16380952Y7619048D01*
X15952380Y7190477D02*
X16523809Y7761905D01*
X20961904Y4652381D02*
X20161904Y4652381D01*
X20161904Y4461905D01*
X20200000Y4347620D01*
X20276190Y4271429D01*
X20352380Y4233334D01*
X20504761Y4195239D01*
X20619047Y4195239D01*
X20771428Y4233334D01*
X20847619Y4271429D01*
X20923809Y4347620D01*
X20961904Y4461905D01*
X20961904Y4652381D01*
X20161904Y3928572D02*
X20161904Y3433334D01*
X20466666Y3700000D01*
X20466666Y3585715D01*
X20504761Y3509524D01*
X20542857Y3471429D01*
X20619047Y3433334D01*
X20809523Y3433334D01*
X20885714Y3471429D01*
X20923809Y3509524D01*
X20961904Y3585715D01*
X20961904Y3814286D01*
X20923809Y3890477D01*
X20885714Y3928572D01*
X20161904Y2938096D02*
X20161904Y2861905D01*
X20200000Y2785715D01*
X20238095Y2747620D01*
X20314285Y2709524D01*
X20466666Y2671429D01*
X20657142Y2671429D01*
X20809523Y2709524D01*
X20885714Y2747620D01*
X20923809Y2785715D01*
X20961904Y2861905D01*
X20961904Y2938096D01*
X20923809Y3014286D01*
X20885714Y3052381D01*
X20809523Y3090477D01*
X20657142Y3128572D01*
X20466666Y3128572D01*
X20314285Y3090477D01*
X20238095Y3052381D01*
X20200000Y3014286D01*
X20161904Y2938096D01*
X20428571Y1985715D02*
X20961904Y1985715D01*
X20123809Y2176191D02*
X20695238Y2366667D01*
X20695238Y1871429D01*
X19452380Y1961905D02*
X18452380Y1961905D01*
X19452380Y1390477D02*
X18880952Y1819048D01*
X18452380Y1390477D02*
X19023809Y1961905D01*
X19166666Y7738096D02*
X19166666Y7261905D01*
X19452380Y7833334D02*
X18452380Y7500000D01*
X19452380Y7166667D01*
X32761904Y24895239D02*
X32380952Y25161905D01*
X32761904Y25352381D02*
X31961904Y25352381D01*
X31961904Y25047620D01*
X32000000Y24971429D01*
X32038095Y24933334D01*
X32114285Y24895239D01*
X32228571Y24895239D01*
X32304761Y24933334D01*
X32342857Y24971429D01*
X32380952Y25047620D01*
X32380952Y25352381D01*
X31961904Y24209524D02*
X31961904Y24361905D01*
X32000000Y24438096D01*
X32038095Y24476191D01*
X32152380Y24552381D01*
X32304761Y24590477D01*
X32609523Y24590477D01*
X32685714Y24552381D01*
X32723809Y24514286D01*
X32761904Y24438096D01*
X32761904Y24285715D01*
X32723809Y24209524D01*
X32685714Y24171429D01*
X32609523Y24133334D01*
X32419047Y24133334D01*
X32342857Y24171429D01*
X32304761Y24209524D01*
X32266666Y24285715D01*
X32266666Y24438096D01*
X32304761Y24514286D01*
X32342857Y24552381D01*
X32419047Y24590477D01*
X32761904Y23371429D02*
X32761904Y23828572D01*
X32761904Y23600000D02*
X31961904Y23600000D01*
X32076190Y23676191D01*
X32152380Y23752381D01*
X32190476Y23828572D01*
X31961904Y23104762D02*
X31961904Y22609524D01*
X32266666Y22876191D01*
X32266666Y22761905D01*
X32304761Y22685715D01*
X32342857Y22647620D01*
X32419047Y22609524D01*
X32609523Y22609524D01*
X32685714Y22647620D01*
X32723809Y22685715D01*
X32761904Y22761905D01*
X32761904Y22990477D01*
X32723809Y23066667D01*
X32685714Y23104762D01*
X42752380Y27219048D02*
X42276190Y27552381D01*
X42752380Y27790477D02*
X41752380Y27790477D01*
X41752380Y27409524D01*
X41800000Y27314286D01*
X41847619Y27266667D01*
X41942857Y27219048D01*
X42085714Y27219048D01*
X42180952Y27266667D01*
X42228571Y27314286D01*
X42276190Y27409524D01*
X42276190Y27790477D01*
X41752380Y26361905D02*
X41752380Y26552381D01*
X41800000Y26647620D01*
X41847619Y26695239D01*
X41990476Y26790477D01*
X42180952Y26838096D01*
X42561904Y26838096D01*
X42657142Y26790477D01*
X42704761Y26742858D01*
X42752380Y26647620D01*
X42752380Y26457143D01*
X42704761Y26361905D01*
X42657142Y26314286D01*
X42561904Y26266667D01*
X42323809Y26266667D01*
X42228571Y26314286D01*
X42180952Y26361905D01*
X42133333Y26457143D01*
X42133333Y26647620D01*
X42180952Y26742858D01*
X42228571Y26790477D01*
X42323809Y26838096D01*
X42752380Y25314286D02*
X42752380Y25885715D01*
X42752380Y25600000D02*
X41752380Y25600000D01*
X41895238Y25695239D01*
X41990476Y25790477D01*
X42038095Y25885715D01*
X42085714Y24457143D02*
X42752380Y24457143D01*
X41704761Y24695239D02*
X42419047Y24933334D01*
X42419047Y24314286D01*
X25185714Y24695239D02*
X25223809Y24733334D01*
X25261904Y24847620D01*
X25261904Y24923810D01*
X25223809Y25038096D01*
X25147619Y25114286D01*
X25071428Y25152381D01*
X24919047Y25190477D01*
X24804761Y25190477D01*
X24652380Y25152381D01*
X24576190Y25114286D01*
X24500000Y25038096D01*
X24461904Y24923810D01*
X24461904Y24847620D01*
X24500000Y24733334D01*
X24538095Y24695239D01*
X24461904Y24009524D02*
X24461904Y24161905D01*
X24500000Y24238096D01*
X24538095Y24276191D01*
X24652380Y24352381D01*
X24804761Y24390477D01*
X25109523Y24390477D01*
X25185714Y24352381D01*
X25223809Y24314286D01*
X25261904Y24238096D01*
X25261904Y24085715D01*
X25223809Y24009524D01*
X25185714Y23971429D01*
X25109523Y23933334D01*
X24919047Y23933334D01*
X24842857Y23971429D01*
X24804761Y24009524D01*
X24766666Y24085715D01*
X24766666Y24238096D01*
X24804761Y24314286D01*
X24842857Y24352381D01*
X24919047Y24390477D01*
X24461904Y23438096D02*
X24461904Y23361905D01*
X24500000Y23285715D01*
X24538095Y23247620D01*
X24614285Y23209524D01*
X24766666Y23171429D01*
X24957142Y23171429D01*
X25109523Y23209524D01*
X25185714Y23247620D01*
X25223809Y23285715D01*
X25261904Y23361905D01*
X25261904Y23438096D01*
X25223809Y23514286D01*
X25185714Y23552381D01*
X25109523Y23590477D01*
X24957142Y23628572D01*
X24766666Y23628572D01*
X24614285Y23590477D01*
X24538095Y23552381D01*
X24500000Y23514286D01*
X24461904Y23438096D01*
X25261904Y22790477D02*
X25261904Y22638096D01*
X25223809Y22561905D01*
X25185714Y22523810D01*
X25071428Y22447620D01*
X24919047Y22409524D01*
X24614285Y22409524D01*
X24538095Y22447620D01*
X24500000Y22485715D01*
X24461904Y22561905D01*
X24461904Y22714286D01*
X24500000Y22790477D01*
X24538095Y22828572D01*
X24614285Y22866667D01*
X24804761Y22866667D01*
X24880952Y22828572D01*
X24919047Y22790477D01*
X24957142Y22714286D01*
X24957142Y22561905D01*
X24919047Y22485715D01*
X24880952Y22447620D01*
X24804761Y22409524D01*
X35185714Y21395239D02*
X35223809Y21433334D01*
X35261904Y21547620D01*
X35261904Y21623810D01*
X35223809Y21738096D01*
X35147619Y21814286D01*
X35071428Y21852381D01*
X34919047Y21890477D01*
X34804761Y21890477D01*
X34652380Y21852381D01*
X34576190Y21814286D01*
X34500000Y21738096D01*
X34461904Y21623810D01*
X34461904Y21547620D01*
X34500000Y21433334D01*
X34538095Y21395239D01*
X34461904Y20709524D02*
X34461904Y20861905D01*
X34500000Y20938096D01*
X34538095Y20976191D01*
X34652380Y21052381D01*
X34804761Y21090477D01*
X35109523Y21090477D01*
X35185714Y21052381D01*
X35223809Y21014286D01*
X35261904Y20938096D01*
X35261904Y20785715D01*
X35223809Y20709524D01*
X35185714Y20671429D01*
X35109523Y20633334D01*
X34919047Y20633334D01*
X34842857Y20671429D01*
X34804761Y20709524D01*
X34766666Y20785715D01*
X34766666Y20938096D01*
X34804761Y21014286D01*
X34842857Y21052381D01*
X34919047Y21090477D01*
X35261904Y19871429D02*
X35261904Y20328572D01*
X35261904Y20100000D02*
X34461904Y20100000D01*
X34576190Y20176191D01*
X34652380Y20252381D01*
X34690476Y20328572D01*
X35261904Y19490477D02*
X35261904Y19338096D01*
X35223809Y19261905D01*
X35185714Y19223810D01*
X35071428Y19147620D01*
X34919047Y19109524D01*
X34614285Y19109524D01*
X34538095Y19147620D01*
X34500000Y19185715D01*
X34461904Y19261905D01*
X34461904Y19414286D01*
X34500000Y19490477D01*
X34538095Y19528572D01*
X34614285Y19566667D01*
X34804761Y19566667D01*
X34880952Y19528572D01*
X34919047Y19490477D01*
X34957142Y19414286D01*
X34957142Y19261905D01*
X34919047Y19185715D01*
X34880952Y19147620D01*
X34804761Y19109524D01*
X29395238Y17114286D02*
X29433333Y17076191D01*
X29547619Y17038096D01*
X29623809Y17038096D01*
X29738095Y17076191D01*
X29814285Y17152381D01*
X29852380Y17228572D01*
X29890476Y17380953D01*
X29890476Y17495239D01*
X29852380Y17647620D01*
X29814285Y17723810D01*
X29738095Y17800000D01*
X29623809Y17838096D01*
X29547619Y17838096D01*
X29433333Y17800000D01*
X29395238Y17761905D01*
X28709523Y17838096D02*
X28861904Y17838096D01*
X28938095Y17800000D01*
X28976190Y17761905D01*
X29052380Y17647620D01*
X29090476Y17495239D01*
X29090476Y17190477D01*
X29052380Y17114286D01*
X29014285Y17076191D01*
X28938095Y17038096D01*
X28785714Y17038096D01*
X28709523Y17076191D01*
X28671428Y17114286D01*
X28633333Y17190477D01*
X28633333Y17380953D01*
X28671428Y17457143D01*
X28709523Y17495239D01*
X28785714Y17533334D01*
X28938095Y17533334D01*
X29014285Y17495239D01*
X29052380Y17457143D01*
X29090476Y17380953D01*
X28138095Y17838096D02*
X28061904Y17838096D01*
X27985714Y17800000D01*
X27947619Y17761905D01*
X27909523Y17685715D01*
X27871428Y17533334D01*
X27871428Y17342858D01*
X27909523Y17190477D01*
X27947619Y17114286D01*
X27985714Y17076191D01*
X28061904Y17038096D01*
X28138095Y17038096D01*
X28214285Y17076191D01*
X28252380Y17114286D01*
X28290476Y17190477D01*
X28328571Y17342858D01*
X28328571Y17533334D01*
X28290476Y17685715D01*
X28252380Y17761905D01*
X28214285Y17800000D01*
X28138095Y17838096D01*
X27185714Y17838096D02*
X27338095Y17838096D01*
X27414285Y17800000D01*
X27452380Y17761905D01*
X27528571Y17647620D01*
X27566666Y17495239D01*
X27566666Y17190477D01*
X27528571Y17114286D01*
X27490476Y17076191D01*
X27414285Y17038096D01*
X27261904Y17038096D01*
X27185714Y17076191D01*
X27147619Y17114286D01*
X27109523Y17190477D01*
X27109523Y17380953D01*
X27147619Y17457143D01*
X27185714Y17495239D01*
X27261904Y17533334D01*
X27414285Y17533334D01*
X27490476Y17495239D01*
X27528571Y17457143D01*
X27566666Y17380953D01*
X26895238Y21214286D02*
X26933333Y21176191D01*
X27047619Y21138096D01*
X27123809Y21138096D01*
X27238095Y21176191D01*
X27314285Y21252381D01*
X27352380Y21328572D01*
X27390476Y21480953D01*
X27390476Y21595239D01*
X27352380Y21747620D01*
X27314285Y21823810D01*
X27238095Y21900000D01*
X27123809Y21938096D01*
X27047619Y21938096D01*
X26933333Y21900000D01*
X26895238Y21861905D01*
X26209523Y21938096D02*
X26361904Y21938096D01*
X26438095Y21900000D01*
X26476190Y21861905D01*
X26552380Y21747620D01*
X26590476Y21595239D01*
X26590476Y21290477D01*
X26552380Y21214286D01*
X26514285Y21176191D01*
X26438095Y21138096D01*
X26285714Y21138096D01*
X26209523Y21176191D01*
X26171428Y21214286D01*
X26133333Y21290477D01*
X26133333Y21480953D01*
X26171428Y21557143D01*
X26209523Y21595239D01*
X26285714Y21633334D01*
X26438095Y21633334D01*
X26514285Y21595239D01*
X26552380Y21557143D01*
X26590476Y21480953D01*
X25638095Y21938096D02*
X25561904Y21938096D01*
X25485714Y21900000D01*
X25447619Y21861905D01*
X25409523Y21785715D01*
X25371428Y21633334D01*
X25371428Y21442858D01*
X25409523Y21290477D01*
X25447619Y21214286D01*
X25485714Y21176191D01*
X25561904Y21138096D01*
X25638095Y21138096D01*
X25714285Y21176191D01*
X25752380Y21214286D01*
X25790476Y21290477D01*
X25828571Y21442858D01*
X25828571Y21633334D01*
X25790476Y21785715D01*
X25752380Y21861905D01*
X25714285Y21900000D01*
X25638095Y21938096D01*
X24647619Y21938096D02*
X25028571Y21938096D01*
X25066666Y21557143D01*
X25028571Y21595239D01*
X24952380Y21633334D01*
X24761904Y21633334D01*
X24685714Y21595239D01*
X24647619Y21557143D01*
X24609523Y21480953D01*
X24609523Y21290477D01*
X24647619Y21214286D01*
X24685714Y21176191D01*
X24761904Y21138096D01*
X24952380Y21138096D01*
X25028571Y21176191D01*
X25066666Y21214286D01*
X25785714Y39895239D02*
X25823809Y39933334D01*
X25861904Y40047620D01*
X25861904Y40123810D01*
X25823809Y40238096D01*
X25747619Y40314286D01*
X25671428Y40352381D01*
X25519047Y40390477D01*
X25404761Y40390477D01*
X25252380Y40352381D01*
X25176190Y40314286D01*
X25100000Y40238096D01*
X25061904Y40123810D01*
X25061904Y40047620D01*
X25100000Y39933334D01*
X25138095Y39895239D01*
X25138095Y39590477D02*
X25100000Y39552381D01*
X25061904Y39476191D01*
X25061904Y39285715D01*
X25100000Y39209524D01*
X25138095Y39171429D01*
X25214285Y39133334D01*
X25290476Y39133334D01*
X25404761Y39171429D01*
X25861904Y39628572D01*
X25861904Y39133334D01*
X25138095Y38828572D02*
X25100000Y38790477D01*
X25061904Y38714286D01*
X25061904Y38523810D01*
X25100000Y38447620D01*
X25138095Y38409524D01*
X25214285Y38371429D01*
X25290476Y38371429D01*
X25404761Y38409524D01*
X25861904Y38866667D01*
X25861904Y38371429D01*
X25861904Y37990477D02*
X25861904Y37838096D01*
X25823809Y37761905D01*
X25785714Y37723810D01*
X25671428Y37647620D01*
X25519047Y37609524D01*
X25214285Y37609524D01*
X25138095Y37647620D01*
X25100000Y37685715D01*
X25061904Y37761905D01*
X25061904Y37914286D01*
X25100000Y37990477D01*
X25138095Y38028572D01*
X25214285Y38066667D01*
X25404761Y38066667D01*
X25480952Y38028572D01*
X25519047Y37990477D01*
X25557142Y37914286D01*
X25557142Y37761905D01*
X25519047Y37685715D01*
X25480952Y37647620D01*
X25404761Y37609524D01*
X22885714Y40795239D02*
X22923809Y40833334D01*
X22961904Y40947620D01*
X22961904Y41023810D01*
X22923809Y41138096D01*
X22847619Y41214286D01*
X22771428Y41252381D01*
X22619047Y41290477D01*
X22504761Y41290477D01*
X22352380Y41252381D01*
X22276190Y41214286D01*
X22200000Y41138096D01*
X22161904Y41023810D01*
X22161904Y40947620D01*
X22200000Y40833334D01*
X22238095Y40795239D01*
X22238095Y40490477D02*
X22200000Y40452381D01*
X22161904Y40376191D01*
X22161904Y40185715D01*
X22200000Y40109524D01*
X22238095Y40071429D01*
X22314285Y40033334D01*
X22390476Y40033334D01*
X22504761Y40071429D01*
X22961904Y40528572D01*
X22961904Y40033334D01*
X22238095Y39728572D02*
X22200000Y39690477D01*
X22161904Y39614286D01*
X22161904Y39423810D01*
X22200000Y39347620D01*
X22238095Y39309524D01*
X22314285Y39271429D01*
X22390476Y39271429D01*
X22504761Y39309524D01*
X22961904Y39766667D01*
X22961904Y39271429D01*
X22161904Y39004762D02*
X22161904Y38471429D01*
X22961904Y38814286D01*
X21395238Y40214286D02*
X21433333Y40176191D01*
X21547619Y40138096D01*
X21623809Y40138096D01*
X21738095Y40176191D01*
X21814285Y40252381D01*
X21852380Y40328572D01*
X21890476Y40480953D01*
X21890476Y40595239D01*
X21852380Y40747620D01*
X21814285Y40823810D01*
X21738095Y40900000D01*
X21623809Y40938096D01*
X21547619Y40938096D01*
X21433333Y40900000D01*
X21395238Y40861905D01*
X21090476Y40861905D02*
X21052380Y40900000D01*
X20976190Y40938096D01*
X20785714Y40938096D01*
X20709523Y40900000D01*
X20671428Y40861905D01*
X20633333Y40785715D01*
X20633333Y40709524D01*
X20671428Y40595239D01*
X21128571Y40138096D01*
X20633333Y40138096D01*
X20328571Y40861905D02*
X20290476Y40900000D01*
X20214285Y40938096D01*
X20023809Y40938096D01*
X19947619Y40900000D01*
X19909523Y40861905D01*
X19871428Y40785715D01*
X19871428Y40709524D01*
X19909523Y40595239D01*
X20366666Y40138096D01*
X19871428Y40138096D01*
X19147619Y40938096D02*
X19528571Y40938096D01*
X19566666Y40557143D01*
X19528571Y40595239D01*
X19452380Y40633334D01*
X19261904Y40633334D01*
X19185714Y40595239D01*
X19147619Y40557143D01*
X19109523Y40480953D01*
X19109523Y40290477D01*
X19147619Y40214286D01*
X19185714Y40176191D01*
X19261904Y40138096D01*
X19452380Y40138096D01*
X19528571Y40176191D01*
X19566666Y40214286D01*
X7785714Y22495239D02*
X7823809Y22533334D01*
X7861904Y22647620D01*
X7861904Y22723810D01*
X7823809Y22838096D01*
X7747619Y22914286D01*
X7671428Y22952381D01*
X7519047Y22990477D01*
X7404761Y22990477D01*
X7252380Y22952381D01*
X7176190Y22914286D01*
X7100000Y22838096D01*
X7061904Y22723810D01*
X7061904Y22647620D01*
X7100000Y22533334D01*
X7138095Y22495239D01*
X7138095Y22190477D02*
X7100000Y22152381D01*
X7061904Y22076191D01*
X7061904Y21885715D01*
X7100000Y21809524D01*
X7138095Y21771429D01*
X7214285Y21733334D01*
X7290476Y21733334D01*
X7404761Y21771429D01*
X7861904Y22228572D01*
X7861904Y21733334D01*
X7138095Y21428572D02*
X7100000Y21390477D01*
X7061904Y21314286D01*
X7061904Y21123810D01*
X7100000Y21047620D01*
X7138095Y21009524D01*
X7214285Y20971429D01*
X7290476Y20971429D01*
X7404761Y21009524D01*
X7861904Y21466667D01*
X7861904Y20971429D01*
X7328571Y20285715D02*
X7861904Y20285715D01*
X7023809Y20476191D02*
X7595238Y20666667D01*
X7595238Y20171429D01*
X37685714Y21395239D02*
X37723809Y21433334D01*
X37761904Y21547620D01*
X37761904Y21623810D01*
X37723809Y21738096D01*
X37647619Y21814286D01*
X37571428Y21852381D01*
X37419047Y21890477D01*
X37304761Y21890477D01*
X37152380Y21852381D01*
X37076190Y21814286D01*
X37000000Y21738096D01*
X36961904Y21623810D01*
X36961904Y21547620D01*
X37000000Y21433334D01*
X37038095Y21395239D01*
X36961904Y20709524D02*
X36961904Y20861905D01*
X37000000Y20938096D01*
X37038095Y20976191D01*
X37152380Y21052381D01*
X37304761Y21090477D01*
X37609523Y21090477D01*
X37685714Y21052381D01*
X37723809Y21014286D01*
X37761904Y20938096D01*
X37761904Y20785715D01*
X37723809Y20709524D01*
X37685714Y20671429D01*
X37609523Y20633334D01*
X37419047Y20633334D01*
X37342857Y20671429D01*
X37304761Y20709524D01*
X37266666Y20785715D01*
X37266666Y20938096D01*
X37304761Y21014286D01*
X37342857Y21052381D01*
X37419047Y21090477D01*
X37038095Y20328572D02*
X37000000Y20290477D01*
X36961904Y20214286D01*
X36961904Y20023810D01*
X37000000Y19947620D01*
X37038095Y19909524D01*
X37114285Y19871429D01*
X37190476Y19871429D01*
X37304761Y19909524D01*
X37761904Y20366667D01*
X37761904Y19871429D01*
X36961904Y19376191D02*
X36961904Y19300000D01*
X37000000Y19223810D01*
X37038095Y19185715D01*
X37114285Y19147620D01*
X37266666Y19109524D01*
X37457142Y19109524D01*
X37609523Y19147620D01*
X37685714Y19185715D01*
X37723809Y19223810D01*
X37761904Y19300000D01*
X37761904Y19376191D01*
X37723809Y19452381D01*
X37685714Y19490477D01*
X37609523Y19528572D01*
X37457142Y19566667D01*
X37266666Y19566667D01*
X37114285Y19528572D01*
X37038095Y19490477D01*
X37000000Y19452381D01*
X36961904Y19376191D01*
X14395238Y21538096D02*
X14661904Y21919048D01*
X14852380Y21538096D02*
X14852380Y22338096D01*
X14547619Y22338096D01*
X14471428Y22300000D01*
X14433333Y22261905D01*
X14395238Y22185715D01*
X14395238Y22071429D01*
X14433333Y21995239D01*
X14471428Y21957143D01*
X14547619Y21919048D01*
X14852380Y21919048D01*
X13709523Y22338096D02*
X13861904Y22338096D01*
X13938095Y22300000D01*
X13976190Y22261905D01*
X14052380Y22147620D01*
X14090476Y21995239D01*
X14090476Y21690477D01*
X14052380Y21614286D01*
X14014285Y21576191D01*
X13938095Y21538096D01*
X13785714Y21538096D01*
X13709523Y21576191D01*
X13671428Y21614286D01*
X13633333Y21690477D01*
X13633333Y21880953D01*
X13671428Y21957143D01*
X13709523Y21995239D01*
X13785714Y22033334D01*
X13938095Y22033334D01*
X14014285Y21995239D01*
X14052380Y21957143D01*
X14090476Y21880953D01*
X12871428Y21538096D02*
X13328571Y21538096D01*
X13100000Y21538096D02*
X13100000Y22338096D01*
X13176190Y22223810D01*
X13252380Y22147620D01*
X13328571Y22109524D01*
X12147619Y22338096D02*
X12528571Y22338096D01*
X12566666Y21957143D01*
X12528571Y21995239D01*
X12452380Y22033334D01*
X12261904Y22033334D01*
X12185714Y21995239D01*
X12147619Y21957143D01*
X12109523Y21880953D01*
X12109523Y21690477D01*
X12147619Y21614286D01*
X12185714Y21576191D01*
X12261904Y21538096D01*
X12452380Y21538096D01*
X12528571Y21576191D01*
X12566666Y21614286D01*
X22461904Y24795239D02*
X22080952Y25061905D01*
X22461904Y25252381D02*
X21661904Y25252381D01*
X21661904Y24947620D01*
X21700000Y24871429D01*
X21738095Y24833334D01*
X21814285Y24795239D01*
X21928571Y24795239D01*
X22004761Y24833334D01*
X22042857Y24871429D01*
X22080952Y24947620D01*
X22080952Y25252381D01*
X21661904Y24109524D02*
X21661904Y24261905D01*
X21700000Y24338096D01*
X21738095Y24376191D01*
X21852380Y24452381D01*
X22004761Y24490477D01*
X22309523Y24490477D01*
X22385714Y24452381D01*
X22423809Y24414286D01*
X22461904Y24338096D01*
X22461904Y24185715D01*
X22423809Y24109524D01*
X22385714Y24071429D01*
X22309523Y24033334D01*
X22119047Y24033334D01*
X22042857Y24071429D01*
X22004761Y24109524D01*
X21966666Y24185715D01*
X21966666Y24338096D01*
X22004761Y24414286D01*
X22042857Y24452381D01*
X22119047Y24490477D01*
X22461904Y23271429D02*
X22461904Y23728572D01*
X22461904Y23500000D02*
X21661904Y23500000D01*
X21776190Y23576191D01*
X21852380Y23652381D01*
X21890476Y23728572D01*
X21661904Y22585715D02*
X21661904Y22738096D01*
X21700000Y22814286D01*
X21738095Y22852381D01*
X21852380Y22928572D01*
X22004761Y22966667D01*
X22309523Y22966667D01*
X22385714Y22928572D01*
X22423809Y22890477D01*
X22461904Y22814286D01*
X22461904Y22661905D01*
X22423809Y22585715D01*
X22385714Y22547620D01*
X22309523Y22509524D01*
X22119047Y22509524D01*
X22042857Y22547620D01*
X22004761Y22585715D01*
X21966666Y22661905D01*
X21966666Y22814286D01*
X22004761Y22890477D01*
X22042857Y22928572D01*
X22119047Y22966667D01*
X32682380Y20619048D02*
X32206190Y20952381D01*
X32682380Y21190477D02*
X31682380Y21190477D01*
X31682380Y20809524D01*
X31730000Y20714286D01*
X31777619Y20666667D01*
X31872857Y20619048D01*
X32015714Y20619048D01*
X32110952Y20666667D01*
X32158571Y20714286D01*
X32206190Y20809524D01*
X32206190Y21190477D01*
X31682380Y19761905D02*
X31682380Y19952381D01*
X31730000Y20047620D01*
X31777619Y20095239D01*
X31920476Y20190477D01*
X32110952Y20238096D01*
X32491904Y20238096D01*
X32587142Y20190477D01*
X32634761Y20142858D01*
X32682380Y20047620D01*
X32682380Y19857143D01*
X32634761Y19761905D01*
X32587142Y19714286D01*
X32491904Y19666667D01*
X32253809Y19666667D01*
X32158571Y19714286D01*
X32110952Y19761905D01*
X32063333Y19857143D01*
X32063333Y20047620D01*
X32110952Y20142858D01*
X32158571Y20190477D01*
X32253809Y20238096D01*
X31682380Y19047620D02*
X31682380Y18952381D01*
X31730000Y18857143D01*
X31777619Y18809524D01*
X31872857Y18761905D01*
X32063333Y18714286D01*
X32301428Y18714286D01*
X32491904Y18761905D01*
X32587142Y18809524D01*
X32634761Y18857143D01*
X32682380Y18952381D01*
X32682380Y19047620D01*
X32634761Y19142858D01*
X32587142Y19190477D01*
X32491904Y19238096D01*
X32301428Y19285715D01*
X32063333Y19285715D01*
X31872857Y19238096D01*
X31777619Y19190477D01*
X31730000Y19142858D01*
X31682380Y19047620D01*
X32682380Y18238096D02*
X32682380Y18047620D01*
X32634761Y17952381D01*
X32587142Y17904762D01*
X32444285Y17809524D01*
X32253809Y17761905D01*
X31872857Y17761905D01*
X31777619Y17809524D01*
X31730000Y17857143D01*
X31682380Y17952381D01*
X31682380Y18142858D01*
X31730000Y18238096D01*
X31777619Y18285715D01*
X31872857Y18333334D01*
X32110952Y18333334D01*
X32206190Y18285715D01*
X32253809Y18238096D01*
X32301428Y18142858D01*
X32301428Y17952381D01*
X32253809Y17857143D01*
X32206190Y17809524D01*
X32110952Y17761905D01*
X40261904Y20395239D02*
X39880952Y20661905D01*
X40261904Y20852381D02*
X39461904Y20852381D01*
X39461904Y20547620D01*
X39500000Y20471429D01*
X39538095Y20433334D01*
X39614285Y20395239D01*
X39728571Y20395239D01*
X39804761Y20433334D01*
X39842857Y20471429D01*
X39880952Y20547620D01*
X39880952Y20852381D01*
X39461904Y19709524D02*
X39461904Y19861905D01*
X39500000Y19938096D01*
X39538095Y19976191D01*
X39652380Y20052381D01*
X39804761Y20090477D01*
X40109523Y20090477D01*
X40185714Y20052381D01*
X40223809Y20014286D01*
X40261904Y19938096D01*
X40261904Y19785715D01*
X40223809Y19709524D01*
X40185714Y19671429D01*
X40109523Y19633334D01*
X39919047Y19633334D01*
X39842857Y19671429D01*
X39804761Y19709524D01*
X39766666Y19785715D01*
X39766666Y19938096D01*
X39804761Y20014286D01*
X39842857Y20052381D01*
X39919047Y20090477D01*
X40261904Y18871429D02*
X40261904Y19328572D01*
X40261904Y19100000D02*
X39461904Y19100000D01*
X39576190Y19176191D01*
X39652380Y19252381D01*
X39690476Y19328572D01*
X39461904Y18376191D02*
X39461904Y18300000D01*
X39500000Y18223810D01*
X39538095Y18185715D01*
X39614285Y18147620D01*
X39766666Y18109524D01*
X39957142Y18109524D01*
X40109523Y18147620D01*
X40185714Y18185715D01*
X40223809Y18223810D01*
X40261904Y18300000D01*
X40261904Y18376191D01*
X40223809Y18452381D01*
X40185714Y18490477D01*
X40109523Y18528572D01*
X39957142Y18566667D01*
X39766666Y18566667D01*
X39614285Y18528572D01*
X39538095Y18490477D01*
X39500000Y18452381D01*
X39461904Y18376191D01*
X22411904Y47895239D02*
X22030952Y48161905D01*
X22411904Y48352381D02*
X21611904Y48352381D01*
X21611904Y48047620D01*
X21650000Y47971429D01*
X21688095Y47933334D01*
X21764285Y47895239D01*
X21878571Y47895239D01*
X21954761Y47933334D01*
X21992857Y47971429D01*
X22030952Y48047620D01*
X22030952Y48352381D01*
X21878571Y47209524D02*
X22411904Y47209524D01*
X21573809Y47400000D02*
X22145238Y47590477D01*
X22145238Y47095239D01*
X21611904Y46638096D02*
X21611904Y46561905D01*
X21650000Y46485715D01*
X21688095Y46447620D01*
X21764285Y46409524D01*
X21916666Y46371429D01*
X22107142Y46371429D01*
X22259523Y46409524D01*
X22335714Y46447620D01*
X22373809Y46485715D01*
X22411904Y46561905D01*
X22411904Y46638096D01*
X22373809Y46714286D01*
X22335714Y46752381D01*
X22259523Y46790477D01*
X22107142Y46828572D01*
X21916666Y46828572D01*
X21764285Y46790477D01*
X21688095Y46752381D01*
X21650000Y46714286D01*
X21611904Y46638096D01*
X22411904Y45609524D02*
X22411904Y46066667D01*
X22411904Y45838096D02*
X21611904Y45838096D01*
X21726190Y45914286D01*
X21802380Y45990477D01*
X21840476Y46066667D01*
X5595238Y22338096D02*
X5976190Y22338096D01*
X5976190Y23138096D01*
X5366666Y23061905D02*
X5328571Y23100000D01*
X5252380Y23138096D01*
X5061904Y23138096D01*
X4985714Y23100000D01*
X4947619Y23061905D01*
X4909523Y22985715D01*
X4909523Y22909524D01*
X4947619Y22795239D01*
X5404761Y22338096D01*
X4909523Y22338096D01*
X4414285Y23138096D02*
X4338095Y23138096D01*
X4261904Y23100000D01*
X4223809Y23061905D01*
X4185714Y22985715D01*
X4147619Y22833334D01*
X4147619Y22642858D01*
X4185714Y22490477D01*
X4223809Y22414286D01*
X4261904Y22376191D01*
X4338095Y22338096D01*
X4414285Y22338096D01*
X4490476Y22376191D01*
X4528571Y22414286D01*
X4566666Y22490477D01*
X4604761Y22642858D01*
X4604761Y22833334D01*
X4566666Y22985715D01*
X4528571Y23061905D01*
X4490476Y23100000D01*
X4414285Y23138096D01*
X3842857Y23061905D02*
X3804761Y23100000D01*
X3728571Y23138096D01*
X3538095Y23138096D01*
X3461904Y23100000D01*
X3423809Y23061905D01*
X3385714Y22985715D01*
X3385714Y22909524D01*
X3423809Y22795239D01*
X3880952Y22338096D01*
X3385714Y22338096D01*
X23395238Y10314286D02*
X23433333Y10276191D01*
X23547619Y10238096D01*
X23623809Y10238096D01*
X23738095Y10276191D01*
X23814285Y10352381D01*
X23852380Y10428572D01*
X23890476Y10580953D01*
X23890476Y10695239D01*
X23852380Y10847620D01*
X23814285Y10923810D01*
X23738095Y11000000D01*
X23623809Y11038096D01*
X23547619Y11038096D01*
X23433333Y11000000D01*
X23395238Y10961905D01*
X23090476Y10961905D02*
X23052380Y11000000D01*
X22976190Y11038096D01*
X22785714Y11038096D01*
X22709523Y11000000D01*
X22671428Y10961905D01*
X22633333Y10885715D01*
X22633333Y10809524D01*
X22671428Y10695239D01*
X23128571Y10238096D01*
X22633333Y10238096D01*
X22138095Y11038096D02*
X22061904Y11038096D01*
X21985714Y11000000D01*
X21947619Y10961905D01*
X21909523Y10885715D01*
X21871428Y10733334D01*
X21871428Y10542858D01*
X21909523Y10390477D01*
X21947619Y10314286D01*
X21985714Y10276191D01*
X22061904Y10238096D01*
X22138095Y10238096D01*
X22214285Y10276191D01*
X22252380Y10314286D01*
X22290476Y10390477D01*
X22328571Y10542858D01*
X22328571Y10733334D01*
X22290476Y10885715D01*
X22252380Y10961905D01*
X22214285Y11000000D01*
X22138095Y11038096D01*
X21109523Y10238096D02*
X21566666Y10238096D01*
X21338095Y10238096D02*
X21338095Y11038096D01*
X21414285Y10923810D01*
X21490476Y10847620D01*
X21566666Y10809524D01*
X25152380Y20219048D02*
X24676190Y20552381D01*
X25152380Y20790477D02*
X24152380Y20790477D01*
X24152380Y20409524D01*
X24200000Y20314286D01*
X24247619Y20266667D01*
X24342857Y20219048D01*
X24485714Y20219048D01*
X24580952Y20266667D01*
X24628571Y20314286D01*
X24676190Y20409524D01*
X24676190Y20790477D01*
X24152380Y19361905D02*
X24152380Y19552381D01*
X24200000Y19647620D01*
X24247619Y19695239D01*
X24390476Y19790477D01*
X24580952Y19838096D01*
X24961904Y19838096D01*
X25057142Y19790477D01*
X25104761Y19742858D01*
X25152380Y19647620D01*
X25152380Y19457143D01*
X25104761Y19361905D01*
X25057142Y19314286D01*
X24961904Y19266667D01*
X24723809Y19266667D01*
X24628571Y19314286D01*
X24580952Y19361905D01*
X24533333Y19457143D01*
X24533333Y19647620D01*
X24580952Y19742858D01*
X24628571Y19790477D01*
X24723809Y19838096D01*
X24152380Y18647620D02*
X24152380Y18552381D01*
X24200000Y18457143D01*
X24247619Y18409524D01*
X24342857Y18361905D01*
X24533333Y18314286D01*
X24771428Y18314286D01*
X24961904Y18361905D01*
X25057142Y18409524D01*
X25104761Y18457143D01*
X25152380Y18552381D01*
X25152380Y18647620D01*
X25104761Y18742858D01*
X25057142Y18790477D01*
X24961904Y18838096D01*
X24771428Y18885715D01*
X24533333Y18885715D01*
X24342857Y18838096D01*
X24247619Y18790477D01*
X24200000Y18742858D01*
X24152380Y18647620D01*
X25152380Y17361905D02*
X25152380Y17933334D01*
X25152380Y17647620D02*
X24152380Y17647620D01*
X24295238Y17742858D01*
X24390476Y17838096D01*
X24438095Y17933334D01*
X24495238Y25638096D02*
X24761904Y26019048D01*
X24952380Y25638096D02*
X24952380Y26438096D01*
X24647619Y26438096D01*
X24571428Y26400000D01*
X24533333Y26361905D01*
X24495238Y26285715D01*
X24495238Y26171429D01*
X24533333Y26095239D01*
X24571428Y26057143D01*
X24647619Y26019048D01*
X24952380Y26019048D01*
X23809523Y26438096D02*
X23961904Y26438096D01*
X24038095Y26400000D01*
X24076190Y26361905D01*
X24152380Y26247620D01*
X24190476Y26095239D01*
X24190476Y25790477D01*
X24152380Y25714286D01*
X24114285Y25676191D01*
X24038095Y25638096D01*
X23885714Y25638096D01*
X23809523Y25676191D01*
X23771428Y25714286D01*
X23733333Y25790477D01*
X23733333Y25980953D01*
X23771428Y26057143D01*
X23809523Y26095239D01*
X23885714Y26133334D01*
X24038095Y26133334D01*
X24114285Y26095239D01*
X24152380Y26057143D01*
X24190476Y25980953D01*
X23238095Y26438096D02*
X23161904Y26438096D01*
X23085714Y26400000D01*
X23047619Y26361905D01*
X23009523Y26285715D01*
X22971428Y26133334D01*
X22971428Y25942858D01*
X23009523Y25790477D01*
X23047619Y25714286D01*
X23085714Y25676191D01*
X23161904Y25638096D01*
X23238095Y25638096D01*
X23314285Y25676191D01*
X23352380Y25714286D01*
X23390476Y25790477D01*
X23428571Y25942858D01*
X23428571Y26133334D01*
X23390476Y26285715D01*
X23352380Y26361905D01*
X23314285Y26400000D01*
X23238095Y26438096D01*
X22247619Y26438096D02*
X22628571Y26438096D01*
X22666666Y26057143D01*
X22628571Y26095239D01*
X22552380Y26133334D01*
X22361904Y26133334D01*
X22285714Y26095239D01*
X22247619Y26057143D01*
X22209523Y25980953D01*
X22209523Y25790477D01*
X22247619Y25714286D01*
X22285714Y25676191D01*
X22361904Y25638096D01*
X22552380Y25638096D01*
X22628571Y25676191D01*
X22666666Y25714286D01*
X12095238Y13114286D02*
X12133333Y13076191D01*
X12247619Y13038096D01*
X12323809Y13038096D01*
X12438095Y13076191D01*
X12514285Y13152381D01*
X12552380Y13228572D01*
X12590476Y13380953D01*
X12590476Y13495239D01*
X12552380Y13647620D01*
X12514285Y13723810D01*
X12438095Y13800000D01*
X12323809Y13838096D01*
X12247619Y13838096D01*
X12133333Y13800000D01*
X12095238Y13761905D01*
X11828571Y13838096D02*
X11333333Y13838096D01*
X11600000Y13533334D01*
X11485714Y13533334D01*
X11409523Y13495239D01*
X11371428Y13457143D01*
X11333333Y13380953D01*
X11333333Y13190477D01*
X11371428Y13114286D01*
X11409523Y13076191D01*
X11485714Y13038096D01*
X11714285Y13038096D01*
X11790476Y13076191D01*
X11828571Y13114286D01*
X10838095Y13838096D02*
X10761904Y13838096D01*
X10685714Y13800000D01*
X10647619Y13761905D01*
X10609523Y13685715D01*
X10571428Y13533334D01*
X10571428Y13342858D01*
X10609523Y13190477D01*
X10647619Y13114286D01*
X10685714Y13076191D01*
X10761904Y13038096D01*
X10838095Y13038096D01*
X10914285Y13076191D01*
X10952380Y13114286D01*
X10990476Y13190477D01*
X11028571Y13342858D01*
X11028571Y13533334D01*
X10990476Y13685715D01*
X10952380Y13761905D01*
X10914285Y13800000D01*
X10838095Y13838096D01*
X9809523Y13038096D02*
X10266666Y13038096D01*
X10038095Y13038096D02*
X10038095Y13838096D01*
X10114285Y13723810D01*
X10190476Y13647620D01*
X10266666Y13609524D01*
X4895238Y12038096D02*
X5161904Y12419048D01*
X5352380Y12038096D02*
X5352380Y12838096D01*
X5047619Y12838096D01*
X4971428Y12800000D01*
X4933333Y12761905D01*
X4895238Y12685715D01*
X4895238Y12571429D01*
X4933333Y12495239D01*
X4971428Y12457143D01*
X5047619Y12419048D01*
X5352380Y12419048D01*
X4628571Y12838096D02*
X4133333Y12838096D01*
X4400000Y12533334D01*
X4285714Y12533334D01*
X4209523Y12495239D01*
X4171428Y12457143D01*
X4133333Y12380953D01*
X4133333Y12190477D01*
X4171428Y12114286D01*
X4209523Y12076191D01*
X4285714Y12038096D01*
X4514285Y12038096D01*
X4590476Y12076191D01*
X4628571Y12114286D01*
X3638095Y12838096D02*
X3561904Y12838096D01*
X3485714Y12800000D01*
X3447619Y12761905D01*
X3409523Y12685715D01*
X3371428Y12533334D01*
X3371428Y12342858D01*
X3409523Y12190477D01*
X3447619Y12114286D01*
X3485714Y12076191D01*
X3561904Y12038096D01*
X3638095Y12038096D01*
X3714285Y12076191D01*
X3752380Y12114286D01*
X3790476Y12190477D01*
X3828571Y12342858D01*
X3828571Y12533334D01*
X3790476Y12685715D01*
X3752380Y12761905D01*
X3714285Y12800000D01*
X3638095Y12838096D01*
X2609523Y12038096D02*
X3066666Y12038096D01*
X2838095Y12038096D02*
X2838095Y12838096D01*
X2914285Y12723810D01*
X2990476Y12647620D01*
X3066666Y12609524D01*
X23895238Y5614286D02*
X23933333Y5576191D01*
X24047619Y5538096D01*
X24123809Y5538096D01*
X24238095Y5576191D01*
X24314285Y5652381D01*
X24352380Y5728572D01*
X24390476Y5880953D01*
X24390476Y5995239D01*
X24352380Y6147620D01*
X24314285Y6223810D01*
X24238095Y6300000D01*
X24123809Y6338096D01*
X24047619Y6338096D01*
X23933333Y6300000D01*
X23895238Y6261905D01*
X23590476Y6261905D02*
X23552380Y6300000D01*
X23476190Y6338096D01*
X23285714Y6338096D01*
X23209523Y6300000D01*
X23171428Y6261905D01*
X23133333Y6185715D01*
X23133333Y6109524D01*
X23171428Y5995239D01*
X23628571Y5538096D01*
X23133333Y5538096D01*
X22638095Y6338096D02*
X22561904Y6338096D01*
X22485714Y6300000D01*
X22447619Y6261905D01*
X22409523Y6185715D01*
X22371428Y6033334D01*
X22371428Y5842858D01*
X22409523Y5690477D01*
X22447619Y5614286D01*
X22485714Y5576191D01*
X22561904Y5538096D01*
X22638095Y5538096D01*
X22714285Y5576191D01*
X22752380Y5614286D01*
X22790476Y5690477D01*
X22828571Y5842858D01*
X22828571Y6033334D01*
X22790476Y6185715D01*
X22752380Y6261905D01*
X22714285Y6300000D01*
X22638095Y6338096D01*
X21685714Y6071429D02*
X21685714Y5538096D01*
X21876190Y6376191D02*
X22066666Y5804762D01*
X21571428Y5804762D01*
X24411904Y47795239D02*
X24030952Y48061905D01*
X24411904Y48252381D02*
X23611904Y48252381D01*
X23611904Y47947620D01*
X23650000Y47871429D01*
X23688095Y47833334D01*
X23764285Y47795239D01*
X23878571Y47795239D01*
X23954761Y47833334D01*
X23992857Y47871429D01*
X24030952Y47947620D01*
X24030952Y48252381D01*
X23878571Y47109524D02*
X24411904Y47109524D01*
X23573809Y47300000D02*
X24145238Y47490477D01*
X24145238Y46995239D01*
X23611904Y46538096D02*
X23611904Y46461905D01*
X23650000Y46385715D01*
X23688095Y46347620D01*
X23764285Y46309524D01*
X23916666Y46271429D01*
X24107142Y46271429D01*
X24259523Y46309524D01*
X24335714Y46347620D01*
X24373809Y46385715D01*
X24411904Y46461905D01*
X24411904Y46538096D01*
X24373809Y46614286D01*
X24335714Y46652381D01*
X24259523Y46690477D01*
X24107142Y46728572D01*
X23916666Y46728572D01*
X23764285Y46690477D01*
X23688095Y46652381D01*
X23650000Y46614286D01*
X23611904Y46538096D01*
X23611904Y45585715D02*
X23611904Y45738096D01*
X23650000Y45814286D01*
X23688095Y45852381D01*
X23802380Y45928572D01*
X23954761Y45966667D01*
X24259523Y45966667D01*
X24335714Y45928572D01*
X24373809Y45890477D01*
X24411904Y45814286D01*
X24411904Y45661905D01*
X24373809Y45585715D01*
X24335714Y45547620D01*
X24259523Y45509524D01*
X24069047Y45509524D01*
X23992857Y45547620D01*
X23954761Y45585715D01*
X23916666Y45661905D01*
X23916666Y45814286D01*
X23954761Y45890477D01*
X23992857Y45928572D01*
X24069047Y45966667D01*
X26411904Y47895239D02*
X26030952Y48161905D01*
X26411904Y48352381D02*
X25611904Y48352381D01*
X25611904Y48047620D01*
X25650000Y47971429D01*
X25688095Y47933334D01*
X25764285Y47895239D01*
X25878571Y47895239D01*
X25954761Y47933334D01*
X25992857Y47971429D01*
X26030952Y48047620D01*
X26030952Y48352381D01*
X25878571Y47209524D02*
X26411904Y47209524D01*
X25573809Y47400000D02*
X26145238Y47590477D01*
X26145238Y47095239D01*
X25611904Y46638096D02*
X25611904Y46561905D01*
X25650000Y46485715D01*
X25688095Y46447620D01*
X25764285Y46409524D01*
X25916666Y46371429D01*
X26107142Y46371429D01*
X26259523Y46409524D01*
X26335714Y46447620D01*
X26373809Y46485715D01*
X26411904Y46561905D01*
X26411904Y46638096D01*
X26373809Y46714286D01*
X26335714Y46752381D01*
X26259523Y46790477D01*
X26107142Y46828572D01*
X25916666Y46828572D01*
X25764285Y46790477D01*
X25688095Y46752381D01*
X25650000Y46714286D01*
X25611904Y46638096D01*
X25611904Y46104762D02*
X25611904Y45571429D01*
X26411904Y45914286D01*
X29295238Y48738096D02*
X29561904Y49119048D01*
X29752380Y48738096D02*
X29752380Y49538096D01*
X29447619Y49538096D01*
X29371428Y49500000D01*
X29333333Y49461905D01*
X29295238Y49385715D01*
X29295238Y49271429D01*
X29333333Y49195239D01*
X29371428Y49157143D01*
X29447619Y49119048D01*
X29752380Y49119048D01*
X28609523Y49271429D02*
X28609523Y48738096D01*
X28800000Y49576191D02*
X28990476Y49004762D01*
X28495238Y49004762D01*
X27771428Y48738096D02*
X28228571Y48738096D01*
X28000000Y48738096D02*
X28000000Y49538096D01*
X28076190Y49423810D01*
X28152380Y49347620D01*
X28228571Y49309524D01*
X27276190Y49538096D02*
X27200000Y49538096D01*
X27123809Y49500000D01*
X27085714Y49461905D01*
X27047619Y49385715D01*
X27009523Y49233334D01*
X27009523Y49042858D01*
X27047619Y48890477D01*
X27085714Y48814286D01*
X27123809Y48776191D01*
X27200000Y48738096D01*
X27276190Y48738096D01*
X27352380Y48776191D01*
X27390476Y48814286D01*
X27428571Y48890477D01*
X27466666Y49042858D01*
X27466666Y49233334D01*
X27428571Y49385715D01*
X27390476Y49461905D01*
X27352380Y49500000D01*
X27276190Y49538096D01*
X21961904Y44795239D02*
X21580952Y45061905D01*
X21961904Y45252381D02*
X21161904Y45252381D01*
X21161904Y44947620D01*
X21200000Y44871429D01*
X21238095Y44833334D01*
X21314285Y44795239D01*
X21428571Y44795239D01*
X21504761Y44833334D01*
X21542857Y44871429D01*
X21580952Y44947620D01*
X21580952Y45252381D01*
X21428571Y44109524D02*
X21961904Y44109524D01*
X21123809Y44300000D02*
X21695238Y44490477D01*
X21695238Y43995239D01*
X21161904Y43538096D02*
X21161904Y43461905D01*
X21200000Y43385715D01*
X21238095Y43347620D01*
X21314285Y43309524D01*
X21466666Y43271429D01*
X21657142Y43271429D01*
X21809523Y43309524D01*
X21885714Y43347620D01*
X21923809Y43385715D01*
X21961904Y43461905D01*
X21961904Y43538096D01*
X21923809Y43614286D01*
X21885714Y43652381D01*
X21809523Y43690477D01*
X21657142Y43728572D01*
X21466666Y43728572D01*
X21314285Y43690477D01*
X21238095Y43652381D01*
X21200000Y43614286D01*
X21161904Y43538096D01*
X21238095Y42966667D02*
X21200000Y42928572D01*
X21161904Y42852381D01*
X21161904Y42661905D01*
X21200000Y42585715D01*
X21238095Y42547620D01*
X21314285Y42509524D01*
X21390476Y42509524D01*
X21504761Y42547620D01*
X21961904Y43004762D01*
X21961904Y42509524D01*
X27461904Y31895239D02*
X27080952Y32161905D01*
X27461904Y32352381D02*
X26661904Y32352381D01*
X26661904Y32047620D01*
X26700000Y31971429D01*
X26738095Y31933334D01*
X26814285Y31895239D01*
X26928571Y31895239D01*
X27004761Y31933334D01*
X27042857Y31971429D01*
X27080952Y32047620D01*
X27080952Y32352381D01*
X26738095Y31590477D02*
X26700000Y31552381D01*
X26661904Y31476191D01*
X26661904Y31285715D01*
X26700000Y31209524D01*
X26738095Y31171429D01*
X26814285Y31133334D01*
X26890476Y31133334D01*
X27004761Y31171429D01*
X27461904Y31628572D01*
X27461904Y31133334D01*
X26661904Y30638096D02*
X26661904Y30561905D01*
X26700000Y30485715D01*
X26738095Y30447620D01*
X26814285Y30409524D01*
X26966666Y30371429D01*
X27157142Y30371429D01*
X27309523Y30409524D01*
X27385714Y30447620D01*
X27423809Y30485715D01*
X27461904Y30561905D01*
X27461904Y30638096D01*
X27423809Y30714286D01*
X27385714Y30752381D01*
X27309523Y30790477D01*
X27157142Y30828572D01*
X26966666Y30828572D01*
X26814285Y30790477D01*
X26738095Y30752381D01*
X26700000Y30714286D01*
X26661904Y30638096D01*
X27461904Y29609524D02*
X27461904Y30066667D01*
X27461904Y29838096D02*
X26661904Y29838096D01*
X26776190Y29914286D01*
X26852380Y29990477D01*
X26890476Y30066667D01*
X21795238Y21138096D02*
X22061904Y21519048D01*
X22252380Y21138096D02*
X22252380Y21938096D01*
X21947619Y21938096D01*
X21871428Y21900000D01*
X21833333Y21861905D01*
X21795238Y21785715D01*
X21795238Y21671429D01*
X21833333Y21595239D01*
X21871428Y21557143D01*
X21947619Y21519048D01*
X22252380Y21519048D01*
X21109523Y21938096D02*
X21261904Y21938096D01*
X21338095Y21900000D01*
X21376190Y21861905D01*
X21452380Y21747620D01*
X21490476Y21595239D01*
X21490476Y21290477D01*
X21452380Y21214286D01*
X21414285Y21176191D01*
X21338095Y21138096D01*
X21185714Y21138096D01*
X21109523Y21176191D01*
X21071428Y21214286D01*
X21033333Y21290477D01*
X21033333Y21480953D01*
X21071428Y21557143D01*
X21109523Y21595239D01*
X21185714Y21633334D01*
X21338095Y21633334D01*
X21414285Y21595239D01*
X21452380Y21557143D01*
X21490476Y21480953D01*
X20271428Y21138096D02*
X20728571Y21138096D01*
X20500000Y21138096D02*
X20500000Y21938096D01*
X20576190Y21823810D01*
X20652380Y21747620D01*
X20728571Y21709524D01*
X19966666Y21861905D02*
X19928571Y21900000D01*
X19852380Y21938096D01*
X19661904Y21938096D01*
X19585714Y21900000D01*
X19547619Y21861905D01*
X19509523Y21785715D01*
X19509523Y21709524D01*
X19547619Y21595239D01*
X20004761Y21138096D01*
X19509523Y21138096D01*
X12811904Y19995239D02*
X12430952Y20261905D01*
X12811904Y20452381D02*
X12011904Y20452381D01*
X12011904Y20147620D01*
X12050000Y20071429D01*
X12088095Y20033334D01*
X12164285Y19995239D01*
X12278571Y19995239D01*
X12354761Y20033334D01*
X12392857Y20071429D01*
X12430952Y20147620D01*
X12430952Y20452381D01*
X12011904Y19309524D02*
X12011904Y19461905D01*
X12050000Y19538096D01*
X12088095Y19576191D01*
X12202380Y19652381D01*
X12354761Y19690477D01*
X12659523Y19690477D01*
X12735714Y19652381D01*
X12773809Y19614286D01*
X12811904Y19538096D01*
X12811904Y19385715D01*
X12773809Y19309524D01*
X12735714Y19271429D01*
X12659523Y19233334D01*
X12469047Y19233334D01*
X12392857Y19271429D01*
X12354761Y19309524D01*
X12316666Y19385715D01*
X12316666Y19538096D01*
X12354761Y19614286D01*
X12392857Y19652381D01*
X12469047Y19690477D01*
X12811904Y18471429D02*
X12811904Y18928572D01*
X12811904Y18700000D02*
X12011904Y18700000D01*
X12126190Y18776191D01*
X12202380Y18852381D01*
X12240476Y18928572D01*
X12811904Y17709524D02*
X12811904Y18166667D01*
X12811904Y17938096D02*
X12011904Y17938096D01*
X12126190Y18014286D01*
X12202380Y18090477D01*
X12240476Y18166667D01*
X30261904Y24895239D02*
X29880952Y25161905D01*
X30261904Y25352381D02*
X29461904Y25352381D01*
X29461904Y25047620D01*
X29500000Y24971429D01*
X29538095Y24933334D01*
X29614285Y24895239D01*
X29728571Y24895239D01*
X29804761Y24933334D01*
X29842857Y24971429D01*
X29880952Y25047620D01*
X29880952Y25352381D01*
X29461904Y24209524D02*
X29461904Y24361905D01*
X29500000Y24438096D01*
X29538095Y24476191D01*
X29652380Y24552381D01*
X29804761Y24590477D01*
X30109523Y24590477D01*
X30185714Y24552381D01*
X30223809Y24514286D01*
X30261904Y24438096D01*
X30261904Y24285715D01*
X30223809Y24209524D01*
X30185714Y24171429D01*
X30109523Y24133334D01*
X29919047Y24133334D01*
X29842857Y24171429D01*
X29804761Y24209524D01*
X29766666Y24285715D01*
X29766666Y24438096D01*
X29804761Y24514286D01*
X29842857Y24552381D01*
X29919047Y24590477D01*
X29461904Y23638096D02*
X29461904Y23561905D01*
X29500000Y23485715D01*
X29538095Y23447620D01*
X29614285Y23409524D01*
X29766666Y23371429D01*
X29957142Y23371429D01*
X30109523Y23409524D01*
X30185714Y23447620D01*
X30223809Y23485715D01*
X30261904Y23561905D01*
X30261904Y23638096D01*
X30223809Y23714286D01*
X30185714Y23752381D01*
X30109523Y23790477D01*
X29957142Y23828572D01*
X29766666Y23828572D01*
X29614285Y23790477D01*
X29538095Y23752381D01*
X29500000Y23714286D01*
X29461904Y23638096D01*
X29461904Y22685715D02*
X29461904Y22838096D01*
X29500000Y22914286D01*
X29538095Y22952381D01*
X29652380Y23028572D01*
X29804761Y23066667D01*
X30109523Y23066667D01*
X30185714Y23028572D01*
X30223809Y22990477D01*
X30261904Y22914286D01*
X30261904Y22761905D01*
X30223809Y22685715D01*
X30185714Y22647620D01*
X30109523Y22609524D01*
X29919047Y22609524D01*
X29842857Y22647620D01*
X29804761Y22685715D01*
X29766666Y22761905D01*
X29766666Y22914286D01*
X29804761Y22990477D01*
X29842857Y23028572D01*
X29919047Y23066667D01*
X30171904Y21413239D02*
X29790952Y21679905D01*
X30171904Y21870381D02*
X29371904Y21870381D01*
X29371904Y21565620D01*
X29410000Y21489429D01*
X29448095Y21451334D01*
X29524285Y21413239D01*
X29638571Y21413239D01*
X29714761Y21451334D01*
X29752857Y21489429D01*
X29790952Y21565620D01*
X29790952Y21870381D01*
X29371904Y20727524D02*
X29371904Y20879905D01*
X29410000Y20956096D01*
X29448095Y20994191D01*
X29562380Y21070381D01*
X29714761Y21108477D01*
X30019523Y21108477D01*
X30095714Y21070381D01*
X30133809Y21032286D01*
X30171904Y20956096D01*
X30171904Y20803715D01*
X30133809Y20727524D01*
X30095714Y20689429D01*
X30019523Y20651334D01*
X29829047Y20651334D01*
X29752857Y20689429D01*
X29714761Y20727524D01*
X29676666Y20803715D01*
X29676666Y20956096D01*
X29714761Y21032286D01*
X29752857Y21070381D01*
X29829047Y21108477D01*
X29371904Y20156096D02*
X29371904Y20079905D01*
X29410000Y20003715D01*
X29448095Y19965620D01*
X29524285Y19927524D01*
X29676666Y19889429D01*
X29867142Y19889429D01*
X30019523Y19927524D01*
X30095714Y19965620D01*
X30133809Y20003715D01*
X30171904Y20079905D01*
X30171904Y20156096D01*
X30133809Y20232286D01*
X30095714Y20270381D01*
X30019523Y20308477D01*
X29867142Y20346572D01*
X29676666Y20346572D01*
X29524285Y20308477D01*
X29448095Y20270381D01*
X29410000Y20232286D01*
X29371904Y20156096D01*
X29448095Y19584667D02*
X29410000Y19546572D01*
X29371904Y19470381D01*
X29371904Y19279905D01*
X29410000Y19203715D01*
X29448095Y19165620D01*
X29524285Y19127524D01*
X29600476Y19127524D01*
X29714761Y19165620D01*
X30171904Y19622762D01*
X30171904Y19127524D01*
X27895238Y27714286D02*
X27933333Y27676191D01*
X28047619Y27638096D01*
X28123809Y27638096D01*
X28238095Y27676191D01*
X28314285Y27752381D01*
X28352380Y27828572D01*
X28390476Y27980953D01*
X28390476Y28095239D01*
X28352380Y28247620D01*
X28314285Y28323810D01*
X28238095Y28400000D01*
X28123809Y28438096D01*
X28047619Y28438096D01*
X27933333Y28400000D01*
X27895238Y28361905D01*
X27209523Y28438096D02*
X27361904Y28438096D01*
X27438095Y28400000D01*
X27476190Y28361905D01*
X27552380Y28247620D01*
X27590476Y28095239D01*
X27590476Y27790477D01*
X27552380Y27714286D01*
X27514285Y27676191D01*
X27438095Y27638096D01*
X27285714Y27638096D01*
X27209523Y27676191D01*
X27171428Y27714286D01*
X27133333Y27790477D01*
X27133333Y27980953D01*
X27171428Y28057143D01*
X27209523Y28095239D01*
X27285714Y28133334D01*
X27438095Y28133334D01*
X27514285Y28095239D01*
X27552380Y28057143D01*
X27590476Y27980953D01*
X26371428Y27638096D02*
X26828571Y27638096D01*
X26600000Y27638096D02*
X26600000Y28438096D01*
X26676190Y28323810D01*
X26752380Y28247620D01*
X26828571Y28209524D01*
X26104761Y28438096D02*
X25609523Y28438096D01*
X25876190Y28133334D01*
X25761904Y28133334D01*
X25685714Y28095239D01*
X25647619Y28057143D01*
X25609523Y27980953D01*
X25609523Y27790477D01*
X25647619Y27714286D01*
X25685714Y27676191D01*
X25761904Y27638096D01*
X25990476Y27638096D01*
X26066666Y27676191D01*
X26104761Y27714286D01*
X27685714Y25795239D02*
X27723809Y25833334D01*
X27761904Y25947620D01*
X27761904Y26023810D01*
X27723809Y26138096D01*
X27647619Y26214286D01*
X27571428Y26252381D01*
X27419047Y26290477D01*
X27304761Y26290477D01*
X27152380Y26252381D01*
X27076190Y26214286D01*
X27000000Y26138096D01*
X26961904Y26023810D01*
X26961904Y25947620D01*
X27000000Y25833334D01*
X27038095Y25795239D01*
X26961904Y25109524D02*
X26961904Y25261905D01*
X27000000Y25338096D01*
X27038095Y25376191D01*
X27152380Y25452381D01*
X27304761Y25490477D01*
X27609523Y25490477D01*
X27685714Y25452381D01*
X27723809Y25414286D01*
X27761904Y25338096D01*
X27761904Y25185715D01*
X27723809Y25109524D01*
X27685714Y25071429D01*
X27609523Y25033334D01*
X27419047Y25033334D01*
X27342857Y25071429D01*
X27304761Y25109524D01*
X27266666Y25185715D01*
X27266666Y25338096D01*
X27304761Y25414286D01*
X27342857Y25452381D01*
X27419047Y25490477D01*
X27761904Y24271429D02*
X27761904Y24728572D01*
X27761904Y24500000D02*
X26961904Y24500000D01*
X27076190Y24576191D01*
X27152380Y24652381D01*
X27190476Y24728572D01*
X26961904Y23776191D02*
X26961904Y23700000D01*
X27000000Y23623810D01*
X27038095Y23585715D01*
X27114285Y23547620D01*
X27266666Y23509524D01*
X27457142Y23509524D01*
X27609523Y23547620D01*
X27685714Y23585715D01*
X27723809Y23623810D01*
X27761904Y23700000D01*
X27761904Y23776191D01*
X27723809Y23852381D01*
X27685714Y23890477D01*
X27609523Y23928572D01*
X27457142Y23966667D01*
X27266666Y23966667D01*
X27114285Y23928572D01*
X27038095Y23890477D01*
X27000000Y23852381D01*
X26961904Y23776191D01*
X27495238Y8314286D02*
X27533333Y8276191D01*
X27647619Y8238096D01*
X27723809Y8238096D01*
X27838095Y8276191D01*
X27914285Y8352381D01*
X27952380Y8428572D01*
X27990476Y8580953D01*
X27990476Y8695239D01*
X27952380Y8847620D01*
X27914285Y8923810D01*
X27838095Y9000000D01*
X27723809Y9038096D01*
X27647619Y9038096D01*
X27533333Y9000000D01*
X27495238Y8961905D01*
X27190476Y8961905D02*
X27152380Y9000000D01*
X27076190Y9038096D01*
X26885714Y9038096D01*
X26809523Y9000000D01*
X26771428Y8961905D01*
X26733333Y8885715D01*
X26733333Y8809524D01*
X26771428Y8695239D01*
X27228571Y8238096D01*
X26733333Y8238096D01*
X26466666Y9038096D02*
X25971428Y9038096D01*
X26238095Y8733334D01*
X26123809Y8733334D01*
X26047619Y8695239D01*
X26009523Y8657143D01*
X25971428Y8580953D01*
X25971428Y8390477D01*
X26009523Y8314286D01*
X26047619Y8276191D01*
X26123809Y8238096D01*
X26352380Y8238096D01*
X26428571Y8276191D01*
X26466666Y8314286D01*
X25476190Y9038096D02*
X25400000Y9038096D01*
X25323809Y9000000D01*
X25285714Y8961905D01*
X25247619Y8885715D01*
X25209523Y8733334D01*
X25209523Y8542858D01*
X25247619Y8390477D01*
X25285714Y8314286D01*
X25323809Y8276191D01*
X25400000Y8238096D01*
X25476190Y8238096D01*
X25552380Y8276191D01*
X25590476Y8314286D01*
X25628571Y8390477D01*
X25666666Y8542858D01*
X25666666Y8733334D01*
X25628571Y8885715D01*
X25590476Y8961905D01*
X25552380Y9000000D01*
X25476190Y9038096D01*
X23685714Y43595239D02*
X23723809Y43633334D01*
X23761904Y43747620D01*
X23761904Y43823810D01*
X23723809Y43938096D01*
X23647619Y44014286D01*
X23571428Y44052381D01*
X23419047Y44090477D01*
X23304761Y44090477D01*
X23152380Y44052381D01*
X23076190Y44014286D01*
X23000000Y43938096D01*
X22961904Y43823810D01*
X22961904Y43747620D01*
X23000000Y43633334D01*
X23038095Y43595239D01*
X23038095Y43290477D02*
X23000000Y43252381D01*
X22961904Y43176191D01*
X22961904Y42985715D01*
X23000000Y42909524D01*
X23038095Y42871429D01*
X23114285Y42833334D01*
X23190476Y42833334D01*
X23304761Y42871429D01*
X23761904Y43328572D01*
X23761904Y42833334D01*
X23038095Y42528572D02*
X23000000Y42490477D01*
X22961904Y42414286D01*
X22961904Y42223810D01*
X23000000Y42147620D01*
X23038095Y42109524D01*
X23114285Y42071429D01*
X23190476Y42071429D01*
X23304761Y42109524D01*
X23761904Y42566667D01*
X23761904Y42071429D01*
X23304761Y41614286D02*
X23266666Y41690477D01*
X23228571Y41728572D01*
X23152380Y41766667D01*
X23114285Y41766667D01*
X23038095Y41728572D01*
X23000000Y41690477D01*
X22961904Y41614286D01*
X22961904Y41461905D01*
X23000000Y41385715D01*
X23038095Y41347620D01*
X23114285Y41309524D01*
X23152380Y41309524D01*
X23228571Y41347620D01*
X23266666Y41385715D01*
X23304761Y41461905D01*
X23304761Y41614286D01*
X23342857Y41690477D01*
X23380952Y41728572D01*
X23457142Y41766667D01*
X23609523Y41766667D01*
X23685714Y41728572D01*
X23723809Y41690477D01*
X23761904Y41614286D01*
X23761904Y41461905D01*
X23723809Y41385715D01*
X23685714Y41347620D01*
X23609523Y41309524D01*
X23457142Y41309524D01*
X23380952Y41347620D01*
X23342857Y41385715D01*
X23304761Y41461905D01*
X9985714Y19795239D02*
X10023809Y19833334D01*
X10061904Y19947620D01*
X10061904Y20023810D01*
X10023809Y20138096D01*
X9947619Y20214286D01*
X9871428Y20252381D01*
X9719047Y20290477D01*
X9604761Y20290477D01*
X9452380Y20252381D01*
X9376190Y20214286D01*
X9300000Y20138096D01*
X9261904Y20023810D01*
X9261904Y19947620D01*
X9300000Y19833334D01*
X9338095Y19795239D01*
X9338095Y19490477D02*
X9300000Y19452381D01*
X9261904Y19376191D01*
X9261904Y19185715D01*
X9300000Y19109524D01*
X9338095Y19071429D01*
X9414285Y19033334D01*
X9490476Y19033334D01*
X9604761Y19071429D01*
X10061904Y19528572D01*
X10061904Y19033334D01*
X9338095Y18728572D02*
X9300000Y18690477D01*
X9261904Y18614286D01*
X9261904Y18423810D01*
X9300000Y18347620D01*
X9338095Y18309524D01*
X9414285Y18271429D01*
X9490476Y18271429D01*
X9604761Y18309524D01*
X10061904Y18766667D01*
X10061904Y18271429D01*
X9261904Y17776191D02*
X9261904Y17700000D01*
X9300000Y17623810D01*
X9338095Y17585715D01*
X9414285Y17547620D01*
X9566666Y17509524D01*
X9757142Y17509524D01*
X9909523Y17547620D01*
X9985714Y17585715D01*
X10023809Y17623810D01*
X10061904Y17700000D01*
X10061904Y17776191D01*
X10023809Y17852381D01*
X9985714Y17890477D01*
X9909523Y17928572D01*
X9757142Y17966667D01*
X9566666Y17966667D01*
X9414285Y17928572D01*
X9338095Y17890477D01*
X9300000Y17852381D01*
X9261904Y17776191D01*
X31585714Y41095239D02*
X31623809Y41133334D01*
X31661904Y41247620D01*
X31661904Y41323810D01*
X31623809Y41438096D01*
X31547619Y41514286D01*
X31471428Y41552381D01*
X31319047Y41590477D01*
X31204761Y41590477D01*
X31052380Y41552381D01*
X30976190Y41514286D01*
X30900000Y41438096D01*
X30861904Y41323810D01*
X30861904Y41247620D01*
X30900000Y41133334D01*
X30938095Y41095239D01*
X30938095Y40790477D02*
X30900000Y40752381D01*
X30861904Y40676191D01*
X30861904Y40485715D01*
X30900000Y40409524D01*
X30938095Y40371429D01*
X31014285Y40333334D01*
X31090476Y40333334D01*
X31204761Y40371429D01*
X31661904Y40828572D01*
X31661904Y40333334D01*
X31661904Y39571429D02*
X31661904Y40028572D01*
X31661904Y39800000D02*
X30861904Y39800000D01*
X30976190Y39876191D01*
X31052380Y39952381D01*
X31090476Y40028572D01*
X30861904Y39304762D02*
X30861904Y38771429D01*
X31661904Y39114286D01*
X25885714Y36395239D02*
X25923809Y36433334D01*
X25961904Y36547620D01*
X25961904Y36623810D01*
X25923809Y36738096D01*
X25847619Y36814286D01*
X25771428Y36852381D01*
X25619047Y36890477D01*
X25504761Y36890477D01*
X25352380Y36852381D01*
X25276190Y36814286D01*
X25200000Y36738096D01*
X25161904Y36623810D01*
X25161904Y36547620D01*
X25200000Y36433334D01*
X25238095Y36395239D01*
X25238095Y36090477D02*
X25200000Y36052381D01*
X25161904Y35976191D01*
X25161904Y35785715D01*
X25200000Y35709524D01*
X25238095Y35671429D01*
X25314285Y35633334D01*
X25390476Y35633334D01*
X25504761Y35671429D01*
X25961904Y36128572D01*
X25961904Y35633334D01*
X25961904Y34871429D02*
X25961904Y35328572D01*
X25961904Y35100000D02*
X25161904Y35100000D01*
X25276190Y35176191D01*
X25352380Y35252381D01*
X25390476Y35328572D01*
X25161904Y34185715D02*
X25161904Y34338096D01*
X25200000Y34414286D01*
X25238095Y34452381D01*
X25352380Y34528572D01*
X25504761Y34566667D01*
X25809523Y34566667D01*
X25885714Y34528572D01*
X25923809Y34490477D01*
X25961904Y34414286D01*
X25961904Y34261905D01*
X25923809Y34185715D01*
X25885714Y34147620D01*
X25809523Y34109524D01*
X25619047Y34109524D01*
X25542857Y34147620D01*
X25504761Y34185715D01*
X25466666Y34261905D01*
X25466666Y34414286D01*
X25504761Y34490477D01*
X25542857Y34528572D01*
X25619047Y34566667D01*
X31285714Y37995239D02*
X31323809Y38033334D01*
X31361904Y38147620D01*
X31361904Y38223810D01*
X31323809Y38338096D01*
X31247619Y38414286D01*
X31171428Y38452381D01*
X31019047Y38490477D01*
X30904761Y38490477D01*
X30752380Y38452381D01*
X30676190Y38414286D01*
X30600000Y38338096D01*
X30561904Y38223810D01*
X30561904Y38147620D01*
X30600000Y38033334D01*
X30638095Y37995239D01*
X30638095Y37690477D02*
X30600000Y37652381D01*
X30561904Y37576191D01*
X30561904Y37385715D01*
X30600000Y37309524D01*
X30638095Y37271429D01*
X30714285Y37233334D01*
X30790476Y37233334D01*
X30904761Y37271429D01*
X31361904Y37728572D01*
X31361904Y37233334D01*
X31361904Y36471429D02*
X31361904Y36928572D01*
X31361904Y36700000D02*
X30561904Y36700000D01*
X30676190Y36776191D01*
X30752380Y36852381D01*
X30790476Y36928572D01*
X30828571Y35785715D02*
X31361904Y35785715D01*
X30523809Y35976191D02*
X31095238Y36166667D01*
X31095238Y35671429D01*
X20769714Y32895239D02*
X20807809Y32933334D01*
X20845904Y33047620D01*
X20845904Y33123810D01*
X20807809Y33238096D01*
X20731619Y33314286D01*
X20655428Y33352381D01*
X20503047Y33390477D01*
X20388761Y33390477D01*
X20236380Y33352381D01*
X20160190Y33314286D01*
X20084000Y33238096D01*
X20045904Y33123810D01*
X20045904Y33047620D01*
X20084000Y32933334D01*
X20122095Y32895239D01*
X20122095Y32590477D02*
X20084000Y32552381D01*
X20045904Y32476191D01*
X20045904Y32285715D01*
X20084000Y32209524D01*
X20122095Y32171429D01*
X20198285Y32133334D01*
X20274476Y32133334D01*
X20388761Y32171429D01*
X20845904Y32628572D01*
X20845904Y32133334D01*
X20845904Y31371429D02*
X20845904Y31828572D01*
X20845904Y31600000D02*
X20045904Y31600000D01*
X20160190Y31676191D01*
X20236380Y31752381D01*
X20274476Y31828572D01*
X20122095Y31066667D02*
X20084000Y31028572D01*
X20045904Y30952381D01*
X20045904Y30761905D01*
X20084000Y30685715D01*
X20122095Y30647620D01*
X20198285Y30609524D01*
X20274476Y30609524D01*
X20388761Y30647620D01*
X20845904Y31104762D01*
X20845904Y30609524D01*
X19285714Y34895239D02*
X19323809Y34933334D01*
X19361904Y35047620D01*
X19361904Y35123810D01*
X19323809Y35238096D01*
X19247619Y35314286D01*
X19171428Y35352381D01*
X19019047Y35390477D01*
X18904761Y35390477D01*
X18752380Y35352381D01*
X18676190Y35314286D01*
X18600000Y35238096D01*
X18561904Y35123810D01*
X18561904Y35047620D01*
X18600000Y34933334D01*
X18638095Y34895239D01*
X18638095Y34590477D02*
X18600000Y34552381D01*
X18561904Y34476191D01*
X18561904Y34285715D01*
X18600000Y34209524D01*
X18638095Y34171429D01*
X18714285Y34133334D01*
X18790476Y34133334D01*
X18904761Y34171429D01*
X19361904Y34628572D01*
X19361904Y34133334D01*
X19361904Y33371429D02*
X19361904Y33828572D01*
X19361904Y33600000D02*
X18561904Y33600000D01*
X18676190Y33676191D01*
X18752380Y33752381D01*
X18790476Y33828572D01*
X19361904Y32609524D02*
X19361904Y33066667D01*
X19361904Y32838096D02*
X18561904Y32838096D01*
X18676190Y32914286D01*
X18752380Y32990477D01*
X18790476Y33066667D01*
X31785714Y34495239D02*
X31823809Y34533334D01*
X31861904Y34647620D01*
X31861904Y34723810D01*
X31823809Y34838096D01*
X31747619Y34914286D01*
X31671428Y34952381D01*
X31519047Y34990477D01*
X31404761Y34990477D01*
X31252380Y34952381D01*
X31176190Y34914286D01*
X31100000Y34838096D01*
X31061904Y34723810D01*
X31061904Y34647620D01*
X31100000Y34533334D01*
X31138095Y34495239D01*
X31138095Y34190477D02*
X31100000Y34152381D01*
X31061904Y34076191D01*
X31061904Y33885715D01*
X31100000Y33809524D01*
X31138095Y33771429D01*
X31214285Y33733334D01*
X31290476Y33733334D01*
X31404761Y33771429D01*
X31861904Y34228572D01*
X31861904Y33733334D01*
X31061904Y33238096D02*
X31061904Y33161905D01*
X31100000Y33085715D01*
X31138095Y33047620D01*
X31214285Y33009524D01*
X31366666Y32971429D01*
X31557142Y32971429D01*
X31709523Y33009524D01*
X31785714Y33047620D01*
X31823809Y33085715D01*
X31861904Y33161905D01*
X31861904Y33238096D01*
X31823809Y33314286D01*
X31785714Y33352381D01*
X31709523Y33390477D01*
X31557142Y33428572D01*
X31366666Y33428572D01*
X31214285Y33390477D01*
X31138095Y33352381D01*
X31100000Y33314286D01*
X31061904Y33238096D01*
X31861904Y32590477D02*
X31861904Y32438096D01*
X31823809Y32361905D01*
X31785714Y32323810D01*
X31671428Y32247620D01*
X31519047Y32209524D01*
X31214285Y32209524D01*
X31138095Y32247620D01*
X31100000Y32285715D01*
X31061904Y32361905D01*
X31061904Y32514286D01*
X31100000Y32590477D01*
X31138095Y32628572D01*
X31214285Y32666667D01*
X31404761Y32666667D01*
X31480952Y32628572D01*
X31519047Y32590477D01*
X31557142Y32514286D01*
X31557142Y32361905D01*
X31519047Y32285715D01*
X31480952Y32247620D01*
X31404761Y32209524D01*
X30795238Y30069286D02*
X30833333Y30031191D01*
X30947619Y29993096D01*
X31023809Y29993096D01*
X31138095Y30031191D01*
X31214285Y30107381D01*
X31252380Y30183572D01*
X31290476Y30335953D01*
X31290476Y30450239D01*
X31252380Y30602620D01*
X31214285Y30678810D01*
X31138095Y30755000D01*
X31023809Y30793096D01*
X30947619Y30793096D01*
X30833333Y30755000D01*
X30795238Y30716905D01*
X30490476Y30716905D02*
X30452380Y30755000D01*
X30376190Y30793096D01*
X30185714Y30793096D01*
X30109523Y30755000D01*
X30071428Y30716905D01*
X30033333Y30640715D01*
X30033333Y30564524D01*
X30071428Y30450239D01*
X30528571Y29993096D01*
X30033333Y29993096D01*
X29538095Y30793096D02*
X29461904Y30793096D01*
X29385714Y30755000D01*
X29347619Y30716905D01*
X29309523Y30640715D01*
X29271428Y30488334D01*
X29271428Y30297858D01*
X29309523Y30145477D01*
X29347619Y30069286D01*
X29385714Y30031191D01*
X29461904Y29993096D01*
X29538095Y29993096D01*
X29614285Y30031191D01*
X29652380Y30069286D01*
X29690476Y30145477D01*
X29728571Y30297858D01*
X29728571Y30488334D01*
X29690476Y30640715D01*
X29652380Y30716905D01*
X29614285Y30755000D01*
X29538095Y30793096D01*
X29004761Y30793096D02*
X28471428Y30793096D01*
X28814285Y29993096D01*
X24785714Y36395239D02*
X24823809Y36433334D01*
X24861904Y36547620D01*
X24861904Y36623810D01*
X24823809Y36738096D01*
X24747619Y36814286D01*
X24671428Y36852381D01*
X24519047Y36890477D01*
X24404761Y36890477D01*
X24252380Y36852381D01*
X24176190Y36814286D01*
X24100000Y36738096D01*
X24061904Y36623810D01*
X24061904Y36547620D01*
X24100000Y36433334D01*
X24138095Y36395239D01*
X24138095Y36090477D02*
X24100000Y36052381D01*
X24061904Y35976191D01*
X24061904Y35785715D01*
X24100000Y35709524D01*
X24138095Y35671429D01*
X24214285Y35633334D01*
X24290476Y35633334D01*
X24404761Y35671429D01*
X24861904Y36128572D01*
X24861904Y35633334D01*
X24061904Y35138096D02*
X24061904Y35061905D01*
X24100000Y34985715D01*
X24138095Y34947620D01*
X24214285Y34909524D01*
X24366666Y34871429D01*
X24557142Y34871429D01*
X24709523Y34909524D01*
X24785714Y34947620D01*
X24823809Y34985715D01*
X24861904Y35061905D01*
X24861904Y35138096D01*
X24823809Y35214286D01*
X24785714Y35252381D01*
X24709523Y35290477D01*
X24557142Y35328572D01*
X24366666Y35328572D01*
X24214285Y35290477D01*
X24138095Y35252381D01*
X24100000Y35214286D01*
X24061904Y35138096D01*
X24061904Y34185715D02*
X24061904Y34338096D01*
X24100000Y34414286D01*
X24138095Y34452381D01*
X24252380Y34528572D01*
X24404761Y34566667D01*
X24709523Y34566667D01*
X24785714Y34528572D01*
X24823809Y34490477D01*
X24861904Y34414286D01*
X24861904Y34261905D01*
X24823809Y34185715D01*
X24785714Y34147620D01*
X24709523Y34109524D01*
X24519047Y34109524D01*
X24442857Y34147620D01*
X24404761Y34185715D01*
X24366666Y34261905D01*
X24366666Y34414286D01*
X24404761Y34490477D01*
X24442857Y34528572D01*
X24519047Y34566667D01*
X20395238Y36914286D02*
X20433333Y36876191D01*
X20547619Y36838096D01*
X20623809Y36838096D01*
X20738095Y36876191D01*
X20814285Y36952381D01*
X20852380Y37028572D01*
X20890476Y37180953D01*
X20890476Y37295239D01*
X20852380Y37447620D01*
X20814285Y37523810D01*
X20738095Y37600000D01*
X20623809Y37638096D01*
X20547619Y37638096D01*
X20433333Y37600000D01*
X20395238Y37561905D01*
X20090476Y37561905D02*
X20052380Y37600000D01*
X19976190Y37638096D01*
X19785714Y37638096D01*
X19709523Y37600000D01*
X19671428Y37561905D01*
X19633333Y37485715D01*
X19633333Y37409524D01*
X19671428Y37295239D01*
X20128571Y36838096D01*
X19633333Y36838096D01*
X19138095Y37638096D02*
X19061904Y37638096D01*
X18985714Y37600000D01*
X18947619Y37561905D01*
X18909523Y37485715D01*
X18871428Y37333334D01*
X18871428Y37142858D01*
X18909523Y36990477D01*
X18947619Y36914286D01*
X18985714Y36876191D01*
X19061904Y36838096D01*
X19138095Y36838096D01*
X19214285Y36876191D01*
X19252380Y36914286D01*
X19290476Y36990477D01*
X19328571Y37142858D01*
X19328571Y37333334D01*
X19290476Y37485715D01*
X19252380Y37561905D01*
X19214285Y37600000D01*
X19138095Y37638096D01*
X18147619Y37638096D02*
X18528571Y37638096D01*
X18566666Y37257143D01*
X18528571Y37295239D01*
X18452380Y37333334D01*
X18261904Y37333334D01*
X18185714Y37295239D01*
X18147619Y37257143D01*
X18109523Y37180953D01*
X18109523Y36990477D01*
X18147619Y36914286D01*
X18185714Y36876191D01*
X18261904Y36838096D01*
X18452380Y36838096D01*
X18528571Y36876191D01*
X18566666Y36914286D01*
X4677380Y10879048D02*
X4677380Y11355239D01*
X3677380Y11355239D01*
X3677380Y10640953D02*
X3677380Y10021905D01*
X4058333Y10355239D01*
X4058333Y10212381D01*
X4105952Y10117143D01*
X4153571Y10069524D01*
X4248809Y10021905D01*
X4486904Y10021905D01*
X4582142Y10069524D01*
X4629761Y10117143D01*
X4677380Y10212381D01*
X4677380Y10498096D01*
X4629761Y10593334D01*
X4582142Y10640953D01*
X3677380Y9402858D02*
X3677380Y9307620D01*
X3725000Y9212381D01*
X3772619Y9164762D01*
X3867857Y9117143D01*
X4058333Y9069524D01*
X4296428Y9069524D01*
X4486904Y9117143D01*
X4582142Y9164762D01*
X4629761Y9212381D01*
X4677380Y9307620D01*
X4677380Y9402858D01*
X4629761Y9498096D01*
X4582142Y9545715D01*
X4486904Y9593334D01*
X4296428Y9640953D01*
X4058333Y9640953D01*
X3867857Y9593334D01*
X3772619Y9545715D01*
X3725000Y9498096D01*
X3677380Y9402858D01*
X4677380Y8117143D02*
X4677380Y8688572D01*
X4677380Y8402858D02*
X3677380Y8402858D01*
X3820238Y8498096D01*
X3915476Y8593334D01*
X3963095Y8688572D01*
X4590380Y15114096D02*
X4590380Y15914096D01*
X4399904Y15914096D01*
X4285619Y15876000D01*
X4209428Y15799810D01*
X4171333Y15723620D01*
X4133238Y15571239D01*
X4133238Y15456953D01*
X4171333Y15304572D01*
X4209428Y15228381D01*
X4285619Y15152191D01*
X4399904Y15114096D01*
X4590380Y15114096D01*
X3866571Y15914096D02*
X3371333Y15914096D01*
X3638000Y15609334D01*
X3523714Y15609334D01*
X3447523Y15571239D01*
X3409428Y15533143D01*
X3371333Y15456953D01*
X3371333Y15266477D01*
X3409428Y15190286D01*
X3447523Y15152191D01*
X3523714Y15114096D01*
X3752285Y15114096D01*
X3828476Y15152191D01*
X3866571Y15190286D01*
X2876095Y15914096D02*
X2799904Y15914096D01*
X2723714Y15876000D01*
X2685619Y15837905D01*
X2647523Y15761715D01*
X2609428Y15609334D01*
X2609428Y15418858D01*
X2647523Y15266477D01*
X2685619Y15190286D01*
X2723714Y15152191D01*
X2799904Y15114096D01*
X2876095Y15114096D01*
X2952285Y15152191D01*
X2990380Y15190286D01*
X3028476Y15266477D01*
X3066571Y15418858D01*
X3066571Y15609334D01*
X3028476Y15761715D01*
X2990380Y15837905D01*
X2952285Y15876000D01*
X2876095Y15914096D01*
X2342761Y15914096D02*
X1847523Y15914096D01*
X2114190Y15609334D01*
X1999904Y15609334D01*
X1923714Y15571239D01*
X1885619Y15533143D01*
X1847523Y15456953D01*
X1847523Y15266477D01*
X1885619Y15190286D01*
X1923714Y15152191D01*
X1999904Y15114096D01*
X2228476Y15114096D01*
X2304666Y15152191D01*
X2342761Y15190286D01*
X6611380Y16245905D02*
X5611380Y16245905D01*
X6611380Y15674477D02*
X6039952Y16103048D01*
X5611380Y15674477D02*
X6182809Y16245905D01*
X1266666Y17238096D02*
X1266666Y16761905D01*
X1552380Y17333334D02*
X552380Y17000000D01*
X1552380Y16666667D01*
X5606380Y18614096D02*
X5606380Y19414096D01*
X5415904Y19414096D01*
X5301619Y19376000D01*
X5225428Y19299810D01*
X5187333Y19223620D01*
X5149238Y19071239D01*
X5149238Y18956953D01*
X5187333Y18804572D01*
X5225428Y18728381D01*
X5301619Y18652191D01*
X5415904Y18614096D01*
X5606380Y18614096D01*
X4882571Y19414096D02*
X4387333Y19414096D01*
X4654000Y19109334D01*
X4539714Y19109334D01*
X4463523Y19071239D01*
X4425428Y19033143D01*
X4387333Y18956953D01*
X4387333Y18766477D01*
X4425428Y18690286D01*
X4463523Y18652191D01*
X4539714Y18614096D01*
X4768285Y18614096D01*
X4844476Y18652191D01*
X4882571Y18690286D01*
X3892095Y19414096D02*
X3815904Y19414096D01*
X3739714Y19376000D01*
X3701619Y19337905D01*
X3663523Y19261715D01*
X3625428Y19109334D01*
X3625428Y18918858D01*
X3663523Y18766477D01*
X3701619Y18690286D01*
X3739714Y18652191D01*
X3815904Y18614096D01*
X3892095Y18614096D01*
X3968285Y18652191D01*
X4006380Y18690286D01*
X4044476Y18766477D01*
X4082571Y18918858D01*
X4082571Y19109334D01*
X4044476Y19261715D01*
X4006380Y19337905D01*
X3968285Y19376000D01*
X3892095Y19414096D01*
X2901619Y19414096D02*
X3282571Y19414096D01*
X3320666Y19033143D01*
X3282571Y19071239D01*
X3206380Y19109334D01*
X3015904Y19109334D01*
X2939714Y19071239D01*
X2901619Y19033143D01*
X2863523Y18956953D01*
X2863523Y18766477D01*
X2901619Y18690286D01*
X2939714Y18652191D01*
X3015904Y18614096D01*
X3206380Y18614096D01*
X3282571Y18652191D01*
X3320666Y18690286D01*
X6611380Y21904905D02*
X5611380Y21904905D01*
X6611380Y21333477D02*
X6039952Y21762048D01*
X5611380Y21333477D02*
X6182809Y21904905D01*
X2066666Y21838096D02*
X2066666Y21361905D01*
X2352380Y21933334D02*
X1352380Y21600000D01*
X2352380Y21266667D01*
X12152380Y10138096D02*
X12152380Y10938096D01*
X11961904Y10938096D01*
X11847619Y10900000D01*
X11771428Y10823810D01*
X11733333Y10747620D01*
X11695238Y10595239D01*
X11695238Y10480953D01*
X11733333Y10328572D01*
X11771428Y10252381D01*
X11847619Y10176191D01*
X11961904Y10138096D01*
X12152380Y10138096D01*
X11428571Y10938096D02*
X10933333Y10938096D01*
X11200000Y10633334D01*
X11085714Y10633334D01*
X11009523Y10595239D01*
X10971428Y10557143D01*
X10933333Y10480953D01*
X10933333Y10290477D01*
X10971428Y10214286D01*
X11009523Y10176191D01*
X11085714Y10138096D01*
X11314285Y10138096D01*
X11390476Y10176191D01*
X11428571Y10214286D01*
X10438095Y10938096D02*
X10361904Y10938096D01*
X10285714Y10900000D01*
X10247619Y10861905D01*
X10209523Y10785715D01*
X10171428Y10633334D01*
X10171428Y10442858D01*
X10209523Y10290477D01*
X10247619Y10214286D01*
X10285714Y10176191D01*
X10361904Y10138096D01*
X10438095Y10138096D01*
X10514285Y10176191D01*
X10552380Y10214286D01*
X10590476Y10290477D01*
X10628571Y10442858D01*
X10628571Y10633334D01*
X10590476Y10785715D01*
X10552380Y10861905D01*
X10514285Y10900000D01*
X10438095Y10938096D01*
X9409523Y10138096D02*
X9866666Y10138096D01*
X9638095Y10138096D02*
X9638095Y10938096D01*
X9714285Y10823810D01*
X9790476Y10747620D01*
X9866666Y10709524D01*
X13998095Y8323334D02*
X13521904Y8323334D01*
X14093333Y8037620D02*
X13760000Y9037620D01*
X13426666Y8037620D01*
X6021904Y8037620D02*
X6021904Y9037620D01*
X5450476Y8037620D02*
X5879047Y8609048D01*
X5450476Y9037620D02*
X6021904Y8466191D01*
M02*
