G04 #@! TF.GenerationSoftware,KiCad,Pcbnew,(5.1.0)-1*
G04 #@! TF.CreationDate,2019-04-02T21:11:50+01:00*
G04 #@! TF.ProjectId,uCODEC-1.0,75434f44-4543-42d3-912e-302e6b696361,1.0*
G04 #@! TF.SameCoordinates,PX7de2900PY7365040*
G04 #@! TF.FileFunction,Soldermask,Top*
G04 #@! TF.FilePolarity,Negative*
%FSLAX46Y46*%
G04 Gerber Fmt 4.6, Leading zero omitted, Abs format (unit mm)*
G04 Created by KiCad (PCBNEW (5.1.0)-1) date 2019-04-02 21:11:50*
%MOMM*%
%LPD*%
G04 APERTURE LIST*
%ADD10C,0.100000*%
%ADD11C,0.150000*%
G04 APERTURE END LIST*
D10*
X0Y50000000D02*
X0Y0D01*
X50000000Y50000000D02*
X0Y50000000D01*
X50000000Y0D02*
X50000000Y50000000D01*
X0Y0D02*
X50000000Y0D01*
D11*
G36*
X47404237Y6480869D02*
G01*
X47968401Y6247185D01*
X48476135Y5907928D01*
X48907928Y5476135D01*
X49247185Y4968401D01*
X49480869Y4404237D01*
X49600000Y3805323D01*
X49600000Y3194677D01*
X49480869Y2595763D01*
X49247185Y2031599D01*
X48907928Y1523865D01*
X48476135Y1092072D01*
X47968401Y752815D01*
X47404237Y519131D01*
X46805323Y400000D01*
X46194677Y400000D01*
X45595763Y519131D01*
X45031599Y752815D01*
X44523865Y1092072D01*
X44092072Y1523865D01*
X43752815Y2031599D01*
X43519131Y2595763D01*
X43400000Y3194677D01*
X43400000Y3805323D01*
X43519131Y4404237D01*
X43752815Y4968401D01*
X44092072Y5476135D01*
X44523865Y5907928D01*
X45031599Y6247185D01*
X45595763Y6480869D01*
X46194677Y6600000D01*
X46805323Y6600000D01*
X47404237Y6480869D01*
X47404237Y6480869D01*
G37*
G36*
X4404237Y6480869D02*
G01*
X4968401Y6247185D01*
X5476135Y5907928D01*
X5907928Y5476135D01*
X6247185Y4968401D01*
X6480869Y4404237D01*
X6600000Y3805323D01*
X6600000Y3194677D01*
X6480869Y2595763D01*
X6247185Y2031599D01*
X5907928Y1523865D01*
X5476135Y1092072D01*
X4968401Y752815D01*
X4404237Y519131D01*
X3805323Y400000D01*
X3194677Y400000D01*
X2595763Y519131D01*
X2031599Y752815D01*
X1523865Y1092072D01*
X1092072Y1523865D01*
X752815Y2031599D01*
X519131Y2595763D01*
X400000Y3194677D01*
X400000Y3805323D01*
X519131Y4404237D01*
X752815Y4968401D01*
X1092072Y5476135D01*
X1523865Y5907928D01*
X2031599Y6247185D01*
X2595763Y6480869D01*
X3194677Y6600000D01*
X3805323Y6600000D01*
X4404237Y6480869D01*
X4404237Y6480869D01*
G37*
G36*
X42195090Y2980785D02*
G01*
X42291689Y2961571D01*
X42473678Y2886189D01*
X42637463Y2776751D01*
X42776751Y2637463D01*
X42886189Y2473678D01*
X42961571Y2291689D01*
X43000000Y2098491D01*
X43000000Y1901509D01*
X42961571Y1708311D01*
X42886189Y1526322D01*
X42776751Y1362537D01*
X42637463Y1223249D01*
X42473678Y1113811D01*
X42291689Y1038429D01*
X42195090Y1019215D01*
X42098493Y1000000D01*
X41901507Y1000000D01*
X41804910Y1019215D01*
X41708311Y1038429D01*
X41526322Y1113811D01*
X41362537Y1223249D01*
X41223249Y1362537D01*
X41113811Y1526322D01*
X41038429Y1708311D01*
X41000000Y1901509D01*
X41000000Y2098491D01*
X41038429Y2291689D01*
X41113811Y2473678D01*
X41223249Y2637463D01*
X41362537Y2776751D01*
X41526322Y2886189D01*
X41708311Y2961571D01*
X41804910Y2980785D01*
X41901507Y3000000D01*
X42098493Y3000000D01*
X42195090Y2980785D01*
X42195090Y2980785D01*
G37*
G36*
X8195090Y2980785D02*
G01*
X8291689Y2961571D01*
X8473678Y2886189D01*
X8637463Y2776751D01*
X8776751Y2637463D01*
X8886189Y2473678D01*
X8961571Y2291689D01*
X9000000Y2098491D01*
X9000000Y1901509D01*
X8961571Y1708311D01*
X8886189Y1526322D01*
X8776751Y1362537D01*
X8637463Y1223249D01*
X8473678Y1113811D01*
X8291689Y1038429D01*
X8195090Y1019215D01*
X8098493Y1000000D01*
X7901507Y1000000D01*
X7804910Y1019215D01*
X7708311Y1038429D01*
X7526322Y1113811D01*
X7362537Y1223249D01*
X7223249Y1362537D01*
X7113811Y1526322D01*
X7038429Y1708311D01*
X7000000Y1901509D01*
X7000000Y2098491D01*
X7038429Y2291689D01*
X7113811Y2473678D01*
X7223249Y2637463D01*
X7362537Y2776751D01*
X7526322Y2886189D01*
X7708311Y2961571D01*
X7804910Y2980785D01*
X7901507Y3000000D01*
X8098493Y3000000D01*
X8195090Y2980785D01*
X8195090Y2980785D01*
G37*
G36*
X34123351Y2909257D02*
G01*
X34123353Y2909256D01*
X34123354Y2909256D01*
X34179042Y2886189D01*
X34268942Y2848951D01*
X34399970Y2761401D01*
X34511401Y2649970D01*
X34598951Y2518942D01*
X34659257Y2373351D01*
X34690000Y2218793D01*
X34690000Y2061207D01*
X34659257Y1906649D01*
X34598951Y1761058D01*
X34563707Y1708311D01*
X34511400Y1630029D01*
X34399971Y1518600D01*
X34268942Y1431049D01*
X34123354Y1370744D01*
X34123353Y1370744D01*
X34123351Y1370743D01*
X33968793Y1340000D01*
X33811207Y1340000D01*
X33656649Y1370743D01*
X33656647Y1370744D01*
X33656646Y1370744D01*
X33511058Y1431049D01*
X33380029Y1518600D01*
X33268600Y1630029D01*
X33216294Y1708311D01*
X33181049Y1761058D01*
X33120743Y1906649D01*
X33090000Y2061207D01*
X33090000Y2218793D01*
X33120743Y2373351D01*
X33181049Y2518942D01*
X33268599Y2649970D01*
X33380030Y2761401D01*
X33511058Y2848951D01*
X33600958Y2886189D01*
X33656646Y2909256D01*
X33656647Y2909256D01*
X33656649Y2909257D01*
X33811207Y2940000D01*
X33968793Y2940000D01*
X34123351Y2909257D01*
X34123351Y2909257D01*
G37*
G36*
X31583351Y2909257D02*
G01*
X31583353Y2909256D01*
X31583354Y2909256D01*
X31639042Y2886189D01*
X31728942Y2848951D01*
X31859970Y2761401D01*
X31971401Y2649970D01*
X32058951Y2518942D01*
X32119257Y2373351D01*
X32150000Y2218793D01*
X32150000Y2061207D01*
X32119257Y1906649D01*
X32058951Y1761058D01*
X32023707Y1708311D01*
X31971400Y1630029D01*
X31859971Y1518600D01*
X31728942Y1431049D01*
X31583354Y1370744D01*
X31583353Y1370744D01*
X31583351Y1370743D01*
X31428793Y1340000D01*
X31271207Y1340000D01*
X31116649Y1370743D01*
X31116647Y1370744D01*
X31116646Y1370744D01*
X30971058Y1431049D01*
X30840029Y1518600D01*
X30728600Y1630029D01*
X30676294Y1708311D01*
X30641049Y1761058D01*
X30580743Y1906649D01*
X30550000Y2061207D01*
X30550000Y2218793D01*
X30580743Y2373351D01*
X30641049Y2518942D01*
X30728599Y2649970D01*
X30840030Y2761401D01*
X30971058Y2848951D01*
X31060958Y2886189D01*
X31116646Y2909256D01*
X31116647Y2909256D01*
X31116649Y2909257D01*
X31271207Y2940000D01*
X31428793Y2940000D01*
X31583351Y2909257D01*
X31583351Y2909257D01*
G37*
G36*
X27070000Y1340000D02*
G01*
X25470000Y1340000D01*
X25470000Y2940000D01*
X27070000Y2940000D01*
X27070000Y1340000D01*
X27070000Y1340000D01*
G37*
G36*
X29043351Y2909257D02*
G01*
X29043353Y2909256D01*
X29043354Y2909256D01*
X29099042Y2886189D01*
X29188942Y2848951D01*
X29319970Y2761401D01*
X29431401Y2649970D01*
X29518951Y2518942D01*
X29579257Y2373351D01*
X29610000Y2218793D01*
X29610000Y2061207D01*
X29579257Y1906649D01*
X29518951Y1761058D01*
X29483707Y1708311D01*
X29431400Y1630029D01*
X29319971Y1518600D01*
X29188942Y1431049D01*
X29043354Y1370744D01*
X29043353Y1370744D01*
X29043351Y1370743D01*
X28888793Y1340000D01*
X28731207Y1340000D01*
X28576649Y1370743D01*
X28576647Y1370744D01*
X28576646Y1370744D01*
X28431058Y1431049D01*
X28300029Y1518600D01*
X28188600Y1630029D01*
X28136294Y1708311D01*
X28101049Y1761058D01*
X28040743Y1906649D01*
X28010000Y2061207D01*
X28010000Y2218793D01*
X28040743Y2373351D01*
X28101049Y2518942D01*
X28188599Y2649970D01*
X28300030Y2761401D01*
X28431058Y2848951D01*
X28520958Y2886189D01*
X28576646Y2909256D01*
X28576647Y2909256D01*
X28576649Y2909257D01*
X28731207Y2940000D01*
X28888793Y2940000D01*
X29043351Y2909257D01*
X29043351Y2909257D01*
G37*
G36*
X37450000Y1600000D02*
G01*
X36550000Y1600000D01*
X36550000Y2500000D01*
X37450000Y2500000D01*
X37450000Y1600000D01*
X37450000Y1600000D01*
G37*
G36*
X39950000Y1600000D02*
G01*
X39050000Y1600000D01*
X39050000Y2500000D01*
X39950000Y2500000D01*
X39950000Y1600000D01*
X39950000Y1600000D01*
G37*
G36*
X23950000Y1600000D02*
G01*
X23050000Y1600000D01*
X23050000Y2500000D01*
X23950000Y2500000D01*
X23950000Y1600000D01*
X23950000Y1600000D01*
G37*
G36*
X37450000Y3500000D02*
G01*
X36550000Y3500000D01*
X36550000Y4400000D01*
X37450000Y4400000D01*
X37450000Y3500000D01*
X37450000Y3500000D01*
G37*
G36*
X39950000Y3500000D02*
G01*
X39050000Y3500000D01*
X39050000Y4400000D01*
X39950000Y4400000D01*
X39950000Y3500000D01*
X39950000Y3500000D01*
G37*
G36*
X23950000Y3500000D02*
G01*
X23050000Y3500000D01*
X23050000Y4400000D01*
X23950000Y4400000D01*
X23950000Y3500000D01*
X23950000Y3500000D01*
G37*
G36*
X31583351Y5449257D02*
G01*
X31583353Y5449256D01*
X31583354Y5449256D01*
X31728942Y5388951D01*
X31859971Y5301400D01*
X31971400Y5189971D01*
X32058951Y5058942D01*
X32096455Y4968401D01*
X32119257Y4913351D01*
X32150000Y4758793D01*
X32150000Y4601207D01*
X32134479Y4523174D01*
X32119256Y4446646D01*
X32058951Y4301058D01*
X31971400Y4170029D01*
X31859971Y4058600D01*
X31728942Y3971049D01*
X31583354Y3910744D01*
X31583353Y3910744D01*
X31583351Y3910743D01*
X31428793Y3880000D01*
X31271207Y3880000D01*
X31116649Y3910743D01*
X31116647Y3910744D01*
X31116646Y3910744D01*
X30971058Y3971049D01*
X30840029Y4058600D01*
X30728600Y4170029D01*
X30641049Y4301058D01*
X30580744Y4446646D01*
X30565522Y4523174D01*
X30550000Y4601207D01*
X30550000Y4758793D01*
X30580743Y4913351D01*
X30603546Y4968401D01*
X30641049Y5058942D01*
X30728600Y5189971D01*
X30840029Y5301400D01*
X30971058Y5388951D01*
X31116646Y5449256D01*
X31116647Y5449256D01*
X31116649Y5449257D01*
X31271207Y5480000D01*
X31428793Y5480000D01*
X31583351Y5449257D01*
X31583351Y5449257D01*
G37*
G36*
X11351826Y5468425D02*
G01*
X11502629Y5422679D01*
X11641606Y5348395D01*
X11763422Y5248422D01*
X11863395Y5126606D01*
X11937679Y4987629D01*
X11983424Y4836826D01*
X11998871Y4680000D01*
X11983424Y4523174D01*
X11937679Y4372371D01*
X11863395Y4233394D01*
X11763422Y4111578D01*
X11641606Y4011605D01*
X11502629Y3937321D01*
X11351826Y3891575D01*
X11234299Y3880000D01*
X9555701Y3880000D01*
X9438174Y3891575D01*
X9287371Y3937321D01*
X9148394Y4011605D01*
X9026578Y4111578D01*
X8926605Y4233394D01*
X8852321Y4372371D01*
X8806576Y4523174D01*
X8791129Y4680000D01*
X8806576Y4836826D01*
X8852321Y4987629D01*
X8926605Y5126606D01*
X9026578Y5248422D01*
X9148394Y5348395D01*
X9287371Y5422679D01*
X9438174Y5468425D01*
X9555701Y5480000D01*
X11234299Y5480000D01*
X11351826Y5468425D01*
X11351826Y5468425D01*
G37*
G36*
X13803351Y5449257D02*
G01*
X13803353Y5449256D01*
X13803354Y5449256D01*
X13948942Y5388951D01*
X14079971Y5301400D01*
X14191400Y5189971D01*
X14278951Y5058942D01*
X14316455Y4968401D01*
X14339257Y4913351D01*
X14370000Y4758793D01*
X14370000Y4601207D01*
X14354479Y4523174D01*
X14339256Y4446646D01*
X14278951Y4301058D01*
X14191400Y4170029D01*
X14079971Y4058600D01*
X13948942Y3971049D01*
X13803354Y3910744D01*
X13803353Y3910744D01*
X13803351Y3910743D01*
X13648793Y3880000D01*
X13491207Y3880000D01*
X13336649Y3910743D01*
X13336647Y3910744D01*
X13336646Y3910744D01*
X13191058Y3971049D01*
X13060029Y4058600D01*
X12948600Y4170029D01*
X12861049Y4301058D01*
X12800744Y4446646D01*
X12785522Y4523174D01*
X12770000Y4601207D01*
X12770000Y4758793D01*
X12800743Y4913351D01*
X12823546Y4968401D01*
X12861049Y5058942D01*
X12948600Y5189971D01*
X13060029Y5301400D01*
X13191058Y5388951D01*
X13336646Y5449256D01*
X13336647Y5449256D01*
X13336649Y5449257D01*
X13491207Y5480000D01*
X13648793Y5480000D01*
X13803351Y5449257D01*
X13803351Y5449257D01*
G37*
G36*
X34123351Y5449257D02*
G01*
X34123353Y5449256D01*
X34123354Y5449256D01*
X34268942Y5388951D01*
X34399971Y5301400D01*
X34511400Y5189971D01*
X34598951Y5058942D01*
X34636455Y4968401D01*
X34659257Y4913351D01*
X34690000Y4758793D01*
X34690000Y4601207D01*
X34674479Y4523174D01*
X34659256Y4446646D01*
X34598951Y4301058D01*
X34511400Y4170029D01*
X34399971Y4058600D01*
X34268942Y3971049D01*
X34123354Y3910744D01*
X34123353Y3910744D01*
X34123351Y3910743D01*
X33968793Y3880000D01*
X33811207Y3880000D01*
X33656649Y3910743D01*
X33656647Y3910744D01*
X33656646Y3910744D01*
X33511058Y3971049D01*
X33380029Y4058600D01*
X33268600Y4170029D01*
X33181049Y4301058D01*
X33120744Y4446646D01*
X33105522Y4523174D01*
X33090000Y4601207D01*
X33090000Y4758793D01*
X33120743Y4913351D01*
X33143546Y4968401D01*
X33181049Y5058942D01*
X33268600Y5189971D01*
X33380029Y5301400D01*
X33511058Y5388951D01*
X33656646Y5449256D01*
X33656647Y5449256D01*
X33656649Y5449257D01*
X33811207Y5480000D01*
X33968793Y5480000D01*
X34123351Y5449257D01*
X34123351Y5449257D01*
G37*
G36*
X29043351Y5449257D02*
G01*
X29043353Y5449256D01*
X29043354Y5449256D01*
X29188942Y5388951D01*
X29319971Y5301400D01*
X29431400Y5189971D01*
X29518951Y5058942D01*
X29556455Y4968401D01*
X29579257Y4913351D01*
X29610000Y4758793D01*
X29610000Y4601207D01*
X29594479Y4523174D01*
X29579256Y4446646D01*
X29518951Y4301058D01*
X29431400Y4170029D01*
X29319971Y4058600D01*
X29188942Y3971049D01*
X29043354Y3910744D01*
X29043353Y3910744D01*
X29043351Y3910743D01*
X28888793Y3880000D01*
X28731207Y3880000D01*
X28576649Y3910743D01*
X28576647Y3910744D01*
X28576646Y3910744D01*
X28431058Y3971049D01*
X28300029Y4058600D01*
X28188600Y4170029D01*
X28101049Y4301058D01*
X28040744Y4446646D01*
X28025522Y4523174D01*
X28010000Y4601207D01*
X28010000Y4758793D01*
X28040743Y4913351D01*
X28063546Y4968401D01*
X28101049Y5058942D01*
X28188600Y5189971D01*
X28300029Y5301400D01*
X28431058Y5388951D01*
X28576646Y5449256D01*
X28576647Y5449256D01*
X28576649Y5449257D01*
X28731207Y5480000D01*
X28888793Y5480000D01*
X29043351Y5449257D01*
X29043351Y5449257D01*
G37*
G36*
X27070000Y3880000D02*
G01*
X25470000Y3880000D01*
X25470000Y5480000D01*
X27070000Y5480000D01*
X27070000Y3880000D01*
X27070000Y3880000D01*
G37*
G36*
X18450000Y5600000D02*
G01*
X17550000Y5600000D01*
X17550000Y6500000D01*
X18450000Y6500000D01*
X18450000Y5600000D01*
X18450000Y5600000D01*
G37*
G36*
X39770000Y6420000D02*
G01*
X38170000Y6420000D01*
X38170000Y8020000D01*
X39770000Y8020000D01*
X39770000Y6420000D01*
X39770000Y6420000D01*
G37*
G36*
X34123351Y7989257D02*
G01*
X34123353Y7989256D01*
X34123354Y7989256D01*
X34268942Y7928951D01*
X34399971Y7841400D01*
X34511400Y7729971D01*
X34598951Y7598942D01*
X34659256Y7453354D01*
X34690000Y7298791D01*
X34690000Y7141209D01*
X34659256Y6986646D01*
X34598951Y6841058D01*
X34511400Y6710029D01*
X34399971Y6598600D01*
X34268942Y6511049D01*
X34123354Y6450744D01*
X34123353Y6450744D01*
X34123351Y6450743D01*
X33968793Y6420000D01*
X33811207Y6420000D01*
X33656649Y6450743D01*
X33656647Y6450744D01*
X33656646Y6450744D01*
X33511058Y6511049D01*
X33380029Y6598600D01*
X33268600Y6710029D01*
X33181049Y6841058D01*
X33120744Y6986646D01*
X33090000Y7141209D01*
X33090000Y7298791D01*
X33120744Y7453354D01*
X33181049Y7598942D01*
X33268600Y7729971D01*
X33380029Y7841400D01*
X33511058Y7928951D01*
X33656646Y7989256D01*
X33656647Y7989256D01*
X33656649Y7989257D01*
X33811207Y8020000D01*
X33968793Y8020000D01*
X34123351Y7989257D01*
X34123351Y7989257D01*
G37*
G36*
X31583351Y7989257D02*
G01*
X31583353Y7989256D01*
X31583354Y7989256D01*
X31728942Y7928951D01*
X31859971Y7841400D01*
X31971400Y7729971D01*
X32058951Y7598942D01*
X32119256Y7453354D01*
X32150000Y7298791D01*
X32150000Y7141209D01*
X32119256Y6986646D01*
X32058951Y6841058D01*
X31971400Y6710029D01*
X31859971Y6598600D01*
X31728942Y6511049D01*
X31583354Y6450744D01*
X31583353Y6450744D01*
X31583351Y6450743D01*
X31428793Y6420000D01*
X31271207Y6420000D01*
X31116649Y6450743D01*
X31116647Y6450744D01*
X31116646Y6450744D01*
X30971058Y6511049D01*
X30840029Y6598600D01*
X30728600Y6710029D01*
X30641049Y6841058D01*
X30580744Y6986646D01*
X30550000Y7141209D01*
X30550000Y7298791D01*
X30580744Y7453354D01*
X30641049Y7598942D01*
X30728600Y7729971D01*
X30840029Y7841400D01*
X30971058Y7928951D01*
X31116646Y7989256D01*
X31116647Y7989256D01*
X31116649Y7989257D01*
X31271207Y8020000D01*
X31428793Y8020000D01*
X31583351Y7989257D01*
X31583351Y7989257D01*
G37*
G36*
X36663351Y7989257D02*
G01*
X36663353Y7989256D01*
X36663354Y7989256D01*
X36808942Y7928951D01*
X36939971Y7841400D01*
X37051400Y7729971D01*
X37138951Y7598942D01*
X37199256Y7453354D01*
X37230000Y7298791D01*
X37230000Y7141209D01*
X37199256Y6986646D01*
X37138951Y6841058D01*
X37051400Y6710029D01*
X36939971Y6598600D01*
X36808942Y6511049D01*
X36663354Y6450744D01*
X36663353Y6450744D01*
X36663351Y6450743D01*
X36508793Y6420000D01*
X36351207Y6420000D01*
X36196649Y6450743D01*
X36196647Y6450744D01*
X36196646Y6450744D01*
X36051058Y6511049D01*
X35920029Y6598600D01*
X35808600Y6710029D01*
X35721049Y6841058D01*
X35660744Y6986646D01*
X35630000Y7141209D01*
X35630000Y7298791D01*
X35660744Y7453354D01*
X35721049Y7598942D01*
X35808600Y7729971D01*
X35920029Y7841400D01*
X36051058Y7928951D01*
X36196646Y7989256D01*
X36196647Y7989256D01*
X36196649Y7989257D01*
X36351207Y8020000D01*
X36508793Y8020000D01*
X36663351Y7989257D01*
X36663351Y7989257D01*
G37*
G36*
X18450000Y7500000D02*
G01*
X17550000Y7500000D01*
X17550000Y8400000D01*
X18450000Y8400000D01*
X18450000Y7500000D01*
X18450000Y7500000D01*
G37*
G36*
X47390000Y8960000D02*
G01*
X45790000Y8960000D01*
X45790000Y10560000D01*
X47390000Y10560000D01*
X47390000Y8960000D01*
X47390000Y8960000D01*
G37*
G36*
X44283351Y10529257D02*
G01*
X44283353Y10529256D01*
X44283354Y10529256D01*
X44428942Y10468951D01*
X44559970Y10381401D01*
X44671401Y10269970D01*
X44758951Y10138942D01*
X44819257Y9993351D01*
X44850000Y9838793D01*
X44850000Y9681207D01*
X44823902Y9550000D01*
X44819256Y9526646D01*
X44758951Y9381058D01*
X44671400Y9250029D01*
X44559971Y9138600D01*
X44428942Y9051049D01*
X44283354Y8990744D01*
X44283353Y8990744D01*
X44283351Y8990743D01*
X44128793Y8960000D01*
X43971207Y8960000D01*
X43816649Y8990743D01*
X43816647Y8990744D01*
X43816646Y8990744D01*
X43671058Y9051049D01*
X43540029Y9138600D01*
X43428600Y9250029D01*
X43341049Y9381058D01*
X43280744Y9526646D01*
X43276099Y9550000D01*
X43250000Y9681207D01*
X43250000Y9838793D01*
X43280743Y9993351D01*
X43341049Y10138942D01*
X43428599Y10269970D01*
X43540030Y10381401D01*
X43671058Y10468951D01*
X43816646Y10529256D01*
X43816647Y10529256D01*
X43816649Y10529257D01*
X43971207Y10560000D01*
X44128793Y10560000D01*
X44283351Y10529257D01*
X44283351Y10529257D01*
G37*
G36*
X8000000Y9400000D02*
G01*
X5000000Y9400000D01*
X5000000Y10600000D01*
X8000000Y10600000D01*
X8000000Y9400000D01*
X8000000Y9400000D01*
G37*
G36*
X4000000Y9400000D02*
G01*
X1000000Y9400000D01*
X1000000Y10600000D01*
X4000000Y10600000D01*
X4000000Y9400000D01*
X4000000Y9400000D01*
G37*
G36*
X33000000Y9550000D02*
G01*
X32100000Y9550000D01*
X32100000Y10450000D01*
X33000000Y10450000D01*
X33000000Y9550000D01*
X33000000Y9550000D01*
G37*
G36*
X34900000Y9550000D02*
G01*
X34000000Y9550000D01*
X34000000Y10450000D01*
X34900000Y10450000D01*
X34900000Y9550000D01*
X34900000Y9550000D01*
G37*
G36*
X20963500Y9685000D02*
G01*
X18813500Y9685000D01*
X18813500Y10235000D01*
X20963500Y10235000D01*
X20963500Y9685000D01*
X20963500Y9685000D01*
G37*
G36*
X30450000Y10100000D02*
G01*
X29550000Y10100000D01*
X29550000Y11000000D01*
X30450000Y11000000D01*
X30450000Y10100000D01*
X30450000Y10100000D01*
G37*
G36*
X16950000Y10100000D02*
G01*
X16050000Y10100000D01*
X16050000Y11000000D01*
X16950000Y11000000D01*
X16950000Y10100000D01*
X16950000Y10100000D01*
G37*
G36*
X37900000Y10250000D02*
G01*
X36800000Y10250000D01*
X36800000Y12750000D01*
X37900000Y12750000D01*
X37900000Y10250000D01*
X37900000Y10250000D01*
G37*
G36*
X41200000Y10250000D02*
G01*
X40100000Y10250000D01*
X40100000Y12750000D01*
X41200000Y12750000D01*
X41200000Y10250000D01*
X41200000Y10250000D01*
G37*
G36*
X27249600Y10700000D02*
G01*
X25049600Y10700000D01*
X25049600Y14300000D01*
X27249600Y14300000D01*
X27249600Y10700000D01*
X27249600Y10700000D01*
G37*
G36*
X20963500Y10955000D02*
G01*
X18813500Y10955000D01*
X18813500Y11505000D01*
X20963500Y11505000D01*
X20963500Y10955000D01*
X20963500Y10955000D01*
G37*
G36*
X46823351Y13069257D02*
G01*
X46823353Y13069256D01*
X46823354Y13069256D01*
X46968942Y13008951D01*
X47099970Y12921401D01*
X47211401Y12809970D01*
X47298951Y12678942D01*
X47359256Y12533354D01*
X47390000Y12378791D01*
X47390000Y12221209D01*
X47359256Y12066646D01*
X47298951Y11921058D01*
X47211400Y11790029D01*
X47099971Y11678600D01*
X46968942Y11591049D01*
X46823354Y11530744D01*
X46823353Y11530744D01*
X46823351Y11530743D01*
X46668793Y11500000D01*
X46511207Y11500000D01*
X46356649Y11530743D01*
X46356647Y11530744D01*
X46356646Y11530744D01*
X46211058Y11591049D01*
X46080029Y11678600D01*
X45968600Y11790029D01*
X45881049Y11921058D01*
X45820744Y12066646D01*
X45790000Y12221209D01*
X45790000Y12378791D01*
X45820744Y12533354D01*
X45881049Y12678942D01*
X45968599Y12809970D01*
X46080030Y12921401D01*
X46211058Y13008951D01*
X46356646Y13069256D01*
X46356647Y13069256D01*
X46356649Y13069257D01*
X46511207Y13100000D01*
X46668793Y13100000D01*
X46823351Y13069257D01*
X46823351Y13069257D01*
G37*
G36*
X44283351Y13069257D02*
G01*
X44283353Y13069256D01*
X44283354Y13069256D01*
X44428942Y13008951D01*
X44559970Y12921401D01*
X44671401Y12809970D01*
X44758951Y12678942D01*
X44819256Y12533354D01*
X44850000Y12378791D01*
X44850000Y12221209D01*
X44819256Y12066646D01*
X44758951Y11921058D01*
X44671400Y11790029D01*
X44559971Y11678600D01*
X44428942Y11591049D01*
X44283354Y11530744D01*
X44283353Y11530744D01*
X44283351Y11530743D01*
X44128793Y11500000D01*
X43971207Y11500000D01*
X43816649Y11530743D01*
X43816647Y11530744D01*
X43816646Y11530744D01*
X43671058Y11591049D01*
X43540029Y11678600D01*
X43428600Y11790029D01*
X43341049Y11921058D01*
X43280744Y12066646D01*
X43250000Y12221209D01*
X43250000Y12378791D01*
X43280744Y12533354D01*
X43341049Y12678942D01*
X43428599Y12809970D01*
X43540030Y12921401D01*
X43671058Y13008951D01*
X43816646Y13069256D01*
X43816647Y13069256D01*
X43816649Y13069257D01*
X43971207Y13100000D01*
X44128793Y13100000D01*
X44283351Y13069257D01*
X44283351Y13069257D01*
G37*
G36*
X30450000Y12000000D02*
G01*
X29550000Y12000000D01*
X29550000Y12900000D01*
X30450000Y12900000D01*
X30450000Y12000000D01*
X30450000Y12000000D01*
G37*
G36*
X16950000Y12000000D02*
G01*
X16050000Y12000000D01*
X16050000Y12900000D01*
X16950000Y12900000D01*
X16950000Y12000000D01*
X16950000Y12000000D01*
G37*
G36*
X33000000Y12050000D02*
G01*
X32100000Y12050000D01*
X32100000Y12950000D01*
X33000000Y12950000D01*
X33000000Y12050000D01*
X33000000Y12050000D01*
G37*
G36*
X34900000Y12050000D02*
G01*
X34000000Y12050000D01*
X34000000Y12950000D01*
X34900000Y12950000D01*
X34900000Y12050000D01*
X34900000Y12050000D01*
G37*
G36*
X20963500Y12225000D02*
G01*
X18813500Y12225000D01*
X18813500Y12775000D01*
X20963500Y12775000D01*
X20963500Y12225000D01*
X20963500Y12225000D01*
G37*
G36*
X5600000Y13198000D02*
G01*
X4400000Y13198000D01*
X4400000Y15198000D01*
X5600000Y15198000D01*
X5600000Y13198000D01*
X5600000Y13198000D01*
G37*
G36*
X3314000Y13198000D02*
G01*
X2114000Y13198000D01*
X2114000Y15198000D01*
X3314000Y15198000D01*
X3314000Y13198000D01*
X3314000Y13198000D01*
G37*
G36*
X7886000Y13198000D02*
G01*
X6686000Y13198000D01*
X6686000Y15198000D01*
X7886000Y15198000D01*
X7886000Y13198000D01*
X7886000Y13198000D01*
G37*
G36*
X13650000Y13450000D02*
G01*
X12350000Y13450000D01*
X12350000Y14350000D01*
X13650000Y14350000D01*
X13650000Y13450000D01*
X13650000Y13450000D01*
G37*
G36*
X20963500Y13495000D02*
G01*
X18813500Y13495000D01*
X18813500Y14045000D01*
X20963500Y14045000D01*
X20963500Y13495000D01*
X20963500Y13495000D01*
G37*
G36*
X10450000Y13600000D02*
G01*
X9550000Y13600000D01*
X9550000Y14500000D01*
X10450000Y14500000D01*
X10450000Y13600000D01*
X10450000Y13600000D01*
G37*
G36*
X44283351Y15609257D02*
G01*
X44283353Y15609256D01*
X44283354Y15609256D01*
X44428942Y15548951D01*
X44559971Y15461400D01*
X44671400Y15349971D01*
X44758951Y15218942D01*
X44767626Y15198000D01*
X44819257Y15073351D01*
X44850000Y14918793D01*
X44850000Y14761207D01*
X44819257Y14606649D01*
X44758951Y14461058D01*
X44684745Y14350000D01*
X44671400Y14330029D01*
X44559971Y14218600D01*
X44428942Y14131049D01*
X44283354Y14070744D01*
X44283353Y14070744D01*
X44283351Y14070743D01*
X44128793Y14040000D01*
X43971207Y14040000D01*
X43816649Y14070743D01*
X43816647Y14070744D01*
X43816646Y14070744D01*
X43671058Y14131049D01*
X43540029Y14218600D01*
X43428600Y14330029D01*
X43415256Y14350000D01*
X43341049Y14461058D01*
X43280743Y14606649D01*
X43250000Y14761207D01*
X43250000Y14918793D01*
X43280743Y15073351D01*
X43332375Y15198000D01*
X43341049Y15218942D01*
X43428600Y15349971D01*
X43540029Y15461400D01*
X43671058Y15548951D01*
X43816646Y15609256D01*
X43816647Y15609256D01*
X43816649Y15609257D01*
X43971207Y15640000D01*
X44128793Y15640000D01*
X44283351Y15609257D01*
X44283351Y15609257D01*
G37*
G36*
X46823351Y15609257D02*
G01*
X46823353Y15609256D01*
X46823354Y15609256D01*
X46968942Y15548951D01*
X47099971Y15461400D01*
X47211400Y15349971D01*
X47298951Y15218942D01*
X47307626Y15198000D01*
X47359257Y15073351D01*
X47390000Y14918793D01*
X47390000Y14761207D01*
X47359257Y14606649D01*
X47298951Y14461058D01*
X47224745Y14350000D01*
X47211400Y14330029D01*
X47099971Y14218600D01*
X46968942Y14131049D01*
X46823354Y14070744D01*
X46823353Y14070744D01*
X46823351Y14070743D01*
X46668793Y14040000D01*
X46511207Y14040000D01*
X46356649Y14070743D01*
X46356647Y14070744D01*
X46356646Y14070744D01*
X46211058Y14131049D01*
X46080029Y14218600D01*
X45968600Y14330029D01*
X45955256Y14350000D01*
X45881049Y14461058D01*
X45820743Y14606649D01*
X45790000Y14761207D01*
X45790000Y14918793D01*
X45820743Y15073351D01*
X45872375Y15198000D01*
X45881049Y15218942D01*
X45968600Y15349971D01*
X46080029Y15461400D01*
X46211058Y15548951D01*
X46356646Y15609256D01*
X46356647Y15609256D01*
X46356649Y15609257D01*
X46511207Y15640000D01*
X46668793Y15640000D01*
X46823351Y15609257D01*
X46823351Y15609257D01*
G37*
G36*
X17150000Y14450000D02*
G01*
X15850000Y14450000D01*
X15850000Y15350000D01*
X17150000Y15350000D01*
X17150000Y14450000D01*
X17150000Y14450000D01*
G37*
G36*
X34900000Y14550000D02*
G01*
X34000000Y14550000D01*
X34000000Y15450000D01*
X34900000Y15450000D01*
X34900000Y14550000D01*
X34900000Y14550000D01*
G37*
G36*
X33000000Y14550000D02*
G01*
X32100000Y14550000D01*
X32100000Y15450000D01*
X33000000Y15450000D01*
X33000000Y14550000D01*
X33000000Y14550000D01*
G37*
G36*
X30450000Y14600000D02*
G01*
X29550000Y14600000D01*
X29550000Y15500000D01*
X30450000Y15500000D01*
X30450000Y14600000D01*
X30450000Y14600000D01*
G37*
G36*
X20963500Y14765000D02*
G01*
X18813500Y14765000D01*
X18813500Y15315000D01*
X20963500Y15315000D01*
X20963500Y14765000D01*
X20963500Y14765000D01*
G37*
G36*
X37900000Y15250000D02*
G01*
X36800000Y15250000D01*
X36800000Y17750000D01*
X37900000Y17750000D01*
X37900000Y15250000D01*
X37900000Y15250000D01*
G37*
G36*
X41200000Y15250000D02*
G01*
X40100000Y15250000D01*
X40100000Y17750000D01*
X41200000Y17750000D01*
X41200000Y15250000D01*
X41200000Y15250000D01*
G37*
G36*
X10450000Y15500000D02*
G01*
X9550000Y15500000D01*
X9550000Y16400000D01*
X10450000Y16400000D01*
X10450000Y15500000D01*
X10450000Y15500000D01*
G37*
G36*
X13650000Y15650000D02*
G01*
X12350000Y15650000D01*
X12350000Y16550000D01*
X13650000Y16550000D01*
X13650000Y15650000D01*
X13650000Y15650000D01*
G37*
G36*
X30450000Y16500000D02*
G01*
X29550000Y16500000D01*
X29550000Y17400000D01*
X30450000Y17400000D01*
X30450000Y16500000D01*
X30450000Y16500000D01*
G37*
G36*
X21400000Y16550000D02*
G01*
X20500000Y16550000D01*
X20500000Y17450000D01*
X21400000Y17450000D01*
X21400000Y16550000D01*
X21400000Y16550000D01*
G37*
G36*
X19500000Y16550000D02*
G01*
X18600000Y16550000D01*
X18600000Y17450000D01*
X19500000Y17450000D01*
X19500000Y16550000D01*
X19500000Y16550000D01*
G37*
G36*
X46823351Y18149257D02*
G01*
X46823353Y18149256D01*
X46823354Y18149256D01*
X46968942Y18088951D01*
X47099971Y18001400D01*
X47211400Y17889971D01*
X47298951Y17758942D01*
X47359256Y17613354D01*
X47390000Y17458791D01*
X47390000Y17301209D01*
X47359256Y17146646D01*
X47298951Y17001058D01*
X47211400Y16870029D01*
X47099971Y16758600D01*
X46968942Y16671049D01*
X46823354Y16610744D01*
X46823353Y16610744D01*
X46823351Y16610743D01*
X46668793Y16580000D01*
X46511207Y16580000D01*
X46356649Y16610743D01*
X46356647Y16610744D01*
X46356646Y16610744D01*
X46211058Y16671049D01*
X46080029Y16758600D01*
X45968600Y16870029D01*
X45881049Y17001058D01*
X45820744Y17146646D01*
X45790000Y17301209D01*
X45790000Y17458791D01*
X45820744Y17613354D01*
X45881049Y17758942D01*
X45968600Y17889971D01*
X46080029Y18001400D01*
X46211058Y18088951D01*
X46356646Y18149256D01*
X46356647Y18149256D01*
X46356649Y18149257D01*
X46511207Y18180000D01*
X46668793Y18180000D01*
X46823351Y18149257D01*
X46823351Y18149257D01*
G37*
G36*
X44283351Y18149257D02*
G01*
X44283353Y18149256D01*
X44283354Y18149256D01*
X44428942Y18088951D01*
X44559971Y18001400D01*
X44671400Y17889971D01*
X44758951Y17758942D01*
X44819256Y17613354D01*
X44850000Y17458791D01*
X44850000Y17301209D01*
X44819256Y17146646D01*
X44758951Y17001058D01*
X44671400Y16870029D01*
X44559971Y16758600D01*
X44428942Y16671049D01*
X44283354Y16610744D01*
X44283353Y16610744D01*
X44283351Y16610743D01*
X44128793Y16580000D01*
X43971207Y16580000D01*
X43816649Y16610743D01*
X43816647Y16610744D01*
X43816646Y16610744D01*
X43671058Y16671049D01*
X43540029Y16758600D01*
X43428600Y16870029D01*
X43341049Y17001058D01*
X43280744Y17146646D01*
X43250000Y17301209D01*
X43250000Y17458791D01*
X43280744Y17613354D01*
X43341049Y17758942D01*
X43428600Y17889971D01*
X43540029Y18001400D01*
X43671058Y18088951D01*
X43816646Y18149256D01*
X43816647Y18149256D01*
X43816649Y18149257D01*
X43971207Y18180000D01*
X44128793Y18180000D01*
X44283351Y18149257D01*
X44283351Y18149257D01*
G37*
G36*
X17150000Y16650000D02*
G01*
X15850000Y16650000D01*
X15850000Y17550000D01*
X17150000Y17550000D01*
X17150000Y16650000D01*
X17150000Y16650000D01*
G37*
G36*
X34900000Y17050000D02*
G01*
X34000000Y17050000D01*
X34000000Y17950000D01*
X34900000Y17950000D01*
X34900000Y17050000D01*
X34900000Y17050000D01*
G37*
G36*
X33000000Y17050000D02*
G01*
X32100000Y17050000D01*
X32100000Y17950000D01*
X33000000Y17950000D01*
X33000000Y17050000D01*
X33000000Y17050000D01*
G37*
G36*
X24750000Y17700000D02*
G01*
X23250000Y17700000D01*
X23250000Y21700000D01*
X24750000Y21700000D01*
X24750000Y17700000D01*
X24750000Y17700000D01*
G37*
G36*
X11000000Y18050000D02*
G01*
X10100000Y18050000D01*
X10100000Y18950000D01*
X11000000Y18950000D01*
X11000000Y18050000D01*
X11000000Y18050000D01*
G37*
G36*
X12900000Y18050000D02*
G01*
X12000000Y18050000D01*
X12000000Y18950000D01*
X12900000Y18950000D01*
X12900000Y18050000D01*
X12900000Y18050000D01*
G37*
G36*
X46900000Y19550000D02*
G01*
X46000000Y19550000D01*
X46000000Y20450000D01*
X46900000Y20450000D01*
X46900000Y19550000D01*
X46900000Y19550000D01*
G37*
G36*
X45000000Y19550000D02*
G01*
X44100000Y19550000D01*
X44100000Y20450000D01*
X45000000Y20450000D01*
X45000000Y19550000D01*
X45000000Y19550000D01*
G37*
G36*
X30450000Y19600000D02*
G01*
X29550000Y19600000D01*
X29550000Y20500000D01*
X30450000Y20500000D01*
X30450000Y19600000D01*
X30450000Y19600000D01*
G37*
G36*
X33450000Y19600000D02*
G01*
X32550000Y19600000D01*
X32550000Y20500000D01*
X33450000Y20500000D01*
X33450000Y19600000D01*
X33450000Y19600000D01*
G37*
G36*
X35450000Y19600000D02*
G01*
X34550000Y19600000D01*
X34550000Y20500000D01*
X35450000Y20500000D01*
X35450000Y19600000D01*
X35450000Y19600000D01*
G37*
G36*
X6800000Y19802000D02*
G01*
X3200000Y19802000D01*
X3200000Y21802000D01*
X6800000Y21802000D01*
X6800000Y19802000D01*
X6800000Y19802000D01*
G37*
G36*
X39850000Y20700000D02*
G01*
X38650000Y20700000D01*
X38650000Y22100000D01*
X39850000Y22100000D01*
X39850000Y20700000D01*
X39850000Y20700000D01*
G37*
G36*
X41550000Y20700000D02*
G01*
X40350000Y20700000D01*
X40350000Y22100000D01*
X41550000Y22100000D01*
X41550000Y20700000D01*
X41550000Y20700000D01*
G37*
G36*
X30450000Y21500000D02*
G01*
X29550000Y21500000D01*
X29550000Y22400000D01*
X30450000Y22400000D01*
X30450000Y21500000D01*
X30450000Y21500000D01*
G37*
G36*
X33450000Y21500000D02*
G01*
X32550000Y21500000D01*
X32550000Y22400000D01*
X33450000Y22400000D01*
X33450000Y21500000D01*
X33450000Y21500000D01*
G37*
G36*
X35450000Y21500000D02*
G01*
X34550000Y21500000D01*
X34550000Y22400000D01*
X35450000Y22400000D01*
X35450000Y21500000D01*
X35450000Y21500000D01*
G37*
G36*
X13600000Y21900000D02*
G01*
X10600000Y21900000D01*
X10600000Y23100000D01*
X13600000Y23100000D01*
X13600000Y21900000D01*
X13600000Y21900000D01*
G37*
G36*
X17600000Y21900000D02*
G01*
X14600000Y21900000D01*
X14600000Y23100000D01*
X17600000Y23100000D01*
X17600000Y21900000D01*
X17600000Y21900000D01*
G37*
G36*
X46900000Y22050000D02*
G01*
X46000000Y22050000D01*
X46000000Y22950000D01*
X46900000Y22950000D01*
X46900000Y22050000D01*
X46900000Y22050000D01*
G37*
G36*
X45000000Y22050000D02*
G01*
X44100000Y22050000D01*
X44100000Y22950000D01*
X45000000Y22950000D01*
X45000000Y22050000D01*
X45000000Y22050000D01*
G37*
G36*
X41550000Y22900000D02*
G01*
X40350000Y22900000D01*
X40350000Y24300000D01*
X41550000Y24300000D01*
X41550000Y22900000D01*
X41550000Y22900000D01*
G37*
G36*
X39850000Y22900000D02*
G01*
X38650000Y22900000D01*
X38650000Y24300000D01*
X39850000Y24300000D01*
X39850000Y22900000D01*
X39850000Y22900000D01*
G37*
G36*
X24750000Y23300000D02*
G01*
X23250000Y23300000D01*
X23250000Y27300000D01*
X24750000Y27300000D01*
X24750000Y23300000D01*
X24750000Y23300000D01*
G37*
G36*
X7500000Y23550000D02*
G01*
X6600000Y23550000D01*
X6600000Y24450000D01*
X7500000Y24450000D01*
X7500000Y23550000D01*
X7500000Y23550000D01*
G37*
G36*
X9400000Y23550000D02*
G01*
X8500000Y23550000D01*
X8500000Y24450000D01*
X9400000Y24450000D01*
X9400000Y23550000D01*
X9400000Y23550000D01*
G37*
G36*
X5450000Y23600000D02*
G01*
X4550000Y23600000D01*
X4550000Y24500000D01*
X5450000Y24500000D01*
X5450000Y23600000D01*
X5450000Y23600000D01*
G37*
G36*
X2950000Y23600000D02*
G01*
X2050000Y23600000D01*
X2050000Y24500000D01*
X2950000Y24500000D01*
X2950000Y23600000D01*
X2950000Y23600000D01*
G37*
G36*
X31900000Y24050000D02*
G01*
X31000000Y24050000D01*
X31000000Y24950000D01*
X31900000Y24950000D01*
X31900000Y24050000D01*
X31900000Y24050000D01*
G37*
G36*
X30000000Y24050000D02*
G01*
X29100000Y24050000D01*
X29100000Y24950000D01*
X30000000Y24950000D01*
X30000000Y24050000D01*
X30000000Y24050000D01*
G37*
G36*
X34450000Y24100000D02*
G01*
X33550000Y24100000D01*
X33550000Y25000000D01*
X34450000Y25000000D01*
X34450000Y24100000D01*
X34450000Y24100000D01*
G37*
G36*
X45000001Y24550000D02*
G01*
X44100001Y24550000D01*
X44100001Y25450000D01*
X45000001Y25450000D01*
X45000001Y24550000D01*
X45000001Y24550000D01*
G37*
G36*
X46899999Y24550000D02*
G01*
X45999999Y24550000D01*
X45999999Y25450000D01*
X46899999Y25450000D01*
X46899999Y24550000D01*
X46899999Y24550000D01*
G37*
G36*
X2950000Y25500000D02*
G01*
X2050000Y25500000D01*
X2050000Y26400000D01*
X2950000Y26400000D01*
X2950000Y25500000D01*
X2950000Y25500000D01*
G37*
G36*
X5450000Y25500000D02*
G01*
X4550000Y25500000D01*
X4550000Y26400000D01*
X5450000Y26400000D01*
X5450000Y25500000D01*
X5450000Y25500000D01*
G37*
G36*
X39500000Y25550000D02*
G01*
X38600000Y25550000D01*
X38600000Y26450000D01*
X39500000Y26450000D01*
X39500000Y25550000D01*
X39500000Y25550000D01*
G37*
G36*
X41400000Y25550000D02*
G01*
X40500000Y25550000D01*
X40500000Y26450000D01*
X41400000Y26450000D01*
X41400000Y25550000D01*
X41400000Y25550000D01*
G37*
G36*
X34450000Y26000000D02*
G01*
X33550000Y26000000D01*
X33550000Y26900000D01*
X34450000Y26900000D01*
X34450000Y26000000D01*
X34450000Y26000000D01*
G37*
G36*
X19900000Y26550000D02*
G01*
X19000000Y26550000D01*
X19000000Y27450000D01*
X19900000Y27450000D01*
X19900000Y26550000D01*
X19900000Y26550000D01*
G37*
G36*
X18000000Y26550000D02*
G01*
X17100000Y26550000D01*
X17100000Y27450000D01*
X18000000Y27450000D01*
X18000000Y26550000D01*
X18000000Y26550000D01*
G37*
G36*
X31900000Y26550000D02*
G01*
X31000000Y26550000D01*
X31000000Y27450000D01*
X31900000Y27450000D01*
X31900000Y26550000D01*
X31900000Y26550000D01*
G37*
G36*
X30000000Y26550000D02*
G01*
X29100000Y26550000D01*
X29100000Y27450000D01*
X30000000Y27450000D01*
X30000000Y26550000D01*
X30000000Y26550000D01*
G37*
G36*
X6718767Y28221178D02*
G01*
X6718769Y28221177D01*
X6718770Y28221177D01*
X6855258Y28164642D01*
X6978098Y28082563D01*
X7082563Y27978098D01*
X7164642Y27855258D01*
X7221177Y27718770D01*
X7250000Y27573867D01*
X7250000Y27426133D01*
X7221177Y27281230D01*
X7164642Y27144742D01*
X7082563Y27021902D01*
X6978098Y26917437D01*
X6855258Y26835358D01*
X6718770Y26778823D01*
X6718769Y26778823D01*
X6718767Y26778822D01*
X6573869Y26750000D01*
X6426131Y26750000D01*
X6281233Y26778822D01*
X6281231Y26778823D01*
X6281230Y26778823D01*
X6144742Y26835358D01*
X6021902Y26917437D01*
X5917437Y27021902D01*
X5835358Y27144742D01*
X5778823Y27281230D01*
X5750000Y27426133D01*
X5750000Y27573867D01*
X5778823Y27718770D01*
X5835358Y27855258D01*
X5917437Y27978098D01*
X6021902Y28082563D01*
X6144742Y28164642D01*
X6281230Y28221177D01*
X6281231Y28221177D01*
X6281233Y28221178D01*
X6426131Y28250000D01*
X6573869Y28250000D01*
X6718767Y28221178D01*
X6718767Y28221178D01*
G37*
G36*
X12700000Y26750000D02*
G01*
X11600000Y26750000D01*
X11600000Y29250000D01*
X12700000Y29250000D01*
X12700000Y26750000D01*
X12700000Y26750000D01*
G37*
G36*
X9400000Y26750000D02*
G01*
X8300000Y26750000D01*
X8300000Y29250000D01*
X9400000Y29250000D01*
X9400000Y26750000D01*
X9400000Y26750000D01*
G37*
G36*
X45000000Y27050000D02*
G01*
X44100000Y27050000D01*
X44100000Y27950000D01*
X45000000Y27950000D01*
X45000000Y27050000D01*
X45000000Y27050000D01*
G37*
G36*
X46900000Y27050000D02*
G01*
X46000000Y27050000D01*
X46000000Y27950000D01*
X46900000Y27950000D01*
X46900000Y27050000D01*
X46900000Y27050000D01*
G37*
G36*
X41700000Y28250000D02*
G01*
X40600000Y28250000D01*
X40600000Y30750000D01*
X41700000Y30750000D01*
X41700000Y28250000D01*
X41700000Y28250000D01*
G37*
G36*
X38400000Y28250000D02*
G01*
X37300000Y28250000D01*
X37300000Y30750000D01*
X38400000Y30750000D01*
X38400000Y28250000D01*
X38400000Y28250000D01*
G37*
G36*
X15000000Y28550000D02*
G01*
X14100000Y28550000D01*
X14100000Y29450000D01*
X15000000Y29450000D01*
X15000000Y28550000D01*
X15000000Y28550000D01*
G37*
G36*
X22400000Y28550000D02*
G01*
X21500000Y28550000D01*
X21500000Y29450000D01*
X22400000Y29450000D01*
X22400000Y28550000D01*
X22400000Y28550000D01*
G37*
G36*
X20500000Y28550000D02*
G01*
X19600000Y28550000D01*
X19600000Y29450000D01*
X20500000Y29450000D01*
X20500000Y28550000D01*
X20500000Y28550000D01*
G37*
G36*
X16900000Y28550000D02*
G01*
X16000000Y28550000D01*
X16000000Y29450000D01*
X16900000Y29450000D01*
X16900000Y28550000D01*
X16900000Y28550000D01*
G37*
G36*
X4000000Y29550000D02*
G01*
X3100000Y29550000D01*
X3100000Y30450000D01*
X4000000Y30450000D01*
X4000000Y29550000D01*
X4000000Y29550000D01*
G37*
G36*
X35900000Y29550000D02*
G01*
X35000000Y29550000D01*
X35000000Y30450000D01*
X35900000Y30450000D01*
X35900000Y29550000D01*
X35900000Y29550000D01*
G37*
G36*
X34000000Y29550000D02*
G01*
X33100000Y29550000D01*
X33100000Y30450000D01*
X34000000Y30450000D01*
X34000000Y29550000D01*
X34000000Y29550000D01*
G37*
G36*
X5900000Y29550000D02*
G01*
X5000000Y29550000D01*
X5000000Y30450000D01*
X5900000Y30450000D01*
X5900000Y29550000D01*
X5900000Y29550000D01*
G37*
G36*
X46900000Y29550000D02*
G01*
X46000000Y29550000D01*
X46000000Y30450000D01*
X46900000Y30450000D01*
X46900000Y29550000D01*
X46900000Y29550000D01*
G37*
G36*
X45000000Y29550000D02*
G01*
X44100000Y29550000D01*
X44100000Y30450000D01*
X45000000Y30450000D01*
X45000000Y29550000D01*
X45000000Y29550000D01*
G37*
G36*
X9400000Y30750000D02*
G01*
X8300000Y30750000D01*
X8300000Y33250000D01*
X9400000Y33250000D01*
X9400000Y30750000D01*
X9400000Y30750000D01*
G37*
G36*
X12700000Y30750000D02*
G01*
X11600000Y30750000D01*
X11600000Y33250000D01*
X12700000Y33250000D01*
X12700000Y30750000D01*
X12700000Y30750000D01*
G37*
G36*
X16900000Y31050000D02*
G01*
X16000000Y31050000D01*
X16000000Y31950000D01*
X16900000Y31950000D01*
X16900000Y31050000D01*
X16900000Y31050000D01*
G37*
G36*
X15000000Y31050000D02*
G01*
X14100000Y31050000D01*
X14100000Y31950000D01*
X15000000Y31950000D01*
X15000000Y31050000D01*
X15000000Y31050000D01*
G37*
G36*
X26900000Y31150000D02*
G01*
X26600000Y31150000D01*
X26600000Y32350000D01*
X26900000Y32350000D01*
X26900000Y31150000D01*
X26900000Y31150000D01*
G37*
G36*
X26399999Y31150000D02*
G01*
X26099999Y31150000D01*
X26099999Y32350000D01*
X26399999Y32350000D01*
X26399999Y31150000D01*
X26399999Y31150000D01*
G37*
G36*
X25400000Y31150000D02*
G01*
X25100000Y31150000D01*
X25100000Y32350000D01*
X25400000Y32350000D01*
X25400000Y31150000D01*
X25400000Y31150000D01*
G37*
G36*
X24400000Y31150000D02*
G01*
X24100000Y31150000D01*
X24100000Y32350000D01*
X24400000Y32350000D01*
X24400000Y31150000D01*
X24400000Y31150000D01*
G37*
G36*
X23900001Y31150000D02*
G01*
X23600001Y31150000D01*
X23600001Y32350000D01*
X23900001Y32350000D01*
X23900001Y31150000D01*
X23900001Y31150000D01*
G37*
G36*
X23400000Y31150000D02*
G01*
X23100000Y31150000D01*
X23100000Y32350000D01*
X23400000Y32350000D01*
X23400000Y31150000D01*
X23400000Y31150000D01*
G37*
G36*
X22900000Y31150000D02*
G01*
X22600000Y31150000D01*
X22600000Y32350000D01*
X22900000Y32350000D01*
X22900000Y31150000D01*
X22900000Y31150000D01*
G37*
G36*
X24900000Y31150000D02*
G01*
X24600000Y31150000D01*
X24600000Y32350000D01*
X24900000Y32350000D01*
X24900000Y31150000D01*
X24900000Y31150000D01*
G37*
G36*
X25900000Y31150000D02*
G01*
X25600000Y31150000D01*
X25600000Y32350000D01*
X25900000Y32350000D01*
X25900000Y31150000D01*
X25900000Y31150000D01*
G37*
G36*
X22400000Y31150000D02*
G01*
X22100000Y31150000D01*
X22100000Y32350000D01*
X22400000Y32350000D01*
X22400000Y31150000D01*
X22400000Y31150000D01*
G37*
G36*
X27400000Y31150000D02*
G01*
X27100000Y31150000D01*
X27100000Y32350000D01*
X27400000Y32350000D01*
X27400000Y31150000D01*
X27400000Y31150000D01*
G37*
G36*
X21400001Y31150000D02*
G01*
X21100001Y31150000D01*
X21100001Y32350000D01*
X21400001Y32350000D01*
X21400001Y31150000D01*
X21400001Y31150000D01*
G37*
G36*
X27900000Y31150000D02*
G01*
X27600000Y31150000D01*
X27600000Y32350000D01*
X27900000Y32350000D01*
X27900000Y31150000D01*
X27900000Y31150000D01*
G37*
G36*
X28899999Y31150000D02*
G01*
X28599999Y31150000D01*
X28599999Y32350000D01*
X28899999Y32350000D01*
X28899999Y31150000D01*
X28899999Y31150000D01*
G37*
G36*
X28400000Y31150000D02*
G01*
X28100000Y31150000D01*
X28100000Y32350000D01*
X28400000Y32350000D01*
X28400000Y31150000D01*
X28400000Y31150000D01*
G37*
G36*
X21900000Y31150000D02*
G01*
X21600000Y31150000D01*
X21600000Y32350000D01*
X21900000Y32350000D01*
X21900000Y31150000D01*
X21900000Y31150000D01*
G37*
G36*
X44283351Y33389257D02*
G01*
X44283353Y33389256D01*
X44283354Y33389256D01*
X44428942Y33328951D01*
X44547101Y33250000D01*
X44559971Y33241400D01*
X44671400Y33129971D01*
X44758951Y32998942D01*
X44819256Y32853354D01*
X44850000Y32698791D01*
X44850000Y32541209D01*
X44819256Y32386646D01*
X44758951Y32241058D01*
X44671400Y32110029D01*
X44559971Y31998600D01*
X44428942Y31911049D01*
X44283354Y31850744D01*
X44283353Y31850744D01*
X44283351Y31850743D01*
X44128793Y31820000D01*
X43971207Y31820000D01*
X43816649Y31850743D01*
X43816647Y31850744D01*
X43816646Y31850744D01*
X43671058Y31911049D01*
X43540029Y31998600D01*
X43428600Y32110029D01*
X43341049Y32241058D01*
X43280744Y32386646D01*
X43250000Y32541209D01*
X43250000Y32698791D01*
X43280744Y32853354D01*
X43341049Y32998942D01*
X43428600Y33129971D01*
X43540029Y33241400D01*
X43552900Y33250000D01*
X43671058Y33328951D01*
X43816646Y33389256D01*
X43816647Y33389256D01*
X43816649Y33389257D01*
X43971207Y33420000D01*
X44128793Y33420000D01*
X44283351Y33389257D01*
X44283351Y33389257D01*
G37*
G36*
X3643351Y33389257D02*
G01*
X3643353Y33389256D01*
X3643354Y33389256D01*
X3788942Y33328951D01*
X3907101Y33250000D01*
X3919971Y33241400D01*
X4031400Y33129971D01*
X4118951Y32998942D01*
X4179256Y32853354D01*
X4210000Y32698791D01*
X4210000Y32541209D01*
X4179256Y32386646D01*
X4118951Y32241058D01*
X4031400Y32110029D01*
X3919971Y31998600D01*
X3788942Y31911049D01*
X3643354Y31850744D01*
X3643353Y31850744D01*
X3643351Y31850743D01*
X3488793Y31820000D01*
X3331207Y31820000D01*
X3176649Y31850743D01*
X3176647Y31850744D01*
X3176646Y31850744D01*
X3031058Y31911049D01*
X2900029Y31998600D01*
X2788600Y32110029D01*
X2701049Y32241058D01*
X2640744Y32386646D01*
X2610000Y32541209D01*
X2610000Y32698791D01*
X2640744Y32853354D01*
X2701049Y32998942D01*
X2788600Y33129971D01*
X2900029Y33241400D01*
X2912900Y33250000D01*
X3031058Y33328951D01*
X3176646Y33389256D01*
X3176647Y33389256D01*
X3176649Y33389257D01*
X3331207Y33420000D01*
X3488793Y33420000D01*
X3643351Y33389257D01*
X3643351Y33389257D01*
G37*
G36*
X47390000Y31820000D02*
G01*
X45790000Y31820000D01*
X45790000Y33420000D01*
X47390000Y33420000D01*
X47390000Y31820000D01*
X47390000Y31820000D01*
G37*
G36*
X6183351Y33389257D02*
G01*
X6183353Y33389256D01*
X6183354Y33389256D01*
X6328942Y33328951D01*
X6447101Y33250000D01*
X6459971Y33241400D01*
X6571400Y33129971D01*
X6658951Y32998942D01*
X6719256Y32853354D01*
X6750000Y32698791D01*
X6750000Y32541209D01*
X6719256Y32386646D01*
X6658951Y32241058D01*
X6571400Y32110029D01*
X6459971Y31998600D01*
X6328942Y31911049D01*
X6183354Y31850744D01*
X6183353Y31850744D01*
X6183351Y31850743D01*
X6028793Y31820000D01*
X5871207Y31820000D01*
X5716649Y31850743D01*
X5716647Y31850744D01*
X5716646Y31850744D01*
X5571058Y31911049D01*
X5440029Y31998600D01*
X5328600Y32110029D01*
X5241049Y32241058D01*
X5180744Y32386646D01*
X5150000Y32541209D01*
X5150000Y32698791D01*
X5180744Y32853354D01*
X5241049Y32998942D01*
X5328600Y33129971D01*
X5440029Y33241400D01*
X5452900Y33250000D01*
X5571058Y33328951D01*
X5716646Y33389256D01*
X5716647Y33389256D01*
X5716649Y33389257D01*
X5871207Y33420000D01*
X6028793Y33420000D01*
X6183351Y33389257D01*
X6183351Y33389257D01*
G37*
G36*
X35900000Y32050000D02*
G01*
X35000000Y32050000D01*
X35000000Y32950000D01*
X35900000Y32950000D01*
X35900000Y32050000D01*
X35900000Y32050000D01*
G37*
G36*
X34000000Y32050000D02*
G01*
X33100000Y32050000D01*
X33100000Y32950000D01*
X34000000Y32950000D01*
X34000000Y32050000D01*
X34000000Y32050000D01*
G37*
G36*
X38400000Y32250000D02*
G01*
X37300000Y32250000D01*
X37300000Y34750000D01*
X38400000Y34750000D01*
X38400000Y32250000D01*
X38400000Y32250000D01*
G37*
G36*
X41700000Y32250000D02*
G01*
X40600000Y32250000D01*
X40600000Y34750000D01*
X41700000Y34750000D01*
X41700000Y32250000D01*
X41700000Y32250000D01*
G37*
G36*
X15000000Y33550000D02*
G01*
X14100000Y33550000D01*
X14100000Y34450000D01*
X15000000Y34450000D01*
X15000000Y33550000D01*
X15000000Y33550000D01*
G37*
G36*
X16900000Y33550000D02*
G01*
X16000000Y33550000D01*
X16000000Y34450000D01*
X16900000Y34450000D01*
X16900000Y33550000D01*
X16900000Y33550000D01*
G37*
G36*
X31350000Y33600001D02*
G01*
X30150000Y33600001D01*
X30150000Y33900001D01*
X31350000Y33900001D01*
X31350000Y33600001D01*
X31350000Y33600001D01*
G37*
G36*
X19850000Y33600001D02*
G01*
X18650000Y33600001D01*
X18650000Y33900001D01*
X19850000Y33900001D01*
X19850000Y33600001D01*
X19850000Y33600001D01*
G37*
G36*
X31350000Y34100000D02*
G01*
X30150000Y34100000D01*
X30150000Y34400000D01*
X31350000Y34400000D01*
X31350000Y34100000D01*
X31350000Y34100000D01*
G37*
G36*
X19850000Y34100000D02*
G01*
X18650000Y34100000D01*
X18650000Y34400000D01*
X19850000Y34400000D01*
X19850000Y34100000D01*
X19850000Y34100000D01*
G37*
G36*
X46823351Y35929257D02*
G01*
X46823353Y35929256D01*
X46823354Y35929256D01*
X46968942Y35868951D01*
X47099971Y35781400D01*
X47211400Y35669971D01*
X47298951Y35538942D01*
X47359256Y35393354D01*
X47390000Y35238791D01*
X47390000Y35081209D01*
X47359256Y34926646D01*
X47298951Y34781058D01*
X47211400Y34650029D01*
X47099971Y34538600D01*
X46968942Y34451049D01*
X46823354Y34390744D01*
X46823353Y34390744D01*
X46823351Y34390743D01*
X46668793Y34360000D01*
X46511207Y34360000D01*
X46356649Y34390743D01*
X46356647Y34390744D01*
X46356646Y34390744D01*
X46211058Y34451049D01*
X46080029Y34538600D01*
X45968600Y34650029D01*
X45881049Y34781058D01*
X45820744Y34926646D01*
X45790000Y35081209D01*
X45790000Y35238791D01*
X45820744Y35393354D01*
X45881049Y35538942D01*
X45968600Y35669971D01*
X46080029Y35781400D01*
X46211058Y35868951D01*
X46356646Y35929256D01*
X46356647Y35929256D01*
X46356649Y35929257D01*
X46511207Y35960000D01*
X46668793Y35960000D01*
X46823351Y35929257D01*
X46823351Y35929257D01*
G37*
G36*
X6183351Y35929257D02*
G01*
X6183353Y35929256D01*
X6183354Y35929256D01*
X6328942Y35868951D01*
X6459971Y35781400D01*
X6571400Y35669971D01*
X6658951Y35538942D01*
X6719256Y35393354D01*
X6750000Y35238791D01*
X6750000Y35081209D01*
X6719256Y34926646D01*
X6658951Y34781058D01*
X6571400Y34650029D01*
X6459971Y34538600D01*
X6328942Y34451049D01*
X6183354Y34390744D01*
X6183353Y34390744D01*
X6183351Y34390743D01*
X6028793Y34360000D01*
X5871207Y34360000D01*
X5716649Y34390743D01*
X5716647Y34390744D01*
X5716646Y34390744D01*
X5571058Y34451049D01*
X5440029Y34538600D01*
X5328600Y34650029D01*
X5241049Y34781058D01*
X5180744Y34926646D01*
X5150000Y35081209D01*
X5150000Y35238791D01*
X5180744Y35393354D01*
X5241049Y35538942D01*
X5328600Y35669971D01*
X5440029Y35781400D01*
X5571058Y35868951D01*
X5716646Y35929256D01*
X5716647Y35929256D01*
X5716649Y35929257D01*
X5871207Y35960000D01*
X6028793Y35960000D01*
X6183351Y35929257D01*
X6183351Y35929257D01*
G37*
G36*
X3643351Y35929257D02*
G01*
X3643353Y35929256D01*
X3643354Y35929256D01*
X3788942Y35868951D01*
X3919971Y35781400D01*
X4031400Y35669971D01*
X4118951Y35538942D01*
X4179256Y35393354D01*
X4210000Y35238791D01*
X4210000Y35081209D01*
X4179256Y34926646D01*
X4118951Y34781058D01*
X4031400Y34650029D01*
X3919971Y34538600D01*
X3788942Y34451049D01*
X3643354Y34390744D01*
X3643353Y34390744D01*
X3643351Y34390743D01*
X3488793Y34360000D01*
X3331207Y34360000D01*
X3176649Y34390743D01*
X3176647Y34390744D01*
X3176646Y34390744D01*
X3031058Y34451049D01*
X2900029Y34538600D01*
X2788600Y34650029D01*
X2701049Y34781058D01*
X2640744Y34926646D01*
X2610000Y35081209D01*
X2610000Y35238791D01*
X2640744Y35393354D01*
X2701049Y35538942D01*
X2788600Y35669971D01*
X2900029Y35781400D01*
X3031058Y35868951D01*
X3176646Y35929256D01*
X3176647Y35929256D01*
X3176649Y35929257D01*
X3331207Y35960000D01*
X3488793Y35960000D01*
X3643351Y35929257D01*
X3643351Y35929257D01*
G37*
G36*
X44283351Y35929257D02*
G01*
X44283353Y35929256D01*
X44283354Y35929256D01*
X44428942Y35868951D01*
X44559971Y35781400D01*
X44671400Y35669971D01*
X44758951Y35538942D01*
X44819256Y35393354D01*
X44850000Y35238791D01*
X44850000Y35081209D01*
X44819256Y34926646D01*
X44758951Y34781058D01*
X44671400Y34650029D01*
X44559971Y34538600D01*
X44428942Y34451049D01*
X44283354Y34390744D01*
X44283353Y34390744D01*
X44283351Y34390743D01*
X44128793Y34360000D01*
X43971207Y34360000D01*
X43816649Y34390743D01*
X43816647Y34390744D01*
X43816646Y34390744D01*
X43671058Y34451049D01*
X43540029Y34538600D01*
X43428600Y34650029D01*
X43341049Y34781058D01*
X43280744Y34926646D01*
X43250000Y35081209D01*
X43250000Y35238791D01*
X43280744Y35393354D01*
X43341049Y35538942D01*
X43428600Y35669971D01*
X43540029Y35781400D01*
X43671058Y35868951D01*
X43816646Y35929256D01*
X43816647Y35929256D01*
X43816649Y35929257D01*
X43971207Y35960000D01*
X44128793Y35960000D01*
X44283351Y35929257D01*
X44283351Y35929257D01*
G37*
G36*
X34000000Y34550000D02*
G01*
X33100000Y34550000D01*
X33100000Y35450000D01*
X34000000Y35450000D01*
X34000000Y34550000D01*
X34000000Y34550000D01*
G37*
G36*
X35900000Y34550000D02*
G01*
X35000000Y34550000D01*
X35000000Y35450000D01*
X35900000Y35450000D01*
X35900000Y34550000D01*
X35900000Y34550000D01*
G37*
G36*
X31350000Y34600000D02*
G01*
X30150000Y34600000D01*
X30150000Y34900000D01*
X31350000Y34900000D01*
X31350000Y34600000D01*
X31350000Y34600000D01*
G37*
G36*
X19850000Y34600000D02*
G01*
X18650000Y34600000D01*
X18650000Y34900000D01*
X19850000Y34900000D01*
X19850000Y34600000D01*
X19850000Y34600000D01*
G37*
G36*
X9400000Y34750000D02*
G01*
X8300000Y34750000D01*
X8300000Y37250000D01*
X9400000Y37250000D01*
X9400000Y34750000D01*
X9400000Y34750000D01*
G37*
G36*
X12700000Y34750000D02*
G01*
X11600000Y34750000D01*
X11600000Y37250000D01*
X12700000Y37250000D01*
X12700000Y34750000D01*
X12700000Y34750000D01*
G37*
G36*
X19850000Y35100000D02*
G01*
X18650000Y35100000D01*
X18650000Y35400000D01*
X19850000Y35400000D01*
X19850000Y35100000D01*
X19850000Y35100000D01*
G37*
G36*
X31350000Y35100000D02*
G01*
X30150000Y35100000D01*
X30150000Y35400000D01*
X31350000Y35400000D01*
X31350000Y35100000D01*
X31350000Y35100000D01*
G37*
G36*
X31350000Y35600000D02*
G01*
X30150000Y35600000D01*
X30150000Y35900000D01*
X31350000Y35900000D01*
X31350000Y35600000D01*
X31350000Y35600000D01*
G37*
G36*
X19850000Y35600000D02*
G01*
X18650000Y35600000D01*
X18650000Y35900000D01*
X19850000Y35900000D01*
X19850000Y35600000D01*
X19850000Y35600000D01*
G37*
G36*
X31350000Y36100001D02*
G01*
X30150000Y36100001D01*
X30150000Y36400001D01*
X31350000Y36400001D01*
X31350000Y36100001D01*
X31350000Y36100001D01*
G37*
G36*
X19850000Y36100001D02*
G01*
X18650000Y36100001D01*
X18650000Y36400001D01*
X19850000Y36400001D01*
X19850000Y36100001D01*
X19850000Y36100001D01*
G37*
G36*
X41700000Y36250000D02*
G01*
X40600000Y36250000D01*
X40600000Y38750000D01*
X41700000Y38750000D01*
X41700000Y36250000D01*
X41700000Y36250000D01*
G37*
G36*
X38400000Y36250000D02*
G01*
X37300000Y36250000D01*
X37300000Y38750000D01*
X38400000Y38750000D01*
X38400000Y36250000D01*
X38400000Y36250000D01*
G37*
G36*
X31350000Y36600000D02*
G01*
X30150000Y36600000D01*
X30150000Y36900000D01*
X31350000Y36900000D01*
X31350000Y36600000D01*
X31350000Y36600000D01*
G37*
G36*
X19850000Y36600000D02*
G01*
X18650000Y36600000D01*
X18650000Y36900000D01*
X19850000Y36900000D01*
X19850000Y36600000D01*
X19850000Y36600000D01*
G37*
G36*
X46823351Y38469257D02*
G01*
X46823353Y38469256D01*
X46823354Y38469256D01*
X46968942Y38408951D01*
X47099970Y38321401D01*
X47211401Y38209970D01*
X47298951Y38078942D01*
X47359257Y37933351D01*
X47390000Y37778793D01*
X47390000Y37621207D01*
X47359257Y37466649D01*
X47298951Y37321058D01*
X47211401Y37190030D01*
X47099970Y37078599D01*
X46968942Y36991049D01*
X46823354Y36930744D01*
X46823353Y36930744D01*
X46823351Y36930743D01*
X46668793Y36900000D01*
X46511207Y36900000D01*
X46356649Y36930743D01*
X46356647Y36930744D01*
X46356646Y36930744D01*
X46211058Y36991049D01*
X46080030Y37078599D01*
X45968599Y37190030D01*
X45881049Y37321058D01*
X45820743Y37466649D01*
X45790000Y37621207D01*
X45790000Y37778793D01*
X45820743Y37933351D01*
X45881049Y38078942D01*
X45968599Y38209970D01*
X46080030Y38321401D01*
X46211058Y38408951D01*
X46356646Y38469256D01*
X46356647Y38469256D01*
X46356649Y38469257D01*
X46511207Y38500000D01*
X46668793Y38500000D01*
X46823351Y38469257D01*
X46823351Y38469257D01*
G37*
G36*
X44283351Y38469257D02*
G01*
X44283353Y38469256D01*
X44283354Y38469256D01*
X44428942Y38408951D01*
X44559970Y38321401D01*
X44671401Y38209970D01*
X44758951Y38078942D01*
X44819257Y37933351D01*
X44850000Y37778793D01*
X44850000Y37621207D01*
X44819257Y37466649D01*
X44758951Y37321058D01*
X44671401Y37190030D01*
X44559970Y37078599D01*
X44428942Y36991049D01*
X44283354Y36930744D01*
X44283353Y36930744D01*
X44283351Y36930743D01*
X44128793Y36900000D01*
X43971207Y36900000D01*
X43816649Y36930743D01*
X43816647Y36930744D01*
X43816646Y36930744D01*
X43671058Y36991049D01*
X43540030Y37078599D01*
X43428599Y37190030D01*
X43341049Y37321058D01*
X43280743Y37466649D01*
X43250000Y37621207D01*
X43250000Y37778793D01*
X43280743Y37933351D01*
X43341049Y38078942D01*
X43428599Y38209970D01*
X43540030Y38321401D01*
X43671058Y38408951D01*
X43816646Y38469256D01*
X43816647Y38469256D01*
X43816649Y38469257D01*
X43971207Y38500000D01*
X44128793Y38500000D01*
X44283351Y38469257D01*
X44283351Y38469257D01*
G37*
G36*
X6183351Y38469257D02*
G01*
X6183353Y38469256D01*
X6183354Y38469256D01*
X6328942Y38408951D01*
X6459970Y38321401D01*
X6571401Y38209970D01*
X6658951Y38078942D01*
X6719257Y37933351D01*
X6750000Y37778793D01*
X6750000Y37621207D01*
X6719257Y37466649D01*
X6658951Y37321058D01*
X6571401Y37190030D01*
X6459970Y37078599D01*
X6328942Y36991049D01*
X6183354Y36930744D01*
X6183353Y36930744D01*
X6183351Y36930743D01*
X6028793Y36900000D01*
X5871207Y36900000D01*
X5716649Y36930743D01*
X5716647Y36930744D01*
X5716646Y36930744D01*
X5571058Y36991049D01*
X5440030Y37078599D01*
X5328599Y37190030D01*
X5241049Y37321058D01*
X5180743Y37466649D01*
X5150000Y37621207D01*
X5150000Y37778793D01*
X5180743Y37933351D01*
X5241049Y38078942D01*
X5328599Y38209970D01*
X5440030Y38321401D01*
X5571058Y38408951D01*
X5716646Y38469256D01*
X5716647Y38469256D01*
X5716649Y38469257D01*
X5871207Y38500000D01*
X6028793Y38500000D01*
X6183351Y38469257D01*
X6183351Y38469257D01*
G37*
G36*
X3643351Y38469257D02*
G01*
X3643353Y38469256D01*
X3643354Y38469256D01*
X3788942Y38408951D01*
X3919970Y38321401D01*
X4031401Y38209970D01*
X4118951Y38078942D01*
X4179257Y37933351D01*
X4210000Y37778793D01*
X4210000Y37621207D01*
X4179257Y37466649D01*
X4118951Y37321058D01*
X4031401Y37190030D01*
X3919970Y37078599D01*
X3788942Y36991049D01*
X3643354Y36930744D01*
X3643353Y36930744D01*
X3643351Y36930743D01*
X3488793Y36900000D01*
X3331207Y36900000D01*
X3176649Y36930743D01*
X3176647Y36930744D01*
X3176646Y36930744D01*
X3031058Y36991049D01*
X2900030Y37078599D01*
X2788599Y37190030D01*
X2701049Y37321058D01*
X2640743Y37466649D01*
X2610000Y37621207D01*
X2610000Y37778793D01*
X2640743Y37933351D01*
X2701049Y38078942D01*
X2788599Y38209970D01*
X2900030Y38321401D01*
X3031058Y38408951D01*
X3176646Y38469256D01*
X3176647Y38469256D01*
X3176649Y38469257D01*
X3331207Y38500000D01*
X3488793Y38500000D01*
X3643351Y38469257D01*
X3643351Y38469257D01*
G37*
G36*
X15000000Y37050000D02*
G01*
X14100000Y37050000D01*
X14100000Y37950000D01*
X15000000Y37950000D01*
X15000000Y37050000D01*
X15000000Y37050000D01*
G37*
G36*
X16900000Y37050000D02*
G01*
X16000000Y37050000D01*
X16000000Y37950000D01*
X16900000Y37950000D01*
X16900000Y37050000D01*
X16900000Y37050000D01*
G37*
G36*
X34000000Y37050000D02*
G01*
X33100000Y37050000D01*
X33100000Y37950000D01*
X34000000Y37950000D01*
X34000000Y37050000D01*
X34000000Y37050000D01*
G37*
G36*
X35900000Y37050000D02*
G01*
X35000000Y37050000D01*
X35000000Y37950000D01*
X35900000Y37950000D01*
X35900000Y37050000D01*
X35900000Y37050000D01*
G37*
G36*
X19850000Y37100000D02*
G01*
X18650000Y37100000D01*
X18650000Y37400000D01*
X19850000Y37400000D01*
X19850000Y37100000D01*
X19850000Y37100000D01*
G37*
G36*
X31350000Y37100000D02*
G01*
X30150000Y37100000D01*
X30150000Y37400000D01*
X31350000Y37400000D01*
X31350000Y37100000D01*
X31350000Y37100000D01*
G37*
G36*
X31350000Y37600000D02*
G01*
X30150000Y37600000D01*
X30150000Y37900000D01*
X31350000Y37900000D01*
X31350000Y37600000D01*
X31350000Y37600000D01*
G37*
G36*
X19850000Y37600000D02*
G01*
X18650000Y37600000D01*
X18650000Y37900000D01*
X19850000Y37900000D01*
X19850000Y37600000D01*
X19850000Y37600000D01*
G37*
G36*
X31350000Y38100000D02*
G01*
X30150000Y38100000D01*
X30150000Y38400000D01*
X31350000Y38400000D01*
X31350000Y38100000D01*
X31350000Y38100000D01*
G37*
G36*
X19850000Y38100000D02*
G01*
X18650000Y38100000D01*
X18650000Y38400000D01*
X19850000Y38400000D01*
X19850000Y38100000D01*
X19850000Y38100000D01*
G37*
G36*
X19850000Y38599999D02*
G01*
X18650000Y38599999D01*
X18650000Y38899999D01*
X19850000Y38899999D01*
X19850000Y38599999D01*
X19850000Y38599999D01*
G37*
G36*
X31350000Y38599999D02*
G01*
X30150000Y38599999D01*
X30150000Y38899999D01*
X31350000Y38899999D01*
X31350000Y38599999D01*
X31350000Y38599999D01*
G37*
G36*
X9400000Y38750000D02*
G01*
X8300000Y38750000D01*
X8300000Y41250000D01*
X9400000Y41250000D01*
X9400000Y38750000D01*
X9400000Y38750000D01*
G37*
G36*
X12700000Y38750000D02*
G01*
X11600000Y38750000D01*
X11600000Y41250000D01*
X12700000Y41250000D01*
X12700000Y38750000D01*
X12700000Y38750000D01*
G37*
G36*
X31350000Y39100000D02*
G01*
X30150000Y39100000D01*
X30150000Y39400000D01*
X31350000Y39400000D01*
X31350000Y39100000D01*
X31350000Y39100000D01*
G37*
G36*
X19850000Y39100000D02*
G01*
X18650000Y39100000D01*
X18650000Y39400000D01*
X19850000Y39400000D01*
X19850000Y39100000D01*
X19850000Y39100000D01*
G37*
G36*
X4210000Y39440000D02*
G01*
X2610000Y39440000D01*
X2610000Y41040000D01*
X4210000Y41040000D01*
X4210000Y39440000D01*
X4210000Y39440000D01*
G37*
G36*
X6183351Y41009257D02*
G01*
X6183353Y41009256D01*
X6183354Y41009256D01*
X6328942Y40948951D01*
X6459970Y40861401D01*
X6571401Y40749970D01*
X6658951Y40618942D01*
X6719257Y40473351D01*
X6750000Y40318793D01*
X6750000Y40161207D01*
X6719257Y40006649D01*
X6658951Y39861058D01*
X6571401Y39730030D01*
X6459970Y39618599D01*
X6357304Y39550000D01*
X6328942Y39531049D01*
X6183354Y39470744D01*
X6183353Y39470744D01*
X6183351Y39470743D01*
X6028793Y39440000D01*
X5871207Y39440000D01*
X5716649Y39470743D01*
X5716647Y39470744D01*
X5716646Y39470744D01*
X5571058Y39531049D01*
X5542696Y39550000D01*
X5440030Y39618599D01*
X5328599Y39730030D01*
X5241049Y39861058D01*
X5180743Y40006649D01*
X5150000Y40161207D01*
X5150000Y40318793D01*
X5180743Y40473351D01*
X5241049Y40618942D01*
X5328599Y40749970D01*
X5440030Y40861401D01*
X5571058Y40948951D01*
X5716646Y41009256D01*
X5716647Y41009256D01*
X5716649Y41009257D01*
X5871207Y41040000D01*
X6028793Y41040000D01*
X6183351Y41009257D01*
X6183351Y41009257D01*
G37*
G36*
X44283351Y41009257D02*
G01*
X44283353Y41009256D01*
X44283354Y41009256D01*
X44428942Y40948951D01*
X44559970Y40861401D01*
X44671401Y40749970D01*
X44758951Y40618942D01*
X44819257Y40473351D01*
X44850000Y40318793D01*
X44850000Y40161207D01*
X44819257Y40006649D01*
X44758951Y39861058D01*
X44671401Y39730030D01*
X44559970Y39618599D01*
X44457304Y39550000D01*
X44428942Y39531049D01*
X44283354Y39470744D01*
X44283353Y39470744D01*
X44283351Y39470743D01*
X44128793Y39440000D01*
X43971207Y39440000D01*
X43816649Y39470743D01*
X43816647Y39470744D01*
X43816646Y39470744D01*
X43671058Y39531049D01*
X43642696Y39550000D01*
X43540030Y39618599D01*
X43428599Y39730030D01*
X43341049Y39861058D01*
X43280743Y40006649D01*
X43250000Y40161207D01*
X43250000Y40318793D01*
X43280743Y40473351D01*
X43341049Y40618942D01*
X43428599Y40749970D01*
X43540030Y40861401D01*
X43671058Y40948951D01*
X43816646Y41009256D01*
X43816647Y41009256D01*
X43816649Y41009257D01*
X43971207Y41040000D01*
X44128793Y41040000D01*
X44283351Y41009257D01*
X44283351Y41009257D01*
G37*
G36*
X46823351Y41009257D02*
G01*
X46823353Y41009256D01*
X46823354Y41009256D01*
X46968942Y40948951D01*
X47099970Y40861401D01*
X47211401Y40749970D01*
X47298951Y40618942D01*
X47359257Y40473351D01*
X47390000Y40318793D01*
X47390000Y40161207D01*
X47359257Y40006649D01*
X47298951Y39861058D01*
X47211401Y39730030D01*
X47099970Y39618599D01*
X46997304Y39550000D01*
X46968942Y39531049D01*
X46823354Y39470744D01*
X46823353Y39470744D01*
X46823351Y39470743D01*
X46668793Y39440000D01*
X46511207Y39440000D01*
X46356649Y39470743D01*
X46356647Y39470744D01*
X46356646Y39470744D01*
X46211058Y39531049D01*
X46182696Y39550000D01*
X46080030Y39618599D01*
X45968599Y39730030D01*
X45881049Y39861058D01*
X45820743Y40006649D01*
X45790000Y40161207D01*
X45790000Y40318793D01*
X45820743Y40473351D01*
X45881049Y40618942D01*
X45968599Y40749970D01*
X46080030Y40861401D01*
X46211058Y40948951D01*
X46356646Y41009256D01*
X46356647Y41009256D01*
X46356649Y41009257D01*
X46511207Y41040000D01*
X46668793Y41040000D01*
X46823351Y41009257D01*
X46823351Y41009257D01*
G37*
G36*
X34000000Y39550000D02*
G01*
X33100000Y39550000D01*
X33100000Y40450000D01*
X34000000Y40450000D01*
X34000000Y39550000D01*
X34000000Y39550000D01*
G37*
G36*
X35900000Y39550000D02*
G01*
X35000000Y39550000D01*
X35000000Y40450000D01*
X35900000Y40450000D01*
X35900000Y39550000D01*
X35900000Y39550000D01*
G37*
G36*
X15000000Y39550000D02*
G01*
X14100000Y39550000D01*
X14100000Y40450000D01*
X15000000Y40450000D01*
X15000000Y39550000D01*
X15000000Y39550000D01*
G37*
G36*
X16900000Y39550000D02*
G01*
X16000000Y39550000D01*
X16000000Y40450000D01*
X16900000Y40450000D01*
X16900000Y39550000D01*
X16900000Y39550000D01*
G37*
G36*
X31350000Y39600000D02*
G01*
X30150000Y39600000D01*
X30150000Y39900000D01*
X31350000Y39900000D01*
X31350000Y39600000D01*
X31350000Y39600000D01*
G37*
G36*
X19850000Y39600000D02*
G01*
X18650000Y39600000D01*
X18650000Y39900000D01*
X19850000Y39900000D01*
X19850000Y39600000D01*
X19850000Y39600000D01*
G37*
G36*
X19850000Y40100000D02*
G01*
X18650000Y40100000D01*
X18650000Y40400000D01*
X19850000Y40400000D01*
X19850000Y40100000D01*
X19850000Y40100000D01*
G37*
G36*
X31350000Y40100000D02*
G01*
X30150000Y40100000D01*
X30150000Y40400000D01*
X31350000Y40400000D01*
X31350000Y40100000D01*
X31350000Y40100000D01*
G37*
G36*
X41700000Y40250000D02*
G01*
X40600000Y40250000D01*
X40600000Y42750000D01*
X41700000Y42750000D01*
X41700000Y40250000D01*
X41700000Y40250000D01*
G37*
G36*
X38400000Y40250000D02*
G01*
X37300000Y40250000D01*
X37300000Y42750000D01*
X38400000Y42750000D01*
X38400000Y40250000D01*
X38400000Y40250000D01*
G37*
G36*
X19850000Y40600000D02*
G01*
X18650000Y40600000D01*
X18650000Y40900000D01*
X19850000Y40900000D01*
X19850000Y40600000D01*
X19850000Y40600000D01*
G37*
G36*
X31350000Y40600000D02*
G01*
X30150000Y40600000D01*
X30150000Y40900000D01*
X31350000Y40900000D01*
X31350000Y40600000D01*
X31350000Y40600000D01*
G37*
G36*
X19850000Y41099999D02*
G01*
X18650000Y41099999D01*
X18650000Y41399999D01*
X19850000Y41399999D01*
X19850000Y41099999D01*
X19850000Y41099999D01*
G37*
G36*
X31350000Y41099999D02*
G01*
X30150000Y41099999D01*
X30150000Y41399999D01*
X31350000Y41399999D01*
X31350000Y41099999D01*
X31350000Y41099999D01*
G37*
G36*
X4404237Y49480869D02*
G01*
X4968401Y49247185D01*
X5476135Y48907928D01*
X5907928Y48476135D01*
X6247185Y47968401D01*
X6480869Y47404237D01*
X6600000Y46805323D01*
X6600000Y46194677D01*
X6480869Y45595763D01*
X6247185Y45031599D01*
X5907928Y44523865D01*
X5604761Y44220698D01*
X5592334Y44205555D01*
X5583093Y44188267D01*
X5577402Y44169508D01*
X5575481Y44149999D01*
X5577402Y44130490D01*
X5583093Y44111731D01*
X5592334Y44094443D01*
X5604770Y44079289D01*
X5619924Y44066853D01*
X5637212Y44057612D01*
X5655971Y44051921D01*
X5675480Y44050000D01*
X5950000Y44050000D01*
X5950000Y41510000D01*
X1505000Y41510000D01*
X1505000Y44050000D01*
X1505483Y44050000D01*
X1506268Y44057966D01*
X1506268Y44077570D01*
X1502444Y44096796D01*
X1494942Y44114907D01*
X1484051Y44131207D01*
X1477480Y44138457D01*
X1092072Y44523865D01*
X752815Y45031599D01*
X519131Y45595763D01*
X400000Y46194677D01*
X400000Y46805323D01*
X519131Y47404237D01*
X752815Y47968401D01*
X1092072Y48476135D01*
X1523865Y48907928D01*
X2031599Y49247185D01*
X2595763Y49480869D01*
X3194677Y49600000D01*
X3805323Y49600000D01*
X4404237Y49480869D01*
X4404237Y49480869D01*
G37*
G36*
X11195090Y43980785D02*
G01*
X11291689Y43961571D01*
X11473678Y43886189D01*
X11637463Y43776751D01*
X11776751Y43637463D01*
X11886189Y43473678D01*
X11961571Y43291689D01*
X11961571Y43291687D01*
X12000000Y43098493D01*
X12000000Y42901507D01*
X11995974Y42881269D01*
X11961571Y42708311D01*
X11886189Y42526322D01*
X11776751Y42362537D01*
X11637463Y42223249D01*
X11473678Y42113811D01*
X11291689Y42038429D01*
X11195090Y42019215D01*
X11098493Y42000000D01*
X10901507Y42000000D01*
X10804910Y42019214D01*
X10708311Y42038429D01*
X10526322Y42113811D01*
X10362537Y42223249D01*
X10223249Y42362537D01*
X10113811Y42526322D01*
X10038429Y42708311D01*
X10004026Y42881269D01*
X10000000Y42901507D01*
X10000000Y43098493D01*
X10038429Y43291687D01*
X10038429Y43291689D01*
X10113811Y43473678D01*
X10223249Y43637463D01*
X10362537Y43776751D01*
X10526322Y43886189D01*
X10708311Y43961571D01*
X10804910Y43980785D01*
X10901507Y44000000D01*
X11098493Y44000000D01*
X11195090Y43980785D01*
X11195090Y43980785D01*
G37*
G36*
X35900000Y42050000D02*
G01*
X35000000Y42050000D01*
X35000000Y42950000D01*
X35900000Y42950000D01*
X35900000Y42050000D01*
X35900000Y42050000D01*
G37*
G36*
X16900000Y42050000D02*
G01*
X16000000Y42050000D01*
X16000000Y42950000D01*
X16900000Y42950000D01*
X16900000Y42050000D01*
X16900000Y42050000D01*
G37*
G36*
X15000000Y42050000D02*
G01*
X14100000Y42050000D01*
X14100000Y42950000D01*
X15000000Y42950000D01*
X15000000Y42050000D01*
X15000000Y42050000D01*
G37*
G36*
X34000000Y42050000D02*
G01*
X33100000Y42050000D01*
X33100000Y42950000D01*
X34000000Y42950000D01*
X34000000Y42050000D01*
X34000000Y42050000D01*
G37*
G36*
X9400000Y42550000D02*
G01*
X8500000Y42550000D01*
X8500000Y43450000D01*
X9400000Y43450000D01*
X9400000Y42550000D01*
X9400000Y42550000D01*
G37*
G36*
X7500000Y42550000D02*
G01*
X6600000Y42550000D01*
X6600000Y43450000D01*
X7500000Y43450000D01*
X7500000Y42550000D01*
X7500000Y42550000D01*
G37*
G36*
X26900000Y42650000D02*
G01*
X26600000Y42650000D01*
X26600000Y43850000D01*
X26900000Y43850000D01*
X26900000Y42650000D01*
X26900000Y42650000D01*
G37*
G36*
X26399999Y42650000D02*
G01*
X26099999Y42650000D01*
X26099999Y43850000D01*
X26399999Y43850000D01*
X26399999Y42650000D01*
X26399999Y42650000D01*
G37*
G36*
X27400000Y42650000D02*
G01*
X27100000Y42650000D01*
X27100000Y43850000D01*
X27400000Y43850000D01*
X27400000Y42650000D01*
X27400000Y42650000D01*
G37*
G36*
X27900000Y42650000D02*
G01*
X27600000Y42650000D01*
X27600000Y43850000D01*
X27900000Y43850000D01*
X27900000Y42650000D01*
X27900000Y42650000D01*
G37*
G36*
X28899999Y42650000D02*
G01*
X28599999Y42650000D01*
X28599999Y43850000D01*
X28899999Y43850000D01*
X28899999Y42650000D01*
X28899999Y42650000D01*
G37*
G36*
X28400000Y42650000D02*
G01*
X28100000Y42650000D01*
X28100000Y43850000D01*
X28400000Y43850000D01*
X28400000Y42650000D01*
X28400000Y42650000D01*
G37*
G36*
X25900000Y42650000D02*
G01*
X25600000Y42650000D01*
X25600000Y43850000D01*
X25900000Y43850000D01*
X25900000Y42650000D01*
X25900000Y42650000D01*
G37*
G36*
X25400000Y42650000D02*
G01*
X25100000Y42650000D01*
X25100000Y43850000D01*
X25400000Y43850000D01*
X25400000Y42650000D01*
X25400000Y42650000D01*
G37*
G36*
X24400000Y42650000D02*
G01*
X24100000Y42650000D01*
X24100000Y43850000D01*
X24400000Y43850000D01*
X24400000Y42650000D01*
X24400000Y42650000D01*
G37*
G36*
X23900001Y42650000D02*
G01*
X23600001Y42650000D01*
X23600001Y43850000D01*
X23900001Y43850000D01*
X23900001Y42650000D01*
X23900001Y42650000D01*
G37*
G36*
X23400000Y42650000D02*
G01*
X23100000Y42650000D01*
X23100000Y43850000D01*
X23400000Y43850000D01*
X23400000Y42650000D01*
X23400000Y42650000D01*
G37*
G36*
X22900000Y42650000D02*
G01*
X22600000Y42650000D01*
X22600000Y43850000D01*
X22900000Y43850000D01*
X22900000Y42650000D01*
X22900000Y42650000D01*
G37*
G36*
X22400000Y42650000D02*
G01*
X22100000Y42650000D01*
X22100000Y43850000D01*
X22400000Y43850000D01*
X22400000Y42650000D01*
X22400000Y42650000D01*
G37*
G36*
X21900000Y42650000D02*
G01*
X21600000Y42650000D01*
X21600000Y43850000D01*
X21900000Y43850000D01*
X21900000Y42650000D01*
X21900000Y42650000D01*
G37*
G36*
X21400001Y42650000D02*
G01*
X21100001Y42650000D01*
X21100001Y43850000D01*
X21400001Y43850000D01*
X21400001Y42650000D01*
X21400001Y42650000D01*
G37*
G36*
X24900000Y42650000D02*
G01*
X24600000Y42650000D01*
X24600000Y43850000D01*
X24900000Y43850000D01*
X24900000Y42650000D01*
X24900000Y42650000D01*
G37*
G36*
X30845842Y43680786D02*
G01*
X30845844Y43680785D01*
X30845845Y43680785D01*
X30936839Y43643094D01*
X30936841Y43643093D01*
X31018730Y43588377D01*
X31088377Y43518730D01*
X31143093Y43436841D01*
X31180786Y43345842D01*
X31200000Y43249248D01*
X31200000Y43150752D01*
X31180786Y43054158D01*
X31143093Y42963159D01*
X31088377Y42881270D01*
X31018730Y42811623D01*
X30936841Y42756907D01*
X30936840Y42756906D01*
X30936839Y42756906D01*
X30845845Y42719215D01*
X30845844Y42719215D01*
X30845842Y42719214D01*
X30749248Y42700000D01*
X30650752Y42700000D01*
X30554158Y42719214D01*
X30554156Y42719215D01*
X30554155Y42719215D01*
X30463161Y42756906D01*
X30463160Y42756906D01*
X30463159Y42756907D01*
X30381270Y42811623D01*
X30311623Y42881270D01*
X30256907Y42963159D01*
X30219214Y43054158D01*
X30200000Y43150752D01*
X30200000Y43249248D01*
X30219214Y43345842D01*
X30256907Y43436841D01*
X30311623Y43518730D01*
X30381270Y43588377D01*
X30463159Y43643093D01*
X30463161Y43643094D01*
X30554155Y43680785D01*
X30554156Y43680785D01*
X30554158Y43680786D01*
X30650752Y43700000D01*
X30749248Y43700000D01*
X30845842Y43680786D01*
X30845842Y43680786D01*
G37*
G36*
X47404237Y49480869D02*
G01*
X47968401Y49247185D01*
X48476135Y48907928D01*
X48907928Y48476135D01*
X49247185Y47968401D01*
X49480869Y47404237D01*
X49600000Y46805323D01*
X49600000Y46194677D01*
X49480869Y45595763D01*
X49247185Y45031599D01*
X48907928Y44523865D01*
X48476135Y44092072D01*
X47968401Y43752815D01*
X47404237Y43519131D01*
X46805323Y43400000D01*
X46194677Y43400000D01*
X45595763Y43519131D01*
X45031599Y43752815D01*
X44523865Y44092072D01*
X44092072Y44523865D01*
X43752815Y45031599D01*
X43519131Y45595763D01*
X43400000Y46194677D01*
X43400000Y46805323D01*
X43519131Y47404237D01*
X43752815Y47968401D01*
X44092072Y48476135D01*
X44523865Y48907928D01*
X45031599Y49247185D01*
X45595763Y49480869D01*
X46194677Y49600000D01*
X46805323Y49600000D01*
X47404237Y49480869D01*
X47404237Y49480869D01*
G37*
G36*
X29445842Y45180786D02*
G01*
X29445844Y45180785D01*
X29445845Y45180785D01*
X29536839Y45143094D01*
X29536841Y45143093D01*
X29618730Y45088377D01*
X29688377Y45018730D01*
X29743093Y44936841D01*
X29780786Y44845842D01*
X29800000Y44749248D01*
X29800000Y44650754D01*
X29780785Y44554155D01*
X29743094Y44463161D01*
X29743093Y44463159D01*
X29688377Y44381270D01*
X29618730Y44311623D01*
X29536841Y44256907D01*
X29536840Y44256906D01*
X29536839Y44256906D01*
X29445845Y44219215D01*
X29445844Y44219215D01*
X29445842Y44219214D01*
X29349248Y44200000D01*
X29250752Y44200000D01*
X29154158Y44219214D01*
X29154156Y44219215D01*
X29154155Y44219215D01*
X29063161Y44256906D01*
X29063160Y44256906D01*
X29063159Y44256907D01*
X28981270Y44311623D01*
X28911623Y44381270D01*
X28856907Y44463159D01*
X28856906Y44463161D01*
X28819215Y44554155D01*
X28800000Y44650754D01*
X28800000Y44749248D01*
X28819214Y44845842D01*
X28856907Y44936841D01*
X28911623Y45018730D01*
X28981270Y45088377D01*
X29063159Y45143093D01*
X29063161Y45143094D01*
X29154155Y45180785D01*
X29154156Y45180785D01*
X29154158Y45180786D01*
X29250752Y45200000D01*
X29349248Y45200000D01*
X29445842Y45180786D01*
X29445842Y45180786D01*
G37*
G36*
X39203351Y46089257D02*
G01*
X39203353Y46089256D01*
X39203354Y46089256D01*
X39348942Y46028951D01*
X39479970Y45941401D01*
X39591401Y45829970D01*
X39678951Y45698942D01*
X39739257Y45553351D01*
X39770000Y45398793D01*
X39770000Y45241207D01*
X39739601Y45088377D01*
X39739256Y45086646D01*
X39678951Y44941058D01*
X39591400Y44810029D01*
X39479971Y44698600D01*
X39348942Y44611049D01*
X39203354Y44550744D01*
X39203353Y44550744D01*
X39203351Y44550743D01*
X39048793Y44520000D01*
X38891207Y44520000D01*
X38736649Y44550743D01*
X38736647Y44550744D01*
X38736646Y44550744D01*
X38591058Y44611049D01*
X38460029Y44698600D01*
X38348600Y44810029D01*
X38261049Y44941058D01*
X38200744Y45086646D01*
X38200400Y45088377D01*
X38170000Y45241207D01*
X38170000Y45398793D01*
X38200743Y45553351D01*
X38261049Y45698942D01*
X38348599Y45829970D01*
X38460030Y45941401D01*
X38591058Y46028951D01*
X38736646Y46089256D01*
X38736647Y46089256D01*
X38736649Y46089257D01*
X38891207Y46120000D01*
X39048793Y46120000D01*
X39203351Y46089257D01*
X39203351Y46089257D01*
G37*
G36*
X42310000Y44520000D02*
G01*
X40710000Y44520000D01*
X40710000Y46120000D01*
X42310000Y46120000D01*
X42310000Y44520000D01*
X42310000Y44520000D01*
G37*
G36*
X34123351Y46089257D02*
G01*
X34123353Y46089256D01*
X34123354Y46089256D01*
X34268942Y46028951D01*
X34399970Y45941401D01*
X34511401Y45829970D01*
X34598951Y45698942D01*
X34659257Y45553351D01*
X34690000Y45398793D01*
X34690000Y45241207D01*
X34659601Y45088377D01*
X34659256Y45086646D01*
X34598951Y44941058D01*
X34511400Y44810029D01*
X34399971Y44698600D01*
X34268942Y44611049D01*
X34123354Y44550744D01*
X34123353Y44550744D01*
X34123351Y44550743D01*
X33968793Y44520000D01*
X33811207Y44520000D01*
X33656649Y44550743D01*
X33656647Y44550744D01*
X33656646Y44550744D01*
X33511058Y44611049D01*
X33380029Y44698600D01*
X33268600Y44810029D01*
X33181049Y44941058D01*
X33120744Y45086646D01*
X33120400Y45088377D01*
X33090000Y45241207D01*
X33090000Y45398793D01*
X33120743Y45553351D01*
X33181049Y45698942D01*
X33268599Y45829970D01*
X33380030Y45941401D01*
X33511058Y46028951D01*
X33656646Y46089256D01*
X33656647Y46089256D01*
X33656649Y46089257D01*
X33811207Y46120000D01*
X33968793Y46120000D01*
X34123351Y46089257D01*
X34123351Y46089257D01*
G37*
G36*
X19450000Y44520000D02*
G01*
X17850000Y44520000D01*
X17850000Y46120000D01*
X19450000Y46120000D01*
X19450000Y44520000D01*
X19450000Y44520000D01*
G37*
G36*
X31583351Y46089257D02*
G01*
X31583353Y46089256D01*
X31583354Y46089256D01*
X31728942Y46028951D01*
X31859970Y45941401D01*
X31971401Y45829970D01*
X32058951Y45698942D01*
X32119257Y45553351D01*
X32150000Y45398793D01*
X32150000Y45241207D01*
X32119601Y45088377D01*
X32119256Y45086646D01*
X32058951Y44941058D01*
X31971400Y44810029D01*
X31859971Y44698600D01*
X31728942Y44611049D01*
X31583354Y44550744D01*
X31583353Y44550744D01*
X31583351Y44550743D01*
X31428793Y44520000D01*
X31271207Y44520000D01*
X31116649Y44550743D01*
X31116647Y44550744D01*
X31116646Y44550744D01*
X30971058Y44611049D01*
X30840029Y44698600D01*
X30728600Y44810029D01*
X30641049Y44941058D01*
X30580744Y45086646D01*
X30580400Y45088377D01*
X30550000Y45241207D01*
X30550000Y45398793D01*
X30580743Y45553351D01*
X30641049Y45698942D01*
X30728599Y45829970D01*
X30840030Y45941401D01*
X30971058Y46028951D01*
X31116646Y46089256D01*
X31116647Y46089256D01*
X31116649Y46089257D01*
X31271207Y46120000D01*
X31428793Y46120000D01*
X31583351Y46089257D01*
X31583351Y46089257D01*
G37*
G36*
X16343351Y46089257D02*
G01*
X16343353Y46089256D01*
X16343354Y46089256D01*
X16488942Y46028951D01*
X16619970Y45941401D01*
X16731401Y45829970D01*
X16818951Y45698942D01*
X16879257Y45553351D01*
X16910000Y45398793D01*
X16910000Y45241207D01*
X16879601Y45088377D01*
X16879256Y45086646D01*
X16818951Y44941058D01*
X16731400Y44810029D01*
X16619971Y44698600D01*
X16488942Y44611049D01*
X16343354Y44550744D01*
X16343353Y44550744D01*
X16343351Y44550743D01*
X16188793Y44520000D01*
X16031207Y44520000D01*
X15876649Y44550743D01*
X15876647Y44550744D01*
X15876646Y44550744D01*
X15731058Y44611049D01*
X15600029Y44698600D01*
X15488600Y44810029D01*
X15401049Y44941058D01*
X15340744Y45086646D01*
X15340400Y45088377D01*
X15310000Y45241207D01*
X15310000Y45398793D01*
X15340743Y45553351D01*
X15401049Y45698942D01*
X15488599Y45829970D01*
X15600030Y45941401D01*
X15731058Y46028951D01*
X15876646Y46089256D01*
X15876647Y46089256D01*
X15876649Y46089257D01*
X16031207Y46120000D01*
X16188793Y46120000D01*
X16343351Y46089257D01*
X16343351Y46089257D01*
G37*
G36*
X13803351Y46089257D02*
G01*
X13803353Y46089256D01*
X13803354Y46089256D01*
X13948942Y46028951D01*
X14079970Y45941401D01*
X14191401Y45829970D01*
X14278951Y45698942D01*
X14339257Y45553351D01*
X14370000Y45398793D01*
X14370000Y45241207D01*
X14339601Y45088377D01*
X14339256Y45086646D01*
X14278951Y44941058D01*
X14191400Y44810029D01*
X14079971Y44698600D01*
X13948942Y44611049D01*
X13803354Y44550744D01*
X13803353Y44550744D01*
X13803351Y44550743D01*
X13648793Y44520000D01*
X13491207Y44520000D01*
X13336649Y44550743D01*
X13336647Y44550744D01*
X13336646Y44550744D01*
X13191058Y44611049D01*
X13060029Y44698600D01*
X12948600Y44810029D01*
X12861049Y44941058D01*
X12800744Y45086646D01*
X12800400Y45088377D01*
X12770000Y45241207D01*
X12770000Y45398793D01*
X12800743Y45553351D01*
X12861049Y45698942D01*
X12948599Y45829970D01*
X13060030Y45941401D01*
X13191058Y46028951D01*
X13336646Y46089256D01*
X13336647Y46089256D01*
X13336649Y46089257D01*
X13491207Y46120000D01*
X13648793Y46120000D01*
X13803351Y46089257D01*
X13803351Y46089257D01*
G37*
G36*
X11263351Y46089257D02*
G01*
X11263353Y46089256D01*
X11263354Y46089256D01*
X11408942Y46028951D01*
X11539970Y45941401D01*
X11651401Y45829970D01*
X11738951Y45698942D01*
X11799257Y45553351D01*
X11830000Y45398793D01*
X11830000Y45241207D01*
X11799601Y45088377D01*
X11799256Y45086646D01*
X11738951Y44941058D01*
X11651400Y44810029D01*
X11539971Y44698600D01*
X11408942Y44611049D01*
X11263354Y44550744D01*
X11263353Y44550744D01*
X11263351Y44550743D01*
X11108793Y44520000D01*
X10951207Y44520000D01*
X10796649Y44550743D01*
X10796647Y44550744D01*
X10796646Y44550744D01*
X10651058Y44611049D01*
X10520029Y44698600D01*
X10408600Y44810029D01*
X10321049Y44941058D01*
X10260744Y45086646D01*
X10260400Y45088377D01*
X10230000Y45241207D01*
X10230000Y45398793D01*
X10260743Y45553351D01*
X10321049Y45698942D01*
X10408599Y45829970D01*
X10520030Y45941401D01*
X10651058Y46028951D01*
X10796646Y46089256D01*
X10796647Y46089256D01*
X10796649Y46089257D01*
X10951207Y46120000D01*
X11108793Y46120000D01*
X11263351Y46089257D01*
X11263351Y46089257D01*
G37*
G36*
X8723351Y46089257D02*
G01*
X8723353Y46089256D01*
X8723354Y46089256D01*
X8868942Y46028951D01*
X8999970Y45941401D01*
X9111401Y45829970D01*
X9198951Y45698942D01*
X9259257Y45553351D01*
X9290000Y45398793D01*
X9290000Y45241207D01*
X9259601Y45088377D01*
X9259256Y45086646D01*
X9198951Y44941058D01*
X9111400Y44810029D01*
X8999971Y44698600D01*
X8868942Y44611049D01*
X8723354Y44550744D01*
X8723353Y44550744D01*
X8723351Y44550743D01*
X8568793Y44520000D01*
X8411207Y44520000D01*
X8256649Y44550743D01*
X8256647Y44550744D01*
X8256646Y44550744D01*
X8111058Y44611049D01*
X7980029Y44698600D01*
X7868600Y44810029D01*
X7781049Y44941058D01*
X7720744Y45086646D01*
X7720400Y45088377D01*
X7690000Y45241207D01*
X7690000Y45398793D01*
X7720743Y45553351D01*
X7781049Y45698942D01*
X7868599Y45829970D01*
X7980030Y45941401D01*
X8111058Y46028951D01*
X8256646Y46089256D01*
X8256647Y46089256D01*
X8256649Y46089257D01*
X8411207Y46120000D01*
X8568793Y46120000D01*
X8723351Y46089257D01*
X8723351Y46089257D01*
G37*
G36*
X36663351Y46089257D02*
G01*
X36663353Y46089256D01*
X36663354Y46089256D01*
X36808942Y46028951D01*
X36939970Y45941401D01*
X37051401Y45829970D01*
X37138951Y45698942D01*
X37199257Y45553351D01*
X37230000Y45398793D01*
X37230000Y45241207D01*
X37199601Y45088377D01*
X37199256Y45086646D01*
X37138951Y44941058D01*
X37051400Y44810029D01*
X36939971Y44698600D01*
X36808942Y44611049D01*
X36663354Y44550744D01*
X36663353Y44550744D01*
X36663351Y44550743D01*
X36508793Y44520000D01*
X36351207Y44520000D01*
X36196649Y44550743D01*
X36196647Y44550744D01*
X36196646Y44550744D01*
X36051058Y44611049D01*
X35920029Y44698600D01*
X35808600Y44810029D01*
X35721049Y44941058D01*
X35660744Y45086646D01*
X35660400Y45088377D01*
X35630000Y45241207D01*
X35630000Y45398793D01*
X35660743Y45553351D01*
X35721049Y45698942D01*
X35808599Y45829970D01*
X35920030Y45941401D01*
X36051058Y46028951D01*
X36196646Y46089256D01*
X36196647Y46089256D01*
X36196649Y46089257D01*
X36351207Y46120000D01*
X36508793Y46120000D01*
X36663351Y46089257D01*
X36663351Y46089257D01*
G37*
G36*
X21450000Y45600000D02*
G01*
X20550000Y45600000D01*
X20550000Y46500000D01*
X21450000Y46500000D01*
X21450000Y45600000D01*
X21450000Y45600000D01*
G37*
G36*
X27450000Y45600000D02*
G01*
X26550000Y45600000D01*
X26550000Y46500000D01*
X27450000Y46500000D01*
X27450000Y45600000D01*
X27450000Y45600000D01*
G37*
G36*
X23450000Y45600000D02*
G01*
X22550000Y45600000D01*
X22550000Y46500000D01*
X23450000Y46500000D01*
X23450000Y45600000D01*
X23450000Y45600000D01*
G37*
G36*
X25450000Y45600000D02*
G01*
X24550000Y45600000D01*
X24550000Y46500000D01*
X25450000Y46500000D01*
X25450000Y45600000D01*
X25450000Y45600000D01*
G37*
G36*
X29450000Y45600000D02*
G01*
X28550000Y45600000D01*
X28550000Y46500000D01*
X29450000Y46500000D01*
X29450000Y45600000D01*
X29450000Y45600000D01*
G37*
G36*
X42310000Y47060000D02*
G01*
X40710000Y47060000D01*
X40710000Y48660000D01*
X42310000Y48660000D01*
X42310000Y47060000D01*
X42310000Y47060000D01*
G37*
G36*
X13803351Y48629257D02*
G01*
X13803353Y48629256D01*
X13803354Y48629256D01*
X13948942Y48568951D01*
X14079970Y48481401D01*
X14191401Y48369970D01*
X14278951Y48238942D01*
X14339257Y48093351D01*
X14370000Y47938793D01*
X14370000Y47781209D01*
X14339256Y47626646D01*
X14278951Y47481058D01*
X14191400Y47350029D01*
X14079971Y47238600D01*
X13948942Y47151049D01*
X13803354Y47090744D01*
X13803353Y47090744D01*
X13803351Y47090743D01*
X13648793Y47060000D01*
X13491207Y47060000D01*
X13336649Y47090743D01*
X13336647Y47090744D01*
X13336646Y47090744D01*
X13191058Y47151049D01*
X13060029Y47238600D01*
X12948600Y47350029D01*
X12861049Y47481058D01*
X12800744Y47626646D01*
X12770000Y47781209D01*
X12770000Y47938793D01*
X12800743Y48093351D01*
X12861049Y48238942D01*
X12948599Y48369970D01*
X13060030Y48481401D01*
X13191058Y48568951D01*
X13336646Y48629256D01*
X13336647Y48629256D01*
X13336649Y48629257D01*
X13491207Y48660000D01*
X13648793Y48660000D01*
X13803351Y48629257D01*
X13803351Y48629257D01*
G37*
G36*
X19450000Y47060000D02*
G01*
X17850000Y47060000D01*
X17850000Y48660000D01*
X19450000Y48660000D01*
X19450000Y47060000D01*
X19450000Y47060000D01*
G37*
G36*
X16343351Y48629257D02*
G01*
X16343353Y48629256D01*
X16343354Y48629256D01*
X16488942Y48568951D01*
X16619970Y48481401D01*
X16731401Y48369970D01*
X16818951Y48238942D01*
X16879257Y48093351D01*
X16910000Y47938793D01*
X16910000Y47781209D01*
X16879256Y47626646D01*
X16818951Y47481058D01*
X16731400Y47350029D01*
X16619971Y47238600D01*
X16488942Y47151049D01*
X16343354Y47090744D01*
X16343353Y47090744D01*
X16343351Y47090743D01*
X16188793Y47060000D01*
X16031207Y47060000D01*
X15876649Y47090743D01*
X15876647Y47090744D01*
X15876646Y47090744D01*
X15731058Y47151049D01*
X15600029Y47238600D01*
X15488600Y47350029D01*
X15401049Y47481058D01*
X15340744Y47626646D01*
X15310000Y47781209D01*
X15310000Y47938793D01*
X15340743Y48093351D01*
X15401049Y48238942D01*
X15488599Y48369970D01*
X15600030Y48481401D01*
X15731058Y48568951D01*
X15876646Y48629256D01*
X15876647Y48629256D01*
X15876649Y48629257D01*
X16031207Y48660000D01*
X16188793Y48660000D01*
X16343351Y48629257D01*
X16343351Y48629257D01*
G37*
G36*
X11263351Y48629257D02*
G01*
X11263353Y48629256D01*
X11263354Y48629256D01*
X11408942Y48568951D01*
X11539970Y48481401D01*
X11651401Y48369970D01*
X11738951Y48238942D01*
X11799257Y48093351D01*
X11830000Y47938793D01*
X11830000Y47781209D01*
X11799256Y47626646D01*
X11738951Y47481058D01*
X11651400Y47350029D01*
X11539971Y47238600D01*
X11408942Y47151049D01*
X11263354Y47090744D01*
X11263353Y47090744D01*
X11263351Y47090743D01*
X11108793Y47060000D01*
X10951207Y47060000D01*
X10796649Y47090743D01*
X10796647Y47090744D01*
X10796646Y47090744D01*
X10651058Y47151049D01*
X10520029Y47238600D01*
X10408600Y47350029D01*
X10321049Y47481058D01*
X10260744Y47626646D01*
X10230000Y47781209D01*
X10230000Y47938793D01*
X10260743Y48093351D01*
X10321049Y48238942D01*
X10408599Y48369970D01*
X10520030Y48481401D01*
X10651058Y48568951D01*
X10796646Y48629256D01*
X10796647Y48629256D01*
X10796649Y48629257D01*
X10951207Y48660000D01*
X11108793Y48660000D01*
X11263351Y48629257D01*
X11263351Y48629257D01*
G37*
G36*
X8723351Y48629257D02*
G01*
X8723353Y48629256D01*
X8723354Y48629256D01*
X8868942Y48568951D01*
X8999970Y48481401D01*
X9111401Y48369970D01*
X9198951Y48238942D01*
X9259257Y48093351D01*
X9290000Y47938793D01*
X9290000Y47781209D01*
X9259256Y47626646D01*
X9198951Y47481058D01*
X9111400Y47350029D01*
X8999971Y47238600D01*
X8868942Y47151049D01*
X8723354Y47090744D01*
X8723353Y47090744D01*
X8723351Y47090743D01*
X8568793Y47060000D01*
X8411207Y47060000D01*
X8256649Y47090743D01*
X8256647Y47090744D01*
X8256646Y47090744D01*
X8111058Y47151049D01*
X7980029Y47238600D01*
X7868600Y47350029D01*
X7781049Y47481058D01*
X7720744Y47626646D01*
X7690000Y47781209D01*
X7690000Y47938793D01*
X7720743Y48093351D01*
X7781049Y48238942D01*
X7868599Y48369970D01*
X7980030Y48481401D01*
X8111058Y48568951D01*
X8256646Y48629256D01*
X8256647Y48629256D01*
X8256649Y48629257D01*
X8411207Y48660000D01*
X8568793Y48660000D01*
X8723351Y48629257D01*
X8723351Y48629257D01*
G37*
G36*
X31583351Y48629257D02*
G01*
X31583353Y48629256D01*
X31583354Y48629256D01*
X31728942Y48568951D01*
X31859970Y48481401D01*
X31971401Y48369970D01*
X32058951Y48238942D01*
X32119257Y48093351D01*
X32150000Y47938793D01*
X32150000Y47781209D01*
X32119256Y47626646D01*
X32058951Y47481058D01*
X31971400Y47350029D01*
X31859971Y47238600D01*
X31728942Y47151049D01*
X31583354Y47090744D01*
X31583353Y47090744D01*
X31583351Y47090743D01*
X31428793Y47060000D01*
X31271207Y47060000D01*
X31116649Y47090743D01*
X31116647Y47090744D01*
X31116646Y47090744D01*
X30971058Y47151049D01*
X30840029Y47238600D01*
X30728600Y47350029D01*
X30641049Y47481058D01*
X30580744Y47626646D01*
X30550000Y47781209D01*
X30550000Y47938793D01*
X30580743Y48093351D01*
X30641049Y48238942D01*
X30728599Y48369970D01*
X30840030Y48481401D01*
X30971058Y48568951D01*
X31116646Y48629256D01*
X31116647Y48629256D01*
X31116649Y48629257D01*
X31271207Y48660000D01*
X31428793Y48660000D01*
X31583351Y48629257D01*
X31583351Y48629257D01*
G37*
G36*
X34123351Y48629257D02*
G01*
X34123353Y48629256D01*
X34123354Y48629256D01*
X34268942Y48568951D01*
X34399970Y48481401D01*
X34511401Y48369970D01*
X34598951Y48238942D01*
X34659257Y48093351D01*
X34690000Y47938793D01*
X34690000Y47781209D01*
X34659256Y47626646D01*
X34598951Y47481058D01*
X34511400Y47350029D01*
X34399971Y47238600D01*
X34268942Y47151049D01*
X34123354Y47090744D01*
X34123353Y47090744D01*
X34123351Y47090743D01*
X33968793Y47060000D01*
X33811207Y47060000D01*
X33656649Y47090743D01*
X33656647Y47090744D01*
X33656646Y47090744D01*
X33511058Y47151049D01*
X33380029Y47238600D01*
X33268600Y47350029D01*
X33181049Y47481058D01*
X33120744Y47626646D01*
X33090000Y47781209D01*
X33090000Y47938793D01*
X33120743Y48093351D01*
X33181049Y48238942D01*
X33268599Y48369970D01*
X33380030Y48481401D01*
X33511058Y48568951D01*
X33656646Y48629256D01*
X33656647Y48629256D01*
X33656649Y48629257D01*
X33811207Y48660000D01*
X33968793Y48660000D01*
X34123351Y48629257D01*
X34123351Y48629257D01*
G37*
G36*
X39203351Y48629257D02*
G01*
X39203353Y48629256D01*
X39203354Y48629256D01*
X39348942Y48568951D01*
X39479970Y48481401D01*
X39591401Y48369970D01*
X39678951Y48238942D01*
X39739257Y48093351D01*
X39770000Y47938793D01*
X39770000Y47781209D01*
X39739256Y47626646D01*
X39678951Y47481058D01*
X39591400Y47350029D01*
X39479971Y47238600D01*
X39348942Y47151049D01*
X39203354Y47090744D01*
X39203353Y47090744D01*
X39203351Y47090743D01*
X39048793Y47060000D01*
X38891207Y47060000D01*
X38736649Y47090743D01*
X38736647Y47090744D01*
X38736646Y47090744D01*
X38591058Y47151049D01*
X38460029Y47238600D01*
X38348600Y47350029D01*
X38261049Y47481058D01*
X38200744Y47626646D01*
X38170000Y47781209D01*
X38170000Y47938793D01*
X38200743Y48093351D01*
X38261049Y48238942D01*
X38348599Y48369970D01*
X38460030Y48481401D01*
X38591058Y48568951D01*
X38736646Y48629256D01*
X38736647Y48629256D01*
X38736649Y48629257D01*
X38891207Y48660000D01*
X39048793Y48660000D01*
X39203351Y48629257D01*
X39203351Y48629257D01*
G37*
G36*
X36663351Y48629257D02*
G01*
X36663353Y48629256D01*
X36663354Y48629256D01*
X36808942Y48568951D01*
X36939970Y48481401D01*
X37051401Y48369970D01*
X37138951Y48238942D01*
X37199257Y48093351D01*
X37230000Y47938793D01*
X37230000Y47781209D01*
X37199256Y47626646D01*
X37138951Y47481058D01*
X37051400Y47350029D01*
X36939971Y47238600D01*
X36808942Y47151049D01*
X36663354Y47090744D01*
X36663353Y47090744D01*
X36663351Y47090743D01*
X36508793Y47060000D01*
X36351207Y47060000D01*
X36196649Y47090743D01*
X36196647Y47090744D01*
X36196646Y47090744D01*
X36051058Y47151049D01*
X35920029Y47238600D01*
X35808600Y47350029D01*
X35721049Y47481058D01*
X35660744Y47626646D01*
X35630000Y47781209D01*
X35630000Y47938793D01*
X35660743Y48093351D01*
X35721049Y48238942D01*
X35808599Y48369970D01*
X35920030Y48481401D01*
X36051058Y48568951D01*
X36196646Y48629256D01*
X36196647Y48629256D01*
X36196649Y48629257D01*
X36351207Y48660000D01*
X36508793Y48660000D01*
X36663351Y48629257D01*
X36663351Y48629257D01*
G37*
G36*
X21450000Y47500000D02*
G01*
X20550000Y47500000D01*
X20550000Y48400000D01*
X21450000Y48400000D01*
X21450000Y47500000D01*
X21450000Y47500000D01*
G37*
G36*
X29450000Y47500000D02*
G01*
X28550000Y47500000D01*
X28550000Y48400000D01*
X29450000Y48400000D01*
X29450000Y47500000D01*
X29450000Y47500000D01*
G37*
G36*
X23450000Y47500000D02*
G01*
X22550000Y47500000D01*
X22550000Y48400000D01*
X23450000Y48400000D01*
X23450000Y47500000D01*
X23450000Y47500000D01*
G37*
G36*
X25450000Y47500000D02*
G01*
X24550000Y47500000D01*
X24550000Y48400000D01*
X25450000Y48400000D01*
X25450000Y47500000D01*
X25450000Y47500000D01*
G37*
G36*
X27450000Y47500000D02*
G01*
X26550000Y47500000D01*
X26550000Y48400000D01*
X27450000Y48400000D01*
X27450000Y47500000D01*
X27450000Y47500000D01*
G37*
M02*
