G04 #@! TF.GenerationSoftware,KiCad,Pcbnew,(5.1.0)-1*
G04 #@! TF.CreationDate,2019-04-02T21:11:50+01:00*
G04 #@! TF.ProjectId,uCODEC-1.0,75434f44-4543-42d3-912e-302e6b696361,1.0*
G04 #@! TF.SameCoordinates,PX7de2900PY7365040*
G04 #@! TF.FileFunction,Copper,L2,Inr*
G04 #@! TF.FilePolarity,Positive*
%FSLAX46Y46*%
G04 Gerber Fmt 4.6, Leading zero omitted, Abs format (unit mm)*
G04 Created by KiCad (PCBNEW (5.1.0)-1) date 2019-04-02 21:11:50*
%MOMM*%
%LPD*%
G04 APERTURE LIST*
%ADD10C,0.100000*%
%ADD11C,0.200000*%
%ADD12R,1.600000X1.600000*%
%ADD13C,1.600000*%
%ADD14C,1.500000*%
%ADD15O,3.200000X1.600000*%
%ADD16C,0.600000*%
%ADD17C,0.254000*%
G04 APERTURE END LIST*
D10*
X0Y50000000D02*
X0Y0D01*
X50000000Y50000000D02*
X0Y50000000D01*
X50000000Y0D02*
X50000000Y50000000D01*
X0Y0D02*
X50000000Y0D01*
D11*
X3064285Y42952381D02*
X3111904Y43000000D01*
X3207142Y43047620D01*
X3445238Y43047620D01*
X3540476Y43000000D01*
X3588095Y42952381D01*
X3635714Y42857143D01*
X3635714Y42761905D01*
X3588095Y42619048D01*
X3016666Y42047620D01*
X3635714Y42047620D01*
D12*
X3410000Y40240000D03*
D13*
X5950000Y40240000D03*
X3410000Y37700000D03*
X5950000Y37700000D03*
X3410000Y35160000D03*
X5950000Y35160000D03*
X3410000Y32620000D03*
X5950000Y32620000D03*
X44050000Y40240000D03*
X46590000Y40240000D03*
X44050000Y37700000D03*
X46590000Y37700000D03*
X44050000Y35160000D03*
X46590000Y35160000D03*
X44050000Y32620000D03*
D12*
X46590000Y32620000D03*
X46590000Y9760000D03*
D13*
X44050000Y9760000D03*
X46590000Y12300000D03*
X44050000Y12300000D03*
X46590000Y14840000D03*
X44050000Y14840000D03*
X46590000Y17380000D03*
X44050000Y17380000D03*
X16110000Y45320000D03*
D12*
X18650000Y45320000D03*
D13*
X13570000Y45320000D03*
X11030000Y45320000D03*
X8490000Y45320000D03*
X31350000Y45320000D03*
X33890000Y45320000D03*
X36430000Y45320000D03*
D12*
X41510000Y45320000D03*
D13*
X38970000Y45320000D03*
X33890000Y4680000D03*
X31350000Y4680000D03*
D12*
X26270000Y4680000D03*
D13*
X28810000Y4680000D03*
X38970000Y47860000D03*
D12*
X41510000Y47860000D03*
D13*
X36430000Y47860000D03*
X33890000Y47860000D03*
X31350000Y47860000D03*
X28810000Y2140000D03*
D12*
X26270000Y2140000D03*
D13*
X31350000Y2140000D03*
X33890000Y2140000D03*
X16110000Y47860000D03*
D12*
X18650000Y47860000D03*
D13*
X13570000Y47860000D03*
X11030000Y47860000D03*
X8490000Y47860000D03*
X36430000Y7220000D03*
D12*
X38970000Y7220000D03*
D13*
X33890000Y7220000D03*
X31350000Y7220000D03*
D14*
X6500000Y27500000D03*
D15*
X10395000Y4680000D03*
D13*
X13570000Y4680000D03*
D16*
X3490000Y7031500D03*
X1077000Y7031500D03*
X10411500Y6587000D03*
X11919000Y2775000D03*
X49130000Y42780000D03*
X49130000Y32620000D03*
X49130000Y5950000D03*
X5950000Y870000D03*
X37700000Y870000D03*
X44050000Y870000D03*
X870000Y44050000D03*
X5950000Y49130000D03*
X870000Y37700000D03*
X27540000Y870000D03*
X29481930Y35223853D03*
X20424558Y35782523D03*
X20549964Y33900000D03*
X32100000Y38700000D03*
X18000000Y42500000D03*
X30400000Y32500000D03*
X25200000Y44700000D03*
X49200010Y21172181D03*
X49200000Y26400000D03*
X22500000Y900000D03*
X24500000Y39800000D03*
X26600000Y34300000D03*
X23400000Y34300000D03*
X49130000Y37700000D03*
X10000000Y17000000D03*
X12000000Y24000000D03*
X12000000Y21000000D03*
X11000000Y20000000D03*
X11000000Y25500000D03*
X1200000Y14200000D03*
X1200000Y15200000D03*
X1200000Y13100000D03*
X1100000Y8400000D03*
X5300000Y7000000D03*
X15100000Y2800000D03*
X15000000Y11600000D03*
X14200000Y10800000D03*
X23200000Y11800000D03*
X23200000Y14500000D03*
X27300000Y16100000D03*
X24700000Y9400000D03*
X23400000Y8200000D03*
X24600000Y4500000D03*
X25400000Y7500000D03*
X900000Y20500000D03*
X5000000Y27200000D03*
X2500000Y27200000D03*
X3800000Y27200000D03*
X13000000Y17200000D03*
X17200000Y18500000D03*
X17500000Y17100000D03*
X22300000Y19500000D03*
X27300000Y19600000D03*
X27300000Y18600000D03*
X37200000Y18600000D03*
X37300000Y23100000D03*
X27200000Y23100000D03*
X17300000Y24100000D03*
X8500000Y16100000D03*
X8900000Y12600000D03*
X22400000Y17000000D03*
X45300000Y18500000D03*
X42400000Y21900000D03*
X42400000Y23700000D03*
X42400000Y19100000D03*
X34600000Y18600000D03*
X31200000Y15000000D03*
X18000000Y4750000D03*
X20300000Y30000000D03*
X18600000Y28800000D03*
X18500000Y21800000D03*
X47750000Y19600000D03*
X19500000Y25800000D03*
X19600000Y42500000D03*
X33400000Y13900000D03*
X30580000Y42170000D03*
X23400000Y38650000D03*
X27200000Y38850000D03*
X37300000Y21550000D03*
X47800000Y26750000D03*
X28500000Y8500000D03*
X2800000Y22400000D03*
X1900000Y22400000D03*
X1500000Y24000000D03*
X2300000Y18600000D03*
X40600000Y8500000D03*
X45400000Y21500000D03*
X23400000Y40700000D03*
X20719780Y45069231D03*
X18000000Y40600000D03*
X24600000Y8200000D03*
X20400000Y44300000D03*
X37000000Y5050000D03*
X24000000Y48800000D03*
X22727838Y44400000D03*
X26100000Y44900000D03*
X28097340Y44645884D03*
X15500000Y9000000D03*
X15500000Y8000000D03*
X15000000Y8500000D03*
X29633268Y40240399D03*
X17900188Y38916322D03*
X26200000Y29100000D03*
X27100000Y29100000D03*
X24400000Y29100000D03*
X25300000Y29100000D03*
X23100000Y29800000D03*
X23500000Y29100000D03*
X29649988Y37749978D03*
X28800000Y38500000D03*
X32199989Y42418192D03*
X32200000Y43400000D03*
X17610563Y37368888D03*
X17447189Y36585735D03*
X17895805Y38116322D03*
X7500000Y11500000D03*
X8500000Y11500000D03*
X9500000Y11500000D03*
X9000000Y11000000D03*
X18000000Y2000000D03*
X6500000Y6500000D03*
X6500000Y11500000D03*
X27700000Y32800000D03*
X29602246Y36014766D03*
X22149990Y32800000D03*
X21500000Y34500000D03*
X21500000Y8000000D03*
X20500000Y8000000D03*
X30900000Y26200000D03*
X20500000Y7000000D03*
X20500000Y6100000D03*
X20500000Y42899986D03*
X29500000Y42899992D03*
X8600000Y22800000D03*
X8600000Y20200000D03*
X8600000Y25300000D03*
D17*
G36*
X23536564Y49364698D02*
G01*
X23435302Y49263436D01*
X23355741Y49144364D01*
X23300938Y49012058D01*
X23273000Y48871603D01*
X23273000Y48728397D01*
X23300938Y48587942D01*
X23355741Y48455636D01*
X23435302Y48336564D01*
X23536564Y48235302D01*
X23655636Y48155741D01*
X23787942Y48100938D01*
X23928397Y48073000D01*
X24071603Y48073000D01*
X24212058Y48100938D01*
X24344364Y48155741D01*
X24463436Y48235302D01*
X24564698Y48336564D01*
X24644259Y48455636D01*
X24699062Y48587942D01*
X24727000Y48728397D01*
X24727000Y48852702D01*
X30536903Y48852702D01*
X31350000Y48039605D01*
X32163097Y48852702D01*
X32091514Y49096671D01*
X31836004Y49217571D01*
X31561816Y49286300D01*
X31279488Y49300217D01*
X30999870Y49258787D01*
X30733708Y49163603D01*
X30608486Y49096671D01*
X30536903Y48852702D01*
X24727000Y48852702D01*
X24727000Y48871603D01*
X24699062Y49012058D01*
X24644259Y49144364D01*
X24564698Y49263436D01*
X24463436Y49364698D01*
X24451011Y49373000D01*
X44811307Y49373000D01*
X44379161Y49084250D01*
X43915750Y48620839D01*
X43551651Y48075925D01*
X43300855Y47470450D01*
X43173000Y46827681D01*
X43173000Y46172319D01*
X43300855Y45529550D01*
X43551651Y44924075D01*
X43915750Y44379161D01*
X44379161Y43915750D01*
X44924075Y43551651D01*
X45529550Y43300855D01*
X46172319Y43173000D01*
X46827681Y43173000D01*
X47470450Y43300855D01*
X48075925Y43551651D01*
X48620839Y43915750D01*
X49084250Y44379161D01*
X49373000Y44811307D01*
X49373000Y5188693D01*
X49084250Y5620839D01*
X48620839Y6084250D01*
X48075925Y6448349D01*
X47470450Y6699145D01*
X46827681Y6827000D01*
X46172319Y6827000D01*
X45529550Y6699145D01*
X44924075Y6448349D01*
X44379161Y6084250D01*
X43915750Y5620839D01*
X43551651Y5075925D01*
X43300855Y4470450D01*
X43173000Y3827681D01*
X43173000Y3172319D01*
X43300855Y2529550D01*
X43551651Y1924075D01*
X43915750Y1379161D01*
X44379161Y915750D01*
X44811307Y627000D01*
X5188693Y627000D01*
X5620839Y915750D01*
X6084250Y1379161D01*
X6448349Y1924075D01*
X6509457Y2071603D01*
X17273000Y2071603D01*
X17273000Y1928397D01*
X17300938Y1787942D01*
X17355741Y1655636D01*
X17435302Y1536564D01*
X17536564Y1435302D01*
X17655636Y1355741D01*
X17787942Y1300938D01*
X17928397Y1273000D01*
X18071603Y1273000D01*
X18212058Y1300938D01*
X18344364Y1355741D01*
X18463436Y1435302D01*
X18564698Y1536564D01*
X18644259Y1655636D01*
X18699062Y1787942D01*
X18727000Y1928397D01*
X18727000Y2071603D01*
X18699062Y2212058D01*
X18644259Y2344364D01*
X18564698Y2463436D01*
X18463436Y2564698D01*
X18344364Y2644259D01*
X18212058Y2699062D01*
X18071603Y2727000D01*
X17928397Y2727000D01*
X17787942Y2699062D01*
X17655636Y2644259D01*
X17536564Y2564698D01*
X17435302Y2463436D01*
X17355741Y2344364D01*
X17300938Y2212058D01*
X17273000Y2071603D01*
X6509457Y2071603D01*
X6699145Y2529550D01*
X6780788Y2940000D01*
X25040934Y2940000D01*
X25040934Y1340000D01*
X25049178Y1256293D01*
X25073595Y1175804D01*
X25113245Y1101624D01*
X25166605Y1036605D01*
X25231624Y983245D01*
X25305804Y943595D01*
X25386293Y919178D01*
X25470000Y910934D01*
X27070000Y910934D01*
X27153707Y919178D01*
X27234196Y943595D01*
X27308376Y983245D01*
X27373395Y1036605D01*
X27426755Y1101624D01*
X27466405Y1175804D01*
X27490822Y1256293D01*
X27499066Y1340000D01*
X27499066Y2260849D01*
X27583000Y2260849D01*
X27583000Y2019151D01*
X27630153Y1782097D01*
X27722647Y1558798D01*
X27856927Y1357833D01*
X28027833Y1186927D01*
X28228798Y1052647D01*
X28452097Y960153D01*
X28689151Y913000D01*
X28930849Y913000D01*
X29167903Y960153D01*
X29391202Y1052647D01*
X29592167Y1186927D01*
X29763073Y1357833D01*
X29897353Y1558798D01*
X29989847Y1782097D01*
X30037000Y2019151D01*
X30037000Y2260849D01*
X30123000Y2260849D01*
X30123000Y2019151D01*
X30170153Y1782097D01*
X30262647Y1558798D01*
X30396927Y1357833D01*
X30567833Y1186927D01*
X30768798Y1052647D01*
X30992097Y960153D01*
X31229151Y913000D01*
X31470849Y913000D01*
X31707903Y960153D01*
X31931202Y1052647D01*
X32072857Y1147298D01*
X33076903Y1147298D01*
X33148486Y903329D01*
X33403996Y782429D01*
X33678184Y713700D01*
X33960512Y699783D01*
X34240130Y741213D01*
X34506292Y836397D01*
X34631514Y903329D01*
X34703097Y1147298D01*
X33890000Y1960395D01*
X33076903Y1147298D01*
X32072857Y1147298D01*
X32132167Y1186927D01*
X32303073Y1357833D01*
X32437353Y1558798D01*
X32510605Y1735644D01*
X32586397Y1523708D01*
X32653329Y1398486D01*
X32897298Y1326903D01*
X33710395Y2140000D01*
X34069605Y2140000D01*
X34882702Y1326903D01*
X35126671Y1398486D01*
X35247571Y1653996D01*
X35316300Y1928184D01*
X35330217Y2210512D01*
X35288787Y2490130D01*
X35193603Y2756292D01*
X35126671Y2881514D01*
X34882702Y2953097D01*
X34069605Y2140000D01*
X33710395Y2140000D01*
X32897298Y2953097D01*
X32653329Y2881514D01*
X32532429Y2626004D01*
X32511451Y2542314D01*
X32437353Y2721202D01*
X32303073Y2922167D01*
X32132167Y3093073D01*
X31931202Y3227353D01*
X31707903Y3319847D01*
X31470849Y3367000D01*
X31229151Y3367000D01*
X30992097Y3319847D01*
X30768798Y3227353D01*
X30567833Y3093073D01*
X30396927Y2922167D01*
X30262647Y2721202D01*
X30170153Y2497903D01*
X30123000Y2260849D01*
X30037000Y2260849D01*
X29989847Y2497903D01*
X29897353Y2721202D01*
X29763073Y2922167D01*
X29592167Y3093073D01*
X29391202Y3227353D01*
X29167903Y3319847D01*
X28930849Y3367000D01*
X28689151Y3367000D01*
X28452097Y3319847D01*
X28228798Y3227353D01*
X28027833Y3093073D01*
X27856927Y2922167D01*
X27722647Y2721202D01*
X27630153Y2497903D01*
X27583000Y2260849D01*
X27499066Y2260849D01*
X27499066Y2940000D01*
X27490822Y3023707D01*
X27466405Y3104196D01*
X27426755Y3178376D01*
X27373395Y3243395D01*
X27308376Y3296755D01*
X27234196Y3336405D01*
X27153707Y3360822D01*
X27070000Y3369066D01*
X25470000Y3369066D01*
X25386293Y3360822D01*
X25305804Y3336405D01*
X25231624Y3296755D01*
X25166605Y3243395D01*
X25113245Y3178376D01*
X25073595Y3104196D01*
X25049178Y3023707D01*
X25040934Y2940000D01*
X6780788Y2940000D01*
X6827000Y3172319D01*
X6827000Y3827681D01*
X6726892Y4330961D01*
X8203096Y4330961D01*
X8220633Y4248182D01*
X8331285Y3988354D01*
X8490500Y3755105D01*
X8692161Y3557399D01*
X8928517Y3402834D01*
X9190486Y3297350D01*
X9468000Y3245000D01*
X10268000Y3245000D01*
X10268000Y4553000D01*
X8325085Y4553000D01*
X8203096Y4330961D01*
X6726892Y4330961D01*
X6699145Y4470450D01*
X6467770Y5029039D01*
X8203096Y5029039D01*
X8325085Y4807000D01*
X10268000Y4807000D01*
X10268000Y4827000D01*
X10522000Y4827000D01*
X10522000Y4807000D01*
X10542000Y4807000D01*
X10542000Y4553000D01*
X10522000Y4553000D01*
X10522000Y3245000D01*
X11322000Y3245000D01*
X11599514Y3297350D01*
X11861483Y3402834D01*
X12097839Y3557399D01*
X12299500Y3755105D01*
X12458715Y3988354D01*
X12496757Y4077681D01*
X12616927Y3897833D01*
X12787833Y3726927D01*
X12988798Y3592647D01*
X13212097Y3500153D01*
X13449151Y3453000D01*
X13690849Y3453000D01*
X13927903Y3500153D01*
X14151202Y3592647D01*
X14352167Y3726927D01*
X14523073Y3897833D01*
X14657353Y4098798D01*
X14749847Y4322097D01*
X14797000Y4559151D01*
X14797000Y4800849D01*
X14749847Y5037903D01*
X14657353Y5261202D01*
X14523073Y5462167D01*
X14352167Y5633073D01*
X14151202Y5767353D01*
X13927903Y5859847D01*
X13690849Y5907000D01*
X13449151Y5907000D01*
X13212097Y5859847D01*
X12988798Y5767353D01*
X12787833Y5633073D01*
X12616927Y5462167D01*
X12496757Y5282319D01*
X12458715Y5371646D01*
X12299500Y5604895D01*
X12097839Y5802601D01*
X11861483Y5957166D01*
X11599514Y6062650D01*
X11322000Y6115000D01*
X9468000Y6115000D01*
X9190486Y6062650D01*
X8928517Y5957166D01*
X8692161Y5802601D01*
X8490500Y5604895D01*
X8331285Y5371646D01*
X8220633Y5111818D01*
X8203096Y5029039D01*
X6467770Y5029039D01*
X6448349Y5075925D01*
X6084250Y5620839D01*
X5620839Y6084250D01*
X5075925Y6448349D01*
X4778364Y6571603D01*
X5773000Y6571603D01*
X5773000Y6428397D01*
X5800938Y6287942D01*
X5855741Y6155636D01*
X5935302Y6036564D01*
X6036564Y5935302D01*
X6155636Y5855741D01*
X6287942Y5800938D01*
X6428397Y5773000D01*
X6571603Y5773000D01*
X6712058Y5800938D01*
X6844364Y5855741D01*
X6963436Y5935302D01*
X7064698Y6036564D01*
X7144259Y6155636D01*
X7199062Y6287942D01*
X7227000Y6428397D01*
X7227000Y6571603D01*
X7199062Y6712058D01*
X7144259Y6844364D01*
X7064698Y6963436D01*
X6963436Y7064698D01*
X6844364Y7144259D01*
X6712058Y7199062D01*
X6571603Y7227000D01*
X6428397Y7227000D01*
X6287942Y7199062D01*
X6155636Y7144259D01*
X6036564Y7064698D01*
X5935302Y6963436D01*
X5855741Y6844364D01*
X5800938Y6712058D01*
X5773000Y6571603D01*
X4778364Y6571603D01*
X4470450Y6699145D01*
X3827681Y6827000D01*
X3172319Y6827000D01*
X2529550Y6699145D01*
X1924075Y6448349D01*
X1379161Y6084250D01*
X915750Y5620839D01*
X627000Y5188693D01*
X627000Y8571603D01*
X14273000Y8571603D01*
X14273000Y8428397D01*
X14300938Y8287942D01*
X14355741Y8155636D01*
X14435302Y8036564D01*
X14536564Y7935302D01*
X14655636Y7855741D01*
X14787942Y7800938D01*
X14798782Y7798782D01*
X14800938Y7787942D01*
X14855741Y7655636D01*
X14935302Y7536564D01*
X15036564Y7435302D01*
X15155636Y7355741D01*
X15287942Y7300938D01*
X15428397Y7273000D01*
X15571603Y7273000D01*
X15712058Y7300938D01*
X15844364Y7355741D01*
X15963436Y7435302D01*
X16064698Y7536564D01*
X16144259Y7655636D01*
X16199062Y7787942D01*
X16227000Y7928397D01*
X16227000Y8071603D01*
X19773000Y8071603D01*
X19773000Y7928397D01*
X19800938Y7787942D01*
X19855741Y7655636D01*
X19935302Y7536564D01*
X19971866Y7500000D01*
X19935302Y7463436D01*
X19855741Y7344364D01*
X19800938Y7212058D01*
X19773000Y7071603D01*
X19773000Y6928397D01*
X19800938Y6787942D01*
X19855741Y6655636D01*
X19926324Y6550000D01*
X19855741Y6444364D01*
X19800938Y6312058D01*
X19773000Y6171603D01*
X19773000Y6028397D01*
X19800938Y5887942D01*
X19855741Y5755636D01*
X19935302Y5636564D01*
X20036564Y5535302D01*
X20155636Y5455741D01*
X20287942Y5400938D01*
X20428397Y5373000D01*
X20571603Y5373000D01*
X20712058Y5400938D01*
X20844364Y5455741D01*
X20880670Y5480000D01*
X25040934Y5480000D01*
X25040934Y3880000D01*
X25049178Y3796293D01*
X25073595Y3715804D01*
X25113245Y3641624D01*
X25166605Y3576605D01*
X25231624Y3523245D01*
X25305804Y3483595D01*
X25386293Y3459178D01*
X25470000Y3450934D01*
X27070000Y3450934D01*
X27153707Y3459178D01*
X27234196Y3483595D01*
X27308376Y3523245D01*
X27373395Y3576605D01*
X27426755Y3641624D01*
X27466405Y3715804D01*
X27490822Y3796293D01*
X27499066Y3880000D01*
X27499066Y4800849D01*
X27583000Y4800849D01*
X27583000Y4559151D01*
X27630153Y4322097D01*
X27722647Y4098798D01*
X27856927Y3897833D01*
X28027833Y3726927D01*
X28228798Y3592647D01*
X28452097Y3500153D01*
X28689151Y3453000D01*
X28930849Y3453000D01*
X29167903Y3500153D01*
X29391202Y3592647D01*
X29592167Y3726927D01*
X29763073Y3897833D01*
X29897353Y4098798D01*
X29989847Y4322097D01*
X30037000Y4559151D01*
X30037000Y4800849D01*
X30123000Y4800849D01*
X30123000Y4559151D01*
X30170153Y4322097D01*
X30262647Y4098798D01*
X30396927Y3897833D01*
X30567833Y3726927D01*
X30768798Y3592647D01*
X30992097Y3500153D01*
X31229151Y3453000D01*
X31470849Y3453000D01*
X31707903Y3500153D01*
X31931202Y3592647D01*
X32132167Y3726927D01*
X32303073Y3897833D01*
X32437353Y4098798D01*
X32529847Y4322097D01*
X32577000Y4559151D01*
X32577000Y4800849D01*
X32663000Y4800849D01*
X32663000Y4559151D01*
X32710153Y4322097D01*
X32802647Y4098798D01*
X32936927Y3897833D01*
X33107833Y3726927D01*
X33308798Y3592647D01*
X33485644Y3519395D01*
X33273708Y3443603D01*
X33148486Y3376671D01*
X33076903Y3132702D01*
X33890000Y2319605D01*
X34703097Y3132702D01*
X34631514Y3376671D01*
X34376004Y3497571D01*
X34292314Y3518549D01*
X34471202Y3592647D01*
X34672167Y3726927D01*
X34843073Y3897833D01*
X34977353Y4098798D01*
X35069847Y4322097D01*
X35117000Y4559151D01*
X35117000Y4800849D01*
X35069847Y5037903D01*
X35035178Y5121603D01*
X36273000Y5121603D01*
X36273000Y4978397D01*
X36300938Y4837942D01*
X36355741Y4705636D01*
X36435302Y4586564D01*
X36536564Y4485302D01*
X36655636Y4405741D01*
X36787942Y4350938D01*
X36928397Y4323000D01*
X37071603Y4323000D01*
X37212058Y4350938D01*
X37344364Y4405741D01*
X37463436Y4485302D01*
X37564698Y4586564D01*
X37644259Y4705636D01*
X37699062Y4837942D01*
X37727000Y4978397D01*
X37727000Y5121603D01*
X37699062Y5262058D01*
X37644259Y5394364D01*
X37564698Y5513436D01*
X37463436Y5614698D01*
X37344364Y5694259D01*
X37212058Y5749062D01*
X37071603Y5777000D01*
X36928397Y5777000D01*
X36787942Y5749062D01*
X36655636Y5694259D01*
X36536564Y5614698D01*
X36435302Y5513436D01*
X36355741Y5394364D01*
X36300938Y5262058D01*
X36273000Y5121603D01*
X35035178Y5121603D01*
X34977353Y5261202D01*
X34843073Y5462167D01*
X34672167Y5633073D01*
X34471202Y5767353D01*
X34294356Y5840605D01*
X34506292Y5916397D01*
X34631514Y5983329D01*
X34703097Y6227298D01*
X33890000Y7040395D01*
X33076903Y6227298D01*
X33148486Y5983329D01*
X33403996Y5862429D01*
X33487686Y5841451D01*
X33308798Y5767353D01*
X33107833Y5633073D01*
X32936927Y5462167D01*
X32802647Y5261202D01*
X32710153Y5037903D01*
X32663000Y4800849D01*
X32577000Y4800849D01*
X32529847Y5037903D01*
X32437353Y5261202D01*
X32303073Y5462167D01*
X32132167Y5633073D01*
X31931202Y5767353D01*
X31707903Y5859847D01*
X31470849Y5907000D01*
X31229151Y5907000D01*
X30992097Y5859847D01*
X30768798Y5767353D01*
X30567833Y5633073D01*
X30396927Y5462167D01*
X30262647Y5261202D01*
X30170153Y5037903D01*
X30123000Y4800849D01*
X30037000Y4800849D01*
X29989847Y5037903D01*
X29897353Y5261202D01*
X29763073Y5462167D01*
X29592167Y5633073D01*
X29391202Y5767353D01*
X29167903Y5859847D01*
X28930849Y5907000D01*
X28689151Y5907000D01*
X28452097Y5859847D01*
X28228798Y5767353D01*
X28027833Y5633073D01*
X27856927Y5462167D01*
X27722647Y5261202D01*
X27630153Y5037903D01*
X27583000Y4800849D01*
X27499066Y4800849D01*
X27499066Y5480000D01*
X27490822Y5563707D01*
X27466405Y5644196D01*
X27426755Y5718376D01*
X27373395Y5783395D01*
X27308376Y5836755D01*
X27234196Y5876405D01*
X27153707Y5900822D01*
X27070000Y5909066D01*
X25470000Y5909066D01*
X25386293Y5900822D01*
X25305804Y5876405D01*
X25231624Y5836755D01*
X25166605Y5783395D01*
X25113245Y5718376D01*
X25073595Y5644196D01*
X25049178Y5563707D01*
X25040934Y5480000D01*
X20880670Y5480000D01*
X20963436Y5535302D01*
X21064698Y5636564D01*
X21144259Y5755636D01*
X21199062Y5887942D01*
X21227000Y6028397D01*
X21227000Y6171603D01*
X21199062Y6312058D01*
X21144259Y6444364D01*
X21073676Y6550000D01*
X21144259Y6655636D01*
X21199062Y6787942D01*
X21227000Y6928397D01*
X21227000Y7071603D01*
X21199062Y7212058D01*
X21144259Y7344364D01*
X21121350Y7378650D01*
X21155636Y7355741D01*
X21287942Y7300938D01*
X21428397Y7273000D01*
X21571603Y7273000D01*
X21712058Y7300938D01*
X21808411Y7340849D01*
X30123000Y7340849D01*
X30123000Y7099151D01*
X30170153Y6862097D01*
X30262647Y6638798D01*
X30396927Y6437833D01*
X30567833Y6266927D01*
X30768798Y6132647D01*
X30992097Y6040153D01*
X31229151Y5993000D01*
X31470849Y5993000D01*
X31707903Y6040153D01*
X31931202Y6132647D01*
X32132167Y6266927D01*
X32303073Y6437833D01*
X32437353Y6638798D01*
X32510605Y6815644D01*
X32586397Y6603708D01*
X32653329Y6478486D01*
X32897298Y6406903D01*
X33710395Y7220000D01*
X34069605Y7220000D01*
X34882702Y6406903D01*
X35126671Y6478486D01*
X35247571Y6733996D01*
X35268549Y6817686D01*
X35342647Y6638798D01*
X35476927Y6437833D01*
X35647833Y6266927D01*
X35848798Y6132647D01*
X36072097Y6040153D01*
X36309151Y5993000D01*
X36550849Y5993000D01*
X36787903Y6040153D01*
X37011202Y6132647D01*
X37212167Y6266927D01*
X37383073Y6437833D01*
X37517353Y6638798D01*
X37533467Y6677701D01*
X37531928Y6420000D01*
X37544188Y6295518D01*
X37580498Y6175820D01*
X37639463Y6065506D01*
X37718815Y5968815D01*
X37815506Y5889463D01*
X37925820Y5830498D01*
X38045518Y5794188D01*
X38170000Y5781928D01*
X38684250Y5785000D01*
X38843000Y5943750D01*
X38843000Y7093000D01*
X39097000Y7093000D01*
X39097000Y5943750D01*
X39255750Y5785000D01*
X39770000Y5781928D01*
X39894482Y5794188D01*
X40014180Y5830498D01*
X40124494Y5889463D01*
X40221185Y5968815D01*
X40300537Y6065506D01*
X40359502Y6175820D01*
X40395812Y6295518D01*
X40408072Y6420000D01*
X40405000Y6934250D01*
X40246250Y7093000D01*
X39097000Y7093000D01*
X38843000Y7093000D01*
X38823000Y7093000D01*
X38823000Y7347000D01*
X38843000Y7347000D01*
X38843000Y8496250D01*
X39097000Y8496250D01*
X39097000Y7347000D01*
X40246250Y7347000D01*
X40405000Y7505750D01*
X40406741Y7797199D01*
X40528397Y7773000D01*
X40671603Y7773000D01*
X40812058Y7800938D01*
X40944364Y7855741D01*
X41063436Y7935302D01*
X41164698Y8036564D01*
X41244259Y8155636D01*
X41299062Y8287942D01*
X41327000Y8428397D01*
X41327000Y8571603D01*
X41299062Y8712058D01*
X41244259Y8844364D01*
X41164698Y8963436D01*
X41063436Y9064698D01*
X40944364Y9144259D01*
X40812058Y9199062D01*
X40671603Y9227000D01*
X40528397Y9227000D01*
X40387942Y9199062D01*
X40255636Y9144259D01*
X40136564Y9064698D01*
X40035302Y8963436D01*
X39955741Y8844364D01*
X39900938Y8712058D01*
X39887890Y8646461D01*
X39770000Y8658072D01*
X39255750Y8655000D01*
X39097000Y8496250D01*
X38843000Y8496250D01*
X38684250Y8655000D01*
X38170000Y8658072D01*
X38045518Y8645812D01*
X37925820Y8609502D01*
X37815506Y8550537D01*
X37718815Y8471185D01*
X37639463Y8374494D01*
X37580498Y8264180D01*
X37544188Y8144482D01*
X37531928Y8020000D01*
X37533467Y7762299D01*
X37517353Y7801202D01*
X37383073Y8002167D01*
X37212167Y8173073D01*
X37011202Y8307353D01*
X36787903Y8399847D01*
X36550849Y8447000D01*
X36309151Y8447000D01*
X36072097Y8399847D01*
X35848798Y8307353D01*
X35647833Y8173073D01*
X35476927Y8002167D01*
X35342647Y7801202D01*
X35269395Y7624356D01*
X35193603Y7836292D01*
X35126671Y7961514D01*
X34882702Y8033097D01*
X34069605Y7220000D01*
X33710395Y7220000D01*
X32897298Y8033097D01*
X32653329Y7961514D01*
X32532429Y7706004D01*
X32511451Y7622314D01*
X32437353Y7801202D01*
X32303073Y8002167D01*
X32132167Y8173073D01*
X32072858Y8212702D01*
X33076903Y8212702D01*
X33890000Y7399605D01*
X34703097Y8212702D01*
X34631514Y8456671D01*
X34376004Y8577571D01*
X34101816Y8646300D01*
X33819488Y8660217D01*
X33539870Y8618787D01*
X33273708Y8523603D01*
X33148486Y8456671D01*
X33076903Y8212702D01*
X32072858Y8212702D01*
X31931202Y8307353D01*
X31707903Y8399847D01*
X31470849Y8447000D01*
X31229151Y8447000D01*
X30992097Y8399847D01*
X30768798Y8307353D01*
X30567833Y8173073D01*
X30396927Y8002167D01*
X30262647Y7801202D01*
X30170153Y7577903D01*
X30123000Y7340849D01*
X21808411Y7340849D01*
X21844364Y7355741D01*
X21963436Y7435302D01*
X22064698Y7536564D01*
X22144259Y7655636D01*
X22199062Y7787942D01*
X22227000Y7928397D01*
X22227000Y8071603D01*
X22199062Y8212058D01*
X22174398Y8271603D01*
X23873000Y8271603D01*
X23873000Y8128397D01*
X23900938Y7987942D01*
X23955741Y7855636D01*
X24035302Y7736564D01*
X24136564Y7635302D01*
X24255636Y7555741D01*
X24387942Y7500938D01*
X24528397Y7473000D01*
X24671603Y7473000D01*
X24812058Y7500938D01*
X24944364Y7555741D01*
X25063436Y7635302D01*
X25164698Y7736564D01*
X25244259Y7855636D01*
X25299062Y7987942D01*
X25327000Y8128397D01*
X25327000Y8271603D01*
X25299062Y8412058D01*
X25244259Y8544364D01*
X25226059Y8571603D01*
X27773000Y8571603D01*
X27773000Y8428397D01*
X27800938Y8287942D01*
X27855741Y8155636D01*
X27935302Y8036564D01*
X28036564Y7935302D01*
X28155636Y7855741D01*
X28287942Y7800938D01*
X28428397Y7773000D01*
X28571603Y7773000D01*
X28712058Y7800938D01*
X28844364Y7855741D01*
X28963436Y7935302D01*
X29064698Y8036564D01*
X29144259Y8155636D01*
X29199062Y8287942D01*
X29227000Y8428397D01*
X29227000Y8571603D01*
X29199062Y8712058D01*
X29144259Y8844364D01*
X29064698Y8963436D01*
X28963436Y9064698D01*
X28844364Y9144259D01*
X28712058Y9199062D01*
X28571603Y9227000D01*
X28428397Y9227000D01*
X28287942Y9199062D01*
X28155636Y9144259D01*
X28036564Y9064698D01*
X27935302Y8963436D01*
X27855741Y8844364D01*
X27800938Y8712058D01*
X27773000Y8571603D01*
X25226059Y8571603D01*
X25164698Y8663436D01*
X25063436Y8764698D01*
X24944364Y8844259D01*
X24812058Y8899062D01*
X24671603Y8927000D01*
X24528397Y8927000D01*
X24387942Y8899062D01*
X24255636Y8844259D01*
X24136564Y8764698D01*
X24035302Y8663436D01*
X23955741Y8544364D01*
X23900938Y8412058D01*
X23873000Y8271603D01*
X22174398Y8271603D01*
X22144259Y8344364D01*
X22064698Y8463436D01*
X21963436Y8564698D01*
X21844364Y8644259D01*
X21712058Y8699062D01*
X21571603Y8727000D01*
X21428397Y8727000D01*
X21287942Y8699062D01*
X21155636Y8644259D01*
X21036564Y8564698D01*
X21000000Y8528134D01*
X20963436Y8564698D01*
X20844364Y8644259D01*
X20712058Y8699062D01*
X20571603Y8727000D01*
X20428397Y8727000D01*
X20287942Y8699062D01*
X20155636Y8644259D01*
X20036564Y8564698D01*
X19935302Y8463436D01*
X19855741Y8344364D01*
X19800938Y8212058D01*
X19773000Y8071603D01*
X16227000Y8071603D01*
X16199062Y8212058D01*
X16144259Y8344364D01*
X16064698Y8463436D01*
X16028134Y8500000D01*
X16064698Y8536564D01*
X16144259Y8655636D01*
X16199062Y8787942D01*
X16227000Y8928397D01*
X16227000Y9071603D01*
X16199062Y9212058D01*
X16144259Y9344364D01*
X16064698Y9463436D01*
X15963436Y9564698D01*
X15844364Y9644259D01*
X15712058Y9699062D01*
X15571603Y9727000D01*
X15428397Y9727000D01*
X15287942Y9699062D01*
X15155636Y9644259D01*
X15036564Y9564698D01*
X14935302Y9463436D01*
X14855741Y9344364D01*
X14800938Y9212058D01*
X14798782Y9201218D01*
X14787942Y9199062D01*
X14655636Y9144259D01*
X14536564Y9064698D01*
X14435302Y8963436D01*
X14355741Y8844364D01*
X14300938Y8712058D01*
X14273000Y8571603D01*
X627000Y8571603D01*
X627000Y9880849D01*
X42823000Y9880849D01*
X42823000Y9639151D01*
X42870153Y9402097D01*
X42962647Y9178798D01*
X43096927Y8977833D01*
X43267833Y8806927D01*
X43468798Y8672647D01*
X43692097Y8580153D01*
X43929151Y8533000D01*
X44170849Y8533000D01*
X44407903Y8580153D01*
X44631202Y8672647D01*
X44832167Y8806927D01*
X45003073Y8977833D01*
X45137353Y9178798D01*
X45229847Y9402097D01*
X45277000Y9639151D01*
X45277000Y9880849D01*
X45229847Y10117903D01*
X45137353Y10341202D01*
X45003073Y10542167D01*
X44985240Y10560000D01*
X45360934Y10560000D01*
X45360934Y8960000D01*
X45369178Y8876293D01*
X45393595Y8795804D01*
X45433245Y8721624D01*
X45486605Y8656605D01*
X45551624Y8603245D01*
X45625804Y8563595D01*
X45706293Y8539178D01*
X45790000Y8530934D01*
X47390000Y8530934D01*
X47473707Y8539178D01*
X47554196Y8563595D01*
X47628376Y8603245D01*
X47693395Y8656605D01*
X47746755Y8721624D01*
X47786405Y8795804D01*
X47810822Y8876293D01*
X47819066Y8960000D01*
X47819066Y10560000D01*
X47810822Y10643707D01*
X47786405Y10724196D01*
X47746755Y10798376D01*
X47693395Y10863395D01*
X47628376Y10916755D01*
X47554196Y10956405D01*
X47473707Y10980822D01*
X47390000Y10989066D01*
X45790000Y10989066D01*
X45706293Y10980822D01*
X45625804Y10956405D01*
X45551624Y10916755D01*
X45486605Y10863395D01*
X45433245Y10798376D01*
X45393595Y10724196D01*
X45369178Y10643707D01*
X45360934Y10560000D01*
X44985240Y10560000D01*
X44832167Y10713073D01*
X44631202Y10847353D01*
X44407903Y10939847D01*
X44170849Y10987000D01*
X43929151Y10987000D01*
X43692097Y10939847D01*
X43468798Y10847353D01*
X43267833Y10713073D01*
X43096927Y10542167D01*
X42962647Y10341202D01*
X42870153Y10117903D01*
X42823000Y9880849D01*
X627000Y9880849D01*
X627000Y11571603D01*
X5773000Y11571603D01*
X5773000Y11428397D01*
X5800938Y11287942D01*
X5855741Y11155636D01*
X5935302Y11036564D01*
X6036564Y10935302D01*
X6155636Y10855741D01*
X6287942Y10800938D01*
X6428397Y10773000D01*
X6571603Y10773000D01*
X6712058Y10800938D01*
X6844364Y10855741D01*
X6963436Y10935302D01*
X7000000Y10971866D01*
X7036564Y10935302D01*
X7155636Y10855741D01*
X7287942Y10800938D01*
X7428397Y10773000D01*
X7571603Y10773000D01*
X7712058Y10800938D01*
X7844364Y10855741D01*
X7963436Y10935302D01*
X8000000Y10971866D01*
X8036564Y10935302D01*
X8155636Y10855741D01*
X8287942Y10800938D01*
X8298782Y10798782D01*
X8300938Y10787942D01*
X8355741Y10655636D01*
X8435302Y10536564D01*
X8536564Y10435302D01*
X8655636Y10355741D01*
X8787942Y10300938D01*
X8928397Y10273000D01*
X9071603Y10273000D01*
X9212058Y10300938D01*
X9344364Y10355741D01*
X9463436Y10435302D01*
X9564698Y10536564D01*
X9644259Y10655636D01*
X9699062Y10787942D01*
X9701218Y10798782D01*
X9712058Y10800938D01*
X9844364Y10855741D01*
X9963436Y10935302D01*
X10064698Y11036564D01*
X10144259Y11155636D01*
X10199062Y11287942D01*
X10227000Y11428397D01*
X10227000Y11571603D01*
X10199062Y11712058D01*
X10144259Y11844364D01*
X10064698Y11963436D01*
X9963436Y12064698D01*
X9844364Y12144259D01*
X9712058Y12199062D01*
X9571603Y12227000D01*
X9428397Y12227000D01*
X9287942Y12199062D01*
X9155636Y12144259D01*
X9036564Y12064698D01*
X9000000Y12028134D01*
X8963436Y12064698D01*
X8844364Y12144259D01*
X8712058Y12199062D01*
X8571603Y12227000D01*
X8428397Y12227000D01*
X8287942Y12199062D01*
X8155636Y12144259D01*
X8036564Y12064698D01*
X8000000Y12028134D01*
X7963436Y12064698D01*
X7844364Y12144259D01*
X7712058Y12199062D01*
X7571603Y12227000D01*
X7428397Y12227000D01*
X7287942Y12199062D01*
X7155636Y12144259D01*
X7036564Y12064698D01*
X7000000Y12028134D01*
X6963436Y12064698D01*
X6844364Y12144259D01*
X6712058Y12199062D01*
X6571603Y12227000D01*
X6428397Y12227000D01*
X6287942Y12199062D01*
X6155636Y12144259D01*
X6036564Y12064698D01*
X5935302Y11963436D01*
X5855741Y11844364D01*
X5800938Y11712058D01*
X5773000Y11571603D01*
X627000Y11571603D01*
X627000Y12420849D01*
X42823000Y12420849D01*
X42823000Y12179151D01*
X42870153Y11942097D01*
X42962647Y11718798D01*
X43096927Y11517833D01*
X43267833Y11346927D01*
X43468798Y11212647D01*
X43692097Y11120153D01*
X43929151Y11073000D01*
X44170849Y11073000D01*
X44407903Y11120153D01*
X44631202Y11212647D01*
X44832167Y11346927D01*
X45003073Y11517833D01*
X45137353Y11718798D01*
X45229847Y11942097D01*
X45277000Y12179151D01*
X45277000Y12420849D01*
X45363000Y12420849D01*
X45363000Y12179151D01*
X45410153Y11942097D01*
X45502647Y11718798D01*
X45636927Y11517833D01*
X45807833Y11346927D01*
X46008798Y11212647D01*
X46232097Y11120153D01*
X46469151Y11073000D01*
X46710849Y11073000D01*
X46947903Y11120153D01*
X47171202Y11212647D01*
X47372167Y11346927D01*
X47543073Y11517833D01*
X47677353Y11718798D01*
X47769847Y11942097D01*
X47817000Y12179151D01*
X47817000Y12420849D01*
X47769847Y12657903D01*
X47677353Y12881202D01*
X47543073Y13082167D01*
X47372167Y13253073D01*
X47171202Y13387353D01*
X46947903Y13479847D01*
X46710849Y13527000D01*
X46469151Y13527000D01*
X46232097Y13479847D01*
X46008798Y13387353D01*
X45807833Y13253073D01*
X45636927Y13082167D01*
X45502647Y12881202D01*
X45410153Y12657903D01*
X45363000Y12420849D01*
X45277000Y12420849D01*
X45229847Y12657903D01*
X45137353Y12881202D01*
X45003073Y13082167D01*
X44832167Y13253073D01*
X44631202Y13387353D01*
X44407903Y13479847D01*
X44170849Y13527000D01*
X43929151Y13527000D01*
X43692097Y13479847D01*
X43468798Y13387353D01*
X43267833Y13253073D01*
X43096927Y13082167D01*
X42962647Y12881202D01*
X42870153Y12657903D01*
X42823000Y12420849D01*
X627000Y12420849D01*
X627000Y14960849D01*
X42823000Y14960849D01*
X42823000Y14719151D01*
X42870153Y14482097D01*
X42962647Y14258798D01*
X43096927Y14057833D01*
X43267833Y13886927D01*
X43468798Y13752647D01*
X43692097Y13660153D01*
X43929151Y13613000D01*
X44170849Y13613000D01*
X44407903Y13660153D01*
X44631202Y13752647D01*
X44832167Y13886927D01*
X45003073Y14057833D01*
X45137353Y14258798D01*
X45229847Y14482097D01*
X45277000Y14719151D01*
X45277000Y14960849D01*
X45363000Y14960849D01*
X45363000Y14719151D01*
X45410153Y14482097D01*
X45502647Y14258798D01*
X45636927Y14057833D01*
X45807833Y13886927D01*
X46008798Y13752647D01*
X46232097Y13660153D01*
X46469151Y13613000D01*
X46710849Y13613000D01*
X46947903Y13660153D01*
X47171202Y13752647D01*
X47372167Y13886927D01*
X47543073Y14057833D01*
X47677353Y14258798D01*
X47769847Y14482097D01*
X47817000Y14719151D01*
X47817000Y14960849D01*
X47769847Y15197903D01*
X47677353Y15421202D01*
X47543073Y15622167D01*
X47372167Y15793073D01*
X47171202Y15927353D01*
X46947903Y16019847D01*
X46710849Y16067000D01*
X46469151Y16067000D01*
X46232097Y16019847D01*
X46008798Y15927353D01*
X45807833Y15793073D01*
X45636927Y15622167D01*
X45502647Y15421202D01*
X45410153Y15197903D01*
X45363000Y14960849D01*
X45277000Y14960849D01*
X45229847Y15197903D01*
X45137353Y15421202D01*
X45003073Y15622167D01*
X44832167Y15793073D01*
X44631202Y15927353D01*
X44407903Y16019847D01*
X44170849Y16067000D01*
X43929151Y16067000D01*
X43692097Y16019847D01*
X43468798Y15927353D01*
X43267833Y15793073D01*
X43096927Y15622167D01*
X42962647Y15421202D01*
X42870153Y15197903D01*
X42823000Y14960849D01*
X627000Y14960849D01*
X627000Y17500849D01*
X42823000Y17500849D01*
X42823000Y17259151D01*
X42870153Y17022097D01*
X42962647Y16798798D01*
X43096927Y16597833D01*
X43267833Y16426927D01*
X43468798Y16292647D01*
X43692097Y16200153D01*
X43929151Y16153000D01*
X44170849Y16153000D01*
X44407903Y16200153D01*
X44631202Y16292647D01*
X44832167Y16426927D01*
X45003073Y16597833D01*
X45137353Y16798798D01*
X45229847Y17022097D01*
X45277000Y17259151D01*
X45277000Y17500849D01*
X45363000Y17500849D01*
X45363000Y17259151D01*
X45410153Y17022097D01*
X45502647Y16798798D01*
X45636927Y16597833D01*
X45807833Y16426927D01*
X46008798Y16292647D01*
X46232097Y16200153D01*
X46469151Y16153000D01*
X46710849Y16153000D01*
X46947903Y16200153D01*
X47171202Y16292647D01*
X47372167Y16426927D01*
X47543073Y16597833D01*
X47677353Y16798798D01*
X47769847Y17022097D01*
X47817000Y17259151D01*
X47817000Y17500849D01*
X47769847Y17737903D01*
X47677353Y17961202D01*
X47543073Y18162167D01*
X47372167Y18333073D01*
X47171202Y18467353D01*
X46947903Y18559847D01*
X46710849Y18607000D01*
X46469151Y18607000D01*
X46232097Y18559847D01*
X46008798Y18467353D01*
X45807833Y18333073D01*
X45636927Y18162167D01*
X45502647Y17961202D01*
X45410153Y17737903D01*
X45363000Y17500849D01*
X45277000Y17500849D01*
X45229847Y17737903D01*
X45137353Y17961202D01*
X45003073Y18162167D01*
X44832167Y18333073D01*
X44631202Y18467353D01*
X44407903Y18559847D01*
X44170849Y18607000D01*
X43929151Y18607000D01*
X43692097Y18559847D01*
X43468798Y18467353D01*
X43267833Y18333073D01*
X43096927Y18162167D01*
X42962647Y17961202D01*
X42870153Y17737903D01*
X42823000Y17500849D01*
X627000Y17500849D01*
X627000Y18671603D01*
X1573000Y18671603D01*
X1573000Y18528397D01*
X1600938Y18387942D01*
X1655741Y18255636D01*
X1735302Y18136564D01*
X1836564Y18035302D01*
X1955636Y17955741D01*
X2087942Y17900938D01*
X2228397Y17873000D01*
X2371603Y17873000D01*
X2512058Y17900938D01*
X2644364Y17955741D01*
X2763436Y18035302D01*
X2864698Y18136564D01*
X2944259Y18255636D01*
X2999062Y18387942D01*
X3027000Y18528397D01*
X3027000Y18671603D01*
X2999062Y18812058D01*
X2944259Y18944364D01*
X2864698Y19063436D01*
X2763436Y19164698D01*
X2644364Y19244259D01*
X2512058Y19299062D01*
X2371603Y19327000D01*
X2228397Y19327000D01*
X2087942Y19299062D01*
X1955636Y19244259D01*
X1836564Y19164698D01*
X1735302Y19063436D01*
X1655741Y18944364D01*
X1600938Y18812058D01*
X1573000Y18671603D01*
X627000Y18671603D01*
X627000Y20271603D01*
X7873000Y20271603D01*
X7873000Y20128397D01*
X7900938Y19987942D01*
X7955741Y19855636D01*
X8035302Y19736564D01*
X8136564Y19635302D01*
X8255636Y19555741D01*
X8387942Y19500938D01*
X8528397Y19473000D01*
X8671603Y19473000D01*
X8812058Y19500938D01*
X8944364Y19555741D01*
X9063436Y19635302D01*
X9164698Y19736564D01*
X9244259Y19855636D01*
X9299062Y19987942D01*
X9327000Y20128397D01*
X9327000Y20271603D01*
X9299062Y20412058D01*
X9244259Y20544364D01*
X9164698Y20663436D01*
X9063436Y20764698D01*
X8944364Y20844259D01*
X8812058Y20899062D01*
X8671603Y20927000D01*
X8528397Y20927000D01*
X8387942Y20899062D01*
X8255636Y20844259D01*
X8136564Y20764698D01*
X8035302Y20663436D01*
X7955741Y20544364D01*
X7900938Y20412058D01*
X7873000Y20271603D01*
X627000Y20271603D01*
X627000Y21571603D01*
X44673000Y21571603D01*
X44673000Y21428397D01*
X44700938Y21287942D01*
X44755741Y21155636D01*
X44835302Y21036564D01*
X44936564Y20935302D01*
X45055636Y20855741D01*
X45187942Y20800938D01*
X45328397Y20773000D01*
X45471603Y20773000D01*
X45612058Y20800938D01*
X45744364Y20855741D01*
X45863436Y20935302D01*
X45964698Y21036564D01*
X46044259Y21155636D01*
X46099062Y21287942D01*
X46127000Y21428397D01*
X46127000Y21571603D01*
X46099062Y21712058D01*
X46044259Y21844364D01*
X45964698Y21963436D01*
X45863436Y22064698D01*
X45744364Y22144259D01*
X45612058Y22199062D01*
X45471603Y22227000D01*
X45328397Y22227000D01*
X45187942Y22199062D01*
X45055636Y22144259D01*
X44936564Y22064698D01*
X44835302Y21963436D01*
X44755741Y21844364D01*
X44700938Y21712058D01*
X44673000Y21571603D01*
X627000Y21571603D01*
X627000Y22471603D01*
X1173000Y22471603D01*
X1173000Y22328397D01*
X1200938Y22187942D01*
X1255741Y22055636D01*
X1335302Y21936564D01*
X1436564Y21835302D01*
X1555636Y21755741D01*
X1687942Y21700938D01*
X1828397Y21673000D01*
X1971603Y21673000D01*
X2112058Y21700938D01*
X2244364Y21755741D01*
X2350000Y21826324D01*
X2455636Y21755741D01*
X2587942Y21700938D01*
X2728397Y21673000D01*
X2871603Y21673000D01*
X3012058Y21700938D01*
X3144364Y21755741D01*
X3263436Y21835302D01*
X3364698Y21936564D01*
X3444259Y22055636D01*
X3499062Y22187942D01*
X3527000Y22328397D01*
X3527000Y22471603D01*
X3499062Y22612058D01*
X3444259Y22744364D01*
X3364698Y22863436D01*
X3356531Y22871603D01*
X7873000Y22871603D01*
X7873000Y22728397D01*
X7900938Y22587942D01*
X7955741Y22455636D01*
X8035302Y22336564D01*
X8136564Y22235302D01*
X8255636Y22155741D01*
X8387942Y22100938D01*
X8528397Y22073000D01*
X8671603Y22073000D01*
X8812058Y22100938D01*
X8944364Y22155741D01*
X9063436Y22235302D01*
X9164698Y22336564D01*
X9244259Y22455636D01*
X9299062Y22587942D01*
X9327000Y22728397D01*
X9327000Y22871603D01*
X9299062Y23012058D01*
X9244259Y23144364D01*
X9164698Y23263436D01*
X9063436Y23364698D01*
X8944364Y23444259D01*
X8812058Y23499062D01*
X8671603Y23527000D01*
X8528397Y23527000D01*
X8387942Y23499062D01*
X8255636Y23444259D01*
X8136564Y23364698D01*
X8035302Y23263436D01*
X7955741Y23144364D01*
X7900938Y23012058D01*
X7873000Y22871603D01*
X3356531Y22871603D01*
X3263436Y22964698D01*
X3144364Y23044259D01*
X3012058Y23099062D01*
X2871603Y23127000D01*
X2728397Y23127000D01*
X2587942Y23099062D01*
X2455636Y23044259D01*
X2350000Y22973676D01*
X2244364Y23044259D01*
X2112058Y23099062D01*
X1971603Y23127000D01*
X1828397Y23127000D01*
X1687942Y23099062D01*
X1555636Y23044259D01*
X1436564Y22964698D01*
X1335302Y22863436D01*
X1255741Y22744364D01*
X1200938Y22612058D01*
X1173000Y22471603D01*
X627000Y22471603D01*
X627000Y24071603D01*
X773000Y24071603D01*
X773000Y23928397D01*
X800938Y23787942D01*
X855741Y23655636D01*
X935302Y23536564D01*
X1036564Y23435302D01*
X1155636Y23355741D01*
X1287942Y23300938D01*
X1428397Y23273000D01*
X1571603Y23273000D01*
X1712058Y23300938D01*
X1844364Y23355741D01*
X1963436Y23435302D01*
X2064698Y23536564D01*
X2144259Y23655636D01*
X2199062Y23787942D01*
X2227000Y23928397D01*
X2227000Y24071603D01*
X2199062Y24212058D01*
X2144259Y24344364D01*
X2064698Y24463436D01*
X1963436Y24564698D01*
X1844364Y24644259D01*
X1712058Y24699062D01*
X1571603Y24727000D01*
X1428397Y24727000D01*
X1287942Y24699062D01*
X1155636Y24644259D01*
X1036564Y24564698D01*
X935302Y24463436D01*
X855741Y24344364D01*
X800938Y24212058D01*
X773000Y24071603D01*
X627000Y24071603D01*
X627000Y25371603D01*
X7873000Y25371603D01*
X7873000Y25228397D01*
X7900938Y25087942D01*
X7955741Y24955636D01*
X8035302Y24836564D01*
X8136564Y24735302D01*
X8255636Y24655741D01*
X8387942Y24600938D01*
X8528397Y24573000D01*
X8671603Y24573000D01*
X8812058Y24600938D01*
X8944364Y24655741D01*
X9063436Y24735302D01*
X9164698Y24836564D01*
X9244259Y24955636D01*
X9299062Y25087942D01*
X9327000Y25228397D01*
X9327000Y25371603D01*
X9299062Y25512058D01*
X9244259Y25644364D01*
X9164698Y25763436D01*
X9063436Y25864698D01*
X8944364Y25944259D01*
X8812058Y25999062D01*
X8671603Y26027000D01*
X8528397Y26027000D01*
X8387942Y25999062D01*
X8255636Y25944259D01*
X8136564Y25864698D01*
X8035302Y25763436D01*
X7955741Y25644364D01*
X7900938Y25512058D01*
X7873000Y25371603D01*
X627000Y25371603D01*
X627000Y26543007D01*
X5722612Y26543007D01*
X5788137Y26304140D01*
X6035116Y26188240D01*
X6299960Y26122750D01*
X6572492Y26110188D01*
X6842238Y26151035D01*
X7098832Y26243723D01*
X7150991Y26271603D01*
X30173000Y26271603D01*
X30173000Y26128397D01*
X30200938Y25987942D01*
X30255741Y25855636D01*
X30335302Y25736564D01*
X30436564Y25635302D01*
X30555636Y25555741D01*
X30687942Y25500938D01*
X30828397Y25473000D01*
X30971603Y25473000D01*
X31112058Y25500938D01*
X31244364Y25555741D01*
X31363436Y25635302D01*
X31464698Y25736564D01*
X31544259Y25855636D01*
X31599062Y25987942D01*
X31627000Y26128397D01*
X31627000Y26271603D01*
X31599062Y26412058D01*
X31544259Y26544364D01*
X31464698Y26663436D01*
X31363436Y26764698D01*
X31244364Y26844259D01*
X31112058Y26899062D01*
X30971603Y26927000D01*
X30828397Y26927000D01*
X30687942Y26899062D01*
X30555636Y26844259D01*
X30436564Y26764698D01*
X30335302Y26663436D01*
X30255741Y26544364D01*
X30200938Y26412058D01*
X30173000Y26271603D01*
X7150991Y26271603D01*
X7211863Y26304140D01*
X7277388Y26543007D01*
X6500000Y27320395D01*
X5722612Y26543007D01*
X627000Y26543007D01*
X627000Y27427508D01*
X5110188Y27427508D01*
X5151035Y27157762D01*
X5243723Y26901168D01*
X5304140Y26788137D01*
X5543007Y26722612D01*
X6320395Y27500000D01*
X6679605Y27500000D01*
X7456993Y26722612D01*
X7695860Y26788137D01*
X7811760Y27035116D01*
X7877250Y27299960D01*
X7889812Y27572492D01*
X7848965Y27842238D01*
X7756277Y28098832D01*
X7695860Y28211863D01*
X7456993Y28277388D01*
X6679605Y27500000D01*
X6320395Y27500000D01*
X5543007Y28277388D01*
X5304140Y28211863D01*
X5188240Y27964884D01*
X5122750Y27700040D01*
X5110188Y27427508D01*
X627000Y27427508D01*
X627000Y28456993D01*
X5722612Y28456993D01*
X6500000Y27679605D01*
X7277388Y28456993D01*
X7211863Y28695860D01*
X6964884Y28811760D01*
X6700040Y28877250D01*
X6427508Y28889812D01*
X6157762Y28848965D01*
X5901168Y28756277D01*
X5788137Y28695860D01*
X5722612Y28456993D01*
X627000Y28456993D01*
X627000Y29871603D01*
X22373000Y29871603D01*
X22373000Y29728397D01*
X22400938Y29587942D01*
X22455741Y29455636D01*
X22535302Y29336564D01*
X22636564Y29235302D01*
X22755636Y29155741D01*
X22773000Y29148549D01*
X22773000Y29028397D01*
X22800938Y28887942D01*
X22855741Y28755636D01*
X22935302Y28636564D01*
X23036564Y28535302D01*
X23155636Y28455741D01*
X23287942Y28400938D01*
X23428397Y28373000D01*
X23571603Y28373000D01*
X23712058Y28400938D01*
X23844364Y28455741D01*
X23950000Y28526324D01*
X24055636Y28455741D01*
X24187942Y28400938D01*
X24328397Y28373000D01*
X24471603Y28373000D01*
X24612058Y28400938D01*
X24744364Y28455741D01*
X24850000Y28526324D01*
X24955636Y28455741D01*
X25087942Y28400938D01*
X25228397Y28373000D01*
X25371603Y28373000D01*
X25512058Y28400938D01*
X25644364Y28455741D01*
X25750000Y28526324D01*
X25855636Y28455741D01*
X25987942Y28400938D01*
X26128397Y28373000D01*
X26271603Y28373000D01*
X26412058Y28400938D01*
X26544364Y28455741D01*
X26650000Y28526324D01*
X26755636Y28455741D01*
X26887942Y28400938D01*
X27028397Y28373000D01*
X27171603Y28373000D01*
X27312058Y28400938D01*
X27444364Y28455741D01*
X27563436Y28535302D01*
X27664698Y28636564D01*
X27744259Y28755636D01*
X27799062Y28887942D01*
X27827000Y29028397D01*
X27827000Y29171603D01*
X27799062Y29312058D01*
X27744259Y29444364D01*
X27664698Y29563436D01*
X27563436Y29664698D01*
X27444364Y29744259D01*
X27312058Y29799062D01*
X27171603Y29827000D01*
X27028397Y29827000D01*
X26887942Y29799062D01*
X26755636Y29744259D01*
X26650000Y29673676D01*
X26544364Y29744259D01*
X26412058Y29799062D01*
X26271603Y29827000D01*
X26128397Y29827000D01*
X25987942Y29799062D01*
X25855636Y29744259D01*
X25750000Y29673676D01*
X25644364Y29744259D01*
X25512058Y29799062D01*
X25371603Y29827000D01*
X25228397Y29827000D01*
X25087942Y29799062D01*
X24955636Y29744259D01*
X24850000Y29673676D01*
X24744364Y29744259D01*
X24612058Y29799062D01*
X24471603Y29827000D01*
X24328397Y29827000D01*
X24187942Y29799062D01*
X24055636Y29744259D01*
X23950000Y29673676D01*
X23844364Y29744259D01*
X23827000Y29751451D01*
X23827000Y29871603D01*
X23799062Y30012058D01*
X23744259Y30144364D01*
X23664698Y30263436D01*
X23563436Y30364698D01*
X23444364Y30444259D01*
X23312058Y30499062D01*
X23171603Y30527000D01*
X23028397Y30527000D01*
X22887942Y30499062D01*
X22755636Y30444259D01*
X22636564Y30364698D01*
X22535302Y30263436D01*
X22455741Y30144364D01*
X22400938Y30012058D01*
X22373000Y29871603D01*
X627000Y29871603D01*
X627000Y32740849D01*
X2183000Y32740849D01*
X2183000Y32499151D01*
X2230153Y32262097D01*
X2322647Y32038798D01*
X2456927Y31837833D01*
X2627833Y31666927D01*
X2828798Y31532647D01*
X3052097Y31440153D01*
X3289151Y31393000D01*
X3530849Y31393000D01*
X3767903Y31440153D01*
X3991202Y31532647D01*
X4192167Y31666927D01*
X4363073Y31837833D01*
X4497353Y32038798D01*
X4589847Y32262097D01*
X4637000Y32499151D01*
X4637000Y32740849D01*
X4723000Y32740849D01*
X4723000Y32499151D01*
X4770153Y32262097D01*
X4862647Y32038798D01*
X4996927Y31837833D01*
X5167833Y31666927D01*
X5368798Y31532647D01*
X5592097Y31440153D01*
X5829151Y31393000D01*
X6070849Y31393000D01*
X6307903Y31440153D01*
X6531202Y31532647D01*
X6732167Y31666927D01*
X6903073Y31837833D01*
X7037353Y32038798D01*
X7129847Y32262097D01*
X7177000Y32499151D01*
X7177000Y32740849D01*
X7150992Y32871603D01*
X21422990Y32871603D01*
X21422990Y32728397D01*
X21450928Y32587942D01*
X21505731Y32455636D01*
X21585292Y32336564D01*
X21686554Y32235302D01*
X21805626Y32155741D01*
X21937932Y32100938D01*
X22078387Y32073000D01*
X22221593Y32073000D01*
X22362048Y32100938D01*
X22494354Y32155741D01*
X22613426Y32235302D01*
X22714688Y32336564D01*
X22794249Y32455636D01*
X22849052Y32587942D01*
X22876990Y32728397D01*
X22876990Y32871603D01*
X26973000Y32871603D01*
X26973000Y32728397D01*
X27000938Y32587942D01*
X27055741Y32455636D01*
X27135302Y32336564D01*
X27236564Y32235302D01*
X27355636Y32155741D01*
X27487942Y32100938D01*
X27628397Y32073000D01*
X27771603Y32073000D01*
X27912058Y32100938D01*
X28044364Y32155741D01*
X28163436Y32235302D01*
X28264698Y32336564D01*
X28344259Y32455636D01*
X28399062Y32587942D01*
X28427000Y32728397D01*
X28427000Y32740849D01*
X42823000Y32740849D01*
X42823000Y32499151D01*
X42870153Y32262097D01*
X42962647Y32038798D01*
X43096927Y31837833D01*
X43267833Y31666927D01*
X43468798Y31532647D01*
X43692097Y31440153D01*
X43929151Y31393000D01*
X44170849Y31393000D01*
X44407903Y31440153D01*
X44631202Y31532647D01*
X44832167Y31666927D01*
X45003073Y31837833D01*
X45137353Y32038798D01*
X45229847Y32262097D01*
X45277000Y32499151D01*
X45277000Y32740849D01*
X45229847Y32977903D01*
X45137353Y33201202D01*
X45003073Y33402167D01*
X44985240Y33420000D01*
X45360934Y33420000D01*
X45360934Y31820000D01*
X45369178Y31736293D01*
X45393595Y31655804D01*
X45433245Y31581624D01*
X45486605Y31516605D01*
X45551624Y31463245D01*
X45625804Y31423595D01*
X45706293Y31399178D01*
X45790000Y31390934D01*
X47390000Y31390934D01*
X47473707Y31399178D01*
X47554196Y31423595D01*
X47628376Y31463245D01*
X47693395Y31516605D01*
X47746755Y31581624D01*
X47786405Y31655804D01*
X47810822Y31736293D01*
X47819066Y31820000D01*
X47819066Y33420000D01*
X47810822Y33503707D01*
X47786405Y33584196D01*
X47746755Y33658376D01*
X47693395Y33723395D01*
X47628376Y33776755D01*
X47554196Y33816405D01*
X47473707Y33840822D01*
X47390000Y33849066D01*
X45790000Y33849066D01*
X45706293Y33840822D01*
X45625804Y33816405D01*
X45551624Y33776755D01*
X45486605Y33723395D01*
X45433245Y33658376D01*
X45393595Y33584196D01*
X45369178Y33503707D01*
X45360934Y33420000D01*
X44985240Y33420000D01*
X44832167Y33573073D01*
X44631202Y33707353D01*
X44407903Y33799847D01*
X44170849Y33847000D01*
X43929151Y33847000D01*
X43692097Y33799847D01*
X43468798Y33707353D01*
X43267833Y33573073D01*
X43096927Y33402167D01*
X42962647Y33201202D01*
X42870153Y32977903D01*
X42823000Y32740849D01*
X28427000Y32740849D01*
X28427000Y32871603D01*
X28399062Y33012058D01*
X28344259Y33144364D01*
X28264698Y33263436D01*
X28163436Y33364698D01*
X28044364Y33444259D01*
X27912058Y33499062D01*
X27771603Y33527000D01*
X27628397Y33527000D01*
X27487942Y33499062D01*
X27355636Y33444259D01*
X27236564Y33364698D01*
X27135302Y33263436D01*
X27055741Y33144364D01*
X27000938Y33012058D01*
X26973000Y32871603D01*
X22876990Y32871603D01*
X22849052Y33012058D01*
X22794249Y33144364D01*
X22714688Y33263436D01*
X22613426Y33364698D01*
X22494354Y33444259D01*
X22362048Y33499062D01*
X22221593Y33527000D01*
X22078387Y33527000D01*
X21937932Y33499062D01*
X21805626Y33444259D01*
X21686554Y33364698D01*
X21585292Y33263436D01*
X21505731Y33144364D01*
X21450928Y33012058D01*
X21422990Y32871603D01*
X7150992Y32871603D01*
X7129847Y32977903D01*
X7037353Y33201202D01*
X6903073Y33402167D01*
X6732167Y33573073D01*
X6531202Y33707353D01*
X6307903Y33799847D01*
X6070849Y33847000D01*
X5829151Y33847000D01*
X5592097Y33799847D01*
X5368798Y33707353D01*
X5167833Y33573073D01*
X4996927Y33402167D01*
X4862647Y33201202D01*
X4770153Y32977903D01*
X4723000Y32740849D01*
X4637000Y32740849D01*
X4589847Y32977903D01*
X4497353Y33201202D01*
X4363073Y33402167D01*
X4192167Y33573073D01*
X3991202Y33707353D01*
X3767903Y33799847D01*
X3530849Y33847000D01*
X3289151Y33847000D01*
X3052097Y33799847D01*
X2828798Y33707353D01*
X2627833Y33573073D01*
X2456927Y33402167D01*
X2322647Y33201202D01*
X2230153Y32977903D01*
X2183000Y32740849D01*
X627000Y32740849D01*
X627000Y35280849D01*
X2183000Y35280849D01*
X2183000Y35039151D01*
X2230153Y34802097D01*
X2322647Y34578798D01*
X2456927Y34377833D01*
X2627833Y34206927D01*
X2828798Y34072647D01*
X3052097Y33980153D01*
X3289151Y33933000D01*
X3530849Y33933000D01*
X3767903Y33980153D01*
X3991202Y34072647D01*
X4192167Y34206927D01*
X4363073Y34377833D01*
X4497353Y34578798D01*
X4589847Y34802097D01*
X4637000Y35039151D01*
X4637000Y35280849D01*
X4723000Y35280849D01*
X4723000Y35039151D01*
X4770153Y34802097D01*
X4862647Y34578798D01*
X4996927Y34377833D01*
X5167833Y34206927D01*
X5368798Y34072647D01*
X5592097Y33980153D01*
X5829151Y33933000D01*
X6070849Y33933000D01*
X6307903Y33980153D01*
X6531202Y34072647D01*
X6732167Y34206927D01*
X6903073Y34377833D01*
X7032545Y34571603D01*
X20773000Y34571603D01*
X20773000Y34428397D01*
X20800938Y34287942D01*
X20855741Y34155636D01*
X20935302Y34036564D01*
X21036564Y33935302D01*
X21155636Y33855741D01*
X21287942Y33800938D01*
X21428397Y33773000D01*
X21571603Y33773000D01*
X21712058Y33800938D01*
X21844364Y33855741D01*
X21963436Y33935302D01*
X22064698Y34036564D01*
X22144259Y34155636D01*
X22199062Y34287942D01*
X22227000Y34428397D01*
X22227000Y34571603D01*
X22199062Y34712058D01*
X22144259Y34844364D01*
X22064698Y34963436D01*
X21963436Y35064698D01*
X21844364Y35144259D01*
X21712058Y35199062D01*
X21571603Y35227000D01*
X21428397Y35227000D01*
X21287942Y35199062D01*
X21155636Y35144259D01*
X21036564Y35064698D01*
X20935302Y34963436D01*
X20855741Y34844364D01*
X20800938Y34712058D01*
X20773000Y34571603D01*
X7032545Y34571603D01*
X7037353Y34578798D01*
X7129847Y34802097D01*
X7177000Y35039151D01*
X7177000Y35280849D01*
X42823000Y35280849D01*
X42823000Y35039151D01*
X42870153Y34802097D01*
X42962647Y34578798D01*
X43096927Y34377833D01*
X43267833Y34206927D01*
X43468798Y34072647D01*
X43692097Y33980153D01*
X43929151Y33933000D01*
X44170849Y33933000D01*
X44407903Y33980153D01*
X44631202Y34072647D01*
X44832167Y34206927D01*
X45003073Y34377833D01*
X45137353Y34578798D01*
X45229847Y34802097D01*
X45277000Y35039151D01*
X45277000Y35280849D01*
X45363000Y35280849D01*
X45363000Y35039151D01*
X45410153Y34802097D01*
X45502647Y34578798D01*
X45636927Y34377833D01*
X45807833Y34206927D01*
X46008798Y34072647D01*
X46232097Y33980153D01*
X46469151Y33933000D01*
X46710849Y33933000D01*
X46947903Y33980153D01*
X47171202Y34072647D01*
X47372167Y34206927D01*
X47543073Y34377833D01*
X47677353Y34578798D01*
X47769847Y34802097D01*
X47817000Y35039151D01*
X47817000Y35280849D01*
X47769847Y35517903D01*
X47677353Y35741202D01*
X47543073Y35942167D01*
X47372167Y36113073D01*
X47171202Y36247353D01*
X46947903Y36339847D01*
X46710849Y36387000D01*
X46469151Y36387000D01*
X46232097Y36339847D01*
X46008798Y36247353D01*
X45807833Y36113073D01*
X45636927Y35942167D01*
X45502647Y35741202D01*
X45410153Y35517903D01*
X45363000Y35280849D01*
X45277000Y35280849D01*
X45229847Y35517903D01*
X45137353Y35741202D01*
X45003073Y35942167D01*
X44832167Y36113073D01*
X44631202Y36247353D01*
X44407903Y36339847D01*
X44170849Y36387000D01*
X43929151Y36387000D01*
X43692097Y36339847D01*
X43468798Y36247353D01*
X43267833Y36113073D01*
X43096927Y35942167D01*
X42962647Y35741202D01*
X42870153Y35517903D01*
X42823000Y35280849D01*
X7177000Y35280849D01*
X7129847Y35517903D01*
X7037353Y35741202D01*
X6903073Y35942167D01*
X6732167Y36113073D01*
X6531202Y36247353D01*
X6307903Y36339847D01*
X6070849Y36387000D01*
X5829151Y36387000D01*
X5592097Y36339847D01*
X5368798Y36247353D01*
X5167833Y36113073D01*
X4996927Y35942167D01*
X4862647Y35741202D01*
X4770153Y35517903D01*
X4723000Y35280849D01*
X4637000Y35280849D01*
X4589847Y35517903D01*
X4497353Y35741202D01*
X4363073Y35942167D01*
X4192167Y36113073D01*
X3991202Y36247353D01*
X3767903Y36339847D01*
X3530849Y36387000D01*
X3289151Y36387000D01*
X3052097Y36339847D01*
X2828798Y36247353D01*
X2627833Y36113073D01*
X2456927Y35942167D01*
X2322647Y35741202D01*
X2230153Y35517903D01*
X2183000Y35280849D01*
X627000Y35280849D01*
X627000Y37820849D01*
X2183000Y37820849D01*
X2183000Y37579151D01*
X2230153Y37342097D01*
X2322647Y37118798D01*
X2456927Y36917833D01*
X2627833Y36746927D01*
X2828798Y36612647D01*
X3052097Y36520153D01*
X3289151Y36473000D01*
X3530849Y36473000D01*
X3767903Y36520153D01*
X3991202Y36612647D01*
X4192167Y36746927D01*
X4363073Y36917833D01*
X4497353Y37118798D01*
X4589847Y37342097D01*
X4637000Y37579151D01*
X4637000Y37820849D01*
X4723000Y37820849D01*
X4723000Y37579151D01*
X4770153Y37342097D01*
X4862647Y37118798D01*
X4996927Y36917833D01*
X5167833Y36746927D01*
X5368798Y36612647D01*
X5592097Y36520153D01*
X5829151Y36473000D01*
X6070849Y36473000D01*
X6307903Y36520153D01*
X6531202Y36612647D01*
X6598087Y36657338D01*
X16720189Y36657338D01*
X16720189Y36514132D01*
X16748127Y36373677D01*
X16802930Y36241371D01*
X16882491Y36122299D01*
X16983753Y36021037D01*
X17102825Y35941476D01*
X17235131Y35886673D01*
X17375586Y35858735D01*
X17518792Y35858735D01*
X17659247Y35886673D01*
X17791553Y35941476D01*
X17910625Y36021037D01*
X17975957Y36086369D01*
X28875246Y36086369D01*
X28875246Y35943163D01*
X28903184Y35802708D01*
X28957987Y35670402D01*
X29037548Y35551330D01*
X29138810Y35450068D01*
X29257882Y35370507D01*
X29390188Y35315704D01*
X29530643Y35287766D01*
X29673849Y35287766D01*
X29814304Y35315704D01*
X29946610Y35370507D01*
X30065682Y35450068D01*
X30166944Y35551330D01*
X30246505Y35670402D01*
X30301308Y35802708D01*
X30329246Y35943163D01*
X30329246Y36086369D01*
X30301308Y36226824D01*
X30246505Y36359130D01*
X30166944Y36478202D01*
X30065682Y36579464D01*
X29946610Y36659025D01*
X29814304Y36713828D01*
X29673849Y36741766D01*
X29530643Y36741766D01*
X29390188Y36713828D01*
X29257882Y36659025D01*
X29138810Y36579464D01*
X29037548Y36478202D01*
X28957987Y36359130D01*
X28903184Y36226824D01*
X28875246Y36086369D01*
X17975957Y36086369D01*
X18011887Y36122299D01*
X18091448Y36241371D01*
X18146251Y36373677D01*
X18174189Y36514132D01*
X18174189Y36657338D01*
X18146251Y36797793D01*
X18123215Y36853406D01*
X18175261Y36905452D01*
X18254822Y37024524D01*
X18309625Y37156830D01*
X18337563Y37297285D01*
X18337563Y37440491D01*
X18320594Y37525801D01*
X18359241Y37551624D01*
X18460503Y37652886D01*
X18540064Y37771958D01*
X18594867Y37904264D01*
X18622805Y38044719D01*
X18622805Y38187925D01*
X18594867Y38328380D01*
X18540064Y38460686D01*
X18505081Y38513042D01*
X18544209Y38571603D01*
X28073000Y38571603D01*
X28073000Y38428397D01*
X28100938Y38287942D01*
X28155741Y38155636D01*
X28235302Y38036564D01*
X28336564Y37935302D01*
X28455636Y37855741D01*
X28587942Y37800938D01*
X28728397Y37773000D01*
X28871603Y37773000D01*
X28922988Y37783221D01*
X28922988Y37678375D01*
X28950926Y37537920D01*
X29005729Y37405614D01*
X29085290Y37286542D01*
X29186552Y37185280D01*
X29305624Y37105719D01*
X29437930Y37050916D01*
X29578385Y37022978D01*
X29721591Y37022978D01*
X29862046Y37050916D01*
X29994352Y37105719D01*
X30113424Y37185280D01*
X30214686Y37286542D01*
X30294247Y37405614D01*
X30349050Y37537920D01*
X30376988Y37678375D01*
X30376988Y37820849D01*
X42823000Y37820849D01*
X42823000Y37579151D01*
X42870153Y37342097D01*
X42962647Y37118798D01*
X43096927Y36917833D01*
X43267833Y36746927D01*
X43468798Y36612647D01*
X43692097Y36520153D01*
X43929151Y36473000D01*
X44170849Y36473000D01*
X44407903Y36520153D01*
X44631202Y36612647D01*
X44832167Y36746927D01*
X45003073Y36917833D01*
X45137353Y37118798D01*
X45229847Y37342097D01*
X45277000Y37579151D01*
X45277000Y37820849D01*
X45363000Y37820849D01*
X45363000Y37579151D01*
X45410153Y37342097D01*
X45502647Y37118798D01*
X45636927Y36917833D01*
X45807833Y36746927D01*
X46008798Y36612647D01*
X46232097Y36520153D01*
X46469151Y36473000D01*
X46710849Y36473000D01*
X46947903Y36520153D01*
X47171202Y36612647D01*
X47372167Y36746927D01*
X47543073Y36917833D01*
X47677353Y37118798D01*
X47769847Y37342097D01*
X47817000Y37579151D01*
X47817000Y37820849D01*
X47769847Y38057903D01*
X47677353Y38281202D01*
X47543073Y38482167D01*
X47372167Y38653073D01*
X47171202Y38787353D01*
X46947903Y38879847D01*
X46710849Y38927000D01*
X46469151Y38927000D01*
X46232097Y38879847D01*
X46008798Y38787353D01*
X45807833Y38653073D01*
X45636927Y38482167D01*
X45502647Y38281202D01*
X45410153Y38057903D01*
X45363000Y37820849D01*
X45277000Y37820849D01*
X45229847Y38057903D01*
X45137353Y38281202D01*
X45003073Y38482167D01*
X44832167Y38653073D01*
X44631202Y38787353D01*
X44407903Y38879847D01*
X44170849Y38927000D01*
X43929151Y38927000D01*
X43692097Y38879847D01*
X43468798Y38787353D01*
X43267833Y38653073D01*
X43096927Y38482167D01*
X42962647Y38281202D01*
X42870153Y38057903D01*
X42823000Y37820849D01*
X30376988Y37820849D01*
X30376988Y37821581D01*
X30349050Y37962036D01*
X30294247Y38094342D01*
X30214686Y38213414D01*
X30113424Y38314676D01*
X29994352Y38394237D01*
X29862046Y38449040D01*
X29721591Y38476978D01*
X29578385Y38476978D01*
X29527000Y38466757D01*
X29527000Y38571603D01*
X29499062Y38712058D01*
X29444259Y38844364D01*
X29364698Y38963436D01*
X29263436Y39064698D01*
X29144364Y39144259D01*
X29012058Y39199062D01*
X28871603Y39227000D01*
X28728397Y39227000D01*
X28587942Y39199062D01*
X28455636Y39144259D01*
X28336564Y39064698D01*
X28235302Y38963436D01*
X28155741Y38844364D01*
X28100938Y38712058D01*
X28073000Y38571603D01*
X18544209Y38571603D01*
X18544447Y38571958D01*
X18599250Y38704264D01*
X18627188Y38844719D01*
X18627188Y38987925D01*
X18599250Y39128380D01*
X18544447Y39260686D01*
X18464886Y39379758D01*
X18363624Y39481020D01*
X18244552Y39560581D01*
X18112246Y39615384D01*
X17971791Y39643322D01*
X17828585Y39643322D01*
X17688130Y39615384D01*
X17555824Y39560581D01*
X17436752Y39481020D01*
X17335490Y39379758D01*
X17255929Y39260686D01*
X17201126Y39128380D01*
X17173188Y38987925D01*
X17173188Y38844719D01*
X17201126Y38704264D01*
X17255929Y38571958D01*
X17290912Y38519602D01*
X17251546Y38460686D01*
X17196743Y38328380D01*
X17168805Y38187925D01*
X17168805Y38044719D01*
X17185774Y37959409D01*
X17147127Y37933586D01*
X17045865Y37832324D01*
X16966304Y37713252D01*
X16911501Y37580946D01*
X16883563Y37440491D01*
X16883563Y37297285D01*
X16911501Y37156830D01*
X16934537Y37101217D01*
X16882491Y37049171D01*
X16802930Y36930099D01*
X16748127Y36797793D01*
X16720189Y36657338D01*
X6598087Y36657338D01*
X6732167Y36746927D01*
X6903073Y36917833D01*
X7037353Y37118798D01*
X7129847Y37342097D01*
X7177000Y37579151D01*
X7177000Y37820849D01*
X7129847Y38057903D01*
X7037353Y38281202D01*
X6903073Y38482167D01*
X6732167Y38653073D01*
X6531202Y38787353D01*
X6307903Y38879847D01*
X6070849Y38927000D01*
X5829151Y38927000D01*
X5592097Y38879847D01*
X5368798Y38787353D01*
X5167833Y38653073D01*
X4996927Y38482167D01*
X4862647Y38281202D01*
X4770153Y38057903D01*
X4723000Y37820849D01*
X4637000Y37820849D01*
X4589847Y38057903D01*
X4497353Y38281202D01*
X4363073Y38482167D01*
X4192167Y38653073D01*
X3991202Y38787353D01*
X3767903Y38879847D01*
X3530849Y38927000D01*
X3289151Y38927000D01*
X3052097Y38879847D01*
X2828798Y38787353D01*
X2627833Y38653073D01*
X2456927Y38482167D01*
X2322647Y38281202D01*
X2230153Y38057903D01*
X2183000Y37820849D01*
X627000Y37820849D01*
X627000Y44811307D01*
X915750Y44379161D01*
X1378000Y43916911D01*
X1378000Y41510000D01*
X1380440Y41485224D01*
X1387667Y41461399D01*
X1399403Y41439443D01*
X1415197Y41420197D01*
X1434443Y41404403D01*
X1456399Y41392667D01*
X1480224Y41385440D01*
X1505000Y41383000D01*
X2346810Y41383000D01*
X2346810Y41376391D01*
X2306605Y41343395D01*
X2253245Y41278376D01*
X2213595Y41204196D01*
X2189178Y41123707D01*
X2180934Y41040000D01*
X2180934Y39440000D01*
X2189178Y39356293D01*
X2213595Y39275804D01*
X2253245Y39201624D01*
X2306605Y39136605D01*
X2371624Y39083245D01*
X2445804Y39043595D01*
X2526293Y39019178D01*
X2610000Y39010934D01*
X4210000Y39010934D01*
X4293707Y39019178D01*
X4374196Y39043595D01*
X4448376Y39083245D01*
X4513395Y39136605D01*
X4566755Y39201624D01*
X4606405Y39275804D01*
X4630822Y39356293D01*
X4639066Y39440000D01*
X4639066Y41040000D01*
X4630822Y41123707D01*
X4606405Y41204196D01*
X4566755Y41278376D01*
X4513395Y41343395D01*
X4465136Y41383000D01*
X5503141Y41383000D01*
X5368798Y41327353D01*
X5167833Y41193073D01*
X4996927Y41022167D01*
X4862647Y40821202D01*
X4770153Y40597903D01*
X4723000Y40360849D01*
X4723000Y40119151D01*
X4770153Y39882097D01*
X4862647Y39658798D01*
X4996927Y39457833D01*
X5167833Y39286927D01*
X5368798Y39152647D01*
X5592097Y39060153D01*
X5829151Y39013000D01*
X6070849Y39013000D01*
X6307903Y39060153D01*
X6531202Y39152647D01*
X6732167Y39286927D01*
X6903073Y39457833D01*
X7037353Y39658798D01*
X7129847Y39882097D01*
X7177000Y40119151D01*
X7177000Y40360849D01*
X7129847Y40597903D01*
X7099320Y40671603D01*
X17273000Y40671603D01*
X17273000Y40528397D01*
X17300938Y40387942D01*
X17355741Y40255636D01*
X17435302Y40136564D01*
X17536564Y40035302D01*
X17655636Y39955741D01*
X17787942Y39900938D01*
X17928397Y39873000D01*
X18071603Y39873000D01*
X18212058Y39900938D01*
X18344364Y39955741D01*
X18463436Y40035302D01*
X18564698Y40136564D01*
X18644259Y40255636D01*
X18699062Y40387942D01*
X18727000Y40528397D01*
X18727000Y40671603D01*
X18707109Y40771603D01*
X22673000Y40771603D01*
X22673000Y40628397D01*
X22700938Y40487942D01*
X22755741Y40355636D01*
X22835302Y40236564D01*
X22936564Y40135302D01*
X23055636Y40055741D01*
X23187942Y40000938D01*
X23328397Y39973000D01*
X23471603Y39973000D01*
X23612058Y40000938D01*
X23744364Y40055741D01*
X23863436Y40135302D01*
X23964698Y40236564D01*
X24015103Y40312002D01*
X28906268Y40312002D01*
X28906268Y40168796D01*
X28934206Y40028341D01*
X28989009Y39896035D01*
X29068570Y39776963D01*
X29169832Y39675701D01*
X29288904Y39596140D01*
X29421210Y39541337D01*
X29561665Y39513399D01*
X29704871Y39513399D01*
X29845326Y39541337D01*
X29977632Y39596140D01*
X30096704Y39675701D01*
X30197966Y39776963D01*
X30277527Y39896035D01*
X30332330Y40028341D01*
X30360268Y40168796D01*
X30360268Y40312002D01*
X30350552Y40360849D01*
X42823000Y40360849D01*
X42823000Y40119151D01*
X42870153Y39882097D01*
X42962647Y39658798D01*
X43096927Y39457833D01*
X43267833Y39286927D01*
X43468798Y39152647D01*
X43692097Y39060153D01*
X43929151Y39013000D01*
X44170849Y39013000D01*
X44407903Y39060153D01*
X44631202Y39152647D01*
X44832167Y39286927D01*
X45003073Y39457833D01*
X45137353Y39658798D01*
X45229847Y39882097D01*
X45277000Y40119151D01*
X45277000Y40360849D01*
X45363000Y40360849D01*
X45363000Y40119151D01*
X45410153Y39882097D01*
X45502647Y39658798D01*
X45636927Y39457833D01*
X45807833Y39286927D01*
X46008798Y39152647D01*
X46232097Y39060153D01*
X46469151Y39013000D01*
X46710849Y39013000D01*
X46947903Y39060153D01*
X47171202Y39152647D01*
X47372167Y39286927D01*
X47543073Y39457833D01*
X47677353Y39658798D01*
X47769847Y39882097D01*
X47817000Y40119151D01*
X47817000Y40360849D01*
X47769847Y40597903D01*
X47677353Y40821202D01*
X47543073Y41022167D01*
X47372167Y41193073D01*
X47171202Y41327353D01*
X46947903Y41419847D01*
X46710849Y41467000D01*
X46469151Y41467000D01*
X46232097Y41419847D01*
X46008798Y41327353D01*
X45807833Y41193073D01*
X45636927Y41022167D01*
X45502647Y40821202D01*
X45410153Y40597903D01*
X45363000Y40360849D01*
X45277000Y40360849D01*
X45229847Y40597903D01*
X45137353Y40821202D01*
X45003073Y41022167D01*
X44832167Y41193073D01*
X44631202Y41327353D01*
X44407903Y41419847D01*
X44170849Y41467000D01*
X43929151Y41467000D01*
X43692097Y41419847D01*
X43468798Y41327353D01*
X43267833Y41193073D01*
X43096927Y41022167D01*
X42962647Y40821202D01*
X42870153Y40597903D01*
X42823000Y40360849D01*
X30350552Y40360849D01*
X30332330Y40452457D01*
X30277527Y40584763D01*
X30197966Y40703835D01*
X30096704Y40805097D01*
X29977632Y40884658D01*
X29845326Y40939461D01*
X29704871Y40967399D01*
X29561665Y40967399D01*
X29421210Y40939461D01*
X29288904Y40884658D01*
X29169832Y40805097D01*
X29068570Y40703835D01*
X28989009Y40584763D01*
X28934206Y40452457D01*
X28906268Y40312002D01*
X24015103Y40312002D01*
X24044259Y40355636D01*
X24099062Y40487942D01*
X24127000Y40628397D01*
X24127000Y40771603D01*
X24099062Y40912058D01*
X24044259Y41044364D01*
X23964698Y41163436D01*
X23863436Y41264698D01*
X23744364Y41344259D01*
X23612058Y41399062D01*
X23471603Y41427000D01*
X23328397Y41427000D01*
X23187942Y41399062D01*
X23055636Y41344259D01*
X22936564Y41264698D01*
X22835302Y41163436D01*
X22755741Y41044364D01*
X22700938Y40912058D01*
X22673000Y40771603D01*
X18707109Y40771603D01*
X18699062Y40812058D01*
X18644259Y40944364D01*
X18564698Y41063436D01*
X18463436Y41164698D01*
X18344364Y41244259D01*
X18212058Y41299062D01*
X18071603Y41327000D01*
X17928397Y41327000D01*
X17787942Y41299062D01*
X17655636Y41244259D01*
X17536564Y41164698D01*
X17435302Y41063436D01*
X17355741Y40944364D01*
X17300938Y40812058D01*
X17273000Y40671603D01*
X7099320Y40671603D01*
X7037353Y40821202D01*
X6903073Y41022167D01*
X6732167Y41193073D01*
X6531202Y41327353D01*
X6307903Y41419847D01*
X6070849Y41467000D01*
X6069032Y41467000D01*
X6074560Y41485224D01*
X6077000Y41510000D01*
X6077000Y44050000D01*
X6074560Y44074776D01*
X6067333Y44098601D01*
X6055597Y44120557D01*
X6039803Y44139803D01*
X6020557Y44155597D01*
X5998601Y44167333D01*
X5974776Y44174560D01*
X5950000Y44177000D01*
X5882089Y44177000D01*
X6032387Y44327298D01*
X7676903Y44327298D01*
X7748486Y44083329D01*
X8003996Y43962429D01*
X8278184Y43893700D01*
X8560512Y43879783D01*
X8840130Y43921213D01*
X9106292Y44016397D01*
X9231514Y44083329D01*
X9303097Y44327298D01*
X8490000Y45140395D01*
X7676903Y44327298D01*
X6032387Y44327298D01*
X6084250Y44379161D01*
X6448349Y44924075D01*
X6583139Y45249488D01*
X7049783Y45249488D01*
X7091213Y44969870D01*
X7186397Y44703708D01*
X7253329Y44578486D01*
X7497298Y44506903D01*
X8310395Y45320000D01*
X8669605Y45320000D01*
X9482702Y44506903D01*
X9726671Y44578486D01*
X9847571Y44833996D01*
X9868549Y44917686D01*
X9942647Y44738798D01*
X10076927Y44537833D01*
X10247833Y44366927D01*
X10448798Y44232647D01*
X10672097Y44140153D01*
X10909151Y44093000D01*
X11150849Y44093000D01*
X11387903Y44140153D01*
X11611202Y44232647D01*
X11812167Y44366927D01*
X11983073Y44537833D01*
X12117353Y44738798D01*
X12209847Y44962097D01*
X12257000Y45199151D01*
X12257000Y45440849D01*
X12343000Y45440849D01*
X12343000Y45199151D01*
X12390153Y44962097D01*
X12482647Y44738798D01*
X12616927Y44537833D01*
X12787833Y44366927D01*
X12988798Y44232647D01*
X13212097Y44140153D01*
X13449151Y44093000D01*
X13690849Y44093000D01*
X13927903Y44140153D01*
X14151202Y44232647D01*
X14352167Y44366927D01*
X14523073Y44537833D01*
X14657353Y44738798D01*
X14749847Y44962097D01*
X14797000Y45199151D01*
X14797000Y45440849D01*
X14883000Y45440849D01*
X14883000Y45199151D01*
X14930153Y44962097D01*
X15022647Y44738798D01*
X15156927Y44537833D01*
X15327833Y44366927D01*
X15528798Y44232647D01*
X15752097Y44140153D01*
X15989151Y44093000D01*
X16230849Y44093000D01*
X16467903Y44140153D01*
X16691202Y44232647D01*
X16892167Y44366927D01*
X17063073Y44537833D01*
X17197353Y44738798D01*
X17289847Y44962097D01*
X17337000Y45199151D01*
X17337000Y45440849D01*
X17289847Y45677903D01*
X17197353Y45901202D01*
X17063073Y46102167D01*
X17045240Y46120000D01*
X17420934Y46120000D01*
X17420934Y44520000D01*
X17429178Y44436293D01*
X17453595Y44355804D01*
X17493245Y44281624D01*
X17546605Y44216605D01*
X17611624Y44163245D01*
X17685804Y44123595D01*
X17766293Y44099178D01*
X17850000Y44090934D01*
X19450000Y44090934D01*
X19533707Y44099178D01*
X19614196Y44123595D01*
X19686192Y44162077D01*
X19700938Y44087942D01*
X19755741Y43955636D01*
X19835302Y43836564D01*
X19936564Y43735302D01*
X20055636Y43655741D01*
X20187942Y43600938D01*
X20258582Y43586887D01*
X20155636Y43544245D01*
X20036564Y43464684D01*
X19935302Y43363422D01*
X19855741Y43244350D01*
X19800938Y43112044D01*
X19773000Y42971589D01*
X19773000Y42828383D01*
X19800938Y42687928D01*
X19855741Y42555622D01*
X19935302Y42436550D01*
X20036564Y42335288D01*
X20155636Y42255727D01*
X20287942Y42200924D01*
X20428397Y42172986D01*
X20571603Y42172986D01*
X20712058Y42200924D01*
X20844364Y42255727D01*
X20963436Y42335288D01*
X21064698Y42436550D01*
X21144259Y42555622D01*
X21199062Y42687928D01*
X21227000Y42828383D01*
X21227000Y42971589D01*
X21226999Y42971595D01*
X28773000Y42971595D01*
X28773000Y42828389D01*
X28800938Y42687934D01*
X28855741Y42555628D01*
X28935302Y42436556D01*
X29036564Y42335294D01*
X29155636Y42255733D01*
X29287942Y42200930D01*
X29428397Y42172992D01*
X29571603Y42172992D01*
X29712058Y42200930D01*
X29844364Y42255733D01*
X29963436Y42335294D01*
X30064698Y42436556D01*
X30144259Y42555628D01*
X30199062Y42687934D01*
X30227000Y42828389D01*
X30227000Y42971595D01*
X30199062Y43112050D01*
X30144259Y43244356D01*
X30064698Y43363428D01*
X29963436Y43464690D01*
X29844364Y43544251D01*
X29712058Y43599054D01*
X29571603Y43626992D01*
X29428397Y43626992D01*
X29287942Y43599054D01*
X29155636Y43544251D01*
X29036564Y43464690D01*
X28935302Y43363428D01*
X28855741Y43244356D01*
X28800938Y43112050D01*
X28773000Y42971595D01*
X21226999Y42971595D01*
X21199062Y43112044D01*
X21144259Y43244350D01*
X21064698Y43363422D01*
X20963436Y43464684D01*
X20844364Y43544245D01*
X20712058Y43599048D01*
X20641418Y43613099D01*
X20744364Y43655741D01*
X20863436Y43735302D01*
X20964698Y43836564D01*
X21044259Y43955636D01*
X21099062Y44087942D01*
X21127000Y44228397D01*
X21127000Y44371603D01*
X21110256Y44455783D01*
X21133932Y44471603D01*
X22000838Y44471603D01*
X22000838Y44328397D01*
X22028776Y44187942D01*
X22083579Y44055636D01*
X22163140Y43936564D01*
X22264402Y43835302D01*
X22383474Y43755741D01*
X22515780Y43700938D01*
X22656235Y43673000D01*
X22799441Y43673000D01*
X22939896Y43700938D01*
X23072202Y43755741D01*
X23191274Y43835302D01*
X23292536Y43936564D01*
X23372097Y44055636D01*
X23426900Y44187942D01*
X23454838Y44328397D01*
X23454838Y44471603D01*
X23426900Y44612058D01*
X23372097Y44744364D01*
X23292536Y44863436D01*
X23191274Y44964698D01*
X23180940Y44971603D01*
X25373000Y44971603D01*
X25373000Y44828397D01*
X25400938Y44687942D01*
X25455741Y44555636D01*
X25535302Y44436564D01*
X25636564Y44335302D01*
X25755636Y44255741D01*
X25887942Y44200938D01*
X26028397Y44173000D01*
X26171603Y44173000D01*
X26312058Y44200938D01*
X26444364Y44255741D01*
X26563436Y44335302D01*
X26664698Y44436564D01*
X26744259Y44555636D01*
X26799062Y44687942D01*
X26804938Y44717487D01*
X27370340Y44717487D01*
X27370340Y44574281D01*
X27398278Y44433826D01*
X27453081Y44301520D01*
X27532642Y44182448D01*
X27633904Y44081186D01*
X27752976Y44001625D01*
X27885282Y43946822D01*
X28025737Y43918884D01*
X28168943Y43918884D01*
X28309398Y43946822D01*
X28441704Y44001625D01*
X28560776Y44081186D01*
X28662038Y44182448D01*
X28741599Y44301520D01*
X28752276Y44327298D01*
X30536903Y44327298D01*
X30608486Y44083329D01*
X30863996Y43962429D01*
X31138184Y43893700D01*
X31420512Y43879783D01*
X31691853Y43919987D01*
X31635302Y43863436D01*
X31555741Y43744364D01*
X31500938Y43612058D01*
X31473000Y43471603D01*
X31473000Y43328397D01*
X31500938Y43187942D01*
X31555741Y43055636D01*
X31635302Y42936564D01*
X31662765Y42909101D01*
X31635291Y42881628D01*
X31555730Y42762556D01*
X31500927Y42630250D01*
X31472989Y42489795D01*
X31472989Y42346589D01*
X31500927Y42206134D01*
X31555730Y42073828D01*
X31635291Y41954756D01*
X31736553Y41853494D01*
X31855625Y41773933D01*
X31987931Y41719130D01*
X32128386Y41691192D01*
X32271592Y41691192D01*
X32412047Y41719130D01*
X32544353Y41773933D01*
X32663425Y41853494D01*
X32764687Y41954756D01*
X32844248Y42073828D01*
X32899051Y42206134D01*
X32926989Y42346589D01*
X32926989Y42489795D01*
X32899051Y42630250D01*
X32844248Y42762556D01*
X32764687Y42881628D01*
X32737225Y42909090D01*
X32764698Y42936564D01*
X32844259Y43055636D01*
X32899062Y43187942D01*
X32927000Y43328397D01*
X32927000Y43471603D01*
X32899062Y43612058D01*
X32844259Y43744364D01*
X32764698Y43863436D01*
X32663436Y43964698D01*
X32544364Y44044259D01*
X32412058Y44099062D01*
X32271603Y44127000D01*
X32128397Y44127000D01*
X32102836Y44121916D01*
X32163097Y44327298D01*
X31350000Y45140395D01*
X30536903Y44327298D01*
X28752276Y44327298D01*
X28796402Y44433826D01*
X28824340Y44574281D01*
X28824340Y44717487D01*
X28796402Y44857942D01*
X28741599Y44990248D01*
X28662038Y45109320D01*
X28560776Y45210582D01*
X28502549Y45249488D01*
X29909783Y45249488D01*
X29951213Y44969870D01*
X30046397Y44703708D01*
X30113329Y44578486D01*
X30357298Y44506903D01*
X31170395Y45320000D01*
X31529605Y45320000D01*
X32342702Y44506903D01*
X32586671Y44578486D01*
X32707571Y44833996D01*
X32728549Y44917686D01*
X32802647Y44738798D01*
X32936927Y44537833D01*
X33107833Y44366927D01*
X33308798Y44232647D01*
X33532097Y44140153D01*
X33769151Y44093000D01*
X34010849Y44093000D01*
X34247903Y44140153D01*
X34471202Y44232647D01*
X34672167Y44366927D01*
X34843073Y44537833D01*
X34977353Y44738798D01*
X35069847Y44962097D01*
X35117000Y45199151D01*
X35117000Y45440849D01*
X35203000Y45440849D01*
X35203000Y45199151D01*
X35250153Y44962097D01*
X35342647Y44738798D01*
X35476927Y44537833D01*
X35647833Y44366927D01*
X35848798Y44232647D01*
X36072097Y44140153D01*
X36309151Y44093000D01*
X36550849Y44093000D01*
X36787903Y44140153D01*
X37011202Y44232647D01*
X37212167Y44366927D01*
X37383073Y44537833D01*
X37517353Y44738798D01*
X37609847Y44962097D01*
X37657000Y45199151D01*
X37657000Y45440849D01*
X37743000Y45440849D01*
X37743000Y45199151D01*
X37790153Y44962097D01*
X37882647Y44738798D01*
X38016927Y44537833D01*
X38187833Y44366927D01*
X38388798Y44232647D01*
X38612097Y44140153D01*
X38849151Y44093000D01*
X39090849Y44093000D01*
X39327903Y44140153D01*
X39551202Y44232647D01*
X39752167Y44366927D01*
X39923073Y44537833D01*
X40057353Y44738798D01*
X40149847Y44962097D01*
X40197000Y45199151D01*
X40197000Y45440849D01*
X40149847Y45677903D01*
X40057353Y45901202D01*
X39923073Y46102167D01*
X39905240Y46120000D01*
X40280934Y46120000D01*
X40280934Y44520000D01*
X40289178Y44436293D01*
X40313595Y44355804D01*
X40353245Y44281624D01*
X40406605Y44216605D01*
X40471624Y44163245D01*
X40545804Y44123595D01*
X40626293Y44099178D01*
X40710000Y44090934D01*
X42310000Y44090934D01*
X42393707Y44099178D01*
X42474196Y44123595D01*
X42548376Y44163245D01*
X42613395Y44216605D01*
X42666755Y44281624D01*
X42706405Y44355804D01*
X42730822Y44436293D01*
X42739066Y44520000D01*
X42739066Y46120000D01*
X42730822Y46203707D01*
X42706405Y46284196D01*
X42666755Y46358376D01*
X42613395Y46423395D01*
X42548376Y46476755D01*
X42474196Y46516405D01*
X42393707Y46540822D01*
X42310000Y46549066D01*
X40710000Y46549066D01*
X40626293Y46540822D01*
X40545804Y46516405D01*
X40471624Y46476755D01*
X40406605Y46423395D01*
X40353245Y46358376D01*
X40313595Y46284196D01*
X40289178Y46203707D01*
X40280934Y46120000D01*
X39905240Y46120000D01*
X39752167Y46273073D01*
X39551202Y46407353D01*
X39327903Y46499847D01*
X39090849Y46547000D01*
X38849151Y46547000D01*
X38612097Y46499847D01*
X38388798Y46407353D01*
X38187833Y46273073D01*
X38016927Y46102167D01*
X37882647Y45901202D01*
X37790153Y45677903D01*
X37743000Y45440849D01*
X37657000Y45440849D01*
X37609847Y45677903D01*
X37517353Y45901202D01*
X37383073Y46102167D01*
X37212167Y46273073D01*
X37011202Y46407353D01*
X36787903Y46499847D01*
X36550849Y46547000D01*
X36309151Y46547000D01*
X36072097Y46499847D01*
X35848798Y46407353D01*
X35647833Y46273073D01*
X35476927Y46102167D01*
X35342647Y45901202D01*
X35250153Y45677903D01*
X35203000Y45440849D01*
X35117000Y45440849D01*
X35069847Y45677903D01*
X34977353Y45901202D01*
X34843073Y46102167D01*
X34672167Y46273073D01*
X34471202Y46407353D01*
X34247903Y46499847D01*
X34010849Y46547000D01*
X33769151Y46547000D01*
X33532097Y46499847D01*
X33308798Y46407353D01*
X33107833Y46273073D01*
X32936927Y46102167D01*
X32802647Y45901202D01*
X32729395Y45724356D01*
X32653603Y45936292D01*
X32586671Y46061514D01*
X32342702Y46133097D01*
X31529605Y45320000D01*
X31170395Y45320000D01*
X30357298Y46133097D01*
X30113329Y46061514D01*
X29992429Y45806004D01*
X29923700Y45531816D01*
X29909783Y45249488D01*
X28502549Y45249488D01*
X28441704Y45290143D01*
X28309398Y45344946D01*
X28168943Y45372884D01*
X28025737Y45372884D01*
X27885282Y45344946D01*
X27752976Y45290143D01*
X27633904Y45210582D01*
X27532642Y45109320D01*
X27453081Y44990248D01*
X27398278Y44857942D01*
X27370340Y44717487D01*
X26804938Y44717487D01*
X26827000Y44828397D01*
X26827000Y44971603D01*
X26799062Y45112058D01*
X26744259Y45244364D01*
X26664698Y45363436D01*
X26563436Y45464698D01*
X26444364Y45544259D01*
X26312058Y45599062D01*
X26171603Y45627000D01*
X26028397Y45627000D01*
X25887942Y45599062D01*
X25755636Y45544259D01*
X25636564Y45464698D01*
X25535302Y45363436D01*
X25455741Y45244364D01*
X25400938Y45112058D01*
X25373000Y44971603D01*
X23180940Y44971603D01*
X23072202Y45044259D01*
X22939896Y45099062D01*
X22799441Y45127000D01*
X22656235Y45127000D01*
X22515780Y45099062D01*
X22383474Y45044259D01*
X22264402Y44964698D01*
X22163140Y44863436D01*
X22083579Y44744364D01*
X22028776Y44612058D01*
X22000838Y44471603D01*
X21133932Y44471603D01*
X21183216Y44504533D01*
X21284478Y44605795D01*
X21364039Y44724867D01*
X21418842Y44857173D01*
X21446780Y44997628D01*
X21446780Y45140834D01*
X21418842Y45281289D01*
X21364039Y45413595D01*
X21284478Y45532667D01*
X21183216Y45633929D01*
X21064144Y45713490D01*
X20931838Y45768293D01*
X20791383Y45796231D01*
X20648177Y45796231D01*
X20507722Y45768293D01*
X20375416Y45713490D01*
X20256344Y45633929D01*
X20155082Y45532667D01*
X20075521Y45413595D01*
X20020718Y45281289D01*
X19992780Y45140834D01*
X19992780Y44997628D01*
X20009524Y44913448D01*
X19936564Y44864698D01*
X19879066Y44807200D01*
X19879066Y46120000D01*
X19870822Y46203707D01*
X19846405Y46284196D01*
X19806755Y46358376D01*
X19753395Y46423395D01*
X19688376Y46476755D01*
X19614196Y46516405D01*
X19533707Y46540822D01*
X19450000Y46549066D01*
X17850000Y46549066D01*
X17766293Y46540822D01*
X17685804Y46516405D01*
X17611624Y46476755D01*
X17546605Y46423395D01*
X17493245Y46358376D01*
X17453595Y46284196D01*
X17429178Y46203707D01*
X17420934Y46120000D01*
X17045240Y46120000D01*
X16892167Y46273073D01*
X16691202Y46407353D01*
X16467903Y46499847D01*
X16230849Y46547000D01*
X15989151Y46547000D01*
X15752097Y46499847D01*
X15528798Y46407353D01*
X15327833Y46273073D01*
X15156927Y46102167D01*
X15022647Y45901202D01*
X14930153Y45677903D01*
X14883000Y45440849D01*
X14797000Y45440849D01*
X14749847Y45677903D01*
X14657353Y45901202D01*
X14523073Y46102167D01*
X14352167Y46273073D01*
X14151202Y46407353D01*
X13927903Y46499847D01*
X13690849Y46547000D01*
X13449151Y46547000D01*
X13212097Y46499847D01*
X12988798Y46407353D01*
X12787833Y46273073D01*
X12616927Y46102167D01*
X12482647Y45901202D01*
X12390153Y45677903D01*
X12343000Y45440849D01*
X12257000Y45440849D01*
X12209847Y45677903D01*
X12117353Y45901202D01*
X11983073Y46102167D01*
X11812167Y46273073D01*
X11611202Y46407353D01*
X11387903Y46499847D01*
X11150849Y46547000D01*
X10909151Y46547000D01*
X10672097Y46499847D01*
X10448798Y46407353D01*
X10247833Y46273073D01*
X10076927Y46102167D01*
X9942647Y45901202D01*
X9869395Y45724356D01*
X9793603Y45936292D01*
X9726671Y46061514D01*
X9482702Y46133097D01*
X8669605Y45320000D01*
X8310395Y45320000D01*
X7497298Y46133097D01*
X7253329Y46061514D01*
X7132429Y45806004D01*
X7063700Y45531816D01*
X7049783Y45249488D01*
X6583139Y45249488D01*
X6699145Y45529550D01*
X6827000Y46172319D01*
X6827000Y46827681D01*
X6819120Y46867298D01*
X7676903Y46867298D01*
X7748486Y46623329D01*
X7814636Y46592029D01*
X7748486Y46556671D01*
X7676903Y46312702D01*
X8490000Y45499605D01*
X9303097Y46312702D01*
X9231514Y46556671D01*
X9165364Y46587971D01*
X9231514Y46623329D01*
X9303097Y46867298D01*
X8490000Y47680395D01*
X7676903Y46867298D01*
X6819120Y46867298D01*
X6699145Y47470450D01*
X6566996Y47789488D01*
X7049783Y47789488D01*
X7091213Y47509870D01*
X7186397Y47243708D01*
X7253329Y47118486D01*
X7497298Y47046903D01*
X8310395Y47860000D01*
X8669605Y47860000D01*
X9482702Y47046903D01*
X9726671Y47118486D01*
X9847571Y47373996D01*
X9868549Y47457686D01*
X9942647Y47278798D01*
X10076927Y47077833D01*
X10247833Y46906927D01*
X10448798Y46772647D01*
X10672097Y46680153D01*
X10909151Y46633000D01*
X11150849Y46633000D01*
X11387903Y46680153D01*
X11611202Y46772647D01*
X11812167Y46906927D01*
X11983073Y47077833D01*
X12117353Y47278798D01*
X12209847Y47502097D01*
X12257000Y47739151D01*
X12257000Y47980849D01*
X12343000Y47980849D01*
X12343000Y47739151D01*
X12390153Y47502097D01*
X12482647Y47278798D01*
X12616927Y47077833D01*
X12787833Y46906927D01*
X12988798Y46772647D01*
X13212097Y46680153D01*
X13449151Y46633000D01*
X13690849Y46633000D01*
X13927903Y46680153D01*
X14151202Y46772647D01*
X14352167Y46906927D01*
X14523073Y47077833D01*
X14657353Y47278798D01*
X14749847Y47502097D01*
X14797000Y47739151D01*
X14797000Y47980849D01*
X14883000Y47980849D01*
X14883000Y47739151D01*
X14930153Y47502097D01*
X15022647Y47278798D01*
X15156927Y47077833D01*
X15327833Y46906927D01*
X15528798Y46772647D01*
X15752097Y46680153D01*
X15989151Y46633000D01*
X16230849Y46633000D01*
X16467903Y46680153D01*
X16691202Y46772647D01*
X16892167Y46906927D01*
X17063073Y47077833D01*
X17197353Y47278798D01*
X17289847Y47502097D01*
X17337000Y47739151D01*
X17337000Y47980849D01*
X17289847Y48217903D01*
X17197353Y48441202D01*
X17063073Y48642167D01*
X17045240Y48660000D01*
X17420934Y48660000D01*
X17420934Y47060000D01*
X17429178Y46976293D01*
X17453595Y46895804D01*
X17493245Y46821624D01*
X17546605Y46756605D01*
X17611624Y46703245D01*
X17685804Y46663595D01*
X17766293Y46639178D01*
X17850000Y46630934D01*
X19450000Y46630934D01*
X19533707Y46639178D01*
X19614196Y46663595D01*
X19688376Y46703245D01*
X19753395Y46756605D01*
X19806755Y46821624D01*
X19831168Y46867298D01*
X30536903Y46867298D01*
X30608486Y46623329D01*
X30674636Y46592029D01*
X30608486Y46556671D01*
X30536903Y46312702D01*
X31350000Y45499605D01*
X32163097Y46312702D01*
X32091514Y46556671D01*
X32025364Y46587971D01*
X32091514Y46623329D01*
X32163097Y46867298D01*
X31350000Y47680395D01*
X30536903Y46867298D01*
X19831168Y46867298D01*
X19846405Y46895804D01*
X19870822Y46976293D01*
X19879066Y47060000D01*
X19879066Y47789488D01*
X29909783Y47789488D01*
X29951213Y47509870D01*
X30046397Y47243708D01*
X30113329Y47118486D01*
X30357298Y47046903D01*
X31170395Y47860000D01*
X31529605Y47860000D01*
X32342702Y47046903D01*
X32586671Y47118486D01*
X32707571Y47373996D01*
X32728549Y47457686D01*
X32802647Y47278798D01*
X32936927Y47077833D01*
X33107833Y46906927D01*
X33308798Y46772647D01*
X33532097Y46680153D01*
X33769151Y46633000D01*
X34010849Y46633000D01*
X34247903Y46680153D01*
X34471202Y46772647D01*
X34672167Y46906927D01*
X34843073Y47077833D01*
X34977353Y47278798D01*
X35069847Y47502097D01*
X35117000Y47739151D01*
X35117000Y47980849D01*
X35203000Y47980849D01*
X35203000Y47739151D01*
X35250153Y47502097D01*
X35342647Y47278798D01*
X35476927Y47077833D01*
X35647833Y46906927D01*
X35848798Y46772647D01*
X36072097Y46680153D01*
X36309151Y46633000D01*
X36550849Y46633000D01*
X36787903Y46680153D01*
X37011202Y46772647D01*
X37212167Y46906927D01*
X37383073Y47077833D01*
X37517353Y47278798D01*
X37609847Y47502097D01*
X37657000Y47739151D01*
X37657000Y47980849D01*
X37743000Y47980849D01*
X37743000Y47739151D01*
X37790153Y47502097D01*
X37882647Y47278798D01*
X38016927Y47077833D01*
X38187833Y46906927D01*
X38388798Y46772647D01*
X38612097Y46680153D01*
X38849151Y46633000D01*
X39090849Y46633000D01*
X39327903Y46680153D01*
X39551202Y46772647D01*
X39752167Y46906927D01*
X39923073Y47077833D01*
X40057353Y47278798D01*
X40149847Y47502097D01*
X40197000Y47739151D01*
X40197000Y47980849D01*
X40149847Y48217903D01*
X40057353Y48441202D01*
X39923073Y48642167D01*
X39905240Y48660000D01*
X40280934Y48660000D01*
X40280934Y47060000D01*
X40289178Y46976293D01*
X40313595Y46895804D01*
X40353245Y46821624D01*
X40406605Y46756605D01*
X40471624Y46703245D01*
X40545804Y46663595D01*
X40626293Y46639178D01*
X40710000Y46630934D01*
X42310000Y46630934D01*
X42393707Y46639178D01*
X42474196Y46663595D01*
X42548376Y46703245D01*
X42613395Y46756605D01*
X42666755Y46821624D01*
X42706405Y46895804D01*
X42730822Y46976293D01*
X42739066Y47060000D01*
X42739066Y48660000D01*
X42730822Y48743707D01*
X42706405Y48824196D01*
X42666755Y48898376D01*
X42613395Y48963395D01*
X42548376Y49016755D01*
X42474196Y49056405D01*
X42393707Y49080822D01*
X42310000Y49089066D01*
X40710000Y49089066D01*
X40626293Y49080822D01*
X40545804Y49056405D01*
X40471624Y49016755D01*
X40406605Y48963395D01*
X40353245Y48898376D01*
X40313595Y48824196D01*
X40289178Y48743707D01*
X40280934Y48660000D01*
X39905240Y48660000D01*
X39752167Y48813073D01*
X39551202Y48947353D01*
X39327903Y49039847D01*
X39090849Y49087000D01*
X38849151Y49087000D01*
X38612097Y49039847D01*
X38388798Y48947353D01*
X38187833Y48813073D01*
X38016927Y48642167D01*
X37882647Y48441202D01*
X37790153Y48217903D01*
X37743000Y47980849D01*
X37657000Y47980849D01*
X37609847Y48217903D01*
X37517353Y48441202D01*
X37383073Y48642167D01*
X37212167Y48813073D01*
X37011202Y48947353D01*
X36787903Y49039847D01*
X36550849Y49087000D01*
X36309151Y49087000D01*
X36072097Y49039847D01*
X35848798Y48947353D01*
X35647833Y48813073D01*
X35476927Y48642167D01*
X35342647Y48441202D01*
X35250153Y48217903D01*
X35203000Y47980849D01*
X35117000Y47980849D01*
X35069847Y48217903D01*
X34977353Y48441202D01*
X34843073Y48642167D01*
X34672167Y48813073D01*
X34471202Y48947353D01*
X34247903Y49039847D01*
X34010849Y49087000D01*
X33769151Y49087000D01*
X33532097Y49039847D01*
X33308798Y48947353D01*
X33107833Y48813073D01*
X32936927Y48642167D01*
X32802647Y48441202D01*
X32729395Y48264356D01*
X32653603Y48476292D01*
X32586671Y48601514D01*
X32342702Y48673097D01*
X31529605Y47860000D01*
X31170395Y47860000D01*
X30357298Y48673097D01*
X30113329Y48601514D01*
X29992429Y48346004D01*
X29923700Y48071816D01*
X29909783Y47789488D01*
X19879066Y47789488D01*
X19879066Y48660000D01*
X19870822Y48743707D01*
X19846405Y48824196D01*
X19806755Y48898376D01*
X19753395Y48963395D01*
X19688376Y49016755D01*
X19614196Y49056405D01*
X19533707Y49080822D01*
X19450000Y49089066D01*
X17850000Y49089066D01*
X17766293Y49080822D01*
X17685804Y49056405D01*
X17611624Y49016755D01*
X17546605Y48963395D01*
X17493245Y48898376D01*
X17453595Y48824196D01*
X17429178Y48743707D01*
X17420934Y48660000D01*
X17045240Y48660000D01*
X16892167Y48813073D01*
X16691202Y48947353D01*
X16467903Y49039847D01*
X16230849Y49087000D01*
X15989151Y49087000D01*
X15752097Y49039847D01*
X15528798Y48947353D01*
X15327833Y48813073D01*
X15156927Y48642167D01*
X15022647Y48441202D01*
X14930153Y48217903D01*
X14883000Y47980849D01*
X14797000Y47980849D01*
X14749847Y48217903D01*
X14657353Y48441202D01*
X14523073Y48642167D01*
X14352167Y48813073D01*
X14151202Y48947353D01*
X13927903Y49039847D01*
X13690849Y49087000D01*
X13449151Y49087000D01*
X13212097Y49039847D01*
X12988798Y48947353D01*
X12787833Y48813073D01*
X12616927Y48642167D01*
X12482647Y48441202D01*
X12390153Y48217903D01*
X12343000Y47980849D01*
X12257000Y47980849D01*
X12209847Y48217903D01*
X12117353Y48441202D01*
X11983073Y48642167D01*
X11812167Y48813073D01*
X11611202Y48947353D01*
X11387903Y49039847D01*
X11150849Y49087000D01*
X10909151Y49087000D01*
X10672097Y49039847D01*
X10448798Y48947353D01*
X10247833Y48813073D01*
X10076927Y48642167D01*
X9942647Y48441202D01*
X9869395Y48264356D01*
X9793603Y48476292D01*
X9726671Y48601514D01*
X9482702Y48673097D01*
X8669605Y47860000D01*
X8310395Y47860000D01*
X7497298Y48673097D01*
X7253329Y48601514D01*
X7132429Y48346004D01*
X7063700Y48071816D01*
X7049783Y47789488D01*
X6566996Y47789488D01*
X6448349Y48075925D01*
X6084250Y48620839D01*
X5852387Y48852702D01*
X7676903Y48852702D01*
X8490000Y48039605D01*
X9303097Y48852702D01*
X9231514Y49096671D01*
X8976004Y49217571D01*
X8701816Y49286300D01*
X8419488Y49300217D01*
X8139870Y49258787D01*
X7873708Y49163603D01*
X7748486Y49096671D01*
X7676903Y48852702D01*
X5852387Y48852702D01*
X5620839Y49084250D01*
X5188693Y49373000D01*
X23548989Y49373000D01*
X23536564Y49364698D01*
X23536564Y49364698D01*
G37*
X23536564Y49364698D02*
X23435302Y49263436D01*
X23355741Y49144364D01*
X23300938Y49012058D01*
X23273000Y48871603D01*
X23273000Y48728397D01*
X23300938Y48587942D01*
X23355741Y48455636D01*
X23435302Y48336564D01*
X23536564Y48235302D01*
X23655636Y48155741D01*
X23787942Y48100938D01*
X23928397Y48073000D01*
X24071603Y48073000D01*
X24212058Y48100938D01*
X24344364Y48155741D01*
X24463436Y48235302D01*
X24564698Y48336564D01*
X24644259Y48455636D01*
X24699062Y48587942D01*
X24727000Y48728397D01*
X24727000Y48852702D01*
X30536903Y48852702D01*
X31350000Y48039605D01*
X32163097Y48852702D01*
X32091514Y49096671D01*
X31836004Y49217571D01*
X31561816Y49286300D01*
X31279488Y49300217D01*
X30999870Y49258787D01*
X30733708Y49163603D01*
X30608486Y49096671D01*
X30536903Y48852702D01*
X24727000Y48852702D01*
X24727000Y48871603D01*
X24699062Y49012058D01*
X24644259Y49144364D01*
X24564698Y49263436D01*
X24463436Y49364698D01*
X24451011Y49373000D01*
X44811307Y49373000D01*
X44379161Y49084250D01*
X43915750Y48620839D01*
X43551651Y48075925D01*
X43300855Y47470450D01*
X43173000Y46827681D01*
X43173000Y46172319D01*
X43300855Y45529550D01*
X43551651Y44924075D01*
X43915750Y44379161D01*
X44379161Y43915750D01*
X44924075Y43551651D01*
X45529550Y43300855D01*
X46172319Y43173000D01*
X46827681Y43173000D01*
X47470450Y43300855D01*
X48075925Y43551651D01*
X48620839Y43915750D01*
X49084250Y44379161D01*
X49373000Y44811307D01*
X49373000Y5188693D01*
X49084250Y5620839D01*
X48620839Y6084250D01*
X48075925Y6448349D01*
X47470450Y6699145D01*
X46827681Y6827000D01*
X46172319Y6827000D01*
X45529550Y6699145D01*
X44924075Y6448349D01*
X44379161Y6084250D01*
X43915750Y5620839D01*
X43551651Y5075925D01*
X43300855Y4470450D01*
X43173000Y3827681D01*
X43173000Y3172319D01*
X43300855Y2529550D01*
X43551651Y1924075D01*
X43915750Y1379161D01*
X44379161Y915750D01*
X44811307Y627000D01*
X5188693Y627000D01*
X5620839Y915750D01*
X6084250Y1379161D01*
X6448349Y1924075D01*
X6509457Y2071603D01*
X17273000Y2071603D01*
X17273000Y1928397D01*
X17300938Y1787942D01*
X17355741Y1655636D01*
X17435302Y1536564D01*
X17536564Y1435302D01*
X17655636Y1355741D01*
X17787942Y1300938D01*
X17928397Y1273000D01*
X18071603Y1273000D01*
X18212058Y1300938D01*
X18344364Y1355741D01*
X18463436Y1435302D01*
X18564698Y1536564D01*
X18644259Y1655636D01*
X18699062Y1787942D01*
X18727000Y1928397D01*
X18727000Y2071603D01*
X18699062Y2212058D01*
X18644259Y2344364D01*
X18564698Y2463436D01*
X18463436Y2564698D01*
X18344364Y2644259D01*
X18212058Y2699062D01*
X18071603Y2727000D01*
X17928397Y2727000D01*
X17787942Y2699062D01*
X17655636Y2644259D01*
X17536564Y2564698D01*
X17435302Y2463436D01*
X17355741Y2344364D01*
X17300938Y2212058D01*
X17273000Y2071603D01*
X6509457Y2071603D01*
X6699145Y2529550D01*
X6780788Y2940000D01*
X25040934Y2940000D01*
X25040934Y1340000D01*
X25049178Y1256293D01*
X25073595Y1175804D01*
X25113245Y1101624D01*
X25166605Y1036605D01*
X25231624Y983245D01*
X25305804Y943595D01*
X25386293Y919178D01*
X25470000Y910934D01*
X27070000Y910934D01*
X27153707Y919178D01*
X27234196Y943595D01*
X27308376Y983245D01*
X27373395Y1036605D01*
X27426755Y1101624D01*
X27466405Y1175804D01*
X27490822Y1256293D01*
X27499066Y1340000D01*
X27499066Y2260849D01*
X27583000Y2260849D01*
X27583000Y2019151D01*
X27630153Y1782097D01*
X27722647Y1558798D01*
X27856927Y1357833D01*
X28027833Y1186927D01*
X28228798Y1052647D01*
X28452097Y960153D01*
X28689151Y913000D01*
X28930849Y913000D01*
X29167903Y960153D01*
X29391202Y1052647D01*
X29592167Y1186927D01*
X29763073Y1357833D01*
X29897353Y1558798D01*
X29989847Y1782097D01*
X30037000Y2019151D01*
X30037000Y2260849D01*
X30123000Y2260849D01*
X30123000Y2019151D01*
X30170153Y1782097D01*
X30262647Y1558798D01*
X30396927Y1357833D01*
X30567833Y1186927D01*
X30768798Y1052647D01*
X30992097Y960153D01*
X31229151Y913000D01*
X31470849Y913000D01*
X31707903Y960153D01*
X31931202Y1052647D01*
X32072857Y1147298D01*
X33076903Y1147298D01*
X33148486Y903329D01*
X33403996Y782429D01*
X33678184Y713700D01*
X33960512Y699783D01*
X34240130Y741213D01*
X34506292Y836397D01*
X34631514Y903329D01*
X34703097Y1147298D01*
X33890000Y1960395D01*
X33076903Y1147298D01*
X32072857Y1147298D01*
X32132167Y1186927D01*
X32303073Y1357833D01*
X32437353Y1558798D01*
X32510605Y1735644D01*
X32586397Y1523708D01*
X32653329Y1398486D01*
X32897298Y1326903D01*
X33710395Y2140000D01*
X34069605Y2140000D01*
X34882702Y1326903D01*
X35126671Y1398486D01*
X35247571Y1653996D01*
X35316300Y1928184D01*
X35330217Y2210512D01*
X35288787Y2490130D01*
X35193603Y2756292D01*
X35126671Y2881514D01*
X34882702Y2953097D01*
X34069605Y2140000D01*
X33710395Y2140000D01*
X32897298Y2953097D01*
X32653329Y2881514D01*
X32532429Y2626004D01*
X32511451Y2542314D01*
X32437353Y2721202D01*
X32303073Y2922167D01*
X32132167Y3093073D01*
X31931202Y3227353D01*
X31707903Y3319847D01*
X31470849Y3367000D01*
X31229151Y3367000D01*
X30992097Y3319847D01*
X30768798Y3227353D01*
X30567833Y3093073D01*
X30396927Y2922167D01*
X30262647Y2721202D01*
X30170153Y2497903D01*
X30123000Y2260849D01*
X30037000Y2260849D01*
X29989847Y2497903D01*
X29897353Y2721202D01*
X29763073Y2922167D01*
X29592167Y3093073D01*
X29391202Y3227353D01*
X29167903Y3319847D01*
X28930849Y3367000D01*
X28689151Y3367000D01*
X28452097Y3319847D01*
X28228798Y3227353D01*
X28027833Y3093073D01*
X27856927Y2922167D01*
X27722647Y2721202D01*
X27630153Y2497903D01*
X27583000Y2260849D01*
X27499066Y2260849D01*
X27499066Y2940000D01*
X27490822Y3023707D01*
X27466405Y3104196D01*
X27426755Y3178376D01*
X27373395Y3243395D01*
X27308376Y3296755D01*
X27234196Y3336405D01*
X27153707Y3360822D01*
X27070000Y3369066D01*
X25470000Y3369066D01*
X25386293Y3360822D01*
X25305804Y3336405D01*
X25231624Y3296755D01*
X25166605Y3243395D01*
X25113245Y3178376D01*
X25073595Y3104196D01*
X25049178Y3023707D01*
X25040934Y2940000D01*
X6780788Y2940000D01*
X6827000Y3172319D01*
X6827000Y3827681D01*
X6726892Y4330961D01*
X8203096Y4330961D01*
X8220633Y4248182D01*
X8331285Y3988354D01*
X8490500Y3755105D01*
X8692161Y3557399D01*
X8928517Y3402834D01*
X9190486Y3297350D01*
X9468000Y3245000D01*
X10268000Y3245000D01*
X10268000Y4553000D01*
X8325085Y4553000D01*
X8203096Y4330961D01*
X6726892Y4330961D01*
X6699145Y4470450D01*
X6467770Y5029039D01*
X8203096Y5029039D01*
X8325085Y4807000D01*
X10268000Y4807000D01*
X10268000Y4827000D01*
X10522000Y4827000D01*
X10522000Y4807000D01*
X10542000Y4807000D01*
X10542000Y4553000D01*
X10522000Y4553000D01*
X10522000Y3245000D01*
X11322000Y3245000D01*
X11599514Y3297350D01*
X11861483Y3402834D01*
X12097839Y3557399D01*
X12299500Y3755105D01*
X12458715Y3988354D01*
X12496757Y4077681D01*
X12616927Y3897833D01*
X12787833Y3726927D01*
X12988798Y3592647D01*
X13212097Y3500153D01*
X13449151Y3453000D01*
X13690849Y3453000D01*
X13927903Y3500153D01*
X14151202Y3592647D01*
X14352167Y3726927D01*
X14523073Y3897833D01*
X14657353Y4098798D01*
X14749847Y4322097D01*
X14797000Y4559151D01*
X14797000Y4800849D01*
X14749847Y5037903D01*
X14657353Y5261202D01*
X14523073Y5462167D01*
X14352167Y5633073D01*
X14151202Y5767353D01*
X13927903Y5859847D01*
X13690849Y5907000D01*
X13449151Y5907000D01*
X13212097Y5859847D01*
X12988798Y5767353D01*
X12787833Y5633073D01*
X12616927Y5462167D01*
X12496757Y5282319D01*
X12458715Y5371646D01*
X12299500Y5604895D01*
X12097839Y5802601D01*
X11861483Y5957166D01*
X11599514Y6062650D01*
X11322000Y6115000D01*
X9468000Y6115000D01*
X9190486Y6062650D01*
X8928517Y5957166D01*
X8692161Y5802601D01*
X8490500Y5604895D01*
X8331285Y5371646D01*
X8220633Y5111818D01*
X8203096Y5029039D01*
X6467770Y5029039D01*
X6448349Y5075925D01*
X6084250Y5620839D01*
X5620839Y6084250D01*
X5075925Y6448349D01*
X4778364Y6571603D01*
X5773000Y6571603D01*
X5773000Y6428397D01*
X5800938Y6287942D01*
X5855741Y6155636D01*
X5935302Y6036564D01*
X6036564Y5935302D01*
X6155636Y5855741D01*
X6287942Y5800938D01*
X6428397Y5773000D01*
X6571603Y5773000D01*
X6712058Y5800938D01*
X6844364Y5855741D01*
X6963436Y5935302D01*
X7064698Y6036564D01*
X7144259Y6155636D01*
X7199062Y6287942D01*
X7227000Y6428397D01*
X7227000Y6571603D01*
X7199062Y6712058D01*
X7144259Y6844364D01*
X7064698Y6963436D01*
X6963436Y7064698D01*
X6844364Y7144259D01*
X6712058Y7199062D01*
X6571603Y7227000D01*
X6428397Y7227000D01*
X6287942Y7199062D01*
X6155636Y7144259D01*
X6036564Y7064698D01*
X5935302Y6963436D01*
X5855741Y6844364D01*
X5800938Y6712058D01*
X5773000Y6571603D01*
X4778364Y6571603D01*
X4470450Y6699145D01*
X3827681Y6827000D01*
X3172319Y6827000D01*
X2529550Y6699145D01*
X1924075Y6448349D01*
X1379161Y6084250D01*
X915750Y5620839D01*
X627000Y5188693D01*
X627000Y8571603D01*
X14273000Y8571603D01*
X14273000Y8428397D01*
X14300938Y8287942D01*
X14355741Y8155636D01*
X14435302Y8036564D01*
X14536564Y7935302D01*
X14655636Y7855741D01*
X14787942Y7800938D01*
X14798782Y7798782D01*
X14800938Y7787942D01*
X14855741Y7655636D01*
X14935302Y7536564D01*
X15036564Y7435302D01*
X15155636Y7355741D01*
X15287942Y7300938D01*
X15428397Y7273000D01*
X15571603Y7273000D01*
X15712058Y7300938D01*
X15844364Y7355741D01*
X15963436Y7435302D01*
X16064698Y7536564D01*
X16144259Y7655636D01*
X16199062Y7787942D01*
X16227000Y7928397D01*
X16227000Y8071603D01*
X19773000Y8071603D01*
X19773000Y7928397D01*
X19800938Y7787942D01*
X19855741Y7655636D01*
X19935302Y7536564D01*
X19971866Y7500000D01*
X19935302Y7463436D01*
X19855741Y7344364D01*
X19800938Y7212058D01*
X19773000Y7071603D01*
X19773000Y6928397D01*
X19800938Y6787942D01*
X19855741Y6655636D01*
X19926324Y6550000D01*
X19855741Y6444364D01*
X19800938Y6312058D01*
X19773000Y6171603D01*
X19773000Y6028397D01*
X19800938Y5887942D01*
X19855741Y5755636D01*
X19935302Y5636564D01*
X20036564Y5535302D01*
X20155636Y5455741D01*
X20287942Y5400938D01*
X20428397Y5373000D01*
X20571603Y5373000D01*
X20712058Y5400938D01*
X20844364Y5455741D01*
X20880670Y5480000D01*
X25040934Y5480000D01*
X25040934Y3880000D01*
X25049178Y3796293D01*
X25073595Y3715804D01*
X25113245Y3641624D01*
X25166605Y3576605D01*
X25231624Y3523245D01*
X25305804Y3483595D01*
X25386293Y3459178D01*
X25470000Y3450934D01*
X27070000Y3450934D01*
X27153707Y3459178D01*
X27234196Y3483595D01*
X27308376Y3523245D01*
X27373395Y3576605D01*
X27426755Y3641624D01*
X27466405Y3715804D01*
X27490822Y3796293D01*
X27499066Y3880000D01*
X27499066Y4800849D01*
X27583000Y4800849D01*
X27583000Y4559151D01*
X27630153Y4322097D01*
X27722647Y4098798D01*
X27856927Y3897833D01*
X28027833Y3726927D01*
X28228798Y3592647D01*
X28452097Y3500153D01*
X28689151Y3453000D01*
X28930849Y3453000D01*
X29167903Y3500153D01*
X29391202Y3592647D01*
X29592167Y3726927D01*
X29763073Y3897833D01*
X29897353Y4098798D01*
X29989847Y4322097D01*
X30037000Y4559151D01*
X30037000Y4800849D01*
X30123000Y4800849D01*
X30123000Y4559151D01*
X30170153Y4322097D01*
X30262647Y4098798D01*
X30396927Y3897833D01*
X30567833Y3726927D01*
X30768798Y3592647D01*
X30992097Y3500153D01*
X31229151Y3453000D01*
X31470849Y3453000D01*
X31707903Y3500153D01*
X31931202Y3592647D01*
X32132167Y3726927D01*
X32303073Y3897833D01*
X32437353Y4098798D01*
X32529847Y4322097D01*
X32577000Y4559151D01*
X32577000Y4800849D01*
X32663000Y4800849D01*
X32663000Y4559151D01*
X32710153Y4322097D01*
X32802647Y4098798D01*
X32936927Y3897833D01*
X33107833Y3726927D01*
X33308798Y3592647D01*
X33485644Y3519395D01*
X33273708Y3443603D01*
X33148486Y3376671D01*
X33076903Y3132702D01*
X33890000Y2319605D01*
X34703097Y3132702D01*
X34631514Y3376671D01*
X34376004Y3497571D01*
X34292314Y3518549D01*
X34471202Y3592647D01*
X34672167Y3726927D01*
X34843073Y3897833D01*
X34977353Y4098798D01*
X35069847Y4322097D01*
X35117000Y4559151D01*
X35117000Y4800849D01*
X35069847Y5037903D01*
X35035178Y5121603D01*
X36273000Y5121603D01*
X36273000Y4978397D01*
X36300938Y4837942D01*
X36355741Y4705636D01*
X36435302Y4586564D01*
X36536564Y4485302D01*
X36655636Y4405741D01*
X36787942Y4350938D01*
X36928397Y4323000D01*
X37071603Y4323000D01*
X37212058Y4350938D01*
X37344364Y4405741D01*
X37463436Y4485302D01*
X37564698Y4586564D01*
X37644259Y4705636D01*
X37699062Y4837942D01*
X37727000Y4978397D01*
X37727000Y5121603D01*
X37699062Y5262058D01*
X37644259Y5394364D01*
X37564698Y5513436D01*
X37463436Y5614698D01*
X37344364Y5694259D01*
X37212058Y5749062D01*
X37071603Y5777000D01*
X36928397Y5777000D01*
X36787942Y5749062D01*
X36655636Y5694259D01*
X36536564Y5614698D01*
X36435302Y5513436D01*
X36355741Y5394364D01*
X36300938Y5262058D01*
X36273000Y5121603D01*
X35035178Y5121603D01*
X34977353Y5261202D01*
X34843073Y5462167D01*
X34672167Y5633073D01*
X34471202Y5767353D01*
X34294356Y5840605D01*
X34506292Y5916397D01*
X34631514Y5983329D01*
X34703097Y6227298D01*
X33890000Y7040395D01*
X33076903Y6227298D01*
X33148486Y5983329D01*
X33403996Y5862429D01*
X33487686Y5841451D01*
X33308798Y5767353D01*
X33107833Y5633073D01*
X32936927Y5462167D01*
X32802647Y5261202D01*
X32710153Y5037903D01*
X32663000Y4800849D01*
X32577000Y4800849D01*
X32529847Y5037903D01*
X32437353Y5261202D01*
X32303073Y5462167D01*
X32132167Y5633073D01*
X31931202Y5767353D01*
X31707903Y5859847D01*
X31470849Y5907000D01*
X31229151Y5907000D01*
X30992097Y5859847D01*
X30768798Y5767353D01*
X30567833Y5633073D01*
X30396927Y5462167D01*
X30262647Y5261202D01*
X30170153Y5037903D01*
X30123000Y4800849D01*
X30037000Y4800849D01*
X29989847Y5037903D01*
X29897353Y5261202D01*
X29763073Y5462167D01*
X29592167Y5633073D01*
X29391202Y5767353D01*
X29167903Y5859847D01*
X28930849Y5907000D01*
X28689151Y5907000D01*
X28452097Y5859847D01*
X28228798Y5767353D01*
X28027833Y5633073D01*
X27856927Y5462167D01*
X27722647Y5261202D01*
X27630153Y5037903D01*
X27583000Y4800849D01*
X27499066Y4800849D01*
X27499066Y5480000D01*
X27490822Y5563707D01*
X27466405Y5644196D01*
X27426755Y5718376D01*
X27373395Y5783395D01*
X27308376Y5836755D01*
X27234196Y5876405D01*
X27153707Y5900822D01*
X27070000Y5909066D01*
X25470000Y5909066D01*
X25386293Y5900822D01*
X25305804Y5876405D01*
X25231624Y5836755D01*
X25166605Y5783395D01*
X25113245Y5718376D01*
X25073595Y5644196D01*
X25049178Y5563707D01*
X25040934Y5480000D01*
X20880670Y5480000D01*
X20963436Y5535302D01*
X21064698Y5636564D01*
X21144259Y5755636D01*
X21199062Y5887942D01*
X21227000Y6028397D01*
X21227000Y6171603D01*
X21199062Y6312058D01*
X21144259Y6444364D01*
X21073676Y6550000D01*
X21144259Y6655636D01*
X21199062Y6787942D01*
X21227000Y6928397D01*
X21227000Y7071603D01*
X21199062Y7212058D01*
X21144259Y7344364D01*
X21121350Y7378650D01*
X21155636Y7355741D01*
X21287942Y7300938D01*
X21428397Y7273000D01*
X21571603Y7273000D01*
X21712058Y7300938D01*
X21808411Y7340849D01*
X30123000Y7340849D01*
X30123000Y7099151D01*
X30170153Y6862097D01*
X30262647Y6638798D01*
X30396927Y6437833D01*
X30567833Y6266927D01*
X30768798Y6132647D01*
X30992097Y6040153D01*
X31229151Y5993000D01*
X31470849Y5993000D01*
X31707903Y6040153D01*
X31931202Y6132647D01*
X32132167Y6266927D01*
X32303073Y6437833D01*
X32437353Y6638798D01*
X32510605Y6815644D01*
X32586397Y6603708D01*
X32653329Y6478486D01*
X32897298Y6406903D01*
X33710395Y7220000D01*
X34069605Y7220000D01*
X34882702Y6406903D01*
X35126671Y6478486D01*
X35247571Y6733996D01*
X35268549Y6817686D01*
X35342647Y6638798D01*
X35476927Y6437833D01*
X35647833Y6266927D01*
X35848798Y6132647D01*
X36072097Y6040153D01*
X36309151Y5993000D01*
X36550849Y5993000D01*
X36787903Y6040153D01*
X37011202Y6132647D01*
X37212167Y6266927D01*
X37383073Y6437833D01*
X37517353Y6638798D01*
X37533467Y6677701D01*
X37531928Y6420000D01*
X37544188Y6295518D01*
X37580498Y6175820D01*
X37639463Y6065506D01*
X37718815Y5968815D01*
X37815506Y5889463D01*
X37925820Y5830498D01*
X38045518Y5794188D01*
X38170000Y5781928D01*
X38684250Y5785000D01*
X38843000Y5943750D01*
X38843000Y7093000D01*
X39097000Y7093000D01*
X39097000Y5943750D01*
X39255750Y5785000D01*
X39770000Y5781928D01*
X39894482Y5794188D01*
X40014180Y5830498D01*
X40124494Y5889463D01*
X40221185Y5968815D01*
X40300537Y6065506D01*
X40359502Y6175820D01*
X40395812Y6295518D01*
X40408072Y6420000D01*
X40405000Y6934250D01*
X40246250Y7093000D01*
X39097000Y7093000D01*
X38843000Y7093000D01*
X38823000Y7093000D01*
X38823000Y7347000D01*
X38843000Y7347000D01*
X38843000Y8496250D01*
X39097000Y8496250D01*
X39097000Y7347000D01*
X40246250Y7347000D01*
X40405000Y7505750D01*
X40406741Y7797199D01*
X40528397Y7773000D01*
X40671603Y7773000D01*
X40812058Y7800938D01*
X40944364Y7855741D01*
X41063436Y7935302D01*
X41164698Y8036564D01*
X41244259Y8155636D01*
X41299062Y8287942D01*
X41327000Y8428397D01*
X41327000Y8571603D01*
X41299062Y8712058D01*
X41244259Y8844364D01*
X41164698Y8963436D01*
X41063436Y9064698D01*
X40944364Y9144259D01*
X40812058Y9199062D01*
X40671603Y9227000D01*
X40528397Y9227000D01*
X40387942Y9199062D01*
X40255636Y9144259D01*
X40136564Y9064698D01*
X40035302Y8963436D01*
X39955741Y8844364D01*
X39900938Y8712058D01*
X39887890Y8646461D01*
X39770000Y8658072D01*
X39255750Y8655000D01*
X39097000Y8496250D01*
X38843000Y8496250D01*
X38684250Y8655000D01*
X38170000Y8658072D01*
X38045518Y8645812D01*
X37925820Y8609502D01*
X37815506Y8550537D01*
X37718815Y8471185D01*
X37639463Y8374494D01*
X37580498Y8264180D01*
X37544188Y8144482D01*
X37531928Y8020000D01*
X37533467Y7762299D01*
X37517353Y7801202D01*
X37383073Y8002167D01*
X37212167Y8173073D01*
X37011202Y8307353D01*
X36787903Y8399847D01*
X36550849Y8447000D01*
X36309151Y8447000D01*
X36072097Y8399847D01*
X35848798Y8307353D01*
X35647833Y8173073D01*
X35476927Y8002167D01*
X35342647Y7801202D01*
X35269395Y7624356D01*
X35193603Y7836292D01*
X35126671Y7961514D01*
X34882702Y8033097D01*
X34069605Y7220000D01*
X33710395Y7220000D01*
X32897298Y8033097D01*
X32653329Y7961514D01*
X32532429Y7706004D01*
X32511451Y7622314D01*
X32437353Y7801202D01*
X32303073Y8002167D01*
X32132167Y8173073D01*
X32072858Y8212702D01*
X33076903Y8212702D01*
X33890000Y7399605D01*
X34703097Y8212702D01*
X34631514Y8456671D01*
X34376004Y8577571D01*
X34101816Y8646300D01*
X33819488Y8660217D01*
X33539870Y8618787D01*
X33273708Y8523603D01*
X33148486Y8456671D01*
X33076903Y8212702D01*
X32072858Y8212702D01*
X31931202Y8307353D01*
X31707903Y8399847D01*
X31470849Y8447000D01*
X31229151Y8447000D01*
X30992097Y8399847D01*
X30768798Y8307353D01*
X30567833Y8173073D01*
X30396927Y8002167D01*
X30262647Y7801202D01*
X30170153Y7577903D01*
X30123000Y7340849D01*
X21808411Y7340849D01*
X21844364Y7355741D01*
X21963436Y7435302D01*
X22064698Y7536564D01*
X22144259Y7655636D01*
X22199062Y7787942D01*
X22227000Y7928397D01*
X22227000Y8071603D01*
X22199062Y8212058D01*
X22174398Y8271603D01*
X23873000Y8271603D01*
X23873000Y8128397D01*
X23900938Y7987942D01*
X23955741Y7855636D01*
X24035302Y7736564D01*
X24136564Y7635302D01*
X24255636Y7555741D01*
X24387942Y7500938D01*
X24528397Y7473000D01*
X24671603Y7473000D01*
X24812058Y7500938D01*
X24944364Y7555741D01*
X25063436Y7635302D01*
X25164698Y7736564D01*
X25244259Y7855636D01*
X25299062Y7987942D01*
X25327000Y8128397D01*
X25327000Y8271603D01*
X25299062Y8412058D01*
X25244259Y8544364D01*
X25226059Y8571603D01*
X27773000Y8571603D01*
X27773000Y8428397D01*
X27800938Y8287942D01*
X27855741Y8155636D01*
X27935302Y8036564D01*
X28036564Y7935302D01*
X28155636Y7855741D01*
X28287942Y7800938D01*
X28428397Y7773000D01*
X28571603Y7773000D01*
X28712058Y7800938D01*
X28844364Y7855741D01*
X28963436Y7935302D01*
X29064698Y8036564D01*
X29144259Y8155636D01*
X29199062Y8287942D01*
X29227000Y8428397D01*
X29227000Y8571603D01*
X29199062Y8712058D01*
X29144259Y8844364D01*
X29064698Y8963436D01*
X28963436Y9064698D01*
X28844364Y9144259D01*
X28712058Y9199062D01*
X28571603Y9227000D01*
X28428397Y9227000D01*
X28287942Y9199062D01*
X28155636Y9144259D01*
X28036564Y9064698D01*
X27935302Y8963436D01*
X27855741Y8844364D01*
X27800938Y8712058D01*
X27773000Y8571603D01*
X25226059Y8571603D01*
X25164698Y8663436D01*
X25063436Y8764698D01*
X24944364Y8844259D01*
X24812058Y8899062D01*
X24671603Y8927000D01*
X24528397Y8927000D01*
X24387942Y8899062D01*
X24255636Y8844259D01*
X24136564Y8764698D01*
X24035302Y8663436D01*
X23955741Y8544364D01*
X23900938Y8412058D01*
X23873000Y8271603D01*
X22174398Y8271603D01*
X22144259Y8344364D01*
X22064698Y8463436D01*
X21963436Y8564698D01*
X21844364Y8644259D01*
X21712058Y8699062D01*
X21571603Y8727000D01*
X21428397Y8727000D01*
X21287942Y8699062D01*
X21155636Y8644259D01*
X21036564Y8564698D01*
X21000000Y8528134D01*
X20963436Y8564698D01*
X20844364Y8644259D01*
X20712058Y8699062D01*
X20571603Y8727000D01*
X20428397Y8727000D01*
X20287942Y8699062D01*
X20155636Y8644259D01*
X20036564Y8564698D01*
X19935302Y8463436D01*
X19855741Y8344364D01*
X19800938Y8212058D01*
X19773000Y8071603D01*
X16227000Y8071603D01*
X16199062Y8212058D01*
X16144259Y8344364D01*
X16064698Y8463436D01*
X16028134Y8500000D01*
X16064698Y8536564D01*
X16144259Y8655636D01*
X16199062Y8787942D01*
X16227000Y8928397D01*
X16227000Y9071603D01*
X16199062Y9212058D01*
X16144259Y9344364D01*
X16064698Y9463436D01*
X15963436Y9564698D01*
X15844364Y9644259D01*
X15712058Y9699062D01*
X15571603Y9727000D01*
X15428397Y9727000D01*
X15287942Y9699062D01*
X15155636Y9644259D01*
X15036564Y9564698D01*
X14935302Y9463436D01*
X14855741Y9344364D01*
X14800938Y9212058D01*
X14798782Y9201218D01*
X14787942Y9199062D01*
X14655636Y9144259D01*
X14536564Y9064698D01*
X14435302Y8963436D01*
X14355741Y8844364D01*
X14300938Y8712058D01*
X14273000Y8571603D01*
X627000Y8571603D01*
X627000Y9880849D01*
X42823000Y9880849D01*
X42823000Y9639151D01*
X42870153Y9402097D01*
X42962647Y9178798D01*
X43096927Y8977833D01*
X43267833Y8806927D01*
X43468798Y8672647D01*
X43692097Y8580153D01*
X43929151Y8533000D01*
X44170849Y8533000D01*
X44407903Y8580153D01*
X44631202Y8672647D01*
X44832167Y8806927D01*
X45003073Y8977833D01*
X45137353Y9178798D01*
X45229847Y9402097D01*
X45277000Y9639151D01*
X45277000Y9880849D01*
X45229847Y10117903D01*
X45137353Y10341202D01*
X45003073Y10542167D01*
X44985240Y10560000D01*
X45360934Y10560000D01*
X45360934Y8960000D01*
X45369178Y8876293D01*
X45393595Y8795804D01*
X45433245Y8721624D01*
X45486605Y8656605D01*
X45551624Y8603245D01*
X45625804Y8563595D01*
X45706293Y8539178D01*
X45790000Y8530934D01*
X47390000Y8530934D01*
X47473707Y8539178D01*
X47554196Y8563595D01*
X47628376Y8603245D01*
X47693395Y8656605D01*
X47746755Y8721624D01*
X47786405Y8795804D01*
X47810822Y8876293D01*
X47819066Y8960000D01*
X47819066Y10560000D01*
X47810822Y10643707D01*
X47786405Y10724196D01*
X47746755Y10798376D01*
X47693395Y10863395D01*
X47628376Y10916755D01*
X47554196Y10956405D01*
X47473707Y10980822D01*
X47390000Y10989066D01*
X45790000Y10989066D01*
X45706293Y10980822D01*
X45625804Y10956405D01*
X45551624Y10916755D01*
X45486605Y10863395D01*
X45433245Y10798376D01*
X45393595Y10724196D01*
X45369178Y10643707D01*
X45360934Y10560000D01*
X44985240Y10560000D01*
X44832167Y10713073D01*
X44631202Y10847353D01*
X44407903Y10939847D01*
X44170849Y10987000D01*
X43929151Y10987000D01*
X43692097Y10939847D01*
X43468798Y10847353D01*
X43267833Y10713073D01*
X43096927Y10542167D01*
X42962647Y10341202D01*
X42870153Y10117903D01*
X42823000Y9880849D01*
X627000Y9880849D01*
X627000Y11571603D01*
X5773000Y11571603D01*
X5773000Y11428397D01*
X5800938Y11287942D01*
X5855741Y11155636D01*
X5935302Y11036564D01*
X6036564Y10935302D01*
X6155636Y10855741D01*
X6287942Y10800938D01*
X6428397Y10773000D01*
X6571603Y10773000D01*
X6712058Y10800938D01*
X6844364Y10855741D01*
X6963436Y10935302D01*
X7000000Y10971866D01*
X7036564Y10935302D01*
X7155636Y10855741D01*
X7287942Y10800938D01*
X7428397Y10773000D01*
X7571603Y10773000D01*
X7712058Y10800938D01*
X7844364Y10855741D01*
X7963436Y10935302D01*
X8000000Y10971866D01*
X8036564Y10935302D01*
X8155636Y10855741D01*
X8287942Y10800938D01*
X8298782Y10798782D01*
X8300938Y10787942D01*
X8355741Y10655636D01*
X8435302Y10536564D01*
X8536564Y10435302D01*
X8655636Y10355741D01*
X8787942Y10300938D01*
X8928397Y10273000D01*
X9071603Y10273000D01*
X9212058Y10300938D01*
X9344364Y10355741D01*
X9463436Y10435302D01*
X9564698Y10536564D01*
X9644259Y10655636D01*
X9699062Y10787942D01*
X9701218Y10798782D01*
X9712058Y10800938D01*
X9844364Y10855741D01*
X9963436Y10935302D01*
X10064698Y11036564D01*
X10144259Y11155636D01*
X10199062Y11287942D01*
X10227000Y11428397D01*
X10227000Y11571603D01*
X10199062Y11712058D01*
X10144259Y11844364D01*
X10064698Y11963436D01*
X9963436Y12064698D01*
X9844364Y12144259D01*
X9712058Y12199062D01*
X9571603Y12227000D01*
X9428397Y12227000D01*
X9287942Y12199062D01*
X9155636Y12144259D01*
X9036564Y12064698D01*
X9000000Y12028134D01*
X8963436Y12064698D01*
X8844364Y12144259D01*
X8712058Y12199062D01*
X8571603Y12227000D01*
X8428397Y12227000D01*
X8287942Y12199062D01*
X8155636Y12144259D01*
X8036564Y12064698D01*
X8000000Y12028134D01*
X7963436Y12064698D01*
X7844364Y12144259D01*
X7712058Y12199062D01*
X7571603Y12227000D01*
X7428397Y12227000D01*
X7287942Y12199062D01*
X7155636Y12144259D01*
X7036564Y12064698D01*
X7000000Y12028134D01*
X6963436Y12064698D01*
X6844364Y12144259D01*
X6712058Y12199062D01*
X6571603Y12227000D01*
X6428397Y12227000D01*
X6287942Y12199062D01*
X6155636Y12144259D01*
X6036564Y12064698D01*
X5935302Y11963436D01*
X5855741Y11844364D01*
X5800938Y11712058D01*
X5773000Y11571603D01*
X627000Y11571603D01*
X627000Y12420849D01*
X42823000Y12420849D01*
X42823000Y12179151D01*
X42870153Y11942097D01*
X42962647Y11718798D01*
X43096927Y11517833D01*
X43267833Y11346927D01*
X43468798Y11212647D01*
X43692097Y11120153D01*
X43929151Y11073000D01*
X44170849Y11073000D01*
X44407903Y11120153D01*
X44631202Y11212647D01*
X44832167Y11346927D01*
X45003073Y11517833D01*
X45137353Y11718798D01*
X45229847Y11942097D01*
X45277000Y12179151D01*
X45277000Y12420849D01*
X45363000Y12420849D01*
X45363000Y12179151D01*
X45410153Y11942097D01*
X45502647Y11718798D01*
X45636927Y11517833D01*
X45807833Y11346927D01*
X46008798Y11212647D01*
X46232097Y11120153D01*
X46469151Y11073000D01*
X46710849Y11073000D01*
X46947903Y11120153D01*
X47171202Y11212647D01*
X47372167Y11346927D01*
X47543073Y11517833D01*
X47677353Y11718798D01*
X47769847Y11942097D01*
X47817000Y12179151D01*
X47817000Y12420849D01*
X47769847Y12657903D01*
X47677353Y12881202D01*
X47543073Y13082167D01*
X47372167Y13253073D01*
X47171202Y13387353D01*
X46947903Y13479847D01*
X46710849Y13527000D01*
X46469151Y13527000D01*
X46232097Y13479847D01*
X46008798Y13387353D01*
X45807833Y13253073D01*
X45636927Y13082167D01*
X45502647Y12881202D01*
X45410153Y12657903D01*
X45363000Y12420849D01*
X45277000Y12420849D01*
X45229847Y12657903D01*
X45137353Y12881202D01*
X45003073Y13082167D01*
X44832167Y13253073D01*
X44631202Y13387353D01*
X44407903Y13479847D01*
X44170849Y13527000D01*
X43929151Y13527000D01*
X43692097Y13479847D01*
X43468798Y13387353D01*
X43267833Y13253073D01*
X43096927Y13082167D01*
X42962647Y12881202D01*
X42870153Y12657903D01*
X42823000Y12420849D01*
X627000Y12420849D01*
X627000Y14960849D01*
X42823000Y14960849D01*
X42823000Y14719151D01*
X42870153Y14482097D01*
X42962647Y14258798D01*
X43096927Y14057833D01*
X43267833Y13886927D01*
X43468798Y13752647D01*
X43692097Y13660153D01*
X43929151Y13613000D01*
X44170849Y13613000D01*
X44407903Y13660153D01*
X44631202Y13752647D01*
X44832167Y13886927D01*
X45003073Y14057833D01*
X45137353Y14258798D01*
X45229847Y14482097D01*
X45277000Y14719151D01*
X45277000Y14960849D01*
X45363000Y14960849D01*
X45363000Y14719151D01*
X45410153Y14482097D01*
X45502647Y14258798D01*
X45636927Y14057833D01*
X45807833Y13886927D01*
X46008798Y13752647D01*
X46232097Y13660153D01*
X46469151Y13613000D01*
X46710849Y13613000D01*
X46947903Y13660153D01*
X47171202Y13752647D01*
X47372167Y13886927D01*
X47543073Y14057833D01*
X47677353Y14258798D01*
X47769847Y14482097D01*
X47817000Y14719151D01*
X47817000Y14960849D01*
X47769847Y15197903D01*
X47677353Y15421202D01*
X47543073Y15622167D01*
X47372167Y15793073D01*
X47171202Y15927353D01*
X46947903Y16019847D01*
X46710849Y16067000D01*
X46469151Y16067000D01*
X46232097Y16019847D01*
X46008798Y15927353D01*
X45807833Y15793073D01*
X45636927Y15622167D01*
X45502647Y15421202D01*
X45410153Y15197903D01*
X45363000Y14960849D01*
X45277000Y14960849D01*
X45229847Y15197903D01*
X45137353Y15421202D01*
X45003073Y15622167D01*
X44832167Y15793073D01*
X44631202Y15927353D01*
X44407903Y16019847D01*
X44170849Y16067000D01*
X43929151Y16067000D01*
X43692097Y16019847D01*
X43468798Y15927353D01*
X43267833Y15793073D01*
X43096927Y15622167D01*
X42962647Y15421202D01*
X42870153Y15197903D01*
X42823000Y14960849D01*
X627000Y14960849D01*
X627000Y17500849D01*
X42823000Y17500849D01*
X42823000Y17259151D01*
X42870153Y17022097D01*
X42962647Y16798798D01*
X43096927Y16597833D01*
X43267833Y16426927D01*
X43468798Y16292647D01*
X43692097Y16200153D01*
X43929151Y16153000D01*
X44170849Y16153000D01*
X44407903Y16200153D01*
X44631202Y16292647D01*
X44832167Y16426927D01*
X45003073Y16597833D01*
X45137353Y16798798D01*
X45229847Y17022097D01*
X45277000Y17259151D01*
X45277000Y17500849D01*
X45363000Y17500849D01*
X45363000Y17259151D01*
X45410153Y17022097D01*
X45502647Y16798798D01*
X45636927Y16597833D01*
X45807833Y16426927D01*
X46008798Y16292647D01*
X46232097Y16200153D01*
X46469151Y16153000D01*
X46710849Y16153000D01*
X46947903Y16200153D01*
X47171202Y16292647D01*
X47372167Y16426927D01*
X47543073Y16597833D01*
X47677353Y16798798D01*
X47769847Y17022097D01*
X47817000Y17259151D01*
X47817000Y17500849D01*
X47769847Y17737903D01*
X47677353Y17961202D01*
X47543073Y18162167D01*
X47372167Y18333073D01*
X47171202Y18467353D01*
X46947903Y18559847D01*
X46710849Y18607000D01*
X46469151Y18607000D01*
X46232097Y18559847D01*
X46008798Y18467353D01*
X45807833Y18333073D01*
X45636927Y18162167D01*
X45502647Y17961202D01*
X45410153Y17737903D01*
X45363000Y17500849D01*
X45277000Y17500849D01*
X45229847Y17737903D01*
X45137353Y17961202D01*
X45003073Y18162167D01*
X44832167Y18333073D01*
X44631202Y18467353D01*
X44407903Y18559847D01*
X44170849Y18607000D01*
X43929151Y18607000D01*
X43692097Y18559847D01*
X43468798Y18467353D01*
X43267833Y18333073D01*
X43096927Y18162167D01*
X42962647Y17961202D01*
X42870153Y17737903D01*
X42823000Y17500849D01*
X627000Y17500849D01*
X627000Y18671603D01*
X1573000Y18671603D01*
X1573000Y18528397D01*
X1600938Y18387942D01*
X1655741Y18255636D01*
X1735302Y18136564D01*
X1836564Y18035302D01*
X1955636Y17955741D01*
X2087942Y17900938D01*
X2228397Y17873000D01*
X2371603Y17873000D01*
X2512058Y17900938D01*
X2644364Y17955741D01*
X2763436Y18035302D01*
X2864698Y18136564D01*
X2944259Y18255636D01*
X2999062Y18387942D01*
X3027000Y18528397D01*
X3027000Y18671603D01*
X2999062Y18812058D01*
X2944259Y18944364D01*
X2864698Y19063436D01*
X2763436Y19164698D01*
X2644364Y19244259D01*
X2512058Y19299062D01*
X2371603Y19327000D01*
X2228397Y19327000D01*
X2087942Y19299062D01*
X1955636Y19244259D01*
X1836564Y19164698D01*
X1735302Y19063436D01*
X1655741Y18944364D01*
X1600938Y18812058D01*
X1573000Y18671603D01*
X627000Y18671603D01*
X627000Y20271603D01*
X7873000Y20271603D01*
X7873000Y20128397D01*
X7900938Y19987942D01*
X7955741Y19855636D01*
X8035302Y19736564D01*
X8136564Y19635302D01*
X8255636Y19555741D01*
X8387942Y19500938D01*
X8528397Y19473000D01*
X8671603Y19473000D01*
X8812058Y19500938D01*
X8944364Y19555741D01*
X9063436Y19635302D01*
X9164698Y19736564D01*
X9244259Y19855636D01*
X9299062Y19987942D01*
X9327000Y20128397D01*
X9327000Y20271603D01*
X9299062Y20412058D01*
X9244259Y20544364D01*
X9164698Y20663436D01*
X9063436Y20764698D01*
X8944364Y20844259D01*
X8812058Y20899062D01*
X8671603Y20927000D01*
X8528397Y20927000D01*
X8387942Y20899062D01*
X8255636Y20844259D01*
X8136564Y20764698D01*
X8035302Y20663436D01*
X7955741Y20544364D01*
X7900938Y20412058D01*
X7873000Y20271603D01*
X627000Y20271603D01*
X627000Y21571603D01*
X44673000Y21571603D01*
X44673000Y21428397D01*
X44700938Y21287942D01*
X44755741Y21155636D01*
X44835302Y21036564D01*
X44936564Y20935302D01*
X45055636Y20855741D01*
X45187942Y20800938D01*
X45328397Y20773000D01*
X45471603Y20773000D01*
X45612058Y20800938D01*
X45744364Y20855741D01*
X45863436Y20935302D01*
X45964698Y21036564D01*
X46044259Y21155636D01*
X46099062Y21287942D01*
X46127000Y21428397D01*
X46127000Y21571603D01*
X46099062Y21712058D01*
X46044259Y21844364D01*
X45964698Y21963436D01*
X45863436Y22064698D01*
X45744364Y22144259D01*
X45612058Y22199062D01*
X45471603Y22227000D01*
X45328397Y22227000D01*
X45187942Y22199062D01*
X45055636Y22144259D01*
X44936564Y22064698D01*
X44835302Y21963436D01*
X44755741Y21844364D01*
X44700938Y21712058D01*
X44673000Y21571603D01*
X627000Y21571603D01*
X627000Y22471603D01*
X1173000Y22471603D01*
X1173000Y22328397D01*
X1200938Y22187942D01*
X1255741Y22055636D01*
X1335302Y21936564D01*
X1436564Y21835302D01*
X1555636Y21755741D01*
X1687942Y21700938D01*
X1828397Y21673000D01*
X1971603Y21673000D01*
X2112058Y21700938D01*
X2244364Y21755741D01*
X2350000Y21826324D01*
X2455636Y21755741D01*
X2587942Y21700938D01*
X2728397Y21673000D01*
X2871603Y21673000D01*
X3012058Y21700938D01*
X3144364Y21755741D01*
X3263436Y21835302D01*
X3364698Y21936564D01*
X3444259Y22055636D01*
X3499062Y22187942D01*
X3527000Y22328397D01*
X3527000Y22471603D01*
X3499062Y22612058D01*
X3444259Y22744364D01*
X3364698Y22863436D01*
X3356531Y22871603D01*
X7873000Y22871603D01*
X7873000Y22728397D01*
X7900938Y22587942D01*
X7955741Y22455636D01*
X8035302Y22336564D01*
X8136564Y22235302D01*
X8255636Y22155741D01*
X8387942Y22100938D01*
X8528397Y22073000D01*
X8671603Y22073000D01*
X8812058Y22100938D01*
X8944364Y22155741D01*
X9063436Y22235302D01*
X9164698Y22336564D01*
X9244259Y22455636D01*
X9299062Y22587942D01*
X9327000Y22728397D01*
X9327000Y22871603D01*
X9299062Y23012058D01*
X9244259Y23144364D01*
X9164698Y23263436D01*
X9063436Y23364698D01*
X8944364Y23444259D01*
X8812058Y23499062D01*
X8671603Y23527000D01*
X8528397Y23527000D01*
X8387942Y23499062D01*
X8255636Y23444259D01*
X8136564Y23364698D01*
X8035302Y23263436D01*
X7955741Y23144364D01*
X7900938Y23012058D01*
X7873000Y22871603D01*
X3356531Y22871603D01*
X3263436Y22964698D01*
X3144364Y23044259D01*
X3012058Y23099062D01*
X2871603Y23127000D01*
X2728397Y23127000D01*
X2587942Y23099062D01*
X2455636Y23044259D01*
X2350000Y22973676D01*
X2244364Y23044259D01*
X2112058Y23099062D01*
X1971603Y23127000D01*
X1828397Y23127000D01*
X1687942Y23099062D01*
X1555636Y23044259D01*
X1436564Y22964698D01*
X1335302Y22863436D01*
X1255741Y22744364D01*
X1200938Y22612058D01*
X1173000Y22471603D01*
X627000Y22471603D01*
X627000Y24071603D01*
X773000Y24071603D01*
X773000Y23928397D01*
X800938Y23787942D01*
X855741Y23655636D01*
X935302Y23536564D01*
X1036564Y23435302D01*
X1155636Y23355741D01*
X1287942Y23300938D01*
X1428397Y23273000D01*
X1571603Y23273000D01*
X1712058Y23300938D01*
X1844364Y23355741D01*
X1963436Y23435302D01*
X2064698Y23536564D01*
X2144259Y23655636D01*
X2199062Y23787942D01*
X2227000Y23928397D01*
X2227000Y24071603D01*
X2199062Y24212058D01*
X2144259Y24344364D01*
X2064698Y24463436D01*
X1963436Y24564698D01*
X1844364Y24644259D01*
X1712058Y24699062D01*
X1571603Y24727000D01*
X1428397Y24727000D01*
X1287942Y24699062D01*
X1155636Y24644259D01*
X1036564Y24564698D01*
X935302Y24463436D01*
X855741Y24344364D01*
X800938Y24212058D01*
X773000Y24071603D01*
X627000Y24071603D01*
X627000Y25371603D01*
X7873000Y25371603D01*
X7873000Y25228397D01*
X7900938Y25087942D01*
X7955741Y24955636D01*
X8035302Y24836564D01*
X8136564Y24735302D01*
X8255636Y24655741D01*
X8387942Y24600938D01*
X8528397Y24573000D01*
X8671603Y24573000D01*
X8812058Y24600938D01*
X8944364Y24655741D01*
X9063436Y24735302D01*
X9164698Y24836564D01*
X9244259Y24955636D01*
X9299062Y25087942D01*
X9327000Y25228397D01*
X9327000Y25371603D01*
X9299062Y25512058D01*
X9244259Y25644364D01*
X9164698Y25763436D01*
X9063436Y25864698D01*
X8944364Y25944259D01*
X8812058Y25999062D01*
X8671603Y26027000D01*
X8528397Y26027000D01*
X8387942Y25999062D01*
X8255636Y25944259D01*
X8136564Y25864698D01*
X8035302Y25763436D01*
X7955741Y25644364D01*
X7900938Y25512058D01*
X7873000Y25371603D01*
X627000Y25371603D01*
X627000Y26543007D01*
X5722612Y26543007D01*
X5788137Y26304140D01*
X6035116Y26188240D01*
X6299960Y26122750D01*
X6572492Y26110188D01*
X6842238Y26151035D01*
X7098832Y26243723D01*
X7150991Y26271603D01*
X30173000Y26271603D01*
X30173000Y26128397D01*
X30200938Y25987942D01*
X30255741Y25855636D01*
X30335302Y25736564D01*
X30436564Y25635302D01*
X30555636Y25555741D01*
X30687942Y25500938D01*
X30828397Y25473000D01*
X30971603Y25473000D01*
X31112058Y25500938D01*
X31244364Y25555741D01*
X31363436Y25635302D01*
X31464698Y25736564D01*
X31544259Y25855636D01*
X31599062Y25987942D01*
X31627000Y26128397D01*
X31627000Y26271603D01*
X31599062Y26412058D01*
X31544259Y26544364D01*
X31464698Y26663436D01*
X31363436Y26764698D01*
X31244364Y26844259D01*
X31112058Y26899062D01*
X30971603Y26927000D01*
X30828397Y26927000D01*
X30687942Y26899062D01*
X30555636Y26844259D01*
X30436564Y26764698D01*
X30335302Y26663436D01*
X30255741Y26544364D01*
X30200938Y26412058D01*
X30173000Y26271603D01*
X7150991Y26271603D01*
X7211863Y26304140D01*
X7277388Y26543007D01*
X6500000Y27320395D01*
X5722612Y26543007D01*
X627000Y26543007D01*
X627000Y27427508D01*
X5110188Y27427508D01*
X5151035Y27157762D01*
X5243723Y26901168D01*
X5304140Y26788137D01*
X5543007Y26722612D01*
X6320395Y27500000D01*
X6679605Y27500000D01*
X7456993Y26722612D01*
X7695860Y26788137D01*
X7811760Y27035116D01*
X7877250Y27299960D01*
X7889812Y27572492D01*
X7848965Y27842238D01*
X7756277Y28098832D01*
X7695860Y28211863D01*
X7456993Y28277388D01*
X6679605Y27500000D01*
X6320395Y27500000D01*
X5543007Y28277388D01*
X5304140Y28211863D01*
X5188240Y27964884D01*
X5122750Y27700040D01*
X5110188Y27427508D01*
X627000Y27427508D01*
X627000Y28456993D01*
X5722612Y28456993D01*
X6500000Y27679605D01*
X7277388Y28456993D01*
X7211863Y28695860D01*
X6964884Y28811760D01*
X6700040Y28877250D01*
X6427508Y28889812D01*
X6157762Y28848965D01*
X5901168Y28756277D01*
X5788137Y28695860D01*
X5722612Y28456993D01*
X627000Y28456993D01*
X627000Y29871603D01*
X22373000Y29871603D01*
X22373000Y29728397D01*
X22400938Y29587942D01*
X22455741Y29455636D01*
X22535302Y29336564D01*
X22636564Y29235302D01*
X22755636Y29155741D01*
X22773000Y29148549D01*
X22773000Y29028397D01*
X22800938Y28887942D01*
X22855741Y28755636D01*
X22935302Y28636564D01*
X23036564Y28535302D01*
X23155636Y28455741D01*
X23287942Y28400938D01*
X23428397Y28373000D01*
X23571603Y28373000D01*
X23712058Y28400938D01*
X23844364Y28455741D01*
X23950000Y28526324D01*
X24055636Y28455741D01*
X24187942Y28400938D01*
X24328397Y28373000D01*
X24471603Y28373000D01*
X24612058Y28400938D01*
X24744364Y28455741D01*
X24850000Y28526324D01*
X24955636Y28455741D01*
X25087942Y28400938D01*
X25228397Y28373000D01*
X25371603Y28373000D01*
X25512058Y28400938D01*
X25644364Y28455741D01*
X25750000Y28526324D01*
X25855636Y28455741D01*
X25987942Y28400938D01*
X26128397Y28373000D01*
X26271603Y28373000D01*
X26412058Y28400938D01*
X26544364Y28455741D01*
X26650000Y28526324D01*
X26755636Y28455741D01*
X26887942Y28400938D01*
X27028397Y28373000D01*
X27171603Y28373000D01*
X27312058Y28400938D01*
X27444364Y28455741D01*
X27563436Y28535302D01*
X27664698Y28636564D01*
X27744259Y28755636D01*
X27799062Y28887942D01*
X27827000Y29028397D01*
X27827000Y29171603D01*
X27799062Y29312058D01*
X27744259Y29444364D01*
X27664698Y29563436D01*
X27563436Y29664698D01*
X27444364Y29744259D01*
X27312058Y29799062D01*
X27171603Y29827000D01*
X27028397Y29827000D01*
X26887942Y29799062D01*
X26755636Y29744259D01*
X26650000Y29673676D01*
X26544364Y29744259D01*
X26412058Y29799062D01*
X26271603Y29827000D01*
X26128397Y29827000D01*
X25987942Y29799062D01*
X25855636Y29744259D01*
X25750000Y29673676D01*
X25644364Y29744259D01*
X25512058Y29799062D01*
X25371603Y29827000D01*
X25228397Y29827000D01*
X25087942Y29799062D01*
X24955636Y29744259D01*
X24850000Y29673676D01*
X24744364Y29744259D01*
X24612058Y29799062D01*
X24471603Y29827000D01*
X24328397Y29827000D01*
X24187942Y29799062D01*
X24055636Y29744259D01*
X23950000Y29673676D01*
X23844364Y29744259D01*
X23827000Y29751451D01*
X23827000Y29871603D01*
X23799062Y30012058D01*
X23744259Y30144364D01*
X23664698Y30263436D01*
X23563436Y30364698D01*
X23444364Y30444259D01*
X23312058Y30499062D01*
X23171603Y30527000D01*
X23028397Y30527000D01*
X22887942Y30499062D01*
X22755636Y30444259D01*
X22636564Y30364698D01*
X22535302Y30263436D01*
X22455741Y30144364D01*
X22400938Y30012058D01*
X22373000Y29871603D01*
X627000Y29871603D01*
X627000Y32740849D01*
X2183000Y32740849D01*
X2183000Y32499151D01*
X2230153Y32262097D01*
X2322647Y32038798D01*
X2456927Y31837833D01*
X2627833Y31666927D01*
X2828798Y31532647D01*
X3052097Y31440153D01*
X3289151Y31393000D01*
X3530849Y31393000D01*
X3767903Y31440153D01*
X3991202Y31532647D01*
X4192167Y31666927D01*
X4363073Y31837833D01*
X4497353Y32038798D01*
X4589847Y32262097D01*
X4637000Y32499151D01*
X4637000Y32740849D01*
X4723000Y32740849D01*
X4723000Y32499151D01*
X4770153Y32262097D01*
X4862647Y32038798D01*
X4996927Y31837833D01*
X5167833Y31666927D01*
X5368798Y31532647D01*
X5592097Y31440153D01*
X5829151Y31393000D01*
X6070849Y31393000D01*
X6307903Y31440153D01*
X6531202Y31532647D01*
X6732167Y31666927D01*
X6903073Y31837833D01*
X7037353Y32038798D01*
X7129847Y32262097D01*
X7177000Y32499151D01*
X7177000Y32740849D01*
X7150992Y32871603D01*
X21422990Y32871603D01*
X21422990Y32728397D01*
X21450928Y32587942D01*
X21505731Y32455636D01*
X21585292Y32336564D01*
X21686554Y32235302D01*
X21805626Y32155741D01*
X21937932Y32100938D01*
X22078387Y32073000D01*
X22221593Y32073000D01*
X22362048Y32100938D01*
X22494354Y32155741D01*
X22613426Y32235302D01*
X22714688Y32336564D01*
X22794249Y32455636D01*
X22849052Y32587942D01*
X22876990Y32728397D01*
X22876990Y32871603D01*
X26973000Y32871603D01*
X26973000Y32728397D01*
X27000938Y32587942D01*
X27055741Y32455636D01*
X27135302Y32336564D01*
X27236564Y32235302D01*
X27355636Y32155741D01*
X27487942Y32100938D01*
X27628397Y32073000D01*
X27771603Y32073000D01*
X27912058Y32100938D01*
X28044364Y32155741D01*
X28163436Y32235302D01*
X28264698Y32336564D01*
X28344259Y32455636D01*
X28399062Y32587942D01*
X28427000Y32728397D01*
X28427000Y32740849D01*
X42823000Y32740849D01*
X42823000Y32499151D01*
X42870153Y32262097D01*
X42962647Y32038798D01*
X43096927Y31837833D01*
X43267833Y31666927D01*
X43468798Y31532647D01*
X43692097Y31440153D01*
X43929151Y31393000D01*
X44170849Y31393000D01*
X44407903Y31440153D01*
X44631202Y31532647D01*
X44832167Y31666927D01*
X45003073Y31837833D01*
X45137353Y32038798D01*
X45229847Y32262097D01*
X45277000Y32499151D01*
X45277000Y32740849D01*
X45229847Y32977903D01*
X45137353Y33201202D01*
X45003073Y33402167D01*
X44985240Y33420000D01*
X45360934Y33420000D01*
X45360934Y31820000D01*
X45369178Y31736293D01*
X45393595Y31655804D01*
X45433245Y31581624D01*
X45486605Y31516605D01*
X45551624Y31463245D01*
X45625804Y31423595D01*
X45706293Y31399178D01*
X45790000Y31390934D01*
X47390000Y31390934D01*
X47473707Y31399178D01*
X47554196Y31423595D01*
X47628376Y31463245D01*
X47693395Y31516605D01*
X47746755Y31581624D01*
X47786405Y31655804D01*
X47810822Y31736293D01*
X47819066Y31820000D01*
X47819066Y33420000D01*
X47810822Y33503707D01*
X47786405Y33584196D01*
X47746755Y33658376D01*
X47693395Y33723395D01*
X47628376Y33776755D01*
X47554196Y33816405D01*
X47473707Y33840822D01*
X47390000Y33849066D01*
X45790000Y33849066D01*
X45706293Y33840822D01*
X45625804Y33816405D01*
X45551624Y33776755D01*
X45486605Y33723395D01*
X45433245Y33658376D01*
X45393595Y33584196D01*
X45369178Y33503707D01*
X45360934Y33420000D01*
X44985240Y33420000D01*
X44832167Y33573073D01*
X44631202Y33707353D01*
X44407903Y33799847D01*
X44170849Y33847000D01*
X43929151Y33847000D01*
X43692097Y33799847D01*
X43468798Y33707353D01*
X43267833Y33573073D01*
X43096927Y33402167D01*
X42962647Y33201202D01*
X42870153Y32977903D01*
X42823000Y32740849D01*
X28427000Y32740849D01*
X28427000Y32871603D01*
X28399062Y33012058D01*
X28344259Y33144364D01*
X28264698Y33263436D01*
X28163436Y33364698D01*
X28044364Y33444259D01*
X27912058Y33499062D01*
X27771603Y33527000D01*
X27628397Y33527000D01*
X27487942Y33499062D01*
X27355636Y33444259D01*
X27236564Y33364698D01*
X27135302Y33263436D01*
X27055741Y33144364D01*
X27000938Y33012058D01*
X26973000Y32871603D01*
X22876990Y32871603D01*
X22849052Y33012058D01*
X22794249Y33144364D01*
X22714688Y33263436D01*
X22613426Y33364698D01*
X22494354Y33444259D01*
X22362048Y33499062D01*
X22221593Y33527000D01*
X22078387Y33527000D01*
X21937932Y33499062D01*
X21805626Y33444259D01*
X21686554Y33364698D01*
X21585292Y33263436D01*
X21505731Y33144364D01*
X21450928Y33012058D01*
X21422990Y32871603D01*
X7150992Y32871603D01*
X7129847Y32977903D01*
X7037353Y33201202D01*
X6903073Y33402167D01*
X6732167Y33573073D01*
X6531202Y33707353D01*
X6307903Y33799847D01*
X6070849Y33847000D01*
X5829151Y33847000D01*
X5592097Y33799847D01*
X5368798Y33707353D01*
X5167833Y33573073D01*
X4996927Y33402167D01*
X4862647Y33201202D01*
X4770153Y32977903D01*
X4723000Y32740849D01*
X4637000Y32740849D01*
X4589847Y32977903D01*
X4497353Y33201202D01*
X4363073Y33402167D01*
X4192167Y33573073D01*
X3991202Y33707353D01*
X3767903Y33799847D01*
X3530849Y33847000D01*
X3289151Y33847000D01*
X3052097Y33799847D01*
X2828798Y33707353D01*
X2627833Y33573073D01*
X2456927Y33402167D01*
X2322647Y33201202D01*
X2230153Y32977903D01*
X2183000Y32740849D01*
X627000Y32740849D01*
X627000Y35280849D01*
X2183000Y35280849D01*
X2183000Y35039151D01*
X2230153Y34802097D01*
X2322647Y34578798D01*
X2456927Y34377833D01*
X2627833Y34206927D01*
X2828798Y34072647D01*
X3052097Y33980153D01*
X3289151Y33933000D01*
X3530849Y33933000D01*
X3767903Y33980153D01*
X3991202Y34072647D01*
X4192167Y34206927D01*
X4363073Y34377833D01*
X4497353Y34578798D01*
X4589847Y34802097D01*
X4637000Y35039151D01*
X4637000Y35280849D01*
X4723000Y35280849D01*
X4723000Y35039151D01*
X4770153Y34802097D01*
X4862647Y34578798D01*
X4996927Y34377833D01*
X5167833Y34206927D01*
X5368798Y34072647D01*
X5592097Y33980153D01*
X5829151Y33933000D01*
X6070849Y33933000D01*
X6307903Y33980153D01*
X6531202Y34072647D01*
X6732167Y34206927D01*
X6903073Y34377833D01*
X7032545Y34571603D01*
X20773000Y34571603D01*
X20773000Y34428397D01*
X20800938Y34287942D01*
X20855741Y34155636D01*
X20935302Y34036564D01*
X21036564Y33935302D01*
X21155636Y33855741D01*
X21287942Y33800938D01*
X21428397Y33773000D01*
X21571603Y33773000D01*
X21712058Y33800938D01*
X21844364Y33855741D01*
X21963436Y33935302D01*
X22064698Y34036564D01*
X22144259Y34155636D01*
X22199062Y34287942D01*
X22227000Y34428397D01*
X22227000Y34571603D01*
X22199062Y34712058D01*
X22144259Y34844364D01*
X22064698Y34963436D01*
X21963436Y35064698D01*
X21844364Y35144259D01*
X21712058Y35199062D01*
X21571603Y35227000D01*
X21428397Y35227000D01*
X21287942Y35199062D01*
X21155636Y35144259D01*
X21036564Y35064698D01*
X20935302Y34963436D01*
X20855741Y34844364D01*
X20800938Y34712058D01*
X20773000Y34571603D01*
X7032545Y34571603D01*
X7037353Y34578798D01*
X7129847Y34802097D01*
X7177000Y35039151D01*
X7177000Y35280849D01*
X42823000Y35280849D01*
X42823000Y35039151D01*
X42870153Y34802097D01*
X42962647Y34578798D01*
X43096927Y34377833D01*
X43267833Y34206927D01*
X43468798Y34072647D01*
X43692097Y33980153D01*
X43929151Y33933000D01*
X44170849Y33933000D01*
X44407903Y33980153D01*
X44631202Y34072647D01*
X44832167Y34206927D01*
X45003073Y34377833D01*
X45137353Y34578798D01*
X45229847Y34802097D01*
X45277000Y35039151D01*
X45277000Y35280849D01*
X45363000Y35280849D01*
X45363000Y35039151D01*
X45410153Y34802097D01*
X45502647Y34578798D01*
X45636927Y34377833D01*
X45807833Y34206927D01*
X46008798Y34072647D01*
X46232097Y33980153D01*
X46469151Y33933000D01*
X46710849Y33933000D01*
X46947903Y33980153D01*
X47171202Y34072647D01*
X47372167Y34206927D01*
X47543073Y34377833D01*
X47677353Y34578798D01*
X47769847Y34802097D01*
X47817000Y35039151D01*
X47817000Y35280849D01*
X47769847Y35517903D01*
X47677353Y35741202D01*
X47543073Y35942167D01*
X47372167Y36113073D01*
X47171202Y36247353D01*
X46947903Y36339847D01*
X46710849Y36387000D01*
X46469151Y36387000D01*
X46232097Y36339847D01*
X46008798Y36247353D01*
X45807833Y36113073D01*
X45636927Y35942167D01*
X45502647Y35741202D01*
X45410153Y35517903D01*
X45363000Y35280849D01*
X45277000Y35280849D01*
X45229847Y35517903D01*
X45137353Y35741202D01*
X45003073Y35942167D01*
X44832167Y36113073D01*
X44631202Y36247353D01*
X44407903Y36339847D01*
X44170849Y36387000D01*
X43929151Y36387000D01*
X43692097Y36339847D01*
X43468798Y36247353D01*
X43267833Y36113073D01*
X43096927Y35942167D01*
X42962647Y35741202D01*
X42870153Y35517903D01*
X42823000Y35280849D01*
X7177000Y35280849D01*
X7129847Y35517903D01*
X7037353Y35741202D01*
X6903073Y35942167D01*
X6732167Y36113073D01*
X6531202Y36247353D01*
X6307903Y36339847D01*
X6070849Y36387000D01*
X5829151Y36387000D01*
X5592097Y36339847D01*
X5368798Y36247353D01*
X5167833Y36113073D01*
X4996927Y35942167D01*
X4862647Y35741202D01*
X4770153Y35517903D01*
X4723000Y35280849D01*
X4637000Y35280849D01*
X4589847Y35517903D01*
X4497353Y35741202D01*
X4363073Y35942167D01*
X4192167Y36113073D01*
X3991202Y36247353D01*
X3767903Y36339847D01*
X3530849Y36387000D01*
X3289151Y36387000D01*
X3052097Y36339847D01*
X2828798Y36247353D01*
X2627833Y36113073D01*
X2456927Y35942167D01*
X2322647Y35741202D01*
X2230153Y35517903D01*
X2183000Y35280849D01*
X627000Y35280849D01*
X627000Y37820849D01*
X2183000Y37820849D01*
X2183000Y37579151D01*
X2230153Y37342097D01*
X2322647Y37118798D01*
X2456927Y36917833D01*
X2627833Y36746927D01*
X2828798Y36612647D01*
X3052097Y36520153D01*
X3289151Y36473000D01*
X3530849Y36473000D01*
X3767903Y36520153D01*
X3991202Y36612647D01*
X4192167Y36746927D01*
X4363073Y36917833D01*
X4497353Y37118798D01*
X4589847Y37342097D01*
X4637000Y37579151D01*
X4637000Y37820849D01*
X4723000Y37820849D01*
X4723000Y37579151D01*
X4770153Y37342097D01*
X4862647Y37118798D01*
X4996927Y36917833D01*
X5167833Y36746927D01*
X5368798Y36612647D01*
X5592097Y36520153D01*
X5829151Y36473000D01*
X6070849Y36473000D01*
X6307903Y36520153D01*
X6531202Y36612647D01*
X6598087Y36657338D01*
X16720189Y36657338D01*
X16720189Y36514132D01*
X16748127Y36373677D01*
X16802930Y36241371D01*
X16882491Y36122299D01*
X16983753Y36021037D01*
X17102825Y35941476D01*
X17235131Y35886673D01*
X17375586Y35858735D01*
X17518792Y35858735D01*
X17659247Y35886673D01*
X17791553Y35941476D01*
X17910625Y36021037D01*
X17975957Y36086369D01*
X28875246Y36086369D01*
X28875246Y35943163D01*
X28903184Y35802708D01*
X28957987Y35670402D01*
X29037548Y35551330D01*
X29138810Y35450068D01*
X29257882Y35370507D01*
X29390188Y35315704D01*
X29530643Y35287766D01*
X29673849Y35287766D01*
X29814304Y35315704D01*
X29946610Y35370507D01*
X30065682Y35450068D01*
X30166944Y35551330D01*
X30246505Y35670402D01*
X30301308Y35802708D01*
X30329246Y35943163D01*
X30329246Y36086369D01*
X30301308Y36226824D01*
X30246505Y36359130D01*
X30166944Y36478202D01*
X30065682Y36579464D01*
X29946610Y36659025D01*
X29814304Y36713828D01*
X29673849Y36741766D01*
X29530643Y36741766D01*
X29390188Y36713828D01*
X29257882Y36659025D01*
X29138810Y36579464D01*
X29037548Y36478202D01*
X28957987Y36359130D01*
X28903184Y36226824D01*
X28875246Y36086369D01*
X17975957Y36086369D01*
X18011887Y36122299D01*
X18091448Y36241371D01*
X18146251Y36373677D01*
X18174189Y36514132D01*
X18174189Y36657338D01*
X18146251Y36797793D01*
X18123215Y36853406D01*
X18175261Y36905452D01*
X18254822Y37024524D01*
X18309625Y37156830D01*
X18337563Y37297285D01*
X18337563Y37440491D01*
X18320594Y37525801D01*
X18359241Y37551624D01*
X18460503Y37652886D01*
X18540064Y37771958D01*
X18594867Y37904264D01*
X18622805Y38044719D01*
X18622805Y38187925D01*
X18594867Y38328380D01*
X18540064Y38460686D01*
X18505081Y38513042D01*
X18544209Y38571603D01*
X28073000Y38571603D01*
X28073000Y38428397D01*
X28100938Y38287942D01*
X28155741Y38155636D01*
X28235302Y38036564D01*
X28336564Y37935302D01*
X28455636Y37855741D01*
X28587942Y37800938D01*
X28728397Y37773000D01*
X28871603Y37773000D01*
X28922988Y37783221D01*
X28922988Y37678375D01*
X28950926Y37537920D01*
X29005729Y37405614D01*
X29085290Y37286542D01*
X29186552Y37185280D01*
X29305624Y37105719D01*
X29437930Y37050916D01*
X29578385Y37022978D01*
X29721591Y37022978D01*
X29862046Y37050916D01*
X29994352Y37105719D01*
X30113424Y37185280D01*
X30214686Y37286542D01*
X30294247Y37405614D01*
X30349050Y37537920D01*
X30376988Y37678375D01*
X30376988Y37820849D01*
X42823000Y37820849D01*
X42823000Y37579151D01*
X42870153Y37342097D01*
X42962647Y37118798D01*
X43096927Y36917833D01*
X43267833Y36746927D01*
X43468798Y36612647D01*
X43692097Y36520153D01*
X43929151Y36473000D01*
X44170849Y36473000D01*
X44407903Y36520153D01*
X44631202Y36612647D01*
X44832167Y36746927D01*
X45003073Y36917833D01*
X45137353Y37118798D01*
X45229847Y37342097D01*
X45277000Y37579151D01*
X45277000Y37820849D01*
X45363000Y37820849D01*
X45363000Y37579151D01*
X45410153Y37342097D01*
X45502647Y37118798D01*
X45636927Y36917833D01*
X45807833Y36746927D01*
X46008798Y36612647D01*
X46232097Y36520153D01*
X46469151Y36473000D01*
X46710849Y36473000D01*
X46947903Y36520153D01*
X47171202Y36612647D01*
X47372167Y36746927D01*
X47543073Y36917833D01*
X47677353Y37118798D01*
X47769847Y37342097D01*
X47817000Y37579151D01*
X47817000Y37820849D01*
X47769847Y38057903D01*
X47677353Y38281202D01*
X47543073Y38482167D01*
X47372167Y38653073D01*
X47171202Y38787353D01*
X46947903Y38879847D01*
X46710849Y38927000D01*
X46469151Y38927000D01*
X46232097Y38879847D01*
X46008798Y38787353D01*
X45807833Y38653073D01*
X45636927Y38482167D01*
X45502647Y38281202D01*
X45410153Y38057903D01*
X45363000Y37820849D01*
X45277000Y37820849D01*
X45229847Y38057903D01*
X45137353Y38281202D01*
X45003073Y38482167D01*
X44832167Y38653073D01*
X44631202Y38787353D01*
X44407903Y38879847D01*
X44170849Y38927000D01*
X43929151Y38927000D01*
X43692097Y38879847D01*
X43468798Y38787353D01*
X43267833Y38653073D01*
X43096927Y38482167D01*
X42962647Y38281202D01*
X42870153Y38057903D01*
X42823000Y37820849D01*
X30376988Y37820849D01*
X30376988Y37821581D01*
X30349050Y37962036D01*
X30294247Y38094342D01*
X30214686Y38213414D01*
X30113424Y38314676D01*
X29994352Y38394237D01*
X29862046Y38449040D01*
X29721591Y38476978D01*
X29578385Y38476978D01*
X29527000Y38466757D01*
X29527000Y38571603D01*
X29499062Y38712058D01*
X29444259Y38844364D01*
X29364698Y38963436D01*
X29263436Y39064698D01*
X29144364Y39144259D01*
X29012058Y39199062D01*
X28871603Y39227000D01*
X28728397Y39227000D01*
X28587942Y39199062D01*
X28455636Y39144259D01*
X28336564Y39064698D01*
X28235302Y38963436D01*
X28155741Y38844364D01*
X28100938Y38712058D01*
X28073000Y38571603D01*
X18544209Y38571603D01*
X18544447Y38571958D01*
X18599250Y38704264D01*
X18627188Y38844719D01*
X18627188Y38987925D01*
X18599250Y39128380D01*
X18544447Y39260686D01*
X18464886Y39379758D01*
X18363624Y39481020D01*
X18244552Y39560581D01*
X18112246Y39615384D01*
X17971791Y39643322D01*
X17828585Y39643322D01*
X17688130Y39615384D01*
X17555824Y39560581D01*
X17436752Y39481020D01*
X17335490Y39379758D01*
X17255929Y39260686D01*
X17201126Y39128380D01*
X17173188Y38987925D01*
X17173188Y38844719D01*
X17201126Y38704264D01*
X17255929Y38571958D01*
X17290912Y38519602D01*
X17251546Y38460686D01*
X17196743Y38328380D01*
X17168805Y38187925D01*
X17168805Y38044719D01*
X17185774Y37959409D01*
X17147127Y37933586D01*
X17045865Y37832324D01*
X16966304Y37713252D01*
X16911501Y37580946D01*
X16883563Y37440491D01*
X16883563Y37297285D01*
X16911501Y37156830D01*
X16934537Y37101217D01*
X16882491Y37049171D01*
X16802930Y36930099D01*
X16748127Y36797793D01*
X16720189Y36657338D01*
X6598087Y36657338D01*
X6732167Y36746927D01*
X6903073Y36917833D01*
X7037353Y37118798D01*
X7129847Y37342097D01*
X7177000Y37579151D01*
X7177000Y37820849D01*
X7129847Y38057903D01*
X7037353Y38281202D01*
X6903073Y38482167D01*
X6732167Y38653073D01*
X6531202Y38787353D01*
X6307903Y38879847D01*
X6070849Y38927000D01*
X5829151Y38927000D01*
X5592097Y38879847D01*
X5368798Y38787353D01*
X5167833Y38653073D01*
X4996927Y38482167D01*
X4862647Y38281202D01*
X4770153Y38057903D01*
X4723000Y37820849D01*
X4637000Y37820849D01*
X4589847Y38057903D01*
X4497353Y38281202D01*
X4363073Y38482167D01*
X4192167Y38653073D01*
X3991202Y38787353D01*
X3767903Y38879847D01*
X3530849Y38927000D01*
X3289151Y38927000D01*
X3052097Y38879847D01*
X2828798Y38787353D01*
X2627833Y38653073D01*
X2456927Y38482167D01*
X2322647Y38281202D01*
X2230153Y38057903D01*
X2183000Y37820849D01*
X627000Y37820849D01*
X627000Y44811307D01*
X915750Y44379161D01*
X1378000Y43916911D01*
X1378000Y41510000D01*
X1380440Y41485224D01*
X1387667Y41461399D01*
X1399403Y41439443D01*
X1415197Y41420197D01*
X1434443Y41404403D01*
X1456399Y41392667D01*
X1480224Y41385440D01*
X1505000Y41383000D01*
X2346810Y41383000D01*
X2346810Y41376391D01*
X2306605Y41343395D01*
X2253245Y41278376D01*
X2213595Y41204196D01*
X2189178Y41123707D01*
X2180934Y41040000D01*
X2180934Y39440000D01*
X2189178Y39356293D01*
X2213595Y39275804D01*
X2253245Y39201624D01*
X2306605Y39136605D01*
X2371624Y39083245D01*
X2445804Y39043595D01*
X2526293Y39019178D01*
X2610000Y39010934D01*
X4210000Y39010934D01*
X4293707Y39019178D01*
X4374196Y39043595D01*
X4448376Y39083245D01*
X4513395Y39136605D01*
X4566755Y39201624D01*
X4606405Y39275804D01*
X4630822Y39356293D01*
X4639066Y39440000D01*
X4639066Y41040000D01*
X4630822Y41123707D01*
X4606405Y41204196D01*
X4566755Y41278376D01*
X4513395Y41343395D01*
X4465136Y41383000D01*
X5503141Y41383000D01*
X5368798Y41327353D01*
X5167833Y41193073D01*
X4996927Y41022167D01*
X4862647Y40821202D01*
X4770153Y40597903D01*
X4723000Y40360849D01*
X4723000Y40119151D01*
X4770153Y39882097D01*
X4862647Y39658798D01*
X4996927Y39457833D01*
X5167833Y39286927D01*
X5368798Y39152647D01*
X5592097Y39060153D01*
X5829151Y39013000D01*
X6070849Y39013000D01*
X6307903Y39060153D01*
X6531202Y39152647D01*
X6732167Y39286927D01*
X6903073Y39457833D01*
X7037353Y39658798D01*
X7129847Y39882097D01*
X7177000Y40119151D01*
X7177000Y40360849D01*
X7129847Y40597903D01*
X7099320Y40671603D01*
X17273000Y40671603D01*
X17273000Y40528397D01*
X17300938Y40387942D01*
X17355741Y40255636D01*
X17435302Y40136564D01*
X17536564Y40035302D01*
X17655636Y39955741D01*
X17787942Y39900938D01*
X17928397Y39873000D01*
X18071603Y39873000D01*
X18212058Y39900938D01*
X18344364Y39955741D01*
X18463436Y40035302D01*
X18564698Y40136564D01*
X18644259Y40255636D01*
X18699062Y40387942D01*
X18727000Y40528397D01*
X18727000Y40671603D01*
X18707109Y40771603D01*
X22673000Y40771603D01*
X22673000Y40628397D01*
X22700938Y40487942D01*
X22755741Y40355636D01*
X22835302Y40236564D01*
X22936564Y40135302D01*
X23055636Y40055741D01*
X23187942Y40000938D01*
X23328397Y39973000D01*
X23471603Y39973000D01*
X23612058Y40000938D01*
X23744364Y40055741D01*
X23863436Y40135302D01*
X23964698Y40236564D01*
X24015103Y40312002D01*
X28906268Y40312002D01*
X28906268Y40168796D01*
X28934206Y40028341D01*
X28989009Y39896035D01*
X29068570Y39776963D01*
X29169832Y39675701D01*
X29288904Y39596140D01*
X29421210Y39541337D01*
X29561665Y39513399D01*
X29704871Y39513399D01*
X29845326Y39541337D01*
X29977632Y39596140D01*
X30096704Y39675701D01*
X30197966Y39776963D01*
X30277527Y39896035D01*
X30332330Y40028341D01*
X30360268Y40168796D01*
X30360268Y40312002D01*
X30350552Y40360849D01*
X42823000Y40360849D01*
X42823000Y40119151D01*
X42870153Y39882097D01*
X42962647Y39658798D01*
X43096927Y39457833D01*
X43267833Y39286927D01*
X43468798Y39152647D01*
X43692097Y39060153D01*
X43929151Y39013000D01*
X44170849Y39013000D01*
X44407903Y39060153D01*
X44631202Y39152647D01*
X44832167Y39286927D01*
X45003073Y39457833D01*
X45137353Y39658798D01*
X45229847Y39882097D01*
X45277000Y40119151D01*
X45277000Y40360849D01*
X45363000Y40360849D01*
X45363000Y40119151D01*
X45410153Y39882097D01*
X45502647Y39658798D01*
X45636927Y39457833D01*
X45807833Y39286927D01*
X46008798Y39152647D01*
X46232097Y39060153D01*
X46469151Y39013000D01*
X46710849Y39013000D01*
X46947903Y39060153D01*
X47171202Y39152647D01*
X47372167Y39286927D01*
X47543073Y39457833D01*
X47677353Y39658798D01*
X47769847Y39882097D01*
X47817000Y40119151D01*
X47817000Y40360849D01*
X47769847Y40597903D01*
X47677353Y40821202D01*
X47543073Y41022167D01*
X47372167Y41193073D01*
X47171202Y41327353D01*
X46947903Y41419847D01*
X46710849Y41467000D01*
X46469151Y41467000D01*
X46232097Y41419847D01*
X46008798Y41327353D01*
X45807833Y41193073D01*
X45636927Y41022167D01*
X45502647Y40821202D01*
X45410153Y40597903D01*
X45363000Y40360849D01*
X45277000Y40360849D01*
X45229847Y40597903D01*
X45137353Y40821202D01*
X45003073Y41022167D01*
X44832167Y41193073D01*
X44631202Y41327353D01*
X44407903Y41419847D01*
X44170849Y41467000D01*
X43929151Y41467000D01*
X43692097Y41419847D01*
X43468798Y41327353D01*
X43267833Y41193073D01*
X43096927Y41022167D01*
X42962647Y40821202D01*
X42870153Y40597903D01*
X42823000Y40360849D01*
X30350552Y40360849D01*
X30332330Y40452457D01*
X30277527Y40584763D01*
X30197966Y40703835D01*
X30096704Y40805097D01*
X29977632Y40884658D01*
X29845326Y40939461D01*
X29704871Y40967399D01*
X29561665Y40967399D01*
X29421210Y40939461D01*
X29288904Y40884658D01*
X29169832Y40805097D01*
X29068570Y40703835D01*
X28989009Y40584763D01*
X28934206Y40452457D01*
X28906268Y40312002D01*
X24015103Y40312002D01*
X24044259Y40355636D01*
X24099062Y40487942D01*
X24127000Y40628397D01*
X24127000Y40771603D01*
X24099062Y40912058D01*
X24044259Y41044364D01*
X23964698Y41163436D01*
X23863436Y41264698D01*
X23744364Y41344259D01*
X23612058Y41399062D01*
X23471603Y41427000D01*
X23328397Y41427000D01*
X23187942Y41399062D01*
X23055636Y41344259D01*
X22936564Y41264698D01*
X22835302Y41163436D01*
X22755741Y41044364D01*
X22700938Y40912058D01*
X22673000Y40771603D01*
X18707109Y40771603D01*
X18699062Y40812058D01*
X18644259Y40944364D01*
X18564698Y41063436D01*
X18463436Y41164698D01*
X18344364Y41244259D01*
X18212058Y41299062D01*
X18071603Y41327000D01*
X17928397Y41327000D01*
X17787942Y41299062D01*
X17655636Y41244259D01*
X17536564Y41164698D01*
X17435302Y41063436D01*
X17355741Y40944364D01*
X17300938Y40812058D01*
X17273000Y40671603D01*
X7099320Y40671603D01*
X7037353Y40821202D01*
X6903073Y41022167D01*
X6732167Y41193073D01*
X6531202Y41327353D01*
X6307903Y41419847D01*
X6070849Y41467000D01*
X6069032Y41467000D01*
X6074560Y41485224D01*
X6077000Y41510000D01*
X6077000Y44050000D01*
X6074560Y44074776D01*
X6067333Y44098601D01*
X6055597Y44120557D01*
X6039803Y44139803D01*
X6020557Y44155597D01*
X5998601Y44167333D01*
X5974776Y44174560D01*
X5950000Y44177000D01*
X5882089Y44177000D01*
X6032387Y44327298D01*
X7676903Y44327298D01*
X7748486Y44083329D01*
X8003996Y43962429D01*
X8278184Y43893700D01*
X8560512Y43879783D01*
X8840130Y43921213D01*
X9106292Y44016397D01*
X9231514Y44083329D01*
X9303097Y44327298D01*
X8490000Y45140395D01*
X7676903Y44327298D01*
X6032387Y44327298D01*
X6084250Y44379161D01*
X6448349Y44924075D01*
X6583139Y45249488D01*
X7049783Y45249488D01*
X7091213Y44969870D01*
X7186397Y44703708D01*
X7253329Y44578486D01*
X7497298Y44506903D01*
X8310395Y45320000D01*
X8669605Y45320000D01*
X9482702Y44506903D01*
X9726671Y44578486D01*
X9847571Y44833996D01*
X9868549Y44917686D01*
X9942647Y44738798D01*
X10076927Y44537833D01*
X10247833Y44366927D01*
X10448798Y44232647D01*
X10672097Y44140153D01*
X10909151Y44093000D01*
X11150849Y44093000D01*
X11387903Y44140153D01*
X11611202Y44232647D01*
X11812167Y44366927D01*
X11983073Y44537833D01*
X12117353Y44738798D01*
X12209847Y44962097D01*
X12257000Y45199151D01*
X12257000Y45440849D01*
X12343000Y45440849D01*
X12343000Y45199151D01*
X12390153Y44962097D01*
X12482647Y44738798D01*
X12616927Y44537833D01*
X12787833Y44366927D01*
X12988798Y44232647D01*
X13212097Y44140153D01*
X13449151Y44093000D01*
X13690849Y44093000D01*
X13927903Y44140153D01*
X14151202Y44232647D01*
X14352167Y44366927D01*
X14523073Y44537833D01*
X14657353Y44738798D01*
X14749847Y44962097D01*
X14797000Y45199151D01*
X14797000Y45440849D01*
X14883000Y45440849D01*
X14883000Y45199151D01*
X14930153Y44962097D01*
X15022647Y44738798D01*
X15156927Y44537833D01*
X15327833Y44366927D01*
X15528798Y44232647D01*
X15752097Y44140153D01*
X15989151Y44093000D01*
X16230849Y44093000D01*
X16467903Y44140153D01*
X16691202Y44232647D01*
X16892167Y44366927D01*
X17063073Y44537833D01*
X17197353Y44738798D01*
X17289847Y44962097D01*
X17337000Y45199151D01*
X17337000Y45440849D01*
X17289847Y45677903D01*
X17197353Y45901202D01*
X17063073Y46102167D01*
X17045240Y46120000D01*
X17420934Y46120000D01*
X17420934Y44520000D01*
X17429178Y44436293D01*
X17453595Y44355804D01*
X17493245Y44281624D01*
X17546605Y44216605D01*
X17611624Y44163245D01*
X17685804Y44123595D01*
X17766293Y44099178D01*
X17850000Y44090934D01*
X19450000Y44090934D01*
X19533707Y44099178D01*
X19614196Y44123595D01*
X19686192Y44162077D01*
X19700938Y44087942D01*
X19755741Y43955636D01*
X19835302Y43836564D01*
X19936564Y43735302D01*
X20055636Y43655741D01*
X20187942Y43600938D01*
X20258582Y43586887D01*
X20155636Y43544245D01*
X20036564Y43464684D01*
X19935302Y43363422D01*
X19855741Y43244350D01*
X19800938Y43112044D01*
X19773000Y42971589D01*
X19773000Y42828383D01*
X19800938Y42687928D01*
X19855741Y42555622D01*
X19935302Y42436550D01*
X20036564Y42335288D01*
X20155636Y42255727D01*
X20287942Y42200924D01*
X20428397Y42172986D01*
X20571603Y42172986D01*
X20712058Y42200924D01*
X20844364Y42255727D01*
X20963436Y42335288D01*
X21064698Y42436550D01*
X21144259Y42555622D01*
X21199062Y42687928D01*
X21227000Y42828383D01*
X21227000Y42971589D01*
X21226999Y42971595D01*
X28773000Y42971595D01*
X28773000Y42828389D01*
X28800938Y42687934D01*
X28855741Y42555628D01*
X28935302Y42436556D01*
X29036564Y42335294D01*
X29155636Y42255733D01*
X29287942Y42200930D01*
X29428397Y42172992D01*
X29571603Y42172992D01*
X29712058Y42200930D01*
X29844364Y42255733D01*
X29963436Y42335294D01*
X30064698Y42436556D01*
X30144259Y42555628D01*
X30199062Y42687934D01*
X30227000Y42828389D01*
X30227000Y42971595D01*
X30199062Y43112050D01*
X30144259Y43244356D01*
X30064698Y43363428D01*
X29963436Y43464690D01*
X29844364Y43544251D01*
X29712058Y43599054D01*
X29571603Y43626992D01*
X29428397Y43626992D01*
X29287942Y43599054D01*
X29155636Y43544251D01*
X29036564Y43464690D01*
X28935302Y43363428D01*
X28855741Y43244356D01*
X28800938Y43112050D01*
X28773000Y42971595D01*
X21226999Y42971595D01*
X21199062Y43112044D01*
X21144259Y43244350D01*
X21064698Y43363422D01*
X20963436Y43464684D01*
X20844364Y43544245D01*
X20712058Y43599048D01*
X20641418Y43613099D01*
X20744364Y43655741D01*
X20863436Y43735302D01*
X20964698Y43836564D01*
X21044259Y43955636D01*
X21099062Y44087942D01*
X21127000Y44228397D01*
X21127000Y44371603D01*
X21110256Y44455783D01*
X21133932Y44471603D01*
X22000838Y44471603D01*
X22000838Y44328397D01*
X22028776Y44187942D01*
X22083579Y44055636D01*
X22163140Y43936564D01*
X22264402Y43835302D01*
X22383474Y43755741D01*
X22515780Y43700938D01*
X22656235Y43673000D01*
X22799441Y43673000D01*
X22939896Y43700938D01*
X23072202Y43755741D01*
X23191274Y43835302D01*
X23292536Y43936564D01*
X23372097Y44055636D01*
X23426900Y44187942D01*
X23454838Y44328397D01*
X23454838Y44471603D01*
X23426900Y44612058D01*
X23372097Y44744364D01*
X23292536Y44863436D01*
X23191274Y44964698D01*
X23180940Y44971603D01*
X25373000Y44971603D01*
X25373000Y44828397D01*
X25400938Y44687942D01*
X25455741Y44555636D01*
X25535302Y44436564D01*
X25636564Y44335302D01*
X25755636Y44255741D01*
X25887942Y44200938D01*
X26028397Y44173000D01*
X26171603Y44173000D01*
X26312058Y44200938D01*
X26444364Y44255741D01*
X26563436Y44335302D01*
X26664698Y44436564D01*
X26744259Y44555636D01*
X26799062Y44687942D01*
X26804938Y44717487D01*
X27370340Y44717487D01*
X27370340Y44574281D01*
X27398278Y44433826D01*
X27453081Y44301520D01*
X27532642Y44182448D01*
X27633904Y44081186D01*
X27752976Y44001625D01*
X27885282Y43946822D01*
X28025737Y43918884D01*
X28168943Y43918884D01*
X28309398Y43946822D01*
X28441704Y44001625D01*
X28560776Y44081186D01*
X28662038Y44182448D01*
X28741599Y44301520D01*
X28752276Y44327298D01*
X30536903Y44327298D01*
X30608486Y44083329D01*
X30863996Y43962429D01*
X31138184Y43893700D01*
X31420512Y43879783D01*
X31691853Y43919987D01*
X31635302Y43863436D01*
X31555741Y43744364D01*
X31500938Y43612058D01*
X31473000Y43471603D01*
X31473000Y43328397D01*
X31500938Y43187942D01*
X31555741Y43055636D01*
X31635302Y42936564D01*
X31662765Y42909101D01*
X31635291Y42881628D01*
X31555730Y42762556D01*
X31500927Y42630250D01*
X31472989Y42489795D01*
X31472989Y42346589D01*
X31500927Y42206134D01*
X31555730Y42073828D01*
X31635291Y41954756D01*
X31736553Y41853494D01*
X31855625Y41773933D01*
X31987931Y41719130D01*
X32128386Y41691192D01*
X32271592Y41691192D01*
X32412047Y41719130D01*
X32544353Y41773933D01*
X32663425Y41853494D01*
X32764687Y41954756D01*
X32844248Y42073828D01*
X32899051Y42206134D01*
X32926989Y42346589D01*
X32926989Y42489795D01*
X32899051Y42630250D01*
X32844248Y42762556D01*
X32764687Y42881628D01*
X32737225Y42909090D01*
X32764698Y42936564D01*
X32844259Y43055636D01*
X32899062Y43187942D01*
X32927000Y43328397D01*
X32927000Y43471603D01*
X32899062Y43612058D01*
X32844259Y43744364D01*
X32764698Y43863436D01*
X32663436Y43964698D01*
X32544364Y44044259D01*
X32412058Y44099062D01*
X32271603Y44127000D01*
X32128397Y44127000D01*
X32102836Y44121916D01*
X32163097Y44327298D01*
X31350000Y45140395D01*
X30536903Y44327298D01*
X28752276Y44327298D01*
X28796402Y44433826D01*
X28824340Y44574281D01*
X28824340Y44717487D01*
X28796402Y44857942D01*
X28741599Y44990248D01*
X28662038Y45109320D01*
X28560776Y45210582D01*
X28502549Y45249488D01*
X29909783Y45249488D01*
X29951213Y44969870D01*
X30046397Y44703708D01*
X30113329Y44578486D01*
X30357298Y44506903D01*
X31170395Y45320000D01*
X31529605Y45320000D01*
X32342702Y44506903D01*
X32586671Y44578486D01*
X32707571Y44833996D01*
X32728549Y44917686D01*
X32802647Y44738798D01*
X32936927Y44537833D01*
X33107833Y44366927D01*
X33308798Y44232647D01*
X33532097Y44140153D01*
X33769151Y44093000D01*
X34010849Y44093000D01*
X34247903Y44140153D01*
X34471202Y44232647D01*
X34672167Y44366927D01*
X34843073Y44537833D01*
X34977353Y44738798D01*
X35069847Y44962097D01*
X35117000Y45199151D01*
X35117000Y45440849D01*
X35203000Y45440849D01*
X35203000Y45199151D01*
X35250153Y44962097D01*
X35342647Y44738798D01*
X35476927Y44537833D01*
X35647833Y44366927D01*
X35848798Y44232647D01*
X36072097Y44140153D01*
X36309151Y44093000D01*
X36550849Y44093000D01*
X36787903Y44140153D01*
X37011202Y44232647D01*
X37212167Y44366927D01*
X37383073Y44537833D01*
X37517353Y44738798D01*
X37609847Y44962097D01*
X37657000Y45199151D01*
X37657000Y45440849D01*
X37743000Y45440849D01*
X37743000Y45199151D01*
X37790153Y44962097D01*
X37882647Y44738798D01*
X38016927Y44537833D01*
X38187833Y44366927D01*
X38388798Y44232647D01*
X38612097Y44140153D01*
X38849151Y44093000D01*
X39090849Y44093000D01*
X39327903Y44140153D01*
X39551202Y44232647D01*
X39752167Y44366927D01*
X39923073Y44537833D01*
X40057353Y44738798D01*
X40149847Y44962097D01*
X40197000Y45199151D01*
X40197000Y45440849D01*
X40149847Y45677903D01*
X40057353Y45901202D01*
X39923073Y46102167D01*
X39905240Y46120000D01*
X40280934Y46120000D01*
X40280934Y44520000D01*
X40289178Y44436293D01*
X40313595Y44355804D01*
X40353245Y44281624D01*
X40406605Y44216605D01*
X40471624Y44163245D01*
X40545804Y44123595D01*
X40626293Y44099178D01*
X40710000Y44090934D01*
X42310000Y44090934D01*
X42393707Y44099178D01*
X42474196Y44123595D01*
X42548376Y44163245D01*
X42613395Y44216605D01*
X42666755Y44281624D01*
X42706405Y44355804D01*
X42730822Y44436293D01*
X42739066Y44520000D01*
X42739066Y46120000D01*
X42730822Y46203707D01*
X42706405Y46284196D01*
X42666755Y46358376D01*
X42613395Y46423395D01*
X42548376Y46476755D01*
X42474196Y46516405D01*
X42393707Y46540822D01*
X42310000Y46549066D01*
X40710000Y46549066D01*
X40626293Y46540822D01*
X40545804Y46516405D01*
X40471624Y46476755D01*
X40406605Y46423395D01*
X40353245Y46358376D01*
X40313595Y46284196D01*
X40289178Y46203707D01*
X40280934Y46120000D01*
X39905240Y46120000D01*
X39752167Y46273073D01*
X39551202Y46407353D01*
X39327903Y46499847D01*
X39090849Y46547000D01*
X38849151Y46547000D01*
X38612097Y46499847D01*
X38388798Y46407353D01*
X38187833Y46273073D01*
X38016927Y46102167D01*
X37882647Y45901202D01*
X37790153Y45677903D01*
X37743000Y45440849D01*
X37657000Y45440849D01*
X37609847Y45677903D01*
X37517353Y45901202D01*
X37383073Y46102167D01*
X37212167Y46273073D01*
X37011202Y46407353D01*
X36787903Y46499847D01*
X36550849Y46547000D01*
X36309151Y46547000D01*
X36072097Y46499847D01*
X35848798Y46407353D01*
X35647833Y46273073D01*
X35476927Y46102167D01*
X35342647Y45901202D01*
X35250153Y45677903D01*
X35203000Y45440849D01*
X35117000Y45440849D01*
X35069847Y45677903D01*
X34977353Y45901202D01*
X34843073Y46102167D01*
X34672167Y46273073D01*
X34471202Y46407353D01*
X34247903Y46499847D01*
X34010849Y46547000D01*
X33769151Y46547000D01*
X33532097Y46499847D01*
X33308798Y46407353D01*
X33107833Y46273073D01*
X32936927Y46102167D01*
X32802647Y45901202D01*
X32729395Y45724356D01*
X32653603Y45936292D01*
X32586671Y46061514D01*
X32342702Y46133097D01*
X31529605Y45320000D01*
X31170395Y45320000D01*
X30357298Y46133097D01*
X30113329Y46061514D01*
X29992429Y45806004D01*
X29923700Y45531816D01*
X29909783Y45249488D01*
X28502549Y45249488D01*
X28441704Y45290143D01*
X28309398Y45344946D01*
X28168943Y45372884D01*
X28025737Y45372884D01*
X27885282Y45344946D01*
X27752976Y45290143D01*
X27633904Y45210582D01*
X27532642Y45109320D01*
X27453081Y44990248D01*
X27398278Y44857942D01*
X27370340Y44717487D01*
X26804938Y44717487D01*
X26827000Y44828397D01*
X26827000Y44971603D01*
X26799062Y45112058D01*
X26744259Y45244364D01*
X26664698Y45363436D01*
X26563436Y45464698D01*
X26444364Y45544259D01*
X26312058Y45599062D01*
X26171603Y45627000D01*
X26028397Y45627000D01*
X25887942Y45599062D01*
X25755636Y45544259D01*
X25636564Y45464698D01*
X25535302Y45363436D01*
X25455741Y45244364D01*
X25400938Y45112058D01*
X25373000Y44971603D01*
X23180940Y44971603D01*
X23072202Y45044259D01*
X22939896Y45099062D01*
X22799441Y45127000D01*
X22656235Y45127000D01*
X22515780Y45099062D01*
X22383474Y45044259D01*
X22264402Y44964698D01*
X22163140Y44863436D01*
X22083579Y44744364D01*
X22028776Y44612058D01*
X22000838Y44471603D01*
X21133932Y44471603D01*
X21183216Y44504533D01*
X21284478Y44605795D01*
X21364039Y44724867D01*
X21418842Y44857173D01*
X21446780Y44997628D01*
X21446780Y45140834D01*
X21418842Y45281289D01*
X21364039Y45413595D01*
X21284478Y45532667D01*
X21183216Y45633929D01*
X21064144Y45713490D01*
X20931838Y45768293D01*
X20791383Y45796231D01*
X20648177Y45796231D01*
X20507722Y45768293D01*
X20375416Y45713490D01*
X20256344Y45633929D01*
X20155082Y45532667D01*
X20075521Y45413595D01*
X20020718Y45281289D01*
X19992780Y45140834D01*
X19992780Y44997628D01*
X20009524Y44913448D01*
X19936564Y44864698D01*
X19879066Y44807200D01*
X19879066Y46120000D01*
X19870822Y46203707D01*
X19846405Y46284196D01*
X19806755Y46358376D01*
X19753395Y46423395D01*
X19688376Y46476755D01*
X19614196Y46516405D01*
X19533707Y46540822D01*
X19450000Y46549066D01*
X17850000Y46549066D01*
X17766293Y46540822D01*
X17685804Y46516405D01*
X17611624Y46476755D01*
X17546605Y46423395D01*
X17493245Y46358376D01*
X17453595Y46284196D01*
X17429178Y46203707D01*
X17420934Y46120000D01*
X17045240Y46120000D01*
X16892167Y46273073D01*
X16691202Y46407353D01*
X16467903Y46499847D01*
X16230849Y46547000D01*
X15989151Y46547000D01*
X15752097Y46499847D01*
X15528798Y46407353D01*
X15327833Y46273073D01*
X15156927Y46102167D01*
X15022647Y45901202D01*
X14930153Y45677903D01*
X14883000Y45440849D01*
X14797000Y45440849D01*
X14749847Y45677903D01*
X14657353Y45901202D01*
X14523073Y46102167D01*
X14352167Y46273073D01*
X14151202Y46407353D01*
X13927903Y46499847D01*
X13690849Y46547000D01*
X13449151Y46547000D01*
X13212097Y46499847D01*
X12988798Y46407353D01*
X12787833Y46273073D01*
X12616927Y46102167D01*
X12482647Y45901202D01*
X12390153Y45677903D01*
X12343000Y45440849D01*
X12257000Y45440849D01*
X12209847Y45677903D01*
X12117353Y45901202D01*
X11983073Y46102167D01*
X11812167Y46273073D01*
X11611202Y46407353D01*
X11387903Y46499847D01*
X11150849Y46547000D01*
X10909151Y46547000D01*
X10672097Y46499847D01*
X10448798Y46407353D01*
X10247833Y46273073D01*
X10076927Y46102167D01*
X9942647Y45901202D01*
X9869395Y45724356D01*
X9793603Y45936292D01*
X9726671Y46061514D01*
X9482702Y46133097D01*
X8669605Y45320000D01*
X8310395Y45320000D01*
X7497298Y46133097D01*
X7253329Y46061514D01*
X7132429Y45806004D01*
X7063700Y45531816D01*
X7049783Y45249488D01*
X6583139Y45249488D01*
X6699145Y45529550D01*
X6827000Y46172319D01*
X6827000Y46827681D01*
X6819120Y46867298D01*
X7676903Y46867298D01*
X7748486Y46623329D01*
X7814636Y46592029D01*
X7748486Y46556671D01*
X7676903Y46312702D01*
X8490000Y45499605D01*
X9303097Y46312702D01*
X9231514Y46556671D01*
X9165364Y46587971D01*
X9231514Y46623329D01*
X9303097Y46867298D01*
X8490000Y47680395D01*
X7676903Y46867298D01*
X6819120Y46867298D01*
X6699145Y47470450D01*
X6566996Y47789488D01*
X7049783Y47789488D01*
X7091213Y47509870D01*
X7186397Y47243708D01*
X7253329Y47118486D01*
X7497298Y47046903D01*
X8310395Y47860000D01*
X8669605Y47860000D01*
X9482702Y47046903D01*
X9726671Y47118486D01*
X9847571Y47373996D01*
X9868549Y47457686D01*
X9942647Y47278798D01*
X10076927Y47077833D01*
X10247833Y46906927D01*
X10448798Y46772647D01*
X10672097Y46680153D01*
X10909151Y46633000D01*
X11150849Y46633000D01*
X11387903Y46680153D01*
X11611202Y46772647D01*
X11812167Y46906927D01*
X11983073Y47077833D01*
X12117353Y47278798D01*
X12209847Y47502097D01*
X12257000Y47739151D01*
X12257000Y47980849D01*
X12343000Y47980849D01*
X12343000Y47739151D01*
X12390153Y47502097D01*
X12482647Y47278798D01*
X12616927Y47077833D01*
X12787833Y46906927D01*
X12988798Y46772647D01*
X13212097Y46680153D01*
X13449151Y46633000D01*
X13690849Y46633000D01*
X13927903Y46680153D01*
X14151202Y46772647D01*
X14352167Y46906927D01*
X14523073Y47077833D01*
X14657353Y47278798D01*
X14749847Y47502097D01*
X14797000Y47739151D01*
X14797000Y47980849D01*
X14883000Y47980849D01*
X14883000Y47739151D01*
X14930153Y47502097D01*
X15022647Y47278798D01*
X15156927Y47077833D01*
X15327833Y46906927D01*
X15528798Y46772647D01*
X15752097Y46680153D01*
X15989151Y46633000D01*
X16230849Y46633000D01*
X16467903Y46680153D01*
X16691202Y46772647D01*
X16892167Y46906927D01*
X17063073Y47077833D01*
X17197353Y47278798D01*
X17289847Y47502097D01*
X17337000Y47739151D01*
X17337000Y47980849D01*
X17289847Y48217903D01*
X17197353Y48441202D01*
X17063073Y48642167D01*
X17045240Y48660000D01*
X17420934Y48660000D01*
X17420934Y47060000D01*
X17429178Y46976293D01*
X17453595Y46895804D01*
X17493245Y46821624D01*
X17546605Y46756605D01*
X17611624Y46703245D01*
X17685804Y46663595D01*
X17766293Y46639178D01*
X17850000Y46630934D01*
X19450000Y46630934D01*
X19533707Y46639178D01*
X19614196Y46663595D01*
X19688376Y46703245D01*
X19753395Y46756605D01*
X19806755Y46821624D01*
X19831168Y46867298D01*
X30536903Y46867298D01*
X30608486Y46623329D01*
X30674636Y46592029D01*
X30608486Y46556671D01*
X30536903Y46312702D01*
X31350000Y45499605D01*
X32163097Y46312702D01*
X32091514Y46556671D01*
X32025364Y46587971D01*
X32091514Y46623329D01*
X32163097Y46867298D01*
X31350000Y47680395D01*
X30536903Y46867298D01*
X19831168Y46867298D01*
X19846405Y46895804D01*
X19870822Y46976293D01*
X19879066Y47060000D01*
X19879066Y47789488D01*
X29909783Y47789488D01*
X29951213Y47509870D01*
X30046397Y47243708D01*
X30113329Y47118486D01*
X30357298Y47046903D01*
X31170395Y47860000D01*
X31529605Y47860000D01*
X32342702Y47046903D01*
X32586671Y47118486D01*
X32707571Y47373996D01*
X32728549Y47457686D01*
X32802647Y47278798D01*
X32936927Y47077833D01*
X33107833Y46906927D01*
X33308798Y46772647D01*
X33532097Y46680153D01*
X33769151Y46633000D01*
X34010849Y46633000D01*
X34247903Y46680153D01*
X34471202Y46772647D01*
X34672167Y46906927D01*
X34843073Y47077833D01*
X34977353Y47278798D01*
X35069847Y47502097D01*
X35117000Y47739151D01*
X35117000Y47980849D01*
X35203000Y47980849D01*
X35203000Y47739151D01*
X35250153Y47502097D01*
X35342647Y47278798D01*
X35476927Y47077833D01*
X35647833Y46906927D01*
X35848798Y46772647D01*
X36072097Y46680153D01*
X36309151Y46633000D01*
X36550849Y46633000D01*
X36787903Y46680153D01*
X37011202Y46772647D01*
X37212167Y46906927D01*
X37383073Y47077833D01*
X37517353Y47278798D01*
X37609847Y47502097D01*
X37657000Y47739151D01*
X37657000Y47980849D01*
X37743000Y47980849D01*
X37743000Y47739151D01*
X37790153Y47502097D01*
X37882647Y47278798D01*
X38016927Y47077833D01*
X38187833Y46906927D01*
X38388798Y46772647D01*
X38612097Y46680153D01*
X38849151Y46633000D01*
X39090849Y46633000D01*
X39327903Y46680153D01*
X39551202Y46772647D01*
X39752167Y46906927D01*
X39923073Y47077833D01*
X40057353Y47278798D01*
X40149847Y47502097D01*
X40197000Y47739151D01*
X40197000Y47980849D01*
X40149847Y48217903D01*
X40057353Y48441202D01*
X39923073Y48642167D01*
X39905240Y48660000D01*
X40280934Y48660000D01*
X40280934Y47060000D01*
X40289178Y46976293D01*
X40313595Y46895804D01*
X40353245Y46821624D01*
X40406605Y46756605D01*
X40471624Y46703245D01*
X40545804Y46663595D01*
X40626293Y46639178D01*
X40710000Y46630934D01*
X42310000Y46630934D01*
X42393707Y46639178D01*
X42474196Y46663595D01*
X42548376Y46703245D01*
X42613395Y46756605D01*
X42666755Y46821624D01*
X42706405Y46895804D01*
X42730822Y46976293D01*
X42739066Y47060000D01*
X42739066Y48660000D01*
X42730822Y48743707D01*
X42706405Y48824196D01*
X42666755Y48898376D01*
X42613395Y48963395D01*
X42548376Y49016755D01*
X42474196Y49056405D01*
X42393707Y49080822D01*
X42310000Y49089066D01*
X40710000Y49089066D01*
X40626293Y49080822D01*
X40545804Y49056405D01*
X40471624Y49016755D01*
X40406605Y48963395D01*
X40353245Y48898376D01*
X40313595Y48824196D01*
X40289178Y48743707D01*
X40280934Y48660000D01*
X39905240Y48660000D01*
X39752167Y48813073D01*
X39551202Y48947353D01*
X39327903Y49039847D01*
X39090849Y49087000D01*
X38849151Y49087000D01*
X38612097Y49039847D01*
X38388798Y48947353D01*
X38187833Y48813073D01*
X38016927Y48642167D01*
X37882647Y48441202D01*
X37790153Y48217903D01*
X37743000Y47980849D01*
X37657000Y47980849D01*
X37609847Y48217903D01*
X37517353Y48441202D01*
X37383073Y48642167D01*
X37212167Y48813073D01*
X37011202Y48947353D01*
X36787903Y49039847D01*
X36550849Y49087000D01*
X36309151Y49087000D01*
X36072097Y49039847D01*
X35848798Y48947353D01*
X35647833Y48813073D01*
X35476927Y48642167D01*
X35342647Y48441202D01*
X35250153Y48217903D01*
X35203000Y47980849D01*
X35117000Y47980849D01*
X35069847Y48217903D01*
X34977353Y48441202D01*
X34843073Y48642167D01*
X34672167Y48813073D01*
X34471202Y48947353D01*
X34247903Y49039847D01*
X34010849Y49087000D01*
X33769151Y49087000D01*
X33532097Y49039847D01*
X33308798Y48947353D01*
X33107833Y48813073D01*
X32936927Y48642167D01*
X32802647Y48441202D01*
X32729395Y48264356D01*
X32653603Y48476292D01*
X32586671Y48601514D01*
X32342702Y48673097D01*
X31529605Y47860000D01*
X31170395Y47860000D01*
X30357298Y48673097D01*
X30113329Y48601514D01*
X29992429Y48346004D01*
X29923700Y48071816D01*
X29909783Y47789488D01*
X19879066Y47789488D01*
X19879066Y48660000D01*
X19870822Y48743707D01*
X19846405Y48824196D01*
X19806755Y48898376D01*
X19753395Y48963395D01*
X19688376Y49016755D01*
X19614196Y49056405D01*
X19533707Y49080822D01*
X19450000Y49089066D01*
X17850000Y49089066D01*
X17766293Y49080822D01*
X17685804Y49056405D01*
X17611624Y49016755D01*
X17546605Y48963395D01*
X17493245Y48898376D01*
X17453595Y48824196D01*
X17429178Y48743707D01*
X17420934Y48660000D01*
X17045240Y48660000D01*
X16892167Y48813073D01*
X16691202Y48947353D01*
X16467903Y49039847D01*
X16230849Y49087000D01*
X15989151Y49087000D01*
X15752097Y49039847D01*
X15528798Y48947353D01*
X15327833Y48813073D01*
X15156927Y48642167D01*
X15022647Y48441202D01*
X14930153Y48217903D01*
X14883000Y47980849D01*
X14797000Y47980849D01*
X14749847Y48217903D01*
X14657353Y48441202D01*
X14523073Y48642167D01*
X14352167Y48813073D01*
X14151202Y48947353D01*
X13927903Y49039847D01*
X13690849Y49087000D01*
X13449151Y49087000D01*
X13212097Y49039847D01*
X12988798Y48947353D01*
X12787833Y48813073D01*
X12616927Y48642167D01*
X12482647Y48441202D01*
X12390153Y48217903D01*
X12343000Y47980849D01*
X12257000Y47980849D01*
X12209847Y48217903D01*
X12117353Y48441202D01*
X11983073Y48642167D01*
X11812167Y48813073D01*
X11611202Y48947353D01*
X11387903Y49039847D01*
X11150849Y49087000D01*
X10909151Y49087000D01*
X10672097Y49039847D01*
X10448798Y48947353D01*
X10247833Y48813073D01*
X10076927Y48642167D01*
X9942647Y48441202D01*
X9869395Y48264356D01*
X9793603Y48476292D01*
X9726671Y48601514D01*
X9482702Y48673097D01*
X8669605Y47860000D01*
X8310395Y47860000D01*
X7497298Y48673097D01*
X7253329Y48601514D01*
X7132429Y48346004D01*
X7063700Y48071816D01*
X7049783Y47789488D01*
X6566996Y47789488D01*
X6448349Y48075925D01*
X6084250Y48620839D01*
X5852387Y48852702D01*
X7676903Y48852702D01*
X8490000Y48039605D01*
X9303097Y48852702D01*
X9231514Y49096671D01*
X8976004Y49217571D01*
X8701816Y49286300D01*
X8419488Y49300217D01*
X8139870Y49258787D01*
X7873708Y49163603D01*
X7748486Y49096671D01*
X7676903Y48852702D01*
X5852387Y48852702D01*
X5620839Y49084250D01*
X5188693Y49373000D01*
X23548989Y49373000D01*
X23536564Y49364698D01*
M02*
