M48
; DRILL file {KiCad (5.1.0)-1} date 02/04/2019 21:12:00
; FORMAT={-:-/ absolute / metric / decimal}
; #@! TF.CreationDate,2019-04-02T21:12:00+01:00
; #@! TF.GenerationSoftware,Kicad,Pcbnew,(5.1.0)-1
FMAT,2
METRIC
T1C0.300
T2C0.800
T3C1.000
T4C3.200
%
G90
G05
T1
X0.87Y44.05
X0.87Y37.7
X0.9Y20.5
X1.077Y7.031
X1.1Y8.4
X1.2Y15.2
X1.2Y14.2
X1.2Y13.1
X1.5Y24.0
X1.9Y22.4
X2.3Y18.6
X2.5Y27.2
X2.8Y22.4
X3.49Y7.031
X3.8Y27.2
X5.0Y27.2
X5.3Y7.0
X5.95Y49.13
X5.95Y0.87
X6.5Y11.5
X6.5Y6.5
X7.5Y11.5
X8.5Y16.1
X8.5Y11.5
X8.6Y25.3
X8.6Y22.8
X8.6Y20.2
X8.9Y12.6
X9.0Y11.0
X9.5Y11.5
X10.0Y17.0
X10.412Y6.587
X11.0Y25.5
X11.0Y20.0
X11.919Y2.775
X12.0Y24.0
X12.0Y21.0
X13.0Y17.2
X14.2Y10.8
X15.0Y11.6
X15.0Y8.5
X15.1Y2.8
X15.5Y9.0
X15.5Y8.0
X17.2Y18.5
X17.3Y24.1
X17.447Y36.586
X17.5Y17.1
X17.611Y37.369
X17.896Y38.116
X17.9Y38.916
X18.0Y42.5
X18.0Y40.6
X18.0Y4.75
X18.0Y2.0
X18.5Y21.8
X18.6Y28.8
X19.5Y25.8
X19.6Y42.5
X20.3Y30.0
X20.4Y44.3
X20.425Y35.783
X20.5Y42.9
X20.5Y8.0
X20.5Y7.0
X20.5Y6.1
X20.55Y33.9
X20.72Y45.069
X21.5Y34.5
X21.5Y8.0
X22.15Y32.8
X22.3Y19.5
X22.4Y17.0
X22.5Y0.9
X22.728Y44.4
X23.1Y29.8
X23.2Y14.5
X23.2Y11.8
X23.4Y40.7
X23.4Y38.65
X23.4Y34.3
X23.4Y8.2
X23.5Y29.1
X24.0Y48.8
X24.4Y29.1
X24.5Y39.8
X24.6Y8.2
X24.6Y4.5
X24.7Y9.4
X25.2Y44.7
X25.3Y29.1
X25.4Y7.5
X26.1Y44.9
X26.2Y29.1
X26.6Y34.3
X27.1Y29.1
X27.2Y38.85
X27.2Y23.1
X27.3Y19.6
X27.3Y18.6
X27.3Y16.1
X27.54Y0.87
X27.7Y32.8
X28.097Y44.646
X28.5Y8.5
X28.8Y38.5
X29.482Y35.224
X29.5Y42.9
X29.602Y36.015
X29.633Y40.24
X29.65Y37.75
X30.4Y32.5
X30.58Y42.17
X30.9Y26.2
X31.2Y15.0
X32.1Y38.7
X32.2Y42.418
X32.2Y43.4
X33.4Y13.9
X34.6Y18.6
X37.0Y5.05
X37.2Y18.6
X37.3Y23.1
X37.3Y21.55
X37.7Y0.87
X40.6Y8.5
X42.4Y23.7
X42.4Y21.9
X42.4Y19.1
X44.05Y0.87
X45.3Y18.5
X45.4Y21.5
X47.75Y19.6
X47.8Y26.75
X49.13Y42.78
X49.13Y37.7
X49.13Y32.62
X49.13Y5.95
X49.2Y26.4
X49.2Y21.172
T2
X44.05Y17.38
X44.05Y14.84
X44.05Y12.3
X44.05Y9.76
X46.59Y17.38
X46.59Y14.84
X46.59Y12.3
X46.59Y9.76
X3.41Y40.24
X3.41Y37.7
X3.41Y35.16
X3.41Y32.62
X5.95Y40.24
X5.95Y37.7
X5.95Y35.16
X5.95Y32.62
X44.05Y40.24
X44.05Y37.7
X44.05Y35.16
X44.05Y32.62
X46.59Y40.24
X46.59Y37.7
X46.59Y35.16
X46.59Y32.62
T3
X6.5Y27.5
X31.35Y47.86
X33.89Y47.86
X36.43Y47.86
X38.97Y47.86
X41.51Y47.86
X8.49Y47.86
X11.03Y47.86
X13.57Y47.86
X16.11Y47.86
X18.65Y47.86
X31.35Y45.32
X33.89Y45.32
X36.43Y45.32
X38.97Y45.32
X41.51Y45.32
X26.27Y4.68
X28.81Y4.68
X31.35Y4.68
X33.89Y4.68
X13.57Y4.68
X31.35Y7.22
X33.89Y7.22
X36.43Y7.22
X38.97Y7.22
X8.49Y45.32
X11.03Y45.32
X13.57Y45.32
X16.11Y45.32
X18.65Y45.32
X26.27Y2.14
X28.81Y2.14
X31.35Y2.14
X33.89Y2.14
T4
X3.5Y3.5
X46.5Y46.5
X3.5Y46.5
X46.5Y3.5
T3
G00X11.165Y4.68
M15
G01X9.625Y4.68
M16
G05
T0
M30
