G04 #@! TF.GenerationSoftware,KiCad,Pcbnew,(5.1.0)-1*
G04 #@! TF.CreationDate,2019-04-02T21:12:12+01:00*
G04 #@! TF.ProjectId,uCODEC-1.0,75434f44-4543-42d3-912e-302e6b696361,1.0*
G04 #@! TF.SameCoordinates,PX7de2900PY7365040*
G04 #@! TF.FileFunction,Other,Comment*
%FSLAX46Y46*%
G04 Gerber Fmt 4.6, Leading zero omitted, Abs format (unit mm)*
G04 Created by KiCad (PCBNEW (5.1.0)-1) date 2019-04-02 21:12:12*
%MOMM*%
%LPD*%
G04 APERTURE LIST*
%ADD10C,0.150000*%
%ADD11C,0.300000*%
%ADD12C,0.400000*%
%ADD13C,0.100000*%
G04 APERTURE END LIST*
D10*
X45002200Y-45007200D02*
X45002200Y-77007200D01*
X153002200Y-77007200D01*
X153002200Y-45007200D01*
X45002200Y-45007200D01*
X-122000000Y111000000D02*
X-122000000Y-79007200D01*
X155002200Y-79007200D01*
X155002200Y111000000D01*
X-122000000Y111000000D01*
X-120000000Y109000000D02*
X-120000000Y-77007200D01*
X153002200Y-77007200D01*
X153002200Y109000000D01*
X-120000000Y109000000D01*
X-72000000Y109000000D02*
X-72000000Y111000000D01*
X-22000000Y109000000D02*
X-22000000Y111000000D01*
X28000000Y109000000D02*
X28000000Y111000000D01*
X78000000Y109000000D02*
X78000000Y111000000D01*
X128000000Y109000000D02*
X128000000Y111000000D01*
X-95934524Y109411905D02*
X-96677381Y109411905D01*
X-96305953Y109411905D02*
X-96305953Y110711905D01*
X-96429762Y110526191D01*
X-96553572Y110402381D01*
X-96677381Y110340477D01*
X-46677381Y110588096D02*
X-46615477Y110650000D01*
X-46491667Y110711905D01*
X-46182143Y110711905D01*
X-46058334Y110650000D01*
X-45996429Y110588096D01*
X-45934524Y110464286D01*
X-45934524Y110340477D01*
X-45996429Y110154762D01*
X-46739286Y109411905D01*
X-45934524Y109411905D01*
X3260714Y110711905D02*
X4065476Y110711905D01*
X3632142Y110216667D01*
X3817857Y110216667D01*
X3941666Y110154762D01*
X4003571Y110092858D01*
X4065476Y109969048D01*
X4065476Y109659524D01*
X4003571Y109535715D01*
X3941666Y109473810D01*
X3817857Y109411905D01*
X3446428Y109411905D01*
X3322619Y109473810D01*
X3260714Y109535715D01*
X53941666Y110278572D02*
X53941666Y109411905D01*
X53632142Y110773810D02*
X53322619Y109845239D01*
X54127380Y109845239D01*
X104003571Y110711905D02*
X103384523Y110711905D01*
X103322619Y110092858D01*
X103384523Y110154762D01*
X103508333Y110216667D01*
X103817857Y110216667D01*
X103941666Y110154762D01*
X104003571Y110092858D01*
X104065476Y109969048D01*
X104065476Y109659524D01*
X104003571Y109535715D01*
X103941666Y109473810D01*
X103817857Y109411905D01*
X103508333Y109411905D01*
X103384523Y109473810D01*
X103322619Y109535715D01*
X153941666Y110711905D02*
X153694047Y110711905D01*
X153570238Y110650000D01*
X153508333Y110588096D01*
X153384523Y110402381D01*
X153322619Y110154762D01*
X153322619Y109659524D01*
X153384523Y109535715D01*
X153446428Y109473810D01*
X153570238Y109411905D01*
X153817857Y109411905D01*
X153941666Y109473810D01*
X154003571Y109535715D01*
X154065476Y109659524D01*
X154065476Y109969048D01*
X154003571Y110092858D01*
X153941666Y110154762D01*
X153817857Y110216667D01*
X153570238Y110216667D01*
X153446428Y110154762D01*
X153384523Y110092858D01*
X153322619Y109969048D01*
X-72000000Y-77007200D02*
X-72000000Y-79007200D01*
X-22000000Y-77007200D02*
X-22000000Y-79007200D01*
X28000000Y-77007200D02*
X28000000Y-79007200D01*
X78000000Y-77007200D02*
X78000000Y-79007200D01*
X128000000Y-77007200D02*
X128000000Y-79007200D01*
X-95934524Y-78595295D02*
X-96677381Y-78595295D01*
X-96305953Y-78595295D02*
X-96305953Y-77295295D01*
X-96429762Y-77481009D01*
X-96553572Y-77604819D01*
X-96677381Y-77666723D01*
X-46677381Y-77419104D02*
X-46615477Y-77357200D01*
X-46491667Y-77295295D01*
X-46182143Y-77295295D01*
X-46058334Y-77357200D01*
X-45996429Y-77419104D01*
X-45934524Y-77542914D01*
X-45934524Y-77666723D01*
X-45996429Y-77852438D01*
X-46739286Y-78595295D01*
X-45934524Y-78595295D01*
X3260714Y-77295295D02*
X4065476Y-77295295D01*
X3632142Y-77790533D01*
X3817857Y-77790533D01*
X3941666Y-77852438D01*
X4003571Y-77914342D01*
X4065476Y-78038152D01*
X4065476Y-78347676D01*
X4003571Y-78471485D01*
X3941666Y-78533390D01*
X3817857Y-78595295D01*
X3446428Y-78595295D01*
X3322619Y-78533390D01*
X3260714Y-78471485D01*
X53941666Y-77728628D02*
X53941666Y-78595295D01*
X53632142Y-77233390D02*
X53322619Y-78161961D01*
X54127380Y-78161961D01*
X104003571Y-77295295D02*
X103384523Y-77295295D01*
X103322619Y-77914342D01*
X103384523Y-77852438D01*
X103508333Y-77790533D01*
X103817857Y-77790533D01*
X103941666Y-77852438D01*
X104003571Y-77914342D01*
X104065476Y-78038152D01*
X104065476Y-78347676D01*
X104003571Y-78471485D01*
X103941666Y-78533390D01*
X103817857Y-78595295D01*
X103508333Y-78595295D01*
X103384523Y-78533390D01*
X103322619Y-78471485D01*
X153941666Y-77295295D02*
X153694047Y-77295295D01*
X153570238Y-77357200D01*
X153508333Y-77419104D01*
X153384523Y-77604819D01*
X153322619Y-77852438D01*
X153322619Y-78347676D01*
X153384523Y-78471485D01*
X153446428Y-78533390D01*
X153570238Y-78595295D01*
X153817857Y-78595295D01*
X153941666Y-78533390D01*
X154003571Y-78471485D01*
X154065476Y-78347676D01*
X154065476Y-78038152D01*
X154003571Y-77914342D01*
X153941666Y-77852438D01*
X153817857Y-77790533D01*
X153570238Y-77790533D01*
X153446428Y-77852438D01*
X153384523Y-77914342D01*
X153322619Y-78038152D01*
X-122000000Y61000000D02*
X-120000000Y61000000D01*
X-122000000Y11000000D02*
X-120000000Y11000000D01*
X-122000000Y-39000000D02*
X-120000000Y-39000000D01*
X-121309524Y85783334D02*
X-120690477Y85783334D01*
X-121433334Y85411905D02*
X-121000000Y86711905D01*
X-120566667Y85411905D01*
X-120907143Y36092858D02*
X-120721429Y36030953D01*
X-120659524Y35969048D01*
X-120597620Y35845239D01*
X-120597620Y35659524D01*
X-120659524Y35535715D01*
X-120721429Y35473810D01*
X-120845239Y35411905D01*
X-121340477Y35411905D01*
X-121340477Y36711905D01*
X-120907143Y36711905D01*
X-120783334Y36650000D01*
X-120721429Y36588096D01*
X-120659524Y36464286D01*
X-120659524Y36340477D01*
X-120721429Y36216667D01*
X-120783334Y36154762D01*
X-120907143Y36092858D01*
X-121340477Y36092858D01*
X-120597620Y-14464285D02*
X-120659524Y-14526190D01*
X-120845239Y-14588095D01*
X-120969048Y-14588095D01*
X-121154762Y-14526190D01*
X-121278572Y-14402380D01*
X-121340477Y-14278571D01*
X-121402381Y-14030952D01*
X-121402381Y-13845238D01*
X-121340477Y-13597619D01*
X-121278572Y-13473809D01*
X-121154762Y-13350000D01*
X-120969048Y-13288095D01*
X-120845239Y-13288095D01*
X-120659524Y-13350000D01*
X-120597620Y-13411904D01*
X-121340477Y-64588095D02*
X-121340477Y-63288095D01*
X-121030953Y-63288095D01*
X-120845239Y-63350000D01*
X-120721429Y-63473809D01*
X-120659524Y-63597619D01*
X-120597620Y-63845238D01*
X-120597620Y-64030952D01*
X-120659524Y-64278571D01*
X-120721429Y-64402380D01*
X-120845239Y-64526190D01*
X-121030953Y-64588095D01*
X-121340477Y-64588095D01*
X155002200Y61000000D02*
X153002200Y61000000D01*
X155002200Y11000000D02*
X153002200Y11000000D01*
X155002200Y-39000000D02*
X153002200Y-39000000D01*
X153692676Y85783334D02*
X154311723Y85783334D01*
X153568866Y85411905D02*
X154002200Y86711905D01*
X154435533Y85411905D01*
X154095057Y36092858D02*
X154280771Y36030953D01*
X154342676Y35969048D01*
X154404580Y35845239D01*
X154404580Y35659524D01*
X154342676Y35535715D01*
X154280771Y35473810D01*
X154156961Y35411905D01*
X153661723Y35411905D01*
X153661723Y36711905D01*
X154095057Y36711905D01*
X154218866Y36650000D01*
X154280771Y36588096D01*
X154342676Y36464286D01*
X154342676Y36340477D01*
X154280771Y36216667D01*
X154218866Y36154762D01*
X154095057Y36092858D01*
X153661723Y36092858D01*
X154404580Y-14464285D02*
X154342676Y-14526190D01*
X154156961Y-14588095D01*
X154033152Y-14588095D01*
X153847438Y-14526190D01*
X153723628Y-14402380D01*
X153661723Y-14278571D01*
X153599819Y-14030952D01*
X153599819Y-13845238D01*
X153661723Y-13597619D01*
X153723628Y-13473809D01*
X153847438Y-13350000D01*
X154033152Y-13288095D01*
X154156961Y-13288095D01*
X154342676Y-13350000D01*
X154404580Y-13411904D01*
X153661723Y-64588095D02*
X153661723Y-63288095D01*
X153971247Y-63288095D01*
X154156961Y-63350000D01*
X154280771Y-63473809D01*
X154342676Y-63597619D01*
X154404580Y-63845238D01*
X154404580Y-64030952D01*
X154342676Y-64278571D01*
X154280771Y-64402380D01*
X154156961Y-64526190D01*
X153971247Y-64588095D01*
X153661723Y-64588095D01*
X68434342Y-72785771D02*
X68434342Y-71285771D01*
X68791485Y-71285771D01*
X69005771Y-71357200D01*
X69148628Y-71500057D01*
X69220057Y-71642914D01*
X69291485Y-71928628D01*
X69291485Y-72142914D01*
X69220057Y-72428628D01*
X69148628Y-72571485D01*
X69005771Y-72714342D01*
X68791485Y-72785771D01*
X68434342Y-72785771D01*
X70577200Y-72785771D02*
X70577200Y-72000057D01*
X70505771Y-71857200D01*
X70362914Y-71785771D01*
X70077200Y-71785771D01*
X69934342Y-71857200D01*
X70577200Y-72714342D02*
X70434342Y-72785771D01*
X70077200Y-72785771D01*
X69934342Y-72714342D01*
X69862914Y-72571485D01*
X69862914Y-72428628D01*
X69934342Y-72285771D01*
X70077200Y-72214342D01*
X70434342Y-72214342D01*
X70577200Y-72142914D01*
X71077200Y-71785771D02*
X71648628Y-71785771D01*
X71291485Y-71285771D02*
X71291485Y-72571485D01*
X71362914Y-72714342D01*
X71505771Y-72785771D01*
X71648628Y-72785771D01*
X72720057Y-72714342D02*
X72577200Y-72785771D01*
X72291485Y-72785771D01*
X72148628Y-72714342D01*
X72077200Y-72571485D01*
X72077200Y-72000057D01*
X72148628Y-71857200D01*
X72291485Y-71785771D01*
X72577200Y-71785771D01*
X72720057Y-71857200D01*
X72791485Y-72000057D01*
X72791485Y-72142914D01*
X72077200Y-72285771D01*
X73434342Y-72642914D02*
X73505771Y-72714342D01*
X73434342Y-72785771D01*
X73362914Y-72714342D01*
X73434342Y-72642914D01*
X73434342Y-72785771D01*
X73434342Y-71857200D02*
X73505771Y-71928628D01*
X73434342Y-72000057D01*
X73362914Y-71928628D01*
X73434342Y-71857200D01*
X73434342Y-72000057D01*
X75220057Y-71428628D02*
X75291485Y-71357200D01*
X75434342Y-71285771D01*
X75791485Y-71285771D01*
X75934342Y-71357200D01*
X76005771Y-71428628D01*
X76077200Y-71571485D01*
X76077200Y-71714342D01*
X76005771Y-71928628D01*
X75148628Y-72785771D01*
X76077200Y-72785771D01*
X77005771Y-71285771D02*
X77148628Y-71285771D01*
X77291485Y-71357200D01*
X77362914Y-71428628D01*
X77434342Y-71571485D01*
X77505771Y-71857200D01*
X77505771Y-72214342D01*
X77434342Y-72500057D01*
X77362914Y-72642914D01*
X77291485Y-72714342D01*
X77148628Y-72785771D01*
X77005771Y-72785771D01*
X76862914Y-72714342D01*
X76791485Y-72642914D01*
X76720057Y-72500057D01*
X76648628Y-72214342D01*
X76648628Y-71857200D01*
X76720057Y-71571485D01*
X76791485Y-71428628D01*
X76862914Y-71357200D01*
X77005771Y-71285771D01*
X78934342Y-72785771D02*
X78077200Y-72785771D01*
X78505771Y-72785771D02*
X78505771Y-71285771D01*
X78362914Y-71500057D01*
X78220057Y-71642914D01*
X78077200Y-71714342D01*
X79648628Y-72785771D02*
X79934342Y-72785771D01*
X80077200Y-72714342D01*
X80148628Y-72642914D01*
X80291485Y-72428628D01*
X80362914Y-72142914D01*
X80362914Y-71571485D01*
X80291485Y-71428628D01*
X80220057Y-71357200D01*
X80077200Y-71285771D01*
X79791485Y-71285771D01*
X79648628Y-71357200D01*
X79577200Y-71428628D01*
X79505771Y-71571485D01*
X79505771Y-71928628D01*
X79577200Y-72071485D01*
X79648628Y-72142914D01*
X79791485Y-72214342D01*
X80077200Y-72214342D01*
X80220057Y-72142914D01*
X80291485Y-72071485D01*
X80362914Y-71928628D01*
X81005771Y-72214342D02*
X82148628Y-72214342D01*
X83148628Y-71285771D02*
X83291485Y-71285771D01*
X83434342Y-71357200D01*
X83505771Y-71428628D01*
X83577200Y-71571485D01*
X83648628Y-71857200D01*
X83648628Y-72214342D01*
X83577200Y-72500057D01*
X83505771Y-72642914D01*
X83434342Y-72714342D01*
X83291485Y-72785771D01*
X83148628Y-72785771D01*
X83005771Y-72714342D01*
X82934342Y-72642914D01*
X82862914Y-72500057D01*
X82791485Y-72214342D01*
X82791485Y-71857200D01*
X82862914Y-71571485D01*
X82934342Y-71428628D01*
X83005771Y-71357200D01*
X83148628Y-71285771D01*
X84934342Y-71785771D02*
X84934342Y-72785771D01*
X84577200Y-71214342D02*
X84220057Y-72285771D01*
X85148628Y-72285771D01*
X85720057Y-72214342D02*
X86862914Y-72214342D01*
X87862914Y-71285771D02*
X88005771Y-71285771D01*
X88148628Y-71357200D01*
X88220057Y-71428628D01*
X88291485Y-71571485D01*
X88362914Y-71857200D01*
X88362914Y-72214342D01*
X88291485Y-72500057D01*
X88220057Y-72642914D01*
X88148628Y-72714342D01*
X88005771Y-72785771D01*
X87862914Y-72785771D01*
X87720057Y-72714342D01*
X87648628Y-72642914D01*
X87577200Y-72500057D01*
X87505771Y-72214342D01*
X87505771Y-71857200D01*
X87577200Y-71571485D01*
X87648628Y-71428628D01*
X87720057Y-71357200D01*
X87862914Y-71285771D01*
X88934342Y-71428628D02*
X89005771Y-71357200D01*
X89148628Y-71285771D01*
X89505771Y-71285771D01*
X89648628Y-71357200D01*
X89720057Y-71428628D01*
X89791485Y-71571485D01*
X89791485Y-71714342D01*
X89720057Y-71928628D01*
X88862914Y-72785771D01*
X89791485Y-72785771D01*
X45002200Y-73507200D02*
X153002200Y-73507200D01*
X46434342Y-75585771D02*
X46434342Y-74085771D01*
X47291485Y-75585771D02*
X46648628Y-74728628D01*
X47291485Y-74085771D02*
X46434342Y-74942914D01*
X47934342Y-75585771D02*
X47934342Y-74585771D01*
X47934342Y-74085771D02*
X47862914Y-74157200D01*
X47934342Y-74228628D01*
X48005771Y-74157200D01*
X47934342Y-74085771D01*
X47934342Y-74228628D01*
X49505771Y-75442914D02*
X49434342Y-75514342D01*
X49220057Y-75585771D01*
X49077200Y-75585771D01*
X48862914Y-75514342D01*
X48720057Y-75371485D01*
X48648628Y-75228628D01*
X48577200Y-74942914D01*
X48577200Y-74728628D01*
X48648628Y-74442914D01*
X48720057Y-74300057D01*
X48862914Y-74157200D01*
X49077200Y-74085771D01*
X49220057Y-74085771D01*
X49434342Y-74157200D01*
X49505771Y-74228628D01*
X50791485Y-75585771D02*
X50791485Y-74800057D01*
X50720057Y-74657200D01*
X50577200Y-74585771D01*
X50291485Y-74585771D01*
X50148628Y-74657200D01*
X50791485Y-75514342D02*
X50648628Y-75585771D01*
X50291485Y-75585771D01*
X50148628Y-75514342D01*
X50077200Y-75371485D01*
X50077200Y-75228628D01*
X50148628Y-75085771D01*
X50291485Y-75014342D01*
X50648628Y-75014342D01*
X50791485Y-74942914D01*
X52148628Y-75585771D02*
X52148628Y-74085771D01*
X52148628Y-75514342D02*
X52005771Y-75585771D01*
X51720057Y-75585771D01*
X51577200Y-75514342D01*
X51505771Y-75442914D01*
X51434342Y-75300057D01*
X51434342Y-74871485D01*
X51505771Y-74728628D01*
X51577200Y-74657200D01*
X51720057Y-74585771D01*
X52005771Y-74585771D01*
X52148628Y-74657200D01*
X54005771Y-74800057D02*
X54505771Y-74800057D01*
X54720057Y-75585771D02*
X54005771Y-75585771D01*
X54005771Y-74085771D01*
X54720057Y-74085771D01*
X55362914Y-75442914D02*
X55434342Y-75514342D01*
X55362914Y-75585771D01*
X55291485Y-75514342D01*
X55362914Y-75442914D01*
X55362914Y-75585771D01*
X56077200Y-75585771D02*
X56077200Y-74085771D01*
X56434342Y-74085771D01*
X56648628Y-74157200D01*
X56791485Y-74300057D01*
X56862914Y-74442914D01*
X56934342Y-74728628D01*
X56934342Y-74942914D01*
X56862914Y-75228628D01*
X56791485Y-75371485D01*
X56648628Y-75514342D01*
X56434342Y-75585771D01*
X56077200Y-75585771D01*
X57577200Y-75442914D02*
X57648628Y-75514342D01*
X57577200Y-75585771D01*
X57505771Y-75514342D01*
X57577200Y-75442914D01*
X57577200Y-75585771D01*
X58220057Y-75157200D02*
X58934342Y-75157200D01*
X58077200Y-75585771D02*
X58577200Y-74085771D01*
X59077200Y-75585771D01*
X59577200Y-75442914D02*
X59648628Y-75514342D01*
X59577200Y-75585771D01*
X59505771Y-75514342D01*
X59577200Y-75442914D01*
X59577200Y-75585771D01*
X62577200Y-75585771D02*
X62577200Y-74085771D01*
X62720057Y-75014342D02*
X63148628Y-75585771D01*
X63148628Y-74585771D02*
X62577200Y-75157200D01*
X63791485Y-75585771D02*
X63791485Y-74585771D01*
X63791485Y-74085771D02*
X63720057Y-74157200D01*
X63791485Y-74228628D01*
X63862914Y-74157200D01*
X63791485Y-74085771D01*
X63791485Y-74228628D01*
X65148628Y-75514342D02*
X65005771Y-75585771D01*
X64720057Y-75585771D01*
X64577200Y-75514342D01*
X64505771Y-75442914D01*
X64434342Y-75300057D01*
X64434342Y-74871485D01*
X64505771Y-74728628D01*
X64577200Y-74657200D01*
X64720057Y-74585771D01*
X65005771Y-74585771D01*
X65148628Y-74657200D01*
X66434342Y-75585771D02*
X66434342Y-74800057D01*
X66362914Y-74657200D01*
X66220057Y-74585771D01*
X65934342Y-74585771D01*
X65791485Y-74657200D01*
X66434342Y-75514342D02*
X66291485Y-75585771D01*
X65934342Y-75585771D01*
X65791485Y-75514342D01*
X65720057Y-75371485D01*
X65720057Y-75228628D01*
X65791485Y-75085771D01*
X65934342Y-75014342D01*
X66291485Y-75014342D01*
X66434342Y-74942914D01*
X67791485Y-75585771D02*
X67791485Y-74085771D01*
X67791485Y-75514342D02*
X67648628Y-75585771D01*
X67362914Y-75585771D01*
X67220057Y-75514342D01*
X67148628Y-75442914D01*
X67077200Y-75300057D01*
X67077200Y-74871485D01*
X67148628Y-74728628D01*
X67220057Y-74657200D01*
X67362914Y-74585771D01*
X67648628Y-74585771D01*
X67791485Y-74657200D01*
X70077200Y-76157200D02*
X70005771Y-76085771D01*
X69862914Y-75871485D01*
X69791485Y-75728628D01*
X69720057Y-75514342D01*
X69648628Y-75157200D01*
X69648628Y-74871485D01*
X69720057Y-74514342D01*
X69791485Y-74300057D01*
X69862914Y-74157200D01*
X70005771Y-73942914D01*
X70077200Y-73871485D01*
X71362914Y-74085771D02*
X70648628Y-74085771D01*
X70577200Y-74800057D01*
X70648628Y-74728628D01*
X70791485Y-74657200D01*
X71148628Y-74657200D01*
X71291485Y-74728628D01*
X71362914Y-74800057D01*
X71434342Y-74942914D01*
X71434342Y-75300057D01*
X71362914Y-75442914D01*
X71291485Y-75514342D01*
X71148628Y-75585771D01*
X70791485Y-75585771D01*
X70648628Y-75514342D01*
X70577200Y-75442914D01*
X72077200Y-75442914D02*
X72148628Y-75514342D01*
X72077200Y-75585771D01*
X72005771Y-75514342D01*
X72077200Y-75442914D01*
X72077200Y-75585771D01*
X73577200Y-75585771D02*
X72720057Y-75585771D01*
X73148628Y-75585771D02*
X73148628Y-74085771D01*
X73005771Y-74300057D01*
X72862914Y-74442914D01*
X72720057Y-74514342D01*
X74220057Y-75442914D02*
X74291485Y-75514342D01*
X74220057Y-75585771D01*
X74148628Y-75514342D01*
X74220057Y-75442914D01*
X74220057Y-75585771D01*
X75220057Y-74085771D02*
X75362914Y-74085771D01*
X75505771Y-74157200D01*
X75577200Y-74228628D01*
X75648628Y-74371485D01*
X75720057Y-74657200D01*
X75720057Y-75014342D01*
X75648628Y-75300057D01*
X75577200Y-75442914D01*
X75505771Y-75514342D01*
X75362914Y-75585771D01*
X75220057Y-75585771D01*
X75077200Y-75514342D01*
X75005771Y-75442914D01*
X74934342Y-75300057D01*
X74862914Y-75014342D01*
X74862914Y-74657200D01*
X74934342Y-74371485D01*
X75005771Y-74228628D01*
X75077200Y-74157200D01*
X75220057Y-74085771D01*
X76220057Y-76157200D02*
X76291485Y-76085771D01*
X76434342Y-75871485D01*
X76505771Y-75728628D01*
X76577200Y-75514342D01*
X76648628Y-75157200D01*
X76648628Y-74871485D01*
X76577200Y-74514342D01*
X76505771Y-74300057D01*
X76434342Y-74157200D01*
X76291485Y-73942914D01*
X76220057Y-73871485D01*
X77362914Y-75014342D02*
X78505771Y-75014342D01*
X80005771Y-75585771D02*
X79148628Y-75585771D01*
X79577200Y-75585771D02*
X79577200Y-74085771D01*
X79434342Y-74300057D01*
X79291485Y-74442914D01*
X79148628Y-74514342D01*
X45002200Y-70507200D02*
X153002200Y-70507200D01*
D11*
X132411485Y-72785771D02*
X131911485Y-72071485D01*
X131554342Y-72785771D02*
X131554342Y-71285771D01*
X132125771Y-71285771D01*
X132268628Y-71357200D01*
X132340057Y-71428628D01*
X132411485Y-71571485D01*
X132411485Y-71785771D01*
X132340057Y-71928628D01*
X132268628Y-72000057D01*
X132125771Y-72071485D01*
X131554342Y-72071485D01*
X133625771Y-72714342D02*
X133482914Y-72785771D01*
X133197200Y-72785771D01*
X133054342Y-72714342D01*
X132982914Y-72571485D01*
X132982914Y-72000057D01*
X133054342Y-71857200D01*
X133197200Y-71785771D01*
X133482914Y-71785771D01*
X133625771Y-71857200D01*
X133697200Y-72000057D01*
X133697200Y-72142914D01*
X132982914Y-72285771D01*
X134197200Y-71785771D02*
X134554342Y-72785771D01*
X134911485Y-71785771D01*
X135482914Y-72642914D02*
X135554342Y-72714342D01*
X135482914Y-72785771D01*
X135411485Y-72714342D01*
X135482914Y-72642914D01*
X135482914Y-72785771D01*
X135482914Y-71857200D02*
X135554342Y-71928628D01*
X135482914Y-72000057D01*
X135411485Y-71928628D01*
X135482914Y-71857200D01*
X135482914Y-72000057D01*
X138125771Y-72785771D02*
X137268628Y-72785771D01*
X137697200Y-72785771D02*
X137697200Y-71285771D01*
X137554342Y-71500057D01*
X137411485Y-71642914D01*
X137268628Y-71714342D01*
X138768628Y-72642914D02*
X138840057Y-72714342D01*
X138768628Y-72785771D01*
X138697200Y-72714342D01*
X138768628Y-72642914D01*
X138768628Y-72785771D01*
X139768628Y-71285771D02*
X139911485Y-71285771D01*
X140054342Y-71357200D01*
X140125771Y-71428628D01*
X140197200Y-71571485D01*
X140268628Y-71857200D01*
X140268628Y-72214342D01*
X140197200Y-72500057D01*
X140125771Y-72642914D01*
X140054342Y-72714342D01*
X139911485Y-72785771D01*
X139768628Y-72785771D01*
X139625771Y-72714342D01*
X139554342Y-72642914D01*
X139482914Y-72500057D01*
X139411485Y-72214342D01*
X139411485Y-71857200D01*
X139482914Y-71571485D01*
X139554342Y-71428628D01*
X139625771Y-71357200D01*
X139768628Y-71285771D01*
D10*
X46362914Y-72714342D02*
X46577200Y-72785771D01*
X46934342Y-72785771D01*
X47077200Y-72714342D01*
X47148628Y-72642914D01*
X47220057Y-72500057D01*
X47220057Y-72357200D01*
X47148628Y-72214342D01*
X47077200Y-72142914D01*
X46934342Y-72071485D01*
X46648628Y-72000057D01*
X46505771Y-71928628D01*
X46434342Y-71857200D01*
X46362914Y-71714342D01*
X46362914Y-71571485D01*
X46434342Y-71428628D01*
X46505771Y-71357200D01*
X46648628Y-71285771D01*
X47005771Y-71285771D01*
X47220057Y-71357200D01*
X47862914Y-72785771D02*
X47862914Y-71785771D01*
X47862914Y-71285771D02*
X47791485Y-71357200D01*
X47862914Y-71428628D01*
X47934342Y-71357200D01*
X47862914Y-71285771D01*
X47862914Y-71428628D01*
X48434342Y-71785771D02*
X49220057Y-71785771D01*
X48434342Y-72785771D01*
X49220057Y-72785771D01*
X50362914Y-72714342D02*
X50220057Y-72785771D01*
X49934342Y-72785771D01*
X49791485Y-72714342D01*
X49720057Y-72571485D01*
X49720057Y-72000057D01*
X49791485Y-71857200D01*
X49934342Y-71785771D01*
X50220057Y-71785771D01*
X50362914Y-71857200D01*
X50434342Y-72000057D01*
X50434342Y-72142914D01*
X49720057Y-72285771D01*
X51077200Y-72642914D02*
X51148628Y-72714342D01*
X51077200Y-72785771D01*
X51005771Y-72714342D01*
X51077200Y-72642914D01*
X51077200Y-72785771D01*
X51077200Y-71857200D02*
X51148628Y-71928628D01*
X51077200Y-72000057D01*
X51005771Y-71928628D01*
X51077200Y-71857200D01*
X51077200Y-72000057D01*
X52862914Y-72357200D02*
X53577200Y-72357200D01*
X52720057Y-72785771D02*
X53220057Y-71285771D01*
X53720057Y-72785771D01*
X54862914Y-71785771D02*
X54862914Y-72785771D01*
X54505771Y-71214342D02*
X54148628Y-72285771D01*
X55077200Y-72285771D01*
X131434342Y-75585771D02*
X131434342Y-74085771D01*
X132791485Y-75585771D02*
X132791485Y-74085771D01*
X132791485Y-75514342D02*
X132648628Y-75585771D01*
X132362914Y-75585771D01*
X132220057Y-75514342D01*
X132148628Y-75442914D01*
X132077200Y-75300057D01*
X132077200Y-74871485D01*
X132148628Y-74728628D01*
X132220057Y-74657200D01*
X132362914Y-74585771D01*
X132648628Y-74585771D01*
X132791485Y-74657200D01*
X133505771Y-75442914D02*
X133577200Y-75514342D01*
X133505771Y-75585771D01*
X133434342Y-75514342D01*
X133505771Y-75442914D01*
X133505771Y-75585771D01*
X133505771Y-74657200D02*
X133577200Y-74728628D01*
X133505771Y-74800057D01*
X133434342Y-74728628D01*
X133505771Y-74657200D01*
X133505771Y-74800057D01*
X136148628Y-75585771D02*
X135291485Y-75585771D01*
X135720057Y-75585771D02*
X135720057Y-74085771D01*
X135577200Y-74300057D01*
X135434342Y-74442914D01*
X135291485Y-74514342D01*
X137862914Y-74014342D02*
X136577200Y-75942914D01*
X139148628Y-75585771D02*
X138291485Y-75585771D01*
X138720057Y-75585771D02*
X138720057Y-74085771D01*
X138577200Y-74300057D01*
X138434342Y-74442914D01*
X138291485Y-74514342D01*
X45002200Y-66507200D02*
X153002200Y-66507200D01*
D12*
X46714580Y-67211961D02*
X47857438Y-67211961D01*
X47036009Y-69211961D02*
X47286009Y-67211961D01*
X48274104Y-69211961D02*
X48440771Y-67878628D01*
X48524104Y-67211961D02*
X48416961Y-67307200D01*
X48500295Y-67402438D01*
X48607438Y-67307200D01*
X48524104Y-67211961D01*
X48500295Y-67402438D01*
X49107438Y-67878628D02*
X49869342Y-67878628D01*
X49476485Y-67211961D02*
X49262200Y-68926247D01*
X49333628Y-69116723D01*
X49512200Y-69211961D01*
X49702676Y-69211961D01*
X50655057Y-69211961D02*
X50476485Y-69116723D01*
X50405057Y-68926247D01*
X50619342Y-67211961D01*
X52190771Y-69116723D02*
X51988390Y-69211961D01*
X51607438Y-69211961D01*
X51428866Y-69116723D01*
X51357438Y-68926247D01*
X51452676Y-68164342D01*
X51571723Y-67973866D01*
X51774104Y-67878628D01*
X52155057Y-67878628D01*
X52333628Y-67973866D01*
X52405057Y-68164342D01*
X52381247Y-68354819D01*
X51405057Y-68545295D01*
X53155057Y-69021485D02*
X53238390Y-69116723D01*
X53131247Y-69211961D01*
X53047914Y-69116723D01*
X53155057Y-69021485D01*
X53131247Y-69211961D01*
X53286009Y-67973866D02*
X53369342Y-68069104D01*
X53262200Y-68164342D01*
X53178866Y-68069104D01*
X53286009Y-67973866D01*
X53262200Y-68164342D01*
X56631247Y-67878628D02*
X56464580Y-69211961D01*
X55774104Y-67878628D02*
X55643152Y-68926247D01*
X55714580Y-69116723D01*
X55893152Y-69211961D01*
X56178866Y-69211961D01*
X56381247Y-69116723D01*
X56488390Y-69021485D01*
X57416961Y-69211961D02*
X57666961Y-67211961D01*
X58143152Y-67211961D01*
X58416961Y-67307200D01*
X58583628Y-67497676D01*
X58655057Y-67688152D01*
X58702676Y-68069104D01*
X58666961Y-68354819D01*
X58524104Y-68735771D01*
X58405057Y-68926247D01*
X58190771Y-69116723D01*
X57893152Y-69211961D01*
X57416961Y-69211961D01*
X59333628Y-69116723D02*
X59607438Y-69211961D01*
X60083628Y-69211961D01*
X60286009Y-69116723D01*
X60393152Y-69021485D01*
X60512200Y-68831009D01*
X60536009Y-68640533D01*
X60464580Y-68450057D01*
X60381247Y-68354819D01*
X60202676Y-68259580D01*
X59833628Y-68164342D01*
X59655057Y-68069104D01*
X59571723Y-67973866D01*
X59500295Y-67783390D01*
X59524104Y-67592914D01*
X59643152Y-67402438D01*
X59750295Y-67307200D01*
X59952676Y-67211961D01*
X60428866Y-67211961D01*
X60702676Y-67307200D01*
X61321723Y-69211961D02*
X61571723Y-67211961D01*
X62333628Y-67211961D01*
X62512200Y-67307200D01*
X62595533Y-67402438D01*
X62666961Y-67592914D01*
X62631247Y-67878628D01*
X62512200Y-68069104D01*
X62405057Y-68164342D01*
X62202676Y-68259580D01*
X61440771Y-68259580D01*
D10*
X46934342Y-64600057D02*
X46434342Y-64600057D01*
X46434342Y-65385771D02*
X46434342Y-63885771D01*
X47148628Y-63885771D01*
X47720057Y-65385771D02*
X47720057Y-64385771D01*
X47720057Y-63885771D02*
X47648628Y-63957200D01*
X47720057Y-64028628D01*
X47791485Y-63957200D01*
X47720057Y-63885771D01*
X47720057Y-64028628D01*
X48648628Y-65385771D02*
X48505771Y-65314342D01*
X48434342Y-65171485D01*
X48434342Y-63885771D01*
X49791485Y-65314342D02*
X49648628Y-65385771D01*
X49362914Y-65385771D01*
X49220057Y-65314342D01*
X49148628Y-65171485D01*
X49148628Y-64600057D01*
X49220057Y-64457200D01*
X49362914Y-64385771D01*
X49648628Y-64385771D01*
X49791485Y-64457200D01*
X49862914Y-64600057D01*
X49862914Y-64742914D01*
X49148628Y-64885771D01*
X50505771Y-65242914D02*
X50577200Y-65314342D01*
X50505771Y-65385771D01*
X50434342Y-65314342D01*
X50505771Y-65242914D01*
X50505771Y-65385771D01*
X50505771Y-64457200D02*
X50577200Y-64528628D01*
X50505771Y-64600057D01*
X50434342Y-64528628D01*
X50505771Y-64457200D01*
X50505771Y-64600057D01*
X53005771Y-64385771D02*
X53005771Y-65385771D01*
X52362914Y-64385771D02*
X52362914Y-65171485D01*
X52434342Y-65314342D01*
X52577200Y-65385771D01*
X52791485Y-65385771D01*
X52934342Y-65314342D01*
X53005771Y-65242914D01*
X54577200Y-65242914D02*
X54505771Y-65314342D01*
X54291485Y-65385771D01*
X54148628Y-65385771D01*
X53934342Y-65314342D01*
X53791485Y-65171485D01*
X53720057Y-65028628D01*
X53648628Y-64742914D01*
X53648628Y-64528628D01*
X53720057Y-64242914D01*
X53791485Y-64100057D01*
X53934342Y-63957200D01*
X54148628Y-63885771D01*
X54291485Y-63885771D01*
X54505771Y-63957200D01*
X54577200Y-64028628D01*
X55505771Y-63885771D02*
X55791485Y-63885771D01*
X55934342Y-63957200D01*
X56077200Y-64100057D01*
X56148628Y-64385771D01*
X56148628Y-64885771D01*
X56077200Y-65171485D01*
X55934342Y-65314342D01*
X55791485Y-65385771D01*
X55505771Y-65385771D01*
X55362914Y-65314342D01*
X55220057Y-65171485D01*
X55148628Y-64885771D01*
X55148628Y-64385771D01*
X55220057Y-64100057D01*
X55362914Y-63957200D01*
X55505771Y-63885771D01*
X56791485Y-65385771D02*
X56791485Y-63885771D01*
X57148628Y-63885771D01*
X57362914Y-63957200D01*
X57505771Y-64100057D01*
X57577200Y-64242914D01*
X57648628Y-64528628D01*
X57648628Y-64742914D01*
X57577200Y-65028628D01*
X57505771Y-65171485D01*
X57362914Y-65314342D01*
X57148628Y-65385771D01*
X56791485Y-65385771D01*
X58291485Y-64600057D02*
X58791485Y-64600057D01*
X59005771Y-65385771D02*
X58291485Y-65385771D01*
X58291485Y-63885771D01*
X59005771Y-63885771D01*
X60505771Y-65242914D02*
X60434342Y-65314342D01*
X60220057Y-65385771D01*
X60077200Y-65385771D01*
X59862914Y-65314342D01*
X59720057Y-65171485D01*
X59648628Y-65028628D01*
X59577200Y-64742914D01*
X59577200Y-64528628D01*
X59648628Y-64242914D01*
X59720057Y-64100057D01*
X59862914Y-63957200D01*
X60077200Y-63885771D01*
X60220057Y-63885771D01*
X60434342Y-63957200D01*
X60505771Y-64028628D01*
X61148628Y-64814342D02*
X62291485Y-64814342D01*
X63791485Y-65385771D02*
X62934342Y-65385771D01*
X63362914Y-65385771D02*
X63362914Y-63885771D01*
X63220057Y-64100057D01*
X63077200Y-64242914D01*
X62934342Y-64314342D01*
X64434342Y-65242914D02*
X64505771Y-65314342D01*
X64434342Y-65385771D01*
X64362914Y-65314342D01*
X64434342Y-65242914D01*
X64434342Y-65385771D01*
X65434342Y-63885771D02*
X65577200Y-63885771D01*
X65720057Y-63957200D01*
X65791485Y-64028628D01*
X65862914Y-64171485D01*
X65934342Y-64457200D01*
X65934342Y-64814342D01*
X65862914Y-65100057D01*
X65791485Y-65242914D01*
X65720057Y-65314342D01*
X65577200Y-65385771D01*
X65434342Y-65385771D01*
X65291485Y-65314342D01*
X65220057Y-65242914D01*
X65148628Y-65100057D01*
X65077200Y-64814342D01*
X65077200Y-64457200D01*
X65148628Y-64171485D01*
X65220057Y-64028628D01*
X65291485Y-63957200D01*
X65434342Y-63885771D01*
X66577200Y-65242914D02*
X66648628Y-65314342D01*
X66577200Y-65385771D01*
X66505771Y-65314342D01*
X66577200Y-65242914D01*
X66577200Y-65385771D01*
X67291485Y-65385771D02*
X67291485Y-63885771D01*
X67434342Y-64814342D02*
X67862914Y-65385771D01*
X67862914Y-64385771D02*
X67291485Y-64957200D01*
X68505771Y-65385771D02*
X68505771Y-64385771D01*
X68505771Y-63885771D02*
X68434342Y-63957200D01*
X68505771Y-64028628D01*
X68577200Y-63957200D01*
X68505771Y-63885771D01*
X68505771Y-64028628D01*
X69862914Y-65314342D02*
X69720057Y-65385771D01*
X69434342Y-65385771D01*
X69291485Y-65314342D01*
X69220057Y-65242914D01*
X69148628Y-65100057D01*
X69148628Y-64671485D01*
X69220057Y-64528628D01*
X69291485Y-64457200D01*
X69434342Y-64385771D01*
X69720057Y-64385771D01*
X69862914Y-64457200D01*
X71148628Y-65385771D02*
X71148628Y-64600057D01*
X71077200Y-64457200D01*
X70934342Y-64385771D01*
X70648628Y-64385771D01*
X70505771Y-64457200D01*
X71148628Y-65314342D02*
X71005771Y-65385771D01*
X70648628Y-65385771D01*
X70505771Y-65314342D01*
X70434342Y-65171485D01*
X70434342Y-65028628D01*
X70505771Y-64885771D01*
X70648628Y-64814342D01*
X71005771Y-64814342D01*
X71148628Y-64742914D01*
X72505771Y-65385771D02*
X72505771Y-63885771D01*
X72505771Y-65314342D02*
X72362914Y-65385771D01*
X72077200Y-65385771D01*
X71934342Y-65314342D01*
X71862914Y-65242914D01*
X71791485Y-65100057D01*
X71791485Y-64671485D01*
X71862914Y-64528628D01*
X71934342Y-64457200D01*
X72077200Y-64385771D01*
X72362914Y-64385771D01*
X72505771Y-64457200D01*
X72862914Y-65528628D02*
X74005771Y-65528628D01*
X74362914Y-64385771D02*
X74362914Y-65885771D01*
X74362914Y-64457200D02*
X74505771Y-64385771D01*
X74791485Y-64385771D01*
X74934342Y-64457200D01*
X75005771Y-64528628D01*
X75077200Y-64671485D01*
X75077200Y-65100057D01*
X75005771Y-65242914D01*
X74934342Y-65314342D01*
X74791485Y-65385771D01*
X74505771Y-65385771D01*
X74362914Y-65314342D01*
X76362914Y-65314342D02*
X76220057Y-65385771D01*
X75934342Y-65385771D01*
X75791485Y-65314342D01*
X75720057Y-65242914D01*
X75648628Y-65100057D01*
X75648628Y-64671485D01*
X75720057Y-64528628D01*
X75791485Y-64457200D01*
X75934342Y-64385771D01*
X76220057Y-64385771D01*
X76362914Y-64457200D01*
X77005771Y-65385771D02*
X77005771Y-63885771D01*
X77005771Y-64457200D02*
X77148628Y-64385771D01*
X77434342Y-64385771D01*
X77577200Y-64457200D01*
X77648628Y-64528628D01*
X77720057Y-64671485D01*
X77720057Y-65100057D01*
X77648628Y-65242914D01*
X77577200Y-65314342D01*
X77434342Y-65385771D01*
X77148628Y-65385771D01*
X77005771Y-65314342D01*
X45002200Y-60507200D02*
X153002200Y-60507200D01*
X46362914Y-62614342D02*
X46577200Y-62685771D01*
X46934342Y-62685771D01*
X47077200Y-62614342D01*
X47148628Y-62542914D01*
X47220057Y-62400057D01*
X47220057Y-62257200D01*
X47148628Y-62114342D01*
X47077200Y-62042914D01*
X46934342Y-61971485D01*
X46648628Y-61900057D01*
X46505771Y-61828628D01*
X46434342Y-61757200D01*
X46362914Y-61614342D01*
X46362914Y-61471485D01*
X46434342Y-61328628D01*
X46505771Y-61257200D01*
X46648628Y-61185771D01*
X47005771Y-61185771D01*
X47220057Y-61257200D01*
X47862914Y-62685771D02*
X47862914Y-61185771D01*
X48505771Y-62685771D02*
X48505771Y-61900057D01*
X48434342Y-61757200D01*
X48291485Y-61685771D01*
X48077200Y-61685771D01*
X47934342Y-61757200D01*
X47862914Y-61828628D01*
X49791485Y-62614342D02*
X49648628Y-62685771D01*
X49362914Y-62685771D01*
X49220057Y-62614342D01*
X49148628Y-62471485D01*
X49148628Y-61900057D01*
X49220057Y-61757200D01*
X49362914Y-61685771D01*
X49648628Y-61685771D01*
X49791485Y-61757200D01*
X49862914Y-61900057D01*
X49862914Y-62042914D01*
X49148628Y-62185771D01*
X51077200Y-62614342D02*
X50934342Y-62685771D01*
X50648628Y-62685771D01*
X50505771Y-62614342D01*
X50434342Y-62471485D01*
X50434342Y-61900057D01*
X50505771Y-61757200D01*
X50648628Y-61685771D01*
X50934342Y-61685771D01*
X51077200Y-61757200D01*
X51148628Y-61900057D01*
X51148628Y-62042914D01*
X50434342Y-62185771D01*
X51577200Y-61685771D02*
X52148628Y-61685771D01*
X51791485Y-61185771D02*
X51791485Y-62471485D01*
X51862914Y-62614342D01*
X52005771Y-62685771D01*
X52148628Y-62685771D01*
X52648628Y-62542914D02*
X52720057Y-62614342D01*
X52648628Y-62685771D01*
X52577200Y-62614342D01*
X52648628Y-62542914D01*
X52648628Y-62685771D01*
X52648628Y-61757200D02*
X52720057Y-61828628D01*
X52648628Y-61900057D01*
X52577200Y-61828628D01*
X52648628Y-61757200D01*
X52648628Y-61900057D01*
D11*
X46840057Y-58185771D02*
X47125771Y-58185771D01*
X47268628Y-58257200D01*
X47411485Y-58400057D01*
X47482914Y-58685771D01*
X47482914Y-59185771D01*
X47411485Y-59471485D01*
X47268628Y-59614342D01*
X47125771Y-59685771D01*
X46840057Y-59685771D01*
X46697200Y-59614342D01*
X46554342Y-59471485D01*
X46482914Y-59185771D01*
X46482914Y-58685771D01*
X46554342Y-58400057D01*
X46697200Y-58257200D01*
X46840057Y-58185771D01*
X48125771Y-58685771D02*
X48125771Y-60185771D01*
X48125771Y-58757200D02*
X48268628Y-58685771D01*
X48554342Y-58685771D01*
X48697200Y-58757200D01*
X48768628Y-58828628D01*
X48840057Y-58971485D01*
X48840057Y-59400057D01*
X48768628Y-59542914D01*
X48697200Y-59614342D01*
X48554342Y-59685771D01*
X48268628Y-59685771D01*
X48125771Y-59614342D01*
X50054342Y-59614342D02*
X49911485Y-59685771D01*
X49625771Y-59685771D01*
X49482914Y-59614342D01*
X49411485Y-59471485D01*
X49411485Y-58900057D01*
X49482914Y-58757200D01*
X49625771Y-58685771D01*
X49911485Y-58685771D01*
X50054342Y-58757200D01*
X50125771Y-58900057D01*
X50125771Y-59042914D01*
X49411485Y-59185771D01*
X50768628Y-58685771D02*
X50768628Y-59685771D01*
X50768628Y-58828628D02*
X50840057Y-58757200D01*
X50982914Y-58685771D01*
X51197200Y-58685771D01*
X51340057Y-58757200D01*
X51411485Y-58900057D01*
X51411485Y-59685771D01*
X53268628Y-59685771D02*
X53268628Y-58185771D01*
X53268628Y-58900057D02*
X54125771Y-58900057D01*
X54125771Y-59685771D02*
X54125771Y-58185771D01*
X55482914Y-59685771D02*
X55482914Y-58900057D01*
X55411485Y-58757200D01*
X55268628Y-58685771D01*
X54982914Y-58685771D01*
X54840057Y-58757200D01*
X55482914Y-59614342D02*
X55340057Y-59685771D01*
X54982914Y-59685771D01*
X54840057Y-59614342D01*
X54768628Y-59471485D01*
X54768628Y-59328628D01*
X54840057Y-59185771D01*
X54982914Y-59114342D01*
X55340057Y-59114342D01*
X55482914Y-59042914D01*
X56197200Y-59685771D02*
X56197200Y-58685771D01*
X56197200Y-58971485D02*
X56268628Y-58828628D01*
X56340057Y-58757200D01*
X56482914Y-58685771D01*
X56625771Y-58685771D01*
X57768628Y-59685771D02*
X57768628Y-58185771D01*
X57768628Y-59614342D02*
X57625771Y-59685771D01*
X57340057Y-59685771D01*
X57197200Y-59614342D01*
X57125771Y-59542914D01*
X57054342Y-59400057D01*
X57054342Y-58971485D01*
X57125771Y-58828628D01*
X57197200Y-58757200D01*
X57340057Y-58685771D01*
X57625771Y-58685771D01*
X57768628Y-58757200D01*
X58340057Y-58685771D02*
X58625771Y-59685771D01*
X58911485Y-58971485D01*
X59197200Y-59685771D01*
X59482914Y-58685771D01*
X60697200Y-59685771D02*
X60697200Y-58900057D01*
X60625771Y-58757200D01*
X60482914Y-58685771D01*
X60197200Y-58685771D01*
X60054342Y-58757200D01*
X60697200Y-59614342D02*
X60554342Y-59685771D01*
X60197200Y-59685771D01*
X60054342Y-59614342D01*
X59982914Y-59471485D01*
X59982914Y-59328628D01*
X60054342Y-59185771D01*
X60197200Y-59114342D01*
X60554342Y-59114342D01*
X60697200Y-59042914D01*
X61411485Y-59685771D02*
X61411485Y-58685771D01*
X61411485Y-58971485D02*
X61482914Y-58828628D01*
X61554342Y-58757200D01*
X61697200Y-58685771D01*
X61840057Y-58685771D01*
X62911485Y-59614342D02*
X62768628Y-59685771D01*
X62482914Y-59685771D01*
X62340057Y-59614342D01*
X62268628Y-59471485D01*
X62268628Y-58900057D01*
X62340057Y-58757200D01*
X62482914Y-58685771D01*
X62768628Y-58685771D01*
X62911485Y-58757200D01*
X62982914Y-58900057D01*
X62982914Y-59042914D01*
X62268628Y-59185771D01*
X64768628Y-59685771D02*
X64768628Y-58185771D01*
X65125771Y-58185771D01*
X65340057Y-58257200D01*
X65482914Y-58400057D01*
X65554342Y-58542914D01*
X65625771Y-58828628D01*
X65625771Y-59042914D01*
X65554342Y-59328628D01*
X65482914Y-59471485D01*
X65340057Y-59614342D01*
X65125771Y-59685771D01*
X64768628Y-59685771D01*
X66197200Y-59614342D02*
X66411485Y-59685771D01*
X66768628Y-59685771D01*
X66911485Y-59614342D01*
X66982914Y-59542914D01*
X67054342Y-59400057D01*
X67054342Y-59257200D01*
X66982914Y-59114342D01*
X66911485Y-59042914D01*
X66768628Y-58971485D01*
X66482914Y-58900057D01*
X66340057Y-58828628D01*
X66268628Y-58757200D01*
X66197200Y-58614342D01*
X66197200Y-58471485D01*
X66268628Y-58328628D01*
X66340057Y-58257200D01*
X66482914Y-58185771D01*
X66840057Y-58185771D01*
X67054342Y-58257200D01*
X67697200Y-59685771D02*
X67697200Y-58185771D01*
X68268628Y-58185771D01*
X68411485Y-58257200D01*
X68482914Y-58328628D01*
X68554342Y-58471485D01*
X68554342Y-58685771D01*
X68482914Y-58828628D01*
X68411485Y-58900057D01*
X68268628Y-58971485D01*
X67697200Y-58971485D01*
X70340057Y-59685771D02*
X70340057Y-58185771D01*
X70911485Y-58185771D01*
X71054342Y-58257200D01*
X71125771Y-58328628D01*
X71197200Y-58471485D01*
X71197200Y-58685771D01*
X71125771Y-58828628D01*
X71054342Y-58900057D01*
X70911485Y-58971485D01*
X70340057Y-58971485D01*
X72054342Y-59685771D02*
X71911485Y-59614342D01*
X71840057Y-59471485D01*
X71840057Y-58185771D01*
X73268628Y-59685771D02*
X73268628Y-58900057D01*
X73197200Y-58757200D01*
X73054342Y-58685771D01*
X72768628Y-58685771D01*
X72625771Y-58757200D01*
X73268628Y-59614342D02*
X73125771Y-59685771D01*
X72768628Y-59685771D01*
X72625771Y-59614342D01*
X72554342Y-59471485D01*
X72554342Y-59328628D01*
X72625771Y-59185771D01*
X72768628Y-59114342D01*
X73125771Y-59114342D01*
X73268628Y-59042914D01*
X73768628Y-58685771D02*
X74340057Y-58685771D01*
X73982914Y-58185771D02*
X73982914Y-59471485D01*
X74054342Y-59614342D01*
X74197200Y-59685771D01*
X74340057Y-59685771D01*
X74625771Y-58685771D02*
X75197200Y-58685771D01*
X74840057Y-59685771D02*
X74840057Y-58400057D01*
X74911485Y-58257200D01*
X75054342Y-58185771D01*
X75197200Y-58185771D01*
X75911485Y-59685771D02*
X75768628Y-59614342D01*
X75697200Y-59542914D01*
X75625771Y-59400057D01*
X75625771Y-58971485D01*
X75697200Y-58828628D01*
X75768628Y-58757200D01*
X75911485Y-58685771D01*
X76125771Y-58685771D01*
X76268628Y-58757200D01*
X76340057Y-58828628D01*
X76411485Y-58971485D01*
X76411485Y-59400057D01*
X76340057Y-59542914D01*
X76268628Y-59614342D01*
X76125771Y-59685771D01*
X75911485Y-59685771D01*
X77054342Y-59685771D02*
X77054342Y-58685771D01*
X77054342Y-58971485D02*
X77125771Y-58828628D01*
X77197200Y-58757200D01*
X77340057Y-58685771D01*
X77482914Y-58685771D01*
X77982914Y-59685771D02*
X77982914Y-58685771D01*
X77982914Y-58828628D02*
X78054342Y-58757200D01*
X78197200Y-58685771D01*
X78411485Y-58685771D01*
X78554342Y-58757200D01*
X78625771Y-58900057D01*
X78625771Y-59685771D01*
X78625771Y-58900057D02*
X78697200Y-58757200D01*
X78840057Y-58685771D01*
X79054342Y-58685771D01*
X79197200Y-58757200D01*
X79268628Y-58900057D01*
X79268628Y-59685771D01*
X81125771Y-59114342D02*
X82268628Y-59114342D01*
X83982914Y-58685771D02*
X84268628Y-59685771D01*
X84554342Y-58971485D01*
X84840057Y-59685771D01*
X85125771Y-58685771D01*
X85554342Y-58685771D02*
X85840057Y-59685771D01*
X86125771Y-58971485D01*
X86411485Y-59685771D01*
X86697200Y-58685771D01*
X87125771Y-58685771D02*
X87411485Y-59685771D01*
X87697200Y-58971485D01*
X87982914Y-59685771D01*
X88268628Y-58685771D01*
X88840057Y-59542914D02*
X88911485Y-59614342D01*
X88840057Y-59685771D01*
X88768628Y-59614342D01*
X88840057Y-59542914D01*
X88840057Y-59685771D01*
X89768628Y-59685771D02*
X89625771Y-59614342D01*
X89554342Y-59542914D01*
X89482914Y-59400057D01*
X89482914Y-58971485D01*
X89554342Y-58828628D01*
X89625771Y-58757200D01*
X89768628Y-58685771D01*
X89982914Y-58685771D01*
X90125771Y-58757200D01*
X90197200Y-58828628D01*
X90268628Y-58971485D01*
X90268628Y-59400057D01*
X90197200Y-59542914D01*
X90125771Y-59614342D01*
X89982914Y-59685771D01*
X89768628Y-59685771D01*
X90911485Y-59685771D02*
X90911485Y-58185771D01*
X91554342Y-59685771D02*
X91554342Y-58900057D01*
X91482914Y-58757200D01*
X91340057Y-58685771D01*
X91125771Y-58685771D01*
X90982914Y-58757200D01*
X90911485Y-58828628D01*
X92911485Y-59685771D02*
X92911485Y-58185771D01*
X92911485Y-59614342D02*
X92768628Y-59685771D01*
X92482914Y-59685771D01*
X92340057Y-59614342D01*
X92268628Y-59542914D01*
X92197200Y-59400057D01*
X92197200Y-58971485D01*
X92268628Y-58828628D01*
X92340057Y-58757200D01*
X92482914Y-58685771D01*
X92768628Y-58685771D01*
X92911485Y-58757200D01*
X93554342Y-59614342D02*
X93697200Y-59685771D01*
X93982914Y-59685771D01*
X94125771Y-59614342D01*
X94197200Y-59471485D01*
X94197200Y-59400057D01*
X94125771Y-59257200D01*
X93982914Y-59185771D01*
X93768628Y-59185771D01*
X93625771Y-59114342D01*
X93554342Y-58971485D01*
X93554342Y-58900057D01*
X93625771Y-58757200D01*
X93768628Y-58685771D01*
X93982914Y-58685771D01*
X94125771Y-58757200D01*
X94840057Y-58685771D02*
X94840057Y-60185771D01*
X94840057Y-58757200D02*
X94982914Y-58685771D01*
X95268628Y-58685771D01*
X95411485Y-58757200D01*
X95482914Y-58828628D01*
X95554342Y-58971485D01*
X95554342Y-59400057D01*
X95482914Y-59542914D01*
X95411485Y-59614342D01*
X95268628Y-59685771D01*
X94982914Y-59685771D01*
X94840057Y-59614342D01*
X96197200Y-59542914D02*
X96268628Y-59614342D01*
X96197200Y-59685771D01*
X96125771Y-59614342D01*
X96197200Y-59542914D01*
X96197200Y-59685771D01*
X97125771Y-59685771D02*
X96982914Y-59614342D01*
X96911485Y-59542914D01*
X96840057Y-59400057D01*
X96840057Y-58971485D01*
X96911485Y-58828628D01*
X96982914Y-58757200D01*
X97125771Y-58685771D01*
X97340057Y-58685771D01*
X97482914Y-58757200D01*
X97554342Y-58828628D01*
X97625771Y-58971485D01*
X97625771Y-59400057D01*
X97554342Y-59542914D01*
X97482914Y-59614342D01*
X97340057Y-59685771D01*
X97125771Y-59685771D01*
X98268628Y-59685771D02*
X98268628Y-58685771D01*
X98268628Y-58971485D02*
X98340057Y-58828628D01*
X98411485Y-58757200D01*
X98554342Y-58685771D01*
X98697200Y-58685771D01*
X99840057Y-58685771D02*
X99840057Y-59900057D01*
X99768628Y-60042914D01*
X99697200Y-60114342D01*
X99554342Y-60185771D01*
X99340057Y-60185771D01*
X99197200Y-60114342D01*
X99840057Y-59614342D02*
X99697200Y-59685771D01*
X99411485Y-59685771D01*
X99268628Y-59614342D01*
X99197200Y-59542914D01*
X99125771Y-59400057D01*
X99125771Y-58971485D01*
X99197200Y-58828628D01*
X99268628Y-58757200D01*
X99411485Y-58685771D01*
X99697200Y-58685771D01*
X99840057Y-58757200D01*
D10*
X46434342Y-56685771D02*
X46434342Y-55185771D01*
X46934342Y-56257200D01*
X47434342Y-55185771D01*
X47434342Y-56685771D01*
X48148628Y-55900057D02*
X48648628Y-55900057D01*
X48862914Y-56685771D02*
X48148628Y-56685771D01*
X48148628Y-55185771D01*
X48862914Y-55185771D01*
X50362914Y-56685771D02*
X49862914Y-55971485D01*
X49505771Y-56685771D02*
X49505771Y-55185771D01*
X50077200Y-55185771D01*
X50220057Y-55257200D01*
X50291485Y-55328628D01*
X50362914Y-55471485D01*
X50362914Y-55685771D01*
X50291485Y-55828628D01*
X50220057Y-55900057D01*
X50077200Y-55971485D01*
X49505771Y-55971485D01*
X51862914Y-56542914D02*
X51791485Y-56614342D01*
X51577200Y-56685771D01*
X51434342Y-56685771D01*
X51220057Y-56614342D01*
X51077200Y-56471485D01*
X51005771Y-56328628D01*
X50934342Y-56042914D01*
X50934342Y-55828628D01*
X51005771Y-55542914D01*
X51077200Y-55400057D01*
X51220057Y-55257200D01*
X51434342Y-55185771D01*
X51577200Y-55185771D01*
X51791485Y-55257200D01*
X51862914Y-55328628D01*
X52505771Y-56685771D02*
X52505771Y-55185771D01*
X52505771Y-55900057D02*
X53362914Y-55900057D01*
X53362914Y-56685771D02*
X53362914Y-55185771D01*
X54005771Y-56257200D02*
X54720057Y-56257200D01*
X53862914Y-56685771D02*
X54362914Y-55185771D01*
X54862914Y-56685771D01*
X55362914Y-56685771D02*
X55362914Y-55185771D01*
X56220057Y-56685771D01*
X56220057Y-55185771D01*
X56720057Y-55185771D02*
X57577200Y-55185771D01*
X57148628Y-56685771D02*
X57148628Y-55185771D01*
X58005771Y-56257200D02*
X58720057Y-56257200D01*
X57862914Y-56685771D02*
X58362914Y-55185771D01*
X58862914Y-56685771D01*
X59862914Y-55900057D02*
X60077200Y-55971485D01*
X60148628Y-56042914D01*
X60220057Y-56185771D01*
X60220057Y-56400057D01*
X60148628Y-56542914D01*
X60077200Y-56614342D01*
X59934342Y-56685771D01*
X59362914Y-56685771D01*
X59362914Y-55185771D01*
X59862914Y-55185771D01*
X60005771Y-55257200D01*
X60077200Y-55328628D01*
X60148628Y-55471485D01*
X60148628Y-55614342D01*
X60077200Y-55757200D01*
X60005771Y-55828628D01*
X59862914Y-55900057D01*
X59362914Y-55900057D01*
X60862914Y-56685771D02*
X60862914Y-55185771D01*
X62291485Y-56685771D02*
X61577200Y-56685771D01*
X61577200Y-55185771D01*
X62791485Y-56685771D02*
X62791485Y-55185771D01*
X63291485Y-55185771D02*
X64148628Y-55185771D01*
X63720057Y-56685771D02*
X63720057Y-55185771D01*
X64934342Y-55971485D02*
X64934342Y-56685771D01*
X64434342Y-55185771D02*
X64934342Y-55971485D01*
X65434342Y-55185771D01*
X66005771Y-56614342D02*
X66005771Y-56685771D01*
X65934342Y-56828628D01*
X65862914Y-56900057D01*
X67720057Y-56614342D02*
X67934342Y-56685771D01*
X68291485Y-56685771D01*
X68434342Y-56614342D01*
X68505771Y-56542914D01*
X68577200Y-56400057D01*
X68577200Y-56257200D01*
X68505771Y-56114342D01*
X68434342Y-56042914D01*
X68291485Y-55971485D01*
X68005771Y-55900057D01*
X67862914Y-55828628D01*
X67791485Y-55757200D01*
X67720057Y-55614342D01*
X67720057Y-55471485D01*
X67791485Y-55328628D01*
X67862914Y-55257200D01*
X68005771Y-55185771D01*
X68362914Y-55185771D01*
X68577200Y-55257200D01*
X69148628Y-56257200D02*
X69862914Y-56257200D01*
X69005771Y-56685771D02*
X69505771Y-55185771D01*
X70005771Y-56685771D01*
X70291485Y-55185771D02*
X71148628Y-55185771D01*
X70720057Y-56685771D02*
X70720057Y-55185771D01*
X71648628Y-56685771D02*
X71648628Y-55185771D01*
X72291485Y-56614342D02*
X72505771Y-56685771D01*
X72862914Y-56685771D01*
X73005771Y-56614342D01*
X73077200Y-56542914D01*
X73148628Y-56400057D01*
X73148628Y-56257200D01*
X73077200Y-56114342D01*
X73005771Y-56042914D01*
X72862914Y-55971485D01*
X72577200Y-55900057D01*
X72434342Y-55828628D01*
X72362914Y-55757200D01*
X72291485Y-55614342D01*
X72291485Y-55471485D01*
X72362914Y-55328628D01*
X72434342Y-55257200D01*
X72577200Y-55185771D01*
X72934342Y-55185771D01*
X73148628Y-55257200D01*
X74291485Y-55900057D02*
X73791485Y-55900057D01*
X73791485Y-56685771D02*
X73791485Y-55185771D01*
X74505771Y-55185771D01*
X75005771Y-56257200D02*
X75720057Y-56257200D01*
X74862914Y-56685771D02*
X75362914Y-55185771D01*
X75862914Y-56685771D01*
X77220057Y-56542914D02*
X77148628Y-56614342D01*
X76934342Y-56685771D01*
X76791485Y-56685771D01*
X76577200Y-56614342D01*
X76434342Y-56471485D01*
X76362914Y-56328628D01*
X76291485Y-56042914D01*
X76291485Y-55828628D01*
X76362914Y-55542914D01*
X76434342Y-55400057D01*
X76577200Y-55257200D01*
X76791485Y-55185771D01*
X76934342Y-55185771D01*
X77148628Y-55257200D01*
X77220057Y-55328628D01*
X77648628Y-55185771D02*
X78505771Y-55185771D01*
X78077200Y-56685771D02*
X78077200Y-55185771D01*
X79291485Y-55185771D02*
X79577200Y-55185771D01*
X79720057Y-55257200D01*
X79862914Y-55400057D01*
X79934342Y-55685771D01*
X79934342Y-56185771D01*
X79862914Y-56471485D01*
X79720057Y-56614342D01*
X79577200Y-56685771D01*
X79291485Y-56685771D01*
X79148628Y-56614342D01*
X79005771Y-56471485D01*
X78934342Y-56185771D01*
X78934342Y-55685771D01*
X79005771Y-55400057D01*
X79148628Y-55257200D01*
X79291485Y-55185771D01*
X81434342Y-56685771D02*
X80934342Y-55971485D01*
X80577200Y-56685771D02*
X80577200Y-55185771D01*
X81148628Y-55185771D01*
X81291485Y-55257200D01*
X81362914Y-55328628D01*
X81434342Y-55471485D01*
X81434342Y-55685771D01*
X81362914Y-55828628D01*
X81291485Y-55900057D01*
X81148628Y-55971485D01*
X80577200Y-55971485D01*
X82362914Y-55971485D02*
X82362914Y-56685771D01*
X81862914Y-55185771D02*
X82362914Y-55971485D01*
X82862914Y-55185771D01*
X85505771Y-56828628D02*
X85362914Y-56757200D01*
X85220057Y-56614342D01*
X85005771Y-56400057D01*
X84862914Y-56328628D01*
X84720057Y-56328628D01*
X84791485Y-56685771D02*
X84648628Y-56614342D01*
X84505771Y-56471485D01*
X84434342Y-56185771D01*
X84434342Y-55685771D01*
X84505771Y-55400057D01*
X84648628Y-55257200D01*
X84791485Y-55185771D01*
X85077200Y-55185771D01*
X85220057Y-55257200D01*
X85362914Y-55400057D01*
X85434342Y-55685771D01*
X85434342Y-56185771D01*
X85362914Y-56471485D01*
X85220057Y-56614342D01*
X85077200Y-56685771D01*
X84791485Y-56685771D01*
X86077200Y-55185771D02*
X86077200Y-56400057D01*
X86148628Y-56542914D01*
X86220057Y-56614342D01*
X86362914Y-56685771D01*
X86648628Y-56685771D01*
X86791485Y-56614342D01*
X86862914Y-56542914D01*
X86934342Y-56400057D01*
X86934342Y-55185771D01*
X87577200Y-56257200D02*
X88291485Y-56257200D01*
X87434342Y-56685771D02*
X87934342Y-55185771D01*
X88434342Y-56685771D01*
X89648628Y-56685771D02*
X88934342Y-56685771D01*
X88934342Y-55185771D01*
X90148628Y-56685771D02*
X90148628Y-55185771D01*
X90648628Y-55185771D02*
X91505771Y-55185771D01*
X91077200Y-56685771D02*
X91077200Y-55185771D01*
X92291485Y-55971485D02*
X92291485Y-56685771D01*
X91791485Y-55185771D02*
X92291485Y-55971485D01*
X92791485Y-55185771D01*
X94362914Y-56257200D02*
X95077200Y-56257200D01*
X94220057Y-56685771D02*
X94720057Y-55185771D01*
X95220057Y-56685771D01*
X95720057Y-56685771D02*
X95720057Y-55185771D01*
X96577200Y-56685771D01*
X96577200Y-55185771D01*
X97291485Y-56685771D02*
X97291485Y-55185771D01*
X97648628Y-55185771D01*
X97862914Y-55257200D01*
X98005771Y-55400057D01*
X98077200Y-55542914D01*
X98148628Y-55828628D01*
X98148628Y-56042914D01*
X98077200Y-56328628D01*
X98005771Y-56471485D01*
X97862914Y-56614342D01*
X97648628Y-56685771D01*
X97291485Y-56685771D01*
X100434342Y-55900057D02*
X99934342Y-55900057D01*
X99934342Y-56685771D02*
X99934342Y-55185771D01*
X100648628Y-55185771D01*
X101220057Y-56685771D02*
X101220057Y-55185771D01*
X101720057Y-55185771D02*
X102577200Y-55185771D01*
X102148628Y-56685771D02*
X102148628Y-55185771D01*
X103077200Y-56685771D02*
X103077200Y-55185771D01*
X103934342Y-56685771D01*
X103934342Y-55185771D01*
X104648628Y-55900057D02*
X105148628Y-55900057D01*
X105362914Y-56685771D02*
X104648628Y-56685771D01*
X104648628Y-55185771D01*
X105362914Y-55185771D01*
X105934342Y-56614342D02*
X106148628Y-56685771D01*
X106505771Y-56685771D01*
X106648628Y-56614342D01*
X106720057Y-56542914D01*
X106791485Y-56400057D01*
X106791485Y-56257200D01*
X106720057Y-56114342D01*
X106648628Y-56042914D01*
X106505771Y-55971485D01*
X106220057Y-55900057D01*
X106077200Y-55828628D01*
X106005771Y-55757200D01*
X105934342Y-55614342D01*
X105934342Y-55471485D01*
X106005771Y-55328628D01*
X106077200Y-55257200D01*
X106220057Y-55185771D01*
X106577200Y-55185771D01*
X106791485Y-55257200D01*
X107362914Y-56614342D02*
X107577200Y-56685771D01*
X107934342Y-56685771D01*
X108077200Y-56614342D01*
X108148628Y-56542914D01*
X108220057Y-56400057D01*
X108220057Y-56257200D01*
X108148628Y-56114342D01*
X108077200Y-56042914D01*
X107934342Y-55971485D01*
X107648628Y-55900057D01*
X107505771Y-55828628D01*
X107434342Y-55757200D01*
X107362914Y-55614342D01*
X107362914Y-55471485D01*
X107434342Y-55328628D01*
X107505771Y-55257200D01*
X107648628Y-55185771D01*
X108005771Y-55185771D01*
X108220057Y-55257200D01*
X110505771Y-55900057D02*
X110005771Y-55900057D01*
X110005771Y-56685771D02*
X110005771Y-55185771D01*
X110720057Y-55185771D01*
X111577200Y-55185771D02*
X111862914Y-55185771D01*
X112005771Y-55257200D01*
X112148628Y-55400057D01*
X112220057Y-55685771D01*
X112220057Y-56185771D01*
X112148628Y-56471485D01*
X112005771Y-56614342D01*
X111862914Y-56685771D01*
X111577200Y-56685771D01*
X111434342Y-56614342D01*
X111291485Y-56471485D01*
X111220057Y-56185771D01*
X111220057Y-55685771D01*
X111291485Y-55400057D01*
X111434342Y-55257200D01*
X111577200Y-55185771D01*
X113720057Y-56685771D02*
X113220057Y-55971485D01*
X112862914Y-56685771D02*
X112862914Y-55185771D01*
X113434342Y-55185771D01*
X113577200Y-55257200D01*
X113648628Y-55328628D01*
X113720057Y-55471485D01*
X113720057Y-55685771D01*
X113648628Y-55828628D01*
X113577200Y-55900057D01*
X113434342Y-55971485D01*
X112862914Y-55971485D01*
X115434342Y-56257200D02*
X116148628Y-56257200D01*
X115291485Y-56685771D02*
X115791485Y-55185771D01*
X116291485Y-56685771D01*
X117934342Y-56685771D02*
X117934342Y-55185771D01*
X118505771Y-55185771D01*
X118648628Y-55257200D01*
X118720057Y-55328628D01*
X118791485Y-55471485D01*
X118791485Y-55685771D01*
X118720057Y-55828628D01*
X118648628Y-55900057D01*
X118505771Y-55971485D01*
X117934342Y-55971485D01*
X119362914Y-56257200D02*
X120077200Y-56257200D01*
X119220057Y-56685771D02*
X119720057Y-55185771D01*
X120220057Y-56685771D01*
X121577200Y-56685771D02*
X121077200Y-55971485D01*
X120720057Y-56685771D02*
X120720057Y-55185771D01*
X121291485Y-55185771D01*
X121434342Y-55257200D01*
X121505771Y-55328628D01*
X121577200Y-55471485D01*
X121577200Y-55685771D01*
X121505771Y-55828628D01*
X121434342Y-55900057D01*
X121291485Y-55971485D01*
X120720057Y-55971485D01*
X122005771Y-55185771D02*
X122862914Y-55185771D01*
X122434342Y-56685771D02*
X122434342Y-55185771D01*
X123362914Y-56685771D02*
X123362914Y-55185771D01*
X124934342Y-56542914D02*
X124862914Y-56614342D01*
X124648628Y-56685771D01*
X124505771Y-56685771D01*
X124291485Y-56614342D01*
X124148628Y-56471485D01*
X124077200Y-56328628D01*
X124005771Y-56042914D01*
X124005771Y-55828628D01*
X124077200Y-55542914D01*
X124148628Y-55400057D01*
X124291485Y-55257200D01*
X124505771Y-55185771D01*
X124648628Y-55185771D01*
X124862914Y-55257200D01*
X124934342Y-55328628D01*
X125577200Y-55185771D02*
X125577200Y-56400057D01*
X125648628Y-56542914D01*
X125720057Y-56614342D01*
X125862914Y-56685771D01*
X126148628Y-56685771D01*
X126291485Y-56614342D01*
X126362914Y-56542914D01*
X126434342Y-56400057D01*
X126434342Y-55185771D01*
X127862914Y-56685771D02*
X127148628Y-56685771D01*
X127148628Y-55185771D01*
X128291485Y-56257200D02*
X129005771Y-56257200D01*
X128148628Y-56685771D02*
X128648628Y-55185771D01*
X129148628Y-56685771D01*
X130505771Y-56685771D02*
X130005771Y-55971485D01*
X129648628Y-56685771D02*
X129648628Y-55185771D01*
X130220057Y-55185771D01*
X130362914Y-55257200D01*
X130434342Y-55328628D01*
X130505771Y-55471485D01*
X130505771Y-55685771D01*
X130434342Y-55828628D01*
X130362914Y-55900057D01*
X130220057Y-55971485D01*
X129648628Y-55971485D01*
X132291485Y-56685771D02*
X132291485Y-55185771D01*
X132862914Y-55185771D01*
X133005771Y-55257200D01*
X133077200Y-55328628D01*
X133148628Y-55471485D01*
X133148628Y-55685771D01*
X133077200Y-55828628D01*
X133005771Y-55900057D01*
X132862914Y-55971485D01*
X132291485Y-55971485D01*
X133791485Y-55185771D02*
X133791485Y-56400057D01*
X133862914Y-56542914D01*
X133934342Y-56614342D01*
X134077200Y-56685771D01*
X134362914Y-56685771D01*
X134505771Y-56614342D01*
X134577200Y-56542914D01*
X134648628Y-56400057D01*
X134648628Y-55185771D01*
X136220057Y-56685771D02*
X135720057Y-55971485D01*
X135362914Y-56685771D02*
X135362914Y-55185771D01*
X135934342Y-55185771D01*
X136077200Y-55257200D01*
X136148628Y-55328628D01*
X136220057Y-55471485D01*
X136220057Y-55685771D01*
X136148628Y-55828628D01*
X136077200Y-55900057D01*
X135934342Y-55971485D01*
X135362914Y-55971485D01*
X136862914Y-56685771D02*
X136862914Y-55185771D01*
X137434342Y-55185771D01*
X137577200Y-55257200D01*
X137648628Y-55328628D01*
X137720057Y-55471485D01*
X137720057Y-55685771D01*
X137648628Y-55828628D01*
X137577200Y-55900057D01*
X137434342Y-55971485D01*
X136862914Y-55971485D01*
X138648628Y-55185771D02*
X138934342Y-55185771D01*
X139077200Y-55257200D01*
X139220057Y-55400057D01*
X139291485Y-55685771D01*
X139291485Y-56185771D01*
X139220057Y-56471485D01*
X139077200Y-56614342D01*
X138934342Y-56685771D01*
X138648628Y-56685771D01*
X138505771Y-56614342D01*
X138362914Y-56471485D01*
X138291485Y-56185771D01*
X138291485Y-55685771D01*
X138362914Y-55400057D01*
X138505771Y-55257200D01*
X138648628Y-55185771D01*
X139862914Y-56614342D02*
X140077200Y-56685771D01*
X140434342Y-56685771D01*
X140577200Y-56614342D01*
X140648628Y-56542914D01*
X140720057Y-56400057D01*
X140720057Y-56257200D01*
X140648628Y-56114342D01*
X140577200Y-56042914D01*
X140434342Y-55971485D01*
X140148628Y-55900057D01*
X140005771Y-55828628D01*
X139934342Y-55757200D01*
X139862914Y-55614342D01*
X139862914Y-55471485D01*
X139934342Y-55328628D01*
X140005771Y-55257200D01*
X140148628Y-55185771D01*
X140505771Y-55185771D01*
X140720057Y-55257200D01*
X141362914Y-55900057D02*
X141862914Y-55900057D01*
X142077200Y-56685771D02*
X141362914Y-56685771D01*
X141362914Y-55185771D01*
X142077200Y-55185771D01*
X142720057Y-56542914D02*
X142791485Y-56614342D01*
X142720057Y-56685771D01*
X142648628Y-56614342D01*
X142720057Y-56542914D01*
X142720057Y-56685771D01*
X46434342Y-53685771D02*
X46434342Y-52685771D01*
X46434342Y-52185771D02*
X46362914Y-52257200D01*
X46434342Y-52328628D01*
X46505771Y-52257200D01*
X46434342Y-52185771D01*
X46434342Y-52328628D01*
X47077200Y-53614342D02*
X47220057Y-53685771D01*
X47505771Y-53685771D01*
X47648628Y-53614342D01*
X47720057Y-53471485D01*
X47720057Y-53400057D01*
X47648628Y-53257200D01*
X47505771Y-53185771D01*
X47291485Y-53185771D01*
X47148628Y-53114342D01*
X47077200Y-52971485D01*
X47077200Y-52900057D01*
X47148628Y-52757200D01*
X47291485Y-52685771D01*
X47505771Y-52685771D01*
X47648628Y-52757200D01*
X50148628Y-53685771D02*
X50148628Y-52185771D01*
X50148628Y-53614342D02*
X50005771Y-53685771D01*
X49720057Y-53685771D01*
X49577200Y-53614342D01*
X49505771Y-53542914D01*
X49434342Y-53400057D01*
X49434342Y-52971485D01*
X49505771Y-52828628D01*
X49577200Y-52757200D01*
X49720057Y-52685771D01*
X50005771Y-52685771D01*
X50148628Y-52757200D01*
X50862914Y-53685771D02*
X50862914Y-52685771D01*
X50862914Y-52185771D02*
X50791485Y-52257200D01*
X50862914Y-52328628D01*
X50934342Y-52257200D01*
X50862914Y-52185771D01*
X50862914Y-52328628D01*
X51505771Y-53614342D02*
X51648628Y-53685771D01*
X51934342Y-53685771D01*
X52077200Y-53614342D01*
X52148628Y-53471485D01*
X52148628Y-53400057D01*
X52077200Y-53257200D01*
X51934342Y-53185771D01*
X51720057Y-53185771D01*
X51577200Y-53114342D01*
X51505771Y-52971485D01*
X51505771Y-52900057D01*
X51577200Y-52757200D01*
X51720057Y-52685771D01*
X51934342Y-52685771D01*
X52077200Y-52757200D01*
X52577200Y-52685771D02*
X53148628Y-52685771D01*
X52791485Y-52185771D02*
X52791485Y-53471485D01*
X52862914Y-53614342D01*
X53005771Y-53685771D01*
X53148628Y-53685771D01*
X53648628Y-53685771D02*
X53648628Y-52685771D01*
X53648628Y-52971485D02*
X53720057Y-52828628D01*
X53791485Y-52757200D01*
X53934342Y-52685771D01*
X54077200Y-52685771D01*
X54577200Y-53685771D02*
X54577200Y-52685771D01*
X54577200Y-52185771D02*
X54505771Y-52257200D01*
X54577200Y-52328628D01*
X54648628Y-52257200D01*
X54577200Y-52185771D01*
X54577200Y-52328628D01*
X55291485Y-53685771D02*
X55291485Y-52185771D01*
X55291485Y-52757200D02*
X55434342Y-52685771D01*
X55720057Y-52685771D01*
X55862914Y-52757200D01*
X55934342Y-52828628D01*
X56005771Y-52971485D01*
X56005771Y-53400057D01*
X55934342Y-53542914D01*
X55862914Y-53614342D01*
X55720057Y-53685771D01*
X55434342Y-53685771D01*
X55291485Y-53614342D01*
X57291485Y-52685771D02*
X57291485Y-53685771D01*
X56648628Y-52685771D02*
X56648628Y-53471485D01*
X56720057Y-53614342D01*
X56862914Y-53685771D01*
X57077200Y-53685771D01*
X57220057Y-53614342D01*
X57291485Y-53542914D01*
X57791485Y-52685771D02*
X58362914Y-52685771D01*
X58005771Y-52185771D02*
X58005771Y-53471485D01*
X58077200Y-53614342D01*
X58220057Y-53685771D01*
X58362914Y-53685771D01*
X59434342Y-53614342D02*
X59291485Y-53685771D01*
X59005771Y-53685771D01*
X58862914Y-53614342D01*
X58791485Y-53471485D01*
X58791485Y-52900057D01*
X58862914Y-52757200D01*
X59005771Y-52685771D01*
X59291485Y-52685771D01*
X59434342Y-52757200D01*
X59505771Y-52900057D01*
X59505771Y-53042914D01*
X58791485Y-53185771D01*
X60791485Y-53685771D02*
X60791485Y-52185771D01*
X60791485Y-53614342D02*
X60648628Y-53685771D01*
X60362914Y-53685771D01*
X60220057Y-53614342D01*
X60148628Y-53542914D01*
X60077200Y-53400057D01*
X60077200Y-52971485D01*
X60148628Y-52828628D01*
X60220057Y-52757200D01*
X60362914Y-52685771D01*
X60648628Y-52685771D01*
X60791485Y-52757200D01*
X62505771Y-52185771D02*
X62862914Y-53685771D01*
X63148628Y-52614342D01*
X63434342Y-53685771D01*
X63791485Y-52185771D01*
X64362914Y-53685771D02*
X64362914Y-52185771D01*
X64862914Y-52185771D02*
X65720057Y-52185771D01*
X65291485Y-53685771D02*
X65291485Y-52185771D01*
X66220057Y-53685771D02*
X66220057Y-52185771D01*
X66220057Y-52900057D02*
X67077200Y-52900057D01*
X67077200Y-53685771D02*
X67077200Y-52185771D01*
X68077200Y-52185771D02*
X68362914Y-52185771D01*
X68505771Y-52257200D01*
X68648628Y-52400057D01*
X68720057Y-52685771D01*
X68720057Y-53185771D01*
X68648628Y-53471485D01*
X68505771Y-53614342D01*
X68362914Y-53685771D01*
X68077200Y-53685771D01*
X67934342Y-53614342D01*
X67791485Y-53471485D01*
X67720057Y-53185771D01*
X67720057Y-52685771D01*
X67791485Y-52400057D01*
X67934342Y-52257200D01*
X68077200Y-52185771D01*
X69362914Y-52185771D02*
X69362914Y-53400057D01*
X69434342Y-53542914D01*
X69505771Y-53614342D01*
X69648628Y-53685771D01*
X69934342Y-53685771D01*
X70077200Y-53614342D01*
X70148628Y-53542914D01*
X70220057Y-53400057D01*
X70220057Y-52185771D01*
X70720057Y-52185771D02*
X71577200Y-52185771D01*
X71148628Y-53685771D02*
X71148628Y-52185771D01*
X73148628Y-53257200D02*
X73862914Y-53257200D01*
X73005771Y-53685771D02*
X73505771Y-52185771D01*
X74005771Y-53685771D01*
X74505771Y-53685771D02*
X74505771Y-52185771D01*
X75362914Y-53685771D01*
X75362914Y-52185771D01*
X76362914Y-52971485D02*
X76362914Y-53685771D01*
X75862914Y-52185771D02*
X76362914Y-52971485D01*
X76862914Y-52185771D01*
X78505771Y-52900057D02*
X79005771Y-52900057D01*
X79220057Y-53685771D02*
X78505771Y-53685771D01*
X78505771Y-52185771D01*
X79220057Y-52185771D01*
X79720057Y-52185771D02*
X80720057Y-53685771D01*
X80720057Y-52185771D02*
X79720057Y-53685771D01*
X81291485Y-53685771D02*
X81291485Y-52185771D01*
X81862914Y-52185771D01*
X82005771Y-52257200D01*
X82077200Y-52328628D01*
X82148628Y-52471485D01*
X82148628Y-52685771D01*
X82077200Y-52828628D01*
X82005771Y-52900057D01*
X81862914Y-52971485D01*
X81291485Y-52971485D01*
X83648628Y-53685771D02*
X83148628Y-52971485D01*
X82791485Y-53685771D02*
X82791485Y-52185771D01*
X83362914Y-52185771D01*
X83505771Y-52257200D01*
X83577200Y-52328628D01*
X83648628Y-52471485D01*
X83648628Y-52685771D01*
X83577200Y-52828628D01*
X83505771Y-52900057D01*
X83362914Y-52971485D01*
X82791485Y-52971485D01*
X84291485Y-52900057D02*
X84791485Y-52900057D01*
X85005771Y-53685771D02*
X84291485Y-53685771D01*
X84291485Y-52185771D01*
X85005771Y-52185771D01*
X85577200Y-53614342D02*
X85791485Y-53685771D01*
X86148628Y-53685771D01*
X86291485Y-53614342D01*
X86362914Y-53542914D01*
X86434342Y-53400057D01*
X86434342Y-53257200D01*
X86362914Y-53114342D01*
X86291485Y-53042914D01*
X86148628Y-52971485D01*
X85862914Y-52900057D01*
X85720057Y-52828628D01*
X85648628Y-52757200D01*
X85577200Y-52614342D01*
X85577200Y-52471485D01*
X85648628Y-52328628D01*
X85720057Y-52257200D01*
X85862914Y-52185771D01*
X86220057Y-52185771D01*
X86434342Y-52257200D01*
X87005771Y-53614342D02*
X87220057Y-53685771D01*
X87577200Y-53685771D01*
X87720057Y-53614342D01*
X87791485Y-53542914D01*
X87862914Y-53400057D01*
X87862914Y-53257200D01*
X87791485Y-53114342D01*
X87720057Y-53042914D01*
X87577200Y-52971485D01*
X87291485Y-52900057D01*
X87148628Y-52828628D01*
X87077200Y-52757200D01*
X87005771Y-52614342D01*
X87005771Y-52471485D01*
X87077200Y-52328628D01*
X87148628Y-52257200D01*
X87291485Y-52185771D01*
X87648628Y-52185771D01*
X87862914Y-52257200D01*
X89934342Y-52185771D02*
X90220057Y-52185771D01*
X90362914Y-52257200D01*
X90505771Y-52400057D01*
X90577200Y-52685771D01*
X90577200Y-53185771D01*
X90505771Y-53471485D01*
X90362914Y-53614342D01*
X90220057Y-53685771D01*
X89934342Y-53685771D01*
X89791485Y-53614342D01*
X89648628Y-53471485D01*
X89577200Y-53185771D01*
X89577200Y-52685771D01*
X89648628Y-52400057D01*
X89791485Y-52257200D01*
X89934342Y-52185771D01*
X92077200Y-53685771D02*
X91577200Y-52971485D01*
X91220057Y-53685771D02*
X91220057Y-52185771D01*
X91791485Y-52185771D01*
X91934342Y-52257200D01*
X92005771Y-52328628D01*
X92077200Y-52471485D01*
X92077200Y-52685771D01*
X92005771Y-52828628D01*
X91934342Y-52900057D01*
X91791485Y-52971485D01*
X91220057Y-52971485D01*
X93862914Y-53685771D02*
X93862914Y-52185771D01*
X94577200Y-53685771D02*
X94577200Y-52185771D01*
X95077200Y-53257200D01*
X95577200Y-52185771D01*
X95577200Y-53685771D01*
X96291485Y-53685771D02*
X96291485Y-52185771D01*
X96862914Y-52185771D01*
X97005771Y-52257200D01*
X97077200Y-52328628D01*
X97148628Y-52471485D01*
X97148628Y-52685771D01*
X97077200Y-52828628D01*
X97005771Y-52900057D01*
X96862914Y-52971485D01*
X96291485Y-52971485D01*
X98505771Y-53685771D02*
X97791485Y-53685771D01*
X97791485Y-52185771D01*
X99005771Y-53685771D02*
X99005771Y-52185771D01*
X99720057Y-52900057D02*
X100220057Y-52900057D01*
X100434342Y-53685771D02*
X99720057Y-53685771D01*
X99720057Y-52185771D01*
X100434342Y-52185771D01*
X101077200Y-53685771D02*
X101077200Y-52185771D01*
X101434342Y-52185771D01*
X101648628Y-52257200D01*
X101791485Y-52400057D01*
X101862914Y-52542914D01*
X101934342Y-52828628D01*
X101934342Y-53042914D01*
X101862914Y-53328628D01*
X101791485Y-53471485D01*
X101648628Y-53614342D01*
X101434342Y-53685771D01*
X101077200Y-53685771D01*
X103577200Y-52185771D02*
X103934342Y-53685771D01*
X104220057Y-52614342D01*
X104505771Y-53685771D01*
X104862914Y-52185771D01*
X105362914Y-53257200D02*
X106077200Y-53257200D01*
X105220057Y-53685771D02*
X105720057Y-52185771D01*
X106220057Y-53685771D01*
X107577200Y-53685771D02*
X107077200Y-52971485D01*
X106720057Y-53685771D02*
X106720057Y-52185771D01*
X107291485Y-52185771D01*
X107434342Y-52257200D01*
X107505771Y-52328628D01*
X107577200Y-52471485D01*
X107577200Y-52685771D01*
X107505771Y-52828628D01*
X107434342Y-52900057D01*
X107291485Y-52971485D01*
X106720057Y-52971485D01*
X109077200Y-53685771D02*
X108577200Y-52971485D01*
X108220057Y-53685771D02*
X108220057Y-52185771D01*
X108791485Y-52185771D01*
X108934342Y-52257200D01*
X109005771Y-52328628D01*
X109077200Y-52471485D01*
X109077200Y-52685771D01*
X109005771Y-52828628D01*
X108934342Y-52900057D01*
X108791485Y-52971485D01*
X108220057Y-52971485D01*
X109648628Y-53257200D02*
X110362914Y-53257200D01*
X109505771Y-53685771D02*
X110005771Y-52185771D01*
X110505771Y-53685771D01*
X111005771Y-53685771D02*
X111005771Y-52185771D01*
X111862914Y-53685771D01*
X111862914Y-52185771D01*
X112362914Y-52185771D02*
X113220057Y-52185771D01*
X112791485Y-53685771D02*
X112791485Y-52185771D01*
X114005771Y-52971485D02*
X114005771Y-53685771D01*
X113505771Y-52185771D02*
X114005771Y-52971485D01*
X114505771Y-52185771D01*
X115077200Y-53614342D02*
X115077200Y-53685771D01*
X115005771Y-53828628D01*
X114934342Y-53900057D01*
X116862914Y-53685771D02*
X116862914Y-52185771D01*
X117577200Y-53685771D02*
X117577200Y-52185771D01*
X118434342Y-53685771D01*
X118434342Y-52185771D01*
X120005771Y-53542914D02*
X119934342Y-53614342D01*
X119720057Y-53685771D01*
X119577200Y-53685771D01*
X119362914Y-53614342D01*
X119220057Y-53471485D01*
X119148628Y-53328628D01*
X119077200Y-53042914D01*
X119077200Y-52828628D01*
X119148628Y-52542914D01*
X119220057Y-52400057D01*
X119362914Y-52257200D01*
X119577200Y-52185771D01*
X119720057Y-52185771D01*
X119934342Y-52257200D01*
X120005771Y-52328628D01*
X121362914Y-53685771D02*
X120648628Y-53685771D01*
X120648628Y-52185771D01*
X121862914Y-52185771D02*
X121862914Y-53400057D01*
X121934342Y-53542914D01*
X122005771Y-53614342D01*
X122148628Y-53685771D01*
X122434342Y-53685771D01*
X122577200Y-53614342D01*
X122648628Y-53542914D01*
X122720057Y-53400057D01*
X122720057Y-52185771D01*
X123434342Y-53685771D02*
X123434342Y-52185771D01*
X123791485Y-52185771D01*
X124005771Y-52257200D01*
X124148628Y-52400057D01*
X124220057Y-52542914D01*
X124291485Y-52828628D01*
X124291485Y-53042914D01*
X124220057Y-53328628D01*
X124148628Y-53471485D01*
X124005771Y-53614342D01*
X123791485Y-53685771D01*
X123434342Y-53685771D01*
X124934342Y-53685771D02*
X124934342Y-52185771D01*
X125648628Y-53685771D02*
X125648628Y-52185771D01*
X126505771Y-53685771D01*
X126505771Y-52185771D01*
X128005771Y-52257200D02*
X127862914Y-52185771D01*
X127648628Y-52185771D01*
X127434342Y-52257200D01*
X127291485Y-52400057D01*
X127220057Y-52542914D01*
X127148628Y-52828628D01*
X127148628Y-53042914D01*
X127220057Y-53328628D01*
X127291485Y-53471485D01*
X127434342Y-53614342D01*
X127648628Y-53685771D01*
X127791485Y-53685771D01*
X128005771Y-53614342D01*
X128077200Y-53542914D01*
X128077200Y-53042914D01*
X127791485Y-53042914D01*
X130148628Y-52185771D02*
X130434342Y-52185771D01*
X130577200Y-52257200D01*
X130720057Y-52400057D01*
X130791485Y-52685771D01*
X130791485Y-53185771D01*
X130720057Y-53471485D01*
X130577200Y-53614342D01*
X130434342Y-53685771D01*
X130148628Y-53685771D01*
X130005771Y-53614342D01*
X129862914Y-53471485D01*
X129791485Y-53185771D01*
X129791485Y-52685771D01*
X129862914Y-52400057D01*
X130005771Y-52257200D01*
X130148628Y-52185771D01*
X131934342Y-52900057D02*
X131434342Y-52900057D01*
X131434342Y-53685771D02*
X131434342Y-52185771D01*
X132148628Y-52185771D01*
X47148628Y-50685771D02*
X46434342Y-50685771D01*
X46434342Y-49185771D01*
X47648628Y-50685771D02*
X47648628Y-49685771D01*
X47648628Y-49185771D02*
X47577200Y-49257200D01*
X47648628Y-49328628D01*
X47720057Y-49257200D01*
X47648628Y-49185771D01*
X47648628Y-49328628D01*
X49005771Y-50614342D02*
X48862914Y-50685771D01*
X48577200Y-50685771D01*
X48434342Y-50614342D01*
X48362914Y-50542914D01*
X48291485Y-50400057D01*
X48291485Y-49971485D01*
X48362914Y-49828628D01*
X48434342Y-49757200D01*
X48577200Y-49685771D01*
X48862914Y-49685771D01*
X49005771Y-49757200D01*
X50220057Y-50614342D02*
X50077200Y-50685771D01*
X49791485Y-50685771D01*
X49648628Y-50614342D01*
X49577200Y-50471485D01*
X49577200Y-49900057D01*
X49648628Y-49757200D01*
X49791485Y-49685771D01*
X50077200Y-49685771D01*
X50220057Y-49757200D01*
X50291485Y-49900057D01*
X50291485Y-50042914D01*
X49577200Y-50185771D01*
X50934342Y-49685771D02*
X50934342Y-50685771D01*
X50934342Y-49828628D02*
X51005771Y-49757200D01*
X51148628Y-49685771D01*
X51362914Y-49685771D01*
X51505771Y-49757200D01*
X51577200Y-49900057D01*
X51577200Y-50685771D01*
X52220057Y-50614342D02*
X52362914Y-50685771D01*
X52648628Y-50685771D01*
X52791485Y-50614342D01*
X52862914Y-50471485D01*
X52862914Y-50400057D01*
X52791485Y-50257200D01*
X52648628Y-50185771D01*
X52434342Y-50185771D01*
X52291485Y-50114342D01*
X52220057Y-49971485D01*
X52220057Y-49900057D01*
X52291485Y-49757200D01*
X52434342Y-49685771D01*
X52648628Y-49685771D01*
X52791485Y-49757200D01*
X54077200Y-50614342D02*
X53934342Y-50685771D01*
X53648628Y-50685771D01*
X53505771Y-50614342D01*
X53434342Y-50471485D01*
X53434342Y-49900057D01*
X53505771Y-49757200D01*
X53648628Y-49685771D01*
X53934342Y-49685771D01*
X54077200Y-49757200D01*
X54148628Y-49900057D01*
X54148628Y-50042914D01*
X53434342Y-50185771D01*
X55434342Y-50685771D02*
X55434342Y-49185771D01*
X55434342Y-50614342D02*
X55291485Y-50685771D01*
X55005771Y-50685771D01*
X54862914Y-50614342D01*
X54791485Y-50542914D01*
X54720057Y-50400057D01*
X54720057Y-49971485D01*
X54791485Y-49828628D01*
X54862914Y-49757200D01*
X55005771Y-49685771D01*
X55291485Y-49685771D01*
X55434342Y-49757200D01*
X57934342Y-49685771D02*
X57934342Y-50685771D01*
X57291485Y-49685771D02*
X57291485Y-50471485D01*
X57362914Y-50614342D01*
X57505771Y-50685771D01*
X57720057Y-50685771D01*
X57862914Y-50614342D01*
X57934342Y-50542914D01*
X58648628Y-49685771D02*
X58648628Y-50685771D01*
X58648628Y-49828628D02*
X58720057Y-49757200D01*
X58862914Y-49685771D01*
X59077200Y-49685771D01*
X59220057Y-49757200D01*
X59291485Y-49900057D01*
X59291485Y-50685771D01*
X60648628Y-50685771D02*
X60648628Y-49185771D01*
X60648628Y-50614342D02*
X60505771Y-50685771D01*
X60220057Y-50685771D01*
X60077200Y-50614342D01*
X60005771Y-50542914D01*
X59934342Y-50400057D01*
X59934342Y-49971485D01*
X60005771Y-49828628D01*
X60077200Y-49757200D01*
X60220057Y-49685771D01*
X60505771Y-49685771D01*
X60648628Y-49757200D01*
X61934342Y-50614342D02*
X61791485Y-50685771D01*
X61505771Y-50685771D01*
X61362914Y-50614342D01*
X61291485Y-50471485D01*
X61291485Y-49900057D01*
X61362914Y-49757200D01*
X61505771Y-49685771D01*
X61791485Y-49685771D01*
X61934342Y-49757200D01*
X62005771Y-49900057D01*
X62005771Y-50042914D01*
X61291485Y-50185771D01*
X62648628Y-50685771D02*
X62648628Y-49685771D01*
X62648628Y-49971485D02*
X62720057Y-49828628D01*
X62791485Y-49757200D01*
X62934342Y-49685771D01*
X63077200Y-49685771D01*
X64505771Y-49685771D02*
X65077200Y-49685771D01*
X64720057Y-49185771D02*
X64720057Y-50471485D01*
X64791485Y-50614342D01*
X64934342Y-50685771D01*
X65077200Y-50685771D01*
X65577200Y-50685771D02*
X65577200Y-49185771D01*
X66220057Y-50685771D02*
X66220057Y-49900057D01*
X66148628Y-49757200D01*
X66005771Y-49685771D01*
X65791485Y-49685771D01*
X65648628Y-49757200D01*
X65577200Y-49828628D01*
X67505771Y-50614342D02*
X67362914Y-50685771D01*
X67077200Y-50685771D01*
X66934342Y-50614342D01*
X66862914Y-50471485D01*
X66862914Y-49900057D01*
X66934342Y-49757200D01*
X67077200Y-49685771D01*
X67362914Y-49685771D01*
X67505771Y-49757200D01*
X67577200Y-49900057D01*
X67577200Y-50042914D01*
X66862914Y-50185771D01*
X69148628Y-49185771D02*
X70005771Y-49185771D01*
X69577200Y-50685771D02*
X69577200Y-49185771D01*
X70434342Y-50257200D02*
X71148628Y-50257200D01*
X70291485Y-50685771D02*
X70791485Y-49185771D01*
X71291485Y-50685771D01*
X71791485Y-50685771D02*
X71791485Y-49185771D01*
X72362914Y-49185771D01*
X72505771Y-49257200D01*
X72577200Y-49328628D01*
X72648628Y-49471485D01*
X72648628Y-49685771D01*
X72577200Y-49828628D01*
X72505771Y-49900057D01*
X72362914Y-49971485D01*
X71791485Y-49971485D01*
X74148628Y-50685771D02*
X73648628Y-49971485D01*
X73291485Y-50685771D02*
X73291485Y-49185771D01*
X73862914Y-49185771D01*
X74005771Y-49257200D01*
X74077200Y-49328628D01*
X74148628Y-49471485D01*
X74148628Y-49685771D01*
X74077200Y-49828628D01*
X74005771Y-49900057D01*
X73862914Y-49971485D01*
X73291485Y-49971485D01*
X76220057Y-49185771D02*
X76505771Y-49185771D01*
X76648628Y-49257200D01*
X76791485Y-49400057D01*
X76862914Y-49685771D01*
X76862914Y-50185771D01*
X76791485Y-50471485D01*
X76648628Y-50614342D01*
X76505771Y-50685771D01*
X76220057Y-50685771D01*
X76077200Y-50614342D01*
X75934342Y-50471485D01*
X75862914Y-50185771D01*
X75862914Y-49685771D01*
X75934342Y-49400057D01*
X76077200Y-49257200D01*
X76220057Y-49185771D01*
X77505771Y-49685771D02*
X77505771Y-51185771D01*
X77505771Y-49757200D02*
X77648628Y-49685771D01*
X77934342Y-49685771D01*
X78077200Y-49757200D01*
X78148628Y-49828628D01*
X78220057Y-49971485D01*
X78220057Y-50400057D01*
X78148628Y-50542914D01*
X78077200Y-50614342D01*
X77934342Y-50685771D01*
X77648628Y-50685771D01*
X77505771Y-50614342D01*
X79434342Y-50614342D02*
X79291485Y-50685771D01*
X79005771Y-50685771D01*
X78862914Y-50614342D01*
X78791485Y-50471485D01*
X78791485Y-49900057D01*
X78862914Y-49757200D01*
X79005771Y-49685771D01*
X79291485Y-49685771D01*
X79434342Y-49757200D01*
X79505771Y-49900057D01*
X79505771Y-50042914D01*
X78791485Y-50185771D01*
X80148628Y-49685771D02*
X80148628Y-50685771D01*
X80148628Y-49828628D02*
X80220057Y-49757200D01*
X80362914Y-49685771D01*
X80577200Y-49685771D01*
X80720057Y-49757200D01*
X80791485Y-49900057D01*
X80791485Y-50685771D01*
X82648628Y-50685771D02*
X82648628Y-49185771D01*
X82648628Y-49900057D02*
X83505771Y-49900057D01*
X83505771Y-50685771D02*
X83505771Y-49185771D01*
X84862914Y-50685771D02*
X84862914Y-49900057D01*
X84791485Y-49757200D01*
X84648628Y-49685771D01*
X84362914Y-49685771D01*
X84220057Y-49757200D01*
X84862914Y-50614342D02*
X84720057Y-50685771D01*
X84362914Y-50685771D01*
X84220057Y-50614342D01*
X84148628Y-50471485D01*
X84148628Y-50328628D01*
X84220057Y-50185771D01*
X84362914Y-50114342D01*
X84720057Y-50114342D01*
X84862914Y-50042914D01*
X85577200Y-50685771D02*
X85577200Y-49685771D01*
X85577200Y-49971485D02*
X85648628Y-49828628D01*
X85720057Y-49757200D01*
X85862914Y-49685771D01*
X86005771Y-49685771D01*
X87148628Y-50685771D02*
X87148628Y-49185771D01*
X87148628Y-50614342D02*
X87005771Y-50685771D01*
X86720057Y-50685771D01*
X86577200Y-50614342D01*
X86505771Y-50542914D01*
X86434342Y-50400057D01*
X86434342Y-49971485D01*
X86505771Y-49828628D01*
X86577200Y-49757200D01*
X86720057Y-49685771D01*
X87005771Y-49685771D01*
X87148628Y-49757200D01*
X87720057Y-49685771D02*
X88005771Y-50685771D01*
X88291485Y-49971485D01*
X88577200Y-50685771D01*
X88862914Y-49685771D01*
X90077200Y-50685771D02*
X90077200Y-49900057D01*
X90005771Y-49757200D01*
X89862914Y-49685771D01*
X89577200Y-49685771D01*
X89434342Y-49757200D01*
X90077200Y-50614342D02*
X89934342Y-50685771D01*
X89577200Y-50685771D01*
X89434342Y-50614342D01*
X89362914Y-50471485D01*
X89362914Y-50328628D01*
X89434342Y-50185771D01*
X89577200Y-50114342D01*
X89934342Y-50114342D01*
X90077200Y-50042914D01*
X90791485Y-50685771D02*
X90791485Y-49685771D01*
X90791485Y-49971485D02*
X90862914Y-49828628D01*
X90934342Y-49757200D01*
X91077200Y-49685771D01*
X91220057Y-49685771D01*
X92291485Y-50614342D02*
X92148628Y-50685771D01*
X91862914Y-50685771D01*
X91720057Y-50614342D01*
X91648628Y-50471485D01*
X91648628Y-49900057D01*
X91720057Y-49757200D01*
X91862914Y-49685771D01*
X92148628Y-49685771D01*
X92291485Y-49757200D01*
X92362914Y-49900057D01*
X92362914Y-50042914D01*
X91648628Y-50185771D01*
X94862914Y-50685771D02*
X94148628Y-50685771D01*
X94148628Y-49185771D01*
X95362914Y-50685771D02*
X95362914Y-49685771D01*
X95362914Y-49185771D02*
X95291485Y-49257200D01*
X95362914Y-49328628D01*
X95434342Y-49257200D01*
X95362914Y-49185771D01*
X95362914Y-49328628D01*
X96720057Y-50614342D02*
X96577200Y-50685771D01*
X96291485Y-50685771D01*
X96148628Y-50614342D01*
X96077200Y-50542914D01*
X96005771Y-50400057D01*
X96005771Y-49971485D01*
X96077200Y-49828628D01*
X96148628Y-49757200D01*
X96291485Y-49685771D01*
X96577200Y-49685771D01*
X96720057Y-49757200D01*
X97934342Y-50614342D02*
X97791485Y-50685771D01*
X97505771Y-50685771D01*
X97362914Y-50614342D01*
X97291485Y-50471485D01*
X97291485Y-49900057D01*
X97362914Y-49757200D01*
X97505771Y-49685771D01*
X97791485Y-49685771D01*
X97934342Y-49757200D01*
X98005771Y-49900057D01*
X98005771Y-50042914D01*
X97291485Y-50185771D01*
X98648628Y-49685771D02*
X98648628Y-50685771D01*
X98648628Y-49828628D02*
X98720057Y-49757200D01*
X98862914Y-49685771D01*
X99077200Y-49685771D01*
X99220057Y-49757200D01*
X99291485Y-49900057D01*
X99291485Y-50685771D01*
X99934342Y-50614342D02*
X100077200Y-50685771D01*
X100362914Y-50685771D01*
X100505771Y-50614342D01*
X100577200Y-50471485D01*
X100577200Y-50400057D01*
X100505771Y-50257200D01*
X100362914Y-50185771D01*
X100148628Y-50185771D01*
X100005771Y-50114342D01*
X99934342Y-49971485D01*
X99934342Y-49900057D01*
X100005771Y-49757200D01*
X100148628Y-49685771D01*
X100362914Y-49685771D01*
X100505771Y-49757200D01*
X101791485Y-50614342D02*
X101648628Y-50685771D01*
X101362914Y-50685771D01*
X101220057Y-50614342D01*
X101148628Y-50471485D01*
X101148628Y-49900057D01*
X101220057Y-49757200D01*
X101362914Y-49685771D01*
X101648628Y-49685771D01*
X101791485Y-49757200D01*
X101862914Y-49900057D01*
X101862914Y-50042914D01*
X101148628Y-50185771D01*
X104077200Y-51257200D02*
X104005771Y-51185771D01*
X103862914Y-50971485D01*
X103791485Y-50828628D01*
X103720057Y-50614342D01*
X103648628Y-50257200D01*
X103648628Y-49971485D01*
X103720057Y-49614342D01*
X103791485Y-49400057D01*
X103862914Y-49257200D01*
X104005771Y-49042914D01*
X104077200Y-48971485D01*
X104505771Y-49685771D02*
X104791485Y-50685771D01*
X105077200Y-49971485D01*
X105362914Y-50685771D01*
X105648628Y-49685771D01*
X106077200Y-49685771D02*
X106362914Y-50685771D01*
X106648628Y-49971485D01*
X106934342Y-50685771D01*
X107220057Y-49685771D01*
X107648628Y-49685771D02*
X107934342Y-50685771D01*
X108220057Y-49971485D01*
X108505771Y-50685771D01*
X108791485Y-49685771D01*
X109362914Y-50542914D02*
X109434342Y-50614342D01*
X109362914Y-50685771D01*
X109291485Y-50614342D01*
X109362914Y-50542914D01*
X109362914Y-50685771D01*
X109862914Y-49685771D02*
X110434342Y-49685771D01*
X110077200Y-49185771D02*
X110077200Y-50471485D01*
X110148628Y-50614342D01*
X110291485Y-50685771D01*
X110434342Y-50685771D01*
X111577200Y-50685771D02*
X111577200Y-49900057D01*
X111505771Y-49757200D01*
X111362914Y-49685771D01*
X111077200Y-49685771D01*
X110934342Y-49757200D01*
X111577200Y-50614342D02*
X111434342Y-50685771D01*
X111077200Y-50685771D01*
X110934342Y-50614342D01*
X110862914Y-50471485D01*
X110862914Y-50328628D01*
X110934342Y-50185771D01*
X111077200Y-50114342D01*
X111434342Y-50114342D01*
X111577200Y-50042914D01*
X112291485Y-49685771D02*
X112291485Y-51185771D01*
X112291485Y-49757200D02*
X112434342Y-49685771D01*
X112720057Y-49685771D01*
X112862914Y-49757200D01*
X112934342Y-49828628D01*
X113005771Y-49971485D01*
X113005771Y-50400057D01*
X112934342Y-50542914D01*
X112862914Y-50614342D01*
X112720057Y-50685771D01*
X112434342Y-50685771D01*
X112291485Y-50614342D01*
X113648628Y-50685771D02*
X113648628Y-49685771D01*
X113648628Y-49971485D02*
X113720057Y-49828628D01*
X113791485Y-49757200D01*
X113934342Y-49685771D01*
X114077200Y-49685771D01*
X114577200Y-50542914D02*
X114648628Y-50614342D01*
X114577200Y-50685771D01*
X114505771Y-50614342D01*
X114577200Y-50542914D01*
X114577200Y-50685771D01*
X115505771Y-50685771D02*
X115362914Y-50614342D01*
X115291485Y-50542914D01*
X115220057Y-50400057D01*
X115220057Y-49971485D01*
X115291485Y-49828628D01*
X115362914Y-49757200D01*
X115505771Y-49685771D01*
X115720057Y-49685771D01*
X115862914Y-49757200D01*
X115934342Y-49828628D01*
X116005771Y-49971485D01*
X116005771Y-50400057D01*
X115934342Y-50542914D01*
X115862914Y-50614342D01*
X115720057Y-50685771D01*
X115505771Y-50685771D01*
X116648628Y-50685771D02*
X116648628Y-49685771D01*
X116648628Y-49971485D02*
X116720057Y-49828628D01*
X116791485Y-49757200D01*
X116934342Y-49685771D01*
X117077200Y-49685771D01*
X118220057Y-49685771D02*
X118220057Y-50900057D01*
X118148628Y-51042914D01*
X118077200Y-51114342D01*
X117934342Y-51185771D01*
X117720057Y-51185771D01*
X117577200Y-51114342D01*
X118220057Y-50614342D02*
X118077200Y-50685771D01*
X117791485Y-50685771D01*
X117648628Y-50614342D01*
X117577200Y-50542914D01*
X117505771Y-50400057D01*
X117505771Y-49971485D01*
X117577200Y-49828628D01*
X117648628Y-49757200D01*
X117791485Y-49685771D01*
X118077200Y-49685771D01*
X118220057Y-49757200D01*
X120005771Y-49114342D02*
X118720057Y-51042914D01*
X120791485Y-49185771D02*
X121077200Y-49185771D01*
X121220057Y-49257200D01*
X121362914Y-49400057D01*
X121434342Y-49685771D01*
X121434342Y-50185771D01*
X121362914Y-50471485D01*
X121220057Y-50614342D01*
X121077200Y-50685771D01*
X120791485Y-50685771D01*
X120648628Y-50614342D01*
X120505771Y-50471485D01*
X120434342Y-50185771D01*
X120434342Y-49685771D01*
X120505771Y-49400057D01*
X120648628Y-49257200D01*
X120791485Y-49185771D01*
X122077200Y-50685771D02*
X122077200Y-49185771D01*
X122077200Y-49900057D02*
X122934342Y-49900057D01*
X122934342Y-50685771D02*
X122934342Y-49185771D01*
X124362914Y-50685771D02*
X123648628Y-50685771D01*
X123648628Y-49185771D01*
X124720057Y-51257200D02*
X124791485Y-51185771D01*
X124934342Y-50971485D01*
X125005771Y-50828628D01*
X125077200Y-50614342D01*
X125148628Y-50257200D01*
X125148628Y-49971485D01*
X125077200Y-49614342D01*
X125005771Y-49400057D01*
X124934342Y-49257200D01*
X124791485Y-49042914D01*
X124720057Y-48971485D01*
X125862914Y-50542914D02*
X125934342Y-50614342D01*
X125862914Y-50685771D01*
X125791485Y-50614342D01*
X125862914Y-50542914D01*
X125862914Y-50685771D01*
X127505771Y-49185771D02*
X128362914Y-49185771D01*
X127934342Y-50685771D02*
X127934342Y-49185771D01*
X128862914Y-50685771D02*
X128862914Y-49185771D01*
X129505771Y-50685771D02*
X129505771Y-49900057D01*
X129434342Y-49757200D01*
X129291485Y-49685771D01*
X129077200Y-49685771D01*
X128934342Y-49757200D01*
X128862914Y-49828628D01*
X130220057Y-50685771D02*
X130220057Y-49685771D01*
X130220057Y-49185771D02*
X130148628Y-49257200D01*
X130220057Y-49328628D01*
X130291485Y-49257200D01*
X130220057Y-49185771D01*
X130220057Y-49328628D01*
X130862914Y-50614342D02*
X131005771Y-50685771D01*
X131291485Y-50685771D01*
X131434342Y-50614342D01*
X131505771Y-50471485D01*
X131505771Y-50400057D01*
X131434342Y-50257200D01*
X131291485Y-50185771D01*
X131077200Y-50185771D01*
X130934342Y-50114342D01*
X130862914Y-49971485D01*
X130862914Y-49900057D01*
X130934342Y-49757200D01*
X131077200Y-49685771D01*
X131291485Y-49685771D01*
X131434342Y-49757200D01*
X133934342Y-50685771D02*
X133934342Y-49185771D01*
X133934342Y-50614342D02*
X133791485Y-50685771D01*
X133505771Y-50685771D01*
X133362914Y-50614342D01*
X133291485Y-50542914D01*
X133220057Y-50400057D01*
X133220057Y-49971485D01*
X133291485Y-49828628D01*
X133362914Y-49757200D01*
X133505771Y-49685771D01*
X133791485Y-49685771D01*
X133934342Y-49757200D01*
X134862914Y-50685771D02*
X134720057Y-50614342D01*
X134648628Y-50542914D01*
X134577200Y-50400057D01*
X134577200Y-49971485D01*
X134648628Y-49828628D01*
X134720057Y-49757200D01*
X134862914Y-49685771D01*
X135077200Y-49685771D01*
X135220057Y-49757200D01*
X135291485Y-49828628D01*
X135362914Y-49971485D01*
X135362914Y-50400057D01*
X135291485Y-50542914D01*
X135220057Y-50614342D01*
X135077200Y-50685771D01*
X134862914Y-50685771D01*
X136648628Y-50614342D02*
X136505771Y-50685771D01*
X136220057Y-50685771D01*
X136077200Y-50614342D01*
X136005771Y-50542914D01*
X135934342Y-50400057D01*
X135934342Y-49971485D01*
X136005771Y-49828628D01*
X136077200Y-49757200D01*
X136220057Y-49685771D01*
X136505771Y-49685771D01*
X136648628Y-49757200D01*
X137934342Y-49685771D02*
X137934342Y-50685771D01*
X137291485Y-49685771D02*
X137291485Y-50471485D01*
X137362914Y-50614342D01*
X137505771Y-50685771D01*
X137720057Y-50685771D01*
X137862914Y-50614342D01*
X137934342Y-50542914D01*
X138648628Y-50685771D02*
X138648628Y-49685771D01*
X138648628Y-49828628D02*
X138720057Y-49757200D01*
X138862914Y-49685771D01*
X139077200Y-49685771D01*
X139220057Y-49757200D01*
X139291485Y-49900057D01*
X139291485Y-50685771D01*
X139291485Y-49900057D02*
X139362914Y-49757200D01*
X139505771Y-49685771D01*
X139720057Y-49685771D01*
X139862914Y-49757200D01*
X139934342Y-49900057D01*
X139934342Y-50685771D01*
X141220057Y-50614342D02*
X141077200Y-50685771D01*
X140791485Y-50685771D01*
X140648628Y-50614342D01*
X140577200Y-50471485D01*
X140577200Y-49900057D01*
X140648628Y-49757200D01*
X140791485Y-49685771D01*
X141077200Y-49685771D01*
X141220057Y-49757200D01*
X141291485Y-49900057D01*
X141291485Y-50042914D01*
X140577200Y-50185771D01*
X141934342Y-49685771D02*
X141934342Y-50685771D01*
X141934342Y-49828628D02*
X142005771Y-49757200D01*
X142148628Y-49685771D01*
X142362914Y-49685771D01*
X142505771Y-49757200D01*
X142577200Y-49900057D01*
X142577200Y-50685771D01*
X143077200Y-49685771D02*
X143648628Y-49685771D01*
X143291485Y-49185771D02*
X143291485Y-50471485D01*
X143362914Y-50614342D01*
X143505771Y-50685771D01*
X143648628Y-50685771D01*
X144791485Y-50685771D02*
X144791485Y-49900057D01*
X144720057Y-49757200D01*
X144577200Y-49685771D01*
X144291485Y-49685771D01*
X144148628Y-49757200D01*
X144791485Y-50614342D02*
X144648628Y-50685771D01*
X144291485Y-50685771D01*
X144148628Y-50614342D01*
X144077200Y-50471485D01*
X144077200Y-50328628D01*
X144148628Y-50185771D01*
X144291485Y-50114342D01*
X144648628Y-50114342D01*
X144791485Y-50042914D01*
X145291485Y-49685771D02*
X145862914Y-49685771D01*
X145505771Y-49185771D02*
X145505771Y-50471485D01*
X145577200Y-50614342D01*
X145720057Y-50685771D01*
X145862914Y-50685771D01*
X146362914Y-50685771D02*
X146362914Y-49685771D01*
X146362914Y-49185771D02*
X146291485Y-49257200D01*
X146362914Y-49328628D01*
X146434342Y-49257200D01*
X146362914Y-49185771D01*
X146362914Y-49328628D01*
X147291485Y-50685771D02*
X147148628Y-50614342D01*
X147077200Y-50542914D01*
X147005771Y-50400057D01*
X147005771Y-49971485D01*
X147077200Y-49828628D01*
X147148628Y-49757200D01*
X147291485Y-49685771D01*
X147505771Y-49685771D01*
X147648628Y-49757200D01*
X147720057Y-49828628D01*
X147791485Y-49971485D01*
X147791485Y-50400057D01*
X147720057Y-50542914D01*
X147648628Y-50614342D01*
X147505771Y-50685771D01*
X147291485Y-50685771D01*
X148434342Y-49685771D02*
X148434342Y-50685771D01*
X148434342Y-49828628D02*
X148505771Y-49757200D01*
X148648628Y-49685771D01*
X148862914Y-49685771D01*
X149005771Y-49757200D01*
X149077200Y-49900057D01*
X149077200Y-50685771D01*
X47291485Y-47542914D02*
X47220057Y-47614342D01*
X47005771Y-47685771D01*
X46862914Y-47685771D01*
X46648628Y-47614342D01*
X46505771Y-47471485D01*
X46434342Y-47328628D01*
X46362914Y-47042914D01*
X46362914Y-46828628D01*
X46434342Y-46542914D01*
X46505771Y-46400057D01*
X46648628Y-46257200D01*
X46862914Y-46185771D01*
X47005771Y-46185771D01*
X47220057Y-46257200D01*
X47291485Y-46328628D01*
X48148628Y-47685771D02*
X48005771Y-47614342D01*
X47934342Y-47542914D01*
X47862914Y-47400057D01*
X47862914Y-46971485D01*
X47934342Y-46828628D01*
X48005771Y-46757200D01*
X48148628Y-46685771D01*
X48362914Y-46685771D01*
X48505771Y-46757200D01*
X48577200Y-46828628D01*
X48648628Y-46971485D01*
X48648628Y-47400057D01*
X48577200Y-47542914D01*
X48505771Y-47614342D01*
X48362914Y-47685771D01*
X48148628Y-47685771D01*
X49291485Y-46685771D02*
X49291485Y-48185771D01*
X49291485Y-46757200D02*
X49434342Y-46685771D01*
X49720057Y-46685771D01*
X49862914Y-46757200D01*
X49934342Y-46828628D01*
X50005771Y-46971485D01*
X50005771Y-47400057D01*
X49934342Y-47542914D01*
X49862914Y-47614342D01*
X49720057Y-47685771D01*
X49434342Y-47685771D01*
X49291485Y-47614342D01*
X50505771Y-46685771D02*
X50862914Y-47685771D01*
X51220057Y-46685771D02*
X50862914Y-47685771D01*
X50720057Y-48042914D01*
X50648628Y-48114342D01*
X50505771Y-48185771D01*
X51791485Y-47685771D02*
X51791485Y-46685771D01*
X51791485Y-46971485D02*
X51862914Y-46828628D01*
X51934342Y-46757200D01*
X52077200Y-46685771D01*
X52220057Y-46685771D01*
X52720057Y-47685771D02*
X52720057Y-46685771D01*
X52720057Y-46185771D02*
X52648628Y-46257200D01*
X52720057Y-46328628D01*
X52791485Y-46257200D01*
X52720057Y-46185771D01*
X52720057Y-46328628D01*
X54077200Y-46685771D02*
X54077200Y-47900057D01*
X54005771Y-48042914D01*
X53934342Y-48114342D01*
X53791485Y-48185771D01*
X53577200Y-48185771D01*
X53434342Y-48114342D01*
X54077200Y-47614342D02*
X53934342Y-47685771D01*
X53648628Y-47685771D01*
X53505771Y-47614342D01*
X53434342Y-47542914D01*
X53362914Y-47400057D01*
X53362914Y-46971485D01*
X53434342Y-46828628D01*
X53505771Y-46757200D01*
X53648628Y-46685771D01*
X53934342Y-46685771D01*
X54077200Y-46757200D01*
X54791485Y-47685771D02*
X54791485Y-46185771D01*
X55434342Y-47685771D02*
X55434342Y-46900057D01*
X55362914Y-46757200D01*
X55220057Y-46685771D01*
X55005771Y-46685771D01*
X54862914Y-46757200D01*
X54791485Y-46828628D01*
X55934342Y-46685771D02*
X56505771Y-46685771D01*
X56148628Y-46185771D02*
X56148628Y-47471485D01*
X56220057Y-47614342D01*
X56362914Y-47685771D01*
X56505771Y-47685771D01*
X58148628Y-47685771D02*
X58148628Y-46185771D01*
X58720057Y-46185771D01*
X58862914Y-46257200D01*
X58934342Y-46328628D01*
X59005771Y-46471485D01*
X59005771Y-46685771D01*
X58934342Y-46828628D01*
X58862914Y-46900057D01*
X58720057Y-46971485D01*
X58148628Y-46971485D01*
X60291485Y-47685771D02*
X60291485Y-46900057D01*
X60220057Y-46757200D01*
X60077200Y-46685771D01*
X59791485Y-46685771D01*
X59648628Y-46757200D01*
X60291485Y-47614342D02*
X60148628Y-47685771D01*
X59791485Y-47685771D01*
X59648628Y-47614342D01*
X59577200Y-47471485D01*
X59577200Y-47328628D01*
X59648628Y-47185771D01*
X59791485Y-47114342D01*
X60148628Y-47114342D01*
X60291485Y-47042914D01*
X61648628Y-46685771D02*
X61648628Y-47685771D01*
X61005771Y-46685771D02*
X61005771Y-47471485D01*
X61077200Y-47614342D01*
X61220057Y-47685771D01*
X61434342Y-47685771D01*
X61577200Y-47614342D01*
X61648628Y-47542914D01*
X62577200Y-47685771D02*
X62434342Y-47614342D01*
X62362914Y-47471485D01*
X62362914Y-46185771D01*
X64720057Y-46185771D02*
X64720057Y-47257200D01*
X64648628Y-47471485D01*
X64505771Y-47614342D01*
X64291485Y-47685771D01*
X64148628Y-47685771D01*
X66077200Y-47685771D02*
X66077200Y-46900057D01*
X66005771Y-46757200D01*
X65862914Y-46685771D01*
X65577200Y-46685771D01*
X65434342Y-46757200D01*
X66077200Y-47614342D02*
X65934342Y-47685771D01*
X65577200Y-47685771D01*
X65434342Y-47614342D01*
X65362914Y-47471485D01*
X65362914Y-47328628D01*
X65434342Y-47185771D01*
X65577200Y-47114342D01*
X65934342Y-47114342D01*
X66077200Y-47042914D01*
X66791485Y-46685771D02*
X66791485Y-47685771D01*
X66791485Y-46828628D02*
X66862914Y-46757200D01*
X67005771Y-46685771D01*
X67220057Y-46685771D01*
X67362914Y-46757200D01*
X67434342Y-46900057D01*
X67434342Y-47685771D01*
X68148628Y-47685771D02*
X68148628Y-46685771D01*
X68148628Y-46185771D02*
X68077200Y-46257200D01*
X68148628Y-46328628D01*
X68220057Y-46257200D01*
X68148628Y-46185771D01*
X68148628Y-46328628D01*
X69505771Y-47614342D02*
X69362914Y-47685771D01*
X69077200Y-47685771D01*
X68934342Y-47614342D01*
X68862914Y-47542914D01*
X68791485Y-47400057D01*
X68791485Y-46971485D01*
X68862914Y-46828628D01*
X68934342Y-46757200D01*
X69077200Y-46685771D01*
X69362914Y-46685771D01*
X69505771Y-46757200D01*
X70148628Y-47685771D02*
X70148628Y-46185771D01*
X70291485Y-47114342D02*
X70720057Y-47685771D01*
X70720057Y-46685771D02*
X70148628Y-47257200D01*
X71362914Y-47685771D02*
X71362914Y-46685771D01*
X71362914Y-46185771D02*
X71291485Y-46257200D01*
X71362914Y-46328628D01*
X71434342Y-46257200D01*
X71362914Y-46185771D01*
X71362914Y-46328628D01*
X73148628Y-46328628D02*
X73220057Y-46257200D01*
X73362914Y-46185771D01*
X73720057Y-46185771D01*
X73862914Y-46257200D01*
X73934342Y-46328628D01*
X74005771Y-46471485D01*
X74005771Y-46614342D01*
X73934342Y-46828628D01*
X73077200Y-47685771D01*
X74005771Y-47685771D01*
X74934342Y-46185771D02*
X75077200Y-46185771D01*
X75220057Y-46257200D01*
X75291485Y-46328628D01*
X75362914Y-46471485D01*
X75434342Y-46757200D01*
X75434342Y-47114342D01*
X75362914Y-47400057D01*
X75291485Y-47542914D01*
X75220057Y-47614342D01*
X75077200Y-47685771D01*
X74934342Y-47685771D01*
X74791485Y-47614342D01*
X74720057Y-47542914D01*
X74648628Y-47400057D01*
X74577200Y-47114342D01*
X74577200Y-46757200D01*
X74648628Y-46471485D01*
X74720057Y-46328628D01*
X74791485Y-46257200D01*
X74934342Y-46185771D01*
X76862914Y-47685771D02*
X76005771Y-47685771D01*
X76434342Y-47685771D02*
X76434342Y-46185771D01*
X76291485Y-46400057D01*
X76148628Y-46542914D01*
X76005771Y-46614342D01*
X77577200Y-47685771D02*
X77862914Y-47685771D01*
X78005771Y-47614342D01*
X78077200Y-47542914D01*
X78220057Y-47328628D01*
X78291485Y-47042914D01*
X78291485Y-46471485D01*
X78220057Y-46328628D01*
X78148628Y-46257200D01*
X78005771Y-46185771D01*
X77720057Y-46185771D01*
X77577200Y-46257200D01*
X77505771Y-46328628D01*
X77434342Y-46471485D01*
X77434342Y-46828628D01*
X77505771Y-46971485D01*
X77577200Y-47042914D01*
X77720057Y-47114342D01*
X78005771Y-47114342D01*
X78148628Y-47042914D01*
X78220057Y-46971485D01*
X78291485Y-46828628D01*
X65002200Y-70507200D02*
X65002200Y-73507200D01*
X129002200Y-70507200D02*
X129002200Y-77007200D01*
D13*
X0Y50000000D02*
X0Y0D01*
X50000000Y50000000D02*
X0Y50000000D01*
X50000000Y0D02*
X50000000Y50000000D01*
X0Y0D02*
X50000000Y0D01*
D11*
X-111149286Y105602858D02*
X-110577858Y105602858D01*
X-110292143Y105460000D01*
X-110006429Y105174286D01*
X-109863572Y104602858D01*
X-109863572Y103602858D01*
X-110006429Y103031429D01*
X-110292143Y102745715D01*
X-110577858Y102602858D01*
X-111149286Y102602858D01*
X-111435000Y102745715D01*
X-111720715Y103031429D01*
X-111863572Y103602858D01*
X-111863572Y104602858D01*
X-111720715Y105174286D01*
X-111435000Y105460000D01*
X-111149286Y105602858D01*
X-108577858Y104602858D02*
X-108577858Y101602858D01*
X-108577858Y104460000D02*
X-108292143Y104602858D01*
X-107720715Y104602858D01*
X-107435000Y104460000D01*
X-107292143Y104317143D01*
X-107149286Y104031429D01*
X-107149286Y103174286D01*
X-107292143Y102888572D01*
X-107435000Y102745715D01*
X-107720715Y102602858D01*
X-108292143Y102602858D01*
X-108577858Y102745715D01*
X-104720715Y102745715D02*
X-105006429Y102602858D01*
X-105577858Y102602858D01*
X-105863572Y102745715D01*
X-106006429Y103031429D01*
X-106006429Y104174286D01*
X-105863572Y104460000D01*
X-105577858Y104602858D01*
X-105006429Y104602858D01*
X-104720715Y104460000D01*
X-104577858Y104174286D01*
X-104577858Y103888572D01*
X-106006429Y103602858D01*
X-103292143Y104602858D02*
X-103292143Y102602858D01*
X-103292143Y104317143D02*
X-103149286Y104460000D01*
X-102863572Y104602858D01*
X-102435000Y104602858D01*
X-102149286Y104460000D01*
X-102006429Y104174286D01*
X-102006429Y102602858D01*
X-98292143Y102602858D02*
X-98292143Y105602858D01*
X-98292143Y104174286D02*
X-96577858Y104174286D01*
X-96577858Y102602858D02*
X-96577858Y105602858D01*
X-93863572Y102602858D02*
X-93863572Y104174286D01*
X-94006429Y104460000D01*
X-94292143Y104602858D01*
X-94863572Y104602858D01*
X-95149286Y104460000D01*
X-93863572Y102745715D02*
X-94149286Y102602858D01*
X-94863572Y102602858D01*
X-95149286Y102745715D01*
X-95292143Y103031429D01*
X-95292143Y103317143D01*
X-95149286Y103602858D01*
X-94863572Y103745715D01*
X-94149286Y103745715D01*
X-93863572Y103888572D01*
X-92435000Y102602858D02*
X-92435000Y104602858D01*
X-92435000Y104031429D02*
X-92292143Y104317143D01*
X-92149286Y104460000D01*
X-91863572Y104602858D01*
X-91577858Y104602858D01*
X-89292143Y102602858D02*
X-89292143Y105602858D01*
X-89292143Y102745715D02*
X-89577858Y102602858D01*
X-90149286Y102602858D01*
X-90435000Y102745715D01*
X-90577858Y102888572D01*
X-90720715Y103174286D01*
X-90720715Y104031429D01*
X-90577858Y104317143D01*
X-90435000Y104460000D01*
X-90149286Y104602858D01*
X-89577858Y104602858D01*
X-89292143Y104460000D01*
X-88149286Y104602858D02*
X-87577858Y102602858D01*
X-87006429Y104031429D01*
X-86435000Y102602858D01*
X-85863572Y104602858D01*
X-83435000Y102602858D02*
X-83435000Y104174286D01*
X-83577858Y104460000D01*
X-83863572Y104602858D01*
X-84435000Y104602858D01*
X-84720715Y104460000D01*
X-83435000Y102745715D02*
X-83720715Y102602858D01*
X-84435000Y102602858D01*
X-84720715Y102745715D01*
X-84863572Y103031429D01*
X-84863572Y103317143D01*
X-84720715Y103602858D01*
X-84435000Y103745715D01*
X-83720715Y103745715D01*
X-83435000Y103888572D01*
X-82006429Y102602858D02*
X-82006429Y104602858D01*
X-82006429Y104031429D02*
X-81863572Y104317143D01*
X-81720715Y104460000D01*
X-81435000Y104602858D01*
X-81149286Y104602858D01*
X-79006429Y102745715D02*
X-79292143Y102602858D01*
X-79863572Y102602858D01*
X-80149286Y102745715D01*
X-80292143Y103031429D01*
X-80292143Y104174286D01*
X-80149286Y104460000D01*
X-79863572Y104602858D01*
X-79292143Y104602858D01*
X-79006429Y104460000D01*
X-78863572Y104174286D01*
X-78863572Y103888572D01*
X-80292143Y103602858D01*
X-75292143Y102602858D02*
X-75292143Y105602858D01*
X-74577858Y105602858D01*
X-74149286Y105460000D01*
X-73863572Y105174286D01*
X-73720715Y104888572D01*
X-73577858Y104317143D01*
X-73577858Y103888572D01*
X-73720715Y103317143D01*
X-73863572Y103031429D01*
X-74149286Y102745715D01*
X-74577858Y102602858D01*
X-75292143Y102602858D01*
X-72435000Y102745715D02*
X-72006429Y102602858D01*
X-71292143Y102602858D01*
X-71006429Y102745715D01*
X-70863572Y102888572D01*
X-70720715Y103174286D01*
X-70720715Y103460000D01*
X-70863572Y103745715D01*
X-71006429Y103888572D01*
X-71292143Y104031429D01*
X-71863572Y104174286D01*
X-72149286Y104317143D01*
X-72292143Y104460000D01*
X-72435000Y104745715D01*
X-72435000Y105031429D01*
X-72292143Y105317143D01*
X-72149286Y105460000D01*
X-71863572Y105602858D01*
X-71149286Y105602858D01*
X-70720715Y105460000D01*
X-69435000Y102602858D02*
X-69435000Y105602858D01*
X-68292143Y105602858D01*
X-68006429Y105460000D01*
X-67863572Y105317143D01*
X-67720715Y105031429D01*
X-67720715Y104602858D01*
X-67863572Y104317143D01*
X-68006429Y104174286D01*
X-68292143Y104031429D01*
X-69435000Y104031429D01*
X-64149286Y102602858D02*
X-64149286Y105602858D01*
X-63006429Y105602858D01*
X-62720715Y105460000D01*
X-62577858Y105317143D01*
X-62435000Y105031429D01*
X-62435000Y104602858D01*
X-62577858Y104317143D01*
X-62720715Y104174286D01*
X-63006429Y104031429D01*
X-64149286Y104031429D01*
X-60720715Y102602858D02*
X-61006429Y102745715D01*
X-61149286Y103031429D01*
X-61149286Y105602858D01*
X-58292143Y102602858D02*
X-58292143Y104174286D01*
X-58435000Y104460000D01*
X-58720715Y104602858D01*
X-59292143Y104602858D01*
X-59577858Y104460000D01*
X-58292143Y102745715D02*
X-58577858Y102602858D01*
X-59292143Y102602858D01*
X-59577858Y102745715D01*
X-59720715Y103031429D01*
X-59720715Y103317143D01*
X-59577858Y103602858D01*
X-59292143Y103745715D01*
X-58577858Y103745715D01*
X-58292143Y103888572D01*
X-57292143Y104602858D02*
X-56149286Y104602858D01*
X-56863572Y105602858D02*
X-56863572Y103031429D01*
X-56720715Y102745715D01*
X-56435000Y102602858D01*
X-56149286Y102602858D01*
X-55577858Y104602858D02*
X-54435000Y104602858D01*
X-55149286Y102602858D02*
X-55149286Y105174286D01*
X-55006429Y105460000D01*
X-54720715Y105602858D01*
X-54435000Y105602858D01*
X-53006429Y102602858D02*
X-53292143Y102745715D01*
X-53435000Y102888572D01*
X-53577858Y103174286D01*
X-53577858Y104031429D01*
X-53435000Y104317143D01*
X-53292143Y104460000D01*
X-53006429Y104602858D01*
X-52577858Y104602858D01*
X-52292143Y104460000D01*
X-52149286Y104317143D01*
X-52006429Y104031429D01*
X-52006429Y103174286D01*
X-52149286Y102888572D01*
X-52292143Y102745715D01*
X-52577858Y102602858D01*
X-53006429Y102602858D01*
X-50720715Y102602858D02*
X-50720715Y104602858D01*
X-50720715Y104031429D02*
X-50577858Y104317143D01*
X-50435000Y104460000D01*
X-50149286Y104602858D01*
X-49863572Y104602858D01*
X-48863572Y102602858D02*
X-48863572Y104602858D01*
X-48863572Y104317143D02*
X-48720715Y104460000D01*
X-48435000Y104602858D01*
X-48006429Y104602858D01*
X-47720715Y104460000D01*
X-47577858Y104174286D01*
X-47577858Y102602858D01*
X-47577858Y104174286D02*
X-47435000Y104460000D01*
X-47149286Y104602858D01*
X-46720715Y104602858D01*
X-46435000Y104460000D01*
X-46292143Y104174286D01*
X-46292143Y102602858D01*
X-42577858Y103745715D02*
X-40292143Y103745715D01*
X-36863572Y104602858D02*
X-36292143Y102602858D01*
X-35720715Y104031429D01*
X-35149286Y102602858D01*
X-34577858Y104602858D01*
X-33720715Y104602858D02*
X-33149286Y102602858D01*
X-32577858Y104031429D01*
X-32006429Y102602858D01*
X-31435000Y104602858D01*
X-30577858Y104602858D02*
X-30006429Y102602858D01*
X-29435000Y104031429D01*
X-28863572Y102602858D01*
X-28292143Y104602858D01*
X-27149286Y102888572D02*
X-27006429Y102745715D01*
X-27149286Y102602858D01*
X-27292143Y102745715D01*
X-27149286Y102888572D01*
X-27149286Y102602858D01*
X-25292143Y102602858D02*
X-25577858Y102745715D01*
X-25720715Y102888572D01*
X-25863572Y103174286D01*
X-25863572Y104031429D01*
X-25720715Y104317143D01*
X-25577858Y104460000D01*
X-25292143Y104602858D01*
X-24863572Y104602858D01*
X-24577858Y104460000D01*
X-24435000Y104317143D01*
X-24292143Y104031429D01*
X-24292143Y103174286D01*
X-24435000Y102888572D01*
X-24577858Y102745715D01*
X-24863572Y102602858D01*
X-25292143Y102602858D01*
X-23006429Y102602858D02*
X-23006429Y105602858D01*
X-21720715Y102602858D02*
X-21720715Y104174286D01*
X-21863572Y104460000D01*
X-22149286Y104602858D01*
X-22577858Y104602858D01*
X-22863572Y104460000D01*
X-23006429Y104317143D01*
X-19006429Y102602858D02*
X-19006429Y105602858D01*
X-19006429Y102745715D02*
X-19292143Y102602858D01*
X-19863572Y102602858D01*
X-20149286Y102745715D01*
X-20292143Y102888572D01*
X-20435000Y103174286D01*
X-20435000Y104031429D01*
X-20292143Y104317143D01*
X-20149286Y104460000D01*
X-19863572Y104602858D01*
X-19292143Y104602858D01*
X-19006429Y104460000D01*
X-17720715Y102745715D02*
X-17435000Y102602858D01*
X-16863572Y102602858D01*
X-16577858Y102745715D01*
X-16435000Y103031429D01*
X-16435000Y103174286D01*
X-16577858Y103460000D01*
X-16863572Y103602858D01*
X-17292143Y103602858D01*
X-17577858Y103745715D01*
X-17720715Y104031429D01*
X-17720715Y104174286D01*
X-17577858Y104460000D01*
X-17292143Y104602858D01*
X-16863572Y104602858D01*
X-16577858Y104460000D01*
X-15149286Y104602858D02*
X-15149286Y101602858D01*
X-15149286Y104460000D02*
X-14863572Y104602858D01*
X-14292143Y104602858D01*
X-14006429Y104460000D01*
X-13863572Y104317143D01*
X-13720715Y104031429D01*
X-13720715Y103174286D01*
X-13863572Y102888572D01*
X-14006429Y102745715D01*
X-14292143Y102602858D01*
X-14863572Y102602858D01*
X-15149286Y102745715D01*
X-12435000Y102888572D02*
X-12292143Y102745715D01*
X-12435000Y102602858D01*
X-12577858Y102745715D01*
X-12435000Y102888572D01*
X-12435000Y102602858D01*
X-10577858Y102602858D02*
X-10863572Y102745715D01*
X-11006429Y102888572D01*
X-11149286Y103174286D01*
X-11149286Y104031429D01*
X-11006429Y104317143D01*
X-10863572Y104460000D01*
X-10577858Y104602858D01*
X-10149286Y104602858D01*
X-9863572Y104460000D01*
X-9720715Y104317143D01*
X-9577858Y104031429D01*
X-9577858Y103174286D01*
X-9720715Y102888572D01*
X-9863572Y102745715D01*
X-10149286Y102602858D01*
X-10577858Y102602858D01*
X-8292143Y102602858D02*
X-8292143Y104602858D01*
X-8292143Y104031429D02*
X-8149286Y104317143D01*
X-8006429Y104460000D01*
X-7720715Y104602858D01*
X-7435000Y104602858D01*
X-5149286Y104602858D02*
X-5149286Y102174286D01*
X-5292143Y101888572D01*
X-5435000Y101745715D01*
X-5720715Y101602858D01*
X-6149286Y101602858D01*
X-6435000Y101745715D01*
X-5149286Y102745715D02*
X-5435000Y102602858D01*
X-6006429Y102602858D01*
X-6292143Y102745715D01*
X-6435000Y102888572D01*
X-6577858Y103174286D01*
X-6577858Y104031429D01*
X-6435000Y104317143D01*
X-6292143Y104460000D01*
X-6006429Y104602858D01*
X-5435000Y104602858D01*
X-5149286Y104460000D01*
X-110435000Y99802858D02*
X-110435000Y97802858D01*
X-111720715Y99802858D02*
X-111720715Y98231429D01*
X-111577858Y97945715D01*
X-111292143Y97802858D01*
X-110863572Y97802858D01*
X-110577858Y97945715D01*
X-110435000Y98088572D01*
X-107292143Y98088572D02*
X-107435000Y97945715D01*
X-107863572Y97802858D01*
X-108149286Y97802858D01*
X-108577858Y97945715D01*
X-108863572Y98231429D01*
X-109006429Y98517143D01*
X-109149286Y99088572D01*
X-109149286Y99517143D01*
X-109006429Y100088572D01*
X-108863572Y100374286D01*
X-108577858Y100660000D01*
X-108149286Y100802858D01*
X-107863572Y100802858D01*
X-107435000Y100660000D01*
X-107292143Y100517143D01*
X-105435000Y100802858D02*
X-104863572Y100802858D01*
X-104577858Y100660000D01*
X-104292143Y100374286D01*
X-104149286Y99802858D01*
X-104149286Y98802858D01*
X-104292143Y98231429D01*
X-104577858Y97945715D01*
X-104863572Y97802858D01*
X-105435000Y97802858D01*
X-105720715Y97945715D01*
X-106006429Y98231429D01*
X-106149286Y98802858D01*
X-106149286Y99802858D01*
X-106006429Y100374286D01*
X-105720715Y100660000D01*
X-105435000Y100802858D01*
X-102863572Y97802858D02*
X-102863572Y100802858D01*
X-102149286Y100802858D01*
X-101720715Y100660000D01*
X-101435000Y100374286D01*
X-101292143Y100088572D01*
X-101149286Y99517143D01*
X-101149286Y99088572D01*
X-101292143Y98517143D01*
X-101435000Y98231429D01*
X-101720715Y97945715D01*
X-102149286Y97802858D01*
X-102863572Y97802858D01*
X-99863572Y99374286D02*
X-98863572Y99374286D01*
X-98435000Y97802858D02*
X-99863572Y97802858D01*
X-99863572Y100802858D01*
X-98435000Y100802858D01*
X-95435000Y98088572D02*
X-95577858Y97945715D01*
X-96006429Y97802858D01*
X-96292143Y97802858D01*
X-96720715Y97945715D01*
X-97006429Y98231429D01*
X-97149286Y98517143D01*
X-97292143Y99088572D01*
X-97292143Y99517143D01*
X-97149286Y100088572D01*
X-97006429Y100374286D01*
X-96720715Y100660000D01*
X-96292143Y100802858D01*
X-96006429Y100802858D01*
X-95577858Y100660000D01*
X-95435000Y100517143D01*
X-111863572Y93860000D02*
X-110435000Y93860000D01*
X-112149286Y93002858D02*
X-111149286Y96002858D01*
X-110149286Y93002858D01*
X-109149286Y93002858D02*
X-109149286Y96002858D01*
X-108435000Y96002858D01*
X-108006429Y95860000D01*
X-107720715Y95574286D01*
X-107577858Y95288572D01*
X-107435000Y94717143D01*
X-107435000Y94288572D01*
X-107577858Y93717143D01*
X-107720715Y93431429D01*
X-108006429Y93145715D01*
X-108435000Y93002858D01*
X-109149286Y93002858D01*
X-104577858Y93002858D02*
X-106292143Y93002858D01*
X-105435000Y93002858D02*
X-105435000Y96002858D01*
X-105720715Y95574286D01*
X-106006429Y95288572D01*
X-106292143Y95145715D01*
X-103149286Y93002858D02*
X-102577858Y93002858D01*
X-102292143Y93145715D01*
X-102149286Y93288572D01*
X-101863572Y93717143D01*
X-101720715Y94288572D01*
X-101720715Y95431429D01*
X-101863572Y95717143D01*
X-102006429Y95860000D01*
X-102292143Y96002858D01*
X-102863572Y96002858D01*
X-103149286Y95860000D01*
X-103292143Y95717143D01*
X-103435000Y95431429D01*
X-103435000Y94717143D01*
X-103292143Y94431429D01*
X-103149286Y94288572D01*
X-102863572Y94145715D01*
X-102292143Y94145715D01*
X-102006429Y94288572D01*
X-101863572Y94431429D01*
X-101720715Y94717143D01*
X-100720715Y96002858D02*
X-98863572Y96002858D01*
X-99863572Y94860000D01*
X-99435000Y94860000D01*
X-99149286Y94717143D01*
X-99006429Y94574286D01*
X-98863572Y94288572D01*
X-98863572Y93574286D01*
X-99006429Y93288572D01*
X-99149286Y93145715D01*
X-99435000Y93002858D01*
X-100292143Y93002858D01*
X-100577858Y93145715D01*
X-100720715Y93288572D01*
X-97435000Y93002858D02*
X-96863572Y93002858D01*
X-96577858Y93145715D01*
X-96435000Y93288572D01*
X-96149286Y93717143D01*
X-96006429Y94288572D01*
X-96006429Y95431429D01*
X-96149286Y95717143D01*
X-96292143Y95860000D01*
X-96577858Y96002858D01*
X-97149286Y96002858D01*
X-97435000Y95860000D01*
X-97577858Y95717143D01*
X-97720715Y95431429D01*
X-97720715Y94717143D01*
X-97577858Y94431429D01*
X-97435000Y94288572D01*
X-97149286Y94145715D01*
X-96577858Y94145715D01*
X-96292143Y94288572D01*
X-96149286Y94431429D01*
X-96006429Y94717143D01*
X-92720715Y95002858D02*
X-92149286Y93002858D01*
X-91577858Y94431429D01*
X-91006429Y93002858D01*
X-90435000Y95002858D01*
X-89292143Y93002858D02*
X-89292143Y95002858D01*
X-89292143Y96002858D02*
X-89435000Y95860000D01*
X-89292143Y95717143D01*
X-89149286Y95860000D01*
X-89292143Y96002858D01*
X-89292143Y95717143D01*
X-88292143Y95002858D02*
X-87149286Y95002858D01*
X-87863572Y96002858D02*
X-87863572Y93431429D01*
X-87720715Y93145715D01*
X-87435000Y93002858D01*
X-87149286Y93002858D01*
X-86149286Y93002858D02*
X-86149286Y96002858D01*
X-84863572Y93002858D02*
X-84863572Y94574286D01*
X-85006429Y94860000D01*
X-85292143Y95002858D01*
X-85720715Y95002858D01*
X-86006429Y94860000D01*
X-86149286Y94717143D01*
X-79863572Y95002858D02*
X-79863572Y93002858D01*
X-80577858Y96145715D02*
X-81292143Y94002858D01*
X-79435000Y94002858D01*
X-74720715Y93002858D02*
X-74720715Y96002858D01*
X-74720715Y93145715D02*
X-75006429Y93002858D01*
X-75577858Y93002858D01*
X-75863572Y93145715D01*
X-76006429Y93288572D01*
X-76149286Y93574286D01*
X-76149286Y94431429D01*
X-76006429Y94717143D01*
X-75863572Y94860000D01*
X-75577858Y95002858D01*
X-75006429Y95002858D01*
X-74720715Y94860000D01*
X-73292143Y93002858D02*
X-73292143Y95002858D01*
X-73292143Y96002858D02*
X-73435000Y95860000D01*
X-73292143Y95717143D01*
X-73149286Y95860000D01*
X-73292143Y96002858D01*
X-73292143Y95717143D01*
X-72292143Y95002858D02*
X-71149286Y95002858D01*
X-71863572Y93002858D02*
X-71863572Y95574286D01*
X-71720715Y95860000D01*
X-71435001Y96002858D01*
X-71149286Y96002858D01*
X-70577858Y95002858D02*
X-69435001Y95002858D01*
X-70149286Y93002858D02*
X-70149286Y95574286D01*
X-70006429Y95860000D01*
X-69720715Y96002858D01*
X-69435001Y96002858D01*
X-67292143Y93145715D02*
X-67577858Y93002858D01*
X-68149286Y93002858D01*
X-68435000Y93145715D01*
X-68577858Y93431429D01*
X-68577858Y94574286D01*
X-68435000Y94860000D01*
X-68149286Y95002858D01*
X-67577858Y95002858D01*
X-67292143Y94860000D01*
X-67149286Y94574286D01*
X-67149286Y94288572D01*
X-68577858Y94002858D01*
X-65863572Y93002858D02*
X-65863572Y95002858D01*
X-65863572Y94431429D02*
X-65720715Y94717143D01*
X-65577858Y94860000D01*
X-65292143Y95002858D01*
X-65006429Y95002858D01*
X-62863572Y93145715D02*
X-63149286Y93002858D01*
X-63720715Y93002858D01*
X-64006429Y93145715D01*
X-64149286Y93431429D01*
X-64149286Y94574286D01*
X-64006429Y94860000D01*
X-63720715Y95002858D01*
X-63149286Y95002858D01*
X-62863572Y94860000D01*
X-62720715Y94574286D01*
X-62720715Y94288572D01*
X-64149286Y94002858D01*
X-61435000Y95002858D02*
X-61435000Y93002858D01*
X-61435000Y94717143D02*
X-61292143Y94860000D01*
X-61006429Y95002858D01*
X-60577858Y95002858D01*
X-60292143Y94860000D01*
X-60149286Y94574286D01*
X-60149286Y93002858D01*
X-59149286Y95002858D02*
X-58006429Y95002858D01*
X-58720715Y96002858D02*
X-58720715Y93431429D01*
X-58577858Y93145715D01*
X-58292143Y93002858D01*
X-58006429Y93002858D01*
X-57006429Y93002858D02*
X-57006429Y95002858D01*
X-57006429Y96002858D02*
X-57149286Y95860000D01*
X-57006429Y95717143D01*
X-56863572Y95860000D01*
X-57006429Y96002858D01*
X-57006429Y95717143D01*
X-54292143Y93002858D02*
X-54292143Y94574286D01*
X-54435000Y94860000D01*
X-54720715Y95002858D01*
X-55292143Y95002858D01*
X-55577858Y94860000D01*
X-54292143Y93145715D02*
X-54577858Y93002858D01*
X-55292143Y93002858D01*
X-55577858Y93145715D01*
X-55720715Y93431429D01*
X-55720715Y93717143D01*
X-55577858Y94002858D01*
X-55292143Y94145715D01*
X-54577858Y94145715D01*
X-54292143Y94288572D01*
X-52435000Y93002858D02*
X-52720715Y93145715D01*
X-52863572Y93431429D01*
X-52863572Y96002858D01*
X-49006429Y93002858D02*
X-49006429Y95002858D01*
X-49006429Y96002858D02*
X-49149286Y95860000D01*
X-49006429Y95717143D01*
X-48863572Y95860000D01*
X-49006429Y96002858D01*
X-49006429Y95717143D01*
X-47577858Y95002858D02*
X-47577858Y93002858D01*
X-47577858Y94717143D02*
X-47435000Y94860000D01*
X-47149286Y95002858D01*
X-46720715Y95002858D01*
X-46435000Y94860000D01*
X-46292143Y94574286D01*
X-46292143Y93002858D01*
X-44863572Y95002858D02*
X-44863572Y92002858D01*
X-44863572Y94860000D02*
X-44577858Y95002858D01*
X-44006429Y95002858D01*
X-43720715Y94860000D01*
X-43577858Y94717143D01*
X-43435000Y94431429D01*
X-43435000Y93574286D01*
X-43577858Y93288572D01*
X-43720715Y93145715D01*
X-44006429Y93002858D01*
X-44577858Y93002858D01*
X-44863572Y93145715D01*
X-40863572Y95002858D02*
X-40863572Y93002858D01*
X-42149286Y95002858D02*
X-42149286Y93431429D01*
X-42006429Y93145715D01*
X-41720715Y93002858D01*
X-41292143Y93002858D01*
X-41006429Y93145715D01*
X-40863572Y93288572D01*
X-39863572Y95002858D02*
X-38720715Y95002858D01*
X-39435000Y96002858D02*
X-39435000Y93431429D01*
X-39292143Y93145715D01*
X-39006429Y93002858D01*
X-38720715Y93002858D01*
X-37863572Y93145715D02*
X-37577858Y93002858D01*
X-37006429Y93002858D01*
X-36720715Y93145715D01*
X-36577858Y93431429D01*
X-36577858Y93574286D01*
X-36720715Y93860000D01*
X-37006429Y94002858D01*
X-37435000Y94002858D01*
X-37720715Y94145715D01*
X-37863572Y94431429D01*
X-37863572Y94574286D01*
X-37720715Y94860000D01*
X-37435000Y95002858D01*
X-37006429Y95002858D01*
X-36720715Y94860000D01*
X-31720715Y93002858D02*
X-31720715Y94574286D01*
X-31863572Y94860000D01*
X-32149286Y95002858D01*
X-32720715Y95002858D01*
X-33006429Y94860000D01*
X-31720715Y93145715D02*
X-32006429Y93002858D01*
X-32720715Y93002858D01*
X-33006429Y93145715D01*
X-33149286Y93431429D01*
X-33149286Y93717143D01*
X-33006429Y94002858D01*
X-32720715Y94145715D01*
X-32006429Y94145715D01*
X-31720715Y94288572D01*
X-30292143Y95002858D02*
X-30292143Y93002858D01*
X-30292143Y94717143D02*
X-30149286Y94860000D01*
X-29863572Y95002858D01*
X-29435000Y95002858D01*
X-29149286Y94860000D01*
X-29006429Y94574286D01*
X-29006429Y93002858D01*
X-26292143Y93002858D02*
X-26292143Y96002858D01*
X-26292143Y93145715D02*
X-26577858Y93002858D01*
X-27149286Y93002858D01*
X-27435000Y93145715D01*
X-27577858Y93288572D01*
X-27720715Y93574286D01*
X-27720715Y94431429D01*
X-27577858Y94717143D01*
X-27435000Y94860000D01*
X-27149286Y95002858D01*
X-26577858Y95002858D01*
X-26292143Y94860000D01*
X-22149286Y94717143D02*
X-22435000Y94860000D01*
X-22577858Y95002858D01*
X-22720715Y95288572D01*
X-22720715Y95431429D01*
X-22577858Y95717143D01*
X-22435000Y95860000D01*
X-22149286Y96002858D01*
X-21577858Y96002858D01*
X-21292143Y95860000D01*
X-21149286Y95717143D01*
X-21006429Y95431429D01*
X-21006429Y95288572D01*
X-21149286Y95002858D01*
X-21292143Y94860000D01*
X-21577858Y94717143D01*
X-22149286Y94717143D01*
X-22435000Y94574286D01*
X-22577858Y94431429D01*
X-22720715Y94145715D01*
X-22720715Y93574286D01*
X-22577858Y93288572D01*
X-22435000Y93145715D01*
X-22149286Y93002858D01*
X-21577858Y93002858D01*
X-21292143Y93145715D01*
X-21149286Y93288572D01*
X-21006429Y93574286D01*
X-21006429Y94145715D01*
X-21149286Y94431429D01*
X-21292143Y94574286D01*
X-21577858Y94717143D01*
X-16149286Y93002858D02*
X-16149286Y96002858D01*
X-16149286Y93145715D02*
X-16435000Y93002858D01*
X-17006429Y93002858D01*
X-17292143Y93145715D01*
X-17435000Y93288572D01*
X-17577858Y93574286D01*
X-17577858Y94431429D01*
X-17435000Y94717143D01*
X-17292143Y94860000D01*
X-17006429Y95002858D01*
X-16435000Y95002858D01*
X-16149286Y94860000D01*
X-14720715Y93002858D02*
X-14720715Y95002858D01*
X-14720715Y96002858D02*
X-14863572Y95860000D01*
X-14720715Y95717143D01*
X-14577858Y95860000D01*
X-14720715Y96002858D01*
X-14720715Y95717143D01*
X-13720715Y95002858D02*
X-12577858Y95002858D01*
X-13292143Y93002858D02*
X-13292143Y95574286D01*
X-13149286Y95860000D01*
X-12863572Y96002858D01*
X-12577858Y96002858D01*
X-12006429Y95002858D02*
X-10863572Y95002858D01*
X-11577858Y93002858D02*
X-11577858Y95574286D01*
X-11435000Y95860000D01*
X-11149286Y96002858D01*
X-10863572Y96002858D01*
X-8720715Y93145715D02*
X-9006429Y93002858D01*
X-9577858Y93002858D01*
X-9863572Y93145715D01*
X-10006429Y93431429D01*
X-10006429Y94574286D01*
X-9863572Y94860000D01*
X-9577858Y95002858D01*
X-9006429Y95002858D01*
X-8720715Y94860000D01*
X-8577858Y94574286D01*
X-8577858Y94288572D01*
X-10006429Y94002858D01*
X-7292143Y93002858D02*
X-7292143Y95002858D01*
X-7292143Y94431429D02*
X-7149286Y94717143D01*
X-7006429Y94860000D01*
X-6720715Y95002858D01*
X-6435000Y95002858D01*
X-4292143Y93145715D02*
X-4577858Y93002858D01*
X-5149286Y93002858D01*
X-5435000Y93145715D01*
X-5577858Y93431429D01*
X-5577858Y94574286D01*
X-5435000Y94860000D01*
X-5149286Y95002858D01*
X-4577858Y95002858D01*
X-4292143Y94860000D01*
X-4149286Y94574286D01*
X-4149286Y94288572D01*
X-5577858Y94002858D01*
X-2863572Y95002858D02*
X-2863572Y93002858D01*
X-2863572Y94717143D02*
X-2720715Y94860000D01*
X-2435000Y95002858D01*
X-2006429Y95002858D01*
X-1720715Y94860000D01*
X-1577858Y94574286D01*
X-1577858Y93002858D01*
X-577858Y95002858D02*
X565000Y95002858D01*
X-149286Y96002858D02*
X-149286Y93431429D01*
X-6429Y93145715D01*
X279285Y93002858D01*
X565000Y93002858D01*
X1565000Y93002858D02*
X1565000Y95002858D01*
X1565000Y96002858D02*
X1422142Y95860000D01*
X1565000Y95717143D01*
X1707857Y95860000D01*
X1565000Y96002858D01*
X1565000Y95717143D01*
X4279285Y93002858D02*
X4279285Y94574286D01*
X4136428Y94860000D01*
X3850714Y95002858D01*
X3279285Y95002858D01*
X2993571Y94860000D01*
X4279285Y93145715D02*
X3993571Y93002858D01*
X3279285Y93002858D01*
X2993571Y93145715D01*
X2850714Y93431429D01*
X2850714Y93717143D01*
X2993571Y94002858D01*
X3279285Y94145715D01*
X3993571Y94145715D01*
X4279285Y94288572D01*
X6136428Y93002858D02*
X5850714Y93145715D01*
X5707857Y93431429D01*
X5707857Y96002858D01*
X9993571Y93002858D02*
X9707857Y93145715D01*
X9565000Y93288572D01*
X9422142Y93574286D01*
X9422142Y94431429D01*
X9565000Y94717143D01*
X9707857Y94860000D01*
X9993571Y95002858D01*
X10422142Y95002858D01*
X10707857Y94860000D01*
X10850714Y94717143D01*
X10993571Y94431429D01*
X10993571Y93574286D01*
X10850714Y93288572D01*
X10707857Y93145715D01*
X10422142Y93002858D01*
X9993571Y93002858D01*
X13565000Y95002858D02*
X13565000Y93002858D01*
X12279285Y95002858D02*
X12279285Y93431429D01*
X12422142Y93145715D01*
X12707857Y93002858D01*
X13136428Y93002858D01*
X13422142Y93145715D01*
X13565000Y93288572D01*
X14565000Y95002858D02*
X15707857Y95002858D01*
X14993571Y96002858D02*
X14993571Y93431429D01*
X15136428Y93145715D01*
X15422142Y93002858D01*
X15707857Y93002858D01*
X16707857Y95002858D02*
X16707857Y92002858D01*
X16707857Y94860000D02*
X16993571Y95002858D01*
X17565000Y95002858D01*
X17850714Y94860000D01*
X17993571Y94717143D01*
X18136428Y94431429D01*
X18136428Y93574286D01*
X17993571Y93288572D01*
X17850714Y93145715D01*
X17565000Y93002858D01*
X16993571Y93002858D01*
X16707857Y93145715D01*
X20707857Y95002858D02*
X20707857Y93002858D01*
X19422142Y95002858D02*
X19422142Y93431429D01*
X19565000Y93145715D01*
X19850714Y93002858D01*
X20279285Y93002858D01*
X20565000Y93145715D01*
X20707857Y93288572D01*
X21707857Y95002858D02*
X22850714Y95002858D01*
X22136428Y96002858D02*
X22136428Y93431429D01*
X22279285Y93145715D01*
X22565000Y93002858D01*
X22850714Y93002858D01*
X23707857Y93145715D02*
X23993571Y93002858D01*
X24565000Y93002858D01*
X24850714Y93145715D01*
X24993571Y93431429D01*
X24993571Y93574286D01*
X24850714Y93860000D01*
X24565000Y94002858D01*
X24136428Y94002858D01*
X23850714Y94145715D01*
X23707857Y94431429D01*
X23707857Y94574286D01*
X23850714Y94860000D01*
X24136428Y95002858D01*
X24565000Y95002858D01*
X24850714Y94860000D01*
X-110006429Y88202858D02*
X-111006429Y89631429D01*
X-111720715Y88202858D02*
X-111720715Y91202858D01*
X-110577858Y91202858D01*
X-110292143Y91060000D01*
X-110149286Y90917143D01*
X-110006429Y90631429D01*
X-110006429Y90202858D01*
X-110149286Y89917143D01*
X-110292143Y89774286D01*
X-110577858Y89631429D01*
X-111720715Y89631429D01*
X-107577858Y88345715D02*
X-107863572Y88202858D01*
X-108435000Y88202858D01*
X-108720715Y88345715D01*
X-108863572Y88631429D01*
X-108863572Y89774286D01*
X-108720715Y90060000D01*
X-108435000Y90202858D01*
X-107863572Y90202858D01*
X-107577858Y90060000D01*
X-107435000Y89774286D01*
X-107435000Y89488572D01*
X-108863572Y89202858D01*
X-106435000Y90202858D02*
X-105720715Y88202858D01*
X-105006429Y90202858D01*
X-103863572Y88202858D02*
X-103863572Y90202858D01*
X-103863572Y91202858D02*
X-104006429Y91060000D01*
X-103863572Y90917143D01*
X-103720715Y91060000D01*
X-103863572Y91202858D01*
X-103863572Y90917143D01*
X-102577858Y88345715D02*
X-102292143Y88202858D01*
X-101720715Y88202858D01*
X-101435000Y88345715D01*
X-101292143Y88631429D01*
X-101292143Y88774286D01*
X-101435000Y89060000D01*
X-101720715Y89202858D01*
X-102149286Y89202858D01*
X-102435000Y89345715D01*
X-102577858Y89631429D01*
X-102577858Y89774286D01*
X-102435000Y90060000D01*
X-102149286Y90202858D01*
X-101720715Y90202858D01*
X-101435000Y90060000D01*
X-100006429Y88202858D02*
X-100006429Y90202858D01*
X-100006429Y91202858D02*
X-100149286Y91060000D01*
X-100006429Y90917143D01*
X-99863572Y91060000D01*
X-100006429Y91202858D01*
X-100006429Y90917143D01*
X-98149286Y88202858D02*
X-98435000Y88345715D01*
X-98577858Y88488572D01*
X-98720715Y88774286D01*
X-98720715Y89631429D01*
X-98577858Y89917143D01*
X-98435000Y90060000D01*
X-98149286Y90202858D01*
X-97720715Y90202858D01*
X-97435000Y90060000D01*
X-97292143Y89917143D01*
X-97149286Y89631429D01*
X-97149286Y88774286D01*
X-97292143Y88488572D01*
X-97435000Y88345715D01*
X-97720715Y88202858D01*
X-98149286Y88202858D01*
X-95863572Y90202858D02*
X-95863572Y88202858D01*
X-95863572Y89917143D02*
X-95720715Y90060000D01*
X-95435000Y90202858D01*
X-95006429Y90202858D01*
X-94720715Y90060000D01*
X-94577858Y89774286D01*
X-94577858Y88202858D01*
X-89292143Y88202858D02*
X-91006429Y88202858D01*
X-90149286Y88202858D02*
X-90149286Y91202858D01*
X-90435000Y90774286D01*
X-90720715Y90488572D01*
X-91006429Y90345715D01*
X-88006429Y88488572D02*
X-87863572Y88345715D01*
X-88006429Y88202858D01*
X-88149286Y88345715D01*
X-88006429Y88488572D01*
X-88006429Y88202858D01*
X-86006429Y91202858D02*
X-85720715Y91202858D01*
X-85435000Y91060000D01*
X-85292143Y90917143D01*
X-85149286Y90631429D01*
X-85006429Y90060000D01*
X-85006429Y89345715D01*
X-85149286Y88774286D01*
X-85292143Y88488572D01*
X-85435000Y88345715D01*
X-85720715Y88202858D01*
X-86006429Y88202858D01*
X-86292143Y88345715D01*
X-86435000Y88488572D01*
X-86577858Y88774286D01*
X-86720715Y89345715D01*
X-86720715Y90060000D01*
X-86577858Y90631429D01*
X-86435000Y90917143D01*
X-86292143Y91060000D01*
X-86006429Y91202858D01*
X-111695715Y-48507142D02*
X-111695715Y-45507142D01*
X-109981429Y-48507142D01*
X-109981429Y-45507142D01*
X-108124286Y-48507142D02*
X-108410000Y-48364285D01*
X-108552858Y-48221428D01*
X-108695715Y-47935714D01*
X-108695715Y-47078571D01*
X-108552858Y-46792857D01*
X-108410000Y-46650000D01*
X-108124286Y-46507142D01*
X-107695715Y-46507142D01*
X-107410000Y-46650000D01*
X-107267143Y-46792857D01*
X-107124286Y-47078571D01*
X-107124286Y-47935714D01*
X-107267143Y-48221428D01*
X-107410000Y-48364285D01*
X-107695715Y-48507142D01*
X-108124286Y-48507142D01*
X-106267143Y-46507142D02*
X-105124286Y-46507142D01*
X-105838572Y-45507142D02*
X-105838572Y-48078571D01*
X-105695715Y-48364285D01*
X-105410000Y-48507142D01*
X-105124286Y-48507142D01*
X-102981429Y-48364285D02*
X-103267143Y-48507142D01*
X-103838572Y-48507142D01*
X-104124286Y-48364285D01*
X-104267143Y-48078571D01*
X-104267143Y-46935714D01*
X-104124286Y-46650000D01*
X-103838572Y-46507142D01*
X-103267143Y-46507142D01*
X-102981429Y-46650000D01*
X-102838572Y-46935714D01*
X-102838572Y-47221428D01*
X-104267143Y-47507142D01*
X-101695715Y-48364285D02*
X-101410000Y-48507142D01*
X-100838572Y-48507142D01*
X-100552858Y-48364285D01*
X-100410000Y-48078571D01*
X-100410000Y-47935714D01*
X-100552858Y-47650000D01*
X-100838572Y-47507142D01*
X-101267143Y-47507142D01*
X-101552858Y-47364285D01*
X-101695715Y-47078571D01*
X-101695715Y-46935714D01*
X-101552858Y-46650000D01*
X-101267143Y-46507142D01*
X-100838572Y-46507142D01*
X-100552858Y-46650000D01*
X-99124286Y-48221428D02*
X-98981429Y-48364285D01*
X-99124286Y-48507142D01*
X-99267143Y-48364285D01*
X-99124286Y-48221428D01*
X-99124286Y-48507142D01*
X-99124286Y-46650000D02*
X-98981429Y-46792857D01*
X-99124286Y-46935714D01*
X-99267143Y-46792857D01*
X-99124286Y-46650000D01*
X-99124286Y-46935714D01*
X-110669400Y-51873571D02*
X-110669400Y-52873571D01*
X-111026543Y-51302142D02*
X-111383686Y-52373571D01*
X-110455115Y-52373571D01*
X-108526543Y-52873571D02*
X-108669400Y-52802142D01*
X-108740829Y-52659285D01*
X-108740829Y-51373571D01*
X-107312258Y-52873571D02*
X-107312258Y-52087857D01*
X-107383686Y-51945000D01*
X-107526543Y-51873571D01*
X-107812258Y-51873571D01*
X-107955115Y-51945000D01*
X-107312258Y-52802142D02*
X-107455115Y-52873571D01*
X-107812258Y-52873571D01*
X-107955115Y-52802142D01*
X-108026543Y-52659285D01*
X-108026543Y-52516428D01*
X-107955115Y-52373571D01*
X-107812258Y-52302142D01*
X-107455115Y-52302142D01*
X-107312258Y-52230714D01*
X-106740829Y-51873571D02*
X-106383686Y-52873571D01*
X-106026543Y-51873571D02*
X-106383686Y-52873571D01*
X-106526543Y-53230714D01*
X-106597972Y-53302142D01*
X-106740829Y-53373571D01*
X-104883686Y-52802142D02*
X-105026543Y-52873571D01*
X-105312258Y-52873571D01*
X-105455115Y-52802142D01*
X-105526543Y-52659285D01*
X-105526543Y-52087857D01*
X-105455115Y-51945000D01*
X-105312258Y-51873571D01*
X-105026543Y-51873571D01*
X-104883686Y-51945000D01*
X-104812258Y-52087857D01*
X-104812258Y-52230714D01*
X-105526543Y-52373571D01*
X-104169400Y-52873571D02*
X-104169400Y-51873571D01*
X-104169400Y-52159285D02*
X-104097972Y-52016428D01*
X-104026543Y-51945000D01*
X-103883686Y-51873571D01*
X-103740829Y-51873571D01*
X-102169400Y-52802142D02*
X-102026543Y-52873571D01*
X-101740829Y-52873571D01*
X-101597972Y-52802142D01*
X-101526543Y-52659285D01*
X-101526543Y-52587857D01*
X-101597972Y-52445000D01*
X-101740829Y-52373571D01*
X-101955115Y-52373571D01*
X-102097972Y-52302142D01*
X-102169400Y-52159285D01*
X-102169400Y-52087857D01*
X-102097972Y-51945000D01*
X-101955115Y-51873571D01*
X-101740829Y-51873571D01*
X-101597972Y-51945000D01*
X-101097972Y-51873571D02*
X-100526543Y-51873571D01*
X-100883686Y-51373571D02*
X-100883686Y-52659285D01*
X-100812258Y-52802142D01*
X-100669400Y-52873571D01*
X-100526543Y-52873571D01*
X-99383686Y-52873571D02*
X-99383686Y-52087857D01*
X-99455115Y-51945000D01*
X-99597972Y-51873571D01*
X-99883686Y-51873571D01*
X-100026543Y-51945000D01*
X-99383686Y-52802142D02*
X-99526543Y-52873571D01*
X-99883686Y-52873571D01*
X-100026543Y-52802142D01*
X-100097972Y-52659285D01*
X-100097972Y-52516428D01*
X-100026543Y-52373571D01*
X-99883686Y-52302142D01*
X-99526543Y-52302142D01*
X-99383686Y-52230714D01*
X-98026543Y-52802142D02*
X-98169400Y-52873571D01*
X-98455115Y-52873571D01*
X-98597972Y-52802142D01*
X-98669401Y-52730714D01*
X-98740829Y-52587857D01*
X-98740829Y-52159285D01*
X-98669401Y-52016428D01*
X-98597972Y-51945000D01*
X-98455115Y-51873571D01*
X-98169400Y-51873571D01*
X-98026543Y-51945000D01*
X-97383686Y-52873571D02*
X-97383686Y-51373571D01*
X-97240829Y-52302142D02*
X-96812258Y-52873571D01*
X-96812258Y-51873571D02*
X-97383686Y-52445000D01*
X-95526543Y-51873571D02*
X-95526543Y-52873571D01*
X-96169400Y-51873571D02*
X-96169400Y-52659285D01*
X-96097972Y-52802142D01*
X-95955115Y-52873571D01*
X-95740829Y-52873571D01*
X-95597972Y-52802142D01*
X-95526543Y-52730714D01*
X-94812258Y-51873571D02*
X-94812258Y-53373571D01*
X-94812258Y-51945000D02*
X-94669400Y-51873571D01*
X-94383686Y-51873571D01*
X-94240829Y-51945000D01*
X-94169400Y-52016428D01*
X-94097972Y-52159285D01*
X-94097972Y-52587857D01*
X-94169400Y-52730714D01*
X-94240829Y-52802142D01*
X-94383686Y-52873571D01*
X-94669400Y-52873571D01*
X-94812258Y-52802142D01*
X-93455115Y-52730714D02*
X-93383686Y-52802142D01*
X-93455115Y-52873571D01*
X-93526543Y-52802142D01*
X-93455115Y-52730714D01*
X-93455115Y-52873571D01*
X-93455115Y-51945000D02*
X-93383686Y-52016428D01*
X-93455115Y-52087857D01*
X-93526543Y-52016428D01*
X-93455115Y-51945000D01*
X-93455115Y-52087857D01*
X-110526543Y-55423571D02*
X-111383686Y-55423571D01*
X-110955115Y-55423571D02*
X-110955115Y-53923571D01*
X-111097972Y-54137857D01*
X-111240829Y-54280714D01*
X-111383686Y-54352142D01*
X-109669400Y-55423571D02*
X-109812258Y-55352142D01*
X-109883686Y-55280714D01*
X-109955115Y-55137857D01*
X-109955115Y-54709285D01*
X-109883686Y-54566428D01*
X-109812258Y-54495000D01*
X-109669400Y-54423571D01*
X-109455115Y-54423571D01*
X-109312258Y-54495000D01*
X-109240829Y-54566428D01*
X-109169400Y-54709285D01*
X-109169400Y-55137857D01*
X-109240829Y-55280714D01*
X-109312258Y-55352142D01*
X-109455115Y-55423571D01*
X-109669400Y-55423571D01*
X-108669400Y-54423571D02*
X-107883686Y-54423571D01*
X-108669400Y-55423571D01*
X-107883686Y-55423571D01*
X-105526543Y-55352142D02*
X-105669400Y-55423571D01*
X-105955115Y-55423571D01*
X-106097972Y-55352142D01*
X-106169400Y-55280714D01*
X-106240829Y-55137857D01*
X-106240829Y-54709285D01*
X-106169400Y-54566428D01*
X-106097972Y-54495000D01*
X-105955115Y-54423571D01*
X-105669400Y-54423571D01*
X-105526543Y-54495000D01*
X-104669400Y-55423571D02*
X-104812258Y-55352142D01*
X-104883686Y-55280714D01*
X-104955115Y-55137857D01*
X-104955115Y-54709285D01*
X-104883686Y-54566428D01*
X-104812258Y-54495000D01*
X-104669400Y-54423571D01*
X-104455115Y-54423571D01*
X-104312258Y-54495000D01*
X-104240829Y-54566428D01*
X-104169400Y-54709285D01*
X-104169400Y-55137857D01*
X-104240829Y-55280714D01*
X-104312258Y-55352142D01*
X-104455115Y-55423571D01*
X-104669400Y-55423571D01*
X-103526543Y-54423571D02*
X-103526543Y-55923571D01*
X-103526543Y-54495000D02*
X-103383686Y-54423571D01*
X-103097972Y-54423571D01*
X-102955115Y-54495000D01*
X-102883686Y-54566428D01*
X-102812258Y-54709285D01*
X-102812258Y-55137857D01*
X-102883686Y-55280714D01*
X-102955115Y-55352142D01*
X-103097972Y-55423571D01*
X-103383686Y-55423571D01*
X-103526543Y-55352142D01*
X-102169400Y-54423571D02*
X-102169400Y-55923571D01*
X-102169400Y-54495000D02*
X-102026543Y-54423571D01*
X-101740829Y-54423571D01*
X-101597972Y-54495000D01*
X-101526543Y-54566428D01*
X-101455115Y-54709285D01*
X-101455115Y-55137857D01*
X-101526543Y-55280714D01*
X-101597972Y-55352142D01*
X-101740829Y-55423571D01*
X-102026543Y-55423571D01*
X-102169400Y-55352142D01*
X-100240829Y-55352142D02*
X-100383686Y-55423571D01*
X-100669400Y-55423571D01*
X-100812258Y-55352142D01*
X-100883686Y-55209285D01*
X-100883686Y-54637857D01*
X-100812258Y-54495000D01*
X-100669400Y-54423571D01*
X-100383686Y-54423571D01*
X-100240829Y-54495000D01*
X-100169400Y-54637857D01*
X-100169400Y-54780714D01*
X-100883686Y-54923571D01*
X-99526543Y-55423571D02*
X-99526543Y-54423571D01*
X-99526543Y-54709285D02*
X-99455115Y-54566428D01*
X-99383686Y-54495000D01*
X-99240829Y-54423571D01*
X-99097972Y-54423571D01*
X-111026543Y-56473571D02*
X-110883686Y-56473571D01*
X-110740829Y-56545000D01*
X-110669400Y-56616428D01*
X-110597972Y-56759285D01*
X-110526543Y-57045000D01*
X-110526543Y-57402142D01*
X-110597972Y-57687857D01*
X-110669400Y-57830714D01*
X-110740829Y-57902142D01*
X-110883686Y-57973571D01*
X-111026543Y-57973571D01*
X-111169400Y-57902142D01*
X-111240829Y-57830714D01*
X-111312258Y-57687857D01*
X-111383686Y-57402142D01*
X-111383686Y-57045000D01*
X-111312258Y-56759285D01*
X-111240829Y-56616428D01*
X-111169400Y-56545000D01*
X-111026543Y-56473571D01*
X-109883686Y-57830714D02*
X-109812258Y-57902142D01*
X-109883686Y-57973571D01*
X-109955115Y-57902142D01*
X-109883686Y-57830714D01*
X-109883686Y-57973571D01*
X-109240829Y-56616428D02*
X-109169400Y-56545000D01*
X-109026543Y-56473571D01*
X-108669400Y-56473571D01*
X-108526543Y-56545000D01*
X-108455115Y-56616428D01*
X-108383686Y-56759285D01*
X-108383686Y-56902142D01*
X-108455115Y-57116428D01*
X-109312258Y-57973571D01*
X-108383686Y-57973571D01*
X-107740829Y-57973571D02*
X-107740829Y-56973571D01*
X-107740829Y-57116428D02*
X-107669400Y-57045000D01*
X-107526543Y-56973571D01*
X-107312258Y-56973571D01*
X-107169400Y-57045000D01*
X-107097972Y-57187857D01*
X-107097972Y-57973571D01*
X-107097972Y-57187857D02*
X-107026543Y-57045000D01*
X-106883686Y-56973571D01*
X-106669400Y-56973571D01*
X-106526543Y-57045000D01*
X-106455115Y-57187857D01*
X-106455115Y-57973571D01*
X-105740829Y-57973571D02*
X-105740829Y-56973571D01*
X-105740829Y-57116428D02*
X-105669400Y-57045000D01*
X-105526543Y-56973571D01*
X-105312258Y-56973571D01*
X-105169400Y-57045000D01*
X-105097972Y-57187857D01*
X-105097972Y-57973571D01*
X-105097972Y-57187857D02*
X-105026543Y-57045000D01*
X-104883686Y-56973571D01*
X-104669400Y-56973571D01*
X-104526543Y-57045000D01*
X-104455115Y-57187857D01*
X-104455115Y-57973571D01*
X-102383686Y-57973571D02*
X-102526543Y-57902142D01*
X-102597972Y-57830714D01*
X-102669400Y-57687857D01*
X-102669400Y-57259285D01*
X-102597972Y-57116428D01*
X-102526543Y-57045000D01*
X-102383686Y-56973571D01*
X-102169400Y-56973571D01*
X-102026543Y-57045000D01*
X-101955115Y-57116428D01*
X-101883686Y-57259285D01*
X-101883686Y-57687857D01*
X-101955115Y-57830714D01*
X-102026543Y-57902142D01*
X-102169400Y-57973571D01*
X-102383686Y-57973571D01*
X-101240829Y-57973571D02*
X-101240829Y-56973571D01*
X-101240829Y-57259285D02*
X-101169400Y-57116428D01*
X-101097972Y-57045000D01*
X-100955115Y-56973571D01*
X-100812258Y-56973571D01*
X-98883686Y-56473571D02*
X-98740829Y-56473571D01*
X-98597972Y-56545000D01*
X-98526543Y-56616428D01*
X-98455115Y-56759285D01*
X-98383686Y-57045000D01*
X-98383686Y-57402142D01*
X-98455115Y-57687857D01*
X-98526543Y-57830714D01*
X-98597972Y-57902142D01*
X-98740829Y-57973571D01*
X-98883686Y-57973571D01*
X-99026543Y-57902142D01*
X-99097972Y-57830714D01*
X-99169400Y-57687857D01*
X-99240829Y-57402142D01*
X-99240829Y-57045000D01*
X-99169400Y-56759285D01*
X-99097972Y-56616428D01*
X-99026543Y-56545000D01*
X-98883686Y-56473571D01*
X-97740829Y-57830714D02*
X-97669400Y-57902142D01*
X-97740829Y-57973571D01*
X-97812258Y-57902142D01*
X-97740829Y-57830714D01*
X-97740829Y-57973571D01*
X-96240829Y-57973571D02*
X-97097972Y-57973571D01*
X-96669400Y-57973571D02*
X-96669400Y-56473571D01*
X-96812258Y-56687857D01*
X-96955115Y-56830714D01*
X-97097972Y-56902142D01*
X-95383686Y-57116428D02*
X-95526543Y-57045000D01*
X-95597972Y-56973571D01*
X-95669400Y-56830714D01*
X-95669400Y-56759285D01*
X-95597972Y-56616428D01*
X-95526543Y-56545000D01*
X-95383686Y-56473571D01*
X-95097972Y-56473571D01*
X-94955115Y-56545000D01*
X-94883686Y-56616428D01*
X-94812258Y-56759285D01*
X-94812258Y-56830714D01*
X-94883686Y-56973571D01*
X-94955115Y-57045000D01*
X-95097972Y-57116428D01*
X-95383686Y-57116428D01*
X-95526543Y-57187857D01*
X-95597972Y-57259285D01*
X-95669400Y-57402142D01*
X-95669400Y-57687857D01*
X-95597972Y-57830714D01*
X-95526543Y-57902142D01*
X-95383686Y-57973571D01*
X-95097972Y-57973571D01*
X-94955115Y-57902142D01*
X-94883686Y-57830714D01*
X-94812258Y-57687857D01*
X-94812258Y-57402142D01*
X-94883686Y-57259285D01*
X-94955115Y-57187857D01*
X-95097972Y-57116428D01*
X-94169400Y-57973571D02*
X-94169400Y-56973571D01*
X-94169400Y-57116428D02*
X-94097972Y-57045000D01*
X-93955115Y-56973571D01*
X-93740829Y-56973571D01*
X-93597972Y-57045000D01*
X-93526543Y-57187857D01*
X-93526543Y-57973571D01*
X-93526543Y-57187857D02*
X-93455115Y-57045000D01*
X-93312258Y-56973571D01*
X-93097972Y-56973571D01*
X-92955115Y-57045000D01*
X-92883686Y-57187857D01*
X-92883686Y-57973571D01*
X-92169400Y-57973571D02*
X-92169400Y-56973571D01*
X-92169400Y-57116428D02*
X-92097972Y-57045000D01*
X-91955115Y-56973571D01*
X-91740829Y-56973571D01*
X-91597972Y-57045000D01*
X-91526543Y-57187857D01*
X-91526543Y-57973571D01*
X-91526543Y-57187857D02*
X-91455115Y-57045000D01*
X-91312258Y-56973571D01*
X-91097972Y-56973571D01*
X-90955115Y-57045000D01*
X-90883686Y-57187857D01*
X-90883686Y-57973571D01*
X-88526543Y-57187857D02*
X-89026543Y-57187857D01*
X-89026543Y-57973571D02*
X-89026543Y-56473571D01*
X-88312258Y-56473571D01*
X-86883686Y-57973571D02*
X-87383686Y-57259285D01*
X-87740829Y-57973571D02*
X-87740829Y-56473571D01*
X-87169400Y-56473571D01*
X-87026543Y-56545000D01*
X-86955115Y-56616428D01*
X-86883686Y-56759285D01*
X-86883686Y-56973571D01*
X-86955115Y-57116428D01*
X-87026543Y-57187857D01*
X-87169400Y-57259285D01*
X-87740829Y-57259285D01*
X-85597972Y-56973571D02*
X-85597972Y-57973571D01*
X-85955115Y-56402142D02*
X-86312258Y-57473571D01*
X-85383686Y-57473571D01*
X-111026543Y-59023571D02*
X-110883686Y-59023571D01*
X-110740829Y-59095000D01*
X-110669400Y-59166428D01*
X-110597972Y-59309285D01*
X-110526543Y-59595000D01*
X-110526543Y-59952142D01*
X-110597972Y-60237857D01*
X-110669400Y-60380714D01*
X-110740829Y-60452142D01*
X-110883686Y-60523571D01*
X-111026543Y-60523571D01*
X-111169400Y-60452142D01*
X-111240829Y-60380714D01*
X-111312258Y-60237857D01*
X-111383686Y-59952142D01*
X-111383686Y-59595000D01*
X-111312258Y-59309285D01*
X-111240829Y-59166428D01*
X-111169400Y-59095000D01*
X-111026543Y-59023571D01*
X-109883686Y-60380714D02*
X-109812258Y-60452142D01*
X-109883686Y-60523571D01*
X-109955115Y-60452142D01*
X-109883686Y-60380714D01*
X-109883686Y-60523571D01*
X-108455115Y-59023571D02*
X-109169400Y-59023571D01*
X-109240829Y-59737857D01*
X-109169400Y-59666428D01*
X-109026543Y-59595000D01*
X-108669400Y-59595000D01*
X-108526543Y-59666428D01*
X-108455115Y-59737857D01*
X-108383686Y-59880714D01*
X-108383686Y-60237857D01*
X-108455115Y-60380714D01*
X-108526543Y-60452142D01*
X-108669400Y-60523571D01*
X-109026543Y-60523571D01*
X-109169400Y-60452142D01*
X-109240829Y-60380714D01*
X-107526543Y-60523571D02*
X-107669400Y-60452142D01*
X-107740829Y-60380714D01*
X-107812258Y-60237857D01*
X-107812258Y-59809285D01*
X-107740829Y-59666428D01*
X-107669400Y-59595000D01*
X-107526543Y-59523571D01*
X-107312258Y-59523571D01*
X-107169400Y-59595000D01*
X-107097972Y-59666428D01*
X-107026543Y-59809285D01*
X-107026543Y-60237857D01*
X-107097972Y-60380714D01*
X-107169400Y-60452142D01*
X-107312258Y-60523571D01*
X-107526543Y-60523571D01*
X-106526543Y-59523571D02*
X-105740829Y-59523571D01*
X-106526543Y-60523571D01*
X-105740829Y-60523571D01*
X-103383686Y-60452142D02*
X-103526543Y-60523571D01*
X-103812258Y-60523571D01*
X-103955115Y-60452142D01*
X-104026543Y-60380714D01*
X-104097972Y-60237857D01*
X-104097972Y-59809285D01*
X-104026543Y-59666428D01*
X-103955115Y-59595000D01*
X-103812258Y-59523571D01*
X-103526543Y-59523571D01*
X-103383686Y-59595000D01*
X-102526543Y-60523571D02*
X-102669400Y-60452142D01*
X-102740829Y-60380714D01*
X-102812258Y-60237857D01*
X-102812258Y-59809285D01*
X-102740829Y-59666428D01*
X-102669400Y-59595000D01*
X-102526543Y-59523571D01*
X-102312258Y-59523571D01*
X-102169400Y-59595000D01*
X-102097972Y-59666428D01*
X-102026543Y-59809285D01*
X-102026543Y-60237857D01*
X-102097972Y-60380714D01*
X-102169400Y-60452142D01*
X-102312258Y-60523571D01*
X-102526543Y-60523571D01*
X-101383686Y-59523571D02*
X-101383686Y-61023571D01*
X-101383686Y-59595000D02*
X-101240829Y-59523571D01*
X-100955115Y-59523571D01*
X-100812258Y-59595000D01*
X-100740829Y-59666428D01*
X-100669400Y-59809285D01*
X-100669400Y-60237857D01*
X-100740829Y-60380714D01*
X-100812258Y-60452142D01*
X-100955115Y-60523571D01*
X-101240829Y-60523571D01*
X-101383686Y-60452142D01*
X-100026543Y-59523571D02*
X-100026543Y-61023571D01*
X-100026543Y-59595000D02*
X-99883686Y-59523571D01*
X-99597972Y-59523571D01*
X-99455115Y-59595000D01*
X-99383686Y-59666428D01*
X-99312258Y-59809285D01*
X-99312258Y-60237857D01*
X-99383686Y-60380714D01*
X-99455115Y-60452142D01*
X-99597972Y-60523571D01*
X-99883686Y-60523571D01*
X-100026543Y-60452142D01*
X-98097972Y-60452142D02*
X-98240829Y-60523571D01*
X-98526543Y-60523571D01*
X-98669401Y-60452142D01*
X-98740829Y-60309285D01*
X-98740829Y-59737857D01*
X-98669401Y-59595000D01*
X-98526543Y-59523571D01*
X-98240829Y-59523571D01*
X-98097972Y-59595000D01*
X-98026543Y-59737857D01*
X-98026543Y-59880714D01*
X-98740829Y-60023571D01*
X-97383686Y-60523571D02*
X-97383686Y-59523571D01*
X-97383686Y-59809285D02*
X-97312258Y-59666428D01*
X-97240829Y-59595000D01*
X-97097972Y-59523571D01*
X-96955115Y-59523571D01*
X-110526543Y-63073571D02*
X-111383686Y-63073571D01*
X-110955115Y-63073571D02*
X-110955115Y-61573571D01*
X-111097972Y-61787857D01*
X-111240829Y-61930714D01*
X-111383686Y-62002142D01*
X-109883686Y-62930714D02*
X-109812258Y-63002142D01*
X-109883686Y-63073571D01*
X-109955115Y-63002142D01*
X-109883686Y-62930714D01*
X-109883686Y-63073571D01*
X-109240829Y-61716428D02*
X-109169400Y-61645000D01*
X-109026543Y-61573571D01*
X-108669400Y-61573571D01*
X-108526543Y-61645000D01*
X-108455115Y-61716428D01*
X-108383686Y-61859285D01*
X-108383686Y-62002142D01*
X-108455115Y-62216428D01*
X-109312258Y-63073571D01*
X-108383686Y-63073571D01*
X-107740829Y-63073571D02*
X-107740829Y-62073571D01*
X-107740829Y-62216428D02*
X-107669400Y-62145000D01*
X-107526543Y-62073571D01*
X-107312258Y-62073571D01*
X-107169400Y-62145000D01*
X-107097972Y-62287857D01*
X-107097972Y-63073571D01*
X-107097972Y-62287857D02*
X-107026543Y-62145000D01*
X-106883686Y-62073571D01*
X-106669400Y-62073571D01*
X-106526543Y-62145000D01*
X-106455115Y-62287857D01*
X-106455115Y-63073571D01*
X-105740829Y-63073571D02*
X-105740829Y-62073571D01*
X-105740829Y-62216428D02*
X-105669400Y-62145000D01*
X-105526543Y-62073571D01*
X-105312258Y-62073571D01*
X-105169400Y-62145000D01*
X-105097972Y-62287857D01*
X-105097972Y-63073571D01*
X-105097972Y-62287857D02*
X-105026543Y-62145000D01*
X-104883686Y-62073571D01*
X-104669400Y-62073571D01*
X-104526543Y-62145000D01*
X-104455115Y-62287857D01*
X-104455115Y-63073571D01*
X-102383686Y-63073571D02*
X-102526543Y-63002142D01*
X-102597972Y-62930714D01*
X-102669400Y-62787857D01*
X-102669400Y-62359285D01*
X-102597972Y-62216428D01*
X-102526543Y-62145000D01*
X-102383686Y-62073571D01*
X-102169400Y-62073571D01*
X-102026543Y-62145000D01*
X-101955115Y-62216428D01*
X-101883686Y-62359285D01*
X-101883686Y-62787857D01*
X-101955115Y-62930714D01*
X-102026543Y-63002142D01*
X-102169400Y-63073571D01*
X-102383686Y-63073571D01*
X-101240829Y-63073571D02*
X-101240829Y-62073571D01*
X-101240829Y-62359285D02*
X-101169400Y-62216428D01*
X-101097972Y-62145000D01*
X-100955115Y-62073571D01*
X-100812258Y-62073571D01*
X-98383686Y-63073571D02*
X-99240829Y-63073571D01*
X-98812258Y-63073571D02*
X-98812258Y-61573571D01*
X-98955115Y-61787857D01*
X-99097972Y-61930714D01*
X-99240829Y-62002142D01*
X-97740829Y-62930714D02*
X-97669400Y-63002142D01*
X-97740829Y-63073571D01*
X-97812258Y-63002142D01*
X-97740829Y-62930714D01*
X-97740829Y-63073571D01*
X-96240829Y-63073571D02*
X-97097972Y-63073571D01*
X-96669400Y-63073571D02*
X-96669400Y-61573571D01*
X-96812258Y-61787857D01*
X-96955115Y-61930714D01*
X-97097972Y-62002142D01*
X-95669400Y-61716428D02*
X-95597972Y-61645000D01*
X-95455115Y-61573571D01*
X-95097972Y-61573571D01*
X-94955115Y-61645000D01*
X-94883686Y-61716428D01*
X-94812258Y-61859285D01*
X-94812258Y-62002142D01*
X-94883686Y-62216428D01*
X-95740829Y-63073571D01*
X-94812258Y-63073571D01*
X-94169400Y-63073571D02*
X-94169400Y-62073571D01*
X-94169400Y-62216428D02*
X-94097972Y-62145000D01*
X-93955115Y-62073571D01*
X-93740829Y-62073571D01*
X-93597972Y-62145000D01*
X-93526543Y-62287857D01*
X-93526543Y-63073571D01*
X-93526543Y-62287857D02*
X-93455115Y-62145000D01*
X-93312258Y-62073571D01*
X-93097972Y-62073571D01*
X-92955115Y-62145000D01*
X-92883686Y-62287857D01*
X-92883686Y-63073571D01*
X-92169400Y-63073571D02*
X-92169400Y-62073571D01*
X-92169400Y-62216428D02*
X-92097972Y-62145000D01*
X-91955115Y-62073571D01*
X-91740829Y-62073571D01*
X-91597972Y-62145000D01*
X-91526543Y-62287857D01*
X-91526543Y-63073571D01*
X-91526543Y-62287857D02*
X-91455115Y-62145000D01*
X-91312258Y-62073571D01*
X-91097972Y-62073571D01*
X-90955115Y-62145000D01*
X-90883686Y-62287857D01*
X-90883686Y-63073571D01*
X-88526543Y-62287857D02*
X-89026543Y-62287857D01*
X-89026543Y-63073571D02*
X-89026543Y-61573571D01*
X-88312258Y-61573571D01*
X-86883686Y-63073571D02*
X-87383686Y-62359285D01*
X-87740829Y-63073571D02*
X-87740829Y-61573571D01*
X-87169400Y-61573571D01*
X-87026543Y-61645000D01*
X-86955115Y-61716428D01*
X-86883686Y-61859285D01*
X-86883686Y-62073571D01*
X-86955115Y-62216428D01*
X-87026543Y-62287857D01*
X-87169400Y-62359285D01*
X-87740829Y-62359285D01*
X-85597972Y-62073571D02*
X-85597972Y-63073571D01*
X-85955115Y-61502142D02*
X-86312258Y-62573571D01*
X-85383686Y-62573571D01*
X-111026543Y-64123571D02*
X-110883686Y-64123571D01*
X-110740829Y-64195000D01*
X-110669400Y-64266428D01*
X-110597972Y-64409285D01*
X-110526543Y-64695000D01*
X-110526543Y-65052142D01*
X-110597972Y-65337857D01*
X-110669400Y-65480714D01*
X-110740829Y-65552142D01*
X-110883686Y-65623571D01*
X-111026543Y-65623571D01*
X-111169400Y-65552142D01*
X-111240829Y-65480714D01*
X-111312258Y-65337857D01*
X-111383686Y-65052142D01*
X-111383686Y-64695000D01*
X-111312258Y-64409285D01*
X-111240829Y-64266428D01*
X-111169400Y-64195000D01*
X-111026543Y-64123571D01*
X-109883686Y-65480714D02*
X-109812258Y-65552142D01*
X-109883686Y-65623571D01*
X-109955115Y-65552142D01*
X-109883686Y-65480714D01*
X-109883686Y-65623571D01*
X-108455115Y-64123571D02*
X-109169400Y-64123571D01*
X-109240829Y-64837857D01*
X-109169400Y-64766428D01*
X-109026543Y-64695000D01*
X-108669400Y-64695000D01*
X-108526543Y-64766428D01*
X-108455115Y-64837857D01*
X-108383686Y-64980714D01*
X-108383686Y-65337857D01*
X-108455115Y-65480714D01*
X-108526543Y-65552142D01*
X-108669400Y-65623571D01*
X-109026543Y-65623571D01*
X-109169400Y-65552142D01*
X-109240829Y-65480714D01*
X-107526543Y-65623571D02*
X-107669400Y-65552142D01*
X-107740829Y-65480714D01*
X-107812258Y-65337857D01*
X-107812258Y-64909285D01*
X-107740829Y-64766428D01*
X-107669400Y-64695000D01*
X-107526543Y-64623571D01*
X-107312258Y-64623571D01*
X-107169400Y-64695000D01*
X-107097972Y-64766428D01*
X-107026543Y-64909285D01*
X-107026543Y-65337857D01*
X-107097972Y-65480714D01*
X-107169400Y-65552142D01*
X-107312258Y-65623571D01*
X-107526543Y-65623571D01*
X-106526543Y-64623571D02*
X-105740829Y-64623571D01*
X-106526543Y-65623571D01*
X-105740829Y-65623571D01*
X-103383686Y-65552142D02*
X-103526543Y-65623571D01*
X-103812258Y-65623571D01*
X-103955115Y-65552142D01*
X-104026543Y-65480714D01*
X-104097972Y-65337857D01*
X-104097972Y-64909285D01*
X-104026543Y-64766428D01*
X-103955115Y-64695000D01*
X-103812258Y-64623571D01*
X-103526543Y-64623571D01*
X-103383686Y-64695000D01*
X-102526543Y-65623571D02*
X-102669400Y-65552142D01*
X-102740829Y-65480714D01*
X-102812258Y-65337857D01*
X-102812258Y-64909285D01*
X-102740829Y-64766428D01*
X-102669400Y-64695000D01*
X-102526543Y-64623571D01*
X-102312258Y-64623571D01*
X-102169400Y-64695000D01*
X-102097972Y-64766428D01*
X-102026543Y-64909285D01*
X-102026543Y-65337857D01*
X-102097972Y-65480714D01*
X-102169400Y-65552142D01*
X-102312258Y-65623571D01*
X-102526543Y-65623571D01*
X-101383686Y-64623571D02*
X-101383686Y-66123571D01*
X-101383686Y-64695000D02*
X-101240829Y-64623571D01*
X-100955115Y-64623571D01*
X-100812258Y-64695000D01*
X-100740829Y-64766428D01*
X-100669400Y-64909285D01*
X-100669400Y-65337857D01*
X-100740829Y-65480714D01*
X-100812258Y-65552142D01*
X-100955115Y-65623571D01*
X-101240829Y-65623571D01*
X-101383686Y-65552142D01*
X-100026543Y-64623571D02*
X-100026543Y-66123571D01*
X-100026543Y-64695000D02*
X-99883686Y-64623571D01*
X-99597972Y-64623571D01*
X-99455115Y-64695000D01*
X-99383686Y-64766428D01*
X-99312258Y-64909285D01*
X-99312258Y-65337857D01*
X-99383686Y-65480714D01*
X-99455115Y-65552142D01*
X-99597972Y-65623571D01*
X-99883686Y-65623571D01*
X-100026543Y-65552142D01*
X-98097972Y-65552142D02*
X-98240829Y-65623571D01*
X-98526543Y-65623571D01*
X-98669401Y-65552142D01*
X-98740829Y-65409285D01*
X-98740829Y-64837857D01*
X-98669401Y-64695000D01*
X-98526543Y-64623571D01*
X-98240829Y-64623571D01*
X-98097972Y-64695000D01*
X-98026543Y-64837857D01*
X-98026543Y-64980714D01*
X-98740829Y-65123571D01*
X-97383686Y-65623571D02*
X-97383686Y-64623571D01*
X-97383686Y-64909285D02*
X-97312258Y-64766428D01*
X-97240829Y-64695000D01*
X-97097972Y-64623571D01*
X-96955115Y-64623571D01*
X-111026543Y-66673571D02*
X-110883686Y-66673571D01*
X-110740829Y-66745000D01*
X-110669400Y-66816428D01*
X-110597972Y-66959285D01*
X-110526543Y-67245000D01*
X-110526543Y-67602142D01*
X-110597972Y-67887857D01*
X-110669400Y-68030714D01*
X-110740829Y-68102142D01*
X-110883686Y-68173571D01*
X-111026543Y-68173571D01*
X-111169400Y-68102142D01*
X-111240829Y-68030714D01*
X-111312258Y-67887857D01*
X-111383686Y-67602142D01*
X-111383686Y-67245000D01*
X-111312258Y-66959285D01*
X-111240829Y-66816428D01*
X-111169400Y-66745000D01*
X-111026543Y-66673571D01*
X-109883686Y-68030714D02*
X-109812258Y-68102142D01*
X-109883686Y-68173571D01*
X-109955115Y-68102142D01*
X-109883686Y-68030714D01*
X-109883686Y-68173571D01*
X-109240829Y-66816428D02*
X-109169400Y-66745000D01*
X-109026543Y-66673571D01*
X-108669400Y-66673571D01*
X-108526543Y-66745000D01*
X-108455115Y-66816428D01*
X-108383686Y-66959285D01*
X-108383686Y-67102142D01*
X-108455115Y-67316428D01*
X-109312258Y-68173571D01*
X-108383686Y-68173571D01*
X-107740829Y-68173571D02*
X-107740829Y-67173571D01*
X-107740829Y-67316428D02*
X-107669400Y-67245000D01*
X-107526543Y-67173571D01*
X-107312258Y-67173571D01*
X-107169400Y-67245000D01*
X-107097972Y-67387857D01*
X-107097972Y-68173571D01*
X-107097972Y-67387857D02*
X-107026543Y-67245000D01*
X-106883686Y-67173571D01*
X-106669400Y-67173571D01*
X-106526543Y-67245000D01*
X-106455115Y-67387857D01*
X-106455115Y-68173571D01*
X-105740829Y-68173571D02*
X-105740829Y-67173571D01*
X-105740829Y-67316428D02*
X-105669400Y-67245000D01*
X-105526543Y-67173571D01*
X-105312258Y-67173571D01*
X-105169400Y-67245000D01*
X-105097972Y-67387857D01*
X-105097972Y-68173571D01*
X-105097972Y-67387857D02*
X-105026543Y-67245000D01*
X-104883686Y-67173571D01*
X-104669400Y-67173571D01*
X-104526543Y-67245000D01*
X-104455115Y-67387857D01*
X-104455115Y-68173571D01*
X-102383686Y-68173571D02*
X-102526543Y-68102142D01*
X-102597972Y-68030714D01*
X-102669400Y-67887857D01*
X-102669400Y-67459285D01*
X-102597972Y-67316428D01*
X-102526543Y-67245000D01*
X-102383686Y-67173571D01*
X-102169400Y-67173571D01*
X-102026543Y-67245000D01*
X-101955115Y-67316428D01*
X-101883686Y-67459285D01*
X-101883686Y-67887857D01*
X-101955115Y-68030714D01*
X-102026543Y-68102142D01*
X-102169400Y-68173571D01*
X-102383686Y-68173571D01*
X-101240829Y-68173571D02*
X-101240829Y-67173571D01*
X-101240829Y-67459285D02*
X-101169400Y-67316428D01*
X-101097972Y-67245000D01*
X-100955115Y-67173571D01*
X-100812258Y-67173571D01*
X-98883686Y-66673571D02*
X-98740829Y-66673571D01*
X-98597972Y-66745000D01*
X-98526543Y-66816428D01*
X-98455115Y-66959285D01*
X-98383686Y-67245000D01*
X-98383686Y-67602142D01*
X-98455115Y-67887857D01*
X-98526543Y-68030714D01*
X-98597972Y-68102142D01*
X-98740829Y-68173571D01*
X-98883686Y-68173571D01*
X-99026543Y-68102142D01*
X-99097972Y-68030714D01*
X-99169400Y-67887857D01*
X-99240829Y-67602142D01*
X-99240829Y-67245000D01*
X-99169400Y-66959285D01*
X-99097972Y-66816428D01*
X-99026543Y-66745000D01*
X-98883686Y-66673571D01*
X-97740829Y-68030714D02*
X-97669400Y-68102142D01*
X-97740829Y-68173571D01*
X-97812258Y-68102142D01*
X-97740829Y-68030714D01*
X-97740829Y-68173571D01*
X-96240829Y-68173571D02*
X-97097972Y-68173571D01*
X-96669400Y-68173571D02*
X-96669400Y-66673571D01*
X-96812258Y-66887857D01*
X-96955115Y-67030714D01*
X-97097972Y-67102142D01*
X-95383686Y-67316428D02*
X-95526543Y-67245000D01*
X-95597972Y-67173571D01*
X-95669400Y-67030714D01*
X-95669400Y-66959285D01*
X-95597972Y-66816428D01*
X-95526543Y-66745000D01*
X-95383686Y-66673571D01*
X-95097972Y-66673571D01*
X-94955115Y-66745000D01*
X-94883686Y-66816428D01*
X-94812258Y-66959285D01*
X-94812258Y-67030714D01*
X-94883686Y-67173571D01*
X-94955115Y-67245000D01*
X-95097972Y-67316428D01*
X-95383686Y-67316428D01*
X-95526543Y-67387857D01*
X-95597972Y-67459285D01*
X-95669400Y-67602142D01*
X-95669400Y-67887857D01*
X-95597972Y-68030714D01*
X-95526543Y-68102142D01*
X-95383686Y-68173571D01*
X-95097972Y-68173571D01*
X-94955115Y-68102142D01*
X-94883686Y-68030714D01*
X-94812258Y-67887857D01*
X-94812258Y-67602142D01*
X-94883686Y-67459285D01*
X-94955115Y-67387857D01*
X-95097972Y-67316428D01*
X-94169400Y-68173571D02*
X-94169400Y-67173571D01*
X-94169400Y-67316428D02*
X-94097972Y-67245000D01*
X-93955115Y-67173571D01*
X-93740829Y-67173571D01*
X-93597972Y-67245000D01*
X-93526543Y-67387857D01*
X-93526543Y-68173571D01*
X-93526543Y-67387857D02*
X-93455115Y-67245000D01*
X-93312258Y-67173571D01*
X-93097972Y-67173571D01*
X-92955115Y-67245000D01*
X-92883686Y-67387857D01*
X-92883686Y-68173571D01*
X-92169400Y-68173571D02*
X-92169400Y-67173571D01*
X-92169400Y-67316428D02*
X-92097972Y-67245000D01*
X-91955115Y-67173571D01*
X-91740829Y-67173571D01*
X-91597972Y-67245000D01*
X-91526543Y-67387857D01*
X-91526543Y-68173571D01*
X-91526543Y-67387857D02*
X-91455115Y-67245000D01*
X-91312258Y-67173571D01*
X-91097972Y-67173571D01*
X-90955115Y-67245000D01*
X-90883686Y-67387857D01*
X-90883686Y-68173571D01*
X-88526543Y-67387857D02*
X-89026543Y-67387857D01*
X-89026543Y-68173571D02*
X-89026543Y-66673571D01*
X-88312258Y-66673571D01*
X-86883686Y-68173571D02*
X-87383686Y-67459285D01*
X-87740829Y-68173571D02*
X-87740829Y-66673571D01*
X-87169400Y-66673571D01*
X-87026543Y-66745000D01*
X-86955115Y-66816428D01*
X-86883686Y-66959285D01*
X-86883686Y-67173571D01*
X-86955115Y-67316428D01*
X-87026543Y-67387857D01*
X-87169400Y-67459285D01*
X-87740829Y-67459285D01*
X-85597972Y-67173571D02*
X-85597972Y-68173571D01*
X-85955115Y-66602142D02*
X-86312258Y-67673571D01*
X-85383686Y-67673571D01*
X-110526543Y-70723571D02*
X-111383686Y-70723571D01*
X-110955115Y-70723571D02*
X-110955115Y-69223571D01*
X-111097972Y-69437857D01*
X-111240829Y-69580714D01*
X-111383686Y-69652142D01*
X-109669400Y-70723571D02*
X-109812258Y-70652142D01*
X-109883686Y-70580714D01*
X-109955115Y-70437857D01*
X-109955115Y-70009285D01*
X-109883686Y-69866428D01*
X-109812258Y-69795000D01*
X-109669400Y-69723571D01*
X-109455115Y-69723571D01*
X-109312258Y-69795000D01*
X-109240829Y-69866428D01*
X-109169400Y-70009285D01*
X-109169400Y-70437857D01*
X-109240829Y-70580714D01*
X-109312258Y-70652142D01*
X-109455115Y-70723571D01*
X-109669400Y-70723571D01*
X-108669400Y-69723571D02*
X-107883686Y-69723571D01*
X-108669400Y-70723571D01*
X-107883686Y-70723571D01*
X-105526543Y-70652142D02*
X-105669400Y-70723571D01*
X-105955115Y-70723571D01*
X-106097972Y-70652142D01*
X-106169400Y-70580714D01*
X-106240829Y-70437857D01*
X-106240829Y-70009285D01*
X-106169400Y-69866428D01*
X-106097972Y-69795000D01*
X-105955115Y-69723571D01*
X-105669400Y-69723571D01*
X-105526543Y-69795000D01*
X-104669400Y-70723571D02*
X-104812258Y-70652142D01*
X-104883686Y-70580714D01*
X-104955115Y-70437857D01*
X-104955115Y-70009285D01*
X-104883686Y-69866428D01*
X-104812258Y-69795000D01*
X-104669400Y-69723571D01*
X-104455115Y-69723571D01*
X-104312258Y-69795000D01*
X-104240829Y-69866428D01*
X-104169400Y-70009285D01*
X-104169400Y-70437857D01*
X-104240829Y-70580714D01*
X-104312258Y-70652142D01*
X-104455115Y-70723571D01*
X-104669400Y-70723571D01*
X-103526543Y-69723571D02*
X-103526543Y-71223571D01*
X-103526543Y-69795000D02*
X-103383686Y-69723571D01*
X-103097972Y-69723571D01*
X-102955115Y-69795000D01*
X-102883686Y-69866428D01*
X-102812258Y-70009285D01*
X-102812258Y-70437857D01*
X-102883686Y-70580714D01*
X-102955115Y-70652142D01*
X-103097972Y-70723571D01*
X-103383686Y-70723571D01*
X-103526543Y-70652142D01*
X-102169400Y-69723571D02*
X-102169400Y-71223571D01*
X-102169400Y-69795000D02*
X-102026543Y-69723571D01*
X-101740829Y-69723571D01*
X-101597972Y-69795000D01*
X-101526543Y-69866428D01*
X-101455115Y-70009285D01*
X-101455115Y-70437857D01*
X-101526543Y-70580714D01*
X-101597972Y-70652142D01*
X-101740829Y-70723571D01*
X-102026543Y-70723571D01*
X-102169400Y-70652142D01*
X-100240829Y-70652142D02*
X-100383686Y-70723571D01*
X-100669400Y-70723571D01*
X-100812258Y-70652142D01*
X-100883686Y-70509285D01*
X-100883686Y-69937857D01*
X-100812258Y-69795000D01*
X-100669400Y-69723571D01*
X-100383686Y-69723571D01*
X-100240829Y-69795000D01*
X-100169400Y-69937857D01*
X-100169400Y-70080714D01*
X-100883686Y-70223571D01*
X-99526543Y-70723571D02*
X-99526543Y-69723571D01*
X-99526543Y-70009285D02*
X-99455115Y-69866428D01*
X-99383686Y-69795000D01*
X-99240829Y-69723571D01*
X-99097972Y-69723571D01*
M02*
